<svg width="354" height="93" viewBox="0 0 354 93" fill="none" xmlns="http://www.w3.org/2000/svg">
<rect x="1" y="1.7059" width="352" height="90" rx="13" fill="#1C1C1C"/>
<rect x="1" y="1.7059" width="352" height="90" rx="13" stroke="#FFF597" stroke-width="2"/>
<path d="M24.816 29.6259C24.728 29.4499 24.64 29.2079 24.838 28.9439C24.926 28.8559 25.146 28.8339 25.388 28.6359C25.52 28.5479 25.696 28.3719 26.202 28.3939C26.532 28.4159 26.708 28.5479 26.84 28.6799C26.972 28.8339 27.126 28.7679 27.302 28.7899C27.566 28.8559 28.182 28.8999 28.468 28.9219C28.754 28.9219 29.15 29.0759 29.898 29.0099C30.228 28.9879 30.712 29.0539 31.108 29.0759C31.46 29.0759 32.274 28.7239 32.648 28.7459C33 28.7679 33.22 28.5919 33.902 28.3939C34.408 28.2839 34.892 28.4599 35.464 28.4819C35.838 28.5039 35.97 28.4819 36.102 28.5259C36.366 28.6579 36.586 28.5919 36.762 28.7459C36.894 28.8559 36.806 28.9219 36.894 29.0759L37.158 29.4719C37.356 29.8019 37.07 30.1979 36.916 30.4399C36.696 30.8579 36.652 30.9899 36.058 31.1659C35.706 31.3199 35.222 31.4959 34.826 31.7599C34.43 32.0679 34.144 32.1339 33.704 32.4859L33.506 32.6619C33.374 32.8379 33.176 32.9259 33.044 33.0359C33.022 33.2339 33.22 33.3439 33.594 33.5199C33.594 33.5199 34.1 33.5419 34.364 33.7619C34.628 33.9379 35.068 34.0919 35.398 34.0919C35.662 34.1139 35.838 34.2679 36.08 34.2679C36.806 34.2899 36.894 34.3339 37.466 34.5099C37.928 34.8619 38.39 34.9939 38.61 35.0379C38.852 35.1479 39.292 35.2139 39.688 35.3679C40.084 35.4999 40.48 35.7859 40.48 35.9179C40.48 36.0719 40.524 36.2259 40.48 36.4019C40.326 36.7099 40.458 36.8639 40.172 37.0179C39.688 37.3479 39.292 37.3479 38.786 37.2379C38.522 37.1719 38.236 37.1279 37.994 37.0399C37.818 36.9959 37.642 36.9079 37.466 36.8199C37.048 36.7099 36.828 36.6879 36.388 36.4459C35.684 36.0279 34.914 35.6759 34.166 35.3679C33.946 35.2579 33.748 35.1479 33.616 34.9939C33.33 34.6859 33.132 34.6419 32.78 34.4439C32.538 34.3999 32.208 34.3779 32.032 34.3779C31.636 34.5979 31.152 34.6639 30.756 34.9279C30.47 35.1479 30.404 35.3459 30.118 35.5219C29.854 35.6979 29.59 35.7419 29.304 35.8299C28.974 35.9619 28.71 36.1379 28.38 36.3579C28.16 36.5119 28.16 36.4679 27.786 36.7319C27.39 36.9739 27.17 37.4579 26.774 37.7879C26.51 38.0299 26.224 38.2059 25.982 38.3379C25.784 38.4699 25.256 38.5579 25.124 38.7779C24.926 39.0639 24.684 39.2619 24.288 39.3059C24.068 39.3499 23.936 39.4599 23.65 39.2839C23.342 39.1519 23.188 38.9539 23.122 38.7559C22.99 38.4479 22.968 38.3159 23.144 38.0299C23.298 37.7439 23.606 37.6559 23.804 37.4139C24.002 37.1279 24.288 36.9079 24.596 36.7319C24.86 36.5559 24.97 36.3139 25.256 36.2479C25.432 36.2039 25.828 35.7859 26.07 35.6759C26.444 35.5659 26.576 35.5879 26.84 35.3019C27.126 34.9719 27.324 34.9939 27.698 34.7739C28.116 34.4879 28.204 34.5099 28.644 34.2679C28.93 34.0479 29.018 34.1139 29.084 33.9599C29.15 33.8059 29.568 33.5419 29.898 33.3659C30.206 33.2339 30.448 33.0359 30.69 32.7939C30.998 32.5739 31.394 31.9799 31.746 31.7819C31.9 31.6719 32.076 31.6279 32.186 31.5399C32.362 31.3859 33.22 31.0559 33.418 30.7259C33.572 30.4179 34.1 30.3959 34.1 30.1979C34.1 30.1319 33.286 30.1759 33.286 30.1759C33.154 30.1759 32.318 30.3519 32.208 30.3959C32.01 30.4839 31.702 30.5279 31.438 30.6159C31.13 30.7259 30.976 30.8579 30.646 30.8579C30.426 30.8579 29.92 30.7699 29.722 30.8139C29.15 30.8799 28.556 30.7919 28.006 30.8579C27.5 30.9239 26.994 30.5939 26.488 30.5719C26.18 30.5499 25.542 30.3959 25.41 30.2859C25.366 30.2419 25.014 30.0879 24.992 29.8899C24.97 29.6919 24.816 29.6259 24.816 29.6259ZM30.932 36.8419C30.976 36.7539 30.998 36.6439 31.108 36.5339C31.284 36.3579 31.57 36.4019 31.79 36.4899C31.988 36.5559 32.428 36.5779 32.494 36.7979C32.494 36.7979 32.692 37.2819 32.736 37.4799C32.824 37.6559 32.802 37.9419 32.89 38.0519C32.978 38.2279 32.978 38.3159 33 38.4699C32.978 38.6239 32.978 38.7119 32.912 38.8439C32.868 38.9319 33 39.1959 32.978 39.2839C32.868 39.4159 32.978 39.7899 32.89 40.1199C32.868 40.2079 33.044 40.3399 33 40.4059C32.89 40.4939 33.154 41.0219 33 41.1539C32.868 41.2859 33.088 41.1759 33.198 41.1979C33.33 41.2199 33.528 41.1979 33.704 41.1979C33.792 41.1979 34.122 41.1539 34.32 41.1539C34.386 41.1539 34.716 41.0879 35.354 40.9779C35.992 40.8899 35.97 40.8679 36.168 40.8239C36.432 40.8019 36.718 40.9119 37.004 40.8239C37.202 40.7359 37.466 40.8899 37.928 40.8019C38.39 40.6919 39.336 40.8899 39.446 40.8899C39.622 40.8899 40.128 40.8679 40.7 41.1319C41.096 41.3079 41.47 41.4839 41.36 41.8579C41.272 42.1439 41.25 42.4079 41.14 42.5839C41.096 42.7599 40.92 42.8699 40.524 42.9359C40.37 42.9579 40.084 42.9799 39.952 42.9139C39.666 42.7599 39.468 42.8699 39.292 42.8699C39.006 42.8699 38.742 43.0239 38.566 43.0239C38.456 43.0239 38.192 43.1339 38.082 43.1339C37.906 43.1339 37.62 43.0679 37.532 43.0679C37.356 43.0679 36.586 43.1119 36.498 43.1119C36.322 43.1119 35.948 43.0239 35.64 43.0459C35.266 43.0679 34.826 42.9139 34.628 42.9139C34.562 42.9139 33.88 42.9359 33.66 42.9799C32.978 43.1119 32.12 42.9139 31.196 43.0899C31.064 43.1119 30.932 43.2219 30.756 43.2219C30.426 43.2219 30.096 43.3099 29.766 43.2879C29.568 43.2659 28.622 43.2879 28.358 43.2879C28.16 43.2879 27.434 43.3759 27.17 43.3759C26.994 43.3759 26.598 43.0679 26.18 43.3319C25.63 43.5079 25.388 43.5299 25.212 43.6179C25.014 43.7059 24.706 43.6179 24.552 43.6179C24.376 43.6179 24.134 43.6619 23.936 43.6179C23.562 43.5299 23.298 43.3319 23.1 43.1779C23.1 43.1779 22.924 43.0239 22.902 42.8699C22.836 42.1879 22.99 42.0779 23.716 41.7479C23.892 41.6599 24.288 41.4399 24.42 41.4619C24.662 41.5059 24.794 41.5499 24.794 41.5499C25.146 41.6159 25.212 41.2639 25.564 41.3299L26.378 41.4619C26.642 41.5059 26.906 41.4399 27.214 41.3959C27.5 41.3519 27.742 41.3959 27.852 41.3959C28.006 41.3959 28.204 41.4179 28.358 41.3959C28.644 41.3519 28.578 41.3519 28.842 41.2859C29.15 41.1979 29.634 41.1539 29.854 41.1759C30.008 41.1539 30.8 41.2639 30.976 41.1759C31.152 41.0879 31.064 40.7359 31.108 40.6479C31.196 40.4499 31.152 40.4499 31.174 40.3619C31.196 40.1859 31.086 39.7459 31.086 39.7459C31.064 39.1959 31.042 38.9099 30.976 38.4919C30.91 38.3379 31.064 38.0739 31.064 37.9859C31.108 37.7879 30.866 37.6119 30.932 37.4139C30.998 37.2159 30.866 36.9739 30.932 36.8419ZM48.0294 39.3939C47.8974 39.6579 47.3914 39.8119 47.2154 40.0319C46.9734 40.3179 46.5774 40.2739 46.3794 40.6039C46.1814 40.9339 45.9614 41.1099 45.7194 41.1979C45.3234 41.3519 45.0594 41.5719 44.5974 41.6159C44.1354 41.5719 44.0694 41.7919 43.8054 41.6379C43.6294 41.5279 43.5194 41.4839 43.3434 41.3959C43.1894 41.2859 43.1674 41.1099 43.3214 40.9119C43.4314 40.8019 43.5194 40.7359 43.7174 40.5819C44.0254 40.3399 44.0254 40.2959 44.1354 40.1639C44.2454 39.9879 44.3774 39.8559 44.5314 39.7019C44.7514 39.5259 45.5874 38.8659 45.6314 38.7779C45.7634 38.6019 45.9394 38.4039 46.2034 38.2059C46.4234 38.0519 46.9294 38.0299 47.0834 37.8759C47.2594 37.7219 47.9194 37.0399 48.2054 36.8639C48.5354 36.7099 49.0194 36.2259 49.1294 36.0719C49.2174 35.9179 49.3274 35.5879 49.3274 35.4339L49.2174 34.7959C49.2174 34.5099 48.4254 34.2239 48.2274 34.1579C47.9414 34.0479 47.3914 33.8279 47.1494 33.9379C46.7974 34.1139 46.8634 34.2679 46.5994 34.5979C46.3354 34.9059 46.0274 35.2359 45.5434 35.3899L44.8174 35.8519C44.2674 36.0719 44.3114 36.1599 43.7614 36.1159C43.2334 36.0499 43.0794 35.3899 42.9694 34.8839C42.8594 34.4219 43.7174 34.2019 44.2014 33.8279C44.6634 33.4759 45.1914 33.1239 45.5214 32.7939C45.6754 32.5959 46.0274 32.1339 46.2034 31.9579C46.8414 31.2759 47.0834 30.8579 47.0834 30.5279C47.0834 30.3079 47.1934 30.0659 47.3254 29.7799C47.4354 29.4719 47.5674 29.1419 47.6334 28.7459C47.6994 28.2839 47.4134 28.1299 47.1934 27.9319C47.0614 27.8219 46.9734 27.6679 46.9954 27.4479C47.2374 27.0739 47.7434 27.0519 48.3814 27.2719C49.0194 27.4919 49.5254 28.2839 49.5254 28.6139C49.5254 28.7899 49.6574 29.3179 49.5034 29.8459C49.3934 30.1979 48.9974 30.5279 48.9094 30.7039C48.6894 31.1439 48.6014 31.8919 48.6894 32.3319C48.7994 32.7499 49.5694 32.7499 50.0094 32.5959C50.2074 32.5299 50.6474 32.7719 50.8234 32.8159C51.3074 32.9479 51.3954 33.2779 51.5714 33.4319C51.6154 33.4759 51.7474 33.5419 51.8794 33.7179C52.4954 33.6519 53.1774 33.6079 53.4634 33.6519C53.7054 33.6959 54.6514 33.5419 55.1574 33.4759C55.4654 33.4099 55.9934 33.4099 56.7194 33.4539C57.4454 33.4979 57.7974 33.1239 58.0394 32.8379C58.2374 32.5739 58.0834 32.3539 57.9954 31.7379C57.9734 31.5179 57.9514 31.2979 57.9514 31.0779C57.9294 30.4839 58.0174 30.1539 57.9734 29.8459C57.9294 29.6039 57.8634 29.3619 57.4454 28.9659C57.2254 28.7459 56.9614 28.5039 56.9174 28.2839C56.7634 27.6679 56.8954 27.0299 57.1594 26.8319C57.4894 26.5899 57.5994 26.5899 57.9734 26.6779C58.1274 26.6999 58.1714 26.7219 58.3694 26.8759C58.3694 26.8759 58.7434 27.0299 58.9414 27.0959C59.1394 27.1619 59.1834 27.3159 59.2934 27.4039C59.4254 27.5139 59.3374 27.8219 59.4694 27.9759C59.6014 28.1299 59.6674 28.5699 59.8214 29.1639C59.8874 29.4499 60.0414 30.0439 59.8874 30.3519C59.7994 30.5279 59.8214 31.1219 59.8214 31.2539L59.9534 32.0459L59.8874 33.2119L59.8434 34.1139C59.8214 34.4219 59.8874 34.8399 59.8874 35.0599C59.8654 35.2799 59.9534 35.7639 59.9314 36.1379C59.9094 36.5559 59.7334 37.2819 59.6894 37.8099L59.7774 38.2719C59.7554 38.4039 59.6674 39.2179 59.5574 39.3719C59.4474 39.5259 59.6674 39.6799 59.5134 39.8999C59.3154 40.0979 59.0734 40.4939 58.8754 40.6039C58.6554 40.6919 58.5234 40.5159 58.3474 40.4939C58.2154 40.4939 57.9734 40.1639 57.8854 39.8339C57.7974 39.5259 57.7974 39.4379 57.7754 39.1079C57.7314 38.7779 57.7314 38.8219 57.7534 38.6019C57.7534 38.4039 57.6874 37.9639 57.6874 37.9639C57.6874 37.9639 57.7314 37.7659 57.9294 37.5019C58.0834 37.2379 57.9074 37.0179 57.9294 36.7979C57.9294 36.5999 58.0614 35.8739 57.9734 35.7199C57.8634 35.5439 57.7094 35.4779 57.4234 35.3239C57.2254 35.2359 56.6534 35.1919 56.3894 35.1919C56.0594 35.1919 55.8834 35.1259 55.6634 35.1259L54.2994 35.3019C53.9914 35.3019 53.3974 35.5439 52.9574 35.4119C52.8254 35.4119 51.8794 35.4559 51.2634 35.4779L51.2414 35.5219C51.0434 35.8299 50.8674 36.7539 50.5374 37.1499C50.2294 37.5019 49.9654 37.8759 49.7674 37.9859C49.5474 38.0959 49.4374 38.2719 49.1734 38.4699C48.9094 38.7559 48.6234 38.9539 48.3154 39.2179C48.2274 39.3059 48.0074 39.3059 48.0294 39.3939ZM47.8974 42.7599C47.5894 42.2319 47.2154 41.7259 47.2814 41.4399C47.3694 40.9779 48.2274 40.8899 48.7114 40.9999C49.0194 41.0879 49.3714 41.2419 49.4814 41.2419C49.7014 41.3079 49.9654 41.3959 50.0094 41.5499C50.0754 41.6819 50.2294 42.1659 50.4054 42.2539C50.6914 42.3639 50.4714 43.0239 50.9334 43.1119C51.1974 43.1779 51.4174 43.3979 51.5714 43.4639C51.8134 43.5739 52.7594 43.7279 52.9134 43.7279C53.0674 43.7279 53.9034 43.7059 54.1674 43.7499C54.4314 43.7939 54.7614 43.7059 54.8494 43.7059C55.0694 43.6839 55.6634 43.7719 56.2794 43.8819C56.5654 43.9039 57.0934 43.6619 57.6214 43.6399C58.1494 43.6179 58.5454 43.3319 58.6774 43.3319C59.1834 43.2879 59.4914 43.3539 59.7774 43.3319C60.0194 43.3319 60.7234 43.8599 61.0094 44.1899C61.1194 44.3219 60.9434 44.8939 60.8774 45.0919C60.7674 45.2899 60.3494 45.4219 59.7114 45.4439C59.2054 45.4659 58.9194 45.5759 58.6334 45.5759C57.9514 45.5979 57.9954 45.4659 57.6654 45.5979C57.4674 45.6859 56.6314 45.6419 56.3014 45.6639C55.9934 45.6639 55.8394 45.5759 55.5974 45.5979C55.4434 45.5979 54.9374 45.7519 54.3874 45.6859C53.7054 45.5979 53.2874 45.7519 53.0674 45.6639C52.8694 45.5539 51.6594 45.7959 51.3734 45.7299C51.2194 45.7079 50.5594 45.6199 50.2734 45.4879C50.0094 45.3339 49.6794 45.2459 49.5694 45.0919C49.4594 44.9159 48.7774 43.8379 48.5574 43.6399C48.3154 43.3759 48.0074 42.9139 47.8974 42.7599ZM76.5354 27.9319L77.2834 27.6459C77.2834 27.6459 77.8554 27.6459 78.0754 27.6679C78.2294 27.6679 78.5154 27.6899 78.5154 27.6899C78.5154 27.6899 78.9994 27.8439 79.1754 28.0419H79.4614C79.7034 28.0419 79.7474 28.3719 79.8134 28.6139C79.8794 28.7459 79.7034 28.9219 79.7034 29.0759C79.7034 29.2519 79.7254 29.3619 79.6594 29.4939L79.4394 29.6919C79.2634 29.9559 79.2634 29.9559 78.7574 30.3959C78.2294 30.8139 78.7574 30.3959 78.3174 30.7479L78.1634 30.8579L77.6354 31.2979C77.4594 31.4959 77.1734 31.7599 77.1514 31.7819C77.1514 31.7819 77.1074 31.8479 76.9094 32.0679L77.8114 32.6619C78.0974 32.6619 78.1414 32.7499 78.5154 32.9479C78.8674 33.1239 78.7354 33.0799 78.9994 33.1459C79.2414 33.1899 79.2854 33.2559 79.2854 33.2559L79.5054 33.5199V33.6959C79.5054 33.8499 79.4834 34.2019 79.4834 34.2019L79.2854 34.7079L79.2414 35.4339C79.2414 35.4339 78.8674 35.8079 78.7354 35.9619C78.6034 36.0719 78.6034 36.4019 78.6034 36.4019C78.6034 36.4019 77.8114 36.6879 77.8114 36.8419C77.8114 36.9959 76.9754 37.8759 76.9754 37.8759C76.9754 37.8759 76.8214 38.1179 76.5134 38.2059C76.1834 38.2939 76.3374 38.3819 76.2274 38.5139C76.1174 38.6459 75.7654 38.8879 75.7654 38.8879L75.1494 39.2839C75.1494 39.2839 74.9074 39.5259 74.7094 39.7459C74.5554 39.9879 74.4454 39.9659 74.2694 40.0979C74.0934 40.1859 73.9174 40.2299 73.9174 40.2299L73.5214 40.3839L73.0154 40.6699L72.3334 40.8019C72.0694 40.9559 71.5854 40.7799 71.3874 40.7799C71.2334 40.7579 71.0574 40.5379 71.0574 40.5379C70.9694 40.4059 69.9354 39.8559 70.5954 39.6139L70.8374 39.4819C71.0794 39.3059 71.3654 39.2399 71.3654 39.2399L72.0034 39.0419C72.0034 39.0419 72.0914 38.9979 72.5534 38.7339L72.7294 38.6679L72.7734 38.6459C72.9274 38.5359 73.4994 38.2279 73.4994 38.2279L73.7194 37.9199C73.9614 37.6339 74.2474 37.5899 74.2474 37.5899L74.4454 37.3259C74.5994 37.0839 74.6654 37.0839 74.7974 36.9299C74.9074 36.7979 75.1934 36.6879 75.1934 36.6879L75.5454 36.3359C75.5454 36.3359 76.1174 35.9839 76.2934 35.7859C76.5794 35.4339 77.1294 35.0819 77.0194 34.6419C76.9974 34.4659 76.9314 34.3779 76.7994 34.2679C76.6674 34.1139 76.6674 33.9599 76.5134 33.9159L75.8974 33.7179L75.5234 33.4759L73.8074 34.6419L73.0814 35.0599C73.0814 35.0599 72.6854 35.3239 72.0914 35.3019C71.8714 35.3019 71.4094 35.4559 70.9914 35.0819C70.5954 34.7739 70.7054 34.3779 70.7934 34.2239C70.9694 33.9599 71.3654 33.9599 71.5414 33.6959C71.6514 33.5199 72.2014 33.2779 72.2014 33.2779L72.9494 32.7499L73.4114 32.4639C73.4114 32.4859 73.4774 32.4859 74.0054 32.3099L74.5994 31.8039C74.5994 31.8039 75.1714 31.4959 75.4574 31.3199C75.6114 31.2319 75.7434 31.1659 75.9854 30.9899L76.7334 30.1319C76.6674 29.9999 76.7554 29.7359 76.7554 29.7359L76.1834 29.7139L75.4794 29.6919L74.5994 29.9339L72.3334 30.1759L71.5414 29.8899C71.4094 29.8019 71.2114 29.6919 71.1674 29.5379C71.1234 29.3839 71.1894 29.2299 71.2334 29.0319C71.3654 28.6579 71.3654 28.2839 71.6734 28.1079C71.9374 27.9319 72.2014 28.1299 72.4654 28.1299C72.8834 28.1079 73.2794 27.9979 73.6974 27.9979C74.0494 27.9979 75.2374 28.1079 75.5894 28.0639L76.5354 27.9319ZM80.1654 34.3999C79.9014 33.6299 80.1874 33.1019 80.7374 33.2119C81.1114 33.2119 81.5954 33.3219 82.0574 33.1239L82.6074 33.0359L83.2234 32.9699C83.3334 32.8599 84.1914 32.7279 84.1914 32.7279V31.9799C84.1914 31.9799 84.1254 31.6939 84.1254 31.4739C84.1254 31.2319 84.1914 31.1439 84.1254 30.9019C84.0814 30.6819 84.2354 30.2419 84.0814 29.9559L83.7294 28.9219L83.1794 28.5699L82.8714 28.3499C82.7394 28.2619 82.5414 28.0199 82.5634 27.6899C82.5854 27.4259 82.6294 26.8099 83.1794 26.7659L83.9714 26.6999L84.4114 26.7659L84.8074 26.9859C84.8074 26.9859 85.0934 27.2719 85.2034 27.2719C85.3794 27.2719 85.7314 27.4479 85.7314 27.4479C85.7314 27.4479 86.1714 27.7339 86.1714 27.9539V28.5699L86.2594 29.4279L86.3694 30.2419L86.2374 30.9019V33.8059C86.2374 33.8059 86.2814 34.4879 86.4574 34.7739L86.2814 35.6099V36.5339C86.2814 36.5339 86.1714 37.8099 86.4134 38.2499C86.5674 38.7559 86.4134 38.9979 86.4134 38.9979V39.2839C86.4134 39.2839 86.0174 39.7899 85.9514 39.9659C85.8854 40.1199 85.5994 40.2959 85.5994 40.2959C85.2914 40.3399 84.9614 40.4719 84.7634 40.1639C84.6754 40.0319 84.3674 39.8339 84.4774 39.4379C84.5214 39.2839 84.4774 38.9319 84.4774 38.9319C84.4774 38.9319 84.4114 38.4259 84.4774 38.0739L84.4114 36.5779V35.4119L84.1914 34.7299L83.4434 34.9499L83.1574 35.0159C83.1574 35.0159 83.0034 35.1699 82.7174 35.1039L81.9034 35.1919C81.9034 35.1919 80.8034 35.2799 80.1654 34.3999ZM74.2474 40.6259H74.7534L75.8974 41.4399L76.1614 41.8359C76.1614 41.8359 76.3594 42.7599 76.5134 42.9139C76.6674 43.0239 76.8654 43.1339 77.1294 43.2439L77.9434 43.4199C77.9434 43.4199 78.5154 43.3539 78.6034 43.4199H79.4614C79.4614 43.4199 79.9674 43.1779 80.2314 43.4199L81.6834 43.1779H82.4754C82.7834 43.1779 83.0914 43.1779 83.2674 43.1119L84.9174 42.8699C85.5334 42.7379 85.9734 43.0679 86.2374 43.1119H86.7434C86.8534 43.2879 87.2494 43.6399 87.2494 43.6399L87.4694 43.9259C87.4694 43.9259 87.4694 43.5739 87.5794 44.2559L87.2274 44.9599C86.8974 45.3119 87.2274 44.9599 86.5894 45.2459H85.7534L85.1814 45.0919C84.9174 45.0919 84.9174 45.0479 84.9174 45.0479H84.4554L83.5534 45.2459H81.9474C81.9474 45.2459 80.9134 45.2679 80.7594 45.2679H79.8574C79.8574 45.2679 79.5054 45.2679 79.3074 45.3119L78.2954 45.3779H77.2614C77.2614 45.3779 76.4914 45.4219 76.3154 45.3779L75.4354 44.9819C75.4354 44.9819 75.0174 44.7399 74.7534 44.5419V44.1019L74.2474 42.5839C74.1154 42.2979 74.0274 41.8359 73.7194 41.7919V41.2419L74.2474 40.6259ZM72.0254 39.0199L72.0034 39.0419C72.0034 39.0419 72.0034 39.0199 72.0254 39.0199ZM99.8369 29.2299C100.101 29.3179 100.497 29.9779 100.761 30.5499C100.893 30.7919 100.607 31.1879 100.717 31.4739C100.827 31.8259 100.739 31.8919 100.607 32.2219C100.321 32.9259 100.277 33.7619 99.9029 34.2679C99.5729 34.6859 99.3529 35.0379 99.1769 35.6099C99.0669 35.9619 98.5389 36.2919 98.2749 36.6219L97.8349 37.1499C97.5929 37.4799 97.4169 37.7439 97.0869 38.0739C96.4269 38.7559 96.1409 38.8659 96.0309 39.1739C95.9429 39.4159 95.2389 40.0539 94.6889 40.3619C94.3369 40.5379 93.8529 40.8019 93.4349 40.9559C92.6869 41.2419 92.0489 41.2859 91.6089 41.2419C90.8389 41.1539 90.7069 40.8239 91.1029 40.0539C91.2349 39.7459 92.2689 39.4379 92.3789 39.2619C92.5329 38.9759 93.1489 38.9319 93.7869 38.4699C94.0509 38.3159 94.2489 37.7439 94.4909 37.5459C94.7329 37.3919 95.1069 37.0179 95.4589 36.6439C95.7889 36.2699 96.0969 35.9399 96.1849 35.8079C96.9109 34.8399 97.6149 34.2459 98.0989 33.4099C98.2309 33.2119 98.2529 32.7499 98.3189 32.5299C98.4289 32.2219 98.5389 32.1779 98.4509 31.9139C98.3629 31.6719 98.6489 31.4959 98.3629 31.3199C97.9889 31.0999 97.1529 31.3419 96.7349 31.5179C96.4929 31.6279 95.8109 31.6059 95.5469 31.7599C95.2829 31.8919 94.9749 31.5619 94.6449 31.6939C94.0509 31.9359 93.1049 31.8259 92.5989 31.8039C91.7629 31.7599 91.4549 31.7599 91.1029 31.4079C90.3769 30.7039 90.4869 30.2199 91.1029 29.7359C91.6749 29.2519 92.5329 29.7359 92.5329 29.7359H93.5449C94.0949 29.7359 94.7769 29.6479 95.1949 29.6479C96.0309 29.6479 97.4609 29.5819 98.2749 29.2299C99.1109 28.8779 99.8369 29.2299 99.8369 29.2299ZM103.511 28.5479C103.621 28.1519 103.379 27.2499 103.643 27.1399C103.797 27.0959 103.907 26.4579 104.083 26.4579C104.281 26.4359 104.875 26.5459 105.073 26.5679C105.271 26.5899 105.755 27.3159 105.909 27.5359C106.349 28.0859 106.239 28.9219 106.173 29.5379C106.173 29.9119 106.239 30.7919 106.239 31.8699C106.239 32.4859 106.195 33.1459 106.129 33.8059C105.997 34.7959 106.547 36.8639 106.063 37.7879C105.799 38.2719 106.305 39.3499 106.305 39.8119C106.305 40.4059 106.283 41.0219 106.217 41.7039C106.129 42.6719 105.865 43.3979 105.513 43.8819C105.315 44.2119 105.051 44.4319 104.809 44.6079C104.479 44.8279 104.149 44.9159 103.885 44.9159C103.401 44.9159 103.555 44.3439 103.665 43.3979C103.731 42.8259 103.379 42.3199 103.797 41.6599C104.083 41.2199 103.863 40.4059 103.885 39.9439C103.929 39.1739 103.863 37.9859 103.885 37.3039C103.907 36.4459 103.973 34.4879 103.819 34.0699C103.467 33.1019 103.951 31.9139 103.819 30.5059C103.687 29.1199 103.269 29.4059 103.511 28.5479Z" fill="white"/>
<path d="M22.7539 60.7332C23.4277 60.3348 24.1016 59.8368 24.8047 59.2215H26.0352V67.7059H24.8047V60.745H24.7578C24.1016 61.2664 23.416 61.7293 22.7539 62.0692V60.7332ZM31.1211 67.87C29.627 67.87 28.5547 67.1317 27.9805 65.8192L29.1289 65.3739C29.5391 66.2821 30.2012 66.7332 31.1094 66.7332C32.1699 66.7332 32.9434 66.1122 32.9375 65.2567C32.9434 64.3426 32.0703 63.7918 30.6289 63.7918H30.3477V62.7254H30.6289C31.8828 62.7254 32.627 62.2625 32.6211 61.4598C32.627 60.7215 31.9883 60.1942 31.0859 60.1942C30.3008 60.1942 29.7031 60.5985 29.3633 61.3543L28.2148 60.909C28.748 59.6903 29.7969 59.0575 31.0977 59.0575C32.7031 59.0575 33.8867 60.0418 33.8867 61.3778C33.8867 62.286 33.3242 62.9247 32.293 63.2293V63.2762C33.5117 63.6102 34.209 64.3485 34.2148 65.3856C34.209 66.8153 32.8906 67.87 31.1211 67.87ZM38.0938 67.87C37.0391 67.87 36.1543 67.3895 35.4805 66.4637L36.4297 65.7489C36.9219 66.4168 37.4434 66.7039 38.082 66.6981C39.3008 66.7039 40.2559 65.6551 40.332 63.5809H40.2852C39.7988 64.3075 38.9961 64.7586 38.0586 64.7528C36.541 64.7586 35.3691 63.5692 35.3633 61.9286C35.3691 60.2469 36.6289 59.0575 38.375 59.0575C40.4141 59.0575 41.5918 60.7098 41.5977 63.2762C41.5918 66.1883 40.1035 67.87 38.0938 67.87ZM38.375 63.6629C39.3945 63.6571 40.1211 62.9422 40.1211 61.9286C40.1211 60.909 39.3945 60.1942 38.375 60.1942C37.3496 60.1942 36.623 60.909 36.6172 61.9286C36.623 62.9422 37.3496 63.6571 38.375 63.6629ZM42.9102 66.5575C45.8809 64.6063 47.2227 63.1004 47.2227 61.7411C47.2227 60.7801 46.584 60.2118 45.6523 60.2176C44.9258 60.2118 44.3867 60.5516 44.0938 61.5536L42.8867 61.2254C43.3262 59.7196 44.3574 59.0575 45.6523 59.0575C47.293 59.0575 48.4766 60.1297 48.4766 61.7176C48.4766 63.3055 47.1875 64.8524 44.9023 66.5106V66.5575H48.6055V67.7059H42.9102V66.5575ZM58.4609 58.2137V65.9598H57.3242V62.3973H54.4531V61.5067H57.3242V60.4051H54.4531V59.5145H57.3242V58.2137H58.4609ZM58.7188 67.5653V68.4793H51.6172V65.2801H52.7422V67.5653H58.7188ZM51.418 58.9403V63.534C52.8477 63.5223 54.1426 63.4403 55.6484 63.1707L55.7656 64.0965C54.1016 64.3954 52.6484 64.4657 51.1133 64.4598H50.3164V58.9403H51.418ZM67.6836 64.5418C66.5117 64.5418 66.0898 63.6102 65.3633 63.6043C65.0586 63.6102 64.7832 63.786 64.2031 64.4364L63.3008 63.6278C64.0801 62.7782 64.5781 62.3856 65.3164 62.3856C66.4824 62.3856 66.9043 63.3172 67.625 63.3231C67.9297 63.3172 68.2109 63.1414 68.7969 62.4793L69.6992 63.2997C68.9141 64.1493 68.416 64.5418 67.6836 64.5418ZM73.9883 60.7332C74.6621 60.3348 75.3359 59.8368 76.0391 59.2215H77.2695V67.7059H76.0391V60.745H75.9922C75.3359 61.2664 74.6504 61.7293 73.9883 62.0692V60.7332ZM79.4961 64.1551L79.9531 59.2098H84.8867V60.3582H81.0898L80.8203 63.0418H80.8672C81.3301 62.4911 82.0039 62.1629 82.7656 62.1629C84.2012 62.1629 85.4434 63.3289 85.4492 64.9872C85.4434 66.6805 84.166 67.87 82.3672 67.87C80.9551 67.87 79.8125 67.1375 79.2148 65.8543L80.3633 65.3856C80.7734 66.2821 81.459 66.7332 82.3555 66.7332C83.457 66.7332 84.1895 66.036 84.1953 64.9989C84.1895 63.9618 83.457 63.2645 82.3672 63.2645C81.6055 63.2645 81.0195 63.5985 80.7383 64.1551H79.4961ZM89.3281 67.87C88.2734 67.87 87.3887 67.3895 86.7148 66.4637L87.6641 65.7489C88.1562 66.4168 88.6777 66.7039 89.3164 66.6981C90.5352 66.7039 91.4902 65.6551 91.5664 63.5809H91.5195C91.0332 64.3075 90.2305 64.7586 89.293 64.7528C87.7754 64.7586 86.6035 63.5692 86.5977 61.9286C86.6035 60.2469 87.8633 59.0575 89.6094 59.0575C91.6484 59.0575 92.8262 60.7098 92.832 63.2762C92.8262 66.1883 91.3379 67.87 89.3281 67.87ZM89.6094 63.6629C90.6289 63.6571 91.3555 62.9422 91.3555 61.9286C91.3555 60.909 90.6289 60.1942 89.6094 60.1942C88.584 60.1942 87.8574 60.909 87.8516 61.9286C87.8574 62.9422 88.584 63.6571 89.6094 63.6629ZM94.1445 66.5575C97.1152 64.6063 98.457 63.1004 98.457 61.7411C98.457 60.7801 97.8184 60.2118 96.8867 60.2176C96.1602 60.2118 95.6211 60.5516 95.3281 61.5536L94.1211 61.2254C94.5605 59.7196 95.5918 59.0575 96.8867 59.0575C98.5273 59.0575 99.7109 60.1297 99.7109 61.7176C99.7109 63.3055 98.4219 64.8524 96.1367 66.5106V66.5575H99.8398V67.7059H94.1445V66.5575ZM109.695 58.2137V65.9598H108.559V62.3973H105.688V61.5067H108.559V60.4051H105.688V59.5145H108.559V58.2137H109.695ZM109.953 67.5653V68.4793H102.852V65.2801H103.977V67.5653H109.953ZM102.652 58.9403V63.534C104.082 63.5223 105.377 63.4403 106.883 63.1707L107 64.0965C105.336 64.3954 103.883 64.4657 102.348 64.4598H101.551V58.9403H102.652Z" fill="#A7A7A7"/>
</svg>
