<svg width="350" height="582" viewBox="0 0 350 582" fill="none" xmlns="http://www.w3.org/2000/svg">
<path d="M0 8C0 3.58172 3.58172 0 8 0H342C346.418 0 350 3.58172 350 8V52C350 56.4183 346.418 60 342 60H8C3.58172 60 0 56.4183 0 52V8Z" fill="#1C1C1C"/>
<g filter="url(#filter0_d_491_4018)">
<path d="M34.0005 18.832C40.1859 18.8322 45.1997 23.8323 45.1997 30C45.1997 36.1677 40.1859 41.1678 34.0005 41.168C27.8149 41.168 22.8003 36.1678 22.8003 30C22.8003 23.8321 27.8149 18.832 34.0005 18.832ZM29.3169 27.4336V34.5732H38.6323V27.4336H29.3169Z" fill="#FFF4CB"/>
</g>
<rect x="29.1772" y="26.4517" width="9.45551" height="0.981425" fill="#AE9B52"/>
<g filter="url(#filter1_i_491_4018)">
<path d="M33.9998 19.4619C39.8928 19.4619 44.6706 24.18 44.6707 30C44.6707 35.8201 39.8928 40.5381 33.9998 40.5381C28.1069 40.5378 23.3298 35.8199 23.3298 30C23.3299 24.1801 28.1069 19.4622 33.9998 19.4619ZM29.2898 26.415V34.7051H38.7097V26.415H29.2898Z" fill="#FFDD60"/>
</g>
<path d="M38.7986 24.8677C39.0349 24.8678 39.2263 25.06 39.2263 25.2964V34.7036C39.2263 34.94 39.0349 35.1322 38.7986 35.1323H29.2009C28.9647 35.1321 28.7732 34.9399 28.7732 34.7036V25.2964C28.7732 25.0601 28.9647 24.8679 29.2009 24.8677H38.7986ZM29.3474 26.4517V34.5835H38.6531V26.4517H29.3474Z" fill="#FFF597"/>
<path d="M32.0755 37.9566C32.0755 38.3419 31.87 38.5628 31.5438 38.5628C31.3126 38.5628 31.1199 38.5423 31.0017 38.4986L31.0146 38.0131H31.161L31.2458 38.3419H31.2792C31.4513 38.3419 31.4847 38.27 31.4847 38.1184V36.78L31.3177 36.7055V36.6156H32.2425V36.7055L32.0755 36.78V37.9566ZM33.1604 38.5577C32.5876 38.5577 32.3153 38.2289 32.3153 37.5687C32.3153 36.9136 32.5876 36.5848 33.1604 36.5848C33.7333 36.5848 34.0056 36.9136 34.0056 37.5687C34.0056 38.2289 33.7333 38.5577 33.1604 38.5577ZM33.1604 38.3188C33.33 38.3188 33.3942 38.1415 33.3942 37.5687C33.3942 37.0035 33.33 36.8211 33.1604 36.8211C32.9935 36.8211 32.9267 37.0035 32.9267 37.5687C32.9267 38.1415 32.9935 38.3188 33.1604 38.3188ZM35.5849 38.3933C35.4847 38.478 35.2612 38.5577 34.9735 38.5577C34.4083 38.5577 34.1591 38.2109 34.1591 37.5738C34.1591 36.9367 34.4083 36.5848 34.9735 36.5848C35.2612 36.5848 35.4847 36.6644 35.5849 36.7492L35.5489 37.281H35.4051L35.2895 36.8622C35.2252 36.8494 35.1636 36.8442 35.1173 36.8442C34.8245 36.8442 34.7705 37.1679 34.7705 37.5738C34.7705 37.9797 34.8245 38.2982 35.1173 38.2982C35.1636 38.2982 35.2252 38.2931 35.2895 38.2802L35.4051 37.8615H35.5489L35.5849 38.3933ZM36.5597 38.5577C35.9868 38.5577 35.7145 38.2289 35.7145 37.5687C35.7145 36.9136 35.9868 36.5848 36.5597 36.5848C37.1325 36.5848 37.4048 36.9136 37.4048 37.5687C37.4048 38.2289 37.1325 38.5577 36.5597 38.5577ZM36.5597 38.3188C36.7292 38.3188 36.7934 38.1415 36.7934 37.5687C36.7934 37.0035 36.7292 36.8211 36.5597 36.8211C36.3927 36.8211 36.3259 37.0035 36.3259 37.5687C36.3259 38.1415 36.3927 38.3188 36.5597 38.3188Z" fill="#B29014" fill-opacity="0.3"/>
<path d="M65.7495 22.092H67.7655V36.908H65.7495V22.092ZM63.8135 27.804H66.2775V29.516H63.8135V27.804ZM62.4375 22.348H64.4215V36.22H62.4375V22.348ZM55.6695 23.74H57.7975V32.3H55.6695V23.74ZM55.6695 31.484H56.6935C57.4082 31.484 58.1762 31.4627 58.9975 31.42C59.8295 31.3667 60.7042 31.2493 61.6215 31.068L61.8135 32.892C60.8535 33.0627 59.9468 33.1747 59.0935 33.228C58.2402 33.2813 57.4402 33.308 56.6935 33.308H55.6695V31.484ZM73.781 33.484H87.205V35.212H73.781V33.484ZM79.429 30.204H81.541V33.964H79.429V30.204ZM79.349 24.028H81.157V24.572C81.157 25.1907 81.0663 25.7827 80.885 26.348C80.7143 26.9133 80.4583 27.4413 80.117 27.932C79.7863 28.4227 79.3757 28.86 78.885 29.244C78.3943 29.628 77.8343 29.9587 77.205 30.236C76.5757 30.5133 75.8877 30.7213 75.141 30.86L74.293 29.164C74.9543 29.0573 75.5517 28.8973 76.085 28.684C76.629 28.4707 77.1037 28.2147 77.509 27.916C77.9143 27.6173 78.2503 27.2867 78.517 26.924C78.7943 26.5613 79.0023 26.1827 79.141 25.788C79.2797 25.3933 79.349 24.988 79.349 24.572V24.028ZM79.797 24.028H81.589V24.572C81.589 24.988 81.6583 25.3933 81.797 25.788C81.9357 26.172 82.1437 26.5453 82.421 26.908C82.6983 27.26 83.0397 27.5853 83.445 27.884C83.861 28.172 84.341 28.4227 84.885 28.636C85.4397 28.8493 86.053 29.004 86.725 29.1L85.893 30.78C85.125 30.6413 84.421 30.4387 83.781 30.172C83.1517 29.9053 82.5863 29.58 82.085 29.196C81.5943 28.812 81.1783 28.3853 80.837 27.916C80.4957 27.436 80.2343 26.9133 80.053 26.348C79.8823 25.7827 79.797 25.1907 79.797 24.572V24.028ZM74.885 23.228H86.053V24.924H74.885V23.228ZM90.0038 23.324H99.3478V25.036H90.0038V23.324ZM88.4838 33.5H101.892V35.212H88.4838V33.5ZM98.4838 23.324H100.596V24.636C100.596 25.2333 100.585 25.8733 100.564 26.556C100.553 27.2387 100.5 28.0013 100.404 28.844C100.308 29.6867 100.148 30.652 99.9238 31.74L97.8118 31.516C98.1531 30.012 98.3504 28.7053 98.4038 27.596C98.4571 26.476 98.4838 25.4893 98.4838 24.636V23.324ZM98.8678 26.892V28.508L89.8278 28.988L89.5558 27.18L98.8678 26.892ZM93.2358 29.948H95.3798V34.124H93.2358V29.948Z" fill="white"/>
<path d="M278.207 25.4375C279.33 24.7539 280.463 23.9141 281.625 22.8594H284.457V37H281.625V26.1211H281.566C280.443 27.0195 279.301 27.8301 278.207 28.3867V25.4375ZM293.148 37.2734C289.643 37.2734 287.465 34.4414 287.465 30.2031C287.465 25.5254 290.102 22.5859 293.715 22.5859C295.443 22.5859 297.035 23.2793 298.09 24.4609L296.078 26.3359C295.482 25.6133 294.623 25.2617 293.715 25.2617C291.84 25.2617 290.453 26.7363 290.375 29.5195H290.453C291.234 28.3867 292.514 27.6836 294.008 27.6836C296.518 27.6836 298.441 29.7051 298.441 32.332C298.441 35.1836 296.166 37.2734 293.148 37.2734ZM293.148 34.793C294.584 34.793 295.609 33.7969 295.609 32.3711C295.609 30.9648 294.584 29.9688 293.148 29.9688C291.713 29.9688 290.688 30.9648 290.688 32.3711C290.688 33.7969 291.713 34.793 293.148 34.793ZM305.941 37.2734C302.387 37.2734 300.16 34.4414 300.16 29.9297C300.16 25.418 302.387 22.5859 305.941 22.5859C309.496 22.5859 311.723 25.418 311.723 29.9297C311.723 34.4414 309.496 37.2734 305.941 37.2734ZM305.941 34.5977C307.777 34.5977 308.891 32.8398 308.891 29.9297C308.891 27.0195 307.777 25.2617 305.941 25.2617C304.105 25.2617 302.992 27.0195 302.992 29.9297C302.992 32.8398 304.105 34.5977 305.941 34.5977ZM328.441 21.0234V38.7773H326.039V29.7539H324.418V38.0156H322.055V21.4727H324.418V27.7227H326.039V21.0234H328.441ZM320.844 23.1914C320.834 28.2012 319.359 32.2441 314.34 35.125L312.875 33.3867C316.498 31.2773 318.041 28.6992 318.363 25.2227H313.773V23.1914H320.844Z" fill="white"/>
<path d="M11.6562 95.2656V98.6875H13.5625V100.156H11.6562V103.578H9.89062V95.2656H11.6562ZM11.6562 104.125V107.203H3.96875V108.062H12.1719V109.266H2.23438V106.094H9.92188V105.312H2.21875V104.125H11.6562ZM0.328125 102.156C1.38281 102.156 2.60156 102.156 3.875 102.125V101.391C2.30469 101.234 1.32812 100.586 1.32812 99.5938C1.32812 98.4297 2.66406 97.7344 4.75 97.7344C6.82812 97.7344 8.15625 98.4297 8.15625 99.5938C8.15625 100.578 7.19531 101.227 5.64062 101.391V102.062C6.84375 102 8.05469 101.906 9.1875 101.75L9.3125 102.844C6.30469 103.359 2.95312 103.383 0.515625 103.391L0.328125 102.156ZM8.79688 96.2188V97.4062H0.6875V96.2188H3.875V95.1562H5.64062V96.2188H8.79688ZM4.75 98.8438C3.64844 98.8438 3 99.1094 3 99.5938C3 100.078 3.66406 100.352 4.75 100.359C5.82812 100.352 6.48438 100.078 6.48438 99.5938C6.48438 99.1094 5.84375 98.8438 4.75 98.8438ZM27.1719 102.016V103.422H14.2969V102.016H19.8594V100.688H15.875V95.8906H25.6094V97.2812H17.625V99.2969H25.6875V100.688H21.6094V102.016H27.1719ZM20.7031 104.234C23.7578 104.234 25.6094 105.172 25.6094 106.812C25.6094 108.461 23.7578 109.391 20.7031 109.391C17.6406 109.391 15.7812 108.461 15.7812 106.812C15.7812 105.172 17.6406 104.234 20.7031 104.234ZM20.7031 105.578C18.6641 105.578 17.5547 106 17.5625 106.812C17.5547 107.625 18.6641 108.047 20.7031 108.047C22.7344 108.047 23.8359 107.625 23.8438 106.812C23.8359 106 22.7344 105.578 20.7031 105.578Z" fill="#A7A7A7"/>
<path d="M0 132C0 127.582 3.58172 124 8 124H342C346.418 124 350 127.582 350 132V182C350 186.418 346.418 190 342 190H8C3.58172 190 0 186.418 0 182V132Z" fill="#1C1C1C"/>
<path d="M32.7188 139.781V148.422H31.0469V144.75H29.6094V147.938H27.9531V140.031H29.6094V143.328H31.0469V139.781H32.7188ZM26.5938 140.766V144.812H22.9219V146.281C24.5312 146.273 25.8047 146.211 27.2344 145.938L27.3906 147.328C25.7031 147.633 24.25 147.688 22.2031 147.688H21.2344V143.5H24.8906V142.156H21.2031V140.766H26.5938ZM27.9375 148.625C30.8984 148.625 32.7812 149.602 32.7812 151.234C32.7812 152.891 30.9062 153.875 27.9375 153.875C24.9609 153.875 23.0938 152.891 23.0938 151.234C23.0938 149.602 24.9688 148.625 27.9375 148.625ZM27.9375 149.969C25.9922 149.969 24.8438 150.414 24.8438 151.234C24.8438 152.078 25.9766 152.531 27.9375 152.531C29.8984 152.531 31.0234 152.078 31.0312 151.234C31.0234 150.414 29.8828 149.969 27.9375 149.969ZM42.0312 140.656C42.0312 144.477 40.1094 147.07 35.4219 148.422L34.75 147.031C36.9062 146.43 38.3125 145.594 39.1562 144.562L34.9844 144.875L34.7188 143.484L39.8906 143.281C40.0391 142.898 40.1328 142.484 40.1719 142.047H35.4375V140.656H42.0312ZM46.2344 139.781V148.141H44.4688V139.781H46.2344ZM41.4688 148.375C44.4375 148.375 46.3047 149.391 46.3125 151.125C46.3047 152.859 44.4375 153.875 41.4688 153.875C38.4844 153.875 36.6328 152.859 36.625 151.125C36.6328 149.391 38.4844 148.375 41.4688 148.375ZM41.4688 149.75C39.4922 149.75 38.3828 150.219 38.3906 151.125C38.3828 152.023 39.5 152.508 41.4688 152.516C43.4219 152.508 44.5469 152.023 44.5469 151.125C44.5469 150.219 43.4219 149.75 41.4688 149.75Z" fill="white"/>
<path d="M30.6426 168.191V168.977H28.9434V174.438H28.0176V164.031H28.9434V168.191H30.6426ZM22.2168 165.051V171.027C23.752 171.021 25.3047 170.91 27.0215 170.559L27.1387 171.332C25.334 171.701 23.7051 171.801 22.1348 171.801H21.3027V165.051H22.2168ZM34.6621 164.805C36.291 164.805 37.4629 165.795 37.4629 167.242C37.4629 168.689 36.291 169.691 34.6621 169.691C33.0215 169.691 31.8438 168.689 31.8496 167.242C31.8438 165.795 33.0215 164.805 34.6621 164.805ZM34.6621 165.602C33.5488 165.602 32.7402 166.264 32.7402 167.242C32.7402 168.215 33.5488 168.895 34.6621 168.895C35.7578 168.895 36.5605 168.215 36.5605 167.242C36.5605 166.264 35.7578 165.602 34.6621 165.602ZM39.7949 164.031V174.461H38.8691V164.031H39.7949ZM31.3105 171.391C33.209 171.391 35.8809 171.385 38.1777 171.027L38.248 171.707C35.8867 172.158 33.3086 172.176 31.4395 172.176L31.3105 171.391ZM53.4707 164.043V170.465H52.5918V167.594H51.1387V170.09H50.2598V164.23H51.1387V166.82H52.5918V164.043H53.4707ZM49.0293 164.816V167.617H45.9941V169.094C47.3301 169.094 48.4141 169.047 49.6504 168.789L49.7441 169.539C48.4023 169.797 47.2773 169.855 45.7832 169.855H45.1152V166.914H48.1387V165.566H45.0801V164.816H49.0293ZM50.0254 170.676C52.1758 170.676 53.5176 171.361 53.5176 172.539C53.5176 173.734 52.1816 174.426 50.0254 174.426C47.8516 174.426 46.5215 173.734 46.5215 172.539C46.5215 171.361 47.8574 170.676 50.0254 170.676ZM50.0254 171.391C48.4258 171.396 47.4297 171.824 47.4355 172.539C47.4297 173.277 48.4199 173.705 50.0254 173.699C51.6191 173.705 52.6035 173.277 52.6035 172.539C52.6035 171.824 51.6074 171.396 50.0254 171.391ZM60.5254 164.758C60.5195 167.424 58.9961 169.363 55.6504 170.348L55.2988 169.598C57.0684 169.094 58.2344 168.326 58.8965 167.359L55.3809 167.629L55.2285 166.855L59.2715 166.668C59.418 166.305 59.5117 165.918 59.5527 165.508H55.7441V164.758H60.5254ZM63.5957 164.055V170.301H62.6699V164.055H63.5957ZM60.1387 170.453C62.3008 170.459 63.6543 171.191 63.6543 172.434C63.6543 173.699 62.3008 174.438 60.1387 174.438C57.9531 174.438 56.6113 173.699 56.6113 172.434C56.6113 171.191 57.9531 170.459 60.1387 170.453ZM60.1387 171.191C58.5215 171.191 57.5312 171.66 57.5371 172.434C57.5312 173.225 58.5215 173.699 60.1387 173.699C61.7324 173.699 62.7344 173.225 62.7402 172.434C62.7344 171.66 61.7324 171.191 60.1387 171.191ZM70.0996 164.219C72.4141 164.219 73.791 164.863 73.791 166.023C73.791 167.184 72.4141 167.834 70.0996 167.828C67.791 167.834 66.4141 167.184 66.4199 166.023C66.4141 164.863 67.791 164.219 70.0996 164.219ZM70.0996 164.922C68.3711 164.922 67.3633 165.326 67.3691 166.023C67.3633 166.727 68.3711 167.131 70.0996 167.125C71.834 167.131 72.8418 166.727 72.8418 166.023C72.8418 165.326 71.834 164.922 70.0996 164.922ZM74.8574 168.543V169.281H65.3652V168.543H74.8574ZM73.6387 170.195V172.516H67.4512V173.605H73.9434V174.32H66.5371V171.836H72.7246V170.898H66.5137V170.195H73.6387ZM86.8574 164.055V167.195H88.416V167.969H86.8574V171.016H85.9434V164.055H86.8574ZM78.6895 169.949C79.5273 169.949 80.5 169.955 81.5137 169.926V169.152C80.2891 169.047 79.5156 168.49 79.5215 167.641C79.5156 166.686 80.4824 166.094 81.959 166.094C83.4355 166.094 84.4023 166.686 84.4082 167.641C84.4023 168.484 83.6348 169.041 82.4277 169.152V169.891C83.4004 169.85 84.3848 169.768 85.2988 169.633L85.3691 170.289C83.1133 170.699 80.6348 170.705 78.7949 170.711L78.6895 169.949ZM86.8574 171.543V174.449H85.9434V172.293H79.9785V171.543H86.8574ZM84.9824 164.992V165.695H78.9355V164.992H81.5137V163.949H82.4277V164.992H84.9824ZM81.959 166.738C81.0039 166.744 80.3945 167.084 80.4004 167.641C80.3945 168.18 81.0098 168.543 81.959 168.543C82.9141 168.543 83.5234 168.18 83.5293 167.641C83.5234 167.084 82.9141 166.744 81.959 166.738ZM97.709 164.055V171.648H96.7832V164.055H97.709ZM98.0371 173.453V174.215H90.9824V170.875H91.8965V173.453H98.0371ZM92.084 164.77C93.6367 164.775 94.8145 165.836 94.8145 167.324C94.8145 168.83 93.6367 169.896 92.084 169.891C90.5137 169.896 89.3418 168.83 89.3418 167.324C89.3418 165.836 90.5137 164.775 92.084 164.77ZM92.084 165.566C91.0352 165.572 90.2441 166.305 90.2441 167.324C90.2441 168.355 91.0352 169.076 92.084 169.07C93.127 169.076 93.918 168.355 93.9238 167.324C93.918 166.305 93.127 165.572 92.084 165.566ZM104.682 165.824V166.586H99.4551V165.824H101.623V164.336H102.537V165.824H104.682ZM102.068 167.289C103.381 167.295 104.324 168.273 104.33 169.656C104.324 171.057 103.381 172.029 102.068 172.023C100.768 172.029 99.8242 171.057 99.8301 169.656C99.8242 168.273 100.768 167.295 102.068 167.289ZM102.068 168.074C101.242 168.074 100.65 168.736 100.65 169.656C100.65 170.594 101.242 171.25 102.068 171.25C102.9 171.25 103.504 170.594 103.51 169.656C103.504 168.736 102.9 168.074 102.068 168.074ZM108.361 164.043V174.449H107.482V169.188H106.088V173.934H105.221V164.266H106.088V168.426H107.482V164.043H108.361ZM119.377 172.34V173.113H109.85V172.34H114.127V170.09H110.975V164.77H111.889V166.645H117.314V164.77H118.217V170.09H115.053V172.34H119.377ZM111.889 169.34H117.314V167.406H111.889V169.34ZM123.314 166.984C123.309 168.648 124.123 170.43 125.506 171.25L124.967 171.965C123.971 171.367 123.256 170.254 122.893 168.988C122.5 170.418 121.703 171.584 120.689 172.199L120.104 171.496C121.539 170.67 122.424 168.807 122.424 167.02V165.016H123.314V166.984ZM129.139 164.043V174.449H128.248V164.043H129.139ZM126.994 164.254V173.922H126.115V168.543H124.357V167.77H126.115V164.254H126.994ZM140.119 172.34V173.113H130.592V172.34H132.936V169.516C132.057 169.059 131.518 168.309 131.518 167.371C131.518 165.754 133.117 164.705 135.326 164.699C137.559 164.705 139.141 165.754 139.146 167.371C139.141 168.309 138.613 169.053 137.74 169.516V172.34H140.119ZM135.326 165.438C133.633 165.438 132.408 166.205 132.408 167.371C132.408 168.543 133.633 169.311 135.326 169.305C137.031 169.311 138.25 168.543 138.256 167.371C138.25 166.205 137.031 165.438 135.326 165.438ZM133.85 172.34H136.826V169.855C136.375 169.979 135.871 170.043 135.326 170.043C134.793 170.043 134.295 169.984 133.85 169.867V172.34Z" fill="#939393"/>
<path d="M316.667 165.045L324.711 157L316.667 148.955L315.484 150.138L322.346 157L315.484 163.862L316.667 165.045Z" fill="#FFF597"/>
<path d="M0 210C0 205.582 3.58172 202 8 202H342C346.418 202 350 205.582 350 210V254C350 258.418 346.418 262 342 262H8C3.58172 262 0 258.418 0 254V210Z" fill="#1C1C1C"/>
<path d="M27.1484 226V227.062C27.1562 228.188 27.1562 229.57 26.8047 231.375C27.1484 231.336 27.4766 231.297 27.7891 231.25L27.8984 232.562C27.0078 232.734 26.0078 232.852 25.0078 232.922V237.766H23.3359V233.031C22.3672 233.078 21.4531 233.094 20.7109 233.094L20.5234 231.641C21.75 231.633 23.4531 231.609 25.1016 231.5C25.2266 230.93 25.3125 230.398 25.3828 229.906L21.2734 230.234L21.0547 228.844L25.4766 228.625C25.5 228.188 25.5078 227.789 25.5078 227.406H21.4297V226H27.1484ZM33.0234 224.781V238.875H31.3359V224.781H33.0234ZM30.2109 225.031V238.188H28.5547V235.141H26.1484V233.812H28.5547V225.031H30.2109ZM41.8672 226.688C41.8672 228.867 43.9844 231.055 46.9297 231.562L46.1641 233.031C43.7891 232.539 41.8516 231.109 40.9297 229.219C40 231.102 38.0781 232.547 35.7109 233.031L34.9453 231.562C37.875 231.039 40 228.836 39.9922 226.688V225.641H41.8672V226.688ZM47.4453 235.656V237.094H34.5547V235.656H47.4453ZM59.8672 232.156V233.562H49.9297V225.859H59.7422V227.281H51.7266V228.984H59.4297V230.359H51.7266V232.156H59.8672ZM61.2734 235.766V237.203H48.3828V235.766H61.2734Z" fill="white"/>
<path d="M316.667 240.045L324.711 232L316.667 223.955L315.484 225.138L322.346 232L315.484 238.862L316.667 240.045Z" fill="#FFF597"/>
<path d="M0 282C0 277.582 3.58172 274 8 274H342C346.418 274 350 277.582 350 282V326C350 330.418 346.418 334 342 334H8C3.58172 334 0 330.418 0 326V282Z" fill="#1C1C1C"/>
<path d="M24.7578 297.375C26.6016 297.383 28.0469 298.422 28.3984 299.969H30.9141V296.781H32.6797V304.344H30.9141V301.391H28.4141C28.0781 302.977 26.625 304.039 24.7578 304.031C22.6172 304.039 21.0312 302.664 21.0391 300.703C21.0312 298.766 22.6172 297.383 24.7578 297.375ZM24.7578 298.844C23.5625 298.844 22.7188 299.57 22.7109 300.703C22.7188 301.836 23.5625 302.57 24.7578 302.578C25.9297 302.57 26.7891 301.836 26.7891 300.703C26.7891 299.57 25.9297 298.844 24.7578 298.844ZM25.1172 305V306.5H30.9297V305H32.6797V310.719H23.3516V305H25.1172ZM25.1172 309.297H30.9297V307.844H25.1172V309.297ZM39.8672 299.172C39.8672 300.875 41 302.625 43.1797 303.359L42.3203 304.734C40.7344 304.203 39.625 303.125 39.0234 301.781C38.3984 303.258 37.2266 304.453 35.5234 305.031L34.6484 303.641C36.8984 302.883 38.0938 301.023 38.1016 299.172V299.031H35.1484V297.625H42.7734V299.031H39.8672V299.172ZM46.5078 305.875V310.875H44.7422V307.281H36.8828V305.875H46.5078ZM46.5078 296.781V305.172H44.7422V301.688H42.3672V300.25H44.7422V296.781H46.5078ZM59.3047 297.531V298.922H54.7109V302.047C57.2812 302.031 58.8281 301.93 60.5547 301.562L60.7422 302.938C58.8359 303.352 57.1406 303.438 54.1172 303.438H52.9609V297.531H59.3047ZM63.5547 296.766V299.547H65.5391V300.984H63.5547V303.812H61.8047V296.766H63.5547ZM63.5547 304.438V308.188H56.0703V309.312H64.0234V310.719H54.3359V306.875H61.8359V305.828H54.3047V304.438H63.5547ZM71.4453 298.781C71.4375 300.703 72.5469 302.453 74.7266 303.172L73.8203 304.547C72.3203 304.016 71.2188 303.008 70.6016 301.641C69.9688 303.172 68.7969 304.367 67.0859 304.969L66.1641 303.547C68.4609 302.789 69.6641 300.922 69.6641 298.859V297.531H71.4453V298.781ZM78.0859 296.781V305.062H76.3203V300.922H73.5391V299.484H76.3203V296.781H78.0859ZM73.3203 305.438C76.2891 305.445 78.1406 306.445 78.1328 308.156C78.1406 309.875 76.2891 310.875 73.3203 310.875C70.3281 310.875 68.4844 309.875 68.4922 308.156C68.4844 306.445 70.3281 305.445 73.3203 305.438ZM73.3203 306.812C71.3438 306.82 70.2344 307.281 70.2422 308.156C70.2344 309.039 71.3594 309.508 73.3203 309.5C75.2734 309.508 76.3906 309.039 76.3984 308.156C76.3906 307.281 75.2812 306.82 73.3203 306.812Z" fill="white"/>
<path d="M316.667 312.045L324.711 304L316.667 295.955L315.484 297.138L322.346 304L315.484 310.862L316.667 312.045Z" fill="#FFF597"/>
<path d="M12.5938 369.266V383.375H10.9219V376.25H9.35938V382.688H7.71875V369.547H9.35938V374.812H10.9219V369.266H12.5938ZM2.82812 370.875V378.344C4.02344 378.312 5.38281 378.219 6.84375 377.938L7.01562 379.453C5.125 379.789 3.49219 379.859 2.01562 379.859H1.0625V370.875H2.82812ZM26.125 378.312V383.375H24.3594V379.688H16.5V378.312H26.125ZM26.125 369.281V377.609H24.3594V375.75H21.0781C20.3984 376.492 19.375 376.945 18.2031 376.938C16.0781 376.945 14.4766 375.5 14.4844 373.484C14.4766 371.477 16.0781 370.023 18.2031 370.016C19.3828 370.023 20.4141 370.477 21.0938 371.234H24.3594V369.281H26.125ZM18.2031 371.516C17.0234 371.523 16.1406 372.289 16.1406 373.484C16.1406 374.688 17.0234 375.445 18.2031 375.438C19.375 375.445 20.25 374.688 20.25 373.484C20.25 372.289 19.375 371.523 18.2031 371.516ZM21.8281 374.328H24.3594V372.641H21.8281C21.8906 372.906 21.9219 373.188 21.9219 373.484C21.9219 373.781 21.8906 374.062 21.8281 374.328Z" fill="#A7A7A7"/>
<path d="M0 406C0 401.582 3.58172 398 8 398H342C346.418 398 350 401.582 350 406V450C350 454.418 346.418 458 342 458H8C3.58172 458 0 454.418 0 450V406Z" fill="#1C1C1C"/>
<path d="M33.4531 431.734V433.188H20.5625V431.734H26.125V428.516H27.875V431.734H33.4531ZM32.3594 421.922V423.328H27.9062C27.9688 425.336 30.0469 427.195 32.9531 427.641L32.25 429.031C29.875 428.594 27.9219 427.336 27 425.578C26.0859 427.352 24.1562 428.648 21.8125 429.094L21.1094 427.688C23.9453 427.242 26.0078 425.344 26.0781 423.328H21.625V421.922H32.3594ZM45.8906 422.016V423.297C45.8906 424.992 45.8984 426.969 45.2656 429.969L43.5312 429.781C43.7812 428.656 43.9297 427.656 44.0156 426.75L35.6875 427.219L35.4375 425.719L44.125 425.422C44.1484 424.695 44.1562 424.039 44.1562 423.438H35.875V422.016H45.8906ZM47.25 431.719V433.156H34.375V431.719H39.1094V428.234H40.875V431.719H47.25ZM57.2031 424.125C57.1953 426.641 58.4219 429.203 60.6094 430.281L59.5469 431.688C58.0312 430.898 56.9375 429.414 56.3438 427.609C55.7031 429.539 54.5469 431.125 52.9375 431.938L51.875 430.531C54.1484 429.438 55.4453 426.734 55.4375 424.125V421.906H57.2031V424.125ZM63.2031 420.781V426.297H65.375V427.766H63.2031V434.875H61.4375V420.781H63.2031ZM78.8281 427.562V428.953H65.9531V427.562H68.9688V425.766C67.8984 425.312 67.2891 424.594 67.2969 423.672C67.2891 422 69.2734 420.992 72.3906 420.984C75.5156 420.992 77.4922 422 77.4844 423.672C77.4922 424.602 76.8828 425.312 75.8125 425.766V427.562H78.8281ZM72.375 429.797C75.4375 429.805 77.2812 430.711 77.2812 432.328C77.2812 433.953 75.4375 434.875 72.375 434.875C69.3047 434.875 67.4531 433.953 67.4531 432.328C67.4531 430.711 69.3047 429.805 72.375 429.797ZM72.375 431.125C70.3438 431.133 69.2266 431.547 69.2344 432.328C69.2266 433.141 70.3359 433.547 72.375 433.547C74.4062 433.547 75.5078 433.141 75.5156 432.328C75.5078 431.547 74.3984 431.133 72.375 431.125ZM72.3906 422.344C70.3203 422.352 69.1094 422.805 69.1094 423.672C69.1094 424.547 70.3359 425 72.3906 425C74.4531 425 75.6719 424.547 75.6719 423.672C75.6719 422.805 74.4609 422.352 72.3906 422.344ZM70.7188 427.562H74.0469V426.234C73.5391 426.305 72.9844 426.344 72.3906 426.344C71.7891 426.344 71.2266 426.305 70.7188 426.234V427.562ZM95.8438 420.766V434.875H94.1719V427.75H92.6094V434.188H90.9688V421.047H92.6094V426.312H94.1719V420.766H95.8438ZM86.0781 422.375V429.844C87.2734 429.812 88.6328 429.719 90.0938 429.438L90.2656 430.953C88.375 431.289 86.7422 431.359 85.2656 431.359H84.3125V422.375H86.0781ZM109.375 429.812V434.875H107.609V431.188H99.75V429.812H109.375ZM109.375 420.781V429.109H107.609V427.25H104.328C103.648 427.992 102.625 428.445 101.453 428.438C99.3281 428.445 97.7266 427 97.7344 424.984C97.7266 422.977 99.3281 421.523 101.453 421.516C102.633 421.523 103.664 421.977 104.344 422.734H107.609V420.781H109.375ZM101.453 423.016C100.273 423.023 99.3906 423.789 99.3906 424.984C99.3906 426.188 100.273 426.945 101.453 426.938C102.625 426.945 103.5 426.188 103.5 424.984C103.5 423.789 102.625 423.023 101.453 423.016ZM105.078 425.828H107.609V424.141H105.078C105.141 424.406 105.172 424.688 105.172 424.984C105.172 425.281 105.141 425.562 105.078 425.828Z" fill="white"/>
<path d="M316.667 436.045L324.711 428L316.667 419.955L315.484 421.138L322.346 428L315.484 434.862L316.667 436.045Z" fill="#FFF597"/>
<path d="M12.6562 493.266V507.375H10.9844V493.266H12.6562ZM9.71875 493.594V506.719H8.07812V502H5.875V500.594H8.07812V498.469H6.125C5.46875 500.828 4 502.844 1.32812 504.406L0.328125 503.172C3.23438 501.43 4.57031 499.234 4.82812 496.391H1.07812V494.969H6.5625C6.5625 495.695 6.51562 496.398 6.42188 497.078H8.07812V493.594H9.71875ZM26.125 493.281V501.656H24.3594V498.203H21.9531V496.766H24.3594V493.281H26.125ZM21.3594 502.016C24.3281 502.016 26.1797 503.016 26.1719 504.703C26.1797 506.398 24.3281 507.391 21.3594 507.391C18.3672 507.391 16.5234 506.398 16.5312 504.703C16.5234 503.016 18.3672 502.016 21.3594 502.016ZM21.3594 503.359C19.375 503.359 18.2734 503.828 18.2812 504.703C18.2734 505.57 19.375 506.047 21.3594 506.047C23.3281 506.047 24.4297 505.57 24.4375 504.703C24.4297 503.828 23.3203 503.359 21.3594 503.359ZM19.4844 495.672C19.4844 497.375 20.6172 499.125 22.7969 499.859L21.9375 501.234C20.3594 500.711 19.25 499.633 18.6406 498.297C18.0156 499.82 16.8359 501.031 15.1562 501.609L14.2656 500.219C16.5156 499.438 17.7109 497.555 17.7188 495.672V495.594H14.7656V494.188H22.3906V495.594H19.4844V495.672Z" fill="#A7A7A7"/>
<path d="M0 530C0 525.582 3.58172 522 8 522H342C346.418 522 350 525.582 350 530V574C350 578.418 346.418 582 342 582H8C3.58172 582 0 578.418 0 574V530Z" fill="#1C1C1C"/>
<path d="M33.7031 555.812V557.25H20.8125V555.812H26.3594V553.516H22.3438V548.891H30.4531V547.141H22.3125V545.734H32.2031V550.281H24.0781V552.109H32.5312V553.516H28.1094V555.812H33.7031ZM45.875 546.141V547.719C45.8672 549.633 45.8672 551.594 45.3594 554.547L43.5938 554.375C44.1328 551.617 44.1328 549.57 44.125 547.719V547.547H35.9844V546.141H45.875ZM47.5156 555.516V556.969H34.6406V555.516H47.5156ZM52.2656 545.781C54.3984 545.789 55.9375 547.734 55.9375 550.781C55.9375 553.836 54.3984 555.781 52.2656 555.781C50.125 555.781 48.5859 553.836 48.5781 550.781C48.5859 547.734 50.125 545.789 52.2656 545.781ZM52.2656 547.375C51.0703 547.383 50.2734 548.625 50.2812 550.781C50.2734 552.945 51.0703 554.195 52.2656 554.203C53.4453 554.195 54.25 552.945 54.25 550.781C54.25 548.625 53.4453 547.383 52.2656 547.375ZM59.5312 544.781V550.203H61.7031V551.656H59.5312V558.875H57.7656V544.781H59.5312ZM75.1719 551.062V552.469H69.5625V553.875H67.8281V552.469H62.2812V551.062H75.1719ZM69.5938 554.797C69.5938 556.078 71.2891 557.234 74.2188 557.5L73.6562 558.828C71.3203 558.586 69.5469 557.781 68.6875 556.578C67.8125 557.766 66.0625 558.594 63.7188 558.828L63.1562 557.5C66.0547 557.234 67.7812 556.023 67.7812 554.797V554.469H69.5938V554.797ZM68.7188 544.938C71.8516 544.945 73.8203 545.922 73.8125 547.578C73.8203 549.25 71.8438 550.219 68.7188 550.219C65.5938 550.219 63.6172 549.25 63.625 547.578C63.6172 545.922 65.5859 544.945 68.7188 544.938ZM68.7188 546.266C66.6406 546.273 65.4375 546.727 65.4375 547.578C65.4375 548.43 66.6484 548.883 68.7188 548.875C70.7969 548.883 72 548.43 72 547.578C72 546.727 70.7969 546.273 68.7188 546.266Z" fill="white"/>
<defs>
<filter id="filter0_d_491_4018" x="22.8003" y="18.832" width="22.3994" height="22.8711" filterUnits="userSpaceOnUse" color-interpolation-filters="sRGB">
<feFlood flood-opacity="0" result="BackgroundImageFix"/>
<feColorMatrix in="SourceAlpha" type="matrix" values="0 0 0 0 0 0 0 0 0 0 0 0 0 0 0 0 0 0 127 0" result="hardAlpha"/>
<feOffset dy="0.535182"/>
<feComposite in2="hardAlpha" operator="out"/>
<feColorMatrix type="matrix" values="0 0 0 0 0.74277 0 0 0 0 0.678188 0 0 0 0 0.437476 0 0 0 1 0"/>
<feBlend mode="normal" in2="BackgroundImageFix" result="effect1_dropShadow_491_4018"/>
<feBlend mode="normal" in="SourceGraphic" in2="effect1_dropShadow_491_4018" result="shape"/>
</filter>
<filter id="filter1_i_491_4018" x="23.3298" y="19.4619" width="21.3408" height="21.0762" filterUnits="userSpaceOnUse" color-interpolation-filters="sRGB">
<feFlood flood-opacity="0" result="BackgroundImageFix"/>
<feBlend mode="normal" in="SourceGraphic" in2="BackgroundImageFix" result="shape"/>
<feColorMatrix in="SourceAlpha" type="matrix" values="0 0 0 0 0 0 0 0 0 0 0 0 0 0 0 0 0 0 127 0" result="hardAlpha"/>
<feOffset dy="0.535182"/>
<feComposite in2="hardAlpha" operator="arithmetic" k2="-1" k3="1"/>
<feColorMatrix type="matrix" values="0 0 0 0 0.938439 0 0 0 0 0.763781 0 0 0 0 0.121658 0 0 0 1 0"/>
<feBlend mode="normal" in2="shape" result="effect1_innerShadow_491_4018"/>
</filter>
</defs>
</svg>
