<svg width="93" height="92" viewBox="0 0 93 92" fill="none" xmlns="http://www.w3.org/2000/svg">
<rect x="18.8761" y="18.3999" width="55.2" height="55.2" rx="7.2" stroke="#C64D54" stroke-width="4.8"/>
<path d="M23.3228 23.5273H30.9291V26.3519H23.3228V29.1227H30.9291V31.8936H23.3228V34.7538H30.9291V37.2565L23.3228 37.7034L23.7785 40.2062H44.7834V37.2565H36.9177V34.7538H44.7834V31.8936H36.9177V29.1227H44.7834V26.3519H36.9177V23.5273H44.1577M33.9983 23.1948V43.0094M33.9983 43.0094H23.7785M33.9983 43.0094H45.2551M47.3356 23.1948L69.0639 23.0078M58.0829 22.0029V31.8936H47.6107H69.3793V34.7538L66.0825 37.7112H47.3356M47.3356 34.7538H65.6946L69.3793 37.7112V40.2062H47.8531V43.0094H69.0639M23.7785 55.3796V45.8257H26.7632M44.7834 45.8257H36.406M26.7632 45.8257V49.153H33.2114V52.1105H26.7632V55.3796H33.2114M26.7632 45.8257H36.406M36.406 45.8257V48.9813H44.7834V51.6637H36.406V55.0298H44.7834M23.7785 57.9805H34.2809M44.7834 69.5916L23.7785 69.9966V66.8913L44.7834 66.4863V63.7185H23.7785V60.7483H34.2809M34.2809 57.9805H44.7834V60.7483H34.2809M34.2809 57.9805V60.7483M50.088 45.8257H47.8531V48.9813H57.1479V45.8257H55.0597M52.7727 45.8257L52.8895 51.9008M53.071 61.3465L52.9449 54.7839M52.8895 51.9008H47.4497V54.8008M52.8895 51.9008H57.4727V54.8008M52.8895 51.9008L52.9449 54.7839M52.9449 54.7839L47.4497 54.8008M52.9449 54.7839L57.4727 54.8008M47.4497 54.8008V57.7008H57.4727V54.8008M47.8531 61.5901V60.3655H57.4727V62.1288M47.8531 66.5482V69.3779H69.6294V66.2432M47.8531 66.5482V63.7185H69.6294V66.2432M47.8531 66.5482L69.6294 66.2432M60.1272 61.5901V60.0717H69.6294V61.5901M64.6339 61.5901L64.4504 45.8257M61.9436 45.8257H59.8037V48.9813L69.3793 48.7954V45.8257H66.9267M59.8037 54.8008V57.7008H69.3793V54.8008M59.8037 54.8008V51.9008H69.3793V54.8008M59.8037 54.8008H69.3793M47.6107 25.9784H69.3793V29.1227H47.6107V25.9784Z" stroke="#C64D54" stroke-width="0.96"/>
</svg>
