<svg width="20" height="20" viewBox="0 0 20 20" fill="none" xmlns="http://www.w3.org/2000/svg">
<path d="M16.4999 18.8334L12.9999 15.375C12.5138 15.5278 12.0242 15.6424 11.5312 15.7188C11.0381 15.7952 10.5277 15.8334 9.99992 15.8334C7.9027 15.8334 6.03464 15.2535 4.39575 14.0938C2.75686 12.9341 1.56936 11.4306 0.833252 9.58337C1.12492 8.84726 1.49297 8.16324 1.93742 7.53129C2.38186 6.89935 2.88881 6.33337 3.45825 5.83337L1.16659 3.50004L2.33325 2.33337L17.6666 17.6667L16.4999 18.8334ZM9.99992 13.3334C10.1527 13.3334 10.2951 13.3264 10.427 13.3125C10.5589 13.2987 10.7013 13.2709 10.8541 13.2292L6.35409 8.72921C6.31242 8.88199 6.28464 9.02435 6.27075 9.15629C6.25686 9.28824 6.24992 9.4306 6.24992 9.58337C6.24992 10.625 6.6145 11.5105 7.34367 12.2396C8.07284 12.9688 8.95825 13.3334 9.99992 13.3334ZM16.0833 13.7084L13.4374 11.0834C13.5346 10.8473 13.611 10.6077 13.6666 10.3646C13.7221 10.1216 13.7499 9.86115 13.7499 9.58337C13.7499 8.54171 13.3853 7.65629 12.6562 6.92712C11.927 6.19796 11.0416 5.83337 9.99992 5.83337C9.72214 5.83337 9.46172 5.86115 9.21867 5.91671C8.97561 5.97226 8.73603 6.0556 8.49992 6.16671L6.37492 4.04171C6.94436 3.8056 7.5277 3.62851 8.12492 3.51046C8.72214 3.3924 9.34714 3.33337 9.99992 3.33337C12.0971 3.33337 13.9652 3.91324 15.6041 5.07296C17.243 6.23268 18.4305 7.73615 19.1666 9.58337C18.8471 10.4028 18.427 11.1632 17.9062 11.8646C17.3853 12.566 16.7777 13.1806 16.0833 13.7084ZM12.2291 9.87504L9.72909 7.37504C10.118 7.3056 10.4756 7.33685 10.802 7.46879C11.1284 7.60074 11.4096 7.79171 11.6458 8.04171C11.8819 8.29171 12.052 8.5799 12.1562 8.90629C12.2603 9.23268 12.2846 9.5556 12.2291 9.87504Z" fill="#7E7E7E"/>
</svg>
