<svg width="390" height="782" viewBox="0 0 390 782" fill="none" xmlns="http://www.w3.org/2000/svg">
<g clip-path="url(#clip0_244_2017)">
<rect width="390" height="781" transform="translate(0 0.5)" fill="white"/>
<rect y="451.5" width="390" height="330" fill="#E1C8A0"/>
<rect y="0.5" width="390" height="451" fill="#AFD6D8"/>
<ellipse cx="86.7257" cy="486.858" rx="55.757" ry="20.9595" fill="black" fill-opacity="0.1"/>
<ellipse cx="252.845" cy="564.705" rx="10" ry="5" fill="black" fill-opacity="0.1"/>
<ellipse cx="194.199" cy="593.568" rx="10" ry="5" fill="black" fill-opacity="0.1"/>
<ellipse cx="264.611" cy="593.568" rx="10" ry="5" fill="black" fill-opacity="0.1"/>
<ellipse cx="366.47" cy="534.639" rx="10" ry="5" fill="black" fill-opacity="0.1"/>
<ellipse cx="57.3906" cy="583.568" rx="10" ry="5" fill="black" fill-opacity="0.1"/>
<path d="M220.552 169.17C221.791 168.371 233.956 167.788 240.03 167.644C240.03 165.559 240.468 161.785 240.617 160.326C241.055 158.001 241.641 156.538 242.149 155.374C244.146 151.397 247.296 144.967 251.282 143.697C255.838 142.245 262.195 142.66 267.747 144.084C275.991 146.199 283.95 147.917 287.193 150.283C288.787 151.446 289.57 152.305 290.396 152.021C290.836 151.87 291.333 151.482 291.635 150.997C292.728 149.243 292.902 145.659 297.922 144.794C302.546 143.997 307.972 144.22 309.738 145.462C312.451 147.369 315.622 149.504 318.205 153.425C320.176 156.416 320.391 160.165 322.747 160.348C326.469 160.637 330.901 159.882 333.241 161.664C335.354 163.273 337.22 164.749 337.688 166.998C338.559 171.182 338.733 179.636 335.853 181.589C334.023 182.83 318.952 178.715 318.267 184.593C317.978 187.074 317.976 189.331 317.389 190.349C317.093 190.862 316.716 191.377 315.252 192.331C308.326 196.844 304.75 198.433 301.615 197.711C297.816 196.835 294.724 194.871 285.918 192.237C284.25 191.738 283.744 192.136 283.525 192.686C283.09 193.778 282.363 194.528 281.55 195.534C279.433 198.157 277.665 200.026 275.42 200.491C271.218 201.363 263.889 201.369 261.181 199.309C257.538 196.537 256.611 193.481 254.037 192.239C253.596 192.027 253.163 192.316 252.723 192.609C250.969 193.778 247.827 196.226 243.654 196.036C235.458 195.661 226.672 194.831 223.157 190.036C220.315 186.159 215.286 172.566 220.552 169.17Z" fill="white" stroke="white" stroke-width="2.70914" stroke-linecap="round"/>
<path d="M57.0928 213.917C58.3321 213.118 70.4972 212.536 76.571 212.391C76.571 210.307 77.0089 206.532 77.1578 205.074C77.5957 202.749 78.1825 201.286 78.6905 200.121C80.6873 196.145 83.837 189.714 87.8231 188.444C92.3795 186.993 98.7361 187.407 104.288 188.832C112.532 190.947 120.491 192.665 123.734 195.03C125.328 196.193 126.111 197.053 126.937 196.769C127.377 196.618 127.874 196.23 128.176 195.744C129.269 193.99 129.443 190.406 134.463 189.541C139.087 188.744 144.513 188.967 146.28 190.209C148.992 192.116 152.163 194.252 154.746 198.172C156.717 201.163 156.932 204.913 159.288 205.096C163.01 205.385 167.442 204.629 169.782 206.412C171.895 208.021 173.761 209.497 174.229 211.745C175.1 215.93 175.274 224.383 172.394 226.337C170.564 227.578 155.493 223.463 154.808 229.341C154.519 231.821 154.517 234.078 153.93 235.097C153.634 235.609 153.257 236.124 151.793 237.078C144.867 241.591 141.291 243.181 138.156 242.458C134.357 241.582 131.265 239.619 122.459 236.984C120.791 236.485 120.285 236.884 120.066 237.433C119.631 238.526 118.904 239.275 118.091 240.282C115.974 242.905 114.206 244.773 111.961 245.239C107.759 246.11 100.43 246.117 97.722 244.057C94.0786 241.285 93.152 238.229 90.5775 236.986C90.1374 236.774 89.7039 237.063 89.2638 237.357C87.51 238.526 84.3685 240.974 80.1947 240.783C71.9992 240.409 63.2125 239.579 59.6984 234.784C56.8564 230.906 51.8269 217.313 57.0928 213.917Z" fill="white" stroke="white" stroke-width="2.70914" stroke-linecap="round"/>
<path d="M185.991 365.353L219.35 402.042H152.631L185.991 365.353Z" fill="#D9D9D9"/>
<path d="M388.841 365.353L422.2 402.042H355.482L388.841 365.353Z" fill="#D9D9D9"/>
<rect x="182.45" y="349.822" width="11.7486" height="31.063" fill="#D9D9D9"/>
<rect x="182.45" y="349.822" width="209.23" height="31.063" fill="#D9D9D9"/>
<rect x="201.838" y="396.765" width="170.571" height="81.8104" fill="#84745D" stroke="#784F19" stroke-width="8.12084"/>
<path d="M385.894 372.553L413.786 402.138H351.111L351.166 402.08H223.083L223.137 402.138H160.462L188.306 372.604V348.505H385.894V372.553Z" fill="#3C4E52"/>
<rect x="182.45" y="343.697" width="209.23" height="6.12498" fill="#D9D9D9"/>
<circle cx="186.511" cy="343.697" r="4.06042" fill="#D9D9D9"/>
<circle cx="387.62" cy="343.697" r="4.06042" fill="#D9D9D9"/>
<path d="M241.308 412.468C247.681 412.468 252.846 414.804 252.846 417.686V443.671H229.769V417.686C229.769 414.804 234.935 412.468 241.308 412.468Z" fill="#E06521"/>
<path d="M264.384 412.468C270.757 412.468 275.922 414.804 275.922 417.686V443.671H252.845V417.686C252.845 414.804 258.012 412.468 264.384 412.468Z" fill="#DB9912"/>
<path d="M287.462 412.468C293.834 412.468 299 414.804 299 417.686V443.671H275.923V417.686C275.923 414.804 281.089 412.468 287.462 412.468Z" fill="#58C1BD"/>
<path d="M310.541 412.468C316.913 412.468 322.079 414.804 322.079 417.686V443.671H299.001V417.686C299.001 414.804 304.168 412.468 310.541 412.468Z" fill="#E2ECE4"/>
<path d="M333.617 412.468C339.99 412.468 345.155 414.804 345.155 417.686V443.671H322.078V417.686C322.078 414.804 327.245 412.468 333.617 412.468Z" fill="#3F3B32"/>
<path d="M235.731 450.472L231.393 467.7H248.755L257.814 450.472H235.731Z" fill="#D2970F"/>
<path d="M258.099 450.472L249.04 467.7H271.123L280.182 450.472H258.099Z" fill="#C2AC0F"/>
<path d="M280.467 450.472L271.408 467.7H293.491L302.55 450.472H280.467Z" fill="#A24F27"/>
<path d="M303.007 450.472L293.947 467.7H316.03L325.09 450.472H303.007Z" fill="#38918B"/>
<path d="M325.202 450.472L316.143 467.7H338.226L343.297 450.472H325.202Z" fill="#C6AC4F"/>
<path d="M345.156 443.671V474.475H228.976V443.671H345.156ZM235.767 450.462V467.683H338.364V450.462H235.767Z" fill="#B8924B"/>
</g>
<defs>
<clipPath id="clip0_244_2017">
<rect width="390" height="781" fill="white" transform="translate(0 0.5)"/>
</clipPath>
</defs>
</svg>
