<svg width="391" height="782" viewBox="0 0 391 782" fill="none" xmlns="http://www.w3.org/2000/svg">
<g clip-path="url(#clip0_244_2017)">
<rect width="390" height="781" transform="translate(0.390625 0.5)" fill="white"/>
<rect x="0.390625" y="451.5" width="390" height="330" fill="#E1C8A0"/>
<rect x="0.390625" y="0.5" width="390" height="451" fill="#AFD6D8"/>
<ellipse cx="87.1163" cy="486.858" rx="55.757" ry="20.9595" fill="black" fill-opacity="0.1"/>
<ellipse cx="253.236" cy="564.705" rx="10" ry="5" fill="black" fill-opacity="0.1"/>
<ellipse cx="194.589" cy="593.568" rx="10" ry="5" fill="black" fill-opacity="0.1"/>
<ellipse cx="265.001" cy="593.568" rx="10" ry="5" fill="black" fill-opacity="0.1"/>
<ellipse cx="366.86" cy="534.639" rx="10" ry="5" fill="black" fill-opacity="0.1"/>
<ellipse cx="57.7812" cy="583.568" rx="10" ry="5" fill="black" fill-opacity="0.1"/>
<path d="M220.942 169.17C222.182 168.371 234.347 167.788 240.421 167.644C240.421 165.559 240.859 161.785 241.007 160.326C241.445 158.001 242.032 156.538 242.54 155.374C244.537 151.397 247.687 144.967 251.673 143.697C256.229 142.245 262.586 142.66 268.138 144.084C276.382 146.199 284.34 147.917 287.583 150.283C289.177 151.446 289.96 152.305 290.787 152.021C291.227 151.87 291.723 151.482 292.026 150.997C293.119 149.243 293.293 145.659 298.312 144.794C302.936 143.997 308.363 144.22 310.129 145.462C312.842 147.369 316.013 149.504 318.596 153.425C320.567 156.416 320.781 160.165 323.137 160.348C326.859 160.637 331.292 159.882 333.632 161.664C335.745 163.273 337.61 164.749 338.079 166.998C338.95 171.182 339.124 179.636 336.244 181.589C334.413 182.83 319.342 178.715 318.657 184.593C318.368 187.074 318.367 189.331 317.779 190.349C317.484 190.862 317.107 191.377 315.642 192.331C308.717 196.844 305.14 198.433 302.006 197.711C298.207 196.835 295.114 194.871 286.309 192.237C284.641 191.738 284.135 192.136 283.916 192.686C283.48 193.778 282.753 194.528 281.941 195.534C279.824 198.157 278.056 200.026 275.81 200.491C271.608 201.363 264.279 201.369 261.572 199.309C257.928 196.537 257.002 193.481 254.427 192.239C253.987 192.027 253.554 192.316 253.113 192.609C251.36 193.778 248.218 196.226 244.044 196.036C235.849 195.661 227.062 194.831 223.548 190.036C220.706 186.159 215.677 172.566 220.942 169.17Z" fill="white" stroke="white" stroke-width="2.70914" stroke-linecap="round"/>
<path d="M57.4834 213.917C58.7227 213.118 70.8878 212.536 76.9616 212.391C76.9616 210.307 77.3995 206.532 77.5484 205.074C77.9863 202.749 78.5731 201.286 79.0811 200.121C81.078 196.145 84.2276 189.714 88.2137 188.444C92.7701 186.993 99.1267 187.407 104.679 188.832C112.923 190.947 120.881 192.665 124.124 195.03C125.718 196.193 126.501 197.053 127.328 196.769C127.768 196.618 128.264 196.23 128.567 195.744C129.66 193.99 129.834 190.406 134.853 189.541C139.477 188.744 144.904 188.967 146.67 190.209C149.383 192.116 152.554 194.252 155.137 198.172C157.108 201.163 157.322 204.913 159.678 205.096C163.4 205.385 167.833 204.629 170.173 206.412C172.286 208.021 174.151 209.497 174.62 211.745C175.491 215.93 175.665 224.383 172.785 226.337C170.954 227.578 155.883 223.463 155.198 229.341C154.909 231.821 154.908 234.078 154.32 235.097C154.025 235.609 153.648 236.124 152.183 237.078C145.258 241.591 141.681 243.181 138.547 242.458C134.748 241.582 131.655 239.619 122.85 236.984C121.182 236.485 120.676 236.884 120.457 237.433C120.021 238.526 119.295 239.275 118.482 240.282C116.365 242.905 114.597 244.773 112.351 245.239C108.149 246.11 100.82 246.117 98.1126 244.057C94.4692 241.285 93.5427 238.229 90.9681 236.987C90.528 236.774 90.0945 237.063 89.6544 237.357C87.9006 238.526 84.7591 240.974 80.5853 240.783C72.3899 240.409 63.6032 239.579 60.089 234.784C57.247 230.906 52.2176 217.313 57.4834 213.917Z" fill="white" stroke="white" stroke-width="2.70914" stroke-linecap="round"/>
<path d="M186.381 365.353L219.74 402.042H153.022L186.381 365.353Z" fill="#D9D9D9"/>
<path d="M389.232 365.353L422.591 402.042H355.873L389.232 365.353Z" fill="#D9D9D9"/>
<rect x="182.841" y="349.822" width="11.7486" height="31.063" fill="#D9D9D9"/>
<rect x="182.841" y="349.822" width="209.23" height="31.063" fill="#D9D9D9"/>
<rect x="202.229" y="396.765" width="170.571" height="81.8104" fill="#84745D" stroke="#784F19" stroke-width="8.12084"/>
<path d="M386.285 372.553L414.176 402.138H351.501L351.556 402.08H223.473L223.528 402.138H160.853L188.697 372.604V348.505H386.285V372.553Z" fill="#3C4E52"/>
<rect x="182.841" y="343.697" width="209.23" height="6.12498" fill="#D9D9D9"/>
<circle cx="186.901" cy="343.697" r="4.06042" fill="#D9D9D9"/>
<circle cx="388.011" cy="343.697" r="4.06042" fill="#D9D9D9"/>
<path d="M241.699 412.468C248.071 412.468 253.237 414.804 253.237 417.686V443.671H230.16V417.686C230.16 414.804 235.326 412.468 241.699 412.468Z" fill="#E06521"/>
<path d="M264.775 412.468C271.147 412.468 276.313 414.804 276.313 417.686V443.671H253.236V417.686C253.236 414.804 258.402 412.468 264.775 412.468Z" fill="#DB9912"/>
<path d="M287.853 412.468C294.225 412.468 299.391 414.804 299.391 417.686V443.671H276.313V417.686C276.313 414.804 281.48 412.468 287.853 412.468Z" fill="#58C1BD"/>
<path d="M310.931 412.468C317.304 412.468 322.469 414.804 322.469 417.686V443.671H299.392V417.686C299.392 414.804 304.559 412.468 310.931 412.468Z" fill="#E2ECE4"/>
<path d="M334.008 412.468C340.38 412.468 345.546 414.804 345.546 417.686V443.671H322.469V417.686C322.469 414.804 327.635 412.468 334.008 412.468Z" fill="#3F3B32"/>
<path d="M236.122 450.472L231.784 467.7H249.145L258.205 450.472H236.122Z" fill="#D2970F"/>
<path d="M258.49 450.472L249.43 467.7H271.513L280.573 450.472H258.49Z" fill="#C2AC0F"/>
<path d="M280.858 450.472L271.798 467.7H293.881L302.941 450.472H280.858Z" fill="#A24F27"/>
<path d="M303.397 450.472L294.338 467.7H316.421L325.481 450.472H303.397Z" fill="#38918B"/>
<path d="M325.593 450.472L316.534 467.7H338.617L343.688 450.472H325.593Z" fill="#C6AC4F"/>
<path d="M345.546 443.672V474.475H229.367V443.672H345.546ZM236.158 450.463V467.683H338.754V450.463H236.158Z" fill="#B8924B"/>
<path d="M63.2044 478.479C62.6275 475.096 62.6043 473.038 62.7902 469.243L70.4523 466.477V476.655C70.7822 478.796 72.6936 479.379 78.7683 479.241L78.4846 463.177L84.0653 462.721L85.5044 474.971L105.897 477.919C109.433 476.325 111.35 475.561 113.233 477.182C114.374 478.947 114.339 479.711 113.233 480.727H110.144C110.144 480.727 114.391 481.71 113.057 483.5C111.724 485.29 108.81 484.272 107.547 484.377C106.283 484.483 113.225 489.115 108.81 488.975C105.052 488.856 102.049 485.911 101.54 485.343L102.35 486.768C102.35 486.768 104.004 489.767 102.35 490.361C100.696 490.956 99.4548 489.922 99.0929 489.948C98.731 489.973 98.8086 493.463 97.8004 493.463C96.7923 493.463 95.4682 491.442 95.4682 491.442C94.1556 490.749 94.2331 494.911 92.8589 495.004C91.4847 495.097 90.4839 492.443 89.8769 492.436C89.2699 492.429 88.9243 494.507 88.9243 494.507L81.5521 495.543L70.4523 490.904H66.1036C64.0239 490.37 60.6779 485.064 60.8022 484.443C60.9264 483.822 63.2044 478.479 63.2044 478.479Z" fill="#FFE0B4"/>
<path d="M101.51 485.29L102.35 486.768C102.35 486.768 104.004 489.767 102.35 490.361C100.696 490.956 99.4548 489.922 99.0929 489.948C98.731 489.973 98.8086 493.463 97.8004 493.463C96.7923 493.463 95.4682 491.442 95.4682 491.442C94.1556 490.749 94.2331 494.911 92.8589 495.004C91.4847 495.097 90.4839 492.443 89.8769 492.436C89.2699 492.429 88.9243 494.507 88.9243 494.507L81.5521 495.543L70.4523 490.904H66.1036C64.0239 490.37 60.6779 485.064 60.8022 484.443C60.9264 483.822 63.2044 478.479 63.2044 478.479C62.6275 475.096 62.6043 473.038 62.7902 469.243L70.4523 466.477V476.655C70.7822 478.796 72.6936 479.379 78.7683 479.241M101.51 485.29L94.8759 485.711L79.6428 479.218C79.3421 479.227 79.0507 479.235 78.7683 479.241M101.51 485.29C101.024 484.796 104.396 488.836 108.81 488.975C113.225 489.115 106.283 484.483 107.547 484.377C108.81 484.272 111.724 485.29 113.057 483.5C114.391 481.71 110.144 480.727 110.144 480.727H113.233C114.339 479.711 114.374 478.947 113.233 477.182C111.35 475.561 109.433 476.325 105.897 477.919L85.5044 474.971L84.0653 462.721L78.4846 463.177L78.7683 479.241" stroke="black" stroke-width="2.66667" stroke-linecap="square"/>
<path d="M60.2059 479.475C58.5946 478.644 56.2611 431.084 56.2611 431.084C58.8377 418.978 82.4565 415.609 91.7008 423.602C91.7008 423.602 94.8171 474.281 91.5639 473.941C88.3107 473.602 79.6019 473.938 78.4465 473.906C77.2911 473.873 76.0528 465.46 76.0528 465.46C76.0528 465.46 76.6778 472.074 75.716 473.898C74.7543 475.722 61.8173 480.307 60.2059 479.475Z" fill="#FFFFCD"/>
<path d="M74.6912 428.142L76.0528 465.46M76.0528 465.46C76.0528 465.46 76.6778 472.074 75.716 473.898C74.7543 475.722 61.8173 480.307 60.2059 479.475C58.5946 478.644 56.2611 431.084 56.2611 431.084C58.8377 418.978 82.4565 415.609 91.7008 423.602C91.7008 423.602 94.8171 474.281 91.5639 473.941C88.3107 473.602 79.6019 473.938 78.4465 473.906C77.2911 473.873 76.0528 465.46 76.0528 465.46Z" stroke="black" stroke-width="2.66667"/>
<path d="M70.8292 371.667L72.5272 386.269V390.28L42.1744 394.342C32.7808 392.68 30.2029 380.355 39.587 376.081L70.8292 371.667Z" fill="#ECE3C2" stroke="black" stroke-width="0.666667" stroke-linecap="square"/>
<path d="M72.2027 390.465L73.9007 405.067V409.078L43.5479 413.14C34.1544 411.478 31.5765 399.153 40.9606 394.879L72.2027 390.465Z" fill="#ECE3C2" stroke="black" stroke-width="0.666667" stroke-linecap="square"/>
<path d="M74.2628 408.415L75.9608 423.018V427.028L45.608 431.091C36.2144 429.429 33.6365 417.104 43.0206 412.83L74.2628 408.415Z" fill="#ECE3C2" stroke="black" stroke-width="0.666667" stroke-linecap="square"/>
<path d="M67.911 428.425L66.2131 413.823V409.812L96.5658 405.749C105.959 407.411 108.537 419.736 99.1532 424.01L67.911 428.425Z" fill="#ECE3C2" stroke="black" stroke-width="0.666667" stroke-linecap="square"/>
<path d="M66.5375 409.627L64.8395 395.025V391.014L95.1923 386.952C104.586 388.613 107.164 400.939 97.7797 405.212L66.5375 409.627Z" fill="#ECE3C2" stroke="black" stroke-width="0.666667" stroke-linecap="square"/>
<path d="M64.4774 391.676L62.7795 377.074V373.063L93.1322 369.001C102.526 370.663 105.104 382.988 95.7196 387.262L64.4774 391.676Z" fill="#ECE3C2" stroke="black" stroke-width="0.666667" stroke-linecap="square"/>
<path d="M57.1404 411.801L53.4915 400.571L53.0411 430.744C53.0168 435.77 55.3133 439.565 59.5911 446.411C60.1236 447.263 60.4614 447.5 61.1412 447.462C61.8926 447.43 62.3996 447.31 62.7299 447.094C63.3697 446.676 63.3462 445.896 63.1511 444.685L64.4139 431.456L64.0128 430.744C64.0068 430.902 57.4837 412.192 57.1404 411.801Z" fill="#CD9933"/>
<path d="M107.699 397.445L87.5731 385.407C82.8686 384.27 79.626 383.514 75.5917 382.629L73.8484 395.503L72.2142 395.928L61.639 383.41C58.3115 384.011 56.5665 384.749 54.1148 386.043C52.403 387.093 52.4014 390.698 53.4915 400.571L57.1404 411.801C57.4837 412.192 64.0068 430.902 64.0128 430.744L64.4139 431.456L84.9992 439.503L87.5731 429.348C87.5731 429.348 90.0256 429.796 91.597 430.083C90.3795 417.266 88.4793 397.262 88.4793 397.262L95.6225 401.978L104.24 407.668L140.009 419.303C140.612 419.42 140.975 419.682 141.311 417.615L141.408 416.129L141.962 407.668L141.986 407.295C141.954 407.03 141.76 406.94 141.311 406.813L107.699 397.445Z" fill="#CD9933"/>
<path d="M72.2142 378.457C87.9227 384.165 93.8259 382.848 98.7709 371.815C100.751 360.946 100.367 353.4 97.2032 340.1H61.639C60.9939 342.759 60.4352 345.809 59.9054 349.288C55.7492 350.188 54.9507 351.555 54.7293 354.668C54.483 358.295 55.7981 360.022 61.639 362.362C61.3858 364.322 61.7029 365.419 62.9699 367.376C62.781 369.16 63.1197 370.172 63.9255 371.983V383.052C63.0822 383.168 62.3268 383.286 61.639 383.41L72.2142 395.928L73.8484 395.503L75.5917 382.629C74.0955 382.3 72.4904 381.954 70.6614 381.564V377.004C70.8787 377.66 71.3117 378.124 72.2142 378.457Z" fill="#FFE0B4"/>
<path d="M61.639 340.1H97.2032C97.2032 340.1 99.6152 323.452 78.9296 323.452C61.1781 324.039 61.639 340.1 61.639 340.1Z" fill="black"/>
<path d="M74.165 320.811C74.5539 321.948 78.9296 323.452 78.9296 323.452C78.9296 323.452 81.2981 318.805 81.1302 318.318C80.9623 317.83 78.8844 316.194 77.3192 316.557C75.7541 316.919 73.7761 319.674 74.165 320.811Z" fill="black"/>
<path d="M96.1628 335.899C96.5381 337.363 96.8847 338.761 97.2032 340.1M70.6614 377.004C70.8787 377.66 71.3117 378.124 72.2142 378.457C87.9227 384.165 93.8259 382.848 98.7709 371.815C100.751 360.946 100.367 353.4 97.2032 340.1M70.6614 377.004C70.4729 376.435 70.4469 375.72 70.4176 374.819M70.6614 377.004V381.564C72.4904 381.954 74.0955 382.3 75.5917 382.629M53.4915 400.571C52.4014 390.698 52.403 387.093 54.1148 386.043C56.5665 384.749 58.3115 384.011 61.639 383.41M53.4915 400.571L57.1404 411.801C57.4837 412.192 64.0068 430.902 64.0128 430.744L64.4139 431.456M53.4915 400.571L53.0411 430.744C53.0168 435.77 55.3133 439.565 59.5911 446.411C60.1236 447.263 60.4614 447.5 61.1412 447.462C61.8926 447.43 62.3996 447.31 62.7299 447.094C63.3697 446.676 63.3462 445.896 63.1511 444.685L64.4139 431.456M64.4139 431.456L84.9992 439.503L87.5731 429.348C87.5731 429.348 90.0256 429.796 91.597 430.083M141.961 407.668L141.986 407.295C141.955 407.03 141.76 406.94 141.311 406.813L107.699 397.445L87.5731 385.407C82.8686 384.27 79.626 383.514 75.5917 382.629M141.961 407.668C148.494 404.893 153.71 402.093 154.955 403.556C157.408 406.647 155.133 407.469 151.411 409.021V409.593M141.961 407.668L141.408 416.129M151.411 410.165V412.362C149.555 414.049 149.086 414.299 148.926 413.921C149.758 412.326 150.332 411.531 151.411 410.165ZM151.411 410.165V409.593M151.411 409.593C158.21 409.135 161.662 409.115 163.933 411.633C164.709 412.768 164.407 413.256 162.852 413.921L154.504 413.495C160.099 414.679 164.895 415.194 163.701 416.989C162.376 418.533 160.794 418.848 158.494 418.483M158.494 418.483C157.188 418.276 155.649 417.849 153.795 417.304M158.494 418.483C157.142 418.107 155.466 417.792 153.795 417.304M158.494 418.483C160.154 418.945 161.327 419.501 161.41 420.581C159.792 424.732 156.656 422.64 151.261 419.303C155.03 423.674 155.466 424.748 154.504 425.235C151.212 426.192 149.743 424.815 147.568 420.101C144.831 419.7 143.518 418.708 141.408 416.129M153.795 417.304C153.755 417.292 153.715 417.281 153.675 417.269M141.408 416.129L141.311 417.615C140.975 419.682 140.612 419.42 140.009 419.303L104.24 407.668L95.6225 401.978L88.4793 397.262M91.597 430.083C82.6631 425.083 68.7202 417.278 68.7202 417.278L64.9275 395.928M91.597 430.083C90.3795 417.266 88.4793 397.262 88.4793 397.262M61.639 383.41C62.3268 383.286 63.0822 383.168 63.9255 383.052V371.983C63.1197 370.172 62.781 369.16 62.9699 367.376C61.7029 365.419 61.3858 364.322 61.639 362.362C55.7981 360.022 54.483 358.295 54.7293 354.668C54.9507 351.555 55.7492 350.188 59.9054 349.288C60.4352 345.809 60.9939 342.759 61.639 340.1M61.639 383.41L72.2142 395.928L73.8484 395.503L75.5917 382.629M84.1003 394.371L88.4793 397.262M61.639 340.1H97.2032M61.639 340.1C61.639 340.1 61.1781 324.039 78.9296 323.452M97.2032 340.1C97.2032 340.1 99.6152 323.452 78.9296 323.452M78.9296 323.452C78.9296 323.452 74.5539 321.948 74.165 320.811C73.7761 319.674 75.7541 316.919 77.3192 316.557C78.8844 316.194 80.9623 317.83 81.1302 318.318C81.2981 318.805 78.9296 323.452 78.9296 323.452Z" stroke="black" stroke-width="2.66667"/>
<path d="M97.369 335.242C97.3689 334.758 73.9954 335.04 62.3086 335.242L60.0859 342.693L98.0859 343.365C97.8469 340.858 97.369 335.725 97.369 335.242Z" fill="#FFFFCD" stroke="black" stroke-width="2.66667"/>
<path d="M83.6034 358.764C83.6034 360.236 82.4094 361.43 80.9367 361.43C79.4639 361.43 78.27 360.236 78.27 358.764C78.27 357.291 79.4639 356.097 80.9367 356.097C82.4094 356.097 83.6034 357.291 83.6034 358.764Z" fill="black"/>
<path d="M96.3787 358.196C96.3787 359.669 95.1848 360.863 93.7121 360.863C92.2393 360.863 91.0454 359.669 91.0454 358.196C91.0454 356.723 92.2393 355.529 93.7121 355.529C95.1848 355.529 96.3787 356.723 96.3787 358.196Z" fill="black"/>
<path d="M77.1131 353.712C80.2944 353.624 81.9469 353.754 84.3334 354.758" stroke="black" stroke-width="2" stroke-linecap="round"/>
<path d="M96.6315 353.478C93.4502 353.39 91.7977 353.521 89.4112 354.525" stroke="black" stroke-width="2" stroke-linecap="round"/>
<path d="M80.9829 368.051C86.072 368.026 88.8604 368.027 93.7386 368.05" stroke="black" stroke-width="2" stroke-linecap="round"/>
<path d="M85.8488 371.016C86.9189 371.376 87.5416 371.4 88.702 371.06" stroke="black" stroke-width="1.33333" stroke-linecap="round"/>
<path d="M143.057 406.933C147.09 405.067 149.199 403.811 153.859 402.806C154.82 402.634 155.239 402.586 155.237 402.806C155.748 403.389 156.151 404.123 156.412 405.148C156.7 406.625 155.453 407.389 153.134 408.279L152.702 409.454C160.687 408.967 165.21 409.791 165.152 411.931C164.657 413.562 163.165 414.2 161.154 414.306C163.376 414.563 164.875 414.982 164.37 416.169C163.518 417.916 162.237 418.683 160.494 418.778C161.338 419.11 161.89 419.566 161.99 420.276C159.467 424.588 156.527 422.741 151.266 419.396C154.175 422.222 157.079 424.46 155.568 425.296C151.521 426.166 149.721 425.015 147.452 419.657C145.549 419.941 144.523 419.273 142.725 417.408L143.057 406.933Z" fill="#FFE0B4"/>
<path d="M153.134 408.279C155.453 407.389 156.7 406.625 156.412 405.148C156.151 404.123 155.748 403.389 155.237 402.806C155.239 402.586 154.82 402.634 153.859 402.806C149.199 403.811 147.09 405.067 143.057 406.933L142.725 417.408C144.523 419.273 145.549 419.941 147.452 419.657C149.721 425.015 151.522 426.166 155.568 425.296C157.079 424.46 154.175 422.222 151.266 419.396C156.527 422.741 159.467 424.588 161.99 420.276C161.89 419.566 161.338 419.11 160.494 418.778M153.134 408.279C152.486 408.527 151.535 408.564 150.731 408.85C148.666 413.177 147.893 414.885 148.332 414.539C150.179 413.945 151.096 413.322 152.406 411.41L152.702 409.454M153.134 408.279L152.702 409.454M152.702 409.454C160.687 408.967 165.21 409.791 165.152 411.931C164.657 413.562 163.165 414.2 161.154 414.306M161.154 414.306C159.373 414.4 157.183 414.077 154.916 413.659C157.011 413.991 159.327 414.094 161.154 414.306ZM161.154 414.306C163.376 414.563 164.875 414.982 164.37 416.169C163.518 417.916 162.237 418.683 160.494 418.778M160.494 418.778C158.779 418.872 156.615 418.316 153.971 417.408C156.476 417.98 158.965 418.176 160.494 418.778ZM74.8632 382.364L74.4996 392.179L73.1892 396.219L61.0049 383.535" stroke="black" stroke-width="2.66667"/>
<path d="M78.3115 383.732L77.1016 398.553L77.0391 399.321L76.3428 399.65L74.0098 400.755L73.0957 401.188L72.4326 400.424L60.3789 386.55L58.7266 384.648L61.2295 384.352L63.8398 384.043L64.6035 383.953L65.0645 384.568C67.8784 388.328 69.618 389.842 72.1865 392.463L73.1494 383.77L73.2656 382.715L74.3193 382.592L76.8271 382.299L78.4434 382.111L78.3115 383.732Z" fill="#616E72" stroke="black" stroke-width="2.66667" stroke-linecap="square"/>
<path d="M156.956 410.762C156.369 413.22 153.908 414.619 150.844 413.793C148.363 412.914 146.678 410.876 147.265 408.418C147.853 405.96 150.367 404.45 153.09 405.112C155.812 405.775 157.543 408.304 156.956 410.762Z" fill="#AB6F00"/>
<path d="M156.848 409.347C156.848 411.701 154.581 413.014 151.914 413.014C149.247 413.014 147.179 411.074 147.085 408.753C147.085 406.4 148.808 404.646 151.475 404.646C154.614 404.646 156.848 406.994 156.848 409.347Z" fill="#FDF1C3"/>
<path d="M156.983 410.596C156.425 412.931 153.937 414.22 151.201 413.555C148.465 412.89 146.783 410.228 147.341 407.892C147.899 405.557 150.33 404.421 153.066 405.087C155.802 405.752 157.541 408.261 156.983 410.596Z" fill="#F4C34A"/>
<path d="M156.232 410.206C155.762 412.173 153.436 413.295 151.17 412.744C148.904 412.193 147.473 410.186 147.971 408.103C148.441 406.135 150.662 405.043 152.928 405.594C155.193 406.145 156.702 408.238 156.232 410.206Z" fill="#D88D16"/>
<path d="M151.524 407.649C152.281 407.348 153.144 407.647 153.551 408.353L153.579 408.401C154.078 409.265 153.696 410.371 152.771 410.743C152.018 411.046 151.156 410.752 150.745 410.052L150.717 410.004C150.207 409.137 150.59 408.021 151.524 407.649Z" fill="#F1C34B"/>
<path d="M151.228 409.725C150.912 409.165 151.158 408.455 151.752 408.21C152.241 408.009 152.803 408.195 153.076 408.647L153.091 408.671C153.432 409.237 153.184 409.975 152.569 410.219C152.072 410.417 151.505 410.216 151.242 409.75L151.228 409.725Z" fill="white"/>
<path d="M161.343 407.43C160.755 409.888 158.295 411.288 155.231 410.462C152.75 409.583 151.065 407.545 151.652 405.087C152.239 402.629 154.754 401.119 157.477 401.781C160.199 402.443 161.93 404.972 161.343 407.43Z" fill="#AB6F00"/>
<path d="M161.234 406.016C161.234 408.369 158.967 409.683 156.3 409.683C153.633 409.683 151.566 407.743 151.471 405.422C151.471 403.069 153.194 401.315 155.861 401.315C159.001 401.315 161.234 403.663 161.234 406.016Z" fill="#FDF1C3"/>
<path d="M161.37 407.265C160.812 409.6 158.323 410.889 155.587 410.224C152.851 409.558 151.169 406.896 151.727 404.561C152.285 402.226 154.716 401.09 157.452 401.755C160.188 402.421 161.928 404.93 161.37 407.265Z" fill="#F4C34A"/>
<path d="M160.619 406.874C160.148 408.842 157.823 409.964 155.557 409.413C153.291 408.862 151.86 406.855 152.358 404.771C152.828 402.804 155.048 401.712 157.314 402.263C159.58 402.814 161.089 404.907 160.619 406.874Z" fill="#D88D16"/>
<path d="M155.91 404.318C156.667 404.016 157.53 404.316 157.938 405.021L157.966 405.07C158.465 405.934 158.083 407.04 157.157 407.412C156.404 407.714 155.542 407.421 155.131 406.721L155.103 406.673C154.594 405.806 154.976 404.689 155.91 404.318Z" fill="#F1C34B"/>
<path d="M155.614 406.394C155.299 405.834 155.544 405.124 156.138 404.879C156.627 404.678 157.19 404.863 157.462 405.316L157.477 405.34C157.819 405.906 157.57 406.644 156.955 406.888C156.458 407.085 155.891 406.885 155.628 406.418L155.614 406.394Z" fill="white"/>
<path d="M161.914 412.829C161.327 415.286 158.866 416.686 155.802 415.86C153.321 414.981 151.636 412.943 152.223 410.485C152.811 408.027 155.325 406.517 158.048 407.179C160.77 407.841 162.501 410.371 161.914 412.829Z" fill="#AB6F00"/>
<path d="M161.806 411.414C161.806 413.768 159.539 415.081 156.872 415.081C154.205 415.081 152.138 413.141 152.043 410.82C152.043 408.467 153.767 406.713 156.434 406.713C159.573 406.713 161.806 409.061 161.806 411.414Z" fill="#FDF1C3"/>
<path d="M161.941 412.663C161.383 414.998 158.895 416.287 156.159 415.622C153.423 414.957 151.741 412.295 152.299 409.959C152.857 407.624 155.288 406.488 158.024 407.154C160.76 407.819 162.499 410.328 161.941 412.663Z" fill="#F4C34A"/>
<path d="M161.19 412.272C160.72 414.24 158.395 415.362 156.129 414.811C153.863 414.26 152.432 412.253 152.929 410.17C153.4 408.202 155.62 407.11 157.886 407.661C160.152 408.212 161.661 410.305 161.19 412.272Z" fill="#D88D16"/>
<path d="M156.482 409.716C157.239 409.415 158.102 409.714 158.509 410.42L158.537 410.468C159.036 411.332 158.654 412.438 157.729 412.81C156.976 413.113 156.114 412.819 155.703 412.119L155.675 412.071C155.165 411.204 155.548 410.088 156.482 409.716Z" fill="#F1C34B"/>
<path d="M156.186 411.792C155.871 411.232 156.117 410.522 156.711 410.277C157.199 410.076 157.762 410.261 158.035 410.714L158.049 410.738C158.391 411.304 158.142 412.042 157.528 412.286C157.03 412.483 156.463 412.283 156.2 411.816L156.186 411.792Z" fill="white"/>
<path d="M153.957 415.582C153.37 418.04 150.909 419.44 147.845 418.614C145.364 417.735 143.679 415.697 144.266 413.239C144.853 410.781 147.368 409.271 150.091 409.933C152.813 410.595 154.544 413.124 153.957 415.582Z" fill="#AB6F00"/>
<path d="M153.849 414.168C153.849 416.521 151.582 417.835 148.915 417.835C146.248 417.835 144.181 415.895 144.086 413.574C144.086 411.221 145.81 409.467 148.477 409.467C151.616 409.467 153.849 411.815 153.849 414.168Z" fill="#FDF1C3"/>
<path d="M153.984 415.417C153.426 417.752 150.938 419.041 148.202 418.376C145.466 417.71 143.784 415.048 144.342 412.713C144.9 410.378 147.331 409.242 150.067 409.907C152.803 410.573 154.542 413.081 153.984 415.417Z" fill="#F4C34A"/>
<path d="M153.233 415.026C152.763 416.994 150.438 418.115 148.172 417.564C145.906 417.013 144.475 415.007 144.972 412.923C145.443 410.956 147.663 409.864 149.929 410.415C152.195 410.966 153.704 413.058 153.233 415.026Z" fill="#D88D16"/>
<path d="M148.525 412.469C149.282 412.168 150.145 412.468 150.552 413.173L150.58 413.222C151.079 414.086 150.697 415.191 149.772 415.564C149.019 415.866 148.157 415.573 147.746 414.873L147.718 414.825C147.208 413.958 147.591 412.841 148.525 412.469Z" fill="#F1C34B"/>
<path d="M148.229 414.546C147.914 413.986 148.16 413.276 148.754 413.031C149.242 412.83 149.805 413.015 150.078 413.468L150.092 413.492C150.434 414.058 150.185 414.795 149.571 415.039C149.073 415.237 148.506 415.037 148.243 414.57L148.229 414.546Z" fill="white"/>
<path d="M160.743 419.117C160.155 421.575 157.695 422.975 154.631 422.149C152.15 421.27 150.465 419.232 151.052 416.774C151.639 414.316 154.154 412.806 156.876 413.468C159.599 414.13 161.33 416.659 160.743 419.117Z" fill="#AB6F00"/>
<path d="M160.634 417.703C160.634 420.056 158.368 421.37 155.701 421.37C153.034 421.37 150.966 419.43 150.872 417.109C150.872 414.756 152.595 413.002 155.262 413.002C158.401 413.002 160.634 415.35 160.634 417.703Z" fill="#FDF1C3"/>
<path d="M160.77 418.952C160.212 421.287 157.723 422.576 154.987 421.911C152.251 421.245 150.569 418.583 151.127 416.248C151.685 413.913 154.117 412.777 156.853 413.442C159.588 414.108 161.328 416.616 160.77 418.952Z" fill="#F4C34A"/>
<path d="M160.019 418.561C159.548 420.529 157.223 421.65 154.957 421.099C152.691 420.548 151.26 418.542 151.758 416.458C152.228 414.491 154.448 413.399 156.714 413.95C158.98 414.501 160.489 416.593 160.019 418.561Z" fill="#D88D16"/>
<path d="M155.311 416.004C156.068 415.703 156.931 416.003 157.338 416.708L157.366 416.757C157.865 417.621 157.483 418.726 156.557 419.099C155.804 419.401 154.943 419.108 154.532 418.408L154.503 418.36C153.994 417.493 154.377 416.376 155.311 416.004Z" fill="#F1C34B"/>
<path d="M155.014 418.081C154.699 417.521 154.945 416.811 155.539 416.566C156.027 416.365 156.59 416.55 156.863 417.003L156.877 417.027C157.219 417.593 156.97 418.33 156.356 418.575C155.858 418.772 155.291 418.572 155.028 418.105L155.014 418.081Z" fill="white"/>
<path d="M156.083 421.136C155.496 423.594 153.036 424.994 149.972 424.168C147.491 423.289 145.805 421.251 146.393 418.793C146.98 416.335 149.495 414.825 152.217 415.487C154.94 416.149 156.671 418.678 156.083 421.136Z" fill="#AB6F00"/>
<path d="M155.975 419.722C155.975 422.075 153.708 423.389 151.041 423.389C148.374 423.389 146.307 421.449 146.212 419.128C146.212 416.775 147.936 415.021 150.603 415.021C153.742 415.021 155.975 417.369 155.975 419.722Z" fill="#FDF1C3"/>
<path d="M156.111 420.971C155.553 423.306 153.064 424.595 150.328 423.93C147.592 423.264 145.91 420.602 146.468 418.267C147.026 415.932 149.458 414.796 152.193 415.461C154.929 416.127 156.669 418.636 156.111 420.971Z" fill="#F4C34A"/>
<path d="M155.359 420.58C154.889 422.548 152.564 423.67 150.298 423.119C148.032 422.568 146.601 420.561 147.098 418.477C147.569 416.51 149.789 415.418 152.055 415.969C154.321 416.52 155.829 418.613 155.359 420.58Z" fill="#D88D16"/>
<path d="M150.652 418.024C151.408 417.722 152.272 418.022 152.679 418.728L152.707 418.776C153.206 419.64 152.824 420.746 151.898 421.118C151.145 421.421 150.284 421.127 149.872 420.427L149.844 420.379C149.335 419.512 149.718 418.395 150.652 418.024Z" fill="#F1C34B"/>
<path d="M150.355 420.1C150.04 419.54 150.286 418.83 150.88 418.585C151.368 418.384 151.931 418.569 152.204 419.022L152.218 419.046C152.56 419.612 152.311 420.35 151.697 420.594C151.199 420.791 150.632 420.591 150.369 420.124L150.355 420.1Z" fill="white"/>
<path d="M86.6044 440.301L89.3638 430.256C91.796 428.145 93.1213 427.067 94.8614 426.843C97.2799 426.995 98.2415 427.361 98.8823 428.778C99.7736 431.084 98.0602 432.107 94.4678 433.867C101.429 432.951 106.809 431.39 107.749 434.743C108.036 435.915 104.471 436.821 100.32 438.29C103.702 437.747 105.801 437.154 105.933 441.261C105.053 442.636 102.931 442.114 99.9009 441.782C103.397 442.548 105.153 443.078 105.014 445.646C103.871 446.953 102.14 446.919 98.1505 446.224C101.987 446.961 103.801 447.538 104.086 450.001C103.429 450.936 100.943 450.922 96.5449 450.897L96.4808 450.897C93.1331 446.199 90.9285 443.925 86.6044 440.301Z" fill="#FFE0B4" stroke="black" stroke-width="2.66667"/>
<path d="M90.2928 486.892L86.2855 493.603L86.0037 499.484C92.8212 500.048 97.185 499.138 101.684 494.341C101.937 492.689 102.245 491.124 102.409 489.897C102.643 488.155 102.59 487.095 101.685 487.438C100.246 487.707 98.9748 487.821 97.7004 487.815C95.5264 487.804 93.3422 487.442 90.2928 486.892Z" fill="#CEAC65"/>
<path d="M97.7004 487.815C98.9748 487.821 100.246 487.707 101.685 487.438C102.59 487.095 102.643 488.155 102.409 489.897C104.256 491.679 105.316 492.536 107.555 492.097C111.463 490.277 113.467 488.026 114.319 481.897C114.59 479.89 113.922 477.995 112.796 476.374C112.684 475.658 108.242 475.932 106.215 477.21L97.7004 487.815Z" fill="#CEAC65"/>
<path d="M86.2855 493.603L90.2928 486.892C93.3422 487.442 95.5264 487.804 97.7004 487.815M86.2855 493.603L81.1096 492.047M86.2855 493.603L86.0037 499.484M79.9341 498.759C78.3867 498.283 76.9437 497.838 75.6019 497.417M79.9341 498.759L81.1096 492.047M79.9341 498.759C82.1674 499.076 84.1739 499.333 86.0037 499.484M97.7004 487.815C98.9748 487.821 100.246 487.707 101.685 487.438C102.59 487.095 102.643 488.155 102.409 489.897M97.7004 487.815L106.215 477.21C108.242 475.932 112.684 475.658 112.796 476.374C113.922 477.995 114.59 479.89 114.319 481.897C113.467 488.026 111.463 490.277 107.555 492.097C105.316 492.536 104.256 491.679 102.409 489.897M102.409 489.897C102.245 491.124 101.937 492.689 101.684 494.341C97.185 499.138 92.8212 500.048 86.0037 499.484M65.7874 487.442L60.4547 485.839C59.347 485.927 59.7999 487.986 61.633 491.292C62.2492 492.147 63.4507 492.942 65.2986 493.781M65.7874 487.442L65.2986 493.781M65.7874 487.442L71.279 489.092M65.2986 493.781C66.7655 494.448 68.6397 495.143 70.9519 495.919M71.279 489.092L70.9519 495.919M71.279 489.092L75.9337 490.491M70.9519 495.919C72.3415 496.385 73.8893 496.881 75.6019 497.417M75.9337 490.491L75.6019 497.417M75.9337 490.491L81.1096 492.047" stroke="#CEAC65" stroke-width="2.66667" stroke-linecap="square"/>
<path d="M86.2855 493.603L90.2928 486.892C93.3422 487.442 95.5264 487.804 97.7004 487.815M86.2855 493.603L81.1096 492.047M86.2855 493.603L86.0037 499.484M79.9341 498.759C78.3867 498.283 76.9437 497.838 75.6019 497.417M79.9341 498.759L81.1096 492.047M79.9341 498.759C82.1674 499.076 84.1739 499.333 86.0037 499.484M97.7004 487.815C98.9748 487.821 100.246 487.707 101.685 487.438C102.59 487.095 102.643 488.155 102.409 489.897M97.7004 487.815L106.215 477.21C108.242 475.932 112.684 475.658 112.796 476.374C113.922 477.995 114.59 479.89 114.319 481.897C113.467 488.026 111.463 490.277 107.555 492.097C105.316 492.536 104.256 491.679 102.409 489.897M102.409 489.897C102.245 491.124 101.937 492.689 101.684 494.341C97.185 499.138 92.8212 500.048 86.0037 499.484M65.7874 487.442L60.4547 485.839C59.347 485.927 59.7999 487.986 61.633 491.292C62.2492 492.147 63.4507 492.942 65.2986 493.781M65.7874 487.442L65.2986 493.781M65.7874 487.442L71.279 489.092M65.2986 493.781C66.7655 494.448 68.6397 495.143 70.9519 495.919M71.279 489.092L70.9519 495.919M71.279 489.092L75.9337 490.491M70.9519 495.919C72.3415 496.385 73.8893 496.881 75.6019 497.417M75.9337 490.491L75.6019 497.417M75.9337 490.491L81.1096 492.047" stroke="black" stroke-opacity="0.1" stroke-width="2.66667" stroke-linecap="square"/>
<path d="M47.3978 422.51L58.2663 418.421M60.5855 417.164C60.5855 417.164 61.0535 417.007 62.5618 416.454C64.07 415.901 61.1381 394.074 60.8408 393.07C60.5434 392.065 42.8638 389.348 42.8638 389.348" stroke="#FFFFCD" stroke-width="2.66667"/>
<path d="M93.3354 406.771C93.3354 406.771 104.989 395.174 105.072 393.167C105.155 391.161 104.018 388.512 103.605 387.699C103.191 386.886 95.4693 381.831 95.4693 381.831" stroke="#FFFFCD" stroke-width="2.66667"/>
</g>
<defs>
<clipPath id="clip0_244_2017">
<rect width="390" height="781" fill="white" transform="translate(0.390625 0.5)"/>
</clipPath>
</defs>
</svg>
