<svg width="93" height="92" viewBox="0 0 93 92" fill="none" xmlns="http://www.w3.org/2000/svg">
<path d="M76.8291 68.0115C67.8562 60.6847 77.307 47.3947 68.8418 48.4187C68.1435 45.5598 67.6051 45.2772 66.6572 44.664C87.1375 39.2708 74.4889 62.1405 76.8291 68.0115Z" fill="#54381F"/>
<path d="M44.8113 10.9425C45.3492 13.314 44.739 14.4677 44.0604 16.4721L42.2172 14.5606L42.8998 12.9905L40.8518 13.6049L38.6673 12.4444L35.0491 10.6694C36.2259 9.20449 37.178 8.52135 38.8721 8.28003C39.6891 9.41903 39.727 10.0777 39.8268 11.8126L39.8278 11.8299C41.8351 10.8922 42.9437 10.7776 44.8113 10.9425Z" fill="#DDAC81"/>
<path d="M43.9925 16.335C49.1808 21.7286 49.4539 39.0685 53.9596 42.618L47.6789 43.3011L25.9016 18.9974C23.2392 19.407 20.3036 16.9494 21.0546 14.9696C26.2099 17.9209 26.5842 5.68568 38.9407 12.3076C41.1064 13.4682 42.6954 14.9865 43.9925 16.335Z" fill="#54381F"/>
<path d="M24.6724 37.3598C24.2277 31.5031 22.6789 29.2008 19.2793 26.0273C35.9554 4.37776 44.5383 23.1594 43.2412 28.826L44.4018 31.9005L45.2036 34.7678L45.9719 37.635L47.6786 43.2991C55.4543 42.0948 63.2436 42.4112 66.7935 44.6645C68.0224 45.4444 68.5942 46.7778 68.9781 48.4192C69.7898 53.7639 70.1387 57.3622 67.5445 60.0929C63.5884 64.2572 39.5548 64.3255 36.9606 59.4103C34.6907 55.1094 34.5084 50.8412 36.4145 44.6645L33.752 35.8579L24.6724 37.3598Z" fill="#DDAC81"/>
<path d="M38.0529 82.8283L36.3462 79.4832L40.1009 78.2543L41.2615 81.5994L38.0529 82.8283Z" fill="#B6825D"/>
<path d="M44.47 83.5109L44.2652 78.937L48.1565 79.1418L48.0199 82.9648L44.47 83.5109Z" fill="#B6825D"/>
<path d="M63.8922 83.7067L63.3294 79.349L67.8731 78.9383L67.8648 83.2465L63.8922 83.7067Z" fill="#B6825D"/>
<path d="M58.1384 82.74L57.775 78.7711L61.8623 78.5719L61.9277 82.7926L58.1384 82.74Z" fill="#B6825D"/>
<path d="M44.2651 79.2784L42.968 62.075L41.8758 61.8019L38.121 70.4719L40.1691 78.1861L36.4144 79.4832L32.4548 69.7892L36.8922 59.276C38.822 60.5192 39.742 61.1595 41.8758 61.8019L42.968 62.075C45.2395 62.394 46.475 62.5481 48.1564 62.4846V79.2784H44.2651Z" fill="#DDAC81"/>
<ellipse cx="30.2024" cy="27.0537" rx="1.09228" ry="1.77496" fill="black"/>
<path d="M24.7405 37.3618C24.1261 31.8322 22.556 29.1015 19.4156 26.166C13.6129 28.0092 13.4764 34.3409 15.934 36.9522C18.1185 39.2733 21.3566 39.0199 24.7405 37.3618Z" fill="#FCECD2"/>
<rect x="17.0947" y="32.0269" width="1.05355" height="1.68491" rx="0.526776" transform="rotate(-11.3822 17.0947 32.0269)" fill="black"/>
<path d="M61.8931 78.6762L61.5248 61.9614L56.8616 62.1422L57.7705 78.96L61.8931 78.6762Z" fill="#DDAC81"/>
<path d="M63.3085 78.8299L61.5317 62.2057C64.1438 61.8431 65.5208 61.2103 67.8982 59.6845L67.8857 78.9403L63.3198 79.3759L63.3085 78.8299Z" fill="#DDAC81"/>
</svg>
