<svg width="93" height="92" viewBox="0 0 93 92" fill="none" xmlns="http://www.w3.org/2000/svg">
<path d="M2.68237 32.4319C10.472 30.3155 17.1586 28.7927 39.8831 24.5103L41.0893 22.7858L46.2313 30.5458L51.5004 23.3247L51.7377 23.0799L52.7228 25.1258C67.6173 26.5999 75.7891 27.7664 89.9974 30.5458C90.2845 30.5803 90.4245 30.6101 90.3794 30.8107C89.9499 37.6157 89.1111 39.5617 86.9719 41.0356C66.9741 41.2017 61.6163 39.0741 56.039 34.1512L62.2097 70.9144C48.236 73.6636 40.9469 73.6331 28.8858 70.9144C30.7429 64.2612 31.1353 60.4856 31.3113 53.7167L26.1254 65.5185L23.2566 63.9262C28.1737 55.426 30.3987 50.4434 33.8071 41.4176C33.5558 41.3933 33.4128 41.2922 33.2553 41.1357C33.1174 40.4925 33.1451 40.1477 33.5997 39.5865C33.8569 39.4976 34.0693 39.447 34.2872 39.4366L35.3902 32.1912C31.7854 37.8806 27.8784 39.3065 20.3713 41.0756C15.5099 42.6416 4.91047 42.4326 4.44503 40.5531L2.68237 32.4319Z" fill="#D0BDA7"/>
<path d="M42.7839 18.4H49.722L51.7356 23.125L43.681 36.5227L41.3786 34.5635L44.537 28.9403L40.9622 22.821V21.2664L42.7839 18.4Z" fill="#BFAA92"/>
<path d="M46.1219 25.8056L43.2458 18.8005H49.1794L46.1219 25.8056Z" fill="#1C1C1C" stroke="#1C1C1C" stroke-width="0.219783"/>
<path d="M43.3093 19.3989L42.9246 18.4242L49.5975 18.4242L49.2009 19.3989H43.3093Z" fill="#BFAA92"/>
<path d="M10.084 32.0499L14.8339 30.7122L15.0942 31.6005L15.5143 33.0338L15.762 33.8788L14.2859 34.3165L13.2679 34.6183L12.2498 34.9202L11.0667 35.271L10.6533 33.9158L10.3252 32.8405L10.084 32.0499Z" fill="#490000"/>
<path d="M12.2498 34.9202L11.0667 35.271L10.6533 33.9158M12.2498 34.9202L12.65 36.1718M12.2498 34.9202L13.2679 34.6183M14.2859 34.3165L15.762 33.8788L15.5143 33.0338M14.2859 34.3165L14.6886 35.271M14.2859 34.3165L13.2679 34.6183M13.2679 34.6183L13.7645 35.654M10.6533 33.9158L9.17295 34.6183M10.6533 33.9158L10.3252 32.8405M10.3252 32.8405L10.084 32.0499L14.8339 30.7122L15.0942 31.6005M10.3252 32.8405L8.92749 33.3582M15.5143 33.0338L17.8652 32.463M15.5143 33.0338L15.0942 31.6005M15.0942 31.6005L16.4791 31.2501" stroke="#1C1C1C" stroke-width="0.219783"/>
<path d="M26.7586 38.4287L31.0547 36.0799L30.7108 35.3235L30.1558 34.103L29.8286 33.3835L28.4804 34.099L27.5504 34.5925L26.6205 35.0861L25.5398 35.6596L26.0526 36.8246L26.4595 37.749L26.7586 38.4287Z" fill="#011B77"/>
<path d="M26.6205 35.0861L25.5398 35.6596L26.0526 36.8246M26.6205 35.0861L26.1604 33.9977M26.6205 35.0861L27.5504 34.5925M28.4804 34.099L29.8286 33.3835L30.1558 34.103M28.4804 34.099L28.2011 33.2028M28.4804 34.099L27.5504 34.5925M27.5504 34.5925L27.2914 33.5797M26.0526 36.8246L24.5416 37.3702M26.0526 36.8246L26.4595 37.749M26.4595 37.749L26.7586 38.4287L31.0547 36.0799L30.7108 35.3235M26.4595 37.749L25.1205 38.3592M30.1558 34.103L32.2272 32.8809M30.1558 34.103L30.7108 35.3235M30.7108 35.3235L31.9395 34.6128" stroke="#1C1C1C" stroke-width="0.219783"/>
<path d="M65.2908 39.1904L72.2136 40.3368L72.5254 39.2793L73.0286 37.5729L73.3253 36.5668L71.1724 36.1849L69.6876 35.9215L68.2028 35.6582L66.4771 35.3521L65.978 36.9669L65.582 38.2483L65.2908 39.1904Z" fill="#490000"/>
<path d="M68.2028 35.6582L66.4771 35.3521L65.978 36.9669M68.2028 35.6582L68.6901 34.1651M68.2028 35.6582L69.6876 35.9215M71.1724 36.1849L73.3253 36.5668L73.0286 37.5729M71.1724 36.1849L71.6843 35.0378M71.1724 36.1849L69.6876 35.9215M69.6876 35.9215L70.3288 34.6718M65.978 36.9669L63.8004 36.2768M65.978 36.9669L65.582 38.2483M65.582 38.2483L65.2908 39.1904L72.2136 40.3368L72.5254 39.2793M65.582 38.2483L63.5361 37.7664M73.0286 37.5729L76.4486 38.034M73.0286 37.5729L72.5254 39.2793M72.5254 39.2793L74.5411 39.5674" stroke="#1C1C1C" stroke-width="0.219783"/>
<path d="M40.8062 47.4824L47.307 54.8444L48.691 53.6712L50.9242 51.7782L52.2408 50.6621L50.2441 48.3382L48.867 46.7354L47.4899 45.1326L45.8895 43.27L43.7509 45.0422L42.0539 46.4484L40.8062 47.4824Z" fill="#490000"/>
<path d="M47.4899 45.1326L45.8895 43.27L43.7509 45.0422M47.4899 45.1326L49.4957 43.5157M47.4899 45.1326L48.867 46.7354M50.2441 48.3382L52.2408 50.6621L50.9242 51.7782M50.2441 48.3382L51.9366 47.2113M50.2441 48.3382L48.867 46.7354M48.867 46.7354L50.803 45.5777M43.7509 45.0422L42.0301 42.2794M43.7509 45.0422L42.0539 46.4484M42.0539 46.4484L40.8062 47.4824L47.307 54.8444L48.691 53.6712M42.0539 46.4484L40.2736 44.0786M50.9242 51.7782L54.2392 55.2724M50.9242 51.7782L48.691 53.6712M48.691 53.6712L50.6287 55.7528" stroke="#1C1C1C" stroke-width="0.219783"/>
<path d="M38.7524 61.8953L48.5726 61.7392L48.6381 63.5523L48.7437 66.478L48.806 68.2029L45.7435 68.2931L43.6313 68.3553L41.5191 68.4175L39.0643 68.4898L38.9331 65.7154L38.829 63.5139L38.7524 61.8953Z" fill="#04621E"/>
<path d="M41.5191 68.4175L39.0643 68.4898L38.9331 65.7154M41.5191 68.4175L41.6756 70.989M41.5191 68.4175L43.6313 68.3553M45.7435 68.2931L48.806 68.2029L48.7437 66.478M45.7435 68.2931L46.051 70.303M45.7435 68.2931L43.6313 68.3553M43.6313 68.3553L44.0801 70.566M38.9331 65.7154L35.7321 66.3052M38.9331 65.7154L38.829 63.5139M38.829 63.5139L38.7524 61.8953L48.5726 61.7392L48.6381 63.5523M38.829 63.5139L35.8782 63.795M48.7437 66.478L53.5593 66.5735M48.7437 66.478L48.6381 63.5523M48.6381 63.5523L51.4818 63.5818" stroke="#1C1C1C" stroke-width="0.219783"/>
</svg>
