<svg width="22" height="22" viewBox="0 0 22 22" fill="none" xmlns="http://www.w3.org/2000/svg">
<path d="M13.1665 14.25C13.4734 14.25 13.7398 14.1371 13.9655 13.9114C14.1912 13.6857 14.304 13.4194 14.304 13.1125C14.304 12.8055 14.1912 12.5392 13.9655 12.3135C13.7398 12.0878 13.4734 11.975 13.1665 11.975C12.8596 11.975 12.5932 12.0878 12.3675 12.3135C12.1419 12.5392 12.029 12.8055 12.029 13.1125C12.029 13.4194 12.1419 13.6857 12.3675 13.9114C12.5932 14.1371 12.8596 14.25 13.1665 14.25ZM12.354 10.7833H13.979C13.979 10.2597 14.0332 9.876 14.1415 9.63225C14.2498 9.3885 14.5026 9.06802 14.8998 8.67079C15.4415 8.12913 15.8026 7.69128 15.9832 7.35725C16.1637 7.02322 16.254 6.63052 16.254 6.17913C16.254 5.36663 15.9696 4.70308 15.4009 4.1885C14.8321 3.67392 14.0873 3.41663 13.1665 3.41663C12.4262 3.41663 11.7807 3.62427 11.23 4.03954C10.6794 4.45482 10.2957 5.00552 10.079 5.69163L11.5415 6.28746C11.704 5.83607 11.9252 5.49753 12.205 5.27183C12.4849 5.04614 12.8054 4.93329 13.1665 4.93329C13.5998 4.93329 13.9519 5.05517 14.2228 5.29892C14.4936 5.54267 14.629 5.87218 14.629 6.28746C14.629 6.54024 14.5568 6.77947 14.4123 7.00517C14.2679 7.23086 14.0151 7.51524 13.654 7.85829C13.0582 8.3819 12.6925 8.79267 12.5571 9.09058C12.4217 9.3885 12.354 9.95274 12.354 10.7833ZM6.6665 17.5C6.07067 17.5 5.5606 17.2878 5.1363 16.8635C4.71199 16.4392 4.49984 15.9291 4.49984 15.3333V2.33329C4.49984 1.73746 4.71199 1.22739 5.1363 0.803084C5.5606 0.378779 6.07067 0.166626 6.6665 0.166626H19.6665C20.2623 0.166626 20.7724 0.378779 21.1967 0.803084C21.621 1.22739 21.8332 1.73746 21.8332 2.33329V15.3333C21.8332 15.9291 21.621 16.4392 21.1967 16.8635C20.7724 17.2878 20.2623 17.5 19.6665 17.5H6.6665ZM2.33317 21.8333C1.73734 21.8333 1.22727 21.6211 0.802962 21.1968C0.378657 20.7725 0.166504 20.2625 0.166504 19.6666V4.49996H2.33317V19.6666H17.4998V21.8333H2.33317Z" fill="#6A6A6A"/>
</svg>
