<svg width="390" height="782" viewBox="0 0 390 782" fill="none" xmlns="http://www.w3.org/2000/svg">
<g clip-path="url(#clip0_290_3101)">
<rect width="390" height="781" transform="translate(0.000244141 0.5)" fill="white"/>
<rect x="0.000244141" y="451.5" width="390" height="330" fill="#B2B3AB"/>
<ellipse cx="252.845" cy="564.705" rx="10" ry="5" fill="black" fill-opacity="0.1"/>
<ellipse cx="194.199" cy="593.568" rx="10" ry="5" fill="black" fill-opacity="0.1"/>
<ellipse cx="264.611" cy="593.568" rx="10" ry="5" fill="black" fill-opacity="0.1"/>
<ellipse cx="366.47" cy="534.639" rx="10" ry="5" fill="black" fill-opacity="0.1"/>
<ellipse cx="57.3909" cy="583.568" rx="10" ry="5" fill="black" fill-opacity="0.1"/>
<rect x="0.000244141" y="0.5" width="390" height="451" fill="#4A97DB"/>
<ellipse cx="86.7262" cy="486.858" rx="55.757" ry="20.9595" fill="black" fill-opacity="0.1"/>
<path d="M220.552 169.17C221.791 168.371 233.956 167.788 240.03 167.644C240.03 165.559 240.468 161.785 240.617 160.326C241.055 158.001 241.642 156.538 242.15 155.374C244.147 151.397 247.296 144.967 251.282 143.697C255.839 142.245 262.195 142.66 267.748 144.084C275.991 146.199 283.95 147.917 287.193 150.283C288.787 151.446 289.57 152.305 290.396 152.021C290.836 151.87 291.333 151.482 291.636 150.997C292.728 149.243 292.902 145.659 297.922 144.794C302.546 143.997 307.972 144.22 309.739 145.462C312.452 147.369 315.622 149.504 318.206 153.425C320.176 156.416 320.391 160.165 322.747 160.348C326.469 160.637 330.901 159.882 333.241 161.664C335.354 163.273 337.22 164.749 337.688 166.998C338.56 171.182 338.734 179.636 335.853 181.589C334.023 182.83 318.952 178.715 318.267 184.593C317.978 187.074 317.977 189.331 317.389 190.349C317.093 190.862 316.716 191.377 315.252 192.331C308.326 196.844 304.75 198.433 301.616 197.711C297.817 196.835 294.724 194.871 285.919 192.237C284.25 191.738 283.745 192.136 283.526 192.686C283.09 193.778 282.363 194.528 281.551 195.534C279.433 198.157 277.665 200.026 275.42 200.491C271.218 201.363 263.889 201.369 261.181 199.309C257.538 196.537 256.611 193.481 254.037 192.239C253.597 192.027 253.163 192.316 252.723 192.609C250.969 193.778 247.828 196.226 243.654 196.036C235.458 195.661 226.672 194.831 223.158 190.036C220.316 186.159 215.286 172.566 220.552 169.17Z" fill="white" stroke="white" stroke-width="2.70914" stroke-linecap="round"/>
<path d="M57.0928 213.917C58.3321 213.118 70.4972 212.536 76.571 212.391C76.571 210.307 77.0089 206.532 77.1578 205.074C77.5957 202.749 78.1825 201.286 78.6905 200.121C80.6873 196.145 83.837 189.714 87.8231 188.444C92.3795 186.993 98.7361 187.407 104.288 188.832C112.532 190.947 120.491 192.665 123.734 195.03C125.328 196.193 126.111 197.053 126.937 196.769C127.377 196.618 127.874 196.23 128.176 195.744C129.269 193.99 129.443 190.406 134.463 189.541C139.087 188.744 144.513 188.967 146.28 190.209C148.992 192.116 152.163 194.252 154.746 198.172C156.717 201.163 156.932 204.913 159.288 205.096C163.01 205.385 167.442 204.629 169.782 206.412C171.895 208.021 173.761 209.497 174.229 211.745C175.1 215.93 175.274 224.383 172.394 226.337C170.564 227.578 155.493 223.463 154.808 229.341C154.519 231.821 154.517 234.078 153.93 235.097C153.634 235.609 153.257 236.124 151.793 237.078C144.867 241.591 141.291 243.181 138.156 242.458C134.357 241.582 131.265 239.619 122.459 236.984C120.791 236.485 120.285 236.884 120.066 237.433C119.631 238.526 118.904 239.275 118.091 240.282C115.974 242.905 114.206 244.773 111.961 245.239C107.759 246.11 100.43 246.117 97.722 244.057C94.0786 241.285 93.152 238.229 90.5775 236.987C90.1374 236.774 89.7039 237.063 89.2638 237.357C87.51 238.526 84.3685 240.974 80.1947 240.783C71.9992 240.409 63.2125 239.579 59.6984 234.784C56.8564 230.906 51.8269 217.313 57.0928 213.917Z" fill="white" stroke="white" stroke-width="2.70914" stroke-linecap="round"/>
<rect x="233.972" y="364.043" width="12.8435" height="78.345" fill="#8B7052"/>
<rect x="136.734" y="363.975" width="25.8458" height="78.345" fill="#8B7052"/>
<rect x="238.509" y="374.195" width="164.742" height="8.91398" fill="#290604"/>
<rect x="238.509" y="374.195" width="164.742" height="8.91398" fill="#290604"/>
<rect x="238.509" y="383.109" width="164.742" height="20.0381" fill="#6B441E"/>
<rect x="238.509" y="403.147" width="164.742" height="42.7806" fill="#E0D9BD"/>
<rect x="136.734" y="353.561" width="129.525" height="11.8542" fill="#290604"/>
<rect x="-13.2502" y="374.195" width="164.742" height="8.91398" fill="#290604"/>
<path d="M415.001 374.057L403.557 341.841C348.733 343.173 317.992 343.289 263.167 341.841L238.509 374.057C307.42 376.145 346.103 376.171 415.001 374.057Z" fill="#ECECEC"/>
<path d="M409.183 372.686L398.534 341.841C347.522 343.117 318.917 343.227 267.903 341.841L244.959 372.686C309.08 374.686 345.075 374.71 409.183 372.686Z" fill="#34404E"/>
<path d="M151.492 373.976L140.048 341.76C85.2248 343.093 54.4833 343.208 -0.341841 341.76L-24.9998 373.976C43.911 376.064 82.5948 376.09 151.492 373.976Z" fill="#ECECEC"/>
<path d="M145.674 372.606L135.026 341.76C84.0134 343.036 55.4088 343.147 4.39461 341.76L-18.5493 372.606C45.5714 374.605 81.5663 374.63 145.674 372.606Z" fill="#34404E"/>
<path d="M269.861 355.141L260.515 322.925C215.745 324.258 190.64 324.373 145.868 322.925L125.731 355.141C182.006 357.229 213.597 357.255 269.861 355.141Z" fill="#ECECEC"/>
<path d="M265.11 353.77L256.414 322.925C214.755 324.201 191.396 324.311 149.736 322.925L130.999 353.77C183.362 355.77 212.757 355.795 265.11 353.77Z" fill="#34404E"/>
<rect x="111.899" y="386.775" width="24.835" height="14.0091" fill="#300A09"/>
<rect x="263.145" y="383.109" width="24.835" height="20.0381" fill="#2A0304"/>
<rect x="347.522" y="383.109" width="24.835" height="20.0381" fill="#2A0304"/>
<rect x="314.692" y="383.109" width="6.11777" height="62.8187" fill="#83694E"/>
<rect x="387.465" y="383.109" width="6.11777" height="62.8187" fill="#83694E"/>
<rect x="266.95" y="387.139" width="17.2254" height="11.978" fill="#7F7F7F"/>
<rect x="351.327" y="387.139" width="17.2254" height="11.978" fill="#7F7F7F"/>
<rect width="164.742" height="20.0381" transform="matrix(-1 0 0 1 151.492 383.109)" fill="#6B441E"/>
<rect width="164.742" height="42.7806" transform="matrix(-1 0 0 1 151.492 403.147)" fill="#E0D9BD"/>
<rect width="24.835" height="20.0381" transform="matrix(-1 0 0 1 126.855 383.109)" fill="#2A0304"/>
<rect width="24.835" height="20.0381" transform="matrix(-1 0 0 1 42.4785 383.109)" fill="#2A0304"/>
<rect width="6.11777" height="62.8187" transform="matrix(-1 0 0 1 75.3083 383.109)" fill="#83694E"/>
<rect width="6.11777" height="62.8187" transform="matrix(-1 0 0 1 2.53491 384.547)" fill="#83694E"/>
<rect width="17.2254" height="11.978" transform="matrix(-1 0 0 1 123.051 387.139)" fill="#7F7F7F"/>
<rect width="17.2254" height="11.978" transform="matrix(-1 0 0 1 38.6738 387.139)" fill="#7F7F7F"/>
<rect x="162.579" y="365.415" width="35.5954" height="76.9724" fill="#9D7B4D"/>
<rect x="198.276" y="365.415" width="35.5954" height="76.9724" fill="#9D7B4D"/>
<circle cx="204.685" cy="404.585" r="2.78993" stroke="black" stroke-width="0.797124"/>
<circle cx="190.451" cy="404.585" r="2.78993" stroke="black" stroke-width="0.797124"/>
<rect x="151.492" y="442.388" width="87.0165" height="3.54016" fill="#BCBCBC"/>
<rect x="-13.2502" y="445.995" width="416.501" height="5.5046" fill="#D9D9D9"/>
<path d="M132.021 501.013C124.249 500.082 120.224 499.205 115.94 494.54L115.897 493.392L128.651 495.142L133.314 498.093C133.507 499.197 133.461 499.825 132.021 501.013Z" fill="white"/>
<path d="M115.94 494.54C120.224 499.205 124.249 500.082 132.021 501.013C133.461 499.825 133.507 499.197 133.314 498.093C138.179 499.081 139.056 501.922 137.447 506.333L115.003 500.566L115.94 494.54Z" fill="#664200"/>
<path d="M137.099 506.489C135.333 508.537 131.147 507.89 114.926 501.189L115.003 500.566L137.447 506.333C137.293 506.755 137.301 506.015 137.099 506.489Z" fill="white"/>
<path d="M133.314 498.093C133.507 499.197 133.461 499.825 132.021 501.013C124.249 500.082 120.224 499.205 115.94 494.54M133.314 498.093C138.179 499.081 139.056 501.922 137.447 506.333M133.314 498.093L128.651 495.142L115.897 493.392L115.94 494.54M115.94 494.54L115.003 500.566M137.447 506.333C137.293 506.755 137.301 506.015 137.099 506.489C135.333 508.537 131.147 507.89 114.926 501.189L115.003 500.566M137.447 506.333L115.003 500.566" stroke="black" stroke-width="0.666667"/>
<path d="M185.906 481.33C182.656 488.452 180.596 492.02 174.85 494.681L173.743 494.374L179.289 482.756L183.518 479.211C184.628 479.363 185.212 479.597 185.906 481.33Z" fill="white"/>
<path d="M174.85 494.681C180.596 492.02 182.656 488.452 185.906 481.33C185.212 479.597 184.628 479.363 183.518 479.211C185.938 474.877 188.912 474.905 192.625 477.78L180.305 497.407L174.85 494.681Z" fill="#664200"/>
<path d="M192.667 478.159C194.081 480.464 192.192 484.255 180.875 497.67L180.305 497.407L192.625 477.78C192.98 478.055 192.277 477.822 192.667 478.159Z" fill="white"/>
<path d="M183.518 479.211C184.628 479.363 185.212 479.597 185.906 481.33C182.656 488.452 180.596 492.02 174.85 494.681M183.518 479.211C185.938 474.877 188.912 474.905 192.625 477.78M183.518 479.211L179.289 482.756L173.743 494.374L174.85 494.681M174.85 494.681L180.305 497.407M192.625 477.78C192.98 478.055 192.277 477.822 192.667 478.159C194.081 480.464 192.192 484.255 180.875 497.67L180.305 497.407M192.625 477.78L180.305 497.407" stroke="black" stroke-width="0.666667"/>
<path d="M180.308 480.985C138.756 470.487 105.485 467.195 62.1776 465.411C58.7554 487.062 62.1413 492.978 82.5054 482.063C115.689 481.295 143.04 487.165 175.392 495.546C174.747 489.326 176.279 486.232 180.308 480.985Z" fill="white"/>
<path d="M89.7859 477.891C87.1484 479.483 84.7259 480.873 82.5054 482.063M82.5054 482.063C62.1413 492.978 58.7554 487.062 62.1776 465.411C105.485 467.195 138.756 470.487 180.308 480.985C176.279 486.232 174.747 489.326 175.392 495.546C143.04 487.165 115.689 481.295 82.5054 482.063Z" stroke="black" stroke-width="2.66667"/>
<path d="M61.719 465.042C56.7988 469.369 53.3522 442.27 51.8262 434.097L50.7564 467.18C53.0944 477.019 55.068 480.233 59.7258 481.98C60.1439 482.264 59.4087 482.173 59.7258 481.009C58.3078 475.278 60.2347 467.145 61.719 465.042Z" fill="url(#paint0_linear_290_3101)"/>
<path d="M96.307 469.49C95.6169 466.388 66.6391 460.714 61.719 465.042C60.2347 467.145 58.3078 475.278 59.7258 481.009C59.898 485.529 62.298 486.628 66.343 488.139C80.9179 490.409 88.5607 479.208 102.439 465.042L114.187 496.277C121.306 494.761 125.297 494.978 132.416 496.277C132.416 496.277 122.16 461.293 114.295 445.188C112.136 440.767 110.158 437.769 108.621 437.307C101.486 435.162 89.2701 447.559 89.2701 447.559C89.6311 448.294 90.1893 450.336 90.7003 452.204C91.0633 453.532 91.4025 454.772 91.6302 455.395C93.3679 460.15 96.9971 472.592 96.307 469.49Z" fill="white"/>
<path fill-rule="evenodd" clip-rule="evenodd" d="M76.0391 416.538C78.874 417.177 81.5803 417.816 85.1092 418.668L104.909 430.613C104.909 430.613 141.503 417.61 142.802 417.11C144.102 416.61 151.201 442.406 150.001 442.406C149.762 442.406 149.234 442.192 148.464 441.881C145.381 440.634 138.403 437.811 130.405 440.806C123.777 443.639 119.153 445.102 114.295 445.188C112.136 440.767 110.158 437.769 108.621 437.307C101.486 435.162 89.2701 447.559 89.2701 447.559C89.6311 448.294 90.1893 450.336 90.7003 452.204C91.0633 453.532 91.4025 454.772 91.6302 455.395C93.3679 460.15 96.9971 472.592 96.307 469.49C95.6169 466.388 66.6391 460.714 61.719 465.042C56.7988 469.369 53.3522 442.27 51.8262 434.097C51.5178 432.445 51.3446 431.448 51.3446 431.448C49.386 423.454 49.4725 420.827 51.6509 419.304C52.9945 418.595 54.1259 418.053 55.4218 417.609L72.2472 436.752L76.0391 416.538Z" fill="url(#paint1_linear_290_3101)"/>
<path d="M68.1975 422.799L61.4615 416.314C58.7745 416.683 56.9793 417.075 55.4218 417.609L72.2472 436.752L76.0391 416.538C73.693 416.008 71.2588 415.478 68.1975 414.825V422.799Z" fill="white"/>
<path d="M69.7503 411.718C85.4588 417.426 91.362 416.11 96.307 405.076C98.3923 393.628 97.8551 385.866 94.209 371.181C89.9881 371.238 87.9538 370.434 85.1092 367.024C82.6777 372.054 81.1318 371.799 78.3648 371.181C71.977 373.813 69.5336 373.49 66.2703 371.181C63.8992 374.036 61.9621 375.151 58.381 377.039C58.0516 378.742 57.7419 380.577 57.4415 382.55C53.2853 383.45 52.4868 384.816 52.2654 387.93C52.0191 391.557 53.3342 393.283 59.1751 395.624C58.9219 397.583 59.239 398.681 60.506 400.637C60.3171 402.421 60.6558 403.434 61.4615 405.245V416.314L68.1975 422.799V414.825V410.266C68.4148 410.922 68.8478 411.385 69.7503 411.718Z" fill="#FFE0B4"/>
<path d="M58.381 377.039C61.9621 375.151 63.8992 374.036 66.2703 371.181C69.5336 373.49 71.977 373.813 78.3648 371.181C81.1318 371.799 82.6777 372.054 85.1092 367.024C87.9538 370.434 89.9881 371.238 94.209 371.181C94.0452 370.522 93.8752 369.848 93.6989 369.16C89.9833 360.879 87.334 356.861 74.5264 358.621L75.508 353.282C72.1558 350.481 70.7143 351.251 68.4346 354.18L70.9047 359.008C61.1779 360.642 59.6424 365.939 58.381 377.039Z" fill="black"/>
<path d="M68.1975 410.266C68.4148 410.922 68.8478 411.385 69.7503 411.718C85.4588 417.426 91.362 416.11 96.307 405.076C98.3923 393.628 97.8551 385.866 94.209 371.181M68.1975 410.266C68.009 409.696 67.983 408.982 67.9537 408.081M68.1975 410.266V414.825M68.1975 414.825V422.799L61.4615 416.314M68.1975 414.825C71.2588 415.478 73.693 416.008 76.0391 416.538M61.4615 416.314V405.245C60.6558 403.434 60.3171 402.421 60.506 400.637C59.239 398.681 58.9219 397.583 59.1751 395.624C53.3342 393.283 52.0191 391.557 52.2654 387.93C52.4868 384.816 53.2853 383.45 57.4415 382.55C57.7419 380.577 58.0516 378.742 58.381 377.039M61.4615 416.314C58.7745 416.683 56.9793 417.075 55.4218 417.609M61.719 465.042C66.6391 460.714 95.6169 466.388 96.307 469.49C96.9971 472.592 93.3679 460.15 91.6302 455.395C91.4025 454.772 91.0633 453.532 90.7003 452.204C90.1893 450.336 89.6311 448.294 89.2701 447.559M61.719 465.042C56.7988 469.369 53.3522 442.27 51.8262 434.097M61.719 465.042C60.2347 467.145 58.3078 475.278 59.7258 481.009M62.0417 430.613L64.6114 438.718L66.343 451.169C66.343 451.169 83.1923 449.459 86.2961 447.559C87.3094 446.939 88.0223 445.016 89.2701 447.559M51.8262 434.097C51.5178 432.445 51.3446 431.448 51.3446 431.448C49.386 423.454 49.4725 420.827 51.6509 419.304C52.9945 418.595 54.1259 418.053 55.4218 417.609M51.8262 434.097L50.7564 467.18C53.0944 477.019 55.068 480.233 59.7258 481.98C60.1439 482.264 59.4087 482.173 59.7258 481.009M59.7258 481.009C59.898 485.529 62.298 486.628 66.343 488.139C80.9179 490.409 88.5607 479.208 102.439 465.042L114.187 496.277C121.306 494.761 125.297 494.978 132.416 496.277C132.416 496.277 122.16 461.293 114.295 445.188M89.2701 447.559C89.2701 447.559 101.486 435.162 108.621 437.307C110.158 437.769 112.136 440.767 114.295 445.188M114.295 445.188C119.153 445.102 123.777 443.639 130.405 440.806C138.403 437.811 145.381 440.634 148.464 441.881C149.234 442.192 149.762 442.406 150.001 442.406C151.201 442.406 144.102 416.61 142.802 417.11C141.503 417.61 104.909 430.613 104.909 430.613L85.1092 418.668C81.5803 417.816 78.874 417.177 76.0391 416.538M96.307 440.806C85.739 438.92 82.2824 435.403 78.063 427.191M55.4218 417.609L72.2472 436.752L76.0391 416.538M58.381 377.039C61.9621 375.151 63.8992 374.036 66.2703 371.181C69.5336 373.49 71.977 373.813 78.3648 371.181C81.1318 371.799 82.6777 372.054 85.1092 367.024C87.9538 370.434 89.9881 371.238 94.209 371.181M58.381 377.039C59.6423 365.939 61.1779 360.642 70.9047 359.008L68.4346 354.18C70.7143 351.251 72.1558 350.481 75.508 353.282L74.5264 358.621C87.334 356.861 89.9833 360.879 93.6989 369.16C93.8752 369.848 94.0452 370.522 94.209 371.181" stroke="black" stroke-width="2.66667"/>
<path d="M144.509 419.722C147.638 416.565 149.175 414.652 153.191 412.084C154.031 411.587 154.407 411.396 154.482 411.603C155.165 411.97 155.798 412.518 156.401 413.387C157.187 414.67 156.284 415.822 154.422 417.465L154.427 418.718C161.74 415.473 166.266 414.666 166.959 416.693C167.064 418.394 165.889 419.512 164.042 420.313C166.214 419.779 167.764 419.648 167.705 420.937C167.517 422.872 166.585 424.037 164.984 424.735C165.891 424.751 166.567 424.986 166.909 425.616C166.049 430.538 162.65 429.834 156.552 428.535C160.265 430.168 163.768 431.251 162.644 432.562C159.155 434.79 157.066 434.34 153.069 430.111C151.385 431.042 150.19 430.774 147.855 429.653L144.509 419.722Z" fill="#FFE0B4"/>
<path d="M154.422 417.465C156.284 415.822 157.187 414.67 156.401 413.387C155.798 412.518 155.165 411.97 154.482 411.603C154.407 411.396 154.031 411.587 153.191 412.084C149.175 414.652 147.638 416.565 144.509 419.722L147.855 429.653C150.19 430.774 151.385 431.042 153.069 430.111C157.066 434.34 159.155 434.79 162.644 432.562C163.768 431.251 160.265 430.168 156.552 428.535C162.65 429.834 166.049 430.538 166.909 425.616C166.567 424.986 165.891 424.751 164.984 424.735M154.422 417.465C153.902 417.924 153.023 418.29 152.369 418.839C151.945 423.615 151.817 425.485 152.107 425.008C153.631 423.807 154.273 422.903 154.833 420.653L154.427 418.718M154.422 417.465L154.427 418.718M154.427 418.718C161.74 415.473 166.266 414.666 166.959 416.693C167.064 418.394 165.889 419.512 164.042 420.313M164.042 420.313C162.405 421.024 160.24 421.485 157.97 421.885C160.049 421.465 162.256 420.753 164.042 420.313ZM164.042 420.313C166.214 419.779 167.764 419.648 167.705 420.937C167.517 422.872 166.585 424.037 164.984 424.735M164.984 424.735C163.409 425.422 161.188 425.656 158.393 425.728C160.94 425.389 163.341 424.704 164.984 424.735Z" stroke="black" stroke-width="2.66667"/>
<path d="M167.484 442.816C175.097 441.319 181.714 437.312 185.901 431.664C190.087 426.016 191.505 419.182 189.847 412.644C188.19 406.106 183.59 400.392 177.046 396.739C170.501 393.087 162.54 391.791 154.888 393.133L158.412 407.876C161.535 407.329 164.783 407.857 167.454 409.348C170.124 410.838 172.001 413.17 172.678 415.837C173.354 418.505 172.775 421.294 171.067 423.599C169.359 425.903 166.659 427.538 163.552 428.149L167.484 442.816Z" fill="#F8F8CC"/>
<path d="M159.836 417.028L166.432 415.634L166.623 416.538L166.171 416.635L159.963 417.947L166.653 422.127L166.163 422.911L159.416 418.695L160.82 425.481L159.914 425.669L156.762 410.434L156.668 409.982L157.574 409.795L158.987 416.622L163.485 410.511L164.229 411.059L159.836 417.028Z" fill="#9A9A9A"/>
<path d="M93.2522 458.335L90.2494 448.36C91.1877 445.279 91.7368 443.661 93.0917 442.546C95.2211 441.39 96.2301 441.189 97.5261 442.048C99.5068 443.527 98.5996 445.305 96.4926 448.706C101.901 444.229 105.628 440.047 108.207 442.387C109.073 443.227 106.535 445.89 103.801 449.34C106.377 447.083 107.839 445.464 110.134 448.873C110.119 450.505 108.044 451.191 105.302 452.521C108.67 451.311 110.44 450.827 111.687 453.075C111.413 454.79 109.929 455.682 106.181 457.214C109.822 455.799 111.665 455.323 113.216 457.258C113.156 458.399 111.043 459.708 107.305 462.026L107.25 462.059C101.917 459.86 98.8414 459.106 93.2522 458.335Z" fill="#FFE0B4" stroke="black" stroke-width="2.66667"/>
<path d="M80.6056 390.008C80.8181 391.465 79.809 392.819 78.3516 393.031C76.8943 393.244 75.5406 392.235 75.3281 390.777C75.1156 389.32 76.1248 387.966 77.5821 387.754C79.0395 387.541 80.3931 388.55 80.6056 390.008Z" fill="black"/>
<path d="M92.8605 388.853C93.073 390.311 92.0639 391.664 90.6065 391.877C89.1492 392.089 87.7955 391.08 87.583 389.623C87.3705 388.166 88.3797 386.812 89.837 386.599C91.2944 386.387 92.648 387.396 92.8605 388.853Z" fill="black"/>
<path d="M80.2208 400.161C85.6954 402.436 88.4434 401.957 92.8738 398.531" stroke="black" stroke-width="2" stroke-linecap="round"/>
<path d="M86.6515 404.685C87.8369 405.223 88.4563 405.149 89.4627 404.195" stroke="black" stroke-width="1.33333" stroke-linecap="round"/>
<path d="M80.7928 385.278C77.6464 384.8 75.9716 384.84 73.3658 386.233" stroke="black" stroke-width="2" stroke-linecap="round"/>
<path d="M93.2451 384.555C90.1769 383.933 88.6059 384.049 86.0996 385.138" stroke="black" stroke-width="2" stroke-linecap="round"/>
<path d="M123.49 364.819L30.6689 371.561L61.0357 360.582L62.7995 339.728L82.3266 337.57L88.7931 358.25L123.49 364.819Z" fill="black" stroke="black" stroke-width="2.66667" stroke-linecap="square"/>
<path d="M58.7239 374.992L59.4831 370.437L92.9841 367.874L94.2178 372.62L58.7239 374.992Z" fill="#D9D9D9" stroke="black" stroke-width="2.66667" stroke-linecap="square"/>
<path d="M93.336 372.574C96.045 384.453 97.2449 393.219 96.3555 400.718C95.6478 406.685 93.6209 411.816 90.0469 417.056C92.1621 418.17 94.262 418.984 96.2943 419.429C102.513 420.786 105.699 422.118 111.178 424.718L111.781 425.003L111.21 426.208L110.607 425.922C105.519 423.509 102.489 422.226 97.1166 420.981L96.0092 420.732C93.7947 420.247 91.5317 419.357 89.2761 418.156C88.5744 419.129 87.8195 420.109 87.0092 421.1C86.8136 422.025 87.0022 422.754 87.53 423.408C88.1182 424.136 89.1641 424.815 90.7435 425.471C93.9015 426.784 98.835 427.871 105.386 429.27L106.038 429.41L105.76 430.714L105.108 430.574C98.6089 429.186 93.5309 428.073 90.2325 426.703C88.5839 426.018 87.2903 425.234 86.4922 424.246C85.6599 423.215 85.407 422.011 85.7461 420.641L85.7826 420.495L85.8783 420.378C86.6748 419.408 87.4146 418.451 88.1023 417.503C86.0823 416.33 84.0762 414.919 82.1257 413.334C77.6167 409.671 73.3625 405.051 69.8601 400.223C66.3596 395.397 63.5914 390.338 62.0762 385.788C60.5736 381.275 60.2502 377.101 61.8894 374.179L62.2155 373.598L63.3783 374.25L63.0521 374.832C61.7 377.241 61.8681 380.943 63.3412 385.367C64.8019 389.753 67.494 394.691 70.9388 399.44C74.3817 404.186 78.5582 408.718 82.9662 412.299C84.9121 413.88 86.8955 415.269 88.8737 416.409C92.3926 411.278 94.3485 406.319 95.0313 400.561C95.8921 393.303 94.7396 384.727 92.0358 372.871L93.336 372.574ZM93.336 372.574L92.0358 372.871L91.8881 372.22L93.1875 371.924L93.336 372.574Z" fill="black"/>
</g>
<defs>
<linearGradient id="paint0_linear_290_3101" x1="100.04" y1="351.537" x2="100.04" y2="496.277" gradientUnits="userSpaceOnUse">
<stop stop-color="#B2EDFF"/>
<stop offset="1" stop-color="#008CB6"/>
</linearGradient>
<linearGradient id="paint1_linear_290_3101" x1="100.04" y1="351.537" x2="100.04" y2="496.277" gradientUnits="userSpaceOnUse">
<stop stop-color="#B2EDFF"/>
<stop offset="1" stop-color="#008CB6"/>
</linearGradient>
<clipPath id="clip0_290_3101">
<rect width="390" height="781" fill="white" transform="translate(0.000244141 0.5)"/>
</clipPath>
</defs>
</svg>
