<svg width="390" height="782" viewBox="0 0 390 782" fill="none" xmlns="http://www.w3.org/2000/svg">
<g clip-path="url(#clip0_244_2203)">
<rect width="390" height="781" transform="translate(0 0.5)" fill="white"/>
<rect y="451.5" width="390" height="330" fill="#DED0B6"/>
<rect y="0.5" width="390" height="451" fill="#DDEBF6"/>
<ellipse cx="86.7257" cy="486.858" rx="55.757" ry="20.9595" fill="black" fill-opacity="0.1"/>
<ellipse cx="252.845" cy="564.705" rx="10" ry="5" fill="black" fill-opacity="0.1"/>
<ellipse cx="194.199" cy="593.568" rx="10" ry="5" fill="black" fill-opacity="0.1"/>
<ellipse cx="264.611" cy="593.568" rx="10" ry="5" fill="black" fill-opacity="0.1"/>
<ellipse cx="366.47" cy="534.639" rx="10" ry="5" fill="black" fill-opacity="0.1"/>
<ellipse cx="57.3906" cy="583.568" rx="10" ry="5" fill="black" fill-opacity="0.1"/>
<path d="M220.552 169.17C221.791 168.371 233.956 167.788 240.03 167.644C240.03 165.559 240.468 161.785 240.617 160.326C241.055 158.001 241.641 156.538 242.149 155.374C244.146 151.397 247.296 144.967 251.282 143.697C255.838 142.245 262.195 142.66 267.747 144.084C275.991 146.199 283.95 147.917 287.193 150.283C288.787 151.446 289.57 152.305 290.396 152.021C290.836 151.87 291.333 151.482 291.635 150.997C292.728 149.243 292.902 145.659 297.922 144.794C302.546 143.997 307.972 144.22 309.738 145.462C312.451 147.369 315.622 149.504 318.205 153.425C320.176 156.416 320.391 160.165 322.747 160.348C326.469 160.637 330.901 159.882 333.241 161.664C335.354 163.273 337.22 164.749 337.688 166.998C338.559 171.182 338.733 179.636 335.853 181.589C334.023 182.83 318.952 178.715 318.267 184.593C317.978 187.074 317.976 189.331 317.389 190.349C317.093 190.862 316.716 191.377 315.252 192.331C308.326 196.844 304.75 198.433 301.615 197.711C297.816 196.835 294.724 194.871 285.918 192.237C284.25 191.738 283.744 192.136 283.525 192.686C283.09 193.778 282.363 194.528 281.55 195.534C279.433 198.157 277.665 200.026 275.42 200.491C271.218 201.363 263.889 201.369 261.181 199.309C257.538 196.537 256.611 193.481 254.037 192.239C253.596 192.027 253.163 192.316 252.723 192.609C250.969 193.778 247.827 196.226 243.654 196.036C235.458 195.661 226.672 194.831 223.157 190.036C220.315 186.159 215.286 172.566 220.552 169.17Z" fill="white" stroke="white" stroke-width="2.70914" stroke-linecap="round"/>
<path d="M57.0928 213.917C58.3321 213.118 70.4972 212.536 76.571 212.391C76.571 210.307 77.0089 206.532 77.1578 205.074C77.5957 202.749 78.1825 201.286 78.6905 200.121C80.6873 196.145 83.837 189.714 87.8231 188.444C92.3795 186.993 98.7361 187.407 104.288 188.832C112.532 190.947 120.491 192.665 123.734 195.03C125.328 196.193 126.111 197.053 126.937 196.769C127.377 196.618 127.874 196.23 128.176 195.744C129.269 193.99 129.443 190.406 134.463 189.541C139.087 188.744 144.513 188.967 146.28 190.209C148.992 192.116 152.163 194.252 154.746 198.172C156.717 201.163 156.932 204.913 159.288 205.096C163.01 205.385 167.442 204.629 169.782 206.412C171.895 208.021 173.761 209.497 174.229 211.745C175.1 215.93 175.274 224.383 172.394 226.337C170.564 227.578 155.493 223.463 154.808 229.341C154.519 231.821 154.517 234.078 153.93 235.097C153.634 235.609 153.257 236.124 151.793 237.078C144.867 241.591 141.291 243.181 138.156 242.458C134.357 241.582 131.265 239.619 122.459 236.984C120.791 236.485 120.285 236.884 120.066 237.433C119.631 238.526 118.904 239.275 118.091 240.282C115.974 242.905 114.206 244.773 111.961 245.239C107.759 246.11 100.43 246.117 97.722 244.057C94.0786 241.285 93.152 238.229 90.5775 236.986C90.1374 236.774 89.7039 237.063 89.2638 237.357C87.51 238.526 84.3685 240.974 80.1947 240.783C71.9992 240.409 63.2125 239.579 59.6984 234.784C56.8564 230.906 51.8269 217.313 57.0928 213.917Z" fill="white" stroke="white" stroke-width="2.70914" stroke-linecap="round"/>
<path d="M345.251 301.432C340.5 295.332 340.362 291.533 341.946 285.002C342.038 284.625 341.72 284.27 341.335 284.312C300.592 288.738 279.817 294.117 244.55 287.665C244.215 287.604 243.895 287.854 243.885 288.195L242.877 322.731C242.868 323.044 243.119 323.303 243.432 323.303H276.602H375.487C375.584 323.303 375.679 323.278 375.763 323.23L379.556 321.063C379.892 320.87 379.933 320.401 379.636 320.153L376.74 317.74C376.497 317.538 376.473 317.174 376.68 316.935C378.533 314.794 378.851 313.517 377.565 311.598C377.476 311.466 377.33 311.383 377.172 311.365C363.433 309.857 356.199 308.064 345.403 301.567C345.346 301.532 345.292 301.485 345.251 301.432Z" fill="#475275"/>
<path d="M140.47 301.432C145.221 295.332 145.359 291.533 143.774 285.002C143.683 284.625 144.001 284.27 144.385 284.312C185.128 288.738 205.904 294.117 241.171 287.665C241.506 287.604 241.825 287.854 241.835 288.195L242.844 322.731C242.853 323.044 242.602 323.303 242.288 323.303H209.118H110.233C110.137 323.303 110.042 323.278 109.958 323.23L106.165 321.063C105.829 320.87 105.787 320.401 106.085 320.153L108.981 317.74C109.224 317.538 109.248 317.174 109.041 316.935C107.188 314.794 106.869 313.517 108.156 311.598C108.244 311.466 108.391 311.383 108.549 311.365C122.288 309.857 129.522 308.064 140.317 301.567C140.375 301.532 140.428 301.485 140.47 301.432Z" fill="#475275"/>
<rect y="417.448" width="392.845" height="34.0525" fill="#C1B79B"/>
<rect y="409.133" width="392.845" height="8.31453" fill="#EAE1D0"/>
<rect x="215.924" y="329.437" width="53.8437" height="79.6958" fill="#491A10"/>
<rect width="53.8437" height="5.90085" transform="matrix(1 0 0 -1 215.924 329.437)" fill="#854738"/>
<path d="M274.641 409.133H269.797V324.016H215.923V409.133H211.08V319.172H274.641V409.133Z" fill="#953328"/>
<rect x="274.64" y="338.273" width="31.1364" height="51.5179" fill="#491A10"/>
<rect x="312.031" y="353.026" width="36.0864" height="56.1078" fill="#C6B490"/>
<rect x="312.031" y="338.273" width="36.0864" height="10.7168" fill="#883225"/>
<rect x="274.64" y="389.791" width="31.1364" height="19.343" fill="#953328"/>
<rect x="312.031" y="338.273" width="70.8608" height="6.25417" transform="rotate(90 312.031 338.273)" fill="#953328"/>
<rect x="274.64" y="334.237" width="73.477" height="4.03617" fill="#953328"/>
<rect x="312.031" y="348.99" width="36.0864" height="4.03617" fill="#953328"/>
<rect x="355.081" y="334.237" width="70.3071" height="6.96403" transform="rotate(90 355.081 334.237)" fill="#953328"/>
<rect x="346.258" y="404.544" width="10.6823" height="4.58998" fill="#A6A7AB"/>
<path d="M355.509 327.856H365.312L355.509 334.237H274.64V327.783H355.509V327.856Z" fill="#385B3D"/>
<path d="M274.682 306.433H282.391L274.681 312.813H211.08V312.789L211.05 312.814L203.274 306.433H211.08V306.36H274.682V306.433Z" fill="#385B3D"/>
<rect x="211.08" y="312.814" width="63.5604" height="6.45391" fill="#4A6A54"/>
<rect x="274.64" y="323.304" width="98.8999" height="4.47917" fill="#46634D"/>
<rect width="31.1364" height="51.5179" transform="matrix(-1 0 0 1 211.05 338.272)" fill="#491A10"/>
<rect width="36.0864" height="56.1078" transform="matrix(-1 0 0 1 173.659 353.025)" fill="#C6B490"/>
<rect width="36.0864" height="10.7168" transform="matrix(-1 0 0 1 173.659 338.272)" fill="#883225"/>
<rect width="31.1364" height="19.343" transform="matrix(-1 0 0 1 211.05 389.79)" fill="#953328"/>
<rect width="70.8608" height="6.25417" transform="matrix(0 1 1 0 173.659 338.272)" fill="#953328"/>
<rect width="73.477" height="4.03617" transform="matrix(-1 0 0 1 211.05 334.236)" fill="#953328"/>
<rect width="36.0864" height="4.03617" transform="matrix(-1 0 0 1 173.659 348.989)" fill="#953328"/>
<rect width="70.3071" height="6.96403" transform="matrix(0 1 1 0 130.609 334.236)" fill="#953328"/>
<rect width="10.6823" height="4.58998" transform="matrix(-1 0 0 1 139.432 404.543)" fill="#A6A7AB"/>
<path d="M130.181 327.855H120.378L130.181 334.236H211.05V327.782H130.181V327.855Z" fill="#385B3D"/>
<rect width="98.8999" height="4.47917" transform="matrix(-1 0 0 1 211.05 323.303)" fill="#46634D"/>
<rect x="207.733" y="404.544" width="10.6823" height="4.58889" fill="#A6A7AB"/>
<rect x="267.492" y="404.544" width="10.6823" height="4.58889" fill="#A6A7AB"/>
<path d="M277.315 282.163C250.658 286.696 236.057 286.555 210.542 282.163C209.796 283.223 209.74 283.823 211.486 284.924C209.448 294.461 206.944 299.078 201.099 306.574C233.861 310.681 252.144 310.501 284.621 306.574C280.444 298.901 278.137 294.576 276.912 284.924C277.777 283.717 278.052 283.078 277.315 282.163Z" fill="#464E72"/>
</g>
<defs>
<clipPath id="clip0_244_2203">
<rect width="390" height="781" fill="white" transform="translate(0 0.5)"/>
</clipPath>
</defs>
</svg>
