<svg width="391" height="782" viewBox="0 0 391 782" fill="none" xmlns="http://www.w3.org/2000/svg">
<g clip-path="url(#clip0_244_2203)">
<rect width="390" height="781" transform="translate(0.390625 0.5)" fill="white"/>
<rect x="0.390625" y="451.5" width="390" height="330" fill="#DED0B6"/>
<rect x="0.390625" y="0.5" width="390" height="451" fill="#DDEBF6"/>
<ellipse cx="87.1163" cy="486.858" rx="55.757" ry="20.9595" fill="black" fill-opacity="0.1"/>
<ellipse cx="253.236" cy="564.705" rx="10" ry="5" fill="black" fill-opacity="0.1"/>
<ellipse cx="194.589" cy="593.568" rx="10" ry="5" fill="black" fill-opacity="0.1"/>
<ellipse cx="265.001" cy="593.568" rx="10" ry="5" fill="black" fill-opacity="0.1"/>
<ellipse cx="366.86" cy="534.639" rx="10" ry="5" fill="black" fill-opacity="0.1"/>
<ellipse cx="57.7812" cy="583.568" rx="10" ry="5" fill="black" fill-opacity="0.1"/>
<path d="M220.942 169.17C222.182 168.371 234.347 167.788 240.421 167.644C240.421 165.559 240.859 161.785 241.007 160.326C241.445 158.001 242.032 156.538 242.54 155.374C244.537 151.397 247.687 144.967 251.673 143.697C256.229 142.245 262.586 142.66 268.138 144.084C276.382 146.199 284.34 147.917 287.583 150.283C289.177 151.446 289.96 152.305 290.787 152.021C291.227 151.87 291.723 151.482 292.026 150.997C293.119 149.243 293.293 145.659 298.312 144.794C302.936 143.997 308.363 144.22 310.129 145.462C312.842 147.369 316.013 149.504 318.596 153.425C320.567 156.416 320.781 160.165 323.137 160.348C326.859 160.637 331.292 159.882 333.632 161.664C335.745 163.273 337.61 164.749 338.079 166.998C338.95 171.182 339.124 179.636 336.244 181.589C334.413 182.83 319.342 178.715 318.657 184.593C318.368 187.074 318.367 189.331 317.779 190.349C317.484 190.862 317.107 191.377 315.642 192.331C308.717 196.844 305.14 198.433 302.006 197.711C298.207 196.835 295.114 194.871 286.309 192.237C284.641 191.738 284.135 192.136 283.916 192.686C283.48 193.778 282.753 194.528 281.941 195.534C279.824 198.157 278.056 200.026 275.81 200.491C271.608 201.363 264.279 201.369 261.572 199.309C257.928 196.537 257.002 193.481 254.427 192.239C253.987 192.027 253.554 192.316 253.113 192.609C251.36 193.778 248.218 196.226 244.044 196.036C235.849 195.661 227.062 194.831 223.548 190.036C220.706 186.159 215.677 172.566 220.942 169.17Z" fill="white" stroke="white" stroke-width="2.70914" stroke-linecap="round"/>
<path d="M57.4834 213.917C58.7227 213.118 70.8878 212.536 76.9616 212.391C76.9616 210.307 77.3995 206.532 77.5484 205.074C77.9863 202.749 78.5731 201.286 79.0811 200.121C81.078 196.145 84.2276 189.714 88.2137 188.444C92.7701 186.993 99.1267 187.407 104.679 188.832C112.923 190.947 120.881 192.665 124.124 195.03C125.718 196.193 126.501 197.053 127.328 196.769C127.768 196.618 128.264 196.23 128.567 195.744C129.66 193.99 129.834 190.406 134.853 189.541C139.477 188.744 144.904 188.967 146.67 190.209C149.383 192.116 152.554 194.252 155.137 198.172C157.108 201.163 157.322 204.913 159.678 205.096C163.4 205.385 167.833 204.629 170.173 206.412C172.286 208.021 174.151 209.497 174.62 211.745C175.491 215.93 175.665 224.383 172.785 226.337C170.954 227.578 155.883 223.463 155.198 229.341C154.909 231.821 154.908 234.078 154.32 235.097C154.025 235.609 153.648 236.124 152.183 237.078C145.258 241.591 141.681 243.181 138.547 242.458C134.748 241.582 131.655 239.619 122.85 236.984C121.182 236.485 120.676 236.884 120.457 237.433C120.021 238.526 119.295 239.275 118.482 240.282C116.365 242.905 114.597 244.773 112.351 245.239C108.149 246.11 100.82 246.117 98.1126 244.057C94.4692 241.285 93.5427 238.229 90.9681 236.987C90.528 236.774 90.0945 237.063 89.6544 237.357C87.9006 238.526 84.7591 240.974 80.5853 240.783C72.3899 240.409 63.6032 239.579 60.089 234.784C57.247 230.906 52.2176 217.313 57.4834 213.917Z" fill="white" stroke="white" stroke-width="2.70914" stroke-linecap="round"/>
<path d="M345.641 301.432C340.891 295.332 340.753 291.533 342.337 285.002C342.428 284.625 342.111 284.27 341.726 284.312C300.983 288.738 280.207 294.117 244.941 287.665C244.605 287.604 244.286 287.854 244.276 288.195L243.268 322.731C243.259 323.044 243.51 323.303 243.823 323.303H276.993H375.878C375.975 323.303 376.07 323.278 376.154 323.23L379.946 321.063C380.283 320.87 380.324 320.402 380.026 320.153L377.13 317.74C376.888 317.538 376.863 317.174 377.07 316.935C378.923 314.794 379.242 313.517 377.955 311.598C377.867 311.466 377.72 311.383 377.563 311.365C363.824 309.857 356.589 308.064 345.794 301.567C345.736 301.532 345.683 301.485 345.641 301.432Z" fill="#475275"/>
<path d="M140.86 301.432C145.611 295.332 145.749 291.533 144.165 285.002C144.074 284.625 144.391 284.27 144.776 284.312C185.519 288.738 206.295 294.117 241.561 287.665C241.897 287.604 242.216 287.854 242.226 288.195L243.234 322.731C243.243 323.044 242.992 323.303 242.679 323.303H209.509H110.624C110.527 323.303 110.432 323.278 110.348 323.23L106.556 321.063C106.219 320.87 106.178 320.402 106.476 320.153L109.372 317.74C109.614 317.538 109.639 317.174 109.432 316.935C107.579 314.794 107.26 313.517 108.547 311.598C108.635 311.466 108.782 311.383 108.939 311.365C122.678 309.857 129.913 308.064 140.708 301.567C140.766 301.532 140.819 301.485 140.86 301.432Z" fill="#475275"/>
<rect x="0.390625" y="417.448" width="392.845" height="34.0525" fill="#C1B79B"/>
<rect x="0.390625" y="409.133" width="392.845" height="8.31453" fill="#EAE1D0"/>
<rect x="216.314" y="329.437" width="53.8437" height="79.6958" fill="#491A10"/>
<rect width="53.8437" height="5.90085" transform="matrix(1 0 0 -1 216.314 329.437)" fill="#854738"/>
<path d="M275.031 409.133H270.188V324.016H216.313V409.133H211.471V319.172H275.031V409.133Z" fill="#953328"/>
<rect x="275.031" y="338.273" width="31.1364" height="51.5179" fill="#491A10"/>
<rect x="312.421" y="353.026" width="36.0864" height="56.1078" fill="#C6B490"/>
<rect x="312.421" y="338.273" width="36.0864" height="10.7168" fill="#883225"/>
<rect x="275.031" y="389.791" width="31.1364" height="19.343" fill="#953328"/>
<rect x="312.421" y="338.273" width="70.8608" height="6.25417" transform="rotate(90 312.421 338.273)" fill="#953328"/>
<rect x="275.031" y="334.237" width="73.477" height="4.03617" fill="#953328"/>
<rect x="312.421" y="348.99" width="36.0864" height="4.03617" fill="#953328"/>
<rect x="355.472" y="334.237" width="70.3071" height="6.96403" transform="rotate(90 355.472 334.237)" fill="#953328"/>
<rect x="346.648" y="404.544" width="10.6823" height="4.58998" fill="#A6A7AB"/>
<path d="M355.9 327.856H365.703L355.9 334.237H275.031V327.783H355.9V327.856Z" fill="#385B3D"/>
<path d="M275.072 306.433H282.781L275.071 312.813H211.471V312.789L211.44 312.814L203.665 306.433H211.471V306.36H275.072V306.433Z" fill="#385B3D"/>
<rect x="211.471" y="312.814" width="63.5604" height="6.45391" fill="#4A6A54"/>
<rect x="275.031" y="323.304" width="98.8999" height="4.47917" fill="#46634D"/>
<rect width="31.1364" height="51.5179" transform="matrix(-1 0 0 1 211.44 338.272)" fill="#491A10"/>
<rect width="36.0864" height="56.1078" transform="matrix(-1 0 0 1 174.05 353.025)" fill="#C6B490"/>
<rect width="36.0864" height="10.7168" transform="matrix(-1 0 0 1 174.05 338.272)" fill="#883225"/>
<rect width="31.1364" height="19.343" transform="matrix(-1 0 0 1 211.44 389.79)" fill="#953328"/>
<rect width="70.8608" height="6.25417" transform="matrix(0 1 1 0 174.05 338.272)" fill="#953328"/>
<rect width="73.477" height="4.03617" transform="matrix(-1 0 0 1 211.44 334.236)" fill="#953328"/>
<rect width="36.0864" height="4.03617" transform="matrix(-1 0 0 1 174.05 348.989)" fill="#953328"/>
<rect width="70.3071" height="6.96403" transform="matrix(0 1 1 0 131 334.236)" fill="#953328"/>
<rect width="10.6823" height="4.58998" transform="matrix(-1 0 0 1 139.822 404.543)" fill="#A6A7AB"/>
<path d="M130.571 327.855H120.769L130.571 334.236H211.44V327.782H130.571V327.855Z" fill="#385B3D"/>
<rect width="98.8999" height="4.47917" transform="matrix(-1 0 0 1 211.44 323.303)" fill="#46634D"/>
<rect x="208.124" y="404.544" width="10.6823" height="4.58889" fill="#A6A7AB"/>
<rect x="267.883" y="404.544" width="10.6823" height="4.58889" fill="#A6A7AB"/>
<path d="M277.706 282.163C251.048 286.696 236.448 286.555 210.932 282.163C210.187 283.223 210.13 283.823 211.877 284.924C209.839 294.461 207.335 299.078 201.49 306.574C234.252 310.681 252.535 310.501 285.012 306.574C280.834 298.901 278.528 294.576 277.303 284.924C278.167 283.717 278.443 283.078 277.706 282.163Z" fill="#464E72"/>
<g clip-path="url(#clip1_244_2203)">
<path d="M91.2937 493.173H108.125C108.125 493.173 112.412 493.173 112.036 489.678C109.215 483.928 104.673 484.693 91.2937 493.173Z" fill="#414143"/>
<path d="M87.3389 478.366V489.678L91.2937 493.173C104.673 484.693 109.215 483.928 112.036 489.678C111.856 488.003 110.605 485.526 107.297 481.861C107.297 481.861 101.33 481.861 101.559 478.366V469.537H87.3389V478.366Z" fill="#222021"/>
<path d="M91.2937 493.173L87.3389 489.678V478.366V469.537H101.559V478.366C101.33 481.861 107.297 481.861 107.297 481.861C110.605 485.526 111.856 488.003 112.036 489.678M91.2937 493.173H108.125C108.125 493.173 112.412 493.173 112.036 489.678M91.2937 493.173C104.673 484.693 109.215 483.928 112.036 489.678" stroke="black" stroke-width="2.66667"/>
<path d="M64.6653 493.173H81.4964C81.4964 493.173 85.7836 493.173 85.4076 489.678C82.5865 483.928 78.0447 484.693 64.6653 493.173Z" fill="#414143"/>
<path d="M60.7104 478.366V489.678L64.6653 493.173C78.0447 484.693 82.5865 483.928 85.4076 489.678C85.2274 488.003 83.9761 485.526 80.6686 481.861C80.6686 481.861 74.7011 481.861 74.9308 478.366V469.537H60.7104V478.366Z" fill="#222021"/>
<path d="M64.6653 493.173L60.7104 489.678V478.366V469.537H74.9308V478.366C74.7011 481.861 80.6686 481.861 80.6686 481.861C83.9761 485.526 85.2274 488.003 85.4076 489.678M64.6653 493.173H81.4964C81.4964 493.173 85.7836 493.173 85.4076 489.678M64.6653 493.173C78.0447 484.693 82.5865 483.928 85.4076 489.678" stroke="black" stroke-width="2.66667"/>
<path d="M46.3272 435.928L51.7869 442.994C51.9793 445.748 52.0355 447.211 51.2922 448.519C49.9417 450.097 49.1955 450.567 47.8947 450.276C45.8559 449.699 46.0375 447.998 46.6827 444.63C43.7237 449.87 42.021 454.36 39.24 453.277C38.2889 452.87 39.5051 449.96 40.6374 446.36C39.2666 448.957 38.592 450.7 35.7106 448.674C35.2219 447.363 36.673 446.178 38.4616 444.274C36.1353 446.274 34.8669 447.204 33.1798 445.786C32.8737 444.329 33.7882 443.161 36.3202 440.786C33.8385 443.034 32.5084 443.98 30.6747 442.906C30.3728 441.974 31.6631 440.278 33.9462 437.278L33.9795 437.234C38.9228 437.361 41.6163 437.023 46.3272 435.928Z" fill="#FFE0B4" stroke="black" stroke-width="2.66667"/>
<path d="M139.797 402.461C142.488 398.849 143.76 396.71 147.424 393.561C148.197 392.943 148.548 392.698 148.652 392.894C149.39 393.166 150.103 393.626 150.832 394.412C151.803 395.589 151.061 396.873 149.425 398.787L149.609 400.043C156.487 395.747 160.915 394.294 161.898 396.229C162.246 397.921 161.225 399.21 159.485 400.278C161.589 399.432 163.126 399.08 163.251 400.382C163.337 402.351 162.567 403.653 161.06 404.581C161.972 404.469 162.684 404.608 163.117 405.192C162.954 410.254 159.442 410.03 153.137 409.595C157.096 410.705 160.765 411.294 159.824 412.77C156.639 415.502 154.479 415.347 149.866 411.671C148.308 412.845 147.071 412.746 144.567 411.953L139.797 402.461Z" fill="#FFE0B4"/>
<path d="M149.425 398.787C151.061 396.873 151.803 395.589 150.832 394.412C150.103 393.626 149.39 393.166 148.652 392.894C148.548 392.698 148.197 392.943 147.424 393.561C143.76 396.71 142.488 398.849 139.797 402.461L144.567 411.953C147.071 412.746 148.308 412.845 149.866 411.671C154.479 415.347 156.639 415.502 159.824 412.77C160.765 411.294 157.096 410.705 153.137 409.595C159.442 410.03 162.954 410.254 163.117 405.192C162.684 404.608 161.972 404.469 161.06 404.581M149.425 398.787C148.969 399.321 148.139 399.814 147.561 400.458C147.814 405.312 147.951 407.207 148.175 406.686C149.533 405.264 150.049 404.265 150.291 401.928L149.609 400.043M149.425 398.787L149.609 400.043M149.609 400.043C156.487 395.747 160.915 394.294 161.898 396.229C162.246 397.921 161.225 399.211 159.485 400.278M159.485 400.278C157.943 401.223 155.836 401.995 153.615 402.718C155.642 402.001 157.755 400.973 159.485 400.278ZM159.485 400.278C161.589 399.432 163.126 399.08 163.251 400.382C163.337 402.351 162.567 403.653 161.06 404.581M161.06 404.581C159.577 405.494 157.381 406.046 154.586 406.515C157.094 405.813 159.407 404.784 161.06 404.581Z" stroke="black" stroke-width="2.66667"/>
<path d="M166.768 329.64C167.078 329.709 167.358 329.973 167.53 330.427C167.7 330.878 167.745 331.479 167.603 332.116L150.504 408.385C150.361 409.022 150.064 409.546 149.717 409.881C149.368 410.218 149.003 410.337 148.692 410.267C148.381 410.198 148.101 409.934 147.93 409.48C147.759 409.029 147.714 408.428 147.857 407.791L164.955 331.522C165.098 330.885 165.395 330.361 165.742 330.026C166.091 329.689 166.457 329.57 166.768 329.64Z" fill="#CBAC93" stroke="black" stroke-width="0.666667"/>
<path fill-rule="evenodd" clip-rule="evenodd" d="M62.899 401.69C62.0942 406.025 60.1234 414.262 59.7159 413.745C54.5674 427.113 52.0208 440.768 51.3071 441.061C50.2068 441.512 34.7282 435.981 34.2067 435.085C33.7666 434.329 43.5249 405.975 54.4327 388.529L65.4448 390.785C64.3053 394.115 63.6059 397.882 62.899 401.69ZM80.628 371.697C80.6255 371.69 80.5924 371.677 80.5592 371.664C80.5256 371.651 80.4919 371.638 80.4894 371.631L80.5592 371.664L80.628 371.697Z" fill="#E3463A"/>
<path d="M98.43 380.159C95.8123 379.013 93.3358 378.406 90.7096 377.923C93.4836 379.307 94.7125 380.638 94.6659 386.817L96.4309 390.785L108.207 387.609C106.633 382.984 99.0776 380.221 98.43 380.159Z" fill="#F8D345"/>
<path d="M67.9741 378.712C66.1049 379.227 64.7029 379.874 62.9406 380.803C60.533 382.104 56.1117 384.586 54.4327 388.529L65.4448 390.785L66.7095 384.748L67.9741 378.712Z" fill="#F8D346"/>
<path d="M141.215 399.849C140.366 399.594 139.689 398.309 130.478 402.277C122.654 405.647 115.394 408.774 114.779 408.659C113.924 408.499 112.743 395.958 108.207 387.609L96.4309 390.785C101.243 402.209 104.398 413.015 106.417 421.865C129.561 427.55 133.059 416.332 142.885 417.827C152.712 419.321 141.215 399.849 141.215 399.849Z" fill="#E3463A"/>
<path d="M81.2873 450.438L77.5457 465.963C74.0434 465.719 71.6359 465.743 69.628 465.764C65.6188 465.805 63.2025 465.829 56.8447 463.667C56.8447 463.667 54.7041 470.019 54.7346 470.766C54.7651 471.514 58.7185 476.089 79.5034 475.005L81.2873 467.777L83.3234 475.005C95.4438 474.207 107.629 471.119 109.785 470.155C111.94 469.192 113.146 464.348 109.785 461.027C100.14 464.616 95.5027 465.057 84.4891 465.701L81.2873 450.438Z" fill="#F8D446"/>
<path d="M89.158 377.652L73.6614 377.762C73.1265 377.835 71.8504 377.92 71.3802 377.996C71.3802 377.996 70.5677 387.11 81.2873 386.817C92.007 386.523 89.8617 377.772 89.8617 377.772C89.1459 377.648 88.417 377.53 87.6693 377.409L87.4598 377.375C85.5566 377.068 91.4004 378.131 89.158 377.652Z" fill="white"/>
<path fill-rule="evenodd" clip-rule="evenodd" d="M77.5457 465.963L81.2873 450.438L84.4891 465.701C95.5027 465.057 100.14 464.616 109.785 461.027C110.363 460.812 108.696 451.522 109.33 451.282C108.934 447.978 109.051 447.956 109.2 447.927C109.334 447.901 109.493 447.87 109.33 445.455C108.783 437.334 108.295 430.097 106.417 421.865C104.398 413.015 101.243 402.209 96.4309 390.785L94.6659 386.817C94.6659 386.817 95.1783 394.485 81.2873 394.316C67.3963 394.147 66.7095 384.748 66.7095 384.748L65.4448 390.785C64.3053 394.115 63.6059 397.882 62.899 401.69C62.0942 406.025 60.1234 414.262 59.7159 413.745L55.5359 454.04C55.9903 454.201 51.9361 462.763 56.8447 463.667C63.2025 465.829 65.6188 465.805 69.628 465.764C71.6359 465.743 74.0434 465.719 77.5457 465.963Z" fill="#404042"/>
<path d="M70.0391 378.234C69.2777 378.382 68.5997 378.54 67.9741 378.712L66.7095 384.748C66.7095 384.748 67.3963 394.147 81.2873 394.316C95.1783 394.485 94.6659 386.817 94.6659 386.817C94.7125 380.638 93.4836 379.307 90.7096 377.923C90.4288 377.872 90.1463 377.821 89.8617 377.772C89.8617 377.772 92.007 386.523 81.2873 386.817C70.5677 387.11 71.3802 377.996 71.3802 377.996C70.9043 378.073 70.459 378.152 70.0391 378.234Z" fill="#F8D446"/>
<path d="M72.6928 361.871C71.4085 359.888 71.087 358.775 71.3438 356.789C68.6495 355.709 66.9053 354.759 65.8278 353.697L62.9406 367.439L67.9741 363.312L65.4741 373.137L70.99 368.737L69.2327 374.691L73.6614 369.859V366.541C72.8447 364.705 72.5014 363.679 72.6928 361.871Z" fill="black"/>
<path fill-rule="evenodd" clip-rule="evenodd" d="M106.339 329.964L97.641 335.829L96.9447 332.835L93.2564 338.526L86.1158 335.379L78.8543 341.128L69.5864 343.536C65.3735 344.449 64.564 345.834 64.3396 348.99C64.2036 350.993 64.5375 352.425 65.8278 353.697C66.9053 354.759 68.6495 355.709 71.3438 356.789C71.087 358.775 71.4085 359.888 72.6928 361.871C72.5014 363.679 72.8447 364.705 73.6614 366.541V369.859V377.762L89.158 377.652L80.628 371.697C80.853 372.339 81.1688 372.773 82.0634 373.103C97.9865 378.889 103.97 377.555 108.983 366.37C111.192 354.244 110.498 346.199 106.339 329.964ZM80.5592 371.664C80.5256 371.651 80.4919 371.638 80.4894 371.631L80.5592 371.664Z" fill="#FFE0B4"/>
<path d="M88.2835 318.421C75.6244 318.618 72.3855 325.157 69.5864 343.536L78.8543 341.128L86.1158 335.379L93.2564 338.526L96.9447 332.835L97.641 335.829L106.339 329.964C103.136 321.714 99.2563 318.862 88.2835 318.421Z" fill="black"/>
<path d="M69.5864 343.536C72.3855 325.157 75.6244 318.618 88.2835 318.421C99.2563 318.862 103.136 321.714 106.339 329.964M69.5864 343.536C65.3735 344.449 64.564 345.834 64.3396 348.99C64.2036 350.993 64.5375 352.425 65.8278 353.697M69.5864 343.536L78.8543 341.128L86.1158 335.379L93.2564 338.526L96.9447 332.835L97.641 335.829L106.339 329.964M106.339 329.964C110.498 346.199 111.192 354.244 108.983 366.37C103.97 377.555 97.9866 378.889 82.0634 373.103C81.1688 372.773 80.853 372.339 80.628 371.697M80.4894 371.631C80.2983 371.054 80.8781 369.098 80.8484 368.185M80.4894 371.631C80.4919 371.638 80.5256 371.651 80.5592 371.664M80.4894 371.631L80.5592 371.664M89.158 377.652L73.6614 377.762M89.158 377.652L80.628 371.697M89.158 377.652C91.4004 378.131 85.5566 377.068 87.4598 377.375M73.6614 377.762C73.1265 377.835 71.8504 377.92 71.3802 377.996M73.6614 377.762V369.859M81.2873 450.438L77.5457 465.963C74.0434 465.719 71.6359 465.743 69.628 465.764C65.6188 465.805 63.2025 465.829 56.8447 463.667M81.2873 450.438L84.4891 465.701C95.5027 465.057 100.14 464.616 109.785 461.027M81.2873 450.438V401.69M65.4448 390.784L54.4327 388.529M65.4448 390.784C64.3053 394.115 63.6059 397.882 62.899 401.69C62.0942 406.025 60.1234 414.262 59.7159 413.745M65.4448 390.784L66.7095 384.748M59.7159 413.745C54.5674 427.113 52.0208 440.768 51.3071 441.061C50.2068 441.512 34.7282 435.981 34.2067 435.085C33.7666 434.329 43.5249 405.975 54.4327 388.529M59.7159 413.745L55.5359 454.04C55.9903 454.201 51.9361 462.763 56.8447 463.667M96.4309 390.784L108.207 387.609M96.4309 390.784C101.243 402.209 104.398 413.015 106.417 421.865M96.4309 390.784L94.6659 386.817M80.628 371.697L80.5592 371.664M80.628 371.697C80.6255 371.69 80.5924 371.677 80.5592 371.664M87.4598 377.375C87.5297 377.387 87.5997 377.398 87.6693 377.409M87.4598 377.375L87.6693 377.409M67.9741 378.712C66.1049 379.227 64.7029 379.874 62.9406 380.803C60.533 382.104 56.1117 384.586 54.4327 388.529M67.9741 378.712C68.5997 378.54 69.2777 378.382 70.0391 378.234C70.459 378.152 70.9043 378.073 71.3802 377.996M67.9741 378.712L66.7095 384.748M90.7096 377.923C93.3358 378.406 95.8123 379.013 98.43 380.159C99.0776 380.221 106.633 382.984 108.207 387.609M90.7096 377.923C90.4288 377.872 90.1463 377.821 89.8617 377.772M90.7096 377.923C93.4836 379.307 94.7125 380.638 94.6659 386.817M108.207 387.609C112.743 395.958 113.924 408.499 114.779 408.659C115.394 408.774 122.654 405.647 130.478 402.277C139.689 398.309 140.366 399.594 141.215 399.849C141.215 399.849 152.712 419.321 142.885 417.827C133.059 416.332 129.561 427.55 106.417 421.865M87.6693 377.409C88.417 377.53 89.1459 377.648 89.8617 377.772M106.417 421.865C108.295 430.097 108.783 437.334 109.33 445.455C109.493 447.87 109.334 447.901 109.2 447.927C109.051 447.956 108.934 447.978 109.33 451.282C108.696 451.522 110.363 460.812 109.785 461.027M56.8447 463.667C56.8447 463.667 54.7041 470.019 54.7346 470.766C54.7651 471.514 58.7185 476.089 79.5034 475.005L81.2873 467.777L83.3234 475.005C95.4438 474.207 107.629 471.119 109.785 470.155C111.94 469.192 113.146 464.348 109.785 461.027M71.3802 377.996C71.3802 377.996 70.5677 387.11 81.2873 386.817C92.007 386.523 89.8617 377.772 89.8617 377.772M66.7095 384.748C66.7095 384.748 67.3963 394.147 81.2873 394.316C95.1783 394.485 94.6659 386.817 94.6659 386.817M65.8278 353.697C66.9053 354.759 68.6495 355.709 71.3438 356.789C71.087 358.775 71.4085 359.888 72.6928 361.871C72.5014 363.679 72.8447 364.705 73.6614 366.541V369.859M65.8278 353.697L62.9406 367.439L67.9741 363.312L65.4741 373.137L70.99 368.737L69.2327 374.691L73.6614 369.859" stroke="black" stroke-width="2.66667"/>
<path d="M60.6743 338.066C57.5258 319.133 63.7572 313.882 82.1734 309.415L83.9697 312.439L70.6505 336.757L71.7163 341.306L61.9685 343.59L60.6743 338.066Z" fill="#E1473B"/>
<path d="M82.0783 309.023C72.8751 311.256 66.5858 313.707 63.0252 318.06C59.4446 322.438 58.6982 328.636 60.2774 338.133L60.2787 338.145L61.6678 344.074L72.2007 341.606L71.078 336.815L84.4337 312.431L82.3682 308.953L82.0783 309.023ZM83.506 312.446L70.2231 336.699L71.2322 341.005L62.2687 343.106L61.0699 337.989C59.5031 328.558 60.2986 322.667 63.6492 318.571C66.9859 314.491 72.9301 312.093 81.9803 309.878L83.506 312.446Z" fill="black"/>
<path d="M97.9758 327.278L95.3858 325.561L88.3135 327.218L89.8932 329.172L97.9758 327.278Z" fill="white"/>
<path d="M82.4221 330.923L79.7961 329.052L72.4205 330.612L75.3232 332.586L82.4221 330.923Z" fill="white"/>
<path d="M106.427 325.735L112.399 323.61L112.088 323.176L111.241 321.988L111.167 321.637L111.012 321.668L110.959 321.594L110.792 321.713L110.773 321.718L103.351 323.259L106.427 325.735ZM87.5965 326.973L89.7387 329.623L98.9758 327.458L95.6088 325.226L95.4634 325.129L87.5965 326.973ZM75.0962 332.919L75.2425 333.019L83.3822 331.112L80.0297 328.724L79.886 328.621L71.4122 330.413L75.0962 332.919ZM79.7063 329.483L81.4627 330.734L75.4035 332.154L73.4299 330.81L79.7063 329.483ZM96.9758 327.099L90.0476 328.722L89.031 327.464L95.3085 325.993L96.9758 327.099ZM110.662 322.564L111.123 323.209L106.582 324.825L105.185 323.701L110.662 322.564Z" fill="white"/>
<path d="M96.2525 325.542L103.367 323.875L105.532 325.387L98.5249 327.029L96.2525 325.542Z" fill="#E1473B"/>
<path d="M89.5667 329.128L87.377 327.622L80.7537 329.173L82.9775 330.672L89.5667 329.128Z" fill="#E1473B"/>
<path d="M74.3278 332.622L72.1392 331.249L67.468 332.451L67.8629 334.137L74.3278 332.622Z" fill="#E1473B"/>
<path d="M95.2443 325.364L98.3041 327.366L98.4484 327.461L106.501 325.574L103.598 323.544L103.451 323.442L95.2443 325.364ZM79.7626 328.992L82.7526 331.006L82.8977 331.104L90.5455 329.312L87.4586 327.189L79.7626 328.992ZM72.0387 330.859L66.9855 332.159L67.5624 334.621L75.3603 332.794L72.3534 330.908L72.2064 330.815L72.0387 330.859ZM88.5876 328.943L83.0564 330.239L81.7442 329.355L87.2954 328.055L88.5876 328.943ZM104.561 325.201L98.6009 326.597L97.2596 325.72L103.284 324.309L104.561 325.201ZM73.296 332.45L68.1632 333.653L67.9501 332.743L72.0724 331.682L73.296 332.45Z" fill="#E1473D"/>
<path d="M82.0757 309.852C82.3295 310.936 83.4136 311.608 84.4971 311.354C85.5805 311.1 86.253 310.016 85.9992 308.933C85.7453 307.849 84.6612 307.177 83.5778 307.431C82.4944 307.685 81.8218 308.769 82.0757 309.852Z" fill="#F8D346"/>
<path d="M82.8604 309.668C82.7081 309.018 83.1116 308.368 83.7617 308.215C84.4117 308.063 85.0622 308.467 85.2145 309.117C85.3668 309.767 84.9633 310.417 84.3132 310.569L84.4971 311.354C85.5805 311.1 86.253 310.016 85.9992 308.933C85.7453 307.849 84.6612 307.177 83.5778 307.431C82.4944 307.685 81.8218 308.769 82.0757 309.852C82.3295 310.936 83.4136 311.608 84.4971 311.354L84.3132 310.569C83.6632 310.722 83.0127 310.318 82.8604 309.668Z" fill="black"/>
<path d="M69.7091 331.122L106.527 322.496C100.523 311.525 96.0567 307.865 83.9874 310.642C72.8842 313.713 69.8299 318.262 69.7091 331.122Z" fill="#404042"/>
<path d="M83.8801 310.253C78.2983 311.797 74.6466 313.736 72.3989 316.982C70.1594 320.216 69.3669 324.674 69.3063 331.118L69.3014 331.632L107.135 322.768L106.88 322.303C103.877 316.815 101.214 313.065 97.7324 311.064C94.2282 309.051 89.9732 308.852 83.8969 310.25L83.8801 310.253ZM84.0923 311.032C90.0773 309.656 94.0865 309.899 97.331 311.763C100.507 313.588 103.024 317.005 105.916 322.226L70.1214 330.612C70.219 324.482 71.0238 320.382 73.0609 317.441C75.1461 314.43 78.5724 312.559 84.0923 311.032Z" fill="black"/>
<path d="M67.9844 331.445L67.9621 331.453C67.4824 331.627 67.0703 331.833 66.8401 332.191C66.5981 332.569 66.6195 333.01 66.7234 333.477L66.7251 333.484C66.8405 333.965 67.0091 334.403 67.3926 334.646C67.7733 334.888 68.2516 334.864 68.7702 334.764L111.207 324.821L111.266 324.783C111.644 324.538 111.99 324.297 112.201 324C112.44 323.662 112.483 323.29 112.375 322.86L112.377 322.861C112.277 322.414 112.126 321.998 111.766 321.742C111.412 321.49 110.949 321.46 110.417 321.507L110.388 321.51L67.9844 331.445ZM74.3076 332.639L68.6047 333.975C68.1155 334.068 67.9203 334.027 67.8241 333.966C67.7304 333.906 67.6203 333.758 67.5103 333.303L67.4813 333.158C67.428 332.848 67.4647 332.71 67.5184 332.627C67.5905 332.514 67.7633 332.384 68.215 332.218L72.1362 331.3L74.3076 332.639ZM81.9469 330.849L75.4203 332.378L73.2489 331.039L79.8981 329.481L81.9469 330.849ZM89.59 329.058L83.0213 330.597L80.9725 329.229L87.4385 327.714L89.59 329.058ZM97.4194 327.224L90.6966 328.799L88.5451 327.455L95.2679 325.88L97.4194 327.224ZM105.449 325.342L98.5259 326.965L96.3744 325.621L103.277 324.003L105.449 325.342ZM110.511 322.308C110.996 322.269 111.196 322.326 111.299 322.399C111.398 322.469 111.497 322.619 111.591 323.038L111.591 323.044L111.593 323.049C111.659 323.305 111.621 323.425 111.544 323.534C111.441 323.678 111.244 323.832 110.883 324.069L106.562 325.082L104.39 323.743L110.511 322.308Z" fill="black"/>
<path d="M60.0701 336.721L119.733 322.742C120.623 322.75 120.917 323.083 121.226 324.019C121.371 324.863 121.123 325.225 120.448 325.793L60.7851 339.772C59.7922 339.893 59.2842 339.841 58.8624 338.667C58.6119 337.541 58.8934 337.048 60.0701 336.721Z" fill="#404042"/>
<path d="M59.9619 336.332C59.3507 336.502 58.8564 336.743 58.5869 337.184C58.316 337.628 58.3384 338.167 58.469 338.754L58.4749 338.78L58.4829 338.804C58.7063 339.425 58.9884 339.856 59.4367 340.069C59.8601 340.271 60.3496 340.231 60.8341 340.172L60.8554 340.169L120.634 326.163L120.708 326.102C121.049 325.814 121.339 325.535 121.507 325.184C121.684 324.816 121.704 324.422 121.624 323.952L121.618 323.922L121.609 323.893C121.453 323.419 121.275 323.011 120.967 322.733C120.64 322.438 120.229 322.343 119.737 322.339L119.689 322.338L59.9619 336.332ZM119.774 323.146C120.141 323.155 120.313 323.228 120.427 323.331C120.563 323.454 120.685 323.674 120.834 324.118C120.891 324.472 120.859 324.674 120.781 324.835C120.7 325.005 120.546 325.176 120.259 325.423L60.7183 339.374C60.2219 339.433 59.9646 339.428 59.7827 339.342C59.6254 339.267 59.4464 339.087 59.2511 338.553C59.1385 338.032 59.1759 337.767 59.2754 337.604C59.3654 337.457 59.5564 337.308 59.9816 337.168L60.1787 337.109L119.774 323.146Z" fill="black"/>
<path d="M75.3129 339.7C75.3129 341.193 74.1027 342.403 72.6098 342.403C71.117 342.403 69.9067 341.193 69.9067 339.7C69.9067 338.207 71.117 336.997 72.6098 336.997C74.1027 336.997 75.3129 338.207 75.3129 339.7Z" fill="white"/>
<path d="M74.6372 339.7C74.6372 338.581 73.7295 337.673 72.6098 337.673C71.4902 337.673 70.5825 338.581 70.5825 339.7C70.5825 340.82 71.4902 341.727 72.6098 341.727V342.403C71.117 342.403 69.9067 341.193 69.9067 339.7C69.9067 338.207 71.117 336.997 72.6098 336.997C74.1027 336.997 75.3129 338.207 75.3129 339.7C75.3129 341.193 74.1027 342.403 72.6098 342.403V341.727C73.7295 341.727 74.6372 340.82 74.6372 339.7Z" fill="black"/>
<path d="M75.123 344.895C75.123 346.388 73.9128 347.598 72.4199 347.598C70.927 347.598 69.7168 346.388 69.7168 344.895C69.7168 343.402 70.927 342.192 72.4199 342.192C73.9128 342.192 75.123 343.402 75.123 344.895Z" fill="#E1473B"/>
<path d="M74.4472 344.895C74.4472 343.775 73.5396 342.868 72.4199 342.868C71.3002 342.868 70.3926 343.775 70.3926 344.895C70.3926 346.015 71.3002 346.922 72.4199 346.922V347.598C70.927 347.598 69.7168 346.388 69.7168 344.895C69.7168 343.402 70.927 342.192 72.4199 342.192C73.9128 342.192 75.123 343.402 75.123 344.895C75.123 346.388 73.9128 347.598 72.4199 347.598V346.922C73.5396 346.922 74.4472 346.015 74.4472 344.895Z" fill="black"/>
<path d="M76.2124 349.161C76.2124 350.654 75.0021 351.864 73.5093 351.864C72.0164 351.864 70.8062 350.654 70.8062 349.161C70.8062 347.668 72.0164 346.458 73.5093 346.458C75.0021 346.458 76.2124 347.668 76.2124 349.161Z" fill="white"/>
<path d="M75.5366 349.161C75.5366 348.041 74.6289 347.134 73.5093 347.134C72.3896 347.134 71.4819 348.041 71.4819 349.161C71.4819 350.281 72.3896 351.188 73.5093 351.188V351.864C72.0164 351.864 70.8062 350.654 70.8062 349.161C70.8062 347.668 72.0164 346.458 73.5093 346.458C75.0021 346.458 76.2124 347.668 76.2124 349.161C76.2124 350.654 75.0021 351.864 73.5093 351.864V351.188C74.6289 351.188 75.5366 350.281 75.5366 349.161Z" fill="black"/>
<path d="M76.8178 353.848C76.8178 355.341 75.6076 356.551 74.1147 356.551C72.6218 356.551 71.4116 355.341 71.4116 353.848C71.4116 352.355 72.6218 351.145 74.1147 351.145C75.6076 351.145 76.8178 352.355 76.8178 353.848Z" fill="#E1473B"/>
<path d="M76.142 353.848C76.142 352.729 75.2344 351.821 74.1147 351.821C72.9951 351.821 72.0874 352.729 72.0874 353.848C72.0874 354.968 72.9951 355.876 74.1147 355.876V356.551C72.6218 356.551 71.4116 355.341 71.4116 353.848C71.4116 352.355 72.6218 351.145 74.1147 351.145C75.6076 351.145 76.8178 352.355 76.8178 353.848C76.8178 355.341 75.6076 356.551 74.1147 356.551V355.876C75.2344 355.876 76.142 354.968 76.142 353.848Z" fill="black"/>
<path d="M78.4765 357.967C78.4765 359.46 77.2663 360.67 75.7734 360.67C74.2805 360.67 73.0703 359.46 73.0703 357.967C73.0703 356.474 74.2805 355.264 75.7734 355.264C77.2663 355.264 78.4765 356.474 78.4765 357.967Z" fill="white"/>
<path d="M77.8007 357.967C77.8007 356.847 76.8931 355.94 75.7734 355.94C74.6538 355.94 73.7461 356.847 73.7461 357.967C73.7461 359.087 74.6538 359.994 75.7734 359.994V360.67C74.2805 360.67 73.0703 359.46 73.0703 357.967C73.0703 356.474 74.2805 355.264 75.7734 355.264C77.2663 355.264 78.4765 356.474 78.4765 357.967C78.4765 359.46 77.2663 360.67 75.7734 360.67V359.994C76.8931 359.994 77.8007 359.087 77.8007 357.967Z" fill="black"/>
<path d="M79.5205 362.802C79.5205 364.294 78.3102 365.505 76.8174 365.505C75.3245 365.505 74.1143 364.294 74.1143 362.802C74.1143 361.309 75.3245 360.099 76.8174 360.099C78.3102 360.099 79.5205 361.309 79.5205 362.802Z" fill="#E1473B"/>
<path d="M78.8447 362.802C78.8447 361.682 77.937 360.774 76.8174 360.774C75.6977 360.774 74.79 361.682 74.79 362.802C74.79 363.921 75.6977 364.829 76.8174 364.829V365.505C75.3245 365.505 74.1143 364.294 74.1143 362.802C74.1143 361.309 75.3245 360.099 76.8174 360.099C78.3102 360.099 79.5205 361.309 79.5205 362.802C79.5205 364.294 78.3102 365.505 76.8174 365.505V364.829C77.937 364.829 78.8447 363.921 78.8447 362.802Z" fill="black"/>
<path d="M110.937 331.544C110.937 333.037 109.727 334.247 108.234 334.247C106.741 334.247 105.531 333.037 105.531 331.544C105.531 330.051 106.741 328.841 108.234 328.841C109.727 328.841 110.937 330.051 110.937 331.544Z" fill="#E1473B"/>
<path d="M110.261 331.544C110.261 330.425 109.354 329.517 108.234 329.517C107.114 329.517 106.207 330.425 106.207 331.544C106.207 332.664 107.114 333.572 108.234 333.572V334.247C106.741 334.247 105.531 333.037 105.531 331.544C105.531 330.051 106.741 328.841 108.234 328.841C109.727 328.841 110.937 330.051 110.937 331.544C110.937 333.037 109.727 334.247 108.234 334.247V333.572C109.354 333.572 110.261 332.664 110.261 331.544Z" fill="black"/>
<path d="M112.333 336.312C112.333 337.805 111.123 339.015 109.63 339.015C108.137 339.015 106.927 337.805 106.927 336.312C106.927 334.819 108.137 333.609 109.63 333.609C111.123 333.609 112.333 334.819 112.333 336.312Z" fill="white"/>
<path d="M111.658 336.312C111.658 335.192 110.75 334.285 109.63 334.285C108.511 334.285 107.603 335.192 107.603 336.312C107.603 337.432 108.511 338.339 109.63 338.339V339.015C108.137 339.015 106.927 337.805 106.927 336.312C106.927 334.819 108.137 333.609 109.63 333.609C111.123 333.609 112.333 334.819 112.333 336.312C112.333 337.805 111.123 339.015 109.63 339.015V338.339C110.75 338.339 111.658 337.432 111.658 336.312Z" fill="black"/>
<path d="M113.427 340.887C113.427 342.38 112.216 343.59 110.724 343.59C109.231 343.59 108.021 342.38 108.021 340.887C108.021 339.394 109.231 338.184 110.724 338.184C112.216 338.184 113.427 339.394 113.427 340.887Z" fill="#E1473B"/>
<path d="M112.751 340.887C112.751 339.768 111.843 338.86 110.724 338.86C109.604 338.86 108.696 339.768 108.696 340.887C108.696 342.007 109.604 342.915 110.724 342.915V343.59C109.231 343.59 108.021 342.38 108.021 340.887C108.021 339.394 109.231 338.184 110.724 338.184C112.216 338.184 113.427 339.394 113.427 340.887C113.427 342.38 112.216 343.59 110.724 343.59V342.915C111.843 342.915 112.751 342.007 112.751 340.887Z" fill="black"/>
<path d="M115.037 345.782C115.037 347.275 113.826 348.485 112.333 348.485C110.841 348.485 109.63 347.275 109.63 345.782C109.63 344.289 110.841 343.079 112.333 343.079C113.826 343.079 115.037 344.289 115.037 345.782Z" fill="white"/>
<path d="M114.361 345.782C114.361 344.662 113.453 343.755 112.333 343.755C111.214 343.755 110.306 344.662 110.306 345.782C110.306 346.902 111.214 347.809 112.333 347.809V348.485C110.841 348.485 109.63 347.275 109.63 345.782C109.63 344.289 110.841 343.079 112.333 343.079C113.826 343.079 115.037 344.289 115.037 345.782C115.037 347.275 113.826 348.485 112.333 348.485V347.809C113.453 347.809 114.361 346.902 114.361 345.782Z" fill="black"/>
<path d="M115.747 351.088C115.747 352.581 114.537 353.791 113.044 353.791C111.551 353.791 110.341 352.581 110.341 351.088C110.341 349.595 111.551 348.385 113.044 348.385C114.537 348.385 115.747 349.595 115.747 351.088Z" fill="#E1473B"/>
<path d="M115.071 351.088C115.071 349.969 114.164 349.061 113.044 349.061C111.924 349.061 111.017 349.969 111.017 351.088C111.017 352.208 111.924 353.116 113.044 353.116V353.791C111.551 353.791 110.341 352.581 110.341 351.088C110.341 349.595 111.551 348.385 113.044 348.385C114.537 348.385 115.747 349.595 115.747 351.088C115.747 352.581 114.537 353.791 113.044 353.791V353.116C114.164 353.116 115.071 352.208 115.071 351.088Z" fill="black"/>
<path d="M116.13 355.89C116.13 357.383 114.92 358.593 113.427 358.593C111.934 358.593 110.724 357.383 110.724 355.89C110.724 354.397 111.934 353.187 113.427 353.187C114.92 353.187 116.13 354.397 116.13 355.89Z" fill="white"/>
<path d="M115.454 355.89C115.454 354.77 114.546 353.863 113.427 353.863C112.307 353.863 111.399 354.77 111.399 355.89C111.399 357.01 112.307 357.917 113.427 357.917V358.593C111.934 358.593 110.724 357.383 110.724 355.89C110.724 354.397 111.934 353.187 113.427 353.187C114.92 353.187 116.13 354.397 116.13 355.89C116.13 357.383 114.92 358.593 113.427 358.593V357.917C114.546 357.917 115.454 357.01 115.454 355.89Z" fill="black"/>
<path d="M80.6193 365.057C81.782 365.994 81.9654 367.695 81.029 368.858C80.0927 370.021 78.391 370.204 77.2283 369.268C76.0656 368.332 75.8821 366.63 76.8185 365.467C77.7549 364.305 79.4566 364.121 80.6193 365.057Z" fill="white"/>
<path d="M80.1954 365.584C79.3234 364.881 78.0471 365.019 77.3448 365.891C76.6425 366.763 76.7801 368.039 77.6522 368.742C78.5242 369.444 79.8004 369.306 80.5027 368.434L81.029 368.858C80.0927 370.021 78.391 370.204 77.2283 369.268C76.0656 368.332 75.8821 366.63 76.8185 365.467C77.7549 364.305 79.4566 364.121 80.6193 365.057C81.782 365.994 81.9654 367.695 81.029 368.858L80.5027 368.434C81.205 367.562 81.0674 366.286 80.1954 365.584Z" fill="black"/>
<path d="M83.9728 368.448C85.1355 369.385 85.3189 371.086 84.3826 372.249C83.4462 373.412 81.7445 373.595 80.5818 372.659C79.4191 371.723 79.2357 370.021 80.172 368.858C81.1084 367.696 82.8101 367.512 83.9728 368.448Z" fill="#E1473B"/>
<path d="M83.5489 368.975C82.6769 368.272 81.4006 368.41 80.6984 369.282C79.9961 370.154 80.1337 371.43 81.0057 372.133C81.8777 372.835 83.154 372.697 83.8562 371.825L84.3826 372.249C83.4462 373.412 81.7445 373.595 80.5818 372.659C79.4191 371.723 79.2357 370.021 80.172 368.858C81.1084 367.696 82.8101 367.512 83.9728 368.448C85.1355 369.385 85.3189 371.086 84.3826 372.249L83.8562 371.825C84.5585 370.953 84.4209 369.677 83.5489 368.975Z" fill="black"/>
<path d="M88.3199 370.578C89.4826 371.514 89.6661 373.216 88.7297 374.379C87.7933 375.542 86.0917 375.725 84.929 374.789C83.7663 373.852 83.5828 372.151 84.5192 370.988C85.4556 369.825 87.1572 369.642 88.3199 370.578Z" fill="white"/>
<path d="M87.8961 371.104C87.024 370.402 85.7478 370.54 85.0455 371.412C84.3432 372.284 84.4808 373.56 85.3529 374.262C86.2249 374.965 87.5011 374.827 88.2034 373.955L88.7297 374.379C87.7933 375.542 86.0917 375.725 84.929 374.789C83.7663 373.852 83.5828 372.151 84.5192 370.988C85.4556 369.825 87.1572 369.642 88.3199 370.578C89.4826 371.514 89.6661 373.216 88.7297 374.379L88.2034 373.955C88.9057 373.083 88.7681 371.807 87.8961 371.104Z" fill="black"/>
<path d="M93.2716 372.568C94.4343 373.504 94.6178 375.206 93.6814 376.369C92.745 377.532 91.0434 377.715 89.8807 376.779C88.7179 375.842 88.5345 374.141 89.4709 372.978C90.4073 371.815 92.1089 371.632 93.2716 372.568Z" fill="#E1473B"/>
<path d="M92.8477 373.094C91.9757 372.392 90.6995 372.53 89.9972 373.402C89.2949 374.274 89.4325 375.55 90.3045 376.252C91.1765 376.955 92.4528 376.817 93.1551 375.945L93.6814 376.369C92.745 377.532 91.0434 377.715 89.8807 376.779C88.7179 375.842 88.5345 374.141 89.4709 372.978C90.4073 371.815 92.1089 371.632 93.2716 372.568C94.4343 373.504 94.6178 375.206 93.6814 376.369L93.1551 375.945C93.8574 375.073 93.7198 373.797 92.8477 373.094Z" fill="black"/>
<path d="M98.34 373.969C99.5027 374.905 99.6861 376.607 98.7497 377.77C97.8134 378.932 96.1117 379.116 94.949 378.179C93.7863 377.243 93.6028 375.541 94.5392 374.379C95.4756 373.216 97.1773 373.033 98.34 373.969Z" fill="white"/>
<path d="M97.9161 374.495C97.0441 373.793 95.7678 373.931 95.0655 374.803C94.3633 375.675 94.5009 376.951 95.3729 377.653C96.2449 378.355 97.5211 378.218 98.2234 377.346L98.7497 377.77C97.8134 378.932 96.1117 379.116 94.949 378.179C93.7863 377.243 93.6028 375.541 94.5392 374.379C95.4756 373.216 97.1773 373.033 98.34 373.969C99.5027 374.905 99.6861 376.607 98.7497 377.77L98.2234 377.346C98.9257 376.474 98.7881 375.198 97.9161 374.495Z" fill="black"/>
<path d="M103.471 373.617C104.634 374.553 104.817 376.255 103.881 377.417C102.945 378.58 101.243 378.764 100.08 377.827C98.9177 376.891 98.7342 375.189 99.6706 374.026C100.607 372.864 102.309 372.68 103.471 373.617Z" fill="#E1473B"/>
<path d="M103.047 374.143C102.175 373.441 100.899 373.578 100.197 374.45C99.4946 375.322 99.6322 376.599 100.504 377.301C101.376 378.003 102.652 377.866 103.355 376.994L103.881 377.417C102.945 378.58 101.243 378.764 100.08 377.827C98.9177 376.891 98.7342 375.189 99.6706 374.026C100.607 372.864 102.309 372.68 103.471 373.617C104.634 374.553 104.817 376.255 103.881 377.417L103.355 376.994C104.057 376.122 103.919 374.845 103.047 374.143Z" fill="black"/>
<path d="M107.508 367.865C108.433 366.693 110.132 366.493 111.304 367.417C112.477 368.342 112.677 370.042 111.752 371.214C110.828 372.386 109.128 372.586 107.956 371.662C106.784 370.737 106.583 369.037 107.508 367.865Z" fill="#E1473B"/>
<path d="M108.039 368.284C107.345 369.163 107.495 370.438 108.375 371.131C109.254 371.825 110.528 371.674 111.222 370.795C111.915 369.916 111.765 368.642 110.886 367.948L111.304 367.417C112.477 368.342 112.677 370.042 111.752 371.214C110.828 372.386 109.128 372.586 107.956 371.662C106.784 370.737 106.583 369.037 107.508 367.865C108.433 366.693 110.132 366.493 111.304 367.417L110.886 367.948C110.007 367.254 108.732 367.405 108.039 368.284Z" fill="black"/>
<path d="M110.389 363.83C111.314 362.658 113.013 362.458 114.185 363.383C115.357 364.307 115.558 366.007 114.633 367.179C113.709 368.351 112.009 368.552 110.837 367.627C109.665 366.702 109.464 365.002 110.389 363.83Z" fill="white"/>
<path d="M110.919 364.249C110.226 365.128 110.376 366.403 111.255 367.096C112.134 367.79 113.409 367.639 114.103 366.76C114.796 365.881 114.646 364.607 113.767 363.913L114.185 363.383C115.357 364.307 115.558 366.007 114.633 367.179C113.709 368.351 112.009 368.552 110.837 367.627C109.665 366.702 109.464 365.002 110.389 363.83C111.314 362.658 113.013 362.458 114.185 363.383L113.767 363.913C112.888 363.22 111.613 363.37 110.919 364.249Z" fill="black"/>
<path d="M110.922 359.201C111.846 358.029 113.546 357.829 114.718 358.754C115.89 359.678 116.091 361.378 115.166 362.55C114.241 363.722 112.542 363.923 111.37 362.998C110.197 362.073 109.997 360.373 110.922 359.201Z" fill="#E1473B"/>
<path d="M111.452 359.62C110.759 360.499 110.909 361.774 111.788 362.467C112.667 363.161 113.942 363.01 114.635 362.131C115.329 361.252 115.179 359.978 114.299 359.284L114.718 358.754C115.89 359.678 116.091 361.378 115.166 362.55C114.241 363.722 112.542 363.923 111.37 362.998C110.197 362.073 109.997 360.373 110.922 359.201C111.846 358.029 113.546 357.829 114.718 358.754L114.299 359.284C113.42 358.591 112.146 358.741 111.452 359.62Z" fill="black"/>
<path d="M107.939 371.231C109.102 372.167 109.285 373.869 108.349 375.031C107.412 376.194 105.711 376.378 104.548 375.441C103.385 374.505 103.202 372.803 104.138 371.64C105.075 370.478 106.776 370.294 107.939 371.231Z" fill="white"/>
<path d="M107.515 371.757C106.643 371.055 105.367 371.192 104.665 372.064C103.962 372.936 104.1 374.213 104.972 374.915C105.844 375.617 107.12 375.48 107.823 374.608L108.349 375.031C107.412 376.194 105.711 376.378 104.548 375.441C103.385 374.505 103.202 372.803 104.138 371.64C105.075 370.478 106.776 370.294 107.939 371.231C109.102 372.167 109.285 373.869 108.349 375.031L107.823 374.608C108.525 373.736 108.387 372.459 107.515 371.757Z" fill="black"/>
<path d="M82.7246 342.424C82.7246 342.424 92.9955 345.035 94.7074 345.265C96.4194 345.496 102.135 335.983 102.135 335.983" stroke="black" stroke-width="2.66667" stroke-linecap="round"/>
<path d="M92.3642 349.92C92.5796 351.398 91.5566 352.77 90.0793 352.985C88.6021 353.201 87.2299 352.178 87.0145 350.7C86.7991 349.223 87.8221 347.851 89.2993 347.636C90.7766 347.42 92.1488 348.443 92.3642 349.92Z" fill="black"/>
<path d="M105.096 347.482C105.311 348.96 104.288 350.332 102.811 350.547C101.334 350.763 99.9614 349.74 99.746 348.262C99.5306 346.785 100.554 345.413 102.031 345.198C103.508 344.982 104.88 346.005 105.096 347.482Z" fill="black"/>
<path d="M92.4579 362.775C96.4478 354.385 99.273 354.172 105.175 360.374" stroke="black" stroke-width="2" stroke-linecap="round"/>
<path d="M97.5179 359.304C98.6582 358.438 99.291 358.431 100.406 359.466" stroke="black" stroke-width="1.33333" stroke-linecap="round"/>
<path d="M57.8242 434.318L59.618 421.562H106.423L108.659 434.318H106.423L115.809 451.838L108.659 457.663L95.5662 434.318H57.8242Z" fill="#2E7AAE"/>
<path d="M95.5662 434.318H57.8242L59.618 421.562H106.423L108.659 434.318H106.423M95.5662 434.318L108.659 457.663L115.809 451.838L106.423 434.318M95.5662 434.318H106.423" stroke="black" stroke-width="2.66667"/>
</g>
</g>
<defs>
<clipPath id="clip0_244_2203">
<rect width="390" height="781" fill="white" transform="translate(0.390625 0.5)"/>
</clipPath>
<clipPath id="clip1_244_2203">
<rect width="200" height="200" fill="white" transform="translate(0 306)"/>
</clipPath>
</defs>
</svg>
