<svg width="100" height="26" viewBox="0 0 100 26" fill="none" xmlns="http://www.w3.org/2000/svg">
<path d="M2.56 6.7C2.48 6.54 2.4 6.32 2.58 6.08C2.66 6 2.86 5.98 3.08 5.8C3.2 5.72 3.36 5.56 3.82 5.58C4.12 5.6 4.28 5.72 4.4 5.84C4.52 5.98 4.66 5.92 4.82 5.94C5.06 6 5.62 6.04 5.88 6.06C6.14 6.06 6.5 6.2 7.18 6.14C7.48 6.12 7.92 6.18 8.28 6.2C8.6 6.2 9.34 5.88 9.68 5.9C10 5.92 10.2 5.76 10.82 5.58C11.28 5.48 11.72 5.64 12.24 5.66C12.58 5.68 12.7 5.66 12.82 5.7C13.06 5.82 13.26 5.76 13.42 5.9C13.54 6 13.46 6.06 13.54 6.2L13.78 6.56C13.96 6.86 13.7 7.22 13.56 7.44C13.36 7.82 13.32 7.94 12.78 8.1C12.46 8.24 12.02 8.4 11.66 8.64C11.3 8.92 11.04 8.98 10.64 9.3L10.46 9.46C10.34 9.62 10.16 9.7 10.04 9.8C10.02 9.98 10.2 10.08 10.54 10.24C10.54 10.24 11 10.26 11.24 10.46C11.48 10.62 11.88 10.76 12.18 10.76C12.42 10.78 12.58 10.92 12.8 10.92C13.46 10.94 13.54 10.98 14.06 11.14C14.48 11.46 14.9 11.58 15.1 11.62C15.32 11.72 15.72 11.78 16.08 11.92C16.44 12.04 16.8 12.3 16.8 12.42C16.8 12.56 16.84 12.7 16.8 12.86C16.66 13.14 16.78 13.28 16.52 13.42C16.08 13.72 15.72 13.72 15.26 13.62C15.02 13.56 14.76 13.52 14.54 13.44C14.38 13.4 14.22 13.32 14.06 13.24C13.68 13.14 13.48 13.12 13.08 12.9C12.44 12.52 11.74 12.2 11.06 11.92C10.86 11.82 10.68 11.72 10.56 11.58C10.3 11.3 10.12 11.26 9.8 11.08C9.58 11.04 9.28 11.02 9.12 11.02C8.76 11.22 8.32 11.28 7.96 11.52C7.7 11.72 7.64 11.9 7.38 12.06C7.14 12.22 6.9 12.26 6.64 12.34C6.34 12.46 6.1 12.62 5.8 12.82C5.6 12.96 5.6 12.92 5.26 13.16C4.9 13.38 4.7 13.82 4.34 14.12C4.1 14.34 3.84 14.5 3.62 14.62C3.44 14.74 2.96 14.82 2.84 15.02C2.66 15.28 2.44 15.46 2.08 15.5C1.88 15.54 1.76 15.64 1.5 15.48C1.22 15.36 1.08 15.18 1.02 15C0.9 14.72 0.88 14.6 1.04 14.34C1.18 14.08 1.46 14 1.64 13.78C1.82 13.52 2.08 13.32 2.36 13.16C2.6 13 2.7 12.78 2.96 12.72C3.12 12.68 3.48 12.3 3.7 12.2C4.04 12.1 4.16 12.12 4.4 11.86C4.66 11.56 4.84 11.58 5.18 11.38C5.56 11.12 5.64 11.14 6.04 10.92C6.3 10.72 6.38 10.78 6.44 10.64C6.5 10.5 6.88 10.26 7.18 10.1C7.46 9.98 7.68 9.8 7.9 9.58C8.18 9.38 8.54 8.84 8.86 8.66C9 8.56 9.16 8.52 9.26 8.44C9.42 8.3 10.2 8 10.38 7.7C10.52 7.42 11 7.4 11 7.22C11 7.16 10.26 7.2 10.26 7.2C10.14 7.2 9.38 7.36 9.28 7.4C9.1 7.48 8.82 7.52 8.58 7.6C8.3 7.7 8.16 7.82 7.86 7.82C7.66 7.82 7.2 7.74 7.02 7.78C6.5 7.84 5.96 7.76 5.46 7.82C5 7.88 4.54 7.58 4.08 7.56C3.8 7.54 3.22 7.4 3.1 7.3C3.06 7.26 2.74 7.12 2.72 6.94C2.7 6.76 2.56 6.7 2.56 6.7ZM8.12 13.26C8.16 13.18 8.18 13.08 8.28 12.98C8.44 12.82 8.7 12.86 8.9 12.94C9.08 13 9.48 13.02 9.54 13.22C9.54 13.22 9.72 13.66 9.76 13.84C9.84 14 9.82 14.26 9.9 14.36C9.98 14.52 9.98 14.6 10 14.74C9.98 14.88 9.98 14.96 9.92 15.08C9.88 15.16 10 15.4 9.98 15.48C9.88 15.6 9.98 15.94 9.9 16.24C9.88 16.32 10.04 16.44 10 16.5C9.9 16.58 10.14 17.06 10 17.18C9.88 17.3 10.08 17.2 10.18 17.22C10.3 17.24 10.48 17.22 10.64 17.22C10.72 17.22 11.02 17.18 11.2 17.18C11.26 17.18 11.56 17.12 12.14 17.02C12.72 16.94 12.7 16.92 12.88 16.88C13.12 16.86 13.38 16.96 13.64 16.88C13.82 16.8 14.06 16.94 14.48 16.86C14.9 16.76 15.76 16.94 15.86 16.94C16.02 16.94 16.48 16.92 17 17.16C17.36 17.32 17.7 17.48 17.6 17.82C17.52 18.08 17.5 18.32 17.4 18.48C17.36 18.64 17.2 18.74 16.84 18.8C16.7 18.82 16.44 18.84 16.32 18.78C16.06 18.64 15.88 18.74 15.72 18.74C15.46 18.74 15.22 18.88 15.06 18.88C14.96 18.88 14.72 18.98 14.62 18.98C14.46 18.98 14.2 18.92 14.12 18.92C13.96 18.92 13.26 18.96 13.18 18.96C13.02 18.96 12.68 18.88 12.4 18.9C12.06 18.92 11.66 18.78 11.48 18.78C11.42 18.78 10.8 18.8 10.6 18.84C9.98 18.96 9.2 18.78 8.36 18.94C8.24 18.96 8.12 19.06 7.96 19.06C7.66 19.06 7.36 19.14 7.06 19.12C6.88 19.1 6.02 19.12 5.78 19.12C5.6 19.12 4.94 19.2 4.7 19.2C4.54 19.2 4.18 18.92 3.8 19.16C3.3 19.32 3.08 19.34 2.92 19.42C2.74 19.5 2.46 19.42 2.32 19.42C2.16 19.42 1.94 19.46 1.76 19.42C1.42 19.34 1.18 19.16 1 19.02C1 19.02 0.84 18.88 0.82 18.74C0.76 18.12 0.9 18.02 1.56 17.72C1.72 17.64 2.08 17.44 2.2 17.46C2.42 17.5 2.54 17.54 2.54 17.54C2.86 17.6 2.92 17.28 3.24 17.34L3.98 17.46C4.22 17.5 4.46 17.44 4.74 17.4C5 17.36 5.22 17.4 5.32 17.4C5.46 17.4 5.64 17.42 5.78 17.4C6.04 17.36 5.98 17.36 6.22 17.3C6.5 17.22 6.94 17.18 7.14 17.2C7.28 17.18 8 17.28 8.16 17.2C8.32 17.12 8.24 16.8 8.28 16.72C8.36 16.54 8.32 16.54 8.34 16.46C8.36 16.3 8.26 15.9 8.26 15.9C8.24 15.4 8.22 15.14 8.16 14.76C8.1 14.62 8.24 14.38 8.24 14.3C8.28 14.12 8.06 13.96 8.12 13.78C8.18 13.6 8.06 13.38 8.12 13.26ZM23.6631 15.58C23.5431 15.82 23.0831 15.96 22.9231 16.16C22.7031 16.42 22.3431 16.38 22.1631 16.68C21.9831 16.98 21.7831 17.14 21.5631 17.22C21.2031 17.36 20.9631 17.56 20.5431 17.6C20.1231 17.56 20.0631 17.76 19.8231 17.62C19.6631 17.52 19.5631 17.48 19.4031 17.4C19.2631 17.3 19.2431 17.14 19.3831 16.96C19.4831 16.86 19.5631 16.8 19.7431 16.66C20.0231 16.44 20.0231 16.4 20.1231 16.28C20.2231 16.12 20.3431 16 20.4831 15.86C20.6831 15.7 21.4431 15.1 21.4831 15.02C21.6031 14.86 21.7631 14.68 22.0031 14.5C22.2031 14.36 22.6631 14.34 22.8031 14.2C22.9631 14.06 23.5631 13.44 23.8231 13.28C24.1231 13.14 24.5631 12.7 24.6631 12.56C24.7431 12.42 24.8431 12.12 24.8431 11.98L24.7431 11.4C24.7431 11.14 24.0231 10.88 23.8431 10.82C23.5831 10.72 23.0831 10.52 22.8631 10.62C22.5431 10.78 22.6031 10.92 22.3631 11.22C22.1231 11.5 21.8431 11.8 21.4031 11.94L20.7431 12.36C20.2431 12.56 20.2831 12.64 19.7831 12.6C19.3031 12.54 19.1631 11.94 19.0631 11.48C18.9631 11.06 19.7431 10.86 20.1831 10.52C20.6031 10.2 21.0831 9.88 21.3831 9.58C21.5231 9.4 21.8431 8.98 22.0031 8.82C22.5831 8.2 22.8031 7.82 22.8031 7.52C22.8031 7.32 22.9031 7.1 23.0231 6.84C23.1231 6.56 23.2431 6.26 23.3031 5.9C23.3631 5.48 23.1031 5.34 22.9031 5.16C22.7831 5.06 22.7031 4.92 22.7231 4.72C22.9431 4.38 23.4031 4.36 23.9831 4.56C24.5631 4.76 25.0231 5.48 25.0231 5.78C25.0231 5.94 25.1431 6.42 25.0031 6.9C24.9031 7.22 24.5431 7.52 24.4631 7.68C24.2631 8.08 24.1831 8.76 24.2631 9.16C24.3631 9.54 25.0631 9.54 25.4631 9.4C25.6431 9.34 26.0431 9.56 26.2031 9.6C26.6431 9.72 26.7231 10.02 26.8831 10.16C26.9231 10.2 27.0431 10.26 27.1631 10.42C27.7231 10.36 28.3431 10.32 28.6031 10.36C28.8231 10.4 29.6831 10.26 30.1431 10.2C30.4231 10.14 30.9031 10.14 31.5631 10.18C32.2231 10.22 32.5431 9.88 32.7631 9.62C32.9431 9.38 32.8031 9.18 32.7231 8.62C32.7031 8.42 32.6831 8.22 32.6831 8.02C32.6631 7.48 32.7431 7.18 32.7031 6.9C32.6631 6.68 32.6031 6.46 32.2231 6.1C32.0231 5.9 31.7831 5.68 31.7431 5.48C31.6031 4.92 31.7231 4.34 31.9631 4.16C32.2631 3.94 32.3631 3.94 32.7031 4.02C32.8431 4.04 32.8831 4.06 33.0631 4.2C33.0631 4.2 33.4031 4.34 33.5831 4.4C33.7631 4.46 33.8031 4.6 33.9031 4.68C34.0231 4.78 33.9431 5.06 34.0631 5.2C34.1831 5.34 34.2431 5.74 34.3831 6.28C34.4431 6.54 34.5831 7.08 34.4431 7.36C34.3631 7.52 34.3831 8.06 34.3831 8.18L34.5031 8.9L34.4431 9.96L34.4031 10.78C34.3831 11.06 34.4431 11.44 34.4431 11.64C34.4231 11.84 34.5031 12.28 34.4831 12.62C34.4631 13 34.3031 13.66 34.2631 14.14L34.3431 14.56C34.3231 14.68 34.2431 15.42 34.1431 15.56C34.0431 15.7 34.2431 15.84 34.1031 16.04C33.9231 16.22 33.7031 16.58 33.5231 16.68C33.3231 16.76 33.2031 16.6 33.0431 16.58C32.9231 16.58 32.7031 16.28 32.6231 15.98C32.5431 15.7 32.5431 15.62 32.5231 15.32C32.4831 15.02 32.4831 15.06 32.5031 14.86C32.5031 14.68 32.4431 14.28 32.4431 14.28C32.4431 14.28 32.4831 14.1 32.6631 13.86C32.8031 13.62 32.6431 13.42 32.6631 13.22C32.6631 13.04 32.7831 12.38 32.7031 12.24C32.6031 12.08 32.4631 12.02 32.2031 11.88C32.0231 11.8 31.5031 11.76 31.2631 11.76C30.9631 11.76 30.8031 11.7 30.6031 11.7L29.3631 11.86C29.0831 11.86 28.5431 12.08 28.1431 11.96C28.0231 11.96 27.1631 12 26.6031 12.02L26.5831 12.06C26.4031 12.34 26.2431 13.18 25.9431 13.54C25.6631 13.86 25.4231 14.2 25.2431 14.3C25.0431 14.4 24.9431 14.56 24.7031 14.74C24.4631 15 24.2031 15.18 23.9231 15.42C23.8431 15.5 23.6431 15.5 23.6631 15.58ZM23.5431 18.64C23.2631 18.16 22.9231 17.7 22.9831 17.44C23.0631 17.02 23.8431 16.94 24.2831 17.04C24.5631 17.12 24.8831 17.26 24.9831 17.26C25.1831 17.32 25.4231 17.4 25.4631 17.54C25.5231 17.66 25.6631 18.1 25.8231 18.18C26.0831 18.28 25.8831 18.88 26.3031 18.96C26.5431 19.02 26.7431 19.22 26.8831 19.28C27.1031 19.38 27.9631 19.52 28.1031 19.52C28.2431 19.52 29.0031 19.5 29.2431 19.54C29.4831 19.58 29.7831 19.5 29.8631 19.5C30.0631 19.48 30.6031 19.56 31.1631 19.66C31.4231 19.68 31.9031 19.46 32.3831 19.44C32.8631 19.42 33.2231 19.16 33.3431 19.16C33.8031 19.12 34.0831 19.18 34.3431 19.16C34.5631 19.16 35.2031 19.64 35.4631 19.94C35.5631 20.06 35.4031 20.58 35.3431 20.76C35.2431 20.94 34.8631 21.06 34.2831 21.08C33.8231 21.1 33.5631 21.2 33.3031 21.2C32.6831 21.22 32.7231 21.1 32.4231 21.22C32.2431 21.3 31.4831 21.26 31.1831 21.28C30.9031 21.28 30.7631 21.2 30.5431 21.22C30.4031 21.22 29.9431 21.36 29.4431 21.3C28.8231 21.22 28.4431 21.36 28.2431 21.28C28.0631 21.18 26.9631 21.4 26.7031 21.34C26.5631 21.32 25.9631 21.24 25.7031 21.12C25.4631 20.98 25.1631 20.9 25.0631 20.76C24.9631 20.6 24.3431 19.62 24.1431 19.44C23.9231 19.2 23.6431 18.78 23.5431 18.64ZM49.5777 5.16L50.2577 4.9C50.2577 4.9 50.7777 4.9 50.9777 4.92C51.1177 4.92 51.3777 4.94 51.3777 4.94C51.3777 4.94 51.8177 5.08 51.9777 5.26H52.2377C52.4577 5.26 52.4977 5.56 52.5577 5.78C52.6177 5.9 52.4577 6.06 52.4577 6.2C52.4577 6.36 52.4777 6.46 52.4177 6.58L52.2177 6.76C52.0577 7 52.0577 7 51.5977 7.4C51.1177 7.78 51.5977 7.4 51.1977 7.72L51.0577 7.82L50.5777 8.22C50.4177 8.4 50.1577 8.64 50.1377 8.66C50.1377 8.66 50.0977 8.72 49.9177 8.92L50.7377 9.46C50.9977 9.46 51.0377 9.54 51.3777 9.72C51.6977 9.88 51.5777 9.84 51.8177 9.9C52.0377 9.94 52.0777 10 52.0777 10L52.2777 10.24V10.4C52.2777 10.54 52.2577 10.86 52.2577 10.86L52.0777 11.32L52.0377 11.98C52.0377 11.98 51.6977 12.32 51.5777 12.46C51.4577 12.56 51.4577 12.86 51.4577 12.86C51.4577 12.86 50.7377 13.12 50.7377 13.26C50.7377 13.4 49.9777 14.2 49.9777 14.2C49.9777 14.2 49.8377 14.42 49.5577 14.5C49.2577 14.58 49.3977 14.66 49.2977 14.78C49.1977 14.9 48.8777 15.12 48.8777 15.12L48.3177 15.48C48.3177 15.48 48.0977 15.7 47.9177 15.9C47.7777 16.12 47.6777 16.1 47.5177 16.22C47.3577 16.3 47.1977 16.34 47.1977 16.34L46.8377 16.48L46.3777 16.74L45.7577 16.86C45.5177 17 45.0777 16.84 44.8977 16.84C44.7577 16.82 44.5977 16.62 44.5977 16.62C44.5177 16.5 43.5777 16 44.1777 15.78L44.3977 15.66C44.6177 15.5 44.8777 15.44 44.8777 15.44L45.4577 15.26C45.4577 15.26 45.5377 15.22 45.9577 14.98L46.1177 14.92L46.1577 14.9C46.2977 14.8 46.8177 14.52 46.8177 14.52L47.0177 14.24C47.2377 13.98 47.4977 13.94 47.4977 13.94L47.6777 13.7C47.8177 13.48 47.8777 13.48 47.9977 13.34C48.0977 13.22 48.3577 13.12 48.3577 13.12L48.6777 12.8C48.6777 12.8 49.1977 12.48 49.3577 12.3C49.6177 11.98 50.1177 11.66 50.0177 11.26C49.9977 11.1 49.9377 11.02 49.8177 10.92C49.6977 10.78 49.6977 10.64 49.5577 10.6L48.9977 10.42L48.6577 10.2L47.0977 11.26L46.4377 11.64C46.4377 11.64 46.0777 11.88 45.5377 11.86C45.3377 11.86 44.9177 12 44.5377 11.66C44.1777 11.38 44.2777 11.02 44.3577 10.88C44.5177 10.64 44.8777 10.64 45.0377 10.4C45.1377 10.24 45.6377 10.02 45.6377 10.02L46.3177 9.54L46.7377 9.28C46.7377 9.3 46.7977 9.3 47.2777 9.14L47.8177 8.68C47.8177 8.68 48.3377 8.4 48.5977 8.24C48.7377 8.16 48.8577 8.1 49.0777 7.94L49.7577 7.16C49.6977 7.04 49.7777 6.8 49.7777 6.8L49.2577 6.78L48.6177 6.76L47.8177 6.98L45.7577 7.2L45.0377 6.94C44.9177 6.86 44.7377 6.76 44.6977 6.62C44.6577 6.48 44.7177 6.34 44.7577 6.16C44.8777 5.82 44.8777 5.48 45.1577 5.32C45.3977 5.16 45.6377 5.34 45.8777 5.34C46.2577 5.32 46.6177 5.22 46.9977 5.22C47.3177 5.22 48.3977 5.32 48.7177 5.28L49.5777 5.16ZM52.8777 11.04C52.6377 10.34 52.8977 9.86 53.3977 9.96C53.7377 9.96 54.1777 10.06 54.5977 9.88L55.0977 9.8L55.6577 9.74C55.7577 9.64 56.5377 9.52 56.5377 9.52V8.84C56.5377 8.84 56.4777 8.58 56.4777 8.38C56.4777 8.16 56.5377 8.08 56.4777 7.86C56.4377 7.66 56.5777 7.26 56.4377 7L56.1177 6.06L55.6177 5.74L55.3377 5.54C55.2177 5.46 55.0377 5.24 55.0577 4.94C55.0777 4.7 55.1177 4.14 55.6177 4.1L56.3377 4.04L56.7377 4.1L57.0977 4.3C57.0977 4.3 57.3577 4.56 57.4577 4.56C57.6177 4.56 57.9377 4.72 57.9377 4.72C57.9377 4.72 58.3377 4.98 58.3377 5.18V5.74L58.4177 6.52L58.5177 7.26L58.3977 7.86V10.5C58.3977 10.5 58.4377 11.12 58.5977 11.38L58.4377 12.14V12.98C58.4377 12.98 58.3377 14.14 58.5577 14.54C58.6977 15 58.5577 15.22 58.5577 15.22V15.48C58.5577 15.48 58.1977 15.94 58.1377 16.1C58.0777 16.24 57.8177 16.4 57.8177 16.4C57.5377 16.44 57.2377 16.56 57.0577 16.28C56.9777 16.16 56.6977 15.98 56.7977 15.62C56.8377 15.48 56.7977 15.16 56.7977 15.16C56.7977 15.16 56.7377 14.7 56.7977 14.38L56.7377 13.02V11.96L56.5377 11.34L55.8577 11.54L55.5977 11.6C55.5977 11.6 55.4577 11.74 55.1977 11.68L54.4577 11.76C54.4577 11.76 53.4577 11.84 52.8777 11.04ZM47.4977 16.7H47.9577L48.9977 17.44L49.2377 17.8C49.2377 17.8 49.4177 18.64 49.5577 18.78C49.6977 18.88 49.8777 18.98 50.1177 19.08L50.8577 19.24C50.8577 19.24 51.3777 19.18 51.4577 19.24H52.2377C52.2377 19.24 52.6977 19.02 52.9377 19.24L54.2577 19.02H54.9777C55.2577 19.02 55.5377 19.02 55.6977 18.96L57.1977 18.74C57.7577 18.62 58.1577 18.92 58.3977 18.96H58.8577C58.9577 19.12 59.3177 19.44 59.3177 19.44L59.5177 19.7C59.5177 19.7 59.5177 19.38 59.6177 20L59.2977 20.64C58.9977 20.96 59.2977 20.64 58.7177 20.9H57.9577L57.4377 20.76C57.1977 20.76 57.1977 20.72 57.1977 20.72H56.7777L55.9577 20.9H54.4977C54.4977 20.9 53.5577 20.92 53.4177 20.92H52.5977C52.5977 20.92 52.2777 20.92 52.0977 20.96L51.1777 21.02H50.2377C50.2377 21.02 49.5377 21.06 49.3777 21.02L48.5777 20.66C48.5777 20.66 48.1977 20.44 47.9577 20.26V19.86L47.4977 18.48C47.3777 18.22 47.2977 17.8 47.0177 17.76V17.26L47.4977 16.7ZM45.4777 15.24L45.4577 15.26C45.4577 15.26 45.4577 15.24 45.4777 15.24ZM70.7608 6.34C71.0008 6.42 71.3608 7.02 71.6008 7.54C71.7208 7.76 71.4608 8.12 71.5608 8.38C71.6608 8.7 71.5808 8.76 71.4608 9.06C71.2008 9.7 71.1608 10.46 70.8208 10.92C70.5208 11.3 70.3208 11.62 70.1608 12.14C70.0608 12.46 69.5808 12.76 69.3408 13.06L68.9408 13.54C68.7208 13.84 68.5608 14.08 68.2608 14.38C67.6608 15 67.4008 15.1 67.3008 15.38C67.2208 15.6 66.5808 16.18 66.0808 16.46C65.7608 16.62 65.3208 16.86 64.9408 17C64.2608 17.26 63.6808 17.3 63.2808 17.26C62.5808 17.18 62.4608 16.88 62.8208 16.18C62.9408 15.9 63.8808 15.62 63.9808 15.46C64.1208 15.2 64.6808 15.16 65.2608 14.74C65.5008 14.6 65.6808 14.08 65.9008 13.9C66.1208 13.76 66.4608 13.42 66.7808 13.08C67.0808 12.74 67.3608 12.44 67.4408 12.32C68.1008 11.44 68.7408 10.9 69.1808 10.14C69.3008 9.96 69.3208 9.54 69.3808 9.34C69.4808 9.06 69.5808 9.02 69.5008 8.78C69.4208 8.56 69.6808 8.4 69.4208 8.24C69.0808 8.04 68.3208 8.26 67.9408 8.42C67.7208 8.52 67.1008 8.5 66.8608 8.64C66.6208 8.76 66.3408 8.46 66.0408 8.58C65.5008 8.8 64.6408 8.7 64.1808 8.68C63.4208 8.64 63.1408 8.64 62.8208 8.32C62.1608 7.68 62.2608 7.24 62.8208 6.8C63.3408 6.36 64.1208 6.8 64.1208 6.8H65.0408C65.5408 6.8 66.1608 6.72 66.5408 6.72C67.3008 6.72 68.6008 6.66 69.3408 6.34C70.1008 6.02 70.7608 6.34 70.7608 6.34ZM74.1008 5.72C74.2008 5.36 73.9808 4.54 74.2208 4.44C74.3608 4.4 74.4608 3.82 74.6208 3.82C74.8008 3.8 75.3408 3.9 75.5208 3.92C75.7008 3.94 76.1408 4.6 76.2808 4.8C76.6808 5.3 76.5808 6.06 76.5208 6.62C76.5208 6.96 76.5808 7.76 76.5808 8.74C76.5808 9.3 76.5408 9.9 76.4808 10.5C76.3608 11.4 76.8608 13.28 76.4208 14.12C76.1808 14.56 76.6408 15.54 76.6408 15.96C76.6408 16.5 76.6208 17.06 76.5608 17.68C76.4808 18.56 76.2408 19.22 75.9208 19.66C75.7408 19.96 75.5008 20.16 75.2808 20.32C74.9808 20.52 74.6808 20.6 74.4408 20.6C74.0008 20.6 74.1408 20.08 74.2408 19.22C74.3008 18.7 73.9808 18.24 74.3608 17.64C74.6208 17.24 74.4208 16.5 74.4408 16.08C74.4808 15.38 74.4208 14.3 74.4408 13.68C74.4608 12.9 74.5208 11.12 74.3808 10.74C74.0608 9.86 74.5008 8.78 74.3808 7.5C74.2608 6.24 73.8808 6.5 74.1008 5.72Z" fill="black" fill-opacity="0.5"/>
<path d="M98.4356 10.3334L91.9998 16.7692L85.564 10.3334L86.5101 9.3872L91.9998 14.877L97.4895 9.3872L98.4356 10.3334Z" fill="black" fill-opacity="0.5"/>
</svg>
