<svg width="391" height="782" viewBox="0 0 391 782" fill="none" xmlns="http://www.w3.org/2000/svg">
<g clip-path="url(#clip0_244_1912)">
<rect width="390" height="781" transform="translate(0.390625 0.5)" fill="white"/>
<rect x="0.390625" y="451.5" width="390" height="330" fill="#B8D545"/>
<rect x="0.390625" y="0.5" width="390" height="451" fill="#C6F5FF"/>
<ellipse cx="87.1163" cy="486.858" rx="55.757" ry="20.9595" fill="black" fill-opacity="0.1"/>
<path d="M220.942 169.17C222.182 168.371 234.347 167.788 240.421 167.644C240.421 165.559 240.859 161.785 241.007 160.326C241.445 158.001 242.032 156.538 242.54 155.374C244.537 151.397 247.687 144.967 251.673 143.697C256.229 142.245 262.586 142.66 268.138 144.084C276.382 146.199 284.34 147.917 287.583 150.283C289.177 151.446 289.96 152.305 290.787 152.021C291.227 151.87 291.723 151.482 292.026 150.997C293.119 149.243 293.293 145.659 298.312 144.794C302.936 143.997 308.363 144.22 310.129 145.462C312.842 147.369 316.013 149.504 318.596 153.425C320.567 156.416 320.781 160.165 323.137 160.348C326.859 160.637 331.292 159.882 333.632 161.664C335.745 163.273 337.61 164.749 338.079 166.998C338.95 171.182 339.124 179.636 336.244 181.589C334.413 182.83 319.342 178.715 318.657 184.593C318.368 187.074 318.367 189.331 317.779 190.349C317.484 190.862 317.107 191.377 315.642 192.331C308.717 196.844 305.14 198.433 302.006 197.711C298.207 196.835 295.114 194.871 286.309 192.237C284.641 191.738 284.135 192.136 283.916 192.686C283.48 193.778 282.753 194.528 281.941 195.534C279.824 198.157 278.056 200.026 275.81 200.491C271.608 201.363 264.279 201.369 261.572 199.309C257.928 196.537 257.002 193.481 254.427 192.239C253.987 192.027 253.554 192.316 253.113 192.609C251.36 193.778 248.218 196.226 244.044 196.036C235.849 195.661 227.062 194.831 223.548 190.036C220.706 186.159 215.677 172.566 220.942 169.17Z" fill="white" stroke="white" stroke-width="2.70914" stroke-linecap="round"/>
<path d="M57.4834 213.917C58.7227 213.118 70.8878 212.536 76.9616 212.391C76.9616 210.307 77.3995 206.532 77.5484 205.074C77.9863 202.749 78.5731 201.286 79.0811 200.121C81.078 196.145 84.2276 189.714 88.2137 188.444C92.7701 186.993 99.1267 187.407 104.679 188.832C112.923 190.947 120.881 192.665 124.124 195.03C125.718 196.193 126.501 197.053 127.328 196.769C127.768 196.618 128.264 196.23 128.567 195.744C129.66 193.99 129.834 190.406 134.853 189.541C139.477 188.744 144.904 188.967 146.67 190.209C149.383 192.116 152.554 194.252 155.137 198.172C157.108 201.163 157.322 204.913 159.678 205.096C163.4 205.385 167.833 204.629 170.173 206.412C172.286 208.021 174.151 209.497 174.62 211.745C175.491 215.93 175.665 224.383 172.785 226.337C170.954 227.578 155.883 223.463 155.198 229.341C154.909 231.821 154.908 234.078 154.32 235.097C154.025 235.609 153.648 236.124 152.183 237.078C145.258 241.591 141.681 243.181 138.547 242.458C134.748 241.582 131.655 239.619 122.85 236.984C121.182 236.485 120.676 236.884 120.457 237.433C120.021 238.526 119.295 239.275 118.482 240.282C116.365 242.905 114.597 244.773 112.351 245.239C108.149 246.11 100.82 246.117 98.1126 244.057C94.4692 241.285 93.5427 238.229 90.9681 236.987C90.528 236.774 90.0945 237.063 89.6544 237.357C87.9006 238.526 84.7591 240.974 80.5853 240.783C72.3899 240.409 63.6032 239.579 60.089 234.784C57.247 230.906 52.2176 217.313 57.4834 213.917Z" fill="white" stroke="white" stroke-width="2.70914" stroke-linecap="round"/>
<path d="M435.182 391.862H175.182C185.794 373.733 227.093 337.43 307.393 337.253C387.692 337.076 426.043 373.585 435.182 391.862Z" fill="#E1A45D"/>
<rect x="207.239" y="391.862" width="195.884" height="78.0442" fill="#E0C6A4"/>
<rect x="199.093" y="391.862" width="8.32774" height="88.5277" fill="#9F6124"/>
<rect x="207.598" y="426.154" width="195.526" height="5.64406" fill="#B6743D"/>
<rect x="207.598" y="469.693" width="195.526" height="6.4426" fill="#BB9B7F"/>
<rect x="303.733" y="391.862" width="8.32774" height="88.5277" fill="#9F6124"/>
<rect x="234.247" y="409.584" width="20.9053" height="38.7834" fill="#9F6124"/>
<rect x="256.003" y="409.584" width="20.9053" height="38.7834" fill="#9F6124"/>
<rect x="324.167" y="402.815" width="32.5627" height="57.9657" fill="#9F6124"/>
<rect x="236.439" y="412.71" width="16.5194" height="32.5325" fill="#EDE4D3"/>
<rect x="258.196" y="412.71" width="16.5194" height="32.5325" fill="#EDE4D3"/>
<rect x="328.724" y="405.656" width="23.4506" height="52.2825" fill="#EDE4D3"/>
<rect x="358.273" y="402.815" width="32.5627" height="57.9657" fill="#9F6124"/>
<rect x="362.83" y="405.656" width="23.4506" height="52.2825" fill="#EDE4D3"/>
<path d="M137.683 569.37V579.136" stroke="#529C47" stroke-width="2" stroke-linecap="round"/>
<path d="M142.823 570.398V580.164" stroke="#529C47" stroke-width="2" stroke-linecap="round"/>
<path d="M152.326 572.614L149.067 580.164" stroke="#529C47" stroke-width="2" stroke-linecap="round"/>
<path d="M36.7729 589.031V598.796" stroke="#C6DB64" stroke-width="2" stroke-linecap="round"/>
<path d="M41.9126 590.059V599.824" stroke="#C6DB64" stroke-width="2" stroke-linecap="round"/>
<path d="M51.4155 592.274L48.1564 599.824" stroke="#C6DB64" stroke-width="2" stroke-linecap="round"/>
<path d="M160.539 512.757V522.522" stroke="#C6DB64" stroke-width="2" stroke-linecap="round"/>
<path d="M165.679 513.785V523.55" stroke="#C6DB64" stroke-width="2" stroke-linecap="round"/>
<path d="M175.182 516L171.922 523.55" stroke="#C6DB64" stroke-width="2" stroke-linecap="round"/>
<path d="M324.167 525.308V535.073" stroke="#529C47" stroke-width="2" stroke-linecap="round"/>
<path d="M329.307 526.336V536.101" stroke="#529C47" stroke-width="2" stroke-linecap="round"/>
<path d="M338.81 528.551L335.551 536.101" stroke="#529C47" stroke-width="2" stroke-linecap="round"/>
<path d="M221.239 553.099C221.54 554.002 221.846 554.969 222.124 555.83C222.252 556.188 222.352 556.389 222.579 556.994C222.807 557.599 223.158 558.603 223.672 559.94" stroke="#529C47" stroke-width="2" stroke-linecap="round"/>
<path d="M229.601 552.643V559.788" stroke="#529C47" stroke-width="2" stroke-linecap="round"/>
<path d="M234.033 561.923C234.061 561.964 234.09 562.005 234.668 561.387C235.246 560.77 236.373 559.492 237.056 558.762C237.739 558.031 237.944 557.888 238.069 557.615" stroke="#529C47" stroke-width="2" stroke-linecap="round"/>
<path d="M287.807 587.701C288.108 588.832 288.413 590.042 288.691 591.12C288.819 591.569 288.919 591.82 289.147 592.577C289.374 593.335 289.725 594.591 290.239 596.266" stroke="#529C47" stroke-width="2" stroke-linecap="round"/>
<path d="M296.168 587.131V596.075" stroke="#529C47" stroke-width="2" stroke-linecap="round"/>
<path d="M300.6 598.748C300.629 598.799 300.657 598.851 301.236 598.077C301.814 597.304 302.94 595.704 303.623 594.79C304.306 593.876 304.512 593.696 304.636 593.355" stroke="#529C47" stroke-width="2" stroke-linecap="round"/>
<path d="M160.539 607.638C160.84 608.541 161.146 609.507 161.424 610.368C161.552 610.727 161.652 610.927 161.879 611.532C162.106 612.137 162.458 613.141 162.971 614.479" stroke="#C6DB64" stroke-width="2" stroke-linecap="round"/>
<path d="M168.9 607.182V614.327" stroke="#C6DB64" stroke-width="2" stroke-linecap="round"/>
<path d="M173.332 616.461C173.361 616.502 173.39 616.543 173.968 615.926C174.546 615.308 175.672 614.03 176.356 613.3C177.039 612.57 177.244 612.426 177.369 612.153" stroke="#C6DB64" stroke-width="2" stroke-linecap="round"/>
<path d="M270.253 513.66C270.554 514.563 270.859 515.53 271.138 516.39C271.265 516.749 271.366 516.95 271.593 517.555C271.82 518.16 272.171 519.163 272.685 520.501" stroke="#C6DB64" stroke-width="2" stroke-linecap="round"/>
<path d="M278.614 513.204V520.349" stroke="#C6DB64" stroke-width="2" stroke-linecap="round"/>
<path d="M283.046 522.483C283.075 522.525 283.104 522.566 283.682 521.948C284.26 521.33 285.386 520.052 286.069 519.322C286.752 518.592 286.958 518.448 287.083 518.175" stroke="#C6DB64" stroke-width="2" stroke-linecap="round"/>
<path d="M55.1812 543.781C55.4822 544.684 55.7877 545.651 56.0659 546.511C56.1936 546.87 56.2939 547.071 56.5212 547.676C56.7485 548.281 57.0997 549.284 57.6135 550.622" stroke="#529C47" stroke-width="2" stroke-linecap="round"/>
<path d="M63.5425 543.325V550.47" stroke="#529C47" stroke-width="2" stroke-linecap="round"/>
<path d="M67.9745 552.605C68.0033 552.646 68.032 552.687 68.6101 552.069C69.1881 551.451 70.3145 550.173 70.9976 549.443C71.6807 548.713 71.8862 548.569 72.0108 548.297" stroke="#529C47" stroke-width="2" stroke-linecap="round"/>
<path d="M78.4041 480.826C77.8272 477.444 77.804 475.385 77.9899 471.59L85.652 468.824V479.003C85.9819 481.143 87.8933 481.726 93.968 481.589L93.6843 465.525L99.2651 465.068L100.704 477.318L121.097 480.266C124.633 478.673 126.549 477.908 128.433 479.529C129.574 481.294 129.539 482.059 128.433 483.074H125.344C125.344 483.074 129.591 484.057 128.257 485.847C126.923 487.637 124.01 486.619 122.746 486.725C121.483 486.83 128.425 491.462 124.01 491.323C120.251 491.204 117.249 488.258 116.739 487.69L117.55 489.115C117.55 489.115 119.204 492.114 117.55 492.709C115.895 493.303 114.655 492.269 114.293 492.295C113.931 492.321 114.008 495.811 113 495.811C111.992 495.811 110.668 493.79 110.668 493.79C109.355 493.096 109.433 497.258 108.059 497.352C106.684 497.445 105.684 494.791 105.077 494.784C104.47 494.777 104.124 496.855 104.124 496.855L96.7518 497.89L85.652 493.251H81.3033C79.2236 492.717 75.8776 487.411 76.0019 486.79C76.1262 486.169 78.4041 480.826 78.4041 480.826Z" fill="#FFE0B4"/>
<path d="M116.709 487.637L117.55 489.115C117.55 489.115 119.204 492.114 117.55 492.709C115.895 493.303 114.655 492.269 114.293 492.295C113.931 492.321 114.008 495.811 113 495.811C111.992 495.811 110.668 493.79 110.668 493.79C109.355 493.096 109.433 497.258 108.059 497.352C106.684 497.445 105.684 494.791 105.077 494.784C104.47 494.777 104.124 496.855 104.124 496.855L96.7518 497.89L85.652 493.251H81.3033C79.2236 492.717 75.8776 487.411 76.0019 486.79C76.1262 486.169 78.4041 480.826 78.4041 480.826C77.8272 477.444 77.804 475.385 77.9899 471.59L85.652 468.824V479.003C85.9819 481.143 87.8933 481.726 93.968 481.589M116.709 487.637L110.076 488.059L94.8425 481.565C94.5419 481.575 94.2504 481.583 93.968 481.589M116.709 487.637C116.224 487.144 119.595 491.183 124.01 491.323C128.425 491.462 121.483 486.83 122.746 486.725C124.01 486.619 126.923 487.637 128.257 485.847C129.591 484.057 125.344 483.074 125.344 483.074H128.433C129.539 482.059 129.574 481.294 128.433 479.529C126.549 477.908 124.633 478.673 121.097 480.266L100.704 477.318L99.2651 465.068L93.6843 465.525L93.968 481.589" stroke="black" stroke-width="2.66667" stroke-linecap="square"/>
<path d="M70.9443 432.939C72.9872 433.071 74.8677 433.948 77.3198 435.931C83.151 433.167 86.3279 431.931 90.8081 433.758C99.1782 438.781 100.068 452.441 102.722 473.762C98.7564 473.735 95.9651 474.072 92.7329 474.916V486.839C88.0139 486.981 86.1821 486.626 84.4587 485.167V476.803C80.8563 477.236 78.6371 477.724 77.1173 478.368C76.8026 481.999 76.8301 484.063 77.4385 487.822L74.6734 492.938C71.1634 492.984 69.3867 492.531 66.3879 491.297C59.6663 487.552 57.5622 485.188 56.5513 480.538L58.6873 440.408C59.0354 440.096 59.3735 439.794 59.7022 439.503C65.0999 434.715 67.9565 432.683 70.9443 432.939Z" fill="#B9AE9A"/>
<path d="M77.3198 435.931C74.8677 433.948 72.9872 433.071 70.9443 432.939C67.9565 432.683 65.0999 434.715 59.7022 439.503M77.3198 435.931C79.1502 437.411 81.2991 439.507 84.0717 442.368C87.8849 450.083 88.8675 457.785 89.0874 476.001M77.3198 435.931C83.151 433.167 86.3279 431.931 90.8081 433.758C99.1782 438.781 100.068 452.441 102.722 473.762C98.7564 473.735 95.9651 474.072 92.7329 474.916M59.7022 439.503C59.3735 439.794 59.0354 440.096 58.6873 440.408L56.5513 480.538C57.5622 485.188 59.6663 487.552 66.3879 491.297C69.3867 492.531 71.1634 492.984 74.6734 492.938L77.4385 487.822C76.8301 484.063 76.8026 481.999 77.1173 478.368M59.7022 439.503L70.9443 462.189C71.3019 469.449 72.051 473.464 74.2292 480.538C74.9583 479.643 75.7579 478.943 77.1173 478.368M77.1173 478.368C78.6371 477.724 80.8563 477.236 84.4587 476.803M84.4587 476.803C85.4342 476.686 86.5111 476.572 87.703 476.461C88.1807 476.3 88.6412 476.146 89.0874 476.001M84.4587 476.803V485.167C86.1821 486.626 88.0139 486.981 92.7329 486.839V474.916M92.7329 474.916C91.5957 475.213 90.404 475.572 89.0874 476.001" stroke="black" stroke-width="2.66667"/>
<path d="M141.219 462.595C145.637 463.08 148.092 463.093 152.601 464.638C153.513 464.987 153.896 465.163 153.781 465.35C153.918 466.113 153.884 466.949 153.579 467.962C153.063 469.376 151.6 469.386 149.154 468.95L148.177 469.734C155.267 473.44 158.715 476.481 157.56 478.284C156.294 479.425 154.688 479.201 152.911 478.254C154.681 479.621 155.748 480.753 154.702 481.509C153.07 482.566 151.578 482.561 150.036 481.743C150.587 482.463 150.824 483.138 150.543 483.798C146.156 486.187 144.592 483.088 141.814 477.506C142.846 481.429 144.178 484.845 142.452 484.781C138.537 483.437 137.59 481.521 138.413 475.76C136.637 475.021 136.103 473.92 135.527 471.394L141.219 462.595Z" fill="#FFE0B4"/>
<path d="M149.154 468.95C151.6 469.386 153.063 469.376 153.579 467.962C153.884 466.949 153.918 466.113 153.781 465.35C153.896 465.163 153.513 464.987 152.601 464.638C148.092 463.093 145.637 463.08 141.219 462.595L135.527 471.394C136.103 473.92 136.637 475.021 138.413 475.76C137.59 481.521 138.537 483.437 142.452 484.781C144.178 484.845 142.846 481.429 141.814 477.506C144.592 483.088 146.156 486.187 150.543 483.798C150.824 483.138 150.587 482.463 150.036 481.743M149.154 468.95C148.472 468.829 147.638 468.369 146.802 468.199C142.799 470.839 141.255 471.902 141.809 471.832C143.698 472.278 144.805 472.218 146.915 471.256L148.177 469.734M149.154 468.95L148.177 469.734M148.177 469.734C155.267 473.44 158.715 476.481 157.56 478.284C156.294 479.425 154.688 479.201 152.911 478.254M152.911 478.254C151.336 477.414 149.628 476.007 147.903 474.479C149.525 475.845 151.455 477.129 152.911 478.254ZM152.911 478.254C154.681 479.621 155.748 480.753 154.702 481.509C153.07 482.566 151.578 482.561 150.036 481.743M150.036 481.743C148.518 480.937 146.952 479.344 145.157 477.201C147.007 478.984 149.037 480.438 150.036 481.743Z" stroke="black" stroke-width="2.66667"/>
<path d="M74.1125 481.627C74.6222 481.531 79.765 470.394 79.5308 470.021C79.2967 469.647 60.9787 451.472 60.9787 451.472L58.1756 439.583L58.9234 439.056C64.6331 433.876 67.164 432.066 70.1608 431.991C73.305 432.21 74.7298 432.808 77.2983 434.99C78.7609 434.346 80.0715 433.8 81.2577 433.356C86.4076 431.429 89.2135 431.426 91.9419 433.724C95.0162 435.985 96.425 438.366 98.7396 445.451C98.7396 445.451 134.861 471.341 135.968 471.844C137.076 472.346 141.138 463.399 141.666 463.231C142.194 463.063 78.4787 419.585 78.4787 419.585L62.7142 415.805L60.9787 427.277L55.9226 416.927C48.0744 418.472 45.9151 419.374 45.22 421.034C44.7837 425.021 44.8465 428.881 45.5372 433.356C46.6596 440.628 47.0224 443.552 52.0125 457.258C52.68 458.857 54.3133 460.781 55.0835 461.666C55.0835 461.666 73.6028 481.724 74.1125 481.627Z" fill="#8BA5A4"/>
<path d="M55.0835 461.666C54.3133 460.781 52.68 458.857 52.0125 457.258C47.0224 443.552 46.6596 440.628 45.5372 433.356C45.5372 433.356 38.2295 485.277 41.4706 489.015C44.7117 492.753 58.8952 484.127 55.9226 484.224L55.0835 461.666Z" fill="#8BA5A4"/>
<path d="M55.9226 406.237V416.927L60.9787 427.277L62.7142 415.805L62.4199 409.195L63.8235 412.609C73.0057 415.976 77.1723 416.954 81.4803 415.805C89.7308 412.365 92.5742 406.525 91.6982 389.016C91.3094 385.329 90.8684 382.089 90.3628 379.242L52.5359 379.557C52.3523 380.724 52.1788 381.949 52.0125 383.234C47.5037 384.638 46.3799 385.95 46.3137 389.016C46.6001 393.519 49.0746 394.749 53.718 396.711C53.5433 398.562 53.575 399.941 54.7995 401.703C54.6692 403.497 54.8537 404.492 55.9226 406.237Z" fill="#FFE0B4"/>
<path d="M52.5359 379.557L90.3628 379.242C89.6253 375.09 88.7503 371.773 87.6988 369.126L54.8166 369.672C53.8785 372.371 53.1513 375.641 52.5359 379.557Z" fill="black"/>
<path d="M54.8166 369.672L87.6988 369.126C84.1045 362.319 82.7173 359.785 75.6615 359.031C78.1314 353.289 71.7896 351.532 69.6263 352.567C67.4631 353.602 66.5176 354.841 67.2979 359.031C59.4443 361.523 57.4309 363.967 54.8166 369.672Z" fill="black"/>
<path d="M55.0835 461.666C55.0835 461.666 73.6028 481.724 74.1125 481.627C74.6222 481.531 79.765 470.394 79.5308 470.021C79.2967 469.647 60.9787 451.472 60.9787 451.472L58.1756 439.583M55.0835 461.666C54.3133 460.781 52.68 458.857 52.0125 457.258C47.0224 443.552 46.6596 440.628 45.5372 433.356M55.0835 461.666L55.9226 484.224C58.8952 484.127 44.7117 492.753 41.4706 489.015C38.2295 485.277 45.5372 433.356 45.5372 433.356M55.9226 416.927C48.0744 418.472 45.9151 419.374 45.22 421.034C44.7837 425.021 44.8465 428.881 45.5372 433.356M55.9226 416.927V406.237C54.8537 404.492 54.6692 403.497 54.7995 401.703C53.575 399.941 53.5433 398.562 53.718 396.711C49.0746 394.749 46.6001 393.519 46.3137 389.016C46.3799 385.95 47.5037 384.638 52.0125 383.234C52.1788 381.949 52.3523 380.724 52.5359 379.557M55.9226 416.927L60.9787 427.277L62.7142 415.805M62.7142 415.805L62.4199 409.195L63.8235 412.609C73.0057 415.976 77.1723 416.954 81.4803 415.805C89.7308 412.365 92.5742 406.525 91.6982 389.016C91.3094 385.329 90.8684 382.089 90.3628 379.242M62.7142 415.805L78.4787 419.585C78.4787 419.585 142.194 463.063 141.666 463.231C141.138 463.399 137.076 472.346 135.968 471.844C134.861 471.341 98.7396 445.451 98.7396 445.451C96.425 438.366 95.0162 435.985 91.9419 433.724C89.2135 431.426 86.4076 431.429 81.2577 433.356M81.2577 433.356C80.0715 433.8 78.7609 434.346 77.2983 434.99C74.7298 432.808 73.305 432.21 70.1608 431.991C67.164 432.066 64.6331 433.876 58.9234 439.056L58.1756 439.583M81.2577 433.356L75.6345 425.797M56.5819 433.356L58.1756 439.583M52.5359 379.557L90.3628 379.242M52.5359 379.557C53.1513 375.641 53.8785 372.371 54.8166 369.672M90.3628 379.242C89.6253 375.09 88.7503 371.773 87.6988 369.126M54.8166 369.672L87.6988 369.126M54.8166 369.672C57.4309 363.967 59.4443 361.523 67.2979 359.031C66.5176 354.841 67.4631 353.602 69.6263 352.567C71.7896 351.532 78.1314 353.289 75.6615 359.031C82.7173 359.785 84.1045 362.319 87.6988 369.126" stroke="black" stroke-width="2.66667" stroke-linecap="square"/>
<path d="M135.708 483.752L162.313 447.493C162.858 446.751 163.901 446.591 164.643 447.136C165.385 447.68 165.545 448.723 165.001 449.465L138.395 485.724C137.851 486.466 136.808 486.626 136.066 486.082C135.324 485.537 135.163 484.494 135.708 483.752Z" fill="#7A4E1C"/>
<path d="M163.057 447.768L164.197 448.927C166.792 451.591 168.933 454.004 170.654 456.698C172.66 459.837 174.014 463.221 175.046 467.668L175.799 470.915L169.305 472.422L168.551 469.175L168.381 468.464C167.514 464.976 166.458 462.512 165.036 460.288C163.676 458.159 161.918 456.145 159.434 453.593L158.324 452.464L155.977 450.097L160.71 445.402L163.057 447.768Z" fill="#AFAFAF"/>
<path d="M106.991 488.342L102.984 495.053L102.702 500.934C109.519 501.498 113.883 500.588 118.382 495.791C118.635 494.139 118.943 492.574 119.108 491.347C119.342 489.605 119.288 488.545 118.384 488.888C116.944 489.156 115.673 489.271 114.399 489.265C112.225 489.254 110.04 488.891 106.991 488.342Z" fill="#CEAC65"/>
<path d="M114.399 489.265C115.673 489.271 116.944 489.156 118.384 488.888C119.288 488.545 119.342 489.605 119.108 491.347C120.954 493.129 122.014 493.986 124.253 493.547C128.161 491.727 130.165 489.476 131.017 483.347C131.288 481.339 130.62 479.445 129.494 477.824C129.382 477.108 124.94 477.382 122.913 478.66L114.399 489.265Z" fill="#CEAC65"/>
<path d="M102.984 495.053L106.991 488.342C110.04 488.891 112.225 489.254 114.399 489.265M102.984 495.053L97.8079 493.497M102.984 495.053L102.702 500.934M96.6323 500.209C95.0849 499.733 93.6419 499.287 92.3001 498.867M96.6323 500.209L97.8079 493.497M96.6323 500.209C98.8656 500.526 100.872 500.783 102.702 500.934M114.399 489.265C115.673 489.271 116.944 489.156 118.384 488.888C119.288 488.545 119.342 489.605 119.108 491.347M114.399 489.265L122.913 478.66C124.94 477.382 129.382 477.108 129.494 477.824C130.62 479.445 131.288 481.339 131.017 483.347C130.165 489.476 128.161 491.727 124.253 493.547C122.014 493.986 120.954 493.129 119.108 491.347M119.108 491.347C118.943 492.574 118.635 494.139 118.382 495.791C113.883 500.588 109.519 501.498 102.702 500.934M82.4857 488.891L77.1529 487.288C76.0452 487.377 76.4982 489.436 78.3313 492.742C78.9474 493.597 80.1489 494.391 81.9968 495.231M82.4857 488.891L81.9968 495.231M82.4857 488.891L87.9773 490.542M81.9968 495.231C83.4637 495.898 85.338 496.592 87.6502 497.369M87.9773 490.542L87.6502 497.369M87.9773 490.542L92.632 491.941M87.6502 497.369C89.0398 497.835 90.5875 498.331 92.3001 498.867M92.632 491.941L92.3001 498.867M92.632 491.941L97.8079 493.497" stroke="#CEAC65" stroke-width="2.66667" stroke-linecap="square"/>
<path d="M102.984 495.053L106.991 488.342C110.04 488.891 112.225 489.254 114.399 489.265M102.984 495.053L97.8079 493.497M102.984 495.053L102.702 500.934M96.6323 500.209C95.0849 499.733 93.6419 499.287 92.3001 498.867M96.6323 500.209L97.8079 493.497M96.6323 500.209C98.8656 500.526 100.872 500.783 102.702 500.934M114.399 489.265C115.673 489.271 116.944 489.156 118.384 488.888C119.288 488.545 119.342 489.605 119.108 491.347M114.399 489.265L122.913 478.66C124.94 477.382 129.382 477.108 129.494 477.824C130.62 479.445 131.288 481.339 131.017 483.347C130.165 489.476 128.161 491.727 124.253 493.547C122.014 493.986 120.954 493.129 119.108 491.347M119.108 491.347C118.943 492.574 118.635 494.139 118.382 495.791C113.883 500.588 109.519 501.498 102.702 500.934M82.4857 488.891L77.1529 487.288C76.0452 487.377 76.4982 489.436 78.3313 492.742C78.9474 493.597 80.1489 494.391 81.9968 495.231M82.4857 488.891L81.9968 495.231M82.4857 488.891L87.9773 490.542M81.9968 495.231C83.4637 495.898 85.338 496.592 87.6502 497.369M87.9773 490.542L87.6502 497.369M87.9773 490.542L92.632 491.941M87.6502 497.369C89.0398 497.835 90.5875 498.331 92.3001 498.867M92.632 491.941L92.3001 498.867M92.632 491.941L97.8079 493.497" stroke="black" stroke-opacity="0.1" stroke-width="2.66667" stroke-linecap="square"/>
<path d="M74.4216 478.942L80.4363 470.436C83.4416 469.28 85.0551 468.717 86.7674 469.099C88.9895 470.065 89.769 470.737 89.8892 472.287C89.9421 474.759 87.9827 475.138 84.0056 475.57C90.8624 477.078 96.4527 477.442 96.1952 480.914C96.066 482.115 92.4052 481.753 88.0027 481.721C91.3676 482.362 93.5427 482.518 92.2683 486.425C90.9728 487.418 89.1554 486.205 86.4195 484.861C89.4458 486.772 90.9167 487.869 89.9117 490.235C88.3918 491.075 86.7761 490.454 83.2612 488.442C86.617 490.441 88.1272 491.601 87.5563 494.014C86.6202 494.669 84.2876 493.81 80.1605 492.289L80.1003 492.267C78.5522 486.71 77.2535 483.821 74.4216 478.942Z" fill="#FFE0B4" stroke="black" stroke-width="2.66667"/>
<path d="M75.5565 391.532C75.5565 393.005 74.3626 394.199 72.8898 394.199C71.4171 394.199 70.2231 393.005 70.2231 391.532C70.2231 390.059 71.4171 388.865 72.8898 388.865C74.3626 388.865 75.5565 390.059 75.5565 391.532Z" fill="black"/>
<path d="M87.4188 391.532C87.4188 393.005 86.2249 394.199 84.7521 394.199C83.2794 394.199 82.0854 393.005 82.0854 391.532C82.0854 390.059 83.2794 388.865 84.7521 388.865C86.2249 388.865 87.4188 390.059 87.4188 391.532Z" fill="black"/>
<path d="M73.5156 402.102C78.6047 400.14 81.3931 400.19 86.2713 401.964" stroke="black" stroke-width="2" stroke-linecap="round"/>
<path d="M79.1491 403.928C80.3856 403.244 81.0043 403.328 81.9454 404.496" stroke="black" stroke-width="1.33333" stroke-linecap="round"/>
<path d="M75.6504 368.151C79.2241 367.888 82.4517 367.671 84.792 367.552C85.9589 367.493 86.9234 367.457 87.6042 367.452C87.9382 367.45 88.2381 367.455 88.47 367.473C88.5756 367.482 88.7305 367.498 88.8854 367.537C88.9537 367.554 89.112 367.597 89.283 367.697C89.4057 367.769 89.9108 368.091 89.9579 368.779C89.9576 368.775 89.9596 368.796 89.9674 368.861C89.9744 368.919 89.9839 368.997 89.9969 369.093C90.0229 369.285 90.0595 369.539 90.1039 369.843C90.1927 370.45 90.3121 371.241 90.444 372.101C90.7079 373.819 91.0197 375.8 91.2258 377.1L91.4581 378.568L89.9743 378.641L52.7532 380.477L51.0323 380.562L51.3821 378.875L53.0252 370.941L53.2261 369.969L54.2157 369.883C59.928 369.387 68.4998 368.676 75.6504 368.151Z" fill="white" stroke="black" stroke-width="2.66667"/>
<path d="M69.4233 385.665C72.1108 386.834 73.631 387.135 76.3566 386.993" stroke="black" stroke-width="2" stroke-linecap="round"/>
<path d="M88.2036 385.665C85.5161 386.834 83.996 387.135 81.2703 386.993" stroke="black" stroke-width="2" stroke-linecap="round"/>
</g>
<defs>
<clipPath id="clip0_244_1912">
<rect width="390" height="781" fill="white" transform="translate(0.390625 0.5)"/>
</clipPath>
</defs>
</svg>
