<svg width="390" height="782" viewBox="0 0 390 782" fill="none" xmlns="http://www.w3.org/2000/svg">
<g clip-path="url(#clip0_244_1912)">
<rect width="390" height="781" transform="translate(0 0.5)" fill="white"/>
<rect y="451.5" width="390" height="330" fill="#B8D545"/>
<rect y="0.5" width="390" height="451" fill="#C6F5FF"/>
<ellipse cx="86.7257" cy="486.858" rx="55.757" ry="20.9595" fill="black" fill-opacity="0.1"/>
<path d="M220.552 169.17C221.791 168.371 233.956 167.788 240.03 167.644C240.03 165.559 240.468 161.785 240.617 160.326C241.055 158.001 241.641 156.538 242.149 155.374C244.146 151.397 247.296 144.967 251.282 143.697C255.838 142.245 262.195 142.66 267.747 144.084C275.991 146.199 283.95 147.917 287.193 150.283C288.787 151.446 289.57 152.305 290.396 152.021C290.836 151.87 291.333 151.482 291.635 150.997C292.728 149.243 292.902 145.659 297.922 144.794C302.546 143.997 307.972 144.22 309.738 145.462C312.451 147.369 315.622 149.504 318.205 153.425C320.176 156.416 320.391 160.165 322.747 160.348C326.469 160.637 330.901 159.882 333.241 161.664C335.354 163.273 337.22 164.749 337.688 166.998C338.559 171.182 338.733 179.636 335.853 181.589C334.023 182.83 318.952 178.715 318.267 184.593C317.978 187.074 317.976 189.331 317.389 190.349C317.093 190.862 316.716 191.377 315.252 192.331C308.326 196.844 304.75 198.433 301.615 197.711C297.816 196.835 294.724 194.871 285.918 192.237C284.25 191.738 283.744 192.136 283.525 192.686C283.09 193.778 282.363 194.528 281.55 195.534C279.433 198.157 277.665 200.026 275.42 200.491C271.218 201.363 263.889 201.369 261.181 199.309C257.538 196.537 256.611 193.481 254.037 192.239C253.596 192.027 253.163 192.316 252.723 192.609C250.969 193.778 247.827 196.226 243.654 196.036C235.458 195.661 226.672 194.831 223.157 190.036C220.315 186.159 215.286 172.566 220.552 169.17Z" fill="white" stroke="white" stroke-width="2.70914" stroke-linecap="round"/>
<path d="M57.0928 213.917C58.3321 213.118 70.4972 212.536 76.571 212.391C76.571 210.307 77.0089 206.532 77.1578 205.074C77.5957 202.749 78.1825 201.286 78.6905 200.121C80.6873 196.145 83.837 189.714 87.8231 188.444C92.3795 186.993 98.7361 187.407 104.288 188.832C112.532 190.947 120.491 192.665 123.734 195.03C125.328 196.193 126.111 197.053 126.937 196.769C127.377 196.618 127.874 196.23 128.176 195.744C129.269 193.99 129.443 190.406 134.463 189.541C139.087 188.744 144.513 188.967 146.28 190.209C148.992 192.116 152.163 194.252 154.746 198.172C156.717 201.163 156.932 204.913 159.288 205.096C163.01 205.385 167.442 204.629 169.782 206.412C171.895 208.021 173.761 209.497 174.229 211.745C175.1 215.93 175.274 224.383 172.394 226.337C170.564 227.578 155.493 223.463 154.808 229.341C154.519 231.821 154.517 234.078 153.93 235.097C153.634 235.609 153.257 236.124 151.793 237.078C144.867 241.591 141.291 243.181 138.156 242.458C134.357 241.582 131.265 239.619 122.459 236.984C120.791 236.485 120.285 236.884 120.066 237.433C119.631 238.526 118.904 239.275 118.091 240.282C115.974 242.905 114.206 244.773 111.961 245.239C107.759 246.11 100.43 246.117 97.722 244.057C94.0786 241.285 93.152 238.229 90.5775 236.986C90.1374 236.774 89.7039 237.063 89.2638 237.357C87.51 238.526 84.3685 240.974 80.1947 240.783C71.9992 240.409 63.2125 239.579 59.6984 234.784C56.8564 230.906 51.8269 217.313 57.0928 213.917Z" fill="white" stroke="white" stroke-width="2.70914" stroke-linecap="round"/>
<path d="M434.791 391.862H174.791C185.403 373.733 226.703 337.43 307.002 337.253C387.301 337.076 425.653 373.585 434.791 391.862Z" fill="#E1A45D"/>
<rect x="206.849" y="391.862" width="195.884" height="78.0442" fill="#E0C6A4"/>
<rect x="198.703" y="391.862" width="8.32774" height="88.5277" fill="#9F6124"/>
<rect x="207.207" y="426.154" width="195.526" height="5.64406" fill="#B6743D"/>
<rect x="207.207" y="469.693" width="195.526" height="6.4426" fill="#BB9B7F"/>
<rect x="303.343" y="391.862" width="8.32774" height="88.5277" fill="#9F6124"/>
<rect x="233.856" y="409.584" width="20.9053" height="38.7834" fill="#9F6124"/>
<rect x="255.612" y="409.584" width="20.9053" height="38.7834" fill="#9F6124"/>
<rect x="323.777" y="402.815" width="32.5627" height="57.9657" fill="#9F6124"/>
<rect x="236.049" y="412.71" width="16.5194" height="32.5325" fill="#EDE4D3"/>
<rect x="257.805" y="412.71" width="16.5194" height="32.5325" fill="#EDE4D3"/>
<rect x="328.333" y="405.657" width="23.4506" height="52.2825" fill="#EDE4D3"/>
<rect x="357.883" y="402.815" width="32.5627" height="57.9657" fill="#9F6124"/>
<rect x="362.439" y="405.657" width="23.4506" height="52.2825" fill="#EDE4D3"/>
<path d="M137.292 569.37V579.136" stroke="#529C47" stroke-width="2" stroke-linecap="round"/>
<path d="M142.432 570.398V580.164" stroke="#529C47" stroke-width="2" stroke-linecap="round"/>
<path d="M151.935 572.614L148.676 580.164" stroke="#529C47" stroke-width="2" stroke-linecap="round"/>
<path d="M36.3823 589.031V598.796" stroke="#C6DB64" stroke-width="2" stroke-linecap="round"/>
<path d="M41.522 590.059V599.824" stroke="#C6DB64" stroke-width="2" stroke-linecap="round"/>
<path d="M51.0249 592.274L47.7658 599.824" stroke="#C6DB64" stroke-width="2" stroke-linecap="round"/>
<path d="M160.148 512.757V522.522" stroke="#C6DB64" stroke-width="2" stroke-linecap="round"/>
<path d="M165.288 513.785V523.55" stroke="#C6DB64" stroke-width="2" stroke-linecap="round"/>
<path d="M174.791 516L171.532 523.55" stroke="#C6DB64" stroke-width="2" stroke-linecap="round"/>
<path d="M323.777 525.308V535.073" stroke="#529C47" stroke-width="2" stroke-linecap="round"/>
<path d="M328.917 526.336V536.101" stroke="#529C47" stroke-width="2" stroke-linecap="round"/>
<path d="M338.419 528.551L335.16 536.101" stroke="#529C47" stroke-width="2" stroke-linecap="round"/>
<path d="M220.849 553.099C221.15 554.002 221.455 554.969 221.733 555.83C221.861 556.188 221.961 556.389 222.189 556.994C222.416 557.599 222.767 558.603 223.281 559.94" stroke="#529C47" stroke-width="2" stroke-linecap="round"/>
<path d="M229.21 552.643V559.788" stroke="#529C47" stroke-width="2" stroke-linecap="round"/>
<path d="M233.642 561.923C233.671 561.964 233.699 562.005 234.278 561.387C234.856 560.77 235.982 559.492 236.665 558.762C237.348 558.031 237.554 557.888 237.678 557.615" stroke="#529C47" stroke-width="2" stroke-linecap="round"/>
<path d="M287.416 587.701C287.717 588.832 288.023 590.042 288.301 591.12C288.428 591.569 288.529 591.82 288.756 592.577C288.983 593.335 289.335 594.591 289.848 596.266" stroke="#529C47" stroke-width="2" stroke-linecap="round"/>
<path d="M295.777 587.131V596.075" stroke="#529C47" stroke-width="2" stroke-linecap="round"/>
<path d="M300.209 598.748C300.238 598.799 300.267 598.851 300.845 598.077C301.423 597.304 302.549 595.704 303.232 594.79C303.916 593.876 304.121 593.696 304.246 593.354" stroke="#529C47" stroke-width="2" stroke-linecap="round"/>
<path d="M160.148 607.638C160.449 608.541 160.755 609.507 161.033 610.368C161.161 610.727 161.261 610.927 161.489 611.532C161.716 612.137 162.067 613.141 162.581 614.479" stroke="#C6DB64" stroke-width="2" stroke-linecap="round"/>
<path d="M168.51 607.182V614.327" stroke="#C6DB64" stroke-width="2" stroke-linecap="round"/>
<path d="M172.942 616.461C172.971 616.502 172.999 616.543 173.577 615.926C174.155 615.308 175.282 614.03 175.965 613.3C176.648 612.57 176.853 612.426 176.978 612.153" stroke="#C6DB64" stroke-width="2" stroke-linecap="round"/>
<path d="M269.862 513.66C270.163 514.563 270.469 515.53 270.747 516.39C270.875 516.749 270.975 516.95 271.202 517.555C271.43 518.16 271.781 519.163 272.295 520.501" stroke="#C6DB64" stroke-width="2" stroke-linecap="round"/>
<path d="M278.224 513.204V520.349" stroke="#C6DB64" stroke-width="2" stroke-linecap="round"/>
<path d="M282.656 522.484C282.684 522.525 282.713 522.566 283.291 521.948C283.869 521.33 284.996 520.052 285.679 519.322C286.362 518.592 286.567 518.448 286.692 518.176" stroke="#C6DB64" stroke-width="2" stroke-linecap="round"/>
<path d="M54.7905 543.781C55.0915 544.684 55.3971 545.651 55.6753 546.511C55.803 546.87 55.9033 547.071 56.1306 547.676C56.3579 548.281 56.709 549.284 57.2229 550.622" stroke="#529C47" stroke-width="2" stroke-linecap="round"/>
<path d="M63.1519 543.325V550.47" stroke="#529C47" stroke-width="2" stroke-linecap="round"/>
<path d="M67.5839 552.604C67.6126 552.646 67.6414 552.687 68.2194 552.069C68.7975 551.451 69.9239 550.173 70.607 549.443C71.29 548.713 71.4956 548.569 71.6202 548.296" stroke="#529C47" stroke-width="2" stroke-linecap="round"/>
</g>
<defs>
<clipPath id="clip0_244_1912">
<rect width="390" height="781" fill="white" transform="translate(0 0.5)"/>
</clipPath>
</defs>
</svg>
