<svg width="100" height="25" viewBox="0 0 100 25" fill="none" xmlns="http://www.w3.org/2000/svg">
<path d="M2.56 6.2C2.48 6.04 2.4 5.82 2.58 5.58C2.66 5.5 2.86 5.48 3.08 5.3C3.2 5.22 3.36 5.06 3.82 5.08C4.12 5.1 4.28 5.22 4.4 5.34C4.52 5.48 4.66 5.42 4.82 5.44C5.06 5.5 5.62 5.54 5.88 5.56C6.14 5.56 6.5 5.7 7.18 5.64C7.48 5.62 7.92 5.68 8.28 5.7C8.6 5.7 9.34 5.38 9.68 5.4C10 5.42 10.2 5.26 10.82 5.08C11.28 4.98 11.72 5.14 12.24 5.16C12.58 5.18 12.7 5.16 12.82 5.2C13.06 5.32 13.26 5.26 13.42 5.4C13.54 5.5 13.46 5.56 13.54 5.7L13.78 6.06C13.96 6.36 13.7 6.72 13.56 6.94C13.36 7.32 13.32 7.44 12.78 7.6C12.46 7.74 12.02 7.9 11.66 8.14C11.3 8.42 11.04 8.48 10.64 8.8L10.46 8.96C10.34 9.12 10.16 9.2 10.04 9.3C10.02 9.48 10.2 9.58 10.54 9.74C10.54 9.74 11 9.76 11.24 9.96C11.48 10.12 11.88 10.26 12.18 10.26C12.42 10.28 12.58 10.42 12.8 10.42C13.46 10.44 13.54 10.48 14.06 10.64C14.48 10.96 14.9 11.08 15.1 11.12C15.32 11.22 15.72 11.28 16.08 11.42C16.44 11.54 16.8 11.8 16.8 11.92C16.8 12.06 16.84 12.2 16.8 12.36C16.66 12.64 16.78 12.78 16.52 12.92C16.08 13.22 15.72 13.22 15.26 13.12C15.02 13.06 14.76 13.02 14.54 12.94C14.38 12.9 14.22 12.82 14.06 12.74C13.68 12.64 13.48 12.62 13.08 12.4C12.44 12.02 11.74 11.7 11.06 11.42C10.86 11.32 10.68 11.22 10.56 11.08C10.3 10.8 10.12 10.76 9.8 10.58C9.58 10.54 9.28 10.52 9.12 10.52C8.76 10.72 8.32 10.78 7.96 11.02C7.7 11.22 7.64 11.4 7.38 11.56C7.14 11.72 6.9 11.76 6.64 11.84C6.34 11.96 6.1 12.12 5.8 12.32C5.6 12.46 5.6 12.42 5.26 12.66C4.9 12.88 4.7 13.32 4.34 13.62C4.1 13.84 3.84 14 3.62 14.12C3.44 14.24 2.96 14.32 2.84 14.52C2.66 14.78 2.44 14.96 2.08 15C1.88 15.04 1.76 15.14 1.5 14.98C1.22 14.86 1.08 14.68 1.02 14.5C0.9 14.22 0.88 14.1 1.04 13.84C1.18 13.58 1.46 13.5 1.64 13.28C1.82 13.02 2.08 12.82 2.36 12.66C2.6 12.5 2.7 12.28 2.96 12.22C3.12 12.18 3.48 11.8 3.7 11.7C4.04 11.6 4.16 11.62 4.4 11.36C4.66 11.06 4.84 11.08 5.18 10.88C5.56 10.62 5.64 10.64 6.04 10.42C6.3 10.22 6.38 10.28 6.44 10.14C6.5 10 6.88 9.76 7.18 9.6C7.46 9.48 7.68 9.3 7.9 9.08C8.18 8.88 8.54 8.34 8.86 8.16C9 8.06 9.16 8.02 9.26 7.94C9.42 7.8 10.2 7.5 10.38 7.2C10.52 6.92 11 6.9 11 6.72C11 6.66 10.26 6.7 10.26 6.7C10.14 6.7 9.38 6.86 9.28 6.9C9.1 6.98 8.82 7.02 8.58 7.1C8.3 7.2 8.16 7.32 7.86 7.32C7.66 7.32 7.2 7.24 7.02 7.28C6.5 7.34 5.96 7.26 5.46 7.32C5 7.38 4.54 7.08 4.08 7.06C3.8 7.04 3.22 6.9 3.1 6.8C3.06 6.76 2.74 6.62 2.72 6.44C2.7 6.26 2.56 6.2 2.56 6.2ZM8.12 12.76C8.16 12.68 8.18 12.58 8.28 12.48C8.44 12.32 8.7 12.36 8.9 12.44C9.08 12.5 9.48 12.52 9.54 12.72C9.54 12.72 9.72 13.16 9.76 13.34C9.84 13.5 9.82 13.76 9.9 13.86C9.98 14.02 9.98 14.1 10 14.24C9.98 14.38 9.98 14.46 9.92 14.58C9.88 14.66 10 14.9 9.98 14.98C9.88 15.1 9.98 15.44 9.9 15.74C9.88 15.82 10.04 15.94 10 16C9.9 16.08 10.14 16.56 10 16.68C9.88 16.8 10.08 16.7 10.18 16.72C10.3 16.74 10.48 16.72 10.64 16.72C10.72 16.72 11.02 16.68 11.2 16.68C11.26 16.68 11.56 16.62 12.14 16.52C12.72 16.44 12.7 16.42 12.88 16.38C13.12 16.36 13.38 16.46 13.64 16.38C13.82 16.3 14.06 16.44 14.48 16.36C14.9 16.26 15.76 16.44 15.86 16.44C16.02 16.44 16.48 16.42 17 16.66C17.36 16.82 17.7 16.98 17.6 17.32C17.52 17.58 17.5 17.82 17.4 17.98C17.36 18.14 17.2 18.24 16.84 18.3C16.7 18.32 16.44 18.34 16.32 18.28C16.06 18.14 15.88 18.24 15.72 18.24C15.46 18.24 15.22 18.38 15.06 18.38C14.96 18.38 14.72 18.48 14.62 18.48C14.46 18.48 14.2 18.42 14.12 18.42C13.96 18.42 13.26 18.46 13.18 18.46C13.02 18.46 12.68 18.38 12.4 18.4C12.06 18.42 11.66 18.28 11.48 18.28C11.42 18.28 10.8 18.3 10.6 18.34C9.98 18.46 9.2 18.28 8.36 18.44C8.24 18.46 8.12 18.56 7.96 18.56C7.66 18.56 7.36 18.64 7.06 18.62C6.88 18.6 6.02 18.62 5.78 18.62C5.6 18.62 4.94 18.7 4.7 18.7C4.54 18.7 4.18 18.42 3.8 18.66C3.3 18.82 3.08 18.84 2.92 18.92C2.74 19 2.46 18.92 2.32 18.92C2.16 18.92 1.94 18.96 1.76 18.92C1.42 18.84 1.18 18.66 1 18.52C1 18.52 0.84 18.38 0.82 18.24C0.76 17.62 0.9 17.52 1.56 17.22C1.72 17.14 2.08 16.94 2.2 16.96C2.42 17 2.54 17.04 2.54 17.04C2.86 17.1 2.92 16.78 3.24 16.84L3.98 16.96C4.22 17 4.46 16.94 4.74 16.9C5 16.86 5.22 16.9 5.32 16.9C5.46 16.9 5.64 16.92 5.78 16.9C6.04 16.86 5.98 16.86 6.22 16.8C6.5 16.72 6.94 16.68 7.14 16.7C7.28 16.68 8 16.78 8.16 16.7C8.32 16.62 8.24 16.3 8.28 16.22C8.36 16.04 8.32 16.04 8.34 15.96C8.36 15.8 8.26 15.4 8.26 15.4C8.24 14.9 8.22 14.64 8.16 14.26C8.1 14.12 8.24 13.88 8.24 13.8C8.28 13.62 8.06 13.46 8.12 13.28C8.18 13.1 8.06 12.88 8.12 12.76ZM23.6631 15.08C23.5431 15.32 23.0831 15.46 22.9231 15.66C22.7031 15.92 22.3431 15.88 22.1631 16.18C21.9831 16.48 21.7831 16.64 21.5631 16.72C21.2031 16.86 20.9631 17.06 20.5431 17.1C20.1231 17.06 20.0631 17.26 19.8231 17.12C19.6631 17.02 19.5631 16.98 19.4031 16.9C19.2631 16.8 19.2431 16.64 19.3831 16.46C19.4831 16.36 19.5631 16.3 19.7431 16.16C20.0231 15.94 20.0231 15.9 20.1231 15.78C20.2231 15.62 20.3431 15.5 20.4831 15.36C20.6831 15.2 21.4431 14.6 21.4831 14.52C21.6031 14.36 21.7631 14.18 22.0031 14C22.2031 13.86 22.6631 13.84 22.8031 13.7C22.9631 13.56 23.5631 12.94 23.8231 12.78C24.1231 12.64 24.5631 12.2 24.6631 12.06C24.7431 11.92 24.8431 11.62 24.8431 11.48L24.7431 10.9C24.7431 10.64 24.0231 10.38 23.8431 10.32C23.5831 10.22 23.0831 10.02 22.8631 10.12C22.5431 10.28 22.6031 10.42 22.3631 10.72C22.1231 11 21.8431 11.3 21.4031 11.44L20.7431 11.86C20.2431 12.06 20.2831 12.14 19.7831 12.1C19.3031 12.04 19.1631 11.44 19.0631 10.98C18.9631 10.56 19.7431 10.36 20.1831 10.02C20.6031 9.7 21.0831 9.38 21.3831 9.08C21.5231 8.9 21.8431 8.48 22.0031 8.32C22.5831 7.7 22.8031 7.32 22.8031 7.02C22.8031 6.82 22.9031 6.6 23.0231 6.34C23.1231 6.06 23.2431 5.76 23.3031 5.4C23.3631 4.98 23.1031 4.84 22.9031 4.66C22.7831 4.56 22.7031 4.42 22.7231 4.22C22.9431 3.88 23.4031 3.86 23.9831 4.06C24.5631 4.26 25.0231 4.98 25.0231 5.28C25.0231 5.44 25.1431 5.92 25.0031 6.4C24.9031 6.72 24.5431 7.02 24.4631 7.18C24.2631 7.58 24.1831 8.26 24.2631 8.66C24.3631 9.04 25.0631 9.04 25.4631 8.9C25.6431 8.84 26.0431 9.06 26.2031 9.1C26.6431 9.22 26.7231 9.52 26.8831 9.66C26.9231 9.7 27.0431 9.76 27.1631 9.92C27.7231 9.86 28.3431 9.82 28.6031 9.86C28.8231 9.9 29.6831 9.76 30.1431 9.7C30.4231 9.64 30.9031 9.64 31.5631 9.68C32.2231 9.72 32.5431 9.38 32.7631 9.12C32.9431 8.88 32.8031 8.68 32.7231 8.12C32.7031 7.92 32.6831 7.72 32.6831 7.52C32.6631 6.98 32.7431 6.68 32.7031 6.4C32.6631 6.18 32.6031 5.96 32.2231 5.6C32.0231 5.4 31.7831 5.18 31.7431 4.98C31.6031 4.42 31.7231 3.84 31.9631 3.66C32.2631 3.44 32.3631 3.44 32.7031 3.52C32.8431 3.54 32.8831 3.56 33.0631 3.7C33.0631 3.7 33.4031 3.84 33.5831 3.9C33.7631 3.96 33.8031 4.1 33.9031 4.18C34.0231 4.28 33.9431 4.56 34.0631 4.7C34.1831 4.84 34.2431 5.24 34.3831 5.78C34.4431 6.04 34.5831 6.58 34.4431 6.86C34.3631 7.02 34.3831 7.56 34.3831 7.68L34.5031 8.4L34.4431 9.46L34.4031 10.28C34.3831 10.56 34.4431 10.94 34.4431 11.14C34.4231 11.34 34.5031 11.78 34.4831 12.12C34.4631 12.5 34.3031 13.16 34.2631 13.64L34.3431 14.06C34.3231 14.18 34.2431 14.92 34.1431 15.06C34.0431 15.2 34.2431 15.34 34.1031 15.54C33.9231 15.72 33.7031 16.08 33.5231 16.18C33.3231 16.26 33.2031 16.1 33.0431 16.08C32.9231 16.08 32.7031 15.78 32.6231 15.48C32.5431 15.2 32.5431 15.12 32.5231 14.82C32.4831 14.52 32.4831 14.56 32.5031 14.36C32.5031 14.18 32.4431 13.78 32.4431 13.78C32.4431 13.78 32.4831 13.6 32.6631 13.36C32.8031 13.12 32.6431 12.92 32.6631 12.72C32.6631 12.54 32.7831 11.88 32.7031 11.74C32.6031 11.58 32.4631 11.52 32.2031 11.38C32.0231 11.3 31.5031 11.26 31.2631 11.26C30.9631 11.26 30.8031 11.2 30.6031 11.2L29.3631 11.36C29.0831 11.36 28.5431 11.58 28.1431 11.46C28.0231 11.46 27.1631 11.5 26.6031 11.52L26.5831 11.56C26.4031 11.84 26.2431 12.68 25.9431 13.04C25.6631 13.36 25.4231 13.7 25.2431 13.8C25.0431 13.9 24.9431 14.06 24.7031 14.24C24.4631 14.5 24.2031 14.68 23.9231 14.92C23.8431 15 23.6431 15 23.6631 15.08ZM23.5431 18.14C23.2631 17.66 22.9231 17.2 22.9831 16.94C23.0631 16.52 23.8431 16.44 24.2831 16.54C24.5631 16.62 24.8831 16.76 24.9831 16.76C25.1831 16.82 25.4231 16.9 25.4631 17.04C25.5231 17.16 25.6631 17.6 25.8231 17.68C26.0831 17.78 25.8831 18.38 26.3031 18.46C26.5431 18.52 26.7431 18.72 26.8831 18.78C27.1031 18.88 27.9631 19.02 28.1031 19.02C28.2431 19.02 29.0031 19 29.2431 19.04C29.4831 19.08 29.7831 19 29.8631 19C30.0631 18.98 30.6031 19.06 31.1631 19.16C31.4231 19.18 31.9031 18.96 32.3831 18.94C32.8631 18.92 33.2231 18.66 33.3431 18.66C33.8031 18.62 34.0831 18.68 34.3431 18.66C34.5631 18.66 35.2031 19.14 35.4631 19.44C35.5631 19.56 35.4031 20.08 35.3431 20.26C35.2431 20.44 34.8631 20.56 34.2831 20.58C33.8231 20.6 33.5631 20.7 33.3031 20.7C32.6831 20.72 32.7231 20.6 32.4231 20.72C32.2431 20.8 31.4831 20.76 31.1831 20.78C30.9031 20.78 30.7631 20.7 30.5431 20.72C30.4031 20.72 29.9431 20.86 29.4431 20.8C28.8231 20.72 28.4431 20.86 28.2431 20.78C28.0631 20.68 26.9631 20.9 26.7031 20.84C26.5631 20.82 25.9631 20.74 25.7031 20.62C25.4631 20.48 25.1631 20.4 25.0631 20.26C24.9631 20.1 24.3431 19.12 24.1431 18.94C23.9231 18.7 23.6431 18.28 23.5431 18.14ZM55.5577 9.84C55.8977 10.38 55.6577 10.76 55.5577 11.22C55.4777 11.62 55.0777 12.18 54.8777 12.32L53.8977 13.04C53.5577 13.28 53.2977 13.34 52.8777 13.54C52.4777 13.72 51.8577 13.8 51.1977 13.68C50.5177 13.58 50.3177 13.32 49.4377 12.9C48.5377 12.5 48.5177 11.78 48.5777 11.34C48.6177 10.92 48.5977 10.42 48.5777 9.84C48.5377 9.28 49.0577 9.18 49.3377 8.88C49.5977 8.58 49.7577 8.16 49.9777 7.9C50.1777 7.6 50.6377 7.44 51.1977 7.4C51.1977 7.4 51.6777 7.34 52.1177 7.4C52.6177 7.48 52.7777 7.48 53.5177 7.76C54.1777 8.08 54.2977 8.36 54.5177 8.62C54.7577 8.88 55.2177 9.34 55.5577 9.84ZM56.1777 13.68C56.6577 13.66 57.5777 13.66 58.0377 13.72C57.8777 13.68 59.0977 13.58 59.2377 13.78C59.3577 13.98 59.4977 14.1 59.4777 14.66C59.4777 15.22 59.1977 15.28 58.6177 15.5C58.0577 15.72 57.5577 15.52 57.0777 15.48C56.6177 15.46 55.0977 15.52 54.3177 15.5C53.5177 15.5 53.6377 15.68 53.3377 15.72C52.9777 15.76 53.0977 16.12 53.1177 16.3C53.1377 16.44 53.3577 18.76 53.2377 19.38C53.1177 20 53.2377 19.92 53.1377 20.16C53.0177 20.42 52.5177 20.68 52.1977 20.68C51.7977 20.68 51.5977 20.38 51.4777 20.2C51.3177 19.92 51.2977 19.36 51.3177 19.04C51.3377 18.76 51.4177 16.92 51.4177 16.32C51.4177 15.7 50.8377 15.88 50.3777 15.84C49.9377 15.8 50.1177 15.82 49.4177 15.9C48.7177 15.96 47.4177 16.04 46.0977 16.22C45.4577 16.3 44.7177 16.18 44.3377 15.84C43.9177 15.46 43.9177 14.78 44.0177 14.48C44.0977 14.3 44.4177 14.16 44.8577 14.1C45.6377 13.96 46.7177 14.14 46.9777 14.18C47.4377 14.26 49.1577 14.14 49.4177 14.16C49.6777 14.22 50.3577 14.18 50.9377 14.22C51.5177 14.26 52.5377 14.2 53.0977 14.08C53.6377 13.9 54.1177 13.98 54.1177 13.98C54.1177 13.98 54.7377 13.86 54.9177 13.8C55.0377 13.78 55.5577 13.72 56.1777 13.68ZM50.8577 5.78C50.8577 5.78 51.7977 5.82 52.2577 5.78C52.7377 5.7 52.7977 5.64 53.4777 5.58C54.0777 5.52 54.6977 5.46 55.1577 5.44C55.6377 5.4 56.4177 5.34 56.8177 5.44C57.2377 5.5 57.9577 5.5 58.2377 5.78C58.5577 6.02 58.4977 6.44 58.3377 6.94C58.2177 7.3 57.6377 7.34 57.1777 7.22C56.6977 7.1 56.3777 7.08 56.0577 7.08H53.5377C53.0777 7.08 52.4377 7.14 51.7577 7.2C51.3177 7.24 50.8577 7.26 50.3977 7.26C49.9777 7.26 49.6977 7.28 49.4577 7.32C49.0177 7.38 48.7977 7.52 48.1177 7.58C47.1377 7.68 47.0577 7.58 46.4377 7.58C45.7977 7.58 45.4977 7.16 45.1977 6.6C44.9177 6.08 45.3777 5.96 45.5377 5.72C45.6977 5.46 46.5977 5.78 46.9377 5.76C47.2577 5.76 48.1777 5.86 48.6177 5.78C49.0577 5.64 49.0777 5.86 49.6177 5.78C50.0977 5.64 50.4177 5.78 50.8577 5.78ZM52.5777 3.34C52.5777 3.34 53.3177 3.22 53.8977 3.22C54.5177 3.22 54.6177 3.38 54.9977 3.46C55.3577 3.54 54.9977 3.96 54.9977 4.54C54.9977 5.14 54.4577 4.8 53.8977 4.9C53.5177 4.96 53.0177 4.92 52.3377 4.94C51.9377 4.94 51.4777 4.96 50.9577 5.02C50.3977 5.08 49.9577 5.04 49.6177 4.94C49.1177 4.8 48.8377 4.52 48.6577 4.16C48.5177 3.9 48.5577 3.76 48.6577 3.66C48.8177 3.56 49.0777 3.48 49.2577 3.34C49.5977 3.08 50.4177 3.34 51.0177 3.34C51.6177 3.34 51.9977 3.32 52.5777 3.34ZM53.7777 11.28C53.9177 10.8 54.0977 10.72 53.9977 10.4C53.8977 10.08 53.5977 9.7 53.5177 9.56C53.3977 9.42 53.1377 9.24 52.8377 9.04C52.5777 8.86 51.8377 8.7 51.6977 8.78C51.5377 8.86 51.2377 8.9 50.9777 9.04C50.8177 9.14 50.6777 9.28 50.6377 9.5C50.5377 9.96 50.4377 10.48 50.4577 10.82C50.4777 11.18 50.7577 11.42 51.0177 11.7C51.2377 11.98 51.0977 12.08 51.6177 12.22C52.1377 12.36 53.0777 12.1 53.3177 11.88C53.5377 11.64 53.5777 11.72 53.7777 11.28ZM70.7608 5.84C71.0008 5.92 71.3608 6.52 71.6008 7.04C71.7208 7.26 71.4608 7.62 71.5608 7.88C71.6608 8.2 71.5808 8.26 71.4608 8.56C71.2008 9.2 71.1608 9.96 70.8208 10.42C70.5208 10.8 70.3208 11.12 70.1608 11.64C70.0608 11.96 69.5808 12.26 69.3408 12.56L68.9408 13.04C68.7208 13.34 68.5608 13.58 68.2608 13.88C67.6608 14.5 67.4008 14.6 67.3008 14.88C67.2208 15.1 66.5808 15.68 66.0808 15.96C65.7608 16.12 65.3208 16.36 64.9408 16.5C64.2608 16.76 63.6808 16.8 63.2808 16.76C62.5808 16.68 62.4608 16.38 62.8208 15.68C62.9408 15.4 63.8808 15.12 63.9808 14.96C64.1208 14.7 64.6808 14.66 65.2608 14.24C65.5008 14.1 65.6808 13.58 65.9008 13.4C66.1208 13.26 66.4608 12.92 66.7808 12.58C67.0808 12.24 67.3608 11.94 67.4408 11.82C68.1008 10.94 68.7408 10.4 69.1808 9.64C69.3008 9.46 69.3208 9.04 69.3808 8.84C69.4808 8.56 69.5808 8.52 69.5008 8.28C69.4208 8.06 69.6808 7.9 69.4208 7.74C69.0808 7.54 68.3208 7.76 67.9408 7.92C67.7208 8.02 67.1008 8 66.8608 8.14C66.6208 8.26 66.3408 7.96 66.0408 8.08C65.5008 8.3 64.6408 8.2 64.1808 8.18C63.4208 8.14 63.1408 8.14 62.8208 7.82C62.1608 7.18 62.2608 6.74 62.8208 6.3C63.3408 5.86 64.1208 6.3 64.1208 6.3H65.0408C65.5408 6.3 66.1608 6.22 66.5408 6.22C67.3008 6.22 68.6008 6.16 69.3408 5.84C70.1008 5.52 70.7608 5.84 70.7608 5.84ZM74.1008 5.22C74.2008 4.86 73.9808 4.04 74.2208 3.94C74.3608 3.9 74.4608 3.32 74.6208 3.32C74.8008 3.3 75.3408 3.4 75.5208 3.42C75.7008 3.44 76.1408 4.1 76.2808 4.3C76.6808 4.8 76.5808 5.56 76.5208 6.12C76.5208 6.46 76.5808 7.26 76.5808 8.24C76.5808 8.8 76.5408 9.4 76.4808 10C76.3608 10.9 76.8608 12.78 76.4208 13.62C76.1808 14.06 76.6408 15.04 76.6408 15.46C76.6408 16 76.6208 16.56 76.5608 17.18C76.4808 18.06 76.2408 18.72 75.9208 19.16C75.7408 19.46 75.5008 19.66 75.2808 19.82C74.9808 20.02 74.6808 20.1 74.4408 20.1C74.0008 20.1 74.1408 19.58 74.2408 18.72C74.3008 18.2 73.9808 17.74 74.3608 17.14C74.6208 16.74 74.4208 16 74.4408 15.58C74.4808 14.88 74.4208 13.8 74.4408 13.18C74.4608 12.4 74.5208 10.62 74.3808 10.24C74.0608 9.36 74.5008 8.28 74.3808 7C74.2608 5.74 73.8808 6 74.1008 5.22Z" fill="black" fill-opacity="0.5"/>
<path d="M98.4356 9.83339L91.9998 16.2692L85.564 9.83339L86.5101 8.88723L91.9998 14.3771L97.4895 8.88723L98.4356 9.83339Z" fill="black" fill-opacity="0.5"/>
</svg>
