<svg width="93" height="93" viewBox="0 0 93 93" fill="none" xmlns="http://www.w3.org/2000/svg">
<g filter="url(#filter0_g_230_1196)">
<rect x="6.70654" y="22.4146" width="79.7333" height="47.84" fill="#D6CFBD"/>
</g>
<rect x="12.2589" y="26.4952" width="69.2085" height="38.9099" stroke="#7D755E" stroke-width="0.9568" stroke-dasharray="1.28 2.55 3.83 5.1"/>
<path d="M17.1395 31.9626H24.9878V32.7077H17.1395V31.9626ZM16.4863 36.8614H25.641V37.6065H16.4863V36.8614ZM20.6299 28.707H21.4464V37.3411H20.6299V28.707ZM32.6422 28.6763H33.3668V35.7898H32.6422V28.6763ZM29.4376 32.8812L34.9283 30.5644L35.2243 31.2176L29.7233 33.5649L29.4376 32.8812ZM30.5398 29.6255H31.2746V36.4634C31.2746 36.6471 31.295 36.79 31.3359 36.8921C31.3767 36.9873 31.4515 37.052 31.5604 37.086C31.6761 37.12 31.8496 37.137 32.0809 37.137C32.1489 37.137 32.2612 37.137 32.4177 37.137C32.5742 37.137 32.7545 37.137 32.9586 37.137C33.1695 37.137 33.3804 37.137 33.5914 37.137C33.8023 37.137 33.9928 37.137 34.1629 37.137C34.333 37.137 34.4589 37.137 34.5405 37.137C34.7446 37.137 34.8943 37.0996 34.9896 37.0247C35.0916 36.9431 35.1631 36.7968 35.2039 36.5859C35.2515 36.375 35.2889 36.0756 35.3161 35.6878C35.4046 35.7558 35.5135 35.817 35.6427 35.8715C35.7788 35.9259 35.8979 35.9599 35.9999 35.9735C35.9659 36.443 35.9047 36.8138 35.8162 37.086C35.7278 37.3581 35.5849 37.5486 35.3876 37.6575C35.1971 37.7732 34.9249 37.831 34.5711 37.831C34.5099 37.831 34.3942 37.831 34.2241 37.831C34.0608 37.831 33.8669 37.831 33.6424 37.831C33.4179 37.831 33.1933 37.831 32.9688 37.831C32.7443 37.831 32.547 37.831 32.3769 37.831C32.2136 37.831 32.1047 37.831 32.0503 37.831C31.6624 37.831 31.3563 37.7902 31.1317 37.7085C30.914 37.6337 30.7609 37.4942 30.6725 37.2901C30.584 37.0928 30.5398 36.8104 30.5398 36.443V29.6255ZM34.7957 30.6665H34.714L34.8875 30.5134L35.0304 30.4011L35.5713 30.6052L35.5305 30.7481C35.5305 31.2312 35.5271 31.6837 35.5203 32.1055C35.5203 32.5274 35.5169 32.9084 35.5101 33.2486C35.5033 33.5888 35.4931 33.8745 35.4794 34.1059C35.4658 34.3304 35.4522 34.4937 35.4386 34.5957C35.4114 34.7999 35.3502 34.9563 35.2549 35.0652C35.1597 35.1673 35.0338 35.2353 34.8773 35.2693C34.7412 35.3102 34.5813 35.334 34.3976 35.3408C34.2207 35.3476 34.0608 35.351 33.9179 35.351C33.9043 35.2489 33.8805 35.1333 33.8465 35.004C33.8193 34.8747 33.7819 34.7658 33.7342 34.6774C33.8567 34.6842 33.986 34.691 34.1221 34.6978C34.2649 34.6978 34.3636 34.6978 34.418 34.6978C34.4997 34.6978 34.5643 34.6808 34.6119 34.6468C34.6664 34.6128 34.7038 34.5379 34.7242 34.4222C34.7446 34.3542 34.7582 34.2181 34.765 34.014C34.7786 33.8031 34.7854 33.5343 34.7854 33.2077C34.7922 32.8812 34.7957 32.5035 34.7957 32.0749C34.7957 31.6462 34.7957 31.1768 34.7957 30.6665ZM26.5901 31.136H29.8254V31.8606H26.5901V31.136ZM27.8965 28.7988H28.6211V35.4224H27.8965V28.7988ZM26.4983 35.6776C26.7704 35.5755 27.0834 35.453 27.4372 35.3102C27.7978 35.1605 28.1788 35.004 28.5803 34.8407C28.9817 34.6706 29.3831 34.5005 29.7846 34.3304L29.9581 35.0142C29.4138 35.2659 28.8626 35.5177 28.3047 35.7694C27.7536 36.0212 27.2535 36.2457 26.8045 36.443L26.4983 35.6776ZM43.7666 30.789L44.5729 31.0339C44.1442 32.279 43.5931 33.354 42.9195 34.2589C42.2527 35.1639 41.4499 35.9259 40.5109 36.5451C39.5788 37.1642 38.4936 37.6745 37.2553 38.0759C37.228 38.0079 37.1838 37.9297 37.1226 37.8412C37.0682 37.7528 37.0069 37.6609 36.9389 37.5656C36.8776 37.4704 36.8198 37.3956 36.7654 37.3411C37.9765 36.9873 39.0345 36.5247 39.9394 35.9531C40.8443 35.3748 41.6132 34.6638 42.2459 33.8201C42.8787 32.9696 43.3856 31.9592 43.7666 30.789ZM39.1229 30.8502C39.4972 31.9388 40.0006 32.9186 40.6334 33.7895C41.273 34.6536 42.0554 35.385 42.9808 35.9837C43.9061 36.5825 44.9845 37.0281 46.216 37.3207C46.1548 37.3751 46.0867 37.4466 46.0119 37.535C45.9439 37.6303 45.8758 37.7255 45.8078 37.8208C45.7465 37.9161 45.6955 37.9977 45.6547 38.0657C44.396 37.7391 43.2971 37.2561 42.3582 36.6165C41.4261 35.9701 40.6334 35.1843 39.9802 34.2589C39.3271 33.3268 38.7895 32.2654 38.3677 31.0747L39.1229 30.8502ZM36.8776 30.4113H46.1038V31.1564H36.8776V30.4113ZM41.0621 28.6763H41.8479V30.8604H41.0621V28.6763ZM52.7376 28.7988H53.503V38.0657H52.7376V28.7988ZM50.9822 29.1866L51.717 29.3397C51.6217 29.8092 51.5061 30.2753 51.37 30.7379C51.2407 31.1938 51.091 31.619 50.9209 32.0137C50.7576 32.4083 50.5773 32.7621 50.38 33.0751C50.3324 33.0342 50.2677 32.99 50.1861 32.9424C50.1113 32.8948 50.0296 32.8471 49.9412 32.7995C49.8595 32.7519 49.7881 32.7145 49.7268 32.6872C49.9241 32.4083 50.101 32.0817 50.2575 31.7075C50.4208 31.3265 50.5637 30.9216 50.6862 30.493C50.8087 30.0643 50.9073 29.6289 50.9822 29.1866ZM51.074 30.7685H55.8504V31.5136H50.8903L51.074 30.7685ZM49.8085 33.7691H56.2994V34.5243H49.8085V33.7691ZM49.3084 28.7172L50.033 28.9315C49.8153 29.5098 49.5635 30.0813 49.2778 30.6461C48.9988 31.204 48.6926 31.7313 48.3592 32.228C48.0327 32.7179 47.6925 33.1567 47.3387 33.5445C47.3114 33.4833 47.2706 33.4051 47.2162 33.3098C47.1686 33.2145 47.1141 33.1193 47.0529 33.024C46.9985 32.922 46.9474 32.8437 46.8998 32.7893C47.2196 32.4559 47.5258 32.0715 47.8183 31.636C48.1177 31.2006 48.3933 30.7345 48.645 30.2378C48.9036 29.7343 49.1247 29.2275 49.3084 28.7172ZM48.2776 31.3401L49.0022 30.6155L49.0124 30.6257V38.0453H48.2776V31.3401ZM57.963 31.9626H65.8113V32.7077H57.963V31.9626ZM57.3098 36.8614H66.4645V37.6065H57.3098V36.8614ZM61.4534 28.707H62.2698V37.3411H61.4534V28.707ZM73.4657 28.6763H74.1903V35.7898H73.4657V28.6763ZM70.261 32.8812L75.7518 30.5644L76.0478 31.2176L70.5468 33.5649L70.261 32.8812ZM71.3633 29.6255H72.0981V36.4634C72.0981 36.6471 72.1185 36.79 72.1593 36.8921C72.2002 36.9873 72.275 37.052 72.3839 37.086C72.4995 37.12 72.673 37.137 72.9044 37.137C72.9724 37.137 73.0847 37.137 73.2412 37.137C73.3976 37.137 73.5779 37.137 73.7821 37.137C73.993 37.137 74.2039 37.137 74.4148 37.137C74.6257 37.137 74.8163 37.137 74.9864 37.137C75.1565 37.137 75.2823 37.137 75.364 37.137C75.5681 37.137 75.7178 37.0996 75.813 37.0247C75.9151 36.9431 75.9865 36.7968 76.0274 36.5859C76.075 36.375 76.1124 36.0756 76.1396 35.6878C76.2281 35.7558 76.3369 35.817 76.4662 35.8715C76.6023 35.9259 76.7214 35.9599 76.8234 35.9735C76.7894 36.443 76.7282 36.8138 76.6397 37.086C76.5513 37.3581 76.4084 37.5486 76.2111 37.6575C76.0205 37.7732 75.7484 37.831 75.3946 37.831C75.3334 37.831 75.2177 37.831 75.0476 37.831C74.8843 37.831 74.6904 37.831 74.4659 37.831C74.2413 37.831 74.0168 37.831 73.7923 37.831C73.5677 37.831 73.3704 37.831 73.2003 37.831C73.037 37.831 72.9282 37.831 72.8737 37.831C72.4859 37.831 72.1797 37.7902 71.9552 37.7085C71.7375 37.6337 71.5844 37.4942 71.4959 37.2901C71.4075 37.0928 71.3633 36.8104 71.3633 36.443V29.6255ZM75.6191 30.6665H75.5375L75.711 30.5134L75.8539 30.4011L76.3948 30.6052L76.3539 30.7481C76.3539 31.2312 76.3505 31.6837 76.3437 32.1055C76.3437 32.5274 76.3403 32.9084 76.3335 33.2486C76.3267 33.5888 76.3165 33.8745 76.3029 34.1059C76.2893 34.3304 76.2757 34.4937 76.2621 34.5957C76.2349 34.7999 76.1736 34.9563 76.0784 35.0652C75.9831 35.1673 75.8573 35.2353 75.7008 35.2693C75.5647 35.3102 75.4048 35.334 75.2211 35.3408C75.0442 35.3476 74.8843 35.351 74.7414 35.351C74.7278 35.2489 74.704 35.1333 74.67 35.004C74.6428 34.8747 74.6053 34.7658 74.5577 34.6774C74.6802 34.6842 74.8095 34.691 74.9455 34.6978C75.0884 34.6978 75.1871 34.6978 75.2415 34.6978C75.3231 34.6978 75.3878 34.6808 75.4354 34.6468C75.4898 34.6128 75.5273 34.5379 75.5477 34.4222C75.5681 34.3542 75.5817 34.2181 75.5885 34.014C75.6021 33.8031 75.6089 33.5343 75.6089 33.2077C75.6157 32.8812 75.6191 32.5035 75.6191 32.0749C75.6191 31.6462 75.6191 31.1768 75.6191 30.6665ZM67.4136 31.136H70.6489V31.8606H67.4136V31.136ZM68.72 28.7988H69.4446V35.4224H68.72V28.7988ZM67.3217 35.6776C67.5939 35.5755 67.9069 35.453 68.2607 35.3102C68.6213 35.1605 69.0023 35.004 69.4037 34.8407C69.8052 34.6706 70.2066 34.5005 70.608 34.3304L70.7815 35.0142C70.2372 35.2659 69.6861 35.5177 69.1282 35.7694C68.5771 36.0212 68.077 36.2457 67.6279 36.443L67.3217 35.6776ZM23.3549 42.789L24.1611 43.0339C23.7325 44.279 23.1814 45.354 22.5078 46.2589C21.841 47.1639 21.0381 47.9259 20.0992 48.5451C19.1671 49.1642 18.0818 49.6745 16.8435 50.0759C16.8163 50.0079 16.7721 49.9297 16.7109 49.8412C16.6564 49.7528 16.5952 49.6609 16.5271 49.5656C16.4659 49.4704 16.4081 49.3956 16.3536 49.3411C17.5647 48.9873 18.6228 48.5247 19.5277 47.9531C20.4326 47.3748 21.2014 46.6638 21.8342 45.8201C22.467 44.9696 22.9739 43.9592 23.3549 42.789ZM18.7112 42.8502C19.0854 43.9388 19.5889 44.9186 20.2217 45.7895C20.8612 46.6536 21.6437 47.385 22.569 47.9837C23.4944 48.5825 24.5728 49.0281 25.8043 49.3207C25.743 49.3751 25.675 49.4466 25.6002 49.535C25.5321 49.6303 25.4641 49.7255 25.396 49.8208C25.3348 49.9161 25.2838 49.9977 25.243 50.0657C23.9842 49.7391 22.8854 49.2561 21.9465 48.6165C21.0143 47.9701 20.2217 47.1843 19.5685 46.2589C18.9153 45.3268 18.3778 44.2654 17.956 43.0747L18.7112 42.8502ZM16.4659 42.4113H25.692V43.1564H16.4659V42.4113ZM20.6503 40.6763H21.4362V42.8604H20.6503V40.6763ZM32.3258 40.7988H33.0913V50.0657H32.3258V40.7988ZM30.5704 41.1866L31.3052 41.3397C31.21 41.8092 31.0943 42.2753 30.9582 42.7379C30.829 43.1938 30.6793 43.619 30.5092 44.0137C30.3459 44.4083 30.1656 44.7621 29.9683 45.0751C29.9206 45.0342 29.856 44.99 29.7744 44.9424C29.6995 44.8948 29.6179 44.8471 29.5294 44.7995C29.4478 44.7519 29.3763 44.7145 29.3151 44.6872C29.5124 44.4083 29.6893 44.0817 29.8458 43.7075C30.0091 43.3265 30.152 42.9216 30.2745 42.493C30.3969 42.0643 30.4956 41.6289 30.5704 41.1866ZM30.6623 42.7685H35.4386V43.5136H30.4786L30.6623 42.7685ZM29.3967 45.7691H35.8877V46.5243H29.3967V45.7691ZM28.8967 40.7172L29.6213 40.9315C29.4036 41.5098 29.1518 42.0813 28.866 42.6461C28.5871 43.204 28.2809 43.7313 27.9475 44.228C27.6209 44.7179 27.2807 45.1567 26.9269 45.5445C26.8997 45.4833 26.8589 45.4051 26.8045 45.3098C26.7568 45.2145 26.7024 45.1193 26.6412 45.024C26.5867 44.922 26.5357 44.8437 26.4881 44.7893C26.8079 44.4559 27.114 44.0715 27.4066 43.636C27.706 43.2006 27.9815 42.7345 28.2333 42.2378C28.4918 41.7343 28.713 41.2275 28.8967 40.7172ZM27.8659 43.3401L28.5905 42.6155L28.6007 42.6257V50.0453H27.8659V43.3401ZM37.5512 43.9626H45.3995V44.7077H37.5512V43.9626ZM36.8981 48.8614H46.0527V49.6065H36.8981V48.8614ZM41.0416 40.707H41.8581V49.3411H41.0416V40.707ZM53.0539 40.6763H53.7786V47.7898H53.0539V40.6763ZM49.8493 44.8812L55.3401 42.5644L55.636 43.2176L50.1351 45.5649L49.8493 44.8812ZM50.9515 41.6255H51.6864V48.4634C51.6864 48.6471 51.7068 48.79 51.7476 48.8921C51.7884 48.9873 51.8633 49.052 51.9721 49.086C52.0878 49.12 52.2613 49.137 52.4926 49.137C52.5607 49.137 52.6729 49.137 52.8294 49.137C52.9859 49.137 53.1662 49.137 53.3703 49.137C53.5812 49.137 53.7922 49.137 54.0031 49.137C54.214 49.137 54.4045 49.137 54.5746 49.137C54.7447 49.137 54.8706 49.137 54.9522 49.137C55.1564 49.137 55.306 49.0996 55.4013 49.0247C55.5034 48.9431 55.5748 48.7968 55.6156 48.5859C55.6632 48.375 55.7007 48.0756 55.7279 47.6878C55.8163 47.7558 55.9252 47.817 56.0545 47.8715C56.1905 47.9259 56.3096 47.9599 56.4117 47.9735C56.3777 48.443 56.3164 48.8138 56.228 49.086C56.1395 49.3581 55.9966 49.5486 55.7993 49.6575C55.6088 49.7732 55.3367 49.831 54.9829 49.831C54.9216 49.831 54.806 49.831 54.6359 49.831C54.4726 49.831 54.2786 49.831 54.0541 49.831C53.8296 49.831 53.6051 49.831 53.3805 49.831C53.156 49.831 52.9587 49.831 52.7886 49.831C52.6253 49.831 52.5164 49.831 52.462 49.831C52.0742 49.831 51.768 49.7902 51.5435 49.7085C51.3258 49.6337 51.1727 49.4942 51.0842 49.2901C50.9958 49.0928 50.9515 48.8104 50.9515 48.443V41.6255ZM55.2074 42.6665H55.1257L55.2992 42.5134L55.4421 42.4011L55.983 42.6052L55.9422 42.7481C55.9422 43.2312 55.9388 43.6837 55.932 44.1055C55.932 44.5274 55.9286 44.9084 55.9218 45.2486C55.915 45.5888 55.9048 45.8745 55.8912 46.1059C55.8776 46.3304 55.864 46.4937 55.8504 46.5957C55.8231 46.7999 55.7619 46.9563 55.6666 47.0652C55.5714 47.1673 55.4455 47.2353 55.289 47.2693C55.153 47.3102 54.9931 47.334 54.8094 47.3408C54.6325 47.3476 54.4726 47.351 54.3297 47.351C54.3161 47.2489 54.2923 47.1333 54.2582 47.004C54.231 46.8747 54.1936 46.7658 54.146 46.6774C54.2684 46.6842 54.3977 46.691 54.5338 46.6978C54.6767 46.6978 54.7753 46.6978 54.8298 46.6978C54.9114 46.6978 54.9761 46.6808 55.0237 46.6468C55.0781 46.6128 55.1155 46.5379 55.1359 46.4222C55.1564 46.3542 55.17 46.2181 55.1768 46.014C55.1904 45.8031 55.1972 45.5343 55.1972 45.2077C55.204 44.8812 55.2074 44.5035 55.2074 44.0749C55.2074 43.6462 55.2074 43.1768 55.2074 42.6665ZM47.0019 43.136H50.2371V43.8606H47.0019V43.136ZM48.3082 40.7988H49.0328V47.4224H48.3082V40.7988ZM46.91 47.6776C47.1822 47.5755 47.4951 47.453 47.849 47.3102C48.2096 47.1605 48.5906 47.004 48.992 46.8407C49.3934 46.6706 49.7949 46.5005 50.1963 46.3304L50.3698 47.0142C49.8255 47.2659 49.2744 47.5177 48.7165 47.7694C48.1653 48.0212 47.6652 48.2457 47.2162 48.443L46.91 47.6776ZM64.1783 42.789L64.9846 43.0339C64.556 44.279 64.0048 45.354 63.3313 46.2589C62.6645 47.1639 61.8616 47.9259 60.9227 48.5451C59.9905 49.1642 58.9053 49.6745 57.667 50.0759C57.6398 50.0079 57.5956 49.9297 57.5343 49.8412C57.4799 49.7528 57.4187 49.6609 57.3506 49.5656C57.2894 49.4704 57.2315 49.3956 57.1771 49.3411C58.3882 48.9873 59.4462 48.5247 60.3511 47.9531C61.2561 47.3748 62.0249 46.6638 62.6577 45.8201C63.2904 44.9696 63.7973 43.9592 64.1783 42.789ZM59.5347 42.8502C59.9089 43.9388 60.4124 44.9186 61.0451 45.7895C61.6847 46.6536 62.4672 47.385 63.3925 47.9837C64.3178 48.5825 65.3962 49.0281 66.6277 49.3207C66.5665 49.3751 66.4985 49.4466 66.4236 49.535C66.3556 49.6303 66.2876 49.7255 66.2195 49.8208C66.1583 49.9161 66.1072 49.9977 66.0664 50.0657C64.8077 49.7391 63.7089 49.2561 62.7699 48.6165C61.8378 47.9701 61.0451 47.1843 60.392 46.2589C59.7388 45.3268 59.2013 44.2654 58.7794 43.0747L59.5347 42.8502ZM57.2894 42.4113H66.5155V43.1564H57.2894V42.4113ZM61.4738 40.6763H62.2596V42.8604H61.4738V40.6763ZM73.1493 40.7988H73.9147V50.0657H73.1493V40.7988ZM71.3939 41.1866L72.1287 41.3397C72.0335 41.8092 71.9178 42.2753 71.7817 42.7379C71.6524 43.1938 71.5028 43.619 71.3327 44.0137C71.1694 44.4083 70.9891 44.7621 70.7917 45.0751C70.7441 45.0342 70.6795 44.99 70.5978 44.9424C70.523 44.8948 70.4413 44.8471 70.3529 44.7995C70.2712 44.7519 70.1998 44.7145 70.1386 44.6872C70.3359 44.4083 70.5128 44.0817 70.6693 43.7075C70.8326 43.3265 70.9754 42.9216 71.0979 42.493C71.2204 42.0643 71.319 41.6289 71.3939 41.1866ZM71.4857 42.7685H76.2621V43.5136H71.302L71.4857 42.7685ZM70.2202 45.7691H76.7111V46.5243H70.2202V45.7691ZM69.7201 40.7172L70.4447 40.9315C70.227 41.5098 69.9753 42.0813 69.6895 42.6461C69.4105 43.204 69.1044 43.7313 68.771 44.228C68.4444 44.7179 68.1042 45.1567 67.7504 45.5445C67.7232 45.4833 67.6824 45.4051 67.6279 45.3098C67.5803 45.2145 67.5259 45.1193 67.4646 45.024C67.4102 44.922 67.3592 44.8437 67.3115 44.7893C67.6313 44.4559 67.9375 44.0715 68.2301 43.636C68.5294 43.2006 68.805 42.7345 69.0567 42.2378C69.3153 41.7343 69.5364 41.2275 69.7201 40.7172ZM68.6893 43.3401L69.414 42.6155L69.4242 42.6257V50.0453H68.6893V43.3401ZM27.3454 55.9626H35.1937V56.7077H27.3454V55.9626ZM26.6922 60.8614H35.8469V61.6065H26.6922V60.8614ZM30.8358 52.707H31.6522V61.3411H30.8358V52.707ZM42.8481 52.6763H43.5727V59.7898H42.8481V52.6763ZM39.6434 56.8812L45.1342 54.5644L45.4302 55.2176L39.9292 57.5649L39.6434 56.8812ZM40.7457 53.6255H41.4805V60.4634C41.4805 60.6471 41.5009 60.79 41.5417 60.8921C41.5825 60.9873 41.6574 61.052 41.7663 61.086C41.8819 61.12 42.0554 61.137 42.2868 61.137C42.3548 61.137 42.4671 61.137 42.6235 61.137C42.78 61.137 42.9603 61.137 43.1645 61.137C43.3754 61.137 43.5863 61.137 43.7972 61.137C44.0081 61.137 44.1987 61.137 44.3688 61.137C44.5388 61.137 44.6647 61.137 44.7464 61.137C44.9505 61.137 45.1002 61.0996 45.1954 61.0247C45.2975 60.9431 45.3689 60.7968 45.4097 60.5859C45.4574 60.375 45.4948 60.0756 45.522 59.6878C45.6105 59.7558 45.7193 59.817 45.8486 59.8715C45.9847 59.9259 46.1037 59.9599 46.2058 59.9735C46.1718 60.443 46.1106 60.8138 46.0221 61.086C45.9337 61.3581 45.7908 61.5486 45.5935 61.6575C45.4029 61.7732 45.1308 61.831 44.777 61.831C44.7158 61.831 44.6001 61.831 44.43 61.831C44.2667 61.831 44.0728 61.831 43.8483 61.831C43.6237 61.831 43.3992 61.831 43.1747 61.831C42.9501 61.831 42.7528 61.831 42.5827 61.831C42.4194 61.831 42.3106 61.831 42.2561 61.831C41.8683 61.831 41.5621 61.7902 41.3376 61.7085C41.1199 61.6337 40.9668 61.4942 40.8783 61.2901C40.7899 61.0928 40.7457 60.8104 40.7457 60.443V53.6255ZM45.0015 54.6665H44.9199L45.0934 54.5134L45.2362 54.4011L45.7772 54.6052L45.7363 54.7481C45.7363 55.2312 45.7329 55.6837 45.7261 56.1055C45.7261 56.5274 45.7227 56.9084 45.7159 57.2486C45.7091 57.5888 45.6989 57.8745 45.6853 58.1059C45.6717 58.3304 45.6581 58.4937 45.6445 58.5957C45.6173 58.7999 45.556 58.9563 45.4608 59.0652C45.3655 59.1673 45.2397 59.2353 45.0832 59.2693C44.9471 59.3102 44.7872 59.334 44.6035 59.3408C44.4266 59.3476 44.2667 59.351 44.1238 59.351C44.1102 59.2489 44.0864 59.1333 44.0524 59.004C44.0252 58.8747 43.9877 58.7658 43.9401 58.6774C44.0626 58.6842 44.1918 58.691 44.3279 58.6978C44.4708 58.6978 44.5695 58.6978 44.6239 58.6978C44.7055 58.6978 44.7702 58.6808 44.8178 58.6468C44.8722 58.6128 44.9097 58.5379 44.9301 58.4222C44.9505 58.3542 44.9641 58.2181 44.9709 58.014C44.9845 57.8031 44.9913 57.5343 44.9913 57.2077C44.9981 56.8812 45.0015 56.5035 45.0015 56.0749C45.0015 55.6462 45.0015 55.1768 45.0015 54.6665ZM36.796 55.136H40.0313V55.8606H36.796V55.136ZM38.1023 52.7988H38.827V59.4224H38.1023V52.7988ZM36.7041 59.6776C36.9763 59.5755 37.2893 59.453 37.6431 59.3102C38.0037 59.1605 38.3847 59.004 38.7861 58.8407C39.1876 58.6706 39.589 58.5005 39.9904 58.3304L40.1639 59.0142C39.6196 59.2659 39.0685 59.5177 38.5106 59.7694C37.9595 60.0212 37.4594 60.2457 37.0103 60.443L36.7041 59.6776ZM53.9725 54.789L54.7787 55.0339C54.3501 56.279 53.799 57.354 53.1254 58.2589C52.4586 59.1639 51.6557 59.9259 50.7168 60.5451C49.7847 61.1642 48.6994 61.6745 47.4611 62.0759C47.4339 62.0079 47.3897 61.9297 47.3285 61.8412C47.274 61.7528 47.2128 61.6609 47.1447 61.5656C47.0835 61.4704 47.0257 61.3956 46.9712 61.3411C48.1823 60.9873 49.2404 60.5247 50.1453 59.9531C51.0502 59.3748 51.819 58.6638 52.4518 57.8201C53.0846 56.9696 53.5915 55.9592 53.9725 54.789ZM49.3288 54.8502C49.703 55.9388 50.2065 56.9186 50.8393 57.7895C51.4788 58.6536 52.2613 59.385 53.1866 59.9837C54.112 60.5825 55.1904 61.0281 56.4219 61.3207C56.3606 61.3751 56.2926 61.4466 56.2178 61.535C56.1497 61.6303 56.0817 61.7255 56.0136 61.8208C55.9524 61.9161 55.9014 61.9977 55.8606 62.0657C54.6018 61.7391 53.503 61.2561 52.5641 60.6165C51.6319 59.9701 50.8393 59.1843 50.1861 58.2589C49.5329 57.3268 48.9954 56.2654 48.5736 55.0747L49.3288 54.8502ZM47.0835 54.4113H56.3096V55.1564H47.0835V54.4113ZM51.2679 52.6763H52.0538V54.8604H51.2679V52.6763ZM62.9434 52.7988H63.7089V62.0657H62.9434V52.7988ZM61.188 53.1866L61.9228 53.3397C61.8276 53.8092 61.7119 54.2753 61.5758 54.7379C61.4466 55.1938 61.2969 55.619 61.1268 56.0137C60.9635 56.4083 60.7832 56.7621 60.5859 57.0751C60.5382 57.0342 60.4736 56.99 60.392 56.9424C60.3171 56.8948 60.2355 56.8471 60.147 56.7995C60.0654 56.7519 59.9939 56.7145 59.9327 56.6872C60.13 56.4083 60.3069 56.0817 60.4634 55.7075C60.6267 55.3265 60.7696 54.9216 60.892 54.493C61.0145 54.0643 61.1132 53.6289 61.188 53.1866ZM61.2799 54.7685H66.0562V55.5136H61.0962L61.2799 54.7685ZM60.0143 57.7691H66.5053V58.5243H60.0143V57.7691ZM59.5143 52.7172L60.2389 52.9315C60.0211 53.5098 59.7694 54.0813 59.4836 54.6461C59.2047 55.204 58.8985 55.7313 58.5651 56.228C58.2385 56.7179 57.8983 57.1567 57.5445 57.5445C57.5173 57.4833 57.4765 57.4051 57.4221 57.3098C57.3744 57.2145 57.32 57.1193 57.2588 57.024C57.2043 56.922 57.1533 56.8437 57.1057 56.7893C57.4255 56.4559 57.7316 56.0715 58.0242 55.636C58.3236 55.2006 58.5991 54.7345 58.8509 54.2378C59.1094 53.7343 59.3306 53.2275 59.5143 52.7172ZM58.4835 55.3401L59.2081 54.6155L59.2183 54.6257V62.0453H58.4835V55.3401Z" fill="black"/>
<defs>
<filter id="filter0_g_230_1196" x="5.43081" y="21.1389" width="82.2849" height="50.3915" filterUnits="userSpaceOnUse" color-interpolation-filters="sRGB">
<feFlood flood-opacity="0" result="BackgroundImageFix"/>
<feBlend mode="normal" in="SourceGraphic" in2="BackgroundImageFix" result="shape"/>
<feTurbulence type="fractalNoise" baseFrequency="0.15677256882190704 0.15677256882190704" numOctaves="3" seed="8589" />
<feDisplacementMap in="shape" scale="2.551466703414917" xChannelSelector="R" yChannelSelector="G" result="displacedImage" width="100%" height="100%" />
<feMerge result="effect1_texture_230_1196">
<feMergeNode in="displacedImage"/>
</feMerge>
</filter>
</defs>
</svg>
