<svg width="400" height="400" viewBox="0 0 400 400" fill="none" xmlns="http://www.w3.org/2000/svg">
<rect width="400" height="400" fill="#141414"/>
<g filter="url(#filter0_d_244_1860)">
<path d="M200 100.286C255.229 100.286 300 144.93 300 200C300 255.071 255.229 299.714 200 299.714C144.771 299.714 100 255.071 100 200C100 144.93 144.771 100.286 200 100.286ZM158.184 177.084V240.831H241.364V177.084H158.184Z" fill="#FFF4CB"/>
</g>
<rect x="156.94" y="168.321" width="84.4247" height="8.76278" fill="#AE9B52"/>
<g filter="url(#filter1_i_244_1860)">
<path d="M200 105.909C252.616 105.909 295.271 148.035 295.271 200C295.271 251.965 252.617 294.091 200 294.091C147.383 294.091 104.728 251.965 104.728 200C104.728 148.035 147.383 105.909 200 105.909ZM157.946 167.994V242.008H242.052V167.994H157.946Z" fill="#FFDD60"/>
</g>
<path d="M243.609 154.177C245.297 154.177 246.666 155.547 246.666 157.236V242.765C246.666 244.454 245.297 245.823 243.609 245.823H156.392C154.703 245.823 153.333 244.454 153.333 242.765V157.236C153.333 155.547 154.703 154.177 156.392 154.177H243.609ZM158.456 168.324V240.93H241.543V168.324H158.456Z" fill="#FFF597"/>
<path d="M184.801 270.276C184.801 273.028 183.333 274.606 181.003 274.606C179.351 274.606 177.975 274.459 177.131 274.147L177.223 270.679H178.269L178.874 273.028H179.113C180.342 273.028 180.581 272.514 180.581 271.432V261.872L179.388 261.34V260.697H185.994V261.34L184.801 261.872V270.276ZM192.55 274.569C188.458 274.569 186.513 272.221 186.513 267.505C186.513 262.826 188.458 260.477 192.55 260.477C196.642 260.477 198.587 262.826 198.587 267.505C198.587 272.221 196.642 274.569 192.55 274.569ZM192.55 272.863C193.761 272.863 194.22 271.597 194.22 267.505C194.22 263.468 193.761 262.165 192.55 262.165C191.358 262.165 190.881 263.468 190.881 267.505C190.881 271.597 191.358 272.863 192.55 272.863ZM209.868 273.395C209.152 274 207.556 274.569 205.501 274.569C201.464 274.569 199.684 272.092 199.684 267.542C199.684 262.991 201.464 260.477 205.501 260.477C207.556 260.477 209.152 261.046 209.868 261.652L209.611 265.45H208.583L207.758 262.459C207.299 262.367 206.859 262.33 206.528 262.33C204.436 262.33 204.051 264.642 204.051 267.542C204.051 270.441 204.436 272.716 206.528 272.716C206.859 272.716 207.299 272.679 207.758 272.588L208.583 269.597H209.611L209.868 273.395ZM216.831 274.569C212.739 274.569 210.794 272.221 210.794 267.505C210.794 262.826 212.739 260.477 216.831 260.477C220.923 260.477 222.868 262.826 222.868 267.505C222.868 272.221 220.923 274.569 216.831 274.569ZM216.831 272.863C218.042 272.863 218.5 271.597 218.5 267.505C218.5 263.468 218.042 262.165 216.831 262.165C215.638 262.165 215.161 263.468 215.161 267.505C215.161 271.597 215.638 272.863 216.831 272.863Z" fill="#B29014" fill-opacity="0.3"/>
<defs>
<filter id="filter0_d_244_1860" x="100" y="100.286" width="200" height="203.25" filterUnits="userSpaceOnUse" color-interpolation-filters="sRGB">
<feFlood flood-opacity="0" result="BackgroundImageFix"/>
<feColorMatrix in="SourceAlpha" type="matrix" values="0 0 0 0 0 0 0 0 0 0 0 0 0 0 0 0 0 0 127 0" result="hardAlpha"/>
<feOffset dy="3.82273"/>
<feComposite in2="hardAlpha" operator="out"/>
<feColorMatrix type="matrix" values="0 0 0 0 0.74277 0 0 0 0 0.678188 0 0 0 0 0.437476 0 0 0 1 0"/>
<feBlend mode="normal" in2="BackgroundImageFix" result="effect1_dropShadow_244_1860"/>
<feBlend mode="normal" in="SourceGraphic" in2="effect1_dropShadow_244_1860" result="shape"/>
</filter>
<filter id="filter1_i_244_1860" x="104.728" y="105.909" width="190.543" height="188.183" filterUnits="userSpaceOnUse" color-interpolation-filters="sRGB">
<feFlood flood-opacity="0" result="BackgroundImageFix"/>
<feBlend mode="normal" in="SourceGraphic" in2="BackgroundImageFix" result="shape"/>
<feColorMatrix in="SourceAlpha" type="matrix" values="0 0 0 0 0 0 0 0 0 0 0 0 0 0 0 0 0 0 127 0" result="hardAlpha"/>
<feOffset dy="3.82273"/>
<feComposite in2="hardAlpha" operator="arithmetic" k2="-1" k3="1"/>
<feColorMatrix type="matrix" values="0 0 0 0 0.938439 0 0 0 0 0.763781 0 0 0 0 0.121658 0 0 0 1 0"/>
<feBlend mode="normal" in2="shape" result="effect1_innerShadow_244_1860"/>
</filter>
</defs>
</svg>
