<svg width="93" height="92" viewBox="0 0 93 92" fill="none" xmlns="http://www.w3.org/2000/svg">
<path d="M46.5103 7.36096C48.0343 7.37544 48.9844 7.74408 49.5444 8.66272C50.0934 9.56353 50.2586 10.9821 50.2593 13.0699H51.4849L51.4712 13.1285L51.4849 13.0709C51.8074 13.1467 52.0437 13.2374 52.2241 13.3981C52.3954 13.5506 52.5084 13.7618 52.6069 14.0641C53.0663 13.9629 53.4147 13.9348 53.7017 14.0406C53.9809 14.1437 54.19 14.3685 54.3882 14.7399C54.4431 14.6591 54.4942 14.5965 54.5552 14.5563C54.6369 14.5024 54.7249 14.4895 54.8306 14.5006C54.8849 14.4847 54.9465 14.4958 55.0054 14.5182C55.0726 14.5438 55.1489 14.588 55.231 14.6451C55.3957 14.7599 55.5942 14.9348 55.8081 15.1451C56.1296 15.4612 56.4902 15.8617 56.8315 16.2701L57.1646 16.6783L57.1753 16.692L57.1763 16.7086L57.2407 17.3229L57.9419 17.8014C58.0725 17.5906 58.1826 17.4134 58.2925 17.2926C58.4123 17.161 58.5426 17.0857 58.7114 17.11C58.8761 17.1172 59.0014 17.1559 59.1108 17.2438C59.203 17.318 59.2806 17.4253 59.3638 17.567L59.5767 17.3551L59.5942 17.3375H60.8638V17.194L60.0728 16.4303L60.0542 16.4127V14.7848L60.0874 14.7682L61.2114 14.2086V13.0758L61.2319 13.0582C61.4678 12.8453 61.6643 12.7179 61.8657 12.7145C62.0697 12.7112 62.2582 12.835 62.478 13.0612L62.4956 13.0787V14.0729L63.644 14.7711L63.6724 14.7887V16.4703L63.6489 16.4889L62.8765 17.0719V17.2985H63.7583L63.7729 17.3092C63.8843 17.3837 63.9721 17.4514 64.0327 17.5153C64.0926 17.5784 64.1333 17.6455 64.1343 17.7194C64.1351 17.7949 64.0943 17.8598 64.0327 17.9176C63.9771 17.9698 63.8982 18.0212 63.7993 18.0758V20.8385L63.772 20.8561L62.9292 21.3951V22.3854H62.606V22.8239L62.9438 22.985L62.979 23.0016L62.978 23.0397L62.8423 44.3258H67.2681V46.3932H66.8003V59.4391H69.0015V68.399H66.7095V69.7496L67.856 70.2028L67.894 70.2184V71.1149H66.9575V72.2526H67.644L67.6079 72.3356L66.2095 75.6119H66.8218V76.9508L67.5718 77.5651L67.6255 77.609L67.5747 77.6559L66.8218 78.3444V79.6979L66.7866 79.7135L66.3823 79.8903V80.5035C66.3874 80.5112 66.3957 80.5228 66.4077 80.5377C66.4317 80.5674 66.4676 80.6077 66.5122 80.6569C66.6015 80.7552 66.7255 80.8862 66.8638 81.0289C67.1402 81.3144 67.4725 81.6473 67.6938 81.8668L67.7114 81.8844V84.6168H62.2329V81.8844L62.2505 81.8668L63.5835 80.5436V79.8893L63.2104 79.7125L63.1763 79.6959V78.5983L62.4136 78.0436V78.5387C62.4985 78.5995 62.5709 78.6549 62.6382 78.7321C62.7123 78.817 62.7784 78.9254 62.855 79.0885L62.8608 79.1002V80.7067L62.8521 80.7213C62.7729 80.8525 62.6985 80.9509 62.604 81.0387C62.5099 81.1261 62.3978 81.2016 62.2466 81.2877L62.2329 81.2955H60.2798L60.27 81.2916C60.1178 81.2383 60.0063 81.1757 59.9106 81.0836C59.8161 80.9924 59.7397 80.875 59.6538 80.7194L59.646 80.7057V79.0992L59.6528 79.0856C59.7439 78.9133 59.8244 78.788 59.9204 78.6969C60.0078 78.614 60.106 78.5622 60.23 78.524V77.4811H32.8403V78.5192C32.9941 78.5811 33.1051 78.6438 33.1851 78.7272C33.2729 78.8189 33.3183 78.9304 33.3501 79.0748L33.353 79.0875H33.3511V80.7496L33.2915 80.7369L33.3501 80.7496C33.3166 80.9096 33.2623 81.0241 33.1714 81.1178C33.0824 81.2094 32.9618 81.2775 32.8062 81.3522L32.7935 81.358H30.7954L30.7778 81.3434C30.4452 81.0569 30.2943 80.8913 30.1226 80.6022L30.1138 80.5885V79.068L30.1245 79.0533C30.239 78.8906 30.3351 78.7723 30.439 78.6852C30.5334 78.606 30.6331 78.554 30.7573 78.5153V77.9791L29.854 78.5905V79.8864H29.4907V80.5455L30.8589 81.8658L30.8765 81.8834V84.6412H25.313V81.8844L25.3296 81.8668L26.5894 80.5475V79.8864H26.1538V78.4381L25.4321 77.6656L25.3892 77.6198L25.438 77.5787L26.1538 76.9762V75.5865H26.8091L25.354 72.3531L25.3159 72.2692H26.144V71.2535H25.0864V70.2418L25.1245 70.2262L26.3765 69.7457V68.3737H24.0005V59.3785H26.2603V46.4528H25.7466V44.2965H30.1206L30.0337 22.9889L30.0327 22.9352L30.0864 22.9283L30.4604 22.8864V22.4176H30.0337V21.3414L29.2837 20.8356L29.2573 20.818V18.0201H29.0337L29.0151 17.9948C28.9257 17.8656 28.8789 17.7576 28.8823 17.65C28.8858 17.5428 28.9388 17.4477 29.0161 17.3434L29.0347 17.3199H30.1851V17.1676L29.3501 16.5133L29.3276 16.4948V14.8834L29.356 14.8658L30.5356 14.1451V12.8571L30.561 12.8385C30.7568 12.6975 30.9257 12.6007 31.1118 12.5914C31.2994 12.5823 31.4925 12.6621 31.7378 12.8385L31.7622 12.8571V14.0319L32.9028 14.6617L32.9341 14.6783V16.4166L32.9165 16.4342L32.063 17.3112C32.4184 17.2917 32.7247 17.2703 32.98 17.2867C33.2514 17.3043 33.4767 17.3664 33.6548 17.527C33.7613 17.4338 33.8591 17.3547 33.9487 17.2955C34.0488 17.2295 34.1455 17.1843 34.2407 17.1774C34.3397 17.1703 34.4301 17.2047 34.5122 17.2809C34.5889 17.3522 34.659 17.4611 34.729 17.6071C34.9791 17.7528 35.1503 17.795 35.2905 17.7174C35.3641 17.6765 35.4372 17.5987 35.5103 17.4674C35.5832 17.3362 35.6543 17.156 35.7251 16.9156L35.7271 16.9078L35.731 16.901C36.1797 16.1659 36.6012 15.7152 37.5688 14.8639L37.5757 14.8571C37.6812 14.79 37.7782 14.7307 37.8677 14.6852C37.9573 14.6397 38.0442 14.6067 38.1304 14.5973C38.2925 14.5796 38.4332 14.6481 38.5815 14.8131C38.7993 14.4833 39.003 14.2472 39.2769 14.1119C39.5601 13.9721 39.908 13.9429 40.4009 14.0065C40.5798 13.6202 40.7988 13.3667 41.1479 13.2203C41.4938 13.0756 41.9618 13.0398 42.6304 13.068C42.647 11.11 42.7952 9.72046 43.3462 8.80237C43.9083 7.86626 44.881 7.43163 46.5073 7.36096H46.5103ZM33.0386 67.5983V68.2662L33.0542 68.2828L33.9067 69.2233H33.0386V70.4791H34.0864C34.0535 70.5123 34.015 70.5499 33.9771 70.5944C33.8629 70.7282 33.7241 70.9126 33.5796 71.1158C33.2901 71.5231 32.9721 72.012 32.7681 72.3375L32.7593 72.3522V73.4684H33.0386V75.1578H59.9312V73.5983H60.353V72.6129L60.3442 72.5983L59.0659 70.4791H59.9312V69.3199H59.0835L59.9185 68.2467L59.9312 68.2311V67.6305H59.8706L33.0981 67.5983H33.0386ZM31.52 64.5123V66.1188H61.5972V64.5123H31.52ZM32.7593 55.5084V56.8004H60.1284V55.5084H32.7593Z" fill="url(#paint0_linear_228_1267)"/>
<path d="M31.9045 59.0323L32.3922 56.8865H61.0676L61.6528 59.0323V64.4943H31.9045V59.0323Z" fill="url(#paint1_linear_228_1267)"/>
<path d="M33.3676 21.8226L33.0262 53.9117H60.0435L59.5071 21.8226H33.3676Z" fill="url(#paint2_linear_228_1267)"/>
<path d="M42.0477 17.5668C42.0477 17.9921 41.9615 18.3074 41.7892 18.5127C41.6206 18.718 41.3566 18.8206 40.9974 18.8206C40.7371 18.8206 40.5336 18.7693 40.387 18.6666C40.244 18.5603 40.1725 18.4467 40.1725 18.3257C40.1725 18.2414 40.1982 18.1662 40.2495 18.1002C40.3045 18.0306 40.3668 17.9958 40.4365 17.9958C40.4988 17.9958 40.5593 18.0214 40.6179 18.0727C40.6802 18.1204 40.7114 18.1772 40.7114 18.2432C40.7114 18.3679 40.6656 18.4448 40.5739 18.4742C40.5776 18.4778 40.5849 18.4888 40.5959 18.5072C40.6106 18.5218 40.6234 18.5347 40.6344 18.5457C40.6491 18.553 40.6692 18.564 40.6949 18.5787C40.7206 18.5933 40.7536 18.6043 40.7939 18.6117C40.8379 18.619 40.8874 18.6227 40.9424 18.6227C41.1037 18.6227 41.2118 18.5255 41.2668 18.3312C41.3218 18.1332 41.3493 17.8125 41.3493 17.3689V15.7742C41.3163 15.7008 41.2008 15.6642 41.0029 15.6642V15.5487H42.3941V15.6642C42.1961 15.6642 42.0807 15.7008 42.0477 15.7742V17.5668ZM43.4056 17.1159C43.4056 17.3652 43.4313 17.598 43.4826 17.8143C43.5376 18.0306 43.6366 18.2212 43.7796 18.3862C43.9225 18.5512 44.1022 18.6336 44.3185 18.6336C44.4834 18.6336 44.6246 18.5915 44.7419 18.5072C44.8592 18.4192 44.949 18.3019 45.0113 18.1552C45.0737 18.0086 45.1177 17.8583 45.1433 17.7043C45.1726 17.5467 45.1873 17.3799 45.1873 17.2039C45.1873 16.9583 45.1598 16.7255 45.1048 16.5055C45.0498 16.2856 44.9509 16.0931 44.8079 15.9281C44.6649 15.7632 44.4871 15.6807 44.2745 15.6807C44.1095 15.6807 43.9684 15.7247 43.851 15.8127C43.7337 15.9006 43.6439 16.0179 43.5816 16.1646C43.5193 16.3112 43.4734 16.4634 43.4441 16.621C43.4185 16.775 43.4056 16.94 43.4056 17.1159ZM43.1362 18.3312C42.8209 18.0013 42.6633 17.6108 42.6633 17.1599C42.6633 16.709 42.8227 16.3186 43.1417 15.9886C43.4606 15.6587 43.8455 15.4937 44.2965 15.4937C44.7474 15.4937 45.1323 15.6587 45.4513 15.9886C45.7702 16.3186 45.9297 16.709 45.9297 17.1599C45.9297 17.6108 45.7684 18.0013 45.4458 18.3312C45.1268 18.6575 44.7437 18.8206 44.2965 18.8206C43.8419 18.8206 43.4551 18.6575 43.1362 18.3312ZM48.0471 15.6807C47.7392 15.6807 47.5009 15.8072 47.3323 16.0601C47.1673 16.3131 47.0848 16.654 47.0848 17.0829C47.0848 17.5815 47.1746 17.9646 47.3543 18.2322C47.5339 18.4998 47.7722 18.6336 48.0691 18.6336C48.2488 18.6336 48.4119 18.5732 48.5586 18.4522C48.7089 18.3275 48.8115 18.1901 48.8665 18.0398L49.092 18.1057C49.0076 18.3074 48.8738 18.4778 48.6905 18.6172C48.5109 18.7528 48.2671 18.8206 47.9592 18.8206C47.4679 18.8206 47.072 18.6611 46.7714 18.3422C46.4708 18.0233 46.3205 17.6438 46.3205 17.2039C46.3205 16.6943 46.4928 16.2819 46.8374 15.9666C47.182 15.6513 47.5834 15.4937 48.0416 15.4937C48.148 15.4937 48.2799 15.5212 48.4376 15.5762C48.5952 15.6312 48.685 15.6587 48.707 15.6587C48.751 15.6587 48.773 15.622 48.773 15.5487H48.8995L48.9435 16.3241H48.8225C48.8005 16.1738 48.7052 16.0289 48.5366 15.8896C48.3679 15.7503 48.2048 15.6807 48.0471 15.6807ZM50.1183 17.1159C50.1183 17.3652 50.144 17.598 50.1953 17.8143C50.2503 18.0306 50.3493 18.2212 50.4922 18.3862C50.6352 18.5512 50.8148 18.6336 51.0311 18.6336C51.1961 18.6336 51.3372 18.5915 51.4546 18.5072C51.5719 18.4192 51.6617 18.3019 51.724 18.1552C51.7863 18.0086 51.8303 17.8583 51.856 17.7043C51.8853 17.5467 51.9 17.3799 51.9 17.2039C51.9 16.9583 51.8725 16.7255 51.8175 16.5055C51.7625 16.2856 51.6635 16.0931 51.5205 15.9281C51.3776 15.7632 51.1998 15.6807 50.9871 15.6807C50.8222 15.6807 50.681 15.7247 50.5637 15.8127C50.4464 15.9006 50.3566 16.0179 50.2943 16.1646C50.2319 16.3112 50.1861 16.4634 50.1568 16.621C50.1311 16.775 50.1183 16.94 50.1183 17.1159ZM49.8488 18.3312C49.5336 18.0013 49.3759 17.6108 49.3759 17.1599C49.3759 16.709 49.5354 16.3186 49.8543 15.9886C50.1733 15.6587 50.5582 15.4937 51.0091 15.4937C51.4601 15.4937 51.845 15.6587 52.1639 15.9886C52.4829 16.3186 52.6423 16.709 52.6423 17.1599C52.6423 17.6108 52.481 18.0013 52.1584 18.3312C51.8395 18.6575 51.4564 18.8206 51.0091 18.8206C50.5546 18.8206 50.1678 18.6575 49.8488 18.3312Z" fill="url(#paint3_linear_228_1267)"/>
<defs>
<linearGradient id="paint0_linear_228_1267" x1="48.8013" y1="0.162246" x2="48.6221" y2="99.7737" gradientUnits="userSpaceOnUse">
<stop stop-color="#D68400"/>
<stop offset="1" stop-color="#8F5800"/>
</linearGradient>
<linearGradient id="paint1_linear_228_1267" x1="53.511" y1="16.1419" x2="53.0314" y2="97.7652" gradientUnits="userSpaceOnUse">
<stop stop-color="#AC0000"/>
<stop offset="1" stop-color="#460000"/>
</linearGradient>
<linearGradient id="paint2_linear_228_1267" x1="53.511" y1="16.1419" x2="53.0314" y2="97.7652" gradientUnits="userSpaceOnUse">
<stop stop-color="#AC0000"/>
<stop offset="1" stop-color="#460000"/>
</linearGradient>
<linearGradient id="paint3_linear_228_1267" x1="34.5466" y1="16.7656" x2="58.4555" y2="16.7656" gradientUnits="userSpaceOnUse">
<stop stop-color="#AC0000"/>
<stop offset="1" stop-color="#460000"/>
</linearGradient>
</defs>
</svg>
