<svg width="93" height="92" viewBox="0 0 93 92" fill="none" xmlns="http://www.w3.org/2000/svg">
<path d="M49.7516 21.5554C49.7516 20.2699 47.2313 20.033 41.7973 20.2699V26.6173C45.2293 26.3155 47.7665 25.525 48.9712 23.9659C49.4804 23.3068 49.7516 22.5104 49.7516 21.5554Z" fill="#F6A96C"/>
<path d="M8.61401 21.5554C9.79429 24.9042 11.2118 26.2248 16.729 26.3763V20.2699C12.8558 20.2898 9.29812 19.3845 8.61401 21.5554Z" fill="#F6A96C"/>
<path d="M25.3262 60.4433C27.1972 62.8102 28.4742 63.6353 31.5932 63.2555C32.6768 63.2897 33.5822 63.2802 34.3383 63.2722H34.3385C35.9788 63.255 36.916 63.2452 37.4435 63.7052C38.1466 64.3183 38.1219 65.7661 38.0641 69.1437C38.0626 69.2289 38.0611 69.3152 38.0596 69.4028C38.0611 69.3153 38.0626 69.229 38.0641 69.1439V69.1441L38.0596 69.4028C38.0586 69.4629 38.0576 69.5236 38.0566 69.5848C38.0389 70.6385 38.021 71.8669 38.021 73.2988H44.1273C44.3912 70.6912 44.3762 68.7403 44.365 67.2856C44.3514 65.5131 44.3434 64.4772 44.8524 63.8878C45.5682 63.059 47.306 63.1129 51.4876 63.2426C54.5258 63.3368 58.854 63.4711 65.0175 63.3358H71.2846C72.8899 63.4929 74.1088 63.4491 75.0307 63.4159C76.0925 63.3778 76.7606 63.3537 77.172 63.6669C77.8703 64.1984 77.8293 65.7011 77.7189 69.754C77.6907 70.7878 77.6581 71.9874 77.632 73.3792H83.9794C84.0408 68.7057 84.1224 64.4696 84.1965 60.6303C84.5965 39.8858 84.7731 30.7263 80.3207 26.7496C76.8005 23.6055 70.3867 23.7012 58.902 23.8725C55.9412 23.9167 52.6433 23.9659 48.9712 23.9659C47.7665 25.525 45.2293 26.3155 41.7973 26.6173V28.867C41.821 38.2253 41.0882 39.0484 39.7821 40.5155L39.7804 40.5174C40.6724 43.3295 39.9021 47.7313 35.9319 48.8733H25.3262V60.4433Z" fill="#EA9B58"/>
<path d="M24.2013 20.2699V15.6098C24.2013 13.3601 19.8626 13.4404 19.8626 15.6098V20.2699H24.2013Z" fill="#E7B795"/>
<path d="M38.8244 20.2699V15.6098C38.8244 13.3601 34.4054 13.0387 34.4054 15.6098V20.2699H38.8244Z" fill="#E7B795"/>
<path d="M25.3262 48.8733H35.9319C39.9021 47.7313 40.6724 43.3295 39.7804 40.5174C39.3726 39.2318 37.7799 36.6606 35.9319 36.6606H23.1568C21.2285 36.6606 19.3294 38.2676 18.7377 39.7138C16.7983 44.4543 19.2198 48.8733 25.3262 48.8733Z" fill="#EDCAB2"/>
<path d="M25.3262 73.2988H31.5932V63.2555C28.4742 63.6353 27.1972 62.8102 25.3262 60.4433V73.2988Z" fill="#C57A44"/>
<path d="M65.0175 63.3358V73.3792H71.2846V63.3358H65.0175Z" fill="#C57A44"/>
<path d="M31.5932 73.2988H25.3262V78.2H31.5932V73.2988Z" fill="#673E1C"/>
<path d="M44.1273 73.2988H38.021L38.0641 78.2H44.1273V73.2988Z" fill="#673E1C"/>
<path d="M71.2846 73.3792H65.0175V78.2H71.2846V73.3792Z" fill="#673E1C"/>
<path d="M83.9794 73.3792H77.632V78.2H83.9794V73.3792Z" fill="#673E1C"/>
<path d="M23.1568 36.6606H35.9319C37.7799 36.6606 39.3726 39.2318 39.7804 40.5174L39.7821 40.5155C41.0882 39.0484 41.821 38.2253 41.7973 28.867V26.6173V20.2699H38.8244H34.4054H24.2013H19.8626H16.729V26.3763C16.4442 34.1822 16.3697 38.352 18.7377 39.7138C19.3294 38.2676 21.2285 36.6606 23.1568 36.6606Z" fill="#D88A55"/>
<path d="M49.7516 21.5554C49.7516 20.2699 47.2313 20.033 41.7973 20.2699V26.6173C45.2293 26.3155 47.7665 25.525 48.9712 23.9659C49.4804 23.3068 49.7516 22.5104 49.7516 21.5554Z" fill="#F6A96C"/>
<path d="M8.61401 21.5554C9.79429 24.9042 11.2118 26.2248 16.729 26.3763V20.2699C12.8558 20.2898 9.29812 19.3845 8.61401 21.5554Z" fill="#F6A96C"/>
<path d="M25.3262 60.4433C27.1972 62.8102 28.4742 63.6353 31.5932 63.2555C32.6768 63.2897 33.5822 63.2802 34.3383 63.2722H34.3385C35.9788 63.255 36.916 63.2452 37.4435 63.7052C38.1466 64.3183 38.1219 65.7661 38.0641 69.1437C38.0626 69.2289 38.0611 69.3152 38.0596 69.4028C38.0611 69.3153 38.0626 69.229 38.0641 69.1439V69.1441L38.0596 69.4028C38.0586 69.4629 38.0576 69.5236 38.0566 69.5848C38.0389 70.6385 38.021 71.8669 38.021 73.2988H44.1273C44.3912 70.6912 44.3762 68.7403 44.365 67.2856C44.3514 65.5131 44.3434 64.4772 44.8524 63.8878C45.5682 63.059 47.306 63.1129 51.4876 63.2426C54.5258 63.3368 58.854 63.4711 65.0175 63.3358H71.2846C72.8899 63.4929 74.1088 63.4491 75.0307 63.4159C76.0925 63.3778 76.7606 63.3537 77.172 63.6669C77.8703 64.1984 77.8293 65.7011 77.7189 69.754C77.6907 70.7878 77.6581 71.9874 77.632 73.3792H83.9794C84.0408 68.7057 84.1224 64.4696 84.1965 60.6303C84.5965 39.8858 84.7731 30.7263 80.3207 26.7496C76.8005 23.6055 70.3867 23.7012 58.902 23.8725C55.9412 23.9167 52.6433 23.9659 48.9712 23.9659C47.7665 25.525 45.2293 26.3155 41.7973 26.6173V28.867C41.821 38.2253 41.0882 39.0484 39.7821 40.5155L39.7804 40.5174C40.6724 43.3295 39.9021 47.7313 35.9319 48.8733H25.3262V60.4433Z" fill="#EA9B58"/>
<path d="M24.2013 20.2699V15.6098C24.2013 13.3601 19.8626 13.4404 19.8626 15.6098V20.2699H24.2013Z" fill="#E7B795"/>
<path d="M38.8244 20.2699V15.6098C38.8244 13.3601 34.4054 13.0387 34.4054 15.6098V20.2699H38.8244Z" fill="#E7B795"/>
<path d="M25.3262 48.8733H35.9319C39.9021 47.7313 40.6724 43.3295 39.7804 40.5174C39.3726 39.2318 37.7799 36.6606 35.9319 36.6606H23.1568C21.2285 36.6606 19.3294 38.2676 18.7377 39.7138C16.7983 44.4543 19.2198 48.8733 25.3262 48.8733Z" fill="#EDCAB2"/>
<path d="M25.3262 73.2988H31.5932V63.2555C28.4742 63.6353 27.1972 62.8102 25.3262 60.4433V73.2988Z" fill="#C57A44"/>
<path d="M65.0175 63.3358V73.3792H71.2846V63.3358H65.0175Z" fill="#C57A44"/>
<path d="M31.5932 73.2988H25.3262V78.2H31.5932V73.2988Z" fill="#673E1C"/>
<path d="M44.1273 73.2988H38.021L38.0641 78.2H44.1273V73.2988Z" fill="#673E1C"/>
<path d="M71.2846 73.3792H65.0175V78.2H71.2846V73.3792Z" fill="#673E1C"/>
<path d="M83.9794 73.3792H77.632V78.2H83.9794V73.3792Z" fill="#673E1C"/>
<path d="M23.1568 36.6606H35.9319C37.7799 36.6606 39.3726 39.2318 39.7804 40.5174L39.7821 40.5155C41.0882 39.0484 41.821 38.2253 41.7973 28.867V26.6173V20.2699H38.8244H34.4054H24.2013H19.8626H16.729V26.3763C16.4442 34.1822 16.3697 38.352 18.7377 39.7138C19.3294 38.2676 21.2285 36.6606 23.1568 36.6606Z" fill="#D88A55"/>
<path d="M35.8516 31.8999C35.8516 33.1854 33.4412 33.1854 33.4412 31.8999V29.0877C33.4412 27.7218 35.8516 27.7218 35.8516 29.0877V31.8999Z" fill="black"/>
<path d="M25.0852 31.8999C25.0852 33.1854 22.6748 33.1854 22.6748 31.8999V29.0877C22.6748 27.7218 25.0852 27.7218 25.0852 29.0877V31.8999Z" fill="black"/>
<path d="M26.2066 41.0796C27.2824 41.0796 27.2824 43.0079 26.2066 43.0079H23.8534C22.7103 43.0079 22.7103 41.0796 23.8534 41.0796H26.2066Z" fill="black"/>
<path d="M34.7232 41.0796C35.799 41.0796 35.799 43.0079 34.7232 43.0079H32.37C31.2269 43.0079 31.2269 41.0796 32.37 41.0796H34.7232Z" fill="black"/>
</svg>
