<svg width="101" height="25" viewBox="0 0 101 25" fill="none" xmlns="http://www.w3.org/2000/svg">
<path d="M2.99555 6.2C2.91555 6.04 2.83555 5.82 3.01555 5.58C3.09555 5.5 3.29555 5.48 3.51555 5.3C3.63555 5.22 3.79555 5.06 4.25555 5.08C4.55555 5.1 4.71555 5.22 4.83555 5.34C4.95555 5.48 5.09555 5.42 5.25555 5.44C5.49555 5.5 6.05555 5.54 6.31555 5.56C6.57555 5.56 6.93555 5.7 7.61555 5.64C7.91555 5.62 8.35555 5.68 8.71555 5.7C9.03555 5.7 9.77555 5.38 10.1155 5.4C10.4355 5.42 10.6355 5.26 11.2555 5.08C11.7155 4.98 12.1555 5.14 12.6755 5.16C13.0155 5.18 13.1355 5.16 13.2555 5.2C13.4955 5.32 13.6955 5.26 13.8555 5.4C13.9755 5.5 13.8955 5.56 13.9755 5.7L14.2155 6.06C14.3955 6.36 14.1355 6.72 13.9955 6.94C13.7955 7.32 13.7555 7.44 13.2155 7.6C12.8955 7.74 12.4555 7.9 12.0955 8.14C11.7355 8.42 11.4755 8.48 11.0755 8.8L10.8955 8.96C10.7755 9.12 10.5955 9.2 10.4755 9.3C10.4555 9.48 10.6355 9.58 10.9755 9.74C10.9755 9.74 11.4355 9.76 11.6755 9.96C11.9155 10.12 12.3155 10.26 12.6155 10.26C12.8555 10.28 13.0155 10.42 13.2355 10.42C13.8955 10.44 13.9755 10.48 14.4955 10.64C14.9155 10.96 15.3355 11.08 15.5355 11.12C15.7555 11.22 16.1555 11.28 16.5155 11.42C16.8755 11.54 17.2355 11.8 17.2355 11.92C17.2355 12.06 17.2755 12.2 17.2355 12.36C17.0955 12.64 17.2155 12.78 16.9555 12.92C16.5155 13.22 16.1555 13.22 15.6955 13.12C15.4555 13.06 15.1955 13.02 14.9755 12.94C14.8155 12.9 14.6555 12.82 14.4955 12.74C14.1155 12.64 13.9155 12.62 13.5155 12.4C12.8755 12.02 12.1755 11.7 11.4955 11.42C11.2955 11.32 11.1155 11.22 10.9955 11.08C10.7355 10.8 10.5555 10.76 10.2355 10.58C10.0155 10.54 9.71555 10.52 9.55555 10.52C9.19555 10.72 8.75555 10.78 8.39555 11.02C8.13555 11.22 8.07555 11.4 7.81555 11.56C7.57555 11.72 7.33555 11.76 7.07555 11.84C6.77555 11.96 6.53555 12.12 6.23555 12.32C6.03555 12.46 6.03555 12.42 5.69555 12.66C5.33555 12.88 5.13555 13.32 4.77555 13.62C4.53555 13.84 4.27555 14 4.05555 14.12C3.87555 14.24 3.39555 14.32 3.27555 14.52C3.09555 14.78 2.87555 14.96 2.51555 15C2.31555 15.04 2.19555 15.14 1.93555 14.98C1.65555 14.86 1.51555 14.68 1.45555 14.5C1.33555 14.22 1.31555 14.1 1.47555 13.84C1.61555 13.58 1.89555 13.5 2.07555 13.28C2.25555 13.02 2.51555 12.82 2.79555 12.66C3.03555 12.5 3.13555 12.28 3.39555 12.22C3.55555 12.18 3.91555 11.8 4.13555 11.7C4.47555 11.6 4.59555 11.62 4.83555 11.36C5.09555 11.06 5.27555 11.08 5.61555 10.88C5.99555 10.62 6.07555 10.64 6.47555 10.42C6.73555 10.22 6.81555 10.28 6.87555 10.14C6.93555 10 7.31555 9.76 7.61555 9.6C7.89555 9.48 8.11555 9.3 8.33555 9.08C8.61555 8.88 8.97555 8.34 9.29555 8.16C9.43555 8.06 9.59555 8.02 9.69555 7.94C9.85555 7.8 10.6355 7.5 10.8155 7.2C10.9555 6.92 11.4355 6.9 11.4355 6.72C11.4355 6.66 10.6955 6.7 10.6955 6.7C10.5755 6.7 9.81555 6.86 9.71555 6.9C9.53555 6.98 9.25555 7.02 9.01555 7.1C8.73555 7.2 8.59555 7.32 8.29555 7.32C8.09555 7.32 7.63555 7.24 7.45555 7.28C6.93555 7.34 6.39555 7.26 5.89555 7.32C5.43555 7.38 4.97555 7.08 4.51555 7.06C4.23555 7.04 3.65555 6.9 3.53555 6.8C3.49555 6.76 3.17555 6.62 3.15555 6.44C3.13555 6.26 2.99555 6.2 2.99555 6.2ZM8.55555 12.76C8.59555 12.68 8.61555 12.58 8.71555 12.48C8.87555 12.32 9.13555 12.36 9.33555 12.44C9.51555 12.5 9.91555 12.52 9.97555 12.72C9.97555 12.72 10.1555 13.16 10.1955 13.34C10.2755 13.5 10.2555 13.76 10.3355 13.86C10.4155 14.02 10.4155 14.1 10.4355 14.24C10.4155 14.38 10.4155 14.46 10.3555 14.58C10.3155 14.66 10.4355 14.9 10.4155 14.98C10.3155 15.1 10.4155 15.44 10.3355 15.74C10.3155 15.82 10.4755 15.94 10.4355 16C10.3355 16.08 10.5755 16.56 10.4355 16.68C10.3155 16.8 10.5155 16.7 10.6155 16.72C10.7355 16.74 10.9155 16.72 11.0755 16.72C11.1555 16.72 11.4555 16.68 11.6355 16.68C11.6955 16.68 11.9955 16.62 12.5755 16.52C13.1555 16.44 13.1355 16.42 13.3155 16.38C13.5555 16.36 13.8155 16.46 14.0755 16.38C14.2555 16.3 14.4955 16.44 14.9155 16.36C15.3355 16.26 16.1955 16.44 16.2955 16.44C16.4555 16.44 16.9155 16.42 17.4355 16.66C17.7955 16.82 18.1355 16.98 18.0355 17.32C17.9555 17.58 17.9355 17.82 17.8355 17.98C17.7955 18.14 17.6355 18.24 17.2755 18.3C17.1355 18.32 16.8755 18.34 16.7555 18.28C16.4955 18.14 16.3155 18.24 16.1555 18.24C15.8955 18.24 15.6555 18.38 15.4955 18.38C15.3955 18.38 15.1555 18.48 15.0555 18.48C14.8955 18.48 14.6355 18.42 14.5555 18.42C14.3955 18.42 13.6955 18.46 13.6155 18.46C13.4555 18.46 13.1155 18.38 12.8355 18.4C12.4955 18.42 12.0955 18.28 11.9155 18.28C11.8555 18.28 11.2355 18.3 11.0355 18.34C10.4155 18.46 9.63555 18.28 8.79555 18.44C8.67555 18.46 8.55555 18.56 8.39555 18.56C8.09555 18.56 7.79555 18.64 7.49555 18.62C7.31555 18.6 6.45555 18.62 6.21555 18.62C6.03555 18.62 5.37555 18.7 5.13555 18.7C4.97555 18.7 4.61555 18.42 4.23555 18.66C3.73555 18.82 3.51555 18.84 3.35555 18.92C3.17555 19 2.89555 18.92 2.75555 18.92C2.59555 18.92 2.37555 18.96 2.19555 18.92C1.85555 18.84 1.61555 18.66 1.43555 18.52C1.43555 18.52 1.27555 18.38 1.25555 18.24C1.19555 17.62 1.33555 17.52 1.99555 17.22C2.15555 17.14 2.51555 16.94 2.63555 16.96C2.85555 17 2.97555 17.04 2.97555 17.04C3.29555 17.1 3.35555 16.78 3.67555 16.84L4.41555 16.96C4.65555 17 4.89555 16.94 5.17555 16.9C5.43555 16.86 5.65555 16.9 5.75555 16.9C5.89555 16.9 6.07555 16.92 6.21555 16.9C6.47555 16.86 6.41555 16.86 6.65555 16.8C6.93555 16.72 7.37555 16.68 7.57555 16.7C7.71555 16.68 8.43555 16.78 8.59555 16.7C8.75555 16.62 8.67555 16.3 8.71555 16.22C8.79555 16.04 8.75555 16.04 8.77555 15.96C8.79555 15.8 8.69555 15.4 8.69555 15.4C8.67555 14.9 8.65555 14.64 8.59555 14.26C8.53555 14.12 8.67555 13.88 8.67555 13.8C8.71555 13.62 8.49555 13.46 8.55555 13.28C8.61555 13.1 8.49555 12.88 8.55555 12.76ZM24.0987 15.08C23.9787 15.32 23.5187 15.46 23.3587 15.66C23.1387 15.92 22.7787 15.88 22.5987 16.18C22.4187 16.48 22.2187 16.64 21.9987 16.72C21.6387 16.86 21.3987 17.06 20.9787 17.1C20.5587 17.06 20.4987 17.26 20.2587 17.12C20.0987 17.02 19.9987 16.98 19.8387 16.9C19.6987 16.8 19.6787 16.64 19.8187 16.46C19.9187 16.36 19.9987 16.3 20.1787 16.16C20.4587 15.94 20.4587 15.9 20.5587 15.78C20.6587 15.62 20.7787 15.5 20.9187 15.36C21.1187 15.2 21.8787 14.6 21.9187 14.52C22.0387 14.36 22.1987 14.18 22.4387 14C22.6387 13.86 23.0987 13.84 23.2387 13.7C23.3987 13.56 23.9987 12.94 24.2587 12.78C24.5587 12.64 24.9987 12.2 25.0987 12.06C25.1787 11.92 25.2787 11.62 25.2787 11.48L25.1787 10.9C25.1787 10.64 24.4587 10.38 24.2787 10.32C24.0187 10.22 23.5187 10.02 23.2987 10.12C22.9787 10.28 23.0387 10.42 22.7987 10.72C22.5587 11 22.2787 11.3 21.8387 11.44L21.1787 11.86C20.6787 12.06 20.7187 12.14 20.2187 12.1C19.7387 12.04 19.5987 11.44 19.4987 10.98C19.3987 10.56 20.1787 10.36 20.6187 10.02C21.0387 9.7 21.5187 9.38 21.8187 9.08C21.9587 8.9 22.2787 8.48 22.4387 8.32C23.0187 7.7 23.2387 7.32 23.2387 7.02C23.2387 6.82 23.3387 6.6 23.4587 6.34C23.5587 6.06 23.6787 5.76 23.7387 5.4C23.7987 4.98 23.5387 4.84 23.3387 4.66C23.2187 4.56 23.1387 4.42 23.1587 4.22C23.3787 3.88 23.8387 3.86 24.4187 4.06C24.9987 4.26 25.4587 4.98 25.4587 5.28C25.4587 5.44 25.5787 5.92 25.4387 6.4C25.3387 6.72 24.9787 7.02 24.8987 7.18C24.6987 7.58 24.6187 8.26 24.6987 8.66C24.7987 9.04 25.4987 9.04 25.8987 8.9C26.0787 8.84 26.4787 9.06 26.6387 9.1C27.0787 9.22 27.1587 9.52 27.3187 9.66C27.3587 9.7 27.4787 9.76 27.5987 9.92C28.1587 9.86 28.7787 9.82 29.0387 9.86C29.2587 9.9 30.1187 9.76 30.5787 9.7C30.8587 9.64 31.3387 9.64 31.9987 9.68C32.6587 9.72 32.9787 9.38 33.1987 9.12C33.3787 8.88 33.2387 8.68 33.1587 8.12C33.1387 7.92 33.1187 7.72 33.1187 7.52C33.0987 6.98 33.1787 6.68 33.1387 6.4C33.0987 6.18 33.0387 5.96 32.6587 5.6C32.4587 5.4 32.2187 5.18 32.1787 4.98C32.0387 4.42 32.1587 3.84 32.3987 3.66C32.6987 3.44 32.7987 3.44 33.1387 3.52C33.2787 3.54 33.3187 3.56 33.4987 3.7C33.4987 3.7 33.8387 3.84 34.0187 3.9C34.1987 3.96 34.2387 4.1 34.3387 4.18C34.4587 4.28 34.3787 4.56 34.4987 4.7C34.6187 4.84 34.6787 5.24 34.8187 5.78C34.8787 6.04 35.0187 6.58 34.8787 6.86C34.7987 7.02 34.8187 7.56 34.8187 7.68L34.9387 8.4L34.8787 9.46L34.8387 10.28C34.8187 10.56 34.8787 10.94 34.8787 11.14C34.8587 11.34 34.9387 11.78 34.9187 12.12C34.8987 12.5 34.7387 13.16 34.6987 13.64L34.7787 14.06C34.7587 14.18 34.6787 14.92 34.5787 15.06C34.4787 15.2 34.6787 15.34 34.5387 15.54C34.3587 15.72 34.1387 16.08 33.9587 16.18C33.7587 16.26 33.6387 16.1 33.4787 16.08C33.3587 16.08 33.1387 15.78 33.0587 15.48C32.9787 15.2 32.9787 15.12 32.9587 14.82C32.9187 14.52 32.9187 14.56 32.9387 14.36C32.9387 14.18 32.8787 13.78 32.8787 13.78C32.8787 13.78 32.9187 13.6 33.0987 13.36C33.2387 13.12 33.0787 12.92 33.0987 12.72C33.0987 12.54 33.2187 11.88 33.1387 11.74C33.0387 11.58 32.8987 11.52 32.6387 11.38C32.4587 11.3 31.9387 11.26 31.6987 11.26C31.3987 11.26 31.2387 11.2 31.0387 11.2L29.7987 11.36C29.5187 11.36 28.9787 11.58 28.5787 11.46C28.4587 11.46 27.5987 11.5 27.0387 11.52L27.0187 11.56C26.8387 11.84 26.6787 12.68 26.3787 13.04C26.0987 13.36 25.8587 13.7 25.6787 13.8C25.4787 13.9 25.3787 14.06 25.1387 14.24C24.8987 14.5 24.6387 14.68 24.3587 14.92C24.2787 15 24.0787 15 24.0987 15.08ZM23.9787 18.14C23.6987 17.66 23.3587 17.2 23.4187 16.94C23.4987 16.52 24.2787 16.44 24.7187 16.54C24.9987 16.62 25.3187 16.76 25.4187 16.76C25.6187 16.82 25.8587 16.9 25.8987 17.04C25.9587 17.16 26.0987 17.6 26.2587 17.68C26.5187 17.78 26.3187 18.38 26.7387 18.46C26.9787 18.52 27.1787 18.72 27.3187 18.78C27.5387 18.88 28.3987 19.02 28.5387 19.02C28.6787 19.02 29.4387 19 29.6787 19.04C29.9187 19.08 30.2187 19 30.2987 19C30.4987 18.98 31.0387 19.06 31.5987 19.16C31.8587 19.18 32.3387 18.96 32.8187 18.94C33.2987 18.92 33.6587 18.66 33.7787 18.66C34.2387 18.62 34.5187 18.68 34.7787 18.66C34.9987 18.66 35.6387 19.14 35.8987 19.44C35.9987 19.56 35.8387 20.08 35.7787 20.26C35.6787 20.44 35.2987 20.56 34.7187 20.58C34.2587 20.6 33.9987 20.7 33.7387 20.7C33.1187 20.72 33.1587 20.6 32.8587 20.72C32.6787 20.8 31.9187 20.76 31.6187 20.78C31.3387 20.78 31.1987 20.7 30.9787 20.72C30.8387 20.72 30.3787 20.86 29.8787 20.8C29.2587 20.72 28.8787 20.86 28.6787 20.78C28.4987 20.68 27.3987 20.9 27.1387 20.84C26.9987 20.82 26.3987 20.74 26.1387 20.62C25.8987 20.48 25.5987 20.4 25.4987 20.26C25.3987 20.1 24.7787 19.12 24.5787 18.94C24.3587 18.7 24.0787 18.28 23.9787 18.14ZM52.0132 11.04L53.4932 10.96C53.4932 10.96 54.2332 10.96 54.5532 10.86C54.8732 10.76 55.9932 10.88 57.6132 10.86C59.2532 10.84 58.5932 11.24 59.3932 11.32C60.2132 11.4 59.9932 11.54 60.0732 11.84C60.1332 12.14 59.5132 12.72 59.5132 12.72C59.5132 12.72 58.7732 12.82 58.1332 12.68C57.4932 12.54 55.8732 12.7 55.6532 12.68C55.4132 12.66 54.8332 12.6 54.5532 12.6C54.2732 12.6 53.6532 12.68 53.4132 12.74C53.1932 12.82 53.4132 13.2 53.4132 13.2V14.68C53.4132 14.72 53.3932 14.74 53.3932 14.78L53.5132 14.82C53.5132 14.82 53.9132 14.82 54.1332 14.86C54.3132 14.86 54.3932 15.08 54.3932 15.08L55.2332 15.64C55.6732 15.86 55.5932 15.86 55.5932 15.86C55.5932 15.86 56.0132 16.18 56.0932 16.36C56.1332 16.52 56.2732 16.56 56.2732 16.56L56.4932 17.54C56.4332 17.78 56.4932 17.82 56.4932 17.82C56.4932 17.82 56.5332 18.12 56.4932 18.24C56.3932 18.32 56.4932 18.46 56.4932 18.46L56.2332 19.1V19.48L56.0932 19.8C56.0132 20.14 55.8732 20.06 55.7332 20.18C55.6532 20.28 55.5932 20.36 55.4532 20.44C55.3732 20.58 55.2732 20.66 55.0532 20.84C54.8332 21.08 54.8332 20.96 54.7532 20.96C54.5932 20.96 54.5132 21.02 54.5132 21.02L53.7332 21.2L53.0332 21.32C53.0332 21.32 52.7532 21.32 52.4332 21.16H51.8132C51.6132 21.08 51.3132 21.16 51.3132 21.16L50.5932 20.9C49.8732 20.66 49.7732 20.44 49.7732 20.44C49.7732 20.44 49.5932 20.36 49.4132 20.2C49.2932 20.14 49.1932 20.06 49.0332 20C48.8732 19.88 48.6132 19.68 48.6132 19.68C48.6132 19.68 48.5732 19.22 48.6132 19.08C48.6732 18.92 48.5732 18.72 48.6132 18.28C48.6732 17.78 48.5732 17.92 48.6132 17.62C48.6732 17.34 48.7532 17.2 48.8332 17.12V16.84L48.9732 16.42C48.9732 16.44 49.0132 16.32 49.1932 15.86L49.4932 15.46L49.7732 15.28C49.7732 15.28 49.9132 15.14 50.0532 15.02C50.1932 14.92 50.1932 14.82 50.1932 14.82C50.1932 14.82 50.9532 14.6 51.1532 14.5H51.6132C51.5732 14.38 51.5532 14.22 51.5532 14.06C51.5332 13.86 51.5532 13.64 51.6132 13.4C51.6732 13.22 51.6732 13.12 51.6532 13.04C51.5932 12.8 51.2332 12.96 50.8332 12.96C50.3132 12.96 48.7532 13.04 47.8532 13.26C46.9732 13.48 46.8932 13.42 45.7132 13.26C45.0132 13.18 44.6132 13.1 44.4332 12.88C44.3132 12.74 44.2732 12.52 44.3132 12.2C44.3332 11.98 44.5332 11.8 44.8932 11.6C45.4132 11.3 45.8732 11.36 45.8532 11.38C45.8532 11.38 46.8332 11.48 47.3332 11.34C47.8532 11.2 48.5332 11.48 48.8332 11.34C49.1532 11.2 49.8532 11.34 50.4932 11.34C51.1332 11.34 51.5732 11.04 52.0132 11.04ZM57.2732 3.86C57.2732 3.86 57.6132 4.08 57.8932 4.36C58.1932 4.66 58.0932 5.1 57.9532 5.32C57.8132 5.54 56.9932 5.4 56.3132 5.4C55.6532 5.4 53.7132 5.42 53.3332 5.44C53.2132 5.44 53.1732 5.48 53.1932 5.52C53.2532 5.66 53.7932 5.94 53.9132 5.98L54.9732 6.58C55.4532 6.9 56.1932 7.2 56.3132 7.22C57.1132 7.5 57.6732 7.62 58.2332 7.98C58.7732 8.34 58.9332 8.6 59.3132 9.04C59.5132 9.24 59.3532 9.46 59.0532 9.6C58.7332 9.78 58.2332 9.86 57.8732 9.72C57.3132 9.48 56.3932 9.22 56.1332 8.96C55.8732 8.7 54.9132 8.08 54.2332 7.78C53.5732 7.5 52.4532 7.06 52.4532 7.06C52.4532 7.06 51.5732 7.86 51.3532 7.86C51.1132 7.86 50.0932 8.82 49.4932 9.12C48.8932 9.42 48.7732 9.74 48.1532 9.9C47.6132 10.04 46.9732 10.6 46.3732 10.72C45.7932 10.82 45.0532 10.5 45.4132 9.34C45.5532 8.9 46.3732 8.96 46.9532 8.6C47.5332 8.22 48.3332 7.88 48.4532 7.72C48.5732 7.56 49.2332 7.56 49.7332 7.22C50.2332 6.88 50.3932 6.8 50.5132 6.64C50.6132 6.48 51.0932 6.28 51.5732 5.92C52.0332 5.56 51.1132 5.5 51.1132 5.5C51.1132 5.5 49.7532 5.64 49.3532 5.7C48.9732 5.76 48.5732 5.7 47.6332 5.7C47.1932 5.7 47.0532 5.54 47.0132 5.34C46.9732 5.14 46.7932 4.96 46.7132 4.84C46.5332 4.62 47.3732 4.18 47.3732 4.18C47.3732 4.18 49.2332 4.16 49.4732 4C49.6932 3.82 51.1132 4.06 51.7332 4C52.3532 3.92 52.6732 3.88 52.9532 3.78C53.2332 3.66 55.7532 3.94 56.3732 3.7C56.9732 3.48 57.2732 3.86 57.2732 3.86ZM54.8132 17.82V17.54L54.5932 17.34C54.5932 17.34 54.4132 17.06 54.2732 16.88L54.1332 16.76L53.5932 16.5L53.3932 16.22C53.3932 16.22 53.3132 16.22 53.1132 16.18C52.8932 16.16 52.7332 16.06 52.7332 16.06H52.4332L51.8332 16.12H51.6132L51.1932 16.36C50.9332 16.7 50.7532 16.84 50.7532 16.84C50.7532 16.84 50.7332 16.88 50.5932 17.2L50.4732 17.48V18.06C50.4332 18.24 50.4732 18.24 50.4732 18.46C50.4332 18.66 50.4732 18.72 50.6932 18.92L50.8332 19.12H50.9332C51.1132 19.34 51.1932 19.28 51.2932 19.38C51.4132 19.42 51.5532 19.48 51.8332 19.52C51.9932 19.52 51.9332 19.5 52.1532 19.52C52.4332 19.56 52.4132 19.84 52.7732 19.66C53.0732 19.48 53.2932 19.56 53.4932 19.4C53.5132 19.38 53.5332 19.38 53.5332 19.36L53.6732 19.28C54.0532 19.08 54.0532 18.98 54.1332 18.92L54.2732 18.88L54.7132 18.36C54.7732 18.12 54.8132 17.82 54.8132 17.82ZM71.1963 5.84C71.4363 5.92 71.7963 6.52 72.0363 7.04C72.1563 7.26 71.8963 7.62 71.9963 7.88C72.0963 8.2 72.0163 8.26 71.8963 8.56C71.6363 9.2 71.5963 9.96 71.2563 10.42C70.9563 10.8 70.7563 11.12 70.5963 11.64C70.4963 11.96 70.0163 12.26 69.7763 12.56L69.3763 13.04C69.1563 13.34 68.9963 13.58 68.6963 13.88C68.0963 14.5 67.8363 14.6 67.7363 14.88C67.6563 15.1 67.0163 15.68 66.5163 15.96C66.1963 16.12 65.7563 16.36 65.3763 16.5C64.6963 16.76 64.1163 16.8 63.7163 16.76C63.0163 16.68 62.8963 16.38 63.2563 15.68C63.3763 15.4 64.3163 15.12 64.4163 14.96C64.5563 14.7 65.1163 14.66 65.6963 14.24C65.9363 14.1 66.1163 13.58 66.3363 13.4C66.5563 13.26 66.8963 12.92 67.2163 12.58C67.5163 12.24 67.7963 11.94 67.8763 11.82C68.5363 10.94 69.1763 10.4 69.6163 9.64C69.7363 9.46 69.7563 9.04 69.8163 8.84C69.9163 8.56 70.0163 8.52 69.9363 8.28C69.8563 8.06 70.1163 7.9 69.8563 7.74C69.5163 7.54 68.7563 7.76 68.3763 7.92C68.1563 8.02 67.5363 8 67.2963 8.14C67.0563 8.26 66.7763 7.96 66.4763 8.08C65.9363 8.3 65.0763 8.2 64.6163 8.18C63.8563 8.14 63.5763 8.14 63.2563 7.82C62.5963 7.18 62.6963 6.74 63.2563 6.3C63.7763 5.86 64.5563 6.3 64.5563 6.3H65.4763C65.9763 6.3 66.5963 6.22 66.9763 6.22C67.7363 6.22 69.0363 6.16 69.7763 5.84C70.5363 5.52 71.1963 5.84 71.1963 5.84ZM74.5363 5.22C74.6363 4.86 74.4163 4.04 74.6563 3.94C74.7963 3.9 74.8963 3.32 75.0563 3.32C75.2363 3.3 75.7763 3.4 75.9563 3.42C76.1363 3.44 76.5763 4.1 76.7163 4.3C77.1163 4.8 77.0163 5.56 76.9563 6.12C76.9563 6.46 77.0163 7.26 77.0163 8.24C77.0163 8.8 76.9763 9.4 76.9163 10C76.7963 10.9 77.2963 12.78 76.8563 13.62C76.6163 14.06 77.0763 15.04 77.0763 15.46C77.0763 16 77.0563 16.56 76.9963 17.18C76.9163 18.06 76.6763 18.72 76.3563 19.16C76.1763 19.46 75.9363 19.66 75.7163 19.82C75.4163 20.02 75.1163 20.1 74.8763 20.1C74.4363 20.1 74.5763 19.58 74.6763 18.72C74.7363 18.2 74.4163 17.74 74.7963 17.14C75.0563 16.74 74.8563 16 74.8763 15.58C74.9163 14.88 74.8563 13.8 74.8763 13.18C74.8963 12.4 74.9563 10.62 74.8163 10.24C74.4963 9.36 74.9363 8.28 74.8163 7C74.6963 5.74 74.3163 6 74.5363 5.22Z" fill="black" fill-opacity="0.5"/>
<path d="M98.8712 9.83339L92.4353 16.2692L85.9995 9.83339L86.9457 8.88723L92.4353 14.3771L97.925 8.88723L98.8712 9.83339Z" fill="black" fill-opacity="0.5"/>
</svg>
