<svg width="60" height="60" viewBox="0 0 60 60" fill="none" xmlns="http://www.w3.org/2000/svg">
<path fill-rule="evenodd" clip-rule="evenodd" d="M58.5211 5.72168C59.0837 5.15904 59.3998 4.39594 59.3998 3.60025C59.3998 2.80456 59.0837 2.04146 58.5211 1.47882C57.9584 0.916184 57.1953 0.600098 56.3996 0.600098C55.604 0.600098 54.8408 0.916184 54.2782 1.47882L29.9996 25.7574L5.72107 1.47882C5.15843 0.916184 4.39533 0.600098 3.59964 0.600098C2.80395 0.600098 2.04085 0.916184 1.47821 1.47882C0.915574 2.04146 0.599487 2.80456 0.599487 3.60025C0.599487 4.39594 0.915574 5.15904 1.47821 5.72168L25.7568 30.0002L1.47821 54.2788C0.915574 54.8415 0.599487 55.6046 0.599487 56.4002C0.599487 57.1959 0.915574 57.959 1.47821 58.5217C2.04085 59.0843 2.80395 59.4004 3.59964 59.4004C4.39533 59.4004 5.15843 59.0843 5.72107 58.5217L29.9996 34.2431L54.2782 58.5217C54.8408 59.0843 55.604 59.4004 56.3996 59.4004C57.1953 59.4004 57.9584 59.0843 58.5211 58.5217C59.0837 57.959 59.3998 57.1959 59.3998 56.4002C59.3998 55.6046 59.0837 54.8415 58.5211 54.2788L34.2425 30.0002L58.5211 5.72168Z" fill="white"/>
</svg>
