<svg width="93" height="93" viewBox="0 0 93 93" fill="none" xmlns="http://www.w3.org/2000/svg">
<path d="M74.8073 26.6481L73.7648 28.4811C73.1437 27.1259 72.3584 26.6443 70.5622 26.7038C70.0283 25.3563 55.8245 16.0238 45.9383 14.9977L46.6706 13.7102C63.3997 8.54134 76.0144 24.5256 74.8073 26.6481Z" fill="#121212"/>
<path d="M73.7794 28.4557L72.9105 29.9834C72.0936 28.6144 71.408 28.2468 69.8234 28.2276L70.6922 26.6999C72.4377 26.6248 73.1674 26.9393 73.7794 28.4557Z" fill="#121212"/>
<path d="M42.1834 85.1334C40.1123 84.854 39.1242 84.0877 38.035 82.774L69.8655 28.1534C71.482 28.1705 72.1237 28.6111 72.9527 29.9092L42.1834 85.1334Z" fill="#8B7754"/>
<path d="M45.9385 14.9978C55.8247 16.0239 70.0285 25.3565 70.5624 26.704L70.9464 26.0286C61.6908 16.9343 46.4721 13.3861 45.9385 14.9978Z" fill="#6A6A6A"/>
</svg>
