<svg width="350" height="89" viewBox="0 0 350 89" fill="none" xmlns="http://www.w3.org/2000/svg">
<rect y="0.705902" width="350" height="88" rx="12" fill="#1C1C1C"/>
<path d="M22.816 27.6259C22.728 27.4499 22.64 27.2079 22.838 26.9439C22.926 26.8559 23.146 26.8339 23.388 26.6359C23.52 26.5479 23.696 26.3719 24.202 26.3939C24.532 26.4159 24.708 26.5479 24.84 26.6799C24.972 26.8339 25.126 26.7679 25.302 26.7899C25.566 26.8559 26.182 26.8999 26.468 26.9219C26.754 26.9219 27.15 27.0759 27.898 27.0099C28.228 26.9879 28.712 27.0539 29.108 27.0759C29.46 27.0759 30.274 26.7239 30.648 26.7459C31 26.7679 31.22 26.5919 31.902 26.3939C32.408 26.2839 32.892 26.4599 33.464 26.4819C33.838 26.5039 33.97 26.4819 34.102 26.5259C34.366 26.6579 34.586 26.5919 34.762 26.7459C34.894 26.8559 34.806 26.9219 34.894 27.0759L35.158 27.4719C35.356 27.8019 35.07 28.1979 34.916 28.4399C34.696 28.8579 34.652 28.9899 34.058 29.1659C33.706 29.3199 33.222 29.4959 32.826 29.7599C32.43 30.0679 32.144 30.1339 31.704 30.4859L31.506 30.6619C31.374 30.8379 31.176 30.9259 31.044 31.0359C31.022 31.2339 31.22 31.3439 31.594 31.5199C31.594 31.5199 32.1 31.5419 32.364 31.7619C32.628 31.9379 33.068 32.0919 33.398 32.0919C33.662 32.1139 33.838 32.2679 34.08 32.2679C34.806 32.2899 34.894 32.3339 35.466 32.5099C35.928 32.8619 36.39 32.9939 36.61 33.0379C36.852 33.1479 37.292 33.2139 37.688 33.3679C38.084 33.4999 38.48 33.7859 38.48 33.9179C38.48 34.0719 38.524 34.2259 38.48 34.4019C38.326 34.7099 38.458 34.8639 38.172 35.0179C37.688 35.3479 37.292 35.3479 36.786 35.2379C36.522 35.1719 36.236 35.1279 35.994 35.0399C35.818 34.9959 35.642 34.9079 35.466 34.8199C35.048 34.7099 34.828 34.6879 34.388 34.4459C33.684 34.0279 32.914 33.6759 32.166 33.3679C31.946 33.2579 31.748 33.1479 31.616 32.9939C31.33 32.6859 31.132 32.6419 30.78 32.4439C30.538 32.3999 30.208 32.3779 30.032 32.3779C29.636 32.5979 29.152 32.6639 28.756 32.9279C28.47 33.1479 28.404 33.3459 28.118 33.5219C27.854 33.6979 27.59 33.7419 27.304 33.8299C26.974 33.9619 26.71 34.1379 26.38 34.3579C26.16 34.5119 26.16 34.4679 25.786 34.7319C25.39 34.9739 25.17 35.4579 24.774 35.7879C24.51 36.0299 24.224 36.2059 23.982 36.3379C23.784 36.4699 23.256 36.5579 23.124 36.7779C22.926 37.0639 22.684 37.2619 22.288 37.3059C22.068 37.3499 21.936 37.4599 21.65 37.2839C21.342 37.1519 21.188 36.9539 21.122 36.7559C20.99 36.4479 20.968 36.3159 21.144 36.0299C21.298 35.7439 21.606 35.6559 21.804 35.4139C22.002 35.1279 22.288 34.9079 22.596 34.7319C22.86 34.5559 22.97 34.3139 23.256 34.2479C23.432 34.2039 23.828 33.7859 24.07 33.6759C24.444 33.5659 24.576 33.5879 24.84 33.3019C25.126 32.9719 25.324 32.9939 25.698 32.7739C26.116 32.4879 26.204 32.5099 26.644 32.2679C26.93 32.0479 27.018 32.1139 27.084 31.9599C27.15 31.8059 27.568 31.5419 27.898 31.3659C28.206 31.2339 28.448 31.0359 28.69 30.7939C28.998 30.5739 29.394 29.9799 29.746 29.7819C29.9 29.6719 30.076 29.6279 30.186 29.5399C30.362 29.3859 31.22 29.0559 31.418 28.7259C31.572 28.4179 32.1 28.3959 32.1 28.1979C32.1 28.1319 31.286 28.1759 31.286 28.1759C31.154 28.1759 30.318 28.3519 30.208 28.3959C30.01 28.4839 29.702 28.5279 29.438 28.6159C29.13 28.7259 28.976 28.8579 28.646 28.8579C28.426 28.8579 27.92 28.7699 27.722 28.8139C27.15 28.8799 26.556 28.7919 26.006 28.8579C25.5 28.9239 24.994 28.5939 24.488 28.5719C24.18 28.5499 23.542 28.3959 23.41 28.2859C23.366 28.2419 23.014 28.0879 22.992 27.8899C22.97 27.6919 22.816 27.6259 22.816 27.6259ZM28.932 34.8419C28.976 34.7539 28.998 34.6439 29.108 34.5339C29.284 34.3579 29.57 34.4019 29.79 34.4899C29.988 34.5559 30.428 34.5779 30.494 34.7979C30.494 34.7979 30.692 35.2819 30.736 35.4799C30.824 35.6559 30.802 35.9419 30.89 36.0519C30.978 36.2279 30.978 36.3159 31 36.4699C30.978 36.6239 30.978 36.7119 30.912 36.8439C30.868 36.9319 31 37.1959 30.978 37.2839C30.868 37.4159 30.978 37.7899 30.89 38.1199C30.868 38.2079 31.044 38.3399 31 38.4059C30.89 38.4939 31.154 39.0219 31 39.1539C30.868 39.2859 31.088 39.1759 31.198 39.1979C31.33 39.2199 31.528 39.1979 31.704 39.1979C31.792 39.1979 32.122 39.1539 32.32 39.1539C32.386 39.1539 32.716 39.0879 33.354 38.9779C33.992 38.8899 33.97 38.8679 34.168 38.8239C34.432 38.8019 34.718 38.9119 35.004 38.8239C35.202 38.7359 35.466 38.8899 35.928 38.8019C36.39 38.6919 37.336 38.8899 37.446 38.8899C37.622 38.8899 38.128 38.8679 38.7 39.1319C39.096 39.3079 39.47 39.4839 39.36 39.8579C39.272 40.1439 39.25 40.4079 39.14 40.5839C39.096 40.7599 38.92 40.8699 38.524 40.9359C38.37 40.9579 38.084 40.9799 37.952 40.9139C37.666 40.7599 37.468 40.8699 37.292 40.8699C37.006 40.8699 36.742 41.0239 36.566 41.0239C36.456 41.0239 36.192 41.1339 36.082 41.1339C35.906 41.1339 35.62 41.0679 35.532 41.0679C35.356 41.0679 34.586 41.1119 34.498 41.1119C34.322 41.1119 33.948 41.0239 33.64 41.0459C33.266 41.0679 32.826 40.9139 32.628 40.9139C32.562 40.9139 31.88 40.9359 31.66 40.9799C30.978 41.1119 30.12 40.9139 29.196 41.0899C29.064 41.1119 28.932 41.2219 28.756 41.2219C28.426 41.2219 28.096 41.3099 27.766 41.2879C27.568 41.2659 26.622 41.2879 26.358 41.2879C26.16 41.2879 25.434 41.3759 25.17 41.3759C24.994 41.3759 24.598 41.0679 24.18 41.3319C23.63 41.5079 23.388 41.5299 23.212 41.6179C23.014 41.7059 22.706 41.6179 22.552 41.6179C22.376 41.6179 22.134 41.6619 21.936 41.6179C21.562 41.5299 21.298 41.3319 21.1 41.1779C21.1 41.1779 20.924 41.0239 20.902 40.8699C20.836 40.1879 20.99 40.0779 21.716 39.7479C21.892 39.6599 22.288 39.4399 22.42 39.4619C22.662 39.5059 22.794 39.5499 22.794 39.5499C23.146 39.6159 23.212 39.2639 23.564 39.3299L24.378 39.4619C24.642 39.5059 24.906 39.4399 25.214 39.3959C25.5 39.3519 25.742 39.3959 25.852 39.3959C26.006 39.3959 26.204 39.4179 26.358 39.3959C26.644 39.3519 26.578 39.3519 26.842 39.2859C27.15 39.1979 27.634 39.1539 27.854 39.1759C28.008 39.1539 28.8 39.2639 28.976 39.1759C29.152 39.0879 29.064 38.7359 29.108 38.6479C29.196 38.4499 29.152 38.4499 29.174 38.3619C29.196 38.1859 29.086 37.7459 29.086 37.7459C29.064 37.1959 29.042 36.9099 28.976 36.4919C28.91 36.3379 29.064 36.0739 29.064 35.9859C29.108 35.7879 28.866 35.6119 28.932 35.4139C28.998 35.2159 28.866 34.9739 28.932 34.8419ZM46.0294 37.3939C45.8974 37.6579 45.3914 37.8119 45.2154 38.0319C44.9734 38.3179 44.5774 38.2739 44.3794 38.6039C44.1814 38.9339 43.9614 39.1099 43.7194 39.1979C43.3234 39.3519 43.0594 39.5719 42.5974 39.6159C42.1354 39.5719 42.0694 39.7919 41.8054 39.6379C41.6294 39.5279 41.5194 39.4839 41.3434 39.3959C41.1894 39.2859 41.1674 39.1099 41.3214 38.9119C41.4314 38.8019 41.5194 38.7359 41.7174 38.5819C42.0254 38.3399 42.0254 38.2959 42.1354 38.1639C42.2454 37.9879 42.3774 37.8559 42.5314 37.7019C42.7514 37.5259 43.5874 36.8659 43.6314 36.7779C43.7634 36.6019 43.9394 36.4039 44.2034 36.2059C44.4234 36.0519 44.9294 36.0299 45.0834 35.8759C45.2594 35.7219 45.9194 35.0399 46.2054 34.8639C46.5354 34.7099 47.0194 34.2259 47.1294 34.0719C47.2174 33.9179 47.3274 33.5879 47.3274 33.4339L47.2174 32.7959C47.2174 32.5099 46.4254 32.2239 46.2274 32.1579C45.9414 32.0479 45.3914 31.8279 45.1494 31.9379C44.7974 32.1139 44.8634 32.2679 44.5994 32.5979C44.3354 32.9059 44.0274 33.2359 43.5434 33.3899L42.8174 33.8519C42.2674 34.0719 42.3114 34.1599 41.7614 34.1159C41.2334 34.0499 41.0794 33.3899 40.9694 32.8839C40.8594 32.4219 41.7174 32.2019 42.2014 31.8279C42.6634 31.4759 43.1914 31.1239 43.5214 30.7939C43.6754 30.5959 44.0274 30.1339 44.2034 29.9579C44.8414 29.2759 45.0834 28.8579 45.0834 28.5279C45.0834 28.3079 45.1934 28.0659 45.3254 27.7799C45.4354 27.4719 45.5674 27.1419 45.6334 26.7459C45.6994 26.2839 45.4134 26.1299 45.1934 25.9319C45.0614 25.8219 44.9734 25.6679 44.9954 25.4479C45.2374 25.0739 45.7434 25.0519 46.3814 25.2719C47.0194 25.4919 47.5254 26.2839 47.5254 26.6139C47.5254 26.7899 47.6574 27.3179 47.5034 27.8459C47.3934 28.1979 46.9974 28.5279 46.9094 28.7039C46.6894 29.1439 46.6014 29.8919 46.6894 30.3319C46.7994 30.7499 47.5694 30.7499 48.0094 30.5959C48.2074 30.5299 48.6474 30.7719 48.8234 30.8159C49.3074 30.9479 49.3954 31.2779 49.5714 31.4319C49.6154 31.4759 49.7474 31.5419 49.8794 31.7179C50.4954 31.6519 51.1774 31.6079 51.4634 31.6519C51.7054 31.6959 52.6514 31.5419 53.1574 31.4759C53.4654 31.4099 53.9934 31.4099 54.7194 31.4539C55.4454 31.4979 55.7974 31.1239 56.0394 30.8379C56.2374 30.5739 56.0834 30.3539 55.9954 29.7379C55.9734 29.5179 55.9514 29.2979 55.9514 29.0779C55.9294 28.4839 56.0174 28.1539 55.9734 27.8459C55.9294 27.6039 55.8634 27.3619 55.4454 26.9659C55.2254 26.7459 54.9614 26.5039 54.9174 26.2839C54.7634 25.6679 54.8954 25.0299 55.1594 24.8319C55.4894 24.5899 55.5994 24.5899 55.9734 24.6779C56.1274 24.6999 56.1714 24.7219 56.3694 24.8759C56.3694 24.8759 56.7434 25.0299 56.9414 25.0959C57.1394 25.1619 57.1834 25.3159 57.2934 25.4039C57.4254 25.5139 57.3374 25.8219 57.4694 25.9759C57.6014 26.1299 57.6674 26.5699 57.8214 27.1639C57.8874 27.4499 58.0414 28.0439 57.8874 28.3519C57.7994 28.5279 57.8214 29.1219 57.8214 29.2539L57.9534 30.0459L57.8874 31.2119L57.8434 32.1139C57.8214 32.4219 57.8874 32.8399 57.8874 33.0599C57.8654 33.2799 57.9534 33.7639 57.9314 34.1379C57.9094 34.5559 57.7334 35.2819 57.6894 35.8099L57.7774 36.2719C57.7554 36.4039 57.6674 37.2179 57.5574 37.3719C57.4474 37.5259 57.6674 37.6799 57.5134 37.8999C57.3154 38.0979 57.0734 38.4939 56.8754 38.6039C56.6554 38.6919 56.5234 38.5159 56.3474 38.4939C56.2154 38.4939 55.9734 38.1639 55.8854 37.8339C55.7974 37.5259 55.7974 37.4379 55.7754 37.1079C55.7314 36.7779 55.7314 36.8219 55.7534 36.6019C55.7534 36.4039 55.6874 35.9639 55.6874 35.9639C55.6874 35.9639 55.7314 35.7659 55.9294 35.5019C56.0834 35.2379 55.9074 35.0179 55.9294 34.7979C55.9294 34.5999 56.0614 33.8739 55.9734 33.7199C55.8634 33.5439 55.7094 33.4779 55.4234 33.3239C55.2254 33.2359 54.6534 33.1919 54.3894 33.1919C54.0594 33.1919 53.8834 33.1259 53.6634 33.1259L52.2994 33.3019C51.9914 33.3019 51.3974 33.5439 50.9574 33.4119C50.8254 33.4119 49.8794 33.4559 49.2634 33.4779L49.2414 33.5219C49.0434 33.8299 48.8674 34.7539 48.5374 35.1499C48.2294 35.5019 47.9654 35.8759 47.7674 35.9859C47.5474 36.0959 47.4374 36.2719 47.1734 36.4699C46.9094 36.7559 46.6234 36.9539 46.3154 37.2179C46.2274 37.3059 46.0074 37.3059 46.0294 37.3939ZM45.8974 40.7599C45.5894 40.2319 45.2154 39.7259 45.2814 39.4399C45.3694 38.9779 46.2274 38.8899 46.7114 38.9999C47.0194 39.0879 47.3714 39.2419 47.4814 39.2419C47.7014 39.3079 47.9654 39.3959 48.0094 39.5499C48.0754 39.6819 48.2294 40.1659 48.4054 40.2539C48.6914 40.3639 48.4714 41.0239 48.9334 41.1119C49.1974 41.1779 49.4174 41.3979 49.5714 41.4639C49.8134 41.5739 50.7594 41.7279 50.9134 41.7279C51.0674 41.7279 51.9034 41.7059 52.1674 41.7499C52.4314 41.7939 52.7614 41.7059 52.8494 41.7059C53.0694 41.6839 53.6634 41.7719 54.2794 41.8819C54.5654 41.9039 55.0934 41.6619 55.6214 41.6399C56.1494 41.6179 56.5454 41.3319 56.6774 41.3319C57.1834 41.2879 57.4914 41.3539 57.7774 41.3319C58.0194 41.3319 58.7234 41.8599 59.0094 42.1899C59.1194 42.3219 58.9434 42.8939 58.8774 43.0919C58.7674 43.2899 58.3494 43.4219 57.7114 43.4439C57.2054 43.4659 56.9194 43.5759 56.6334 43.5759C55.9514 43.5979 55.9954 43.4659 55.6654 43.5979C55.4674 43.6859 54.6314 43.6419 54.3014 43.6639C53.9934 43.6639 53.8394 43.5759 53.5974 43.5979C53.4434 43.5979 52.9374 43.7519 52.3874 43.6859C51.7054 43.5979 51.2874 43.7519 51.0674 43.6639C50.8694 43.5539 49.6594 43.7959 49.3734 43.7299C49.2194 43.7079 48.5594 43.6199 48.2734 43.4879C48.0094 43.3339 47.6794 43.2459 47.5694 43.0919C47.4594 42.9159 46.7774 41.8379 46.5574 41.6399C46.3154 41.3759 46.0074 40.9139 45.8974 40.7599ZM74.5354 25.9319L75.2834 25.6459C75.2834 25.6459 75.8554 25.6459 76.0754 25.6679C76.2294 25.6679 76.5154 25.6899 76.5154 25.6899C76.5154 25.6899 76.9994 25.8439 77.1754 26.0419H77.4614C77.7034 26.0419 77.7474 26.3719 77.8134 26.6139C77.8794 26.7459 77.7034 26.9219 77.7034 27.0759C77.7034 27.2519 77.7254 27.3619 77.6594 27.4939L77.4394 27.6919C77.2634 27.9559 77.2634 27.9559 76.7574 28.3959C76.2294 28.8139 76.7574 28.3959 76.3174 28.7479L76.1634 28.8579L75.6354 29.2979C75.4594 29.4959 75.1734 29.7599 75.1514 29.7819C75.1514 29.7819 75.1074 29.8479 74.9094 30.0679L75.8114 30.6619C76.0974 30.6619 76.1414 30.7499 76.5154 30.9479C76.8674 31.1239 76.7354 31.0799 76.9994 31.1459C77.2414 31.1899 77.2854 31.2559 77.2854 31.2559L77.5054 31.5199V31.6959C77.5054 31.8499 77.4834 32.2019 77.4834 32.2019L77.2854 32.7079L77.2414 33.4339C77.2414 33.4339 76.8674 33.8079 76.7354 33.9619C76.6034 34.0719 76.6034 34.4019 76.6034 34.4019C76.6034 34.4019 75.8114 34.6879 75.8114 34.8419C75.8114 34.9959 74.9754 35.8759 74.9754 35.8759C74.9754 35.8759 74.8214 36.1179 74.5134 36.2059C74.1834 36.2939 74.3374 36.3819 74.2274 36.5139C74.1174 36.6459 73.7654 36.8879 73.7654 36.8879L73.1494 37.2839C73.1494 37.2839 72.9074 37.5259 72.7094 37.7459C72.5554 37.9879 72.4454 37.9659 72.2694 38.0979C72.0934 38.1859 71.9174 38.2299 71.9174 38.2299L71.5214 38.3839L71.0154 38.6699L70.3334 38.8019C70.0694 38.9559 69.5854 38.7799 69.3874 38.7799C69.2334 38.7579 69.0574 38.5379 69.0574 38.5379C68.9694 38.4059 67.9354 37.8559 68.5954 37.6139L68.8374 37.4819C69.0794 37.3059 69.3654 37.2399 69.3654 37.2399L70.0034 37.0419C70.0034 37.0419 70.0914 36.9979 70.5534 36.7339L70.7294 36.6679L70.7734 36.6459C70.9274 36.5359 71.4994 36.2279 71.4994 36.2279L71.7194 35.9199C71.9614 35.6339 72.2474 35.5899 72.2474 35.5899L72.4454 35.3259C72.5994 35.0839 72.6654 35.0839 72.7974 34.9299C72.9074 34.7979 73.1934 34.6879 73.1934 34.6879L73.5454 34.3359C73.5454 34.3359 74.1174 33.9839 74.2934 33.7859C74.5794 33.4339 75.1294 33.0819 75.0194 32.6419C74.9974 32.4659 74.9314 32.3779 74.7994 32.2679C74.6674 32.1139 74.6674 31.9599 74.5134 31.9159L73.8974 31.7179L73.5234 31.4759L71.8074 32.6419L71.0814 33.0599C71.0814 33.0599 70.6854 33.3239 70.0914 33.3019C69.8714 33.3019 69.4094 33.4559 68.9914 33.0819C68.5954 32.7739 68.7054 32.3779 68.7934 32.2239C68.9694 31.9599 69.3654 31.9599 69.5414 31.6959C69.6514 31.5199 70.2014 31.2779 70.2014 31.2779L70.9494 30.7499L71.4114 30.4639C71.4114 30.4859 71.4774 30.4859 72.0054 30.3099L72.5994 29.8039C72.5994 29.8039 73.1714 29.4959 73.4574 29.3199C73.6114 29.2319 73.7434 29.1659 73.9854 28.9899L74.7334 28.1319C74.6674 27.9999 74.7554 27.7359 74.7554 27.7359L74.1834 27.7139L73.4794 27.6919L72.5994 27.9339L70.3334 28.1759L69.5414 27.8899C69.4094 27.8019 69.2114 27.6919 69.1674 27.5379C69.1234 27.3839 69.1894 27.2299 69.2334 27.0319C69.3654 26.6579 69.3654 26.2839 69.6734 26.1079C69.9374 25.9319 70.2014 26.1299 70.4654 26.1299C70.8834 26.1079 71.2794 25.9979 71.6974 25.9979C72.0494 25.9979 73.2374 26.1079 73.5894 26.0639L74.5354 25.9319ZM78.1654 32.3999C77.9014 31.6299 78.1874 31.1019 78.7374 31.2119C79.1114 31.2119 79.5954 31.3219 80.0574 31.1239L80.6074 31.0359L81.2234 30.9699C81.3334 30.8599 82.1914 30.7279 82.1914 30.7279V29.9799C82.1914 29.9799 82.1254 29.6939 82.1254 29.4739C82.1254 29.2319 82.1914 29.1439 82.1254 28.9019C82.0814 28.6819 82.2354 28.2419 82.0814 27.9559L81.7294 26.9219L81.1794 26.5699L80.8714 26.3499C80.7394 26.2619 80.5414 26.0199 80.5634 25.6899C80.5854 25.4259 80.6294 24.8099 81.1794 24.7659L81.9714 24.6999L82.4114 24.7659L82.8074 24.9859C82.8074 24.9859 83.0934 25.2719 83.2034 25.2719C83.3794 25.2719 83.7314 25.4479 83.7314 25.4479C83.7314 25.4479 84.1714 25.7339 84.1714 25.9539V26.5699L84.2594 27.4279L84.3694 28.2419L84.2374 28.9019V31.8059C84.2374 31.8059 84.2814 32.4879 84.4574 32.7739L84.2814 33.6099V34.5339C84.2814 34.5339 84.1714 35.8099 84.4134 36.2499C84.5674 36.7559 84.4134 36.9979 84.4134 36.9979V37.2839C84.4134 37.2839 84.0174 37.7899 83.9514 37.9659C83.8854 38.1199 83.5994 38.2959 83.5994 38.2959C83.2914 38.3399 82.9614 38.4719 82.7634 38.1639C82.6754 38.0319 82.3674 37.8339 82.4774 37.4379C82.5214 37.2839 82.4774 36.9319 82.4774 36.9319C82.4774 36.9319 82.4114 36.4259 82.4774 36.0739L82.4114 34.5779V33.4119L82.1914 32.7299L81.4434 32.9499L81.1574 33.0159C81.1574 33.0159 81.0034 33.1699 80.7174 33.1039L79.9034 33.1919C79.9034 33.1919 78.8034 33.2799 78.1654 32.3999ZM72.2474 38.6259H72.7534L73.8974 39.4399L74.1614 39.8359C74.1614 39.8359 74.3594 40.7599 74.5134 40.9139C74.6674 41.0239 74.8654 41.1339 75.1294 41.2439L75.9434 41.4199C75.9434 41.4199 76.5154 41.3539 76.6034 41.4199H77.4614C77.4614 41.4199 77.9674 41.1779 78.2314 41.4199L79.6834 41.1779H80.4754C80.7834 41.1779 81.0914 41.1779 81.2674 41.1119L82.9174 40.8699C83.5334 40.7379 83.9734 41.0679 84.2374 41.1119H84.7434C84.8534 41.2879 85.2494 41.6399 85.2494 41.6399L85.4694 41.9259C85.4694 41.9259 85.4694 41.5739 85.5794 42.2559L85.2274 42.9599C84.8974 43.3119 85.2274 42.9599 84.5894 43.2459H83.7534L83.1814 43.0919C82.9174 43.0919 82.9174 43.0479 82.9174 43.0479H82.4554L81.5534 43.2459H79.9474C79.9474 43.2459 78.9134 43.2679 78.7594 43.2679H77.8574C77.8574 43.2679 77.5054 43.2679 77.3074 43.3119L76.2954 43.3779H75.2614C75.2614 43.3779 74.4914 43.4219 74.3154 43.3779L73.4354 42.9819C73.4354 42.9819 73.0174 42.7399 72.7534 42.5419V42.1019L72.2474 40.5839C72.1154 40.2979 72.0274 39.8359 71.7194 39.7919V39.2419L72.2474 38.6259ZM70.0254 37.0199L70.0034 37.0419C70.0034 37.0419 70.0034 37.0199 70.0254 37.0199ZM97.8369 27.2299C98.1009 27.3179 98.4969 27.9779 98.7609 28.5499C98.8929 28.7919 98.6069 29.1879 98.7169 29.4739C98.8269 29.8259 98.7389 29.8919 98.6069 30.2219C98.3209 30.9259 98.2769 31.7619 97.9029 32.2679C97.5729 32.6859 97.3529 33.0379 97.1769 33.6099C97.0669 33.9619 96.5389 34.2919 96.2749 34.6219L95.8349 35.1499C95.5929 35.4799 95.4169 35.7439 95.0869 36.0739C94.4269 36.7559 94.1409 36.8659 94.0309 37.1739C93.9429 37.4159 93.2389 38.0539 92.6889 38.3619C92.3369 38.5379 91.8529 38.8019 91.4349 38.9559C90.6869 39.2419 90.0489 39.2859 89.6089 39.2419C88.8389 39.1539 88.7069 38.8239 89.1029 38.0539C89.2349 37.7459 90.2689 37.4379 90.3789 37.2619C90.5329 36.9759 91.1489 36.9319 91.7869 36.4699C92.0509 36.3159 92.2489 35.7439 92.4909 35.5459C92.7329 35.3919 93.1069 35.0179 93.4589 34.6439C93.7889 34.2699 94.0969 33.9399 94.1849 33.8079C94.9109 32.8399 95.6149 32.2459 96.0989 31.4099C96.2309 31.2119 96.2529 30.7499 96.3189 30.5299C96.4289 30.2219 96.5389 30.1779 96.4509 29.9139C96.3629 29.6719 96.6489 29.4959 96.3629 29.3199C95.9889 29.0999 95.1529 29.3419 94.7349 29.5179C94.4929 29.6279 93.8109 29.6059 93.5469 29.7599C93.2829 29.8919 92.9749 29.5619 92.6449 29.6939C92.0509 29.9359 91.1049 29.8259 90.5989 29.8039C89.7629 29.7599 89.4549 29.7599 89.1029 29.4079C88.3769 28.7039 88.4869 28.2199 89.1029 27.7359C89.6749 27.2519 90.5329 27.7359 90.5329 27.7359H91.5449C92.0949 27.7359 92.7769 27.6479 93.1949 27.6479C94.0309 27.6479 95.4609 27.5819 96.2749 27.2299C97.1109 26.8779 97.8369 27.2299 97.8369 27.2299ZM101.511 26.5479C101.621 26.1519 101.379 25.2499 101.643 25.1399C101.797 25.0959 101.907 24.4579 102.083 24.4579C102.281 24.4359 102.875 24.5459 103.073 24.5679C103.271 24.5899 103.755 25.3159 103.909 25.5359C104.349 26.0859 104.239 26.9219 104.173 27.5379C104.173 27.9119 104.239 28.7919 104.239 29.8699C104.239 30.4859 104.195 31.1459 104.129 31.8059C103.997 32.7959 104.547 34.8639 104.063 35.7879C103.799 36.2719 104.305 37.3499 104.305 37.8119C104.305 38.4059 104.283 39.0219 104.217 39.7039C104.129 40.6719 103.865 41.3979 103.513 41.8819C103.315 42.2119 103.051 42.4319 102.809 42.6079C102.479 42.8279 102.149 42.9159 101.885 42.9159C101.401 42.9159 101.555 42.3439 101.665 41.3979C101.731 40.8259 101.379 40.3199 101.797 39.6599C102.083 39.2199 101.863 38.4059 101.885 37.9439C101.929 37.1739 101.863 35.9859 101.885 35.3039C101.907 34.4459 101.973 32.4879 101.819 32.0699C101.467 31.1019 101.951 29.9139 101.819 28.5059C101.687 27.1199 101.269 27.4059 101.511 26.5479Z" fill="white"/>
<path d="M20.7539 58.7332C21.4277 58.3348 22.1016 57.8368 22.8047 57.2215H24.0352V65.7059H22.8047V58.745H22.7578C22.1016 59.2664 21.416 59.7293 20.7539 60.0692V58.7332ZM29.1211 65.87C27.627 65.87 26.5547 65.1317 25.9805 63.8192L27.1289 63.3739C27.5391 64.2821 28.2012 64.7332 29.1094 64.7332C30.1699 64.7332 30.9434 64.1122 30.9375 63.2567C30.9434 62.3426 30.0703 61.7918 28.6289 61.7918H28.3477V60.7254H28.6289C29.8828 60.7254 30.627 60.2625 30.6211 59.4598C30.627 58.7215 29.9883 58.1942 29.0859 58.1942C28.3008 58.1942 27.7031 58.5985 27.3633 59.3543L26.2148 58.909C26.748 57.6903 27.7969 57.0575 29.0977 57.0575C30.7031 57.0575 31.8867 58.0418 31.8867 59.3778C31.8867 60.286 31.3242 60.9247 30.293 61.2293V61.2762C31.5117 61.6102 32.209 62.3485 32.2148 63.3856C32.209 64.8153 30.8906 65.87 29.1211 65.87ZM36.0938 65.87C35.0391 65.87 34.1543 65.3895 33.4805 64.4637L34.4297 63.7489C34.9219 64.4168 35.4434 64.7039 36.082 64.6981C37.3008 64.7039 38.2559 63.6551 38.332 61.5809H38.2852C37.7988 62.3075 36.9961 62.7586 36.0586 62.7528C34.541 62.7586 33.3691 61.5692 33.3633 59.9286C33.3691 58.2469 34.6289 57.0575 36.375 57.0575C38.4141 57.0575 39.5918 58.7098 39.5977 61.2762C39.5918 64.1883 38.1035 65.87 36.0938 65.87ZM36.375 61.6629C37.3945 61.6571 38.1211 60.9422 38.1211 59.9286C38.1211 58.909 37.3945 58.1942 36.375 58.1942C35.3496 58.1942 34.623 58.909 34.6172 59.9286C34.623 60.9422 35.3496 61.6571 36.375 61.6629ZM40.9102 64.5575C43.8809 62.6063 45.2227 61.1004 45.2227 59.7411C45.2227 58.7801 44.584 58.2118 43.6523 58.2176C42.9258 58.2118 42.3867 58.5516 42.0938 59.5536L40.8867 59.2254C41.3262 57.7196 42.3574 57.0575 43.6523 57.0575C45.293 57.0575 46.4766 58.1297 46.4766 59.7176C46.4766 61.3055 45.1875 62.8524 42.9023 64.5106V64.5575H46.6055V65.7059H40.9102V64.5575ZM56.4609 56.2137V63.9598H55.3242V60.3973H52.4531V59.5067H55.3242V58.4051H52.4531V57.5145H55.3242V56.2137H56.4609ZM56.7188 65.5653V66.4793H49.6172V63.2801H50.7422V65.5653H56.7188ZM49.418 56.9403V61.534C50.8477 61.5223 52.1426 61.4403 53.6484 61.1707L53.7656 62.0965C52.1016 62.3954 50.6484 62.4657 49.1133 62.4598H48.3164V56.9403H49.418ZM65.6836 62.5418C64.5117 62.5418 64.0898 61.6102 63.3633 61.6043C63.0586 61.6102 62.7832 61.786 62.2031 62.4364L61.3008 61.6278C62.0801 60.7782 62.5781 60.3856 63.3164 60.3856C64.4824 60.3856 64.9043 61.3172 65.625 61.3231C65.9297 61.3172 66.2109 61.1414 66.7969 60.4793L67.6992 61.2997C66.9141 62.1493 66.416 62.5418 65.6836 62.5418ZM71.9883 58.7332C72.6621 58.3348 73.3359 57.8368 74.0391 57.2215H75.2695V65.7059H74.0391V58.745H73.9922C73.3359 59.2664 72.6504 59.7293 71.9883 60.0692V58.7332ZM77.4961 62.1551L77.9531 57.2098H82.8867V58.3582H79.0898L78.8203 61.0418H78.8672C79.3301 60.4911 80.0039 60.1629 80.7656 60.1629C82.2012 60.1629 83.4434 61.3289 83.4492 62.9872C83.4434 64.6805 82.166 65.87 80.3672 65.87C78.9551 65.87 77.8125 65.1375 77.2148 63.8543L78.3633 63.3856C78.7734 64.2821 79.459 64.7332 80.3555 64.7332C81.457 64.7332 82.1895 64.036 82.1953 62.9989C82.1895 61.9618 81.457 61.2645 80.3672 61.2645C79.6055 61.2645 79.0195 61.5985 78.7383 62.1551H77.4961ZM87.3281 65.87C86.2734 65.87 85.3887 65.3895 84.7148 64.4637L85.6641 63.7489C86.1562 64.4168 86.6777 64.7039 87.3164 64.6981C88.5352 64.7039 89.4902 63.6551 89.5664 61.5809H89.5195C89.0332 62.3075 88.2305 62.7586 87.293 62.7528C85.7754 62.7586 84.6035 61.5692 84.5977 59.9286C84.6035 58.2469 85.8633 57.0575 87.6094 57.0575C89.6484 57.0575 90.8262 58.7098 90.832 61.2762C90.8262 64.1883 89.3379 65.87 87.3281 65.87ZM87.6094 61.6629C88.6289 61.6571 89.3555 60.9422 89.3555 59.9286C89.3555 58.909 88.6289 58.1942 87.6094 58.1942C86.584 58.1942 85.8574 58.909 85.8516 59.9286C85.8574 60.9422 86.584 61.6571 87.6094 61.6629ZM92.1445 64.5575C95.1152 62.6063 96.457 61.1004 96.457 59.7411C96.457 58.7801 95.8184 58.2118 94.8867 58.2176C94.1602 58.2118 93.6211 58.5516 93.3281 59.5536L92.1211 59.2254C92.5605 57.7196 93.5918 57.0575 94.8867 57.0575C96.5273 57.0575 97.7109 58.1297 97.7109 59.7176C97.7109 61.3055 96.4219 62.8524 94.1367 64.5106V64.5575H97.8398V65.7059H92.1445V64.5575ZM107.695 56.2137V63.9598H106.559V60.3973H103.688V59.5067H106.559V58.4051H103.688V57.5145H106.559V56.2137H107.695ZM107.953 65.5653V66.4793H100.852V63.2801H101.977V65.5653H107.953ZM100.652 56.9403V61.534C102.082 61.5223 103.377 61.4403 104.883 61.1707L105 62.0965C103.336 62.3954 101.883 62.4657 100.348 62.4598H99.5508V56.9403H100.652Z" fill="#A7A7A7"/>
</svg>
