<svg width="391" height="782" viewBox="0 0 391 782" fill="none" xmlns="http://www.w3.org/2000/svg">
<g clip-path="url(#clip0_244_1904)">
<rect width="390" height="781" transform="translate(0.390625 0.5)" fill="white"/>
<rect x="0.390625" y="451.5" width="390" height="330" fill="#FFEBAE"/>
<rect x="0.390625" y="0.5" width="390" height="451" fill="#D7F8FF"/>
<ellipse cx="87.1163" cy="486.858" rx="55.757" ry="20.9595" fill="black" fill-opacity="0.1"/>
<path d="M220.942 169.17C222.182 168.371 234.347 167.788 240.421 167.644C240.421 165.559 240.859 161.785 241.007 160.326C241.445 158.001 242.032 156.538 242.54 155.374C244.537 151.397 247.687 144.967 251.673 143.697C256.229 142.245 262.586 142.66 268.138 144.084C276.382 146.199 284.34 147.917 287.583 150.283C289.177 151.446 289.96 152.305 290.787 152.021C291.227 151.87 291.723 151.482 292.026 150.997C293.119 149.243 293.293 145.659 298.312 144.794C302.936 143.997 308.363 144.22 310.129 145.462C312.842 147.369 316.013 149.504 318.596 153.425C320.567 156.416 320.781 160.165 323.137 160.348C326.859 160.637 331.292 159.882 333.632 161.664C335.745 163.273 337.61 164.749 338.079 166.998C338.95 171.182 339.124 179.636 336.244 181.589C334.413 182.83 319.342 178.715 318.657 184.593C318.368 187.074 318.367 189.331 317.779 190.349C317.484 190.862 317.107 191.377 315.642 192.331C308.717 196.844 305.14 198.433 302.006 197.711C298.207 196.835 295.114 194.871 286.309 192.237C284.641 191.738 284.135 192.136 283.916 192.686C283.48 193.778 282.753 194.528 281.941 195.534C279.824 198.157 278.056 200.026 275.81 200.491C271.608 201.363 264.279 201.369 261.572 199.309C257.928 196.537 257.002 193.481 254.427 192.239C253.987 192.027 253.554 192.316 253.113 192.609C251.36 193.778 248.218 196.226 244.044 196.036C235.849 195.661 227.062 194.831 223.548 190.036C220.706 186.159 215.677 172.566 220.942 169.17Z" fill="white" stroke="white" stroke-width="2.70914" stroke-linecap="round"/>
<path d="M57.4834 213.917C58.7227 213.118 70.8878 212.536 76.9616 212.391C76.9616 210.307 77.3995 206.532 77.5484 205.074C77.9863 202.749 78.5731 201.286 79.0811 200.121C81.078 196.145 84.2276 189.714 88.2137 188.444C92.7701 186.993 99.1267 187.407 104.679 188.832C112.923 190.947 120.881 192.665 124.124 195.03C125.718 196.193 126.501 197.053 127.328 196.769C127.768 196.618 128.264 196.23 128.567 195.744C129.66 193.99 129.834 190.406 134.853 189.541C139.477 188.744 144.904 188.967 146.67 190.209C149.383 192.116 152.554 194.252 155.137 198.172C157.108 201.163 157.322 204.913 159.678 205.096C163.4 205.385 167.833 204.629 170.173 206.412C172.286 208.021 174.151 209.497 174.62 211.745C175.491 215.93 175.665 224.383 172.785 226.337C170.954 227.578 155.883 223.463 155.198 229.341C154.909 231.821 154.908 234.078 154.32 235.097C154.025 235.609 153.648 236.124 152.183 237.078C145.258 241.591 141.681 243.181 138.547 242.458C134.748 241.582 131.655 239.619 122.85 236.984C121.182 236.485 120.676 236.884 120.457 237.433C120.021 238.526 119.295 239.275 118.482 240.282C116.365 242.905 114.597 244.773 112.351 245.239C108.149 246.11 100.82 246.117 98.1126 244.057C94.4692 241.285 93.5427 238.229 90.9681 236.987C90.528 236.774 90.0945 237.063 89.6544 237.357C87.9006 238.526 84.7591 240.974 80.5853 240.783C72.3899 240.409 63.6032 239.579 60.089 234.784C57.247 230.906 52.2176 217.313 57.4834 213.917Z" fill="white" stroke="white" stroke-width="2.70914" stroke-linecap="round"/>
<path d="M87.6961 367.288L54.5032 366.936C53.8228 368.85 53.2366 371.045 52.7059 373.548H89.214C88.7734 371.597 88.268 369.521 87.6961 367.288Z" fill="#8E816F"/>
<path d="M54.5032 398.766C53.2361 396.809 52.919 395.712 53.1723 393.752C50.6124 392.13 48.9097 391.853 48.0254 386.269C47.7547 382.058 48.0642 380.28 51.4387 380.678C51.8367 378.065 52.2509 375.694 52.7059 373.548C53.2366 371.045 53.8228 368.85 54.5032 366.936L51.4387 369.539L50.5199 370.32C46.682 373.745 44.6546 377.9 42.1743 389.828C42.2726 391.298 42.6637 391.871 44.2536 392.226C45.8436 392.58 42.1625 400.76 44.2536 401.481C44.2536 401.481 45.7527 400.329 46.7198 399.547C47.6869 398.766 44.9356 408.277 47.6869 409.509L55.4587 405.06V403.373C54.653 401.562 54.3143 400.55 54.5032 398.766Z" fill="black"/>
<path d="M75.4607 476.919V482.356L75.8169 484.742C75.5165 485.575 75.0003 486.621 73.7507 488.943C75.0417 493.982 76.2431 495.473 79.4463 495.177H83.0379L94.0396 499.524L101.147 499.108L102.281 497.747C102.658 497.433 102.949 497.862 103.529 499.108C104.622 499.892 105.234 499.94 106.327 499.108L106.856 497.445C108.08 495.966 108.751 496.233 109.932 498.031C110.871 498.404 111.71 496.16 112.031 494.971C114.648 495.45 114.992 494.937 115.381 494.357C115.396 494.335 115.41 494.313 115.425 494.291C115.693 492.813 115.312 491.982 114.455 490.856C114.305 490.659 114.14 490.453 113.962 490.233L106.856 490.539L91.5061 483.937C86.9125 484.209 84.7773 484.036 82.8202 482.356V474.79C80.2454 475.339 78.1151 475.956 75.4607 476.919Z" fill="#FFE0B4"/>
<path d="M106.856 490.539L113.962 490.233C114.14 490.453 114.305 490.659 114.455 490.856C115.222 489.817 115.75 489.494 116.982 489.677C118.849 492.882 119.795 493.794 121.228 493.214C122.923 492.039 123.346 491.282 120.183 489.205C123.83 489.934 125.537 490.087 125.54 488.059C125.547 486.538 124.846 486.013 122.474 485.6C125.996 484.69 127.874 484.154 125.271 481.658C123.082 480.567 121.659 480.856 118.768 483.005L98.0807 479.737L97.2316 471.629C95.0814 471.892 93.1846 472.282 91.1155 472.8L91.5061 483.937L106.856 490.539Z" fill="#FFE0B4"/>
<path d="M87.6961 367.288C88.268 369.521 88.7734 371.597 89.214 373.548C92.0362 386.753 92.7898 393.595 90.3042 403.205C89.9469 404.002 89.5846 404.748 89.214 405.445L95.1877 408.903C96.9148 403.862 96.8792 400.685 95.5816 394.59L97.4857 393.342C97.591 388.573 96.4892 387.564 94.5967 385.66L96.1069 383.69C96.0678 375.418 93.891 371.977 90.3042 365.674C89.6331 366.158 88.7581 366.69 87.6961 367.288Z" fill="black"/>
<path d="M62.1947 408.394C62.4119 409.05 62.8449 409.514 63.7475 409.847C78.321 415.142 84.455 414.392 89.214 405.445C89.5846 404.748 89.9469 404.002 90.3042 403.205C92.7898 393.595 92.0362 386.753 89.214 373.548H52.7059C52.2509 375.694 51.8367 378.065 51.4387 380.678C48.0642 380.28 47.7547 382.058 48.0254 386.269C48.9097 391.853 50.6124 392.13 53.1723 393.752C52.919 395.712 53.2361 396.809 54.5032 398.766C54.3143 400.55 54.653 401.562 55.4587 403.373V405.06V414.442C50.536 415.119 48.6065 415.872 45.648 417.432C43.9363 418.483 43.9346 422.088 45.0248 431.961L54.4971 461.473C54.8404 461.865 55.5401 462.292 55.546 462.133L55.9675 462.048L69.5138 459.289L83.3129 456.478C83.4373 456.458 83.5793 456.2 83.6086 455.879C83.6242 455.709 83.6081 455.522 83.541 455.343L80.4168 446.983C80.345 446.836 80.2776 446.743 80.1963 446.695C80.0965 446.636 79.9759 446.643 79.8003 446.695L60.4534 448.553L59.2562 439.349L58.51 437.199C63.9096 432.4 66.4942 430.427 68.9335 430.425C71.2318 430.365 73.1335 431.121 75.7769 433.593C77.7284 432.413 79.2394 431.563 80.975 431.041C82.4364 430.602 84.057 430.397 86.2341 430.425C89.7246 430.506 91.435 431.994 94.1155 436.82L94.9399 438.078C95.2034 437.961 95.5381 438.001 96.2179 438.305C97.202 438.526 97.2377 438.985 96.9345 440.041L96.6022 440.64L98.4598 441.289L131.542 450.693C131.589 450.702 131.635 450.712 131.679 450.722C132.202 450.837 132.534 450.91 132.844 449.005L132.941 447.518L133.495 439.058L133.519 438.685C133.488 438.42 133.293 438.33 132.844 438.203L99.2327 428.835L79.1064 416.797C72.6571 415.238 68.955 414.396 62.1947 412.954V408.394Z" fill="#FFE0B4"/>
<path d="M54.5032 366.936L87.6961 367.288C88.7581 366.69 89.6331 366.158 90.3042 365.674C92.8057 363.872 92.4729 362.749 88.427 361.437L86.1256 360.396L89.5777 359.245C90.6096 356.687 87.515 357.218 82.9474 357.656L83.8789 354.258C84.5599 352.73 79.6885 354.585 75.4951 355.574C72.0513 352.252 68.1602 353.389 61.117 355.574V352.843C60.7679 351.075 58.7363 353.592 54.5032 359.245C54.5032 359.245 49.5673 358.429 48.789 358.334C48.0107 358.238 53.6528 361.822 53.1407 362.41C52.6287 362.998 46.219 364.133 46.4194 367.953C46.9844 367.953 49.4462 366.936 49.4462 366.936L49.648 371.061L50.5199 370.32C50.8151 370.056 51.121 369.797 51.4387 369.539L54.5032 366.936Z" fill="black"/>
<path d="M87.6961 367.288L54.5032 366.936M87.6961 367.288C88.268 369.521 88.7734 371.597 89.214 373.548M87.6961 367.288C88.7581 366.69 89.6331 366.158 90.3042 365.674M62.1947 408.394C62.4119 409.05 62.8449 409.514 63.7475 409.847C78.321 415.142 84.455 414.392 89.214 405.445M62.1947 408.394C62.0062 407.825 61.9802 407.11 61.9509 406.209M62.1947 408.394V412.954C68.955 414.396 72.6571 415.238 79.1064 416.797L99.2327 428.835L132.844 438.203C133.293 438.33 133.488 438.42 133.519 438.685L133.495 439.058M45.0248 431.961C43.9346 422.088 43.9363 418.483 45.648 417.432C48.6065 415.872 50.536 415.119 55.4587 414.442V405.06M45.0248 431.961L54.4971 461.473C54.8404 461.865 55.5401 462.292 55.546 462.133L55.9675 462.048M45.0248 431.961L44.5743 462.133C44.5501 467.16 46.8465 470.955 51.1243 477.801C51.6569 478.653 51.9946 478.89 52.6744 478.852C53.4259 478.819 53.9329 478.7 54.2631 478.484M58.51 437.199L59.2562 439.349L60.4534 448.553L79.8003 446.695C79.9759 446.643 80.0965 446.636 80.1963 446.695M58.51 437.199L55.9433 429.803M58.51 437.199C63.9096 432.4 66.4942 430.427 68.9335 430.425C71.2318 430.365 73.1335 431.121 75.7769 433.593M75.7769 433.593C77.2247 434.948 78.8951 436.817 80.975 439.349L81.8758 440.64M75.7769 433.593C77.7284 432.413 79.2394 431.563 80.975 431.041M55.9675 462.048L54.6844 476.075C54.8794 477.286 54.9029 478.066 54.2631 478.484M55.9675 462.048L69.5138 459.289M54.2631 478.484C59.7777 487.255 64.0278 489.523 73.1243 490.101C73.3515 489.683 73.5597 489.298 73.7507 488.943M69.5138 459.289L83.3129 456.478C83.4373 456.458 83.5793 456.2 83.6086 455.879M69.5138 459.289C70.3418 470.074 70.9728 475.101 73.1243 477.801C73.9565 477.477 74.7286 477.185 75.4607 476.919M83.6086 455.879C83.6242 455.709 83.6081 455.522 83.541 455.343L80.4168 446.983C80.345 446.836 80.2776 446.743 80.1963 446.695M83.6086 455.879L85.987 474.183M83.6086 455.879C89.08 455.929 92.2917 456.366 97.7669 457.997M85.987 474.183C84.8327 474.386 83.7946 474.583 82.8202 474.79M85.987 474.183L86.4076 474.067C88.1555 473.582 89.6771 473.16 91.1155 472.8M80.1963 446.695C80.718 443.941 81.0469 441.898 81.8758 440.64M96.6022 440.64L96.9345 440.041C97.2377 438.985 97.202 438.526 96.2179 438.305C95.5381 438.001 95.2034 437.961 94.9399 438.078M96.6022 440.64L98.4598 441.289L131.542 450.693C131.589 450.702 131.635 450.712 131.679 450.722C132.202 450.837 132.534 450.91 132.844 449.005L132.941 447.518M96.6022 440.64L94.0308 445.277M94.9399 438.078C94.8272 438.128 94.7275 438.206 94.6194 438.305L86.2341 445.277L88.0048 441.667C87.6158 439.625 87.0613 438.875 85.4141 439.049L83.5951 439.349C82.8366 439.574 82.2929 440.008 81.8758 440.64M94.9399 438.078L94.1155 436.82C91.435 431.994 89.7246 430.506 86.2341 430.425C84.057 430.397 82.4364 430.602 80.975 431.041M80.975 431.041L74.6365 422.339M94.0308 445.277L93.7099 445.856M94.0308 445.277C94.4143 444.946 94.7464 444.647 95.0392 444.384C96.7102 442.883 97.1013 442.532 98.4598 443.641C100.056 444.944 99.0632 447.213 95.3528 449.104L99.5341 447.699C100.395 447.445 100.75 447.665 101.145 448.745C101.086 451.639 99.8627 452.503 97.4442 453.171M97.4442 453.171C97.0111 453.291 96.5396 453.404 96.0295 453.521M97.4442 453.171L100.575 453.521C101.528 454.432 100.358 455.639 97.7669 457.997M97.7669 457.997C97.9939 458.065 98.2248 458.134 98.4598 458.206C100.372 463.89 101.298 466.985 101.028 471.312C99.6422 471.381 98.3995 471.487 97.2316 471.629M75.4607 476.919V482.356L75.8169 484.742C75.5165 485.575 75.0003 486.621 73.7507 488.943M75.4607 476.919C78.1151 475.956 80.2454 475.339 82.8202 474.79M73.7507 488.943C75.0417 493.982 76.2431 495.473 79.4463 495.177H83.0379L94.0396 499.524L101.147 499.108L102.281 497.747C102.658 497.433 102.949 497.862 103.529 499.108C104.622 499.892 105.234 499.94 106.327 499.108L106.856 497.445C108.08 495.966 108.751 496.233 109.932 498.031C110.871 498.404 111.71 496.16 112.031 494.971C114.648 495.45 114.992 494.937 115.381 494.357C115.396 494.335 115.41 494.313 115.425 494.291C115.693 492.813 115.312 491.982 114.455 490.856M91.5061 483.937L106.856 490.539L113.962 490.233C114.14 490.453 114.305 490.659 114.455 490.856M91.5061 483.937C86.9125 484.209 84.7773 484.036 82.8202 482.356V474.79M91.5061 483.937L91.1155 472.8M91.1155 472.8C93.1846 472.282 95.0814 471.892 97.2316 471.629M97.2316 471.629L98.0807 479.737L118.768 483.005C121.659 480.856 123.082 480.567 125.271 481.658C127.874 484.154 125.996 484.69 122.474 485.6C124.846 486.013 125.547 486.538 125.54 488.059C125.537 490.087 123.83 489.934 120.183 489.205C123.346 491.282 122.923 492.039 121.228 493.214C119.795 493.794 118.849 492.882 116.982 489.677C115.75 489.494 115.222 489.817 114.455 490.856M133.495 439.058L132.941 447.518M133.495 439.058C134.772 438.515 135.999 437.972 137.156 437.459C141.915 435.351 145.486 433.769 146.488 434.946C148.87 437.946 146.795 438.809 143.267 440.277C143.161 440.321 143.053 440.365 142.945 440.411V440.983M142.945 441.555V443.752C141.088 445.438 140.619 445.689 140.46 445.311C141.291 443.716 141.865 442.921 142.945 441.555ZM142.945 441.555V440.983M142.945 440.983C149.743 440.525 153.195 440.505 155.466 443.023C156.242 444.158 155.94 444.646 154.385 445.311L146.037 444.885C147.005 445.09 147.95 445.274 148.843 445.449C153.112 446.286 156.221 446.894 155.234 448.379C153.909 449.923 152.327 450.238 150.028 449.873M150.028 449.873C148.721 449.666 147.183 449.239 145.328 448.694M150.028 449.873C148.675 449.496 146.999 449.181 145.328 448.694M150.028 449.873C151.687 450.335 152.861 450.89 152.944 451.971C151.371 456.005 148.365 454.143 143.245 450.972C143.097 450.88 142.946 450.787 142.794 450.693C146.563 455.064 146.999 456.138 146.037 456.625C142.746 457.582 141.277 456.205 139.101 451.491C136.365 451.09 135.051 450.098 132.941 447.518M145.328 448.694C145.288 448.682 145.248 448.67 145.208 448.659M54.5032 366.936C53.8228 368.85 53.2366 371.045 52.7059 373.548M54.5032 366.936L51.4387 369.539M89.214 373.548H52.7059M89.214 373.548C92.0362 386.753 92.7898 393.595 90.3042 403.205C89.9469 404.002 89.5846 404.748 89.214 405.445M52.7059 373.548C52.2509 375.694 51.8367 378.065 51.4387 380.678C48.0642 380.28 47.7547 382.058 48.0254 386.269C48.9097 391.853 50.6124 392.13 53.1723 393.752C52.919 395.712 53.2361 396.809 54.5032 398.766C54.3143 400.55 54.653 401.562 55.4587 403.373V405.06M55.4587 405.06L47.6869 409.509C44.9356 408.277 47.6869 398.766 46.7198 399.547C45.7527 400.329 44.2536 401.481 44.2536 401.481C42.1625 400.76 45.8436 392.58 44.2536 392.226C42.6637 391.871 42.2726 391.298 42.1743 389.828C44.6546 377.9 46.682 373.745 50.5199 370.32M89.214 405.445L95.1877 408.903C96.9148 403.862 96.8792 400.685 95.5816 394.59L97.4857 393.342C97.591 388.573 96.4892 387.564 94.5967 385.66L96.1069 383.69C96.0678 375.418 93.891 371.977 90.3042 365.674M51.4387 369.539L50.5199 370.32M51.4387 369.539C51.121 369.797 50.8151 370.056 50.5199 370.32M50.5199 370.32L49.648 371.061L49.4462 366.936C49.4462 366.936 46.9844 367.953 46.4194 367.953C46.219 364.133 52.6287 362.998 53.1407 362.41C53.6528 361.822 48.0107 358.238 48.789 358.334C49.5673 358.429 54.5032 359.245 54.5032 359.245C58.7363 353.592 60.7679 351.075 61.117 352.843V355.574C68.1602 353.389 72.0513 352.252 75.4951 355.574C79.6885 354.585 84.5599 352.73 83.8789 354.258L82.9474 357.656C87.515 357.218 90.6096 356.687 89.5777 359.245L86.1256 360.396L88.427 361.437C92.4729 362.749 92.8057 363.872 90.3042 365.674" stroke="black" stroke-width="2.66667"/>
<path d="M69.3799 430.147C71.4227 430.279 73.3033 431.156 75.7553 433.139C81.5865 430.375 84.7635 429.139 89.2437 430.966C97.6137 435.99 98.5033 449.65 101.157 470.971C97.192 470.943 94.4006 471.28 91.1684 472.124V484.047C86.4494 484.189 84.6176 483.834 82.8943 482.375V474.011C79.2919 474.444 77.0726 474.933 75.5529 475.576C75.2381 479.207 75.2656 481.272 75.8741 485.03L73.1089 490.146C69.5989 490.192 67.8223 489.739 64.8234 488.505C58.1018 484.76 55.9978 482.397 54.9868 477.746L57.1228 437.616C57.471 437.304 57.8091 437.003 58.1378 436.711C63.5354 431.923 66.392 429.892 69.3799 430.147Z" fill="#827160"/>
<path d="M82.7386 429.025C84.9389 428.574 86.9945 428.701 89.2855 429.552L89.7471 429.732L89.8421 429.77L89.9294 429.823C94.5925 432.621 97.0191 437.749 98.641 444.547C100.264 451.349 101.161 460.209 102.48 470.806L102.668 472.314L101.147 472.304C97.7027 472.28 95.204 472.537 92.5016 473.168V485.341L91.2087 485.379C86.4701 485.522 84.1716 485.203 82.0329 483.392L81.5609 482.993V475.529C79.4085 475.833 77.9105 476.159 76.8135 476.526C76.5833 479.555 76.6488 481.475 77.1898 484.817L77.2627 485.265L73.9092 491.469L73.1266 491.479C69.4078 491.528 67.4523 491.028 64.3161 489.738L64.2432 489.708L64.1742 489.67C60.786 487.782 58.4213 486.169 56.777 484.362C55.0895 482.508 54.2259 480.523 53.6839 478.03L53.6455 477.855L53.6553 477.676L55.8206 436.993L56.2327 436.623C56.5822 436.31 56.9222 436.007 57.2529 435.713C59.9481 433.323 62.0922 431.543 63.9684 430.399C65.8634 429.244 67.6016 428.665 69.4652 428.817L69.4658 428.817C69.4726 428.817 69.4793 428.818 69.486 428.819C69.4884 428.819 69.4908 428.819 69.4932 428.819L69.4925 428.819C71.6972 428.968 73.6644 429.862 75.9294 431.583C78.4943 430.38 80.6697 429.448 82.7386 429.025ZM56.3278 477.632C56.7962 479.7 57.4863 481.179 58.7497 482.567C60.0813 484.031 62.1107 485.463 65.4033 487.301C67.9871 488.36 69.5459 488.783 72.3135 488.812L74.4867 484.791C74.0846 482.197 73.9653 480.356 74.0459 478.191C73.9279 478.317 73.8119 478.449 73.6982 478.588L72.124 480.522L71.3903 478.139C69.2099 471.058 68.432 466.947 68.0628 459.743L58.3258 440.094L56.3278 477.632ZM89.835 473.883C89.2309 474.063 88.6011 474.26 87.9359 474.477C87.4952 474.62 87.0393 474.773 86.5654 474.933L86.4176 474.982L86.262 474.997C85.5411 475.064 84.8641 475.133 84.2275 475.202V481.719C85.2987 482.456 86.6421 482.766 89.835 482.739V473.883ZM69.266 431.476C68.1524 431.38 66.9765 431.689 65.3564 432.676C63.8673 433.584 62.1051 435.002 59.7861 437.035L70.6976 459.054L70.7113 459.332C71.0268 465.738 71.6468 469.539 73.3213 475.29C73.807 474.945 74.365 474.631 75.0329 474.348C76.7341 473.628 79.1097 473.123 82.7347 472.687C83.6818 472.573 84.7201 472.463 85.8604 472.356C85.9663 472.32 86.0717 472.286 86.1761 472.251C85.9343 454.888 84.927 447.574 81.4001 440.351C78.7033 437.572 76.6473 435.575 74.917 434.176C72.5736 432.281 70.9515 431.585 69.2939 431.478L69.2803 431.477L69.266 431.476ZM88.6442 432.163C86.6859 431.382 85.0634 431.271 83.2731 431.637C81.8014 431.938 80.2042 432.562 78.1937 433.475C79.7144 434.844 81.4353 436.555 83.4645 438.649L83.6097 438.799L83.7021 438.986C87.5303 446.731 88.5674 454.444 88.8311 471.401C89.52 471.193 90.1832 471.003 90.8317 470.834C93.7584 470.07 96.3436 469.708 99.6507 469.646C98.4169 459.609 97.5508 451.472 96.0466 445.166C94.4801 438.601 92.2984 434.402 88.6442 432.163Z" fill="black"/>
<path d="M68.1645 429.937C63.8379 431.268 61.7934 433.115 58.4386 437.252L60.574 448.763L80.4145 446.716L83.6046 456.164L55.5749 462.501L54.3395 478.042C53.344 479.678 52.7202 479.699 51.5579 479.056C47.7878 473.455 46.1813 470.228 44.8853 464.207V432.388C43.6958 423.103 43.5247 419.613 44.6941 418.495C46.4462 416.681 48.0404 415.883 52.3191 415.015L64.7964 429.292L66.2189 413.815L78.8507 416.546L98.6105 428.586L132.067 437.228C132.915 437.338 133.202 437.645 133.442 438.55L133.05 449.144C132.939 450.778 132.539 451.134 131.347 450.978L96.4499 441.091C93.5931 433.997 91.7182 430.946 87.0675 429.937C85.2333 429.776 83.398 430.086 80.8663 430.873C79.3364 431.348 77.5522 431.997 75.3603 432.821C72.1003 430.253 70.0833 429.478 68.1645 429.937Z" fill="#D0BDA7"/>
<path d="M79.352 415.291L99.1346 427.343L132.338 435.921C132.857 435.998 133.437 436.169 133.916 436.638C134.393 437.106 134.598 437.708 134.731 438.207L134.782 438.4L134.775 438.599L134.382 449.194L134.381 449.214L134.379 449.235C134.349 449.682 134.296 450.111 134.19 450.496C134.084 450.881 133.903 451.304 133.565 451.656C132.823 452.428 131.823 452.385 131.174 452.3L131.077 452.287L130.984 452.261L95.4568 442.196L95.2127 441.589C93.7811 438.034 92.6589 435.666 91.3859 434.06C90.1924 432.554 88.8542 431.705 86.8663 431.259C85.3056 431.136 83.6758 431.396 81.2615 432.146C80.2975 432.446 79.2237 432.819 77.9913 433.268C79.3719 434.454 80.9359 435.884 82.7316 437.58L80.9008 439.519C78.2846 437.048 76.2259 435.201 74.535 433.869C71.3281 431.343 69.7632 430.938 68.5044 431.227C67.4958 431.54 66.6343 431.878 65.8611 432.265L65.839 432.512L65.6971 432.35C64.9937 432.715 64.3617 433.122 63.7557 433.594C62.5169 434.558 61.3414 435.82 59.8618 437.618L61.66 447.311L81.3364 445.28L85.3403 457.138L56.8253 463.585L55.643 478.464L55.4777 478.736C54.9703 479.569 54.3426 480.392 53.3989 480.679C52.3972 480.984 51.5037 480.55 50.9126 480.224L50.6307 480.068L50.4516 479.801C46.6164 474.102 44.9225 470.719 43.5812 464.488L43.5519 464.349V432.475C42.9647 427.885 42.6181 424.648 42.5714 422.406C42.5479 421.28 42.5978 420.335 42.757 419.563C42.916 418.792 43.2095 418.07 43.7719 417.531C44.7236 416.552 45.6824 415.801 46.9978 415.191C48.2939 414.59 49.8846 414.148 52.0538 413.708L52.8129 413.554L63.7531 426.073L65.0284 412.194L79.352 415.291ZM46.2185 464.063C47.4421 469.686 48.9359 472.742 52.4751 478.029C52.5463 478.062 52.6011 478.083 52.643 478.097C52.657 478.085 52.6745 478.07 52.6938 478.05C52.7806 477.961 52.8932 477.821 53.0363 477.606L54.1587 463.477C54.1169 463.44 54.077 463.403 54.0402 463.365C53.8057 463.123 53.6363 462.831 53.5057 462.568C53.3683 462.291 53.2316 461.958 53.089 461.573L53.0805 461.55L53.0727 461.527L46.2185 440.704V464.063ZM51.8286 416.48C50.1439 416.848 49.003 417.2 48.1202 417.61C47.1477 418.061 46.4412 418.605 45.6528 419.421L45.6346 419.44L45.615 419.459C45.5923 419.48 45.4692 419.615 45.3689 420.101C45.2685 420.588 45.2163 421.305 45.2381 422.351C45.2813 424.423 45.6054 427.511 46.1912 432.093L55.5922 460.653C55.6562 460.826 55.7125 460.97 55.7628 461.091L81.8676 455.189L79.4913 448.151L59.4868 450.216L57.1437 437.586L54.7225 430.361L57.2504 429.514L58.9464 434.574C60.0162 433.353 61.0269 432.339 62.1176 431.49C62.6902 431.044 63.2787 430.649 63.9002 430.293L51.8286 416.48ZM66.1404 429.228C66.6545 429.027 67.1966 428.84 67.7726 428.663L67.8123 428.651L67.8533 428.641C70.2689 428.062 72.5933 429.048 75.5883 431.313C76.7333 430.885 77.7719 430.506 78.7251 430.176L73.6547 423.102L75.8221 421.549L81.3963 429.324C83.5697 428.71 85.3552 428.448 87.184 428.609L87.268 428.617L87.3494 428.634C89.967 429.202 91.8712 430.379 93.4757 432.404C94.9273 434.236 96.1134 436.742 97.4373 439.985L131.602 449.664C131.617 449.666 131.632 449.668 131.646 449.669C131.673 449.534 131.698 449.343 131.717 449.077L132.101 438.718C132.082 438.657 132.065 438.611 132.051 438.576C132.015 438.569 131.965 438.559 131.896 438.55L131.814 438.54L98.0851 429.827L78.3488 417.802L67.408 415.436L66.1404 429.228Z" fill="black"/>
<path d="M83.7366 455.559L79.8818 445.881C80.55 442.731 80.957 441.071 82.2103 439.843C84.2317 438.507 85.2195 438.219 86.585 438.963C88.6863 440.266 87.9364 442.115 86.1315 445.685C91.1326 440.758 94.4838 436.268 97.255 438.376C98.1909 439.139 95.8929 442.011 93.4671 445.685C95.8382 443.213 97.1545 441.474 99.7358 444.672C99.8628 446.299 97.855 447.162 95.2376 448.724C98.4888 447.227 100.21 446.592 101.647 448.724C101.522 450.456 100.122 451.472 96.5195 453.323C100.024 451.599 101.82 450.965 103.532 452.758C103.571 453.9 101.58 455.387 98.0559 458.02L98.0045 458.058C92.5012 456.328 89.3716 455.843 83.7366 455.559Z" fill="#FFE0B4"/>
<path d="M134.396 438.376C138.43 436.511 140.539 435.255 145.198 434.249C146.159 434.077 146.578 434.03 146.577 434.249C147.088 434.832 147.49 435.566 147.752 436.591C148.04 438.068 146.792 438.832 144.473 439.722L144.041 440.898C152.026 440.41 156.55 441.234 156.492 443.375C155.996 445.006 154.505 445.643 152.494 445.749C154.716 446.007 156.214 446.425 155.709 447.612C154.858 449.36 153.577 450.126 151.834 450.221C152.678 450.554 153.229 451.009 153.33 451.719C150.806 456.031 147.867 454.185 142.605 450.839C145.515 453.665 148.419 455.903 146.908 456.739C142.861 457.61 141.061 456.459 138.791 451.1C136.888 451.385 135.862 450.717 134.065 448.851L134.396 438.376Z" fill="#FFE0B4"/>
<path d="M94.7183 436.645C95.8719 436.348 97.0257 436.527 98.062 437.315L98.0796 437.328L98.0965 437.343C98.9838 438.065 98.8384 439.127 98.6825 439.683C98.51 440.298 98.1556 440.971 97.7658 441.623C97.7592 441.634 97.7516 441.644 97.745 441.655C98.0193 441.708 98.2951 441.798 98.5711 441.929C99.3561 442.301 100.073 442.967 100.773 443.834L101.033 444.156L101.065 444.568C101.115 445.218 100.969 445.775 100.714 446.254C100.849 446.304 100.983 446.363 101.115 446.433C101.78 446.781 102.309 447.321 102.752 447.979L103.009 448.36L102.977 448.819C102.931 449.457 102.76 450.021 102.478 450.535C102.537 450.553 102.597 450.57 102.656 450.591C103.269 450.811 103.807 451.169 104.292 451.632L104.496 451.837L104.847 452.204L104.864 452.712C104.888 453.401 104.602 453.993 104.285 454.451C103.963 454.915 103.521 455.37 103.024 455.819C102.033 456.715 100.593 457.788 98.8537 459.088L98.2554 459.534L97.6043 459.33C92.2218 457.638 89.2053 457.17 83.6694 456.89L82.8146 456.847L78.4937 445.999L78.5776 445.604C79.2221 442.566 79.6803 440.455 81.2769 438.891L81.368 438.802L81.4748 438.731C82.492 438.059 83.4248 437.524 84.3595 437.32C85.3401 437.106 86.2057 437.276 87.0535 437.703L87.2228 437.793L87.2554 437.81L87.2873 437.83C87.9616 438.248 88.5206 438.781 88.8576 439.486C89.0463 439.881 89.1418 440.287 89.1746 440.694C90.0653 439.801 90.9068 438.995 91.687 438.359C92.6383 437.584 93.654 436.919 94.7183 436.645ZM146.213 432.77C146.361 432.766 146.695 432.763 147.033 432.912C147.229 432.998 147.473 433.155 147.66 433.431C147.689 433.473 147.714 433.517 147.737 433.56C148.28 434.231 148.7 435.034 148.984 436.038L149.044 436.261L149.053 436.298L149.06 436.336C149.173 436.914 149.147 437.497 148.932 438.056C148.72 438.606 148.363 439.04 147.96 439.387C147.943 439.401 147.925 439.415 147.908 439.429C150.156 439.42 152.052 439.553 153.537 439.841C154.672 440.062 155.688 440.396 156.447 440.916C157.252 441.468 157.854 442.305 157.824 443.41L157.819 443.59L157.767 443.762C157.523 444.567 157.097 445.215 156.537 445.715C156.686 445.869 156.821 446.051 156.927 446.265C157.247 446.911 157.171 447.58 156.936 448.134L156.923 448.166L156.908 448.196C156.398 449.242 155.719 450.074 154.836 450.652C154.717 450.73 154.596 450.801 154.473 450.868C154.554 451.071 154.616 451.292 154.65 451.533L154.714 451.993L154.48 452.393C153.779 453.59 152.966 454.508 151.958 455.047C150.917 455.604 149.822 455.675 148.733 455.458C148.669 455.445 148.604 455.431 148.539 455.416C148.548 455.444 148.557 455.471 148.565 455.499C148.673 455.88 148.714 456.365 148.512 456.863C148.308 457.364 147.932 457.696 147.554 457.906L147.381 458.002L147.188 458.043C145.03 458.507 143.118 458.512 141.43 457.356C140.022 456.392 138.965 454.74 137.947 452.495C137.191 452.487 136.486 452.326 135.785 451.971C134.848 451.496 134.008 450.714 133.104 449.776L132.714 449.371L133.089 437.511L133.836 437.166C137.804 435.331 140.077 433.99 144.917 432.946L144.94 432.941L144.963 432.937C145.416 432.856 145.868 432.779 146.213 432.77ZM96.0243 439.215C95.8267 439.159 95.6235 439.166 95.3836 439.228C94.8839 439.356 94.2299 439.727 93.3719 440.426C91.6233 441.851 89.6737 444.067 87.0672 446.635L84.9416 445.084C85.8742 443.239 86.3894 442.096 86.5028 441.288C86.5521 440.936 86.5063 440.751 86.4513 440.636C86.3958 440.52 86.2652 440.34 85.911 440.116C85.4698 439.881 85.2143 439.864 84.9272 439.926C84.5375 440.011 83.995 440.27 83.0633 440.879C82.2487 441.725 81.8885 442.89 81.2703 445.765L84.6597 454.273C89.6565 454.559 92.7967 455.065 97.7482 456.584C99.2855 455.434 100.442 454.558 101.236 453.841C101.532 453.573 101.749 453.35 101.906 453.166C101.855 453.141 101.806 453.12 101.758 453.103C101.535 453.023 101.262 452.99 100.878 453.043C100.029 453.158 98.8993 453.639 97.1082 454.52L95.9097 452.137C97.722 451.206 98.8375 450.553 99.5177 449.968C99.9172 449.624 100.121 449.343 100.224 449.069C100.089 448.928 99.9733 448.845 99.8778 448.795C99.7266 448.716 99.5348 448.668 99.2261 448.692C98.4954 448.75 97.4847 449.158 95.7951 449.935L94.5542 447.579C95.9663 446.736 96.9753 446.215 97.7118 445.659C98.0555 445.399 98.2304 445.209 98.3192 445.07C97.9246 444.644 97.6318 444.434 97.4299 444.338C97.2337 444.245 97.1225 444.253 96.9774 444.306C96.76 444.385 96.4512 444.584 95.9897 445.012C95.5309 445.437 95.0518 445.959 94.4292 446.608L92.3543 444.951C93.6186 443.036 94.7336 441.499 95.4774 440.255C95.7444 439.808 95.9198 439.466 96.0243 439.215ZM145.456 435.558C141.275 436.462 139.302 437.545 135.703 439.236L135.415 448.323C136.092 448.997 136.567 449.378 136.991 449.593C137.417 449.809 137.86 449.891 138.594 449.782L139.616 449.629L140.019 450.58C141.148 453.245 142.043 454.543 142.936 455.155C143.567 455.587 144.339 455.766 145.583 455.615C145.532 455.553 145.477 455.488 145.416 455.42C144.556 454.449 143.22 453.296 141.676 451.796L143.32 449.714C144.646 450.557 145.776 451.274 146.785 451.825C147.8 452.379 148.599 452.713 149.255 452.843C149.874 452.967 150.316 452.901 150.701 452.696C151.014 452.528 151.375 452.221 151.774 451.671C151.72 451.638 151.656 451.6 151.578 451.563C149.645 451.591 147.375 450.97 144.877 450.112L145.608 447.551C146.815 447.827 148.006 448.01 149.166 448.211C150.157 448.383 151.166 448.576 152.017 448.869C152.582 448.808 153.02 448.653 153.375 448.421C153.696 448.211 154.004 447.9 154.288 447.433C153.899 447.304 153.289 447.187 152.434 447.085C150.505 447.167 148.227 446.822 146.014 446.414L146.465 443.785C148.509 444.11 150.56 444.191 152.516 444.41C153.372 444.357 153.994 444.198 154.419 443.965C154.733 443.792 154.958 443.571 155.109 443.257C155.077 443.223 155.024 443.174 154.94 443.116C154.618 442.895 154.015 442.651 153.028 442.459C151.255 442.115 148.626 442.007 145.197 442.17L145.018 443.355L144.846 443.606C144.151 444.621 143.498 445.386 142.711 445.978C141.956 446.546 141.15 446.897 140.22 447.204C140.152 447.238 140.076 447.272 139.99 447.299C139.848 447.342 139.603 447.392 139.307 447.33C138.979 447.262 138.697 447.077 138.504 446.824C138.193 446.416 138.218 445.978 138.221 445.901C138.227 445.75 138.255 445.618 138.274 445.536C138.348 445.23 138.514 444.813 138.707 444.365C139.116 443.411 139.838 441.875 140.867 439.718L141.104 439.221L141.624 439.037C142.145 438.852 142.69 438.754 143.093 438.681C143.553 438.598 143.814 438.547 143.996 438.477C145.162 438.029 145.85 437.685 146.22 437.366C146.383 437.226 146.428 437.137 146.442 437.1C146.452 437.075 146.47 437.015 146.447 436.876C146.291 436.283 146.087 435.843 145.852 435.491C145.743 435.509 145.613 435.53 145.456 435.558Z" fill="black"/>
<path d="M74.6864 385.769C74.6864 387.242 73.4925 388.436 72.0197 388.436C70.5469 388.436 69.353 387.242 69.353 385.769C69.353 384.297 70.5469 383.103 72.0197 383.103C73.4925 383.103 74.6864 384.297 74.6864 385.769Z" fill="black"/>
<path d="M87.4618 385.201C87.4618 386.674 86.2678 387.868 84.7951 387.868C83.3223 387.868 82.1284 386.674 82.1284 385.201C82.1284 383.729 83.3223 382.535 84.7951 382.535C86.2678 382.535 87.4618 383.729 87.4618 385.201Z" fill="black"/>
<path d="M67.771 381.439C70.9534 381.414 72.6009 381.11 74.9534 379.322" stroke="black" stroke-width="2" stroke-linecap="round"/>
<path d="M80.5288 379.02C83.2163 380.189 84.7364 380.49 87.4621 380.348" stroke="black" stroke-width="2" stroke-linecap="round"/>
<path d="M72.9482 398.331C78.0374 392.559 80.8257 392.706 85.704 397.927" stroke="black" stroke-width="2" stroke-linecap="round"/>
<path d="M78.5817 397.078C79.8182 396.394 80.4369 396.478 81.378 397.647" stroke="black" stroke-width="1.33333" stroke-linecap="round"/>
</g>
<defs>
<clipPath id="clip0_244_1904">
<rect width="390" height="781" fill="white" transform="translate(0.390625 0.5)"/>
</clipPath>
</defs>
</svg>
