<svg width="22" height="22" viewBox="0 0 22 22" fill="none" xmlns="http://www.w3.org/2000/svg">
<path d="M7.74984 13.4375C7.37067 13.4375 7.05019 13.3066 6.78838 13.0448C6.52657 12.783 6.39567 12.4625 6.39567 12.0833C6.39567 11.7042 6.52657 11.3837 6.78838 11.1219C7.05019 10.8601 7.37067 10.7292 7.74984 10.7292C8.129 10.7292 8.44949 10.8601 8.7113 11.1219C8.9731 11.3837 9.104 11.7042 9.104 12.0833C9.104 12.4625 8.9731 12.783 8.7113 13.0448C8.44949 13.3066 8.129 13.4375 7.74984 13.4375ZM14.2498 13.4375C13.8707 13.4375 13.5502 13.3066 13.2884 13.0448C13.0266 12.783 12.8957 12.4625 12.8957 12.0833C12.8957 11.7042 13.0266 11.3837 13.2884 11.1219C13.5502 10.8601 13.8707 10.7292 14.2498 10.7292C14.629 10.7292 14.9495 10.8601 15.2113 11.1219C15.4731 11.3837 15.604 11.7042 15.604 12.0833C15.604 12.4625 15.4731 12.783 15.2113 13.0448C14.9495 13.3066 14.629 13.4375 14.2498 13.4375ZM10.9998 19.6667C13.4193 19.6667 15.4686 18.8271 17.1478 17.1479C18.8269 15.4687 19.6665 13.4194 19.6665 11C19.6665 10.5667 19.6394 10.1469 19.5853 9.74062C19.5311 9.33437 19.4318 8.94166 19.2873 8.56249C18.9082 8.65277 18.529 8.72048 18.1498 8.76562C17.7707 8.81075 17.3734 8.83332 16.9582 8.83332C15.3151 8.83332 13.7623 8.48124 12.2998 7.77707C10.8373 7.07291 9.59151 6.08888 8.56234 4.82499C7.98456 6.23332 7.15852 7.45659 6.08421 8.49478C5.00991 9.53298 3.75956 10.3139 2.33317 10.8375V11C2.33317 13.4194 3.17275 15.4687 4.85192 17.1479C6.53109 18.8271 8.58039 19.6667 10.9998 19.6667ZM10.9998 21.8333C9.50123 21.8333 8.09289 21.549 6.77484 20.9802C5.45678 20.4114 4.31025 19.6396 3.33525 18.6646C2.36025 17.6896 1.58838 16.543 1.01963 15.225C0.450879 13.9069 0.166504 12.4986 0.166504 11C0.166504 9.50138 0.450879 8.09305 1.01963 6.77499C1.58838 5.45693 2.36025 4.31041 3.33525 3.33541C4.31025 2.36041 5.45678 1.58853 6.77484 1.01978C8.09289 0.451032 9.50123 0.166656 10.9998 0.166656C12.4984 0.166656 13.9068 0.451032 15.2248 1.01978C16.5429 1.58853 17.6894 2.36041 18.6644 3.33541C19.6394 4.31041 20.4113 5.45693 20.98 6.77499C21.5488 8.09305 21.8332 9.50138 21.8332 11C21.8332 12.4986 21.5488 13.9069 20.98 15.225C20.4113 16.543 19.6394 17.6896 18.6644 18.6646C17.6894 19.6396 16.5429 20.4114 15.2248 20.9802C13.9068 21.549 12.4984 21.8333 10.9998 21.8333Z" fill="#6A6A6A"/>
</svg>
