<svg width="93" height="92" viewBox="0 0 93 92" fill="none" xmlns="http://www.w3.org/2000/svg">
<path d="M24.6056 10.008C24.3566 10.0152 24.2838 10.0964 24.2888 10.4239L24.4306 81.3123C24.4347 81.9076 24.6597 81.9988 25.2017 82.008H66.0909L66.7502 81.4839L68.6899 82.008V10.1268L66.8127 10.7124L65.8317 10.1268L24.6056 10.008Z" fill="#DAA861"/>
<path d="M38.0551 13.8206L27.9277 13.6326L28.516 46.7392L37.6349 47.0211L38.0551 13.8206Z" fill="#1C1C1C" stroke="white" stroke-width="1.06382"/>
<path d="M37.0262 14.7905L28.8977 14.6309L29.384 45.8316L36.7416 46.12L37.0262 14.7905Z" fill="white" stroke="white" stroke-width="0.212765"/>
<path d="M66.9498 10.6636V15.5556M66.9498 15.5556H68.7115M66.9498 15.5556L66.6735 16.0218V28.4573M66.6735 28.4573L68.6862 28.5771M66.6735 28.4573L66.4099 44.3432M66.4099 44.3432L68.6988 44.2108M66.4099 44.3432V57.8731M66.4099 57.8731L68.6734 57.759M66.4099 57.8731V75.1093M66.4099 75.1093L68.6734 75.1727M66.4099 75.1093L66.747 81.4462" stroke="#FF0000" stroke-width="0.212765"/>
<path d="M34.3871 15.8399L34.9999 15.4246C35.1225 15.529 35.2473 15.647 35.3744 15.7787C35.506 15.9057 35.6285 16.0351 35.742 16.1667C35.86 16.2938 35.9508 16.4118 36.0144 16.5208L35.3539 16.9769C35.2995 16.868 35.2178 16.7477 35.1088 16.6161C35.0044 16.4799 34.8887 16.346 34.7616 16.2144C34.6345 16.0782 34.5097 15.9534 34.3871 15.8399ZM29.9276 17.1744H36.0688V17.9437H29.9276V17.1744ZM29.7982 19.0944C30.0706 19.0535 30.3883 19.0036 30.7514 18.9446C31.1145 18.8856 31.4981 18.8198 31.902 18.7471C32.3106 18.6745 32.7123 18.6042 33.1071 18.5361L33.1616 19.2714C32.7985 19.3486 32.4286 19.4257 32.0518 19.5029C31.6796 19.5801 31.3165 19.6549 30.9625 19.7276C30.613 19.7957 30.2907 19.8592 29.9957 19.9182L29.7982 19.0944ZM31.2144 16.0714H32.0382V20.6739C32.0382 20.8964 32.011 21.0688 31.9565 21.1914C31.9066 21.3139 31.8135 21.407 31.6774 21.4705C31.5412 21.5341 31.371 21.5749 31.1667 21.5931C30.9625 21.6158 30.7196 21.6271 30.4382 21.6271C30.4291 21.55 30.4087 21.4615 30.3769 21.3616C30.3452 21.2617 30.3089 21.1619 30.268 21.062C30.2317 20.9622 30.1931 20.8759 30.1523 20.8033C30.3429 20.8124 30.5267 20.8169 30.7038 20.8169C30.8808 20.8169 30.9988 20.8147 31.0578 20.8101C31.1168 20.8101 31.1577 20.801 31.1803 20.7829C31.203 20.7602 31.2144 20.7216 31.2144 20.6671V16.0714ZM32.6101 15.2816L33.1684 15.9761C32.8734 16.0669 32.5534 16.1486 32.2084 16.2212C31.8635 16.2893 31.5117 16.3506 31.1531 16.405C30.7991 16.4595 30.4564 16.5049 30.125 16.5412C30.1114 16.4459 30.0796 16.3301 30.0297 16.194C29.9843 16.0578 29.9389 15.9443 29.8935 15.8535C30.2113 15.8127 30.5358 15.7628 30.8672 15.7038C31.1985 15.6448 31.514 15.5789 31.8135 15.5063C32.1131 15.4337 32.3786 15.3588 32.6101 15.2816ZM33.2842 15.2884H34.1352C34.1261 15.8377 34.1398 16.3801 34.1761 16.9157C34.2169 17.4513 34.2759 17.9551 34.3531 18.4272C34.4303 18.8947 34.521 19.31 34.6254 19.6731C34.7298 20.0317 34.841 20.3131 34.959 20.5174C35.0771 20.7216 35.1996 20.8237 35.3267 20.8237C35.3993 20.8237 35.4538 20.7352 35.4901 20.5582C35.531 20.3812 35.5605 20.0907 35.5786 19.6867C35.6649 19.7775 35.7715 19.8683 35.8986 19.9591C36.0257 20.0453 36.1437 20.1111 36.2527 20.1565C36.2073 20.5559 36.146 20.8623 36.0688 21.0756C35.9917 21.2935 35.885 21.4433 35.7488 21.525C35.6172 21.6112 35.4493 21.6544 35.245 21.6544C35.009 21.6544 34.7956 21.5681 34.605 21.3956C34.4189 21.2277 34.2532 20.9917 34.108 20.6876C33.9673 20.3835 33.8447 20.0294 33.7403 19.6254C33.6405 19.2169 33.5565 18.7767 33.4884 18.3046C33.4203 17.828 33.3704 17.3333 33.3386 16.8204C33.3069 16.3074 33.2887 15.7968 33.2842 15.2884ZM35.1361 18.1684L35.851 18.4816C35.6195 18.9037 35.3449 19.2964 35.0271 19.6595C34.7094 20.0226 34.3622 20.3517 33.9854 20.6467C33.6087 20.9372 33.2138 21.1914 32.8008 21.4093C32.7418 21.3094 32.6601 21.1982 32.5557 21.0756C32.4558 20.9531 32.3537 20.8464 32.2493 20.7556C32.6396 20.5741 33.0164 20.3539 33.3795 20.0952C33.7471 19.8365 34.0808 19.5437 34.3803 19.2169C34.6799 18.8901 34.9318 18.5406 35.1361 18.1684ZM31.3642 27.6186H32.1744V28.5446C32.1744 28.6444 32.1993 28.708 32.2493 28.7352C32.3037 28.7579 32.424 28.7693 32.6101 28.7693C32.6555 28.7693 32.7259 28.7693 32.8212 28.7693C32.9165 28.7693 33.0209 28.7693 33.1344 28.7693C33.2524 28.7693 33.3613 28.7693 33.4612 28.7693C33.5656 28.7693 33.6473 28.7693 33.7063 28.7693C33.8107 28.7693 33.8878 28.7534 33.9378 28.7216C33.9922 28.6853 34.0308 28.6104 34.0535 28.4969C34.0762 28.3835 34.0944 28.2132 34.108 27.9863C34.1625 28.0271 34.2328 28.068 34.3191 28.1088C34.4098 28.1452 34.5006 28.1792 34.5914 28.211C34.6867 28.2382 34.7707 28.2609 34.8433 28.2791C34.8115 28.6013 34.7593 28.8487 34.6867 29.0212C34.6141 29.1982 34.5051 29.3208 34.3599 29.3888C34.2147 29.4569 34.0172 29.491 33.7676 29.491C33.7267 29.491 33.6654 29.491 33.5837 29.491C33.502 29.491 33.4067 29.491 33.2978 29.491C33.1934 29.491 33.089 29.491 32.9846 29.491C32.8847 29.491 32.794 29.491 32.7123 29.491C32.6306 29.491 32.5693 29.491 32.5284 29.491C32.2198 29.491 31.9815 29.4615 31.8135 29.4025C31.6456 29.348 31.5276 29.2527 31.4595 29.1165C31.3959 28.9803 31.3642 28.792 31.3642 28.5514V27.6186ZM32.3514 27.5301L32.9097 27.0808C33.0141 27.167 33.123 27.2646 33.2365 27.3735C33.3545 27.4825 33.468 27.5914 33.5769 27.7003C33.6859 27.8047 33.7744 27.8978 33.8425 27.9795L33.2501 28.4833C33.1911 28.4016 33.1094 28.304 33.005 28.1905C32.9006 28.0771 32.7894 27.9636 32.6714 27.8501C32.5579 27.7321 32.4513 27.6254 32.3514 27.5301ZM34.6459 27.7208L35.3607 27.3871C35.4561 27.5233 35.5582 27.6754 35.6671 27.8433C35.7761 28.0113 35.8805 28.1747 35.9803 28.3335C36.0802 28.4878 36.1619 28.624 36.2254 28.742L35.4629 29.1369C35.4084 29.0144 35.3335 28.8714 35.2382 28.708C35.1474 28.5446 35.0476 28.3766 34.9386 28.2042C34.8342 28.0317 34.7366 27.8705 34.6459 27.7208ZM30.3906 27.4757L31.1191 27.7616C31.0737 27.9205 31.0215 28.0907 30.9625 28.2722C30.9035 28.4538 30.8377 28.6308 30.765 28.8033C30.6969 28.9713 30.6221 29.121 30.5403 29.2527L29.7914 28.885C29.8777 28.7625 29.9571 28.6217 30.0297 28.4629C30.1069 28.304 30.1772 28.1406 30.2408 27.9727C30.3043 27.8002 30.3543 27.6345 30.3906 27.4757ZM29.914 24.2076H32.7735V24.9021H29.914V24.2076ZM31.0374 23.2476H31.8135V27.3395H31.0374V23.2476ZM31.0169 24.6638L31.5684 24.8408C31.4776 25.1177 31.3642 25.39 31.228 25.6578C31.0918 25.9256 30.942 26.1752 30.7786 26.4067C30.6152 26.6382 30.445 26.8334 30.268 26.9923C30.209 26.906 30.1273 26.8062 30.0229 26.6927C29.9185 26.5747 29.8255 26.4839 29.7438 26.4203C29.9162 26.2978 30.0819 26.1435 30.2408 25.9574C30.4042 25.7667 30.5517 25.5602 30.6833 25.3378C30.815 25.1108 30.9262 24.8862 31.0169 24.6638ZM31.7659 25.1267C31.8249 25.1585 31.9066 25.2107 32.011 25.2833C32.1199 25.3514 32.2334 25.4286 32.3514 25.5148C32.474 25.5965 32.5829 25.6737 32.6782 25.7463C32.7781 25.8144 32.853 25.8666 32.9029 25.9029L32.4671 26.5565C32.4036 26.4839 32.3219 26.4022 32.222 26.3114C32.1267 26.2161 32.0246 26.1185 31.9157 26.0186C31.8113 25.9188 31.7069 25.8257 31.6025 25.7395C31.5026 25.6533 31.4186 25.5829 31.3506 25.5284L31.7659 25.1267ZM33.788 25.2152V25.6169H35.0476V25.2152H33.788ZM33.788 26.2161V26.6246H35.0476V26.2161H33.788ZM33.788 24.2212V24.6161H35.0476V24.2212H33.788ZM33.0459 23.5812H35.8305V27.2578H33.0459V23.5812ZM32.3446 33.8144V34.9991H33.5429V33.8144H32.3446ZM31.5752 33.0995H34.3667V35.7071H31.5752V33.0995ZM30.0706 31.4655H35.919V37.6271H35.0271V32.3029H30.9216V37.6271H30.0706V31.4655ZM30.554 36.4969H35.531V37.2595H30.554V36.4969ZM32.5625 39.2408H33.4067V40.2144H32.5625V39.2408ZM30.1046 39.7787H35.9054V41.3106H35.068V40.5208H30.908V41.3106H30.1046V39.7787ZM31.1463 40.9497H34.8229V41.6442H31.1463V40.9497ZM31.8067 42.1684L32.4399 41.8008C32.7622 42.0232 33.0209 42.2728 33.2161 42.5497C33.4113 42.822 33.5542 43.1012 33.645 43.3871C33.7358 43.6686 33.7789 43.9409 33.7744 44.2042C33.7698 44.4629 33.7267 44.6944 33.645 44.8986C33.5633 45.0983 33.4476 45.2527 33.2978 45.3616C33.1707 45.4705 33.0436 45.5454 32.9165 45.5863C32.794 45.6271 32.6419 45.6476 32.4603 45.6476C32.3786 45.6521 32.2879 45.6521 32.188 45.6476C32.0881 45.643 31.986 45.6385 31.8816 45.6339C31.8771 45.5205 31.8567 45.3888 31.8203 45.2391C31.784 45.0938 31.7273 44.9644 31.6501 44.851C31.7772 44.86 31.8952 44.8691 32.0042 44.8782C32.1176 44.8827 32.2175 44.885 32.3037 44.885C32.39 44.885 32.4671 44.8759 32.5352 44.8578C32.6033 44.8396 32.6646 44.801 32.7191 44.742C32.8008 44.6785 32.8598 44.5809 32.8961 44.4493C32.9369 44.3131 32.9505 44.1542 32.9369 43.9727C32.9279 43.7866 32.8825 43.5914 32.8008 43.3871C32.7236 43.1784 32.6033 42.9696 32.4399 42.7608C32.281 42.552 32.07 42.3545 31.8067 42.1684ZM32.8893 41.1267L33.5633 41.4127C33.3227 41.6578 33.0323 41.8802 32.6918 42.0799C32.3514 42.2751 31.9883 42.4476 31.6025 42.5974C31.2212 42.7471 30.8422 42.872 30.4655 42.9718C30.4382 42.9174 30.3996 42.8515 30.3497 42.7744C30.2998 42.6927 30.2476 42.611 30.1931 42.5293C30.1386 42.4476 30.0887 42.3818 30.0433 42.3318C30.411 42.2592 30.7741 42.1662 31.1327 42.0527C31.4958 41.9392 31.8294 41.8053 32.1335 41.651C32.4376 41.4921 32.6896 41.3174 32.8893 41.1267ZM32.3582 42.4816L32.8825 42.8493C32.6964 42.9945 32.4694 43.1443 32.2016 43.2986C31.9338 43.453 31.6547 43.5959 31.3642 43.7276C31.0782 43.8592 30.8081 43.9704 30.554 44.0612C30.5086 43.9704 30.4473 43.8637 30.3701 43.7412C30.293 43.6186 30.2181 43.5188 30.1455 43.4416C30.327 43.3962 30.5199 43.3395 30.7242 43.2714C30.933 43.1988 31.1372 43.1193 31.3369 43.0331C31.5412 42.9469 31.7318 42.8584 31.9089 42.7676C32.0859 42.6723 32.2357 42.5769 32.3582 42.4816ZM32.9097 43.1352L33.468 43.5505C33.2864 43.723 33.0708 43.8955 32.8212 44.068C32.5761 44.2405 32.3106 44.4061 32.0246 44.565C31.7432 44.7193 31.4572 44.8623 31.1667 44.9939C30.8762 45.1256 30.5971 45.2368 30.3293 45.3276C30.2794 45.2232 30.2135 45.1074 30.1318 44.9803C30.0547 44.8487 29.9775 44.7375 29.9004 44.6467C30.1682 44.5832 30.445 44.4969 30.731 44.388C31.0169 44.2791 31.2961 44.1565 31.5684 44.0203C31.8408 43.8842 32.0927 43.7412 32.3242 43.5914C32.5557 43.4371 32.7508 43.285 32.9097 43.1352ZM33.9378 41.2425C34.0513 41.7191 34.2056 42.1662 34.4008 42.5837C34.5959 43.0013 34.8388 43.369 35.1293 43.6867C35.4243 44.0044 35.7738 44.2541 36.1778 44.4357C36.1188 44.4901 36.0529 44.5582 35.9803 44.6399C35.9077 44.7216 35.8373 44.8078 35.7693 44.8986C35.7057 44.9894 35.6512 45.0711 35.6059 45.1437C35.1792 44.9122 34.8138 44.6127 34.5097 44.245C34.2056 43.8728 33.9537 43.4462 33.7539 42.965C33.5542 42.4793 33.3886 41.9528 33.2569 41.3855L33.9378 41.2425ZM35.2722 41.685L35.9054 42.2365C35.7511 42.3545 35.5854 42.4748 35.4084 42.5974C35.2314 42.7154 35.0566 42.8266 34.8842 42.931C34.7117 43.0308 34.5505 43.1216 34.4008 43.2033L33.8833 42.7063C34.024 42.6246 34.1783 42.527 34.3463 42.4135C34.5188 42.2955 34.6867 42.173 34.8501 42.0459C35.0135 41.9188 35.1542 41.7985 35.2722 41.685Z" fill="black"/>
</svg>
