<svg width="390" height="782" viewBox="0 0 390 782" fill="none" xmlns="http://www.w3.org/2000/svg">
<g clip-path="url(#clip0_290_3232)">
<rect width="390" height="781" transform="translate(0.000244141 0.5)" fill="white"/>
<rect x="0.000244141" y="451.5" width="390" height="330" fill="#DED0B6"/>
<ellipse cx="252.845" cy="564.705" rx="10" ry="5" fill="black" fill-opacity="0.1"/>
<ellipse cx="194.199" cy="593.568" rx="10" ry="5" fill="black" fill-opacity="0.1"/>
<ellipse cx="264.611" cy="593.568" rx="10" ry="5" fill="black" fill-opacity="0.1"/>
<ellipse cx="366.47" cy="534.639" rx="10" ry="5" fill="black" fill-opacity="0.1"/>
<ellipse cx="57.3909" cy="583.568" rx="10" ry="5" fill="black" fill-opacity="0.1"/>
<rect x="0.000244141" y="0.5" width="390" height="451" fill="#4EAEE1"/>
<ellipse cx="86.7262" cy="486.858" rx="55.757" ry="20.9595" fill="black" fill-opacity="0.1"/>
<path d="M220.552 169.17C221.791 168.371 233.956 167.788 240.03 167.644C240.03 165.559 240.468 161.785 240.617 160.326C241.055 158.001 241.642 156.538 242.15 155.374C244.147 151.397 247.296 144.967 251.282 143.697C255.839 142.245 262.195 142.66 267.748 144.084C275.991 146.199 283.95 147.917 287.193 150.283C288.787 151.446 289.57 152.305 290.396 152.021C290.836 151.87 291.333 151.482 291.636 150.997C292.728 149.243 292.902 145.659 297.922 144.794C302.546 143.997 307.972 144.22 309.739 145.462C312.452 147.369 315.622 149.504 318.206 153.425C320.176 156.416 320.391 160.165 322.747 160.348C326.469 160.637 330.901 159.882 333.241 161.664C335.354 163.273 337.22 164.749 337.688 166.998C338.56 171.182 338.734 179.636 335.853 181.589C334.023 182.83 318.952 178.715 318.267 184.593C317.978 187.074 317.977 189.331 317.389 190.349C317.093 190.862 316.716 191.377 315.252 192.331C308.326 196.844 304.75 198.433 301.616 197.711C297.817 196.835 294.724 194.871 285.919 192.237C284.25 191.738 283.745 192.136 283.526 192.686C283.09 193.778 282.363 194.528 281.551 195.534C279.433 198.157 277.665 200.026 275.42 200.491C271.218 201.363 263.889 201.369 261.181 199.309C257.538 196.537 256.611 193.481 254.037 192.239C253.597 192.027 253.163 192.316 252.723 192.609C250.969 193.778 247.828 196.226 243.654 196.036C235.458 195.661 226.672 194.831 223.158 190.036C220.316 186.159 215.286 172.566 220.552 169.17Z" fill="white" stroke="white" stroke-width="2.70914" stroke-linecap="round"/>
<path d="M57.0928 213.917C58.3321 213.118 70.4972 212.536 76.571 212.391C76.571 210.307 77.0089 206.532 77.1578 205.074C77.5957 202.749 78.1825 201.286 78.6905 200.121C80.6873 196.145 83.837 189.714 87.8231 188.444C92.3795 186.993 98.7361 187.407 104.288 188.832C112.532 190.947 120.491 192.665 123.734 195.03C125.328 196.193 126.111 197.053 126.937 196.769C127.377 196.618 127.874 196.23 128.176 195.744C129.269 193.99 129.443 190.406 134.463 189.541C139.087 188.744 144.513 188.967 146.28 190.209C148.992 192.116 152.163 194.252 154.746 198.172C156.717 201.163 156.932 204.913 159.288 205.096C163.01 205.385 167.442 204.629 169.782 206.412C171.895 208.021 173.761 209.497 174.229 211.745C175.1 215.93 175.274 224.383 172.394 226.337C170.564 227.578 155.493 223.463 154.808 229.341C154.519 231.821 154.517 234.078 153.93 235.097C153.634 235.609 153.257 236.124 151.793 237.078C144.867 241.591 141.291 243.181 138.156 242.458C134.357 241.582 131.265 239.619 122.459 236.984C120.791 236.485 120.285 236.884 120.066 237.433C119.631 238.526 118.904 239.275 118.091 240.282C115.974 242.905 114.206 244.773 111.961 245.239C107.759 246.11 100.43 246.117 97.722 244.057C94.0786 241.285 93.152 238.229 90.5775 236.987C90.1374 236.774 89.7039 237.063 89.2638 237.357C87.51 238.526 84.3685 240.974 80.1947 240.783C71.9992 240.409 63.2125 239.579 59.6984 234.784C56.8564 230.906 51.8269 217.313 57.0928 213.917Z" fill="white" stroke="white" stroke-width="2.70914" stroke-linecap="round"/>
<rect x="361.749" y="394.97" width="80.9268" height="56.4422" fill="#D2D7D1"/>
<path d="M446.94 389.757L454.199 394.953H446.94V394.971H361.749V389.757H446.94Z" fill="#272E3E"/>
<rect x="361.749" y="399.397" width="80.9268" height="18.3355" fill="#BCC1BD"/>
<rect x="320.525" y="387.033" width="42.9044" height="64.4671" fill="#CADCDC"/>
<rect x="320.525" y="387.033" width="42.9044" height="10.5886" fill="#BACECD"/>
<path d="M359.708 384.048L363.143 387.023H359.707V387.033H319.396V384.048H359.708Z" fill="#272E3E"/>
<rect width="80.9268" height="56.4422" transform="matrix(-1 0 0 1 46.6492 394.97)" fill="#D2D7D1"/>
<path d="M-38.5422 389.757L-45.801 394.953H-38.5422V394.971H46.6492V389.757H-38.5422Z" fill="#272E3E"/>
<rect width="80.9268" height="18.3355" transform="matrix(-1 0 0 1 46.6492 399.397)" fill="#BCC1BD"/>
<rect width="42.9044" height="64.4671" transform="matrix(-1 0 0 1 87.8735 387.033)" fill="#CADCDC"/>
<rect width="42.9044" height="10.5886" transform="matrix(-1 0 0 1 87.8735 387.033)" fill="#BACECD"/>
<path d="M48.6912 384.048L45.2566 387.023H48.6912V387.033H89.0017V384.048H48.6912Z" fill="#272E3E"/>
<rect x="87.3674" y="383.899" width="233.904" height="67.5138" fill="#E2E3E5"/>
<rect x="87.2251" y="422.768" width="233.851" height="9.76172" fill="#D5DEE3"/>
<rect x="87.4199" y="437.48" width="233.851" height="9.76172" fill="#D5DEE3"/>
<path d="M310.4 324.935L300.22 326.25L313.84 308.09L328.675 303.533L310.4 324.935Z" fill="#66614D"/>
<path d="M302.748 327.874L287.071 330.363V315.817L314.951 308.895V312.628L302.748 327.874Z" fill="#6E7651"/>
<path d="M88.5383 324.52L93.8108 325.682L85.0979 307.675L70.2638 303.118L88.5383 324.52Z" fill="#66614D"/>
<path d="M95.2633 328.024L110.941 330.513V315.967L83.0608 309.044V312.778L95.2633 328.024Z" fill="#6E7651"/>
<ellipse cx="288.89" cy="296.678" rx="1.438" ry="1.55062" fill="#272E3E"/>
<ellipse cx="294.303" cy="298.228" rx="1.438" ry="1.55062" transform="rotate(5.96597 294.303 298.228)" fill="#272E3E"/>
<ellipse cx="298.923" cy="298.711" rx="1.438" ry="1.55062" transform="rotate(5.96597 298.923 298.711)" fill="#272E3E"/>
<ellipse cx="305.264" cy="299.374" rx="1.438" ry="1.55062" transform="rotate(5.96597 305.264 299.374)" fill="#272E3E"/>
<ellipse cx="310.83" cy="299.57" rx="1.438" ry="1.55062" transform="rotate(5.96597 310.83 299.57)" fill="#272E3E"/>
<ellipse cx="317.171" cy="300.232" rx="1.438" ry="1.55062" transform="rotate(5.96597 317.171 300.232)" fill="#272E3E"/>
<path d="M329.243 301.317C298.823 299.12 281.778 297.886 266.974 291.934C241.532 293.686 226.745 297.783 198.733 296.153L198.733 302.533C250.921 305.272 280.314 305.89 329.243 301.317Z" fill="#E2E3E5"/>
<path d="M268.09 297.136C241.242 299.878 226.056 301.088 198.352 301.711L195.512 318.752L270.457 317.805C295.459 315.836 309.19 313.152 332.464 301.711L327.889 299.502C299.719 303.809 286.916 302.979 268.09 297.136Z" fill="#272E3E"/>
<ellipse cx="1.438" cy="1.55062" rx="1.438" ry="1.55062" transform="matrix(-1 0 0 1 112.379 295.127)" fill="#272E3E"/>
<ellipse cx="1.438" cy="1.55062" rx="1.438" ry="1.55062" transform="matrix(-0.994584 0.103938 0.103938 0.994584 106.797 296.536)" fill="#272E3E"/>
<ellipse cx="1.438" cy="1.55062" rx="1.438" ry="1.55062" transform="matrix(-0.994584 0.103938 0.103938 0.994584 102.177 297.019)" fill="#272E3E"/>
<ellipse cx="1.438" cy="1.55062" rx="1.438" ry="1.55062" transform="matrix(-0.994584 0.103938 0.103938 0.994584 95.8364 297.682)" fill="#272E3E"/>
<ellipse cx="1.438" cy="1.55062" rx="1.438" ry="1.55062" transform="matrix(-0.994584 0.103938 0.103938 0.994584 90.2708 297.878)" fill="#272E3E"/>
<ellipse cx="1.438" cy="1.55062" rx="1.438" ry="1.55062" transform="matrix(-0.994584 0.103938 0.103938 0.994584 83.9294 298.541)" fill="#272E3E"/>
<path d="M70.5881 301.317C101.008 299.12 118.053 297.886 132.858 291.934C158.299 293.686 173.086 297.783 201.098 296.153L201.098 302.533C148.91 305.272 119.517 305.89 70.5881 301.317Z" fill="#E2E3E5"/>
<path d="M131.741 297.136C158.589 299.878 173.775 301.088 201.479 301.711L204.319 318.752L129.374 317.805C104.372 315.836 90.6415 313.152 67.3667 301.711L71.9423 299.502C100.112 303.809 112.915 302.979 131.741 297.136Z" fill="#272E3E"/>
<rect x="110.941" y="316.057" width="177.95" height="14.4555" fill="#607353"/>
<path d="M338.864 370.917L330.381 371.843L342.991 354.073L360.786 349.515L338.864 370.917Z" fill="#66614D"/>
<path d="M329.685 373.857L310.878 376.346V361.8L344.323 354.877V358.611L329.685 373.857Z" fill="#6E7651"/>
<path d="M72.7201 370.503L79.0449 371.664L68.5931 353.658L50.7981 349.1L72.7201 370.503Z" fill="#66614D"/>
<path d="M80.7876 374.006L99.594 376.495V361.949L66.1495 355.026V358.76L80.7876 374.006Z" fill="#6E7651"/>
<ellipse cx="313.062" cy="342.66" rx="1.72501" ry="1.55062" fill="#272E3E"/>
<ellipse cx="1.72217" cy="1.5543" rx="1.72217" ry="1.5543" transform="matrix(0.996227 0.0867873 -0.124388 0.992234 318.032 342.519)" fill="#272E3E"/>
<ellipse cx="1.72217" cy="1.5543" rx="1.72217" ry="1.5543" transform="matrix(0.996227 0.0867873 -0.124388 0.992234 323.574 343.002)" fill="#272E3E"/>
<ellipse cx="1.72217" cy="1.5543" rx="1.72217" ry="1.5543" transform="matrix(0.996227 0.0867873 -0.124388 0.992234 331.181 343.664)" fill="#272E3E"/>
<ellipse cx="1.72217" cy="1.5543" rx="1.72217" ry="1.5543" transform="matrix(0.996227 0.0867873 -0.124388 0.992234 337.857 343.86)" fill="#272E3E"/>
<ellipse cx="1.72217" cy="1.5543" rx="1.72217" ry="1.5543" transform="matrix(0.996227 0.0867873 -0.124388 0.992234 345.464 344.523)" fill="#272E3E"/>
<path d="M361.468 347.3C324.977 345.103 304.53 343.868 286.77 337.917C256.251 339.669 238.512 343.766 204.91 342.135L204.91 348.515C267.514 351.254 302.773 351.872 361.468 347.3Z" fill="#E2E3E5"/>
<path d="M288.11 343.118C255.903 345.861 237.966 342.494 204.731 343.118L201.045 364.734L290.949 363.787C320.942 361.818 337.412 359.135 365.333 347.694L359.844 345.485C326.052 349.792 310.694 348.961 288.11 343.118Z" fill="#272E3E"/>
<ellipse cx="1.72501" cy="1.55062" rx="1.72501" ry="1.55062" transform="matrix(-1 0 0 1 101.319 341.109)" fill="#272E3E"/>
<ellipse cx="1.72217" cy="1.5543" rx="1.72217" ry="1.5543" transform="matrix(-0.996227 0.0867873 0.124388 0.992234 94.624 342.519)" fill="#272E3E"/>
<ellipse cx="1.72217" cy="1.5543" rx="1.72217" ry="1.5543" transform="matrix(-0.996227 0.0867873 0.124388 0.992234 89.0818 343.002)" fill="#272E3E"/>
<ellipse cx="1.72217" cy="1.5543" rx="1.72217" ry="1.5543" transform="matrix(-0.996227 0.0867873 0.124388 0.992234 81.4751 343.664)" fill="#272E3E"/>
<ellipse cx="1.72217" cy="1.5543" rx="1.72217" ry="1.5543" transform="matrix(-0.996227 0.0867873 0.124388 0.992234 74.7986 343.86)" fill="#272E3E"/>
<ellipse cx="1.72217" cy="1.5543" rx="1.72217" ry="1.5543" transform="matrix(-0.996227 0.0867873 0.124388 0.992234 67.1919 344.523)" fill="#272E3E"/>
<path d="M51.1877 347.3C87.6788 345.103 108.126 343.868 125.886 337.917C156.405 339.669 174.144 343.766 207.746 342.135L207.746 348.515C145.142 351.254 109.883 351.872 51.1877 347.3Z" fill="#E2E3E5"/>
<path d="M124.546 343.118C156.753 345.861 175.098 342.494 208.332 343.118L211.611 364.734L121.707 363.787C91.7144 361.818 75.2435 359.135 47.3232 347.694L52.8121 345.485C86.6038 349.792 101.962 348.961 124.546 343.118Z" fill="#272E3E"/>
<rect x="99.594" y="362.04" width="213.467" height="14.4555" fill="#607353"/>
<rect width="177.95" height="3.55251" transform="matrix(1 0 0 -1 110.941 334.065)" fill="#639865"/>
<rect width="177.95" height="3.55251" transform="matrix(1 0 0 -1 110.941 337.767)" fill="#98B467"/>
<rect width="213.467" height="3.55251" transform="matrix(1 0 0 -1 99.594 380.197)" fill="#639865"/>
<rect width="213.467" height="3.55251" transform="matrix(1 0 0 -1 99.594 383.899)" fill="#98B467"/>
<rect width="177.95" height="5.97521" transform="matrix(1 0 0 -1 110.941 343.892)" fill="#EF524D"/>
<rect width="219.743" height="8.51071" transform="matrix(1 0 0 -1 95.8364 392.559)" fill="#272E3E"/>
<path d="M180.695 427.937C180.695 416.698 189.806 407.587 201.045 407.587C212.284 407.587 221.396 416.698 221.396 427.937V451.413H180.695V427.937Z" fill="#F47845"/>
<path d="M252.01 427.937C252.01 416.698 261.122 407.587 272.361 407.587C283.6 407.587 292.711 416.698 292.711 427.937V451.413H252.01V427.937Z" fill="#F47845"/>
<path d="M113.107 427.937C113.107 416.698 122.218 407.587 133.457 407.587C144.696 407.587 153.807 416.698 153.807 427.937V451.413H113.107V427.937Z" fill="#F47845"/>
<path d="M201.045 408.359V450.641" stroke="#D44C32" stroke-width="0.834757"/>
<path d="M272.361 408.022V450.303" stroke="#D44C32" stroke-width="0.834757"/>
<path d="M133.457 408.022V450.303" stroke="#D44C32" stroke-width="0.834757"/>
<rect x="198.385" y="398.614" width="5.32096" height="5.56267" fill="#C1C2C4"/>
<rect x="269.701" y="398.614" width="5.32096" height="5.56267" fill="#C1C2C4"/>
<rect x="130.522" y="397.509" width="5.32096" height="5.56267" fill="#C1C2C4"/>
<rect x="186.848" y="316.057" width="33.7164" height="14.3062" fill="#FDF1E1"/>
<path d="M133.689 553.912V563.677" stroke="#529C47" stroke-width="2" stroke-linecap="round"/>
<path d="M138.829 554.94V564.705" stroke="#529C47" stroke-width="2" stroke-linecap="round"/>
<path d="M148.332 557.155L145.073 564.705" stroke="#529C47" stroke-width="2" stroke-linecap="round"/>
<path d="M51.1875 528.322C51.4885 529.225 51.7941 530.192 52.0723 531.053C52.2 531.411 52.3003 531.612 52.5276 532.217C52.7548 532.822 53.106 533.825 53.6198 535.163" stroke="#529C47" stroke-width="2" stroke-linecap="round"/>
<path d="M59.5488 527.866V535.011" stroke="#529C47" stroke-width="2" stroke-linecap="round"/>
<path d="M63.9808 537.146C64.0096 537.187 64.0384 537.228 64.6164 536.61C65.1944 535.993 66.3209 534.715 67.0039 533.984C67.687 533.254 67.8925 533.111 68.0172 532.838" stroke="#529C47" stroke-width="2" stroke-linecap="round"/>
<path d="M323.608 555.685V565.45" stroke="#529C47" stroke-width="2" stroke-linecap="round"/>
<path d="M328.747 556.713V566.478" stroke="#529C47" stroke-width="2" stroke-linecap="round"/>
<path d="M338.25 558.928L334.991 566.478" stroke="#529C47" stroke-width="2" stroke-linecap="round"/>
<path d="M241.106 530.095C241.407 530.998 241.712 531.965 241.99 532.825C242.118 533.184 242.219 533.385 242.446 533.99C242.673 534.595 243.024 535.598 243.538 536.936" stroke="#529C47" stroke-width="2" stroke-linecap="round"/>
<path d="M249.467 529.639V536.784" stroke="#529C47" stroke-width="2" stroke-linecap="round"/>
<path d="M253.899 538.919C253.928 538.96 253.957 539.001 254.535 538.383C255.113 537.765 256.239 536.487 256.922 535.757C257.605 535.027 257.811 534.883 257.935 534.611" stroke="#529C47" stroke-width="2" stroke-linecap="round"/>
</g>
<defs>
<clipPath id="clip0_290_3232">
<rect width="390" height="781" fill="white" transform="translate(0.000244141 0.5)"/>
</clipPath>
</defs>
</svg>
