<svg width="390" height="782" viewBox="0 0 390 782" fill="none" xmlns="http://www.w3.org/2000/svg">
<g clip-path="url(#clip0_290_3232)">
<rect width="390" height="781" transform="translate(0.000244141 0.5)" fill="white"/>
<rect x="0.000244141" y="451.5" width="390" height="330" fill="#DED0B6"/>
<ellipse cx="252.845" cy="564.705" rx="10" ry="5" fill="black" fill-opacity="0.1"/>
<ellipse cx="194.199" cy="593.568" rx="10" ry="5" fill="black" fill-opacity="0.1"/>
<ellipse cx="264.611" cy="593.568" rx="10" ry="5" fill="black" fill-opacity="0.1"/>
<ellipse cx="366.47" cy="534.639" rx="10" ry="5" fill="black" fill-opacity="0.1"/>
<ellipse cx="57.3909" cy="583.568" rx="10" ry="5" fill="black" fill-opacity="0.1"/>
<rect x="0.000244141" y="0.5" width="390" height="451" fill="#4EAEE1"/>
<ellipse cx="86.7262" cy="486.858" rx="55.757" ry="20.9595" fill="black" fill-opacity="0.1"/>
<path d="M220.552 169.17C221.791 168.371 233.956 167.788 240.03 167.644C240.03 165.559 240.468 161.785 240.617 160.326C241.055 158.001 241.642 156.538 242.15 155.374C244.147 151.397 247.296 144.967 251.282 143.697C255.839 142.245 262.195 142.66 267.748 144.084C275.991 146.199 283.95 147.917 287.193 150.283C288.787 151.446 289.57 152.305 290.396 152.021C290.836 151.87 291.333 151.482 291.636 150.997C292.728 149.243 292.902 145.659 297.922 144.794C302.546 143.997 307.972 144.22 309.739 145.462C312.452 147.369 315.622 149.504 318.206 153.425C320.176 156.416 320.391 160.165 322.747 160.348C326.469 160.637 330.901 159.882 333.241 161.664C335.354 163.273 337.22 164.749 337.688 166.998C338.56 171.182 338.734 179.636 335.853 181.589C334.023 182.83 318.952 178.715 318.267 184.593C317.978 187.074 317.977 189.331 317.389 190.349C317.093 190.862 316.716 191.377 315.252 192.331C308.326 196.844 304.75 198.433 301.616 197.711C297.817 196.835 294.724 194.871 285.919 192.237C284.25 191.738 283.745 192.136 283.526 192.686C283.09 193.778 282.363 194.528 281.551 195.534C279.433 198.157 277.665 200.026 275.42 200.491C271.218 201.363 263.889 201.369 261.181 199.309C257.538 196.537 256.611 193.481 254.037 192.239C253.597 192.027 253.163 192.316 252.723 192.609C250.969 193.778 247.828 196.226 243.654 196.036C235.458 195.661 226.672 194.831 223.158 190.036C220.316 186.159 215.286 172.566 220.552 169.17Z" fill="white" stroke="white" stroke-width="2.70914" stroke-linecap="round"/>
<path d="M57.0928 213.917C58.3321 213.118 70.4972 212.536 76.571 212.391C76.571 210.307 77.0089 206.532 77.1578 205.074C77.5957 202.749 78.1825 201.286 78.6905 200.121C80.6873 196.145 83.837 189.714 87.8231 188.444C92.3795 186.993 98.7361 187.407 104.288 188.832C112.532 190.947 120.491 192.665 123.734 195.03C125.328 196.193 126.111 197.053 126.937 196.769C127.377 196.618 127.874 196.23 128.176 195.744C129.269 193.99 129.443 190.406 134.463 189.541C139.087 188.744 144.513 188.967 146.28 190.209C148.992 192.116 152.163 194.252 154.746 198.172C156.717 201.163 156.932 204.913 159.288 205.096C163.01 205.385 167.442 204.629 169.782 206.412C171.895 208.021 173.761 209.497 174.229 211.745C175.1 215.93 175.274 224.383 172.394 226.337C170.564 227.578 155.493 223.463 154.808 229.341C154.519 231.821 154.517 234.078 153.93 235.097C153.634 235.609 153.257 236.124 151.793 237.078C144.867 241.591 141.291 243.181 138.156 242.458C134.357 241.582 131.265 239.619 122.459 236.984C120.791 236.485 120.285 236.884 120.066 237.433C119.631 238.526 118.904 239.275 118.091 240.282C115.974 242.905 114.206 244.773 111.961 245.239C107.759 246.11 100.43 246.117 97.722 244.057C94.0786 241.285 93.152 238.229 90.5775 236.987C90.1374 236.774 89.7039 237.063 89.2638 237.357C87.51 238.526 84.3685 240.974 80.1947 240.783C71.9992 240.409 63.2125 239.579 59.6984 234.784C56.8564 230.906 51.8269 217.313 57.0928 213.917Z" fill="white" stroke="white" stroke-width="2.70914" stroke-linecap="round"/>
<rect x="361.749" y="394.97" width="80.9268" height="56.4422" fill="#D2D7D1"/>
<path d="M446.94 389.757L454.199 394.953H446.94V394.971H361.749V389.757H446.94Z" fill="#272E3E"/>
<rect x="361.749" y="399.397" width="80.9268" height="18.3355" fill="#BCC1BD"/>
<rect x="320.525" y="387.033" width="42.9044" height="64.4671" fill="#CADCDC"/>
<rect x="320.525" y="387.033" width="42.9044" height="10.5886" fill="#BACECD"/>
<path d="M359.708 384.048L363.143 387.023H359.707V387.033H319.396V384.048H359.708Z" fill="#272E3E"/>
<rect width="80.9268" height="56.4422" transform="matrix(-1 0 0 1 46.6492 394.97)" fill="#D2D7D1"/>
<path d="M-38.5422 389.757L-45.801 394.953H-38.5422V394.971H46.6492V389.757H-38.5422Z" fill="#272E3E"/>
<rect width="80.9268" height="18.3355" transform="matrix(-1 0 0 1 46.6492 399.397)" fill="#BCC1BD"/>
<rect width="42.9044" height="64.4671" transform="matrix(-1 0 0 1 87.8735 387.033)" fill="#CADCDC"/>
<rect width="42.9044" height="10.5886" transform="matrix(-1 0 0 1 87.8735 387.033)" fill="#BACECD"/>
<path d="M48.6912 384.048L45.2566 387.023H48.6912V387.033H89.0017V384.048H48.6912Z" fill="#272E3E"/>
<rect x="87.3674" y="383.899" width="233.904" height="67.5138" fill="#E2E3E5"/>
<rect x="87.2251" y="422.768" width="233.851" height="9.76172" fill="#D5DEE3"/>
<rect x="87.4199" y="437.48" width="233.851" height="9.76172" fill="#D5DEE3"/>
<path d="M310.4 324.935L300.22 326.25L313.84 308.09L328.675 303.533L310.4 324.935Z" fill="#66614D"/>
<path d="M302.748 327.874L287.071 330.363V315.817L314.951 308.895V312.628L302.748 327.874Z" fill="#6E7651"/>
<path d="M88.5383 324.52L93.8108 325.682L85.0979 307.675L70.2638 303.118L88.5383 324.52Z" fill="#66614D"/>
<path d="M95.2633 328.024L110.941 330.513V315.967L83.0608 309.044V312.778L95.2633 328.024Z" fill="#6E7651"/>
<ellipse cx="288.89" cy="296.678" rx="1.438" ry="1.55062" fill="#272E3E"/>
<ellipse cx="294.303" cy="298.228" rx="1.438" ry="1.55062" transform="rotate(5.96597 294.303 298.228)" fill="#272E3E"/>
<ellipse cx="298.923" cy="298.711" rx="1.438" ry="1.55062" transform="rotate(5.96597 298.923 298.711)" fill="#272E3E"/>
<ellipse cx="305.264" cy="299.374" rx="1.438" ry="1.55062" transform="rotate(5.96597 305.264 299.374)" fill="#272E3E"/>
<ellipse cx="310.83" cy="299.57" rx="1.438" ry="1.55062" transform="rotate(5.96597 310.83 299.57)" fill="#272E3E"/>
<ellipse cx="317.171" cy="300.232" rx="1.438" ry="1.55062" transform="rotate(5.96597 317.171 300.232)" fill="#272E3E"/>
<path d="M329.243 301.317C298.823 299.12 281.778 297.886 266.974 291.934C241.532 293.686 226.745 297.783 198.733 296.153L198.733 302.533C250.921 305.272 280.314 305.89 329.243 301.317Z" fill="#E2E3E5"/>
<path d="M268.09 297.136C241.242 299.878 226.056 301.088 198.352 301.711L195.512 318.752L270.457 317.805C295.459 315.836 309.19 313.152 332.464 301.711L327.889 299.502C299.719 303.809 286.916 302.979 268.09 297.136Z" fill="#272E3E"/>
<ellipse cx="1.438" cy="1.55062" rx="1.438" ry="1.55062" transform="matrix(-1 0 0 1 112.379 295.127)" fill="#272E3E"/>
<ellipse cx="1.438" cy="1.55062" rx="1.438" ry="1.55062" transform="matrix(-0.994584 0.103938 0.103938 0.994584 106.797 296.536)" fill="#272E3E"/>
<ellipse cx="1.438" cy="1.55062" rx="1.438" ry="1.55062" transform="matrix(-0.994584 0.103938 0.103938 0.994584 102.177 297.019)" fill="#272E3E"/>
<ellipse cx="1.438" cy="1.55062" rx="1.438" ry="1.55062" transform="matrix(-0.994584 0.103938 0.103938 0.994584 95.8364 297.682)" fill="#272E3E"/>
<ellipse cx="1.438" cy="1.55062" rx="1.438" ry="1.55062" transform="matrix(-0.994584 0.103938 0.103938 0.994584 90.2708 297.878)" fill="#272E3E"/>
<ellipse cx="1.438" cy="1.55062" rx="1.438" ry="1.55062" transform="matrix(-0.994584 0.103938 0.103938 0.994584 83.9294 298.541)" fill="#272E3E"/>
<path d="M70.5881 301.317C101.008 299.12 118.053 297.886 132.858 291.934C158.299 293.686 173.086 297.783 201.098 296.153L201.098 302.533C148.91 305.272 119.517 305.89 70.5881 301.317Z" fill="#E2E3E5"/>
<path d="M131.741 297.136C158.589 299.878 173.775 301.088 201.479 301.711L204.319 318.752L129.374 317.805C104.372 315.836 90.6415 313.152 67.3667 301.711L71.9423 299.502C100.112 303.809 112.915 302.979 131.741 297.136Z" fill="#272E3E"/>
<rect x="110.941" y="316.057" width="177.95" height="14.4555" fill="#607353"/>
<path d="M338.864 370.917L330.381 371.843L342.991 354.073L360.786 349.515L338.864 370.917Z" fill="#66614D"/>
<path d="M329.685 373.857L310.878 376.346V361.8L344.323 354.877V358.611L329.685 373.857Z" fill="#6E7651"/>
<path d="M72.7201 370.503L79.0449 371.664L68.5931 353.658L50.7981 349.1L72.7201 370.503Z" fill="#66614D"/>
<path d="M80.7876 374.006L99.594 376.495V361.949L66.1495 355.026V358.76L80.7876 374.006Z" fill="#6E7651"/>
<ellipse cx="313.062" cy="342.66" rx="1.72501" ry="1.55062" fill="#272E3E"/>
<ellipse cx="1.72217" cy="1.5543" rx="1.72217" ry="1.5543" transform="matrix(0.996227 0.0867873 -0.124388 0.992234 318.032 342.519)" fill="#272E3E"/>
<ellipse cx="1.72217" cy="1.5543" rx="1.72217" ry="1.5543" transform="matrix(0.996227 0.0867873 -0.124388 0.992234 323.574 343.002)" fill="#272E3E"/>
<ellipse cx="1.72217" cy="1.5543" rx="1.72217" ry="1.5543" transform="matrix(0.996227 0.0867873 -0.124388 0.992234 331.181 343.664)" fill="#272E3E"/>
<ellipse cx="1.72217" cy="1.5543" rx="1.72217" ry="1.5543" transform="matrix(0.996227 0.0867873 -0.124388 0.992234 337.857 343.86)" fill="#272E3E"/>
<ellipse cx="1.72217" cy="1.5543" rx="1.72217" ry="1.5543" transform="matrix(0.996227 0.0867873 -0.124388 0.992234 345.464 344.523)" fill="#272E3E"/>
<path d="M361.468 347.3C324.977 345.103 304.53 343.868 286.77 337.917C256.251 339.669 238.512 343.766 204.91 342.135L204.91 348.515C267.514 351.254 302.773 351.872 361.468 347.3Z" fill="#E2E3E5"/>
<path d="M288.11 343.118C255.903 345.861 237.966 342.494 204.731 343.118L201.045 364.734L290.949 363.787C320.942 361.818 337.412 359.135 365.333 347.694L359.844 345.485C326.052 349.792 310.694 348.961 288.11 343.118Z" fill="#272E3E"/>
<ellipse cx="1.72501" cy="1.55062" rx="1.72501" ry="1.55062" transform="matrix(-1 0 0 1 101.319 341.109)" fill="#272E3E"/>
<ellipse cx="1.72217" cy="1.5543" rx="1.72217" ry="1.5543" transform="matrix(-0.996227 0.0867873 0.124388 0.992234 94.624 342.519)" fill="#272E3E"/>
<ellipse cx="1.72217" cy="1.5543" rx="1.72217" ry="1.5543" transform="matrix(-0.996227 0.0867873 0.124388 0.992234 89.0818 343.002)" fill="#272E3E"/>
<ellipse cx="1.72217" cy="1.5543" rx="1.72217" ry="1.5543" transform="matrix(-0.996227 0.0867873 0.124388 0.992234 81.4751 343.664)" fill="#272E3E"/>
<ellipse cx="1.72217" cy="1.5543" rx="1.72217" ry="1.5543" transform="matrix(-0.996227 0.0867873 0.124388 0.992234 74.7986 343.86)" fill="#272E3E"/>
<ellipse cx="1.72217" cy="1.5543" rx="1.72217" ry="1.5543" transform="matrix(-0.996227 0.0867873 0.124388 0.992234 67.1919 344.523)" fill="#272E3E"/>
<path d="M51.1877 347.3C87.6788 345.103 108.126 343.868 125.886 337.917C156.405 339.669 174.144 343.766 207.746 342.135L207.746 348.515C145.142 351.254 109.883 351.872 51.1877 347.3Z" fill="#E2E3E5"/>
<path d="M124.546 343.118C156.753 345.861 175.098 342.494 208.332 343.118L211.611 364.734L121.707 363.787C91.7144 361.818 75.2435 359.135 47.3232 347.694L52.8121 345.485C86.6038 349.792 101.962 348.961 124.546 343.118Z" fill="#272E3E"/>
<rect x="99.594" y="362.04" width="213.467" height="14.4555" fill="#607353"/>
<rect width="177.95" height="3.55251" transform="matrix(1 0 0 -1 110.941 334.065)" fill="#639865"/>
<rect width="177.95" height="3.55251" transform="matrix(1 0 0 -1 110.941 337.767)" fill="#98B467"/>
<rect width="213.467" height="3.55251" transform="matrix(1 0 0 -1 99.594 380.197)" fill="#639865"/>
<rect width="213.467" height="3.55251" transform="matrix(1 0 0 -1 99.594 383.899)" fill="#98B467"/>
<rect width="177.95" height="5.97521" transform="matrix(1 0 0 -1 110.941 343.892)" fill="#EF524D"/>
<rect width="219.743" height="8.51071" transform="matrix(1 0 0 -1 95.8364 392.559)" fill="#272E3E"/>
<path d="M180.695 427.937C180.695 416.698 189.806 407.587 201.045 407.587C212.284 407.587 221.396 416.698 221.396 427.937V451.413H180.695V427.937Z" fill="#F47845"/>
<path d="M252.01 427.937C252.01 416.698 261.122 407.587 272.361 407.587C283.6 407.587 292.711 416.698 292.711 427.937V451.413H252.01V427.937Z" fill="#F47845"/>
<path d="M113.107 427.937C113.107 416.698 122.218 407.587 133.457 407.587C144.696 407.587 153.807 416.698 153.807 427.937V451.413H113.107V427.937Z" fill="#F47845"/>
<path d="M201.045 408.359V450.641" stroke="#D44C32" stroke-width="0.834757"/>
<path d="M272.361 408.022V450.303" stroke="#D44C32" stroke-width="0.834757"/>
<path d="M133.457 408.022V450.303" stroke="#D44C32" stroke-width="0.834757"/>
<rect x="198.385" y="398.614" width="5.32096" height="5.56267" fill="#C1C2C4"/>
<rect x="269.701" y="398.614" width="5.32096" height="5.56267" fill="#C1C2C4"/>
<rect x="130.522" y="397.509" width="5.32096" height="5.56267" fill="#C1C2C4"/>
<rect x="186.848" y="316.057" width="33.7164" height="14.3062" fill="#FDF1E1"/>
<path d="M133.689 553.912V563.677" stroke="#529C47" stroke-width="2" stroke-linecap="round"/>
<path d="M138.829 554.94V564.705" stroke="#529C47" stroke-width="2" stroke-linecap="round"/>
<path d="M148.332 557.155L145.073 564.705" stroke="#529C47" stroke-width="2" stroke-linecap="round"/>
<path d="M51.1875 528.322C51.4885 529.225 51.7941 530.192 52.0723 531.053C52.2 531.411 52.3003 531.612 52.5276 532.217C52.7548 532.822 53.106 533.825 53.6198 535.163" stroke="#529C47" stroke-width="2" stroke-linecap="round"/>
<path d="M59.5488 527.866V535.011" stroke="#529C47" stroke-width="2" stroke-linecap="round"/>
<path d="M63.9808 537.146C64.0096 537.187 64.0384 537.228 64.6164 536.61C65.1944 535.993 66.3209 534.715 67.0039 533.984C67.687 533.254 67.8925 533.111 68.0172 532.838" stroke="#529C47" stroke-width="2" stroke-linecap="round"/>
<path d="M323.608 555.685V565.45" stroke="#529C47" stroke-width="2" stroke-linecap="round"/>
<path d="M328.747 556.713V566.478" stroke="#529C47" stroke-width="2" stroke-linecap="round"/>
<path d="M338.25 558.928L334.991 566.478" stroke="#529C47" stroke-width="2" stroke-linecap="round"/>
<path d="M241.106 530.095C241.407 530.998 241.712 531.965 241.99 532.825C242.118 533.184 242.219 533.385 242.446 533.99C242.673 534.595 243.024 535.598 243.538 536.936" stroke="#529C47" stroke-width="2" stroke-linecap="round"/>
<path d="M249.467 529.639V536.784" stroke="#529C47" stroke-width="2" stroke-linecap="round"/>
<path d="M253.899 538.919C253.928 538.96 253.957 539.001 254.535 538.383C255.113 537.765 256.239 536.487 256.922 535.757C257.605 535.027 257.811 534.883 257.935 534.611" stroke="#529C47" stroke-width="2" stroke-linecap="round"/>
<g clip-path="url(#clip1_290_3232)">
<path d="M95.0744 491.697H111.184C111.184 491.697 115.288 491.697 114.928 488.352C112.228 482.847 107.881 483.58 95.0744 491.697Z" fill="#414143"/>
<path d="M91.2891 477.524V488.352L95.0744 491.697C107.881 483.58 112.228 482.847 114.928 488.352C114.755 486.748 113.558 484.377 110.392 480.869C110.392 480.869 104.68 480.869 104.9 477.524V469.073H91.2891V477.524Z" fill="#222021"/>
<path d="M95.0744 491.697L91.2891 488.352V477.524V469.073H104.9V477.524C104.68 480.869 110.392 480.869 110.392 480.869C113.558 484.377 114.755 486.748 114.928 488.352M95.0744 491.697H111.184C111.184 491.697 115.288 491.697 114.928 488.352M95.0744 491.697C107.881 483.58 112.228 482.847 114.928 488.352" stroke="black" stroke-width="2.5524"/>
<path d="M67.5988 489.313L83.4777 492.031C83.4777 492.031 87.5224 492.724 87.7321 489.366C85.9993 483.485 81.5908 483.473 67.5988 489.313Z" fill="#414143"/>
<path d="M66.259 474.705L64.4321 485.377L67.5988 489.313C81.5908 483.473 85.9993 483.485 87.7321 489.366C87.8325 487.756 87.0522 485.217 84.5237 481.225C84.5237 481.225 78.8938 480.261 79.6749 477.001L81.1006 468.672L67.6848 466.375L66.259 474.705Z" fill="#222021"/>
<path d="M67.5988 489.313L64.4321 485.377L66.259 474.705L67.6848 466.375L81.1006 468.672L79.6749 477.001C78.8938 480.261 84.5237 481.225 84.5237 481.225C87.0522 485.217 87.8325 487.756 87.7321 489.366M67.5988 489.313L83.4777 492.031C83.4777 492.031 87.5224 492.724 87.7321 489.366M67.5988 489.313C81.5908 483.473 85.9993 483.485 87.7321 489.366" stroke="black" stroke-width="2.5524"/>
<path fill-rule="evenodd" clip-rule="evenodd" d="M95.7099 326.98C83.7566 327.167 80.3642 333.374 77.7212 350.728C73.7432 351.59 72.9788 352.897 72.767 355.878C72.5312 359.349 73.7899 361.002 79.3806 363.242C79.1382 365.117 79.4417 366.168 80.6544 368.041C80.4736 369.748 80.7978 370.717 81.569 372.451L82.0906 384.259L90.5579 392.506L97.8004 385.309V381.173C106.867 383.173 111.181 380.636 114.921 372.289C117.007 360.839 116.352 353.242 112.425 337.912C109.4 330.123 106.071 327.397 95.7099 326.98Z" fill="#FFE0B4"/>
<path d="M90.5579 392.506L82.0906 384.259C81.5511 383.406 80.9151 383.87 79.9022 385.537C79.4375 386.302 78.8934 387.32 78.2428 388.58C80.3826 394.225 84.6404 400.739 88.538 401.539C92.4356 402.338 99.763 398.326 104.322 392.506L97.8004 385.309L90.5579 392.506Z" fill="white"/>
<path d="M104.322 392.506C99.763 398.326 92.4356 402.338 88.538 401.539C84.6404 400.739 80.3826 394.225 78.2428 388.58C77.3493 388.453 76.4907 388.362 75.6601 388.312V388.58C75.6601 388.58 75.2244 401.458 86.6367 405.127C98.0489 408.796 110.392 394.581 108.816 394.002C107.435 393.465 105.951 392.977 104.322 392.506Z" fill="#9C0109"/>
<path d="M52.9324 403.538C49.1776 408.722 46.7743 415.383 44.6985 424.553C43.9985 438.143 49.9273 447.833 62.4426 449.955H62.4885L61.2795 462.231L58.6911 475.714H115.698L112.273 462.231L111.718 446.455C128.083 438.004 135.395 424.121 125.13 406.74C119.121 399.748 114.979 396.395 108.816 394.002C110.392 394.581 98.0489 408.796 86.6367 405.127C75.2244 401.458 75.6601 388.58 75.6601 388.58V388.312C67.5632 387.826 62.1255 391.247 52.9324 403.538Z" fill="url(#paint0_linear_290_3232)"/>
<path d="M87.783 375.165C87.811 376.027 87.8359 376.711 88.0164 377.256C88.2243 377.885 88.6387 378.328 89.5026 378.647C92.6551 379.792 95.395 380.642 97.8004 381.173M81.569 372.451C80.7978 370.717 80.4736 369.748 80.6544 368.041C79.4417 366.168 79.1382 365.117 79.3806 363.242C73.7899 361.002 72.5312 359.349 72.767 355.878C72.9788 352.897 73.7432 351.59 77.7212 350.728C80.3642 333.374 83.7566 327.167 95.7099 326.98C106.071 327.397 109.4 330.123 112.425 337.912C116.352 353.242 117.007 360.839 114.921 372.289C111.181 380.636 106.867 383.173 97.8004 381.173M81.569 372.451C81.569 377.155 82.0906 384.259 82.0906 384.259M81.569 372.451L82.0906 384.259M82.0906 384.259L90.5579 392.506L97.8004 385.309M82.0906 384.259C81.5511 383.406 80.9151 383.87 79.9022 385.537C79.4375 386.302 78.8934 387.32 78.2428 388.58M97.8004 385.309V381.173M97.8004 385.309L104.322 392.506M104.322 392.506C99.763 398.326 92.4356 402.338 88.538 401.539C84.6404 400.739 80.3826 394.225 78.2428 388.58M104.322 392.506C105.951 392.977 107.435 393.465 108.816 394.002M78.2428 388.58C77.3493 388.453 76.4907 388.362 75.6601 388.312M65.4606 419.775L64.9901 424.553L64.2243 432.329L63.8156 436.478L62.4885 449.955M111.718 446.455C128.083 438.004 135.395 424.121 125.13 406.74C119.121 399.748 114.979 396.395 108.816 394.002M111.718 446.455L112.273 462.231L115.698 475.714H58.6911L61.2795 462.231L62.4885 449.955M111.718 446.455L109.526 421.883M108.816 394.002C110.392 394.581 98.0489 408.796 86.6367 405.127C75.2244 401.458 75.6601 388.58 75.6601 388.58V388.312M75.6601 388.312C67.5632 387.826 62.1255 391.247 52.9324 403.538C49.1776 408.722 46.7743 415.383 44.6985 424.553C43.9985 438.143 49.9273 447.833 62.4426 449.955H62.4885" stroke="black" stroke-width="2.5524"/>
<circle cx="87.254" cy="426.707" r="14.9953" stroke="#FFCB3C" stroke-width="1.9143"/>
<path d="M89.2662 416.039C88.5284 416.046 87.7803 416.232 87.0645 416.622C88.7159 416.502 90.1677 417.008 90.5727 418.223C84.4921 417.428 78.2922 423.571 89.0759 429.793C92.0018 431.481 89.9904 435.823 84.1538 433.336C76.3749 430.022 76.94 423.863 79.7417 420.64C80.0872 421.222 80.3748 421.876 80.6352 422.563C81.5349 420.27 83.296 419.325 85.0517 418.372C82.5887 417.212 80.2381 417.675 77.9309 418.769C78.4198 419.04 78.8323 419.406 79.1886 419.841C73.8301 423.046 75.5187 433.072 82.5581 437.136C91.5168 442.309 102.131 430.896 92.3805 427.177C85.2345 424.451 87.1094 420.575 90.5859 421.224L90.7098 423.235L97.3794 425.093L98.3659 422.231C97.0003 421.641 95.9024 420.977 95.0113 420.162C95.0711 418.83 94.5083 417.496 93.4113 416.163C93.447 416.814 93.4398 417.465 93.3362 418.116C92.2882 416.79 90.8007 416.026 89.2663 416.039L89.2662 416.039ZM91.3158 419.124C92.4011 419.467 93.4261 420.109 94.2414 421.205C92.6498 421.951 90.9797 420.954 91.3158 419.124V419.124Z" fill="#FFCB3C"/>
<path d="M83.2385 347.504C83.2385 347.152 82.9528 346.866 82.6004 346.866C82.248 346.866 81.9623 347.152 81.9623 347.504C81.9623 347.856 82.248 348.142 82.6004 348.142V348.78C81.8956 348.78 81.3242 348.209 81.3242 347.504C81.3242 346.799 81.8956 346.228 82.6004 346.228C83.3052 346.228 83.8766 346.799 83.8766 347.504C83.8766 348.209 83.3052 348.78 82.6004 348.78V348.142C82.9528 348.142 83.2385 347.856 83.2385 347.504Z" fill="white"/>
<path d="M79.5247 320.682L78.3225 347.961C79.7437 347.099 81.0976 346.314 82.396 345.604C93.9864 339.265 101.161 338.894 112.487 342.834C113.783 330.324 111.513 326.278 103.971 322.52V315.265C103.67 313.559 103.002 312.433 101.468 311.751C101.187 307.941 101.077 305.763 96.0382 306.054C93.7037 305.985 92.7298 307.164 91.4913 311.059C91.2429 311.085 91 311.113 90.7624 311.143C89.4312 307.441 88.6382 305.66 86.6583 306.054C79.3443 307.808 78.4564 311.049 80.1249 318.55C79.9071 319.209 79.7108 319.919 79.5247 320.682Z" fill="url(#paint1_linear_290_3232)"/>
<path d="M103.971 322.52V315.265C103.67 313.559 103.002 312.433 101.468 311.751M103.971 322.52C111.513 326.278 113.783 330.324 112.487 342.834C101.161 338.894 93.9864 339.265 82.396 345.604M103.971 322.52C101.396 322.191 99.1368 322.091 97.1493 322.254M82.396 345.604C81.0976 346.314 79.7437 347.099 78.3225 347.961L79.5247 320.682C79.7108 319.919 79.9071 319.209 80.1249 318.55M82.396 345.604C84.4159 329.667 87.7442 323.025 97.1493 322.254M94.5003 310.889C94.0698 310.892 93.6201 310.9 93.1504 310.912C92.5716 310.954 92.019 311.003 91.4913 311.059M94.5003 310.889C96.6258 314.282 97.2288 316.751 97.1493 322.254M94.5003 310.889C97.8488 310.864 100.036 311.114 101.468 311.751M101.468 311.751C101.187 307.941 101.077 305.763 96.0382 306.054C93.7037 305.985 92.7298 307.164 91.4913 311.059M91.4913 311.059C91.2429 311.085 91 311.113 90.7624 311.143M90.7624 311.143C89.4312 307.441 88.6382 305.66 86.6583 306.054C79.3443 307.808 78.4564 311.049 80.1249 318.55M90.7624 311.143C84.0101 311.983 81.5853 314.131 80.1249 318.55" stroke="black" stroke-width="2.5524"/>
<path d="M100.233 357.392C100.436 358.787 99.4704 360.082 98.0755 360.286C96.6806 360.489 95.3849 359.523 95.1815 358.128C94.9781 356.733 95.944 355.438 97.3389 355.234C98.7338 355.031 100.029 355.997 100.233 357.392Z" fill="black"/>
<path d="M111.963 356.287C112.166 357.682 111.2 358.977 109.805 359.181C108.41 359.384 107.115 358.418 106.911 357.023C106.708 355.628 107.674 354.333 109.069 354.129C110.464 353.926 111.759 354.892 111.963 356.287Z" fill="black"/>
<path d="M104.311 370.902C105.387 371.085 105.978 370.999 107.001 370.433" stroke="black" stroke-width="1.2762" stroke-linecap="round"/>
<path d="M101.009 353.569C98.2443 352.289 96.5907 352.089 93.1956 353.953" stroke="black" stroke-width="1.9143" stroke-linecap="round"/>
<path d="M104.771 353.186C107.068 351.185 108.6 350.532 112.381 351.375" stroke="black" stroke-width="1.9143" stroke-linecap="round"/>
<path d="M98.6355 367.294C103.974 368.943 106.893 369.345 111.381 365.036" stroke="#1C1C1C" stroke-width="1.9143" stroke-linecap="round"/>
<path d="M110.317 429.532L64.521 428.327L63.488 435.213L111.522 437.107L110.317 429.532Z" fill="#C50009" stroke="#DAA319" stroke-width="1.9143"/>
<circle cx="69.2801" cy="431.883" r="1.59525" fill="#D9D9D9"/>
<circle cx="74.9092" cy="432.07" r="1.59525" fill="#D9D9D9"/>
<circle cx="107.336" cy="433.356" r="1.59525" fill="#D9D9D9"/>
<circle cx="101.501" cy="433.165" r="1.59525" fill="#D9D9D9"/>
<rect x="82.3916" y="429.257" width="1.06694" height="6.32719" transform="rotate(1.6229 82.3916 429.257)" fill="#D9D9D9"/>
<rect x="92.3291" y="429.607" width="1.06694" height="6.2937" transform="rotate(1.6229 92.3291 429.607)" fill="#D9D9D9"/>
</g>
<g clip-path="url(#clip2_290_3232)">
<path d="M95.0744 494.197H111.184C111.184 494.197 115.288 494.197 114.928 490.852C112.228 485.347 107.881 486.08 95.0744 494.197Z" fill="#414143"/>
<path d="M91.2891 480.024V490.852L95.0744 494.197C107.881 486.08 112.228 485.347 114.928 490.852C114.755 489.248 113.558 486.877 110.392 483.369C110.392 483.369 104.68 483.369 104.9 480.024V471.573H91.2891V480.024Z" fill="#222021"/>
<path d="M95.0744 494.197L91.2891 490.852V480.024V471.573H104.9V480.024C104.68 483.369 110.392 483.369 110.392 483.369C113.558 486.877 114.755 489.248 114.928 490.852M95.0744 494.197H111.184C111.184 494.197 115.288 494.197 114.928 490.852M95.0744 494.197C107.881 486.08 112.228 485.347 114.928 490.852" stroke="black" stroke-width="2.5524"/>
<path d="M67.5988 491.813L83.4777 494.531C83.4777 494.531 87.5224 495.224 87.7321 491.866C85.9993 485.985 81.5908 485.973 67.5988 491.813Z" fill="#414143"/>
<path d="M66.259 477.205L64.4321 487.877L67.5988 491.813C81.5908 485.973 85.9993 485.985 87.7321 491.866C87.8325 490.256 87.0522 487.717 84.5237 483.725C84.5237 483.725 78.8938 482.761 79.6749 479.501L81.1006 471.172L67.6848 468.875L66.259 477.205Z" fill="#222021"/>
<path d="M67.5988 491.813L64.4321 487.877L66.259 477.205L67.6848 468.875L81.1006 471.172L79.6749 479.501C78.8938 482.761 84.5237 483.725 84.5237 483.725C87.0522 487.717 87.8325 490.256 87.7321 491.866M67.5988 491.813L83.4777 494.531C83.4777 494.531 87.5224 495.224 87.7321 491.866M67.5988 491.813C81.5908 485.973 85.9993 485.985 87.7321 491.866" stroke="black" stroke-width="2.5524"/>
<path fill-rule="evenodd" clip-rule="evenodd" d="M95.7099 329.48C83.7566 329.667 80.3642 335.874 77.7212 353.228C73.7432 354.09 72.9788 355.397 72.767 358.378C72.5312 361.849 73.7899 363.502 79.3806 365.742C79.1382 367.617 79.4417 368.668 80.6544 370.541C80.4736 372.248 80.7978 373.217 81.569 374.951L82.0906 386.759L90.5579 395.006L97.8004 387.809V383.673C106.867 385.673 111.181 383.136 114.921 374.789C117.007 363.339 116.352 355.742 112.425 340.412C109.4 332.623 106.071 329.897 95.7099 329.48Z" fill="#FFE0B4"/>
<path d="M90.5579 395.006L82.0906 386.759C81.5511 385.906 80.9151 386.37 79.9022 388.037C79.4375 388.802 78.8934 389.82 78.2428 391.08C80.3826 396.725 84.6404 403.239 88.538 404.039C92.4356 404.838 99.763 400.826 104.322 395.006L97.8004 387.809L90.5579 395.006Z" fill="white"/>
<path d="M104.322 395.006C99.763 400.826 92.4356 404.838 88.538 404.039C84.6404 403.239 80.3826 396.725 78.2428 391.08C77.3493 390.953 76.4907 390.862 75.6601 390.812V391.08C75.6601 391.08 75.2244 403.958 86.6367 407.627C98.0489 411.296 110.392 397.081 108.816 396.502C107.435 395.965 105.951 395.477 104.322 395.006Z" fill="#9C0109"/>
<path d="M52.9324 406.038C49.1776 411.222 46.7743 417.883 44.6985 427.053C43.9985 440.643 49.9273 450.333 62.4426 452.455H62.4885L61.2795 464.731L58.6911 478.214H115.698L112.273 464.731L111.718 448.955C128.083 440.504 135.395 426.621 125.13 409.24C119.121 402.248 114.979 398.895 108.816 396.502C110.392 397.081 98.0489 411.296 86.6367 407.627C75.2244 403.958 75.6601 391.08 75.6601 391.08V390.812C67.5632 390.326 62.1255 393.747 52.9324 406.038Z" fill="url(#paint2_linear_290_3232)"/>
<path d="M87.783 377.665C87.811 378.527 87.8359 379.211 88.0164 379.756C88.2243 380.385 88.6387 380.828 89.5026 381.147C92.6551 382.292 95.395 383.142 97.8004 383.673M81.569 374.951C80.7978 373.217 80.4736 372.248 80.6544 370.541C79.4417 368.668 79.1382 367.617 79.3806 365.742C73.7899 363.502 72.5312 361.849 72.767 358.378C72.9788 355.397 73.7432 354.09 77.7212 353.228C80.3642 335.874 83.7566 329.667 95.7099 329.48C106.071 329.897 109.4 332.623 112.425 340.412C116.352 355.742 117.007 363.339 114.921 374.789C111.181 383.136 106.867 385.673 97.8004 383.673M81.569 374.951C81.569 379.655 82.0906 386.759 82.0906 386.759M81.569 374.951L82.0906 386.759M82.0906 386.759L90.5579 395.006L97.8004 387.809M82.0906 386.759C81.5511 385.906 80.9151 386.37 79.9022 388.037C79.4375 388.802 78.8934 389.82 78.2428 391.08M97.8004 387.809V383.673M97.8004 387.809L104.322 395.006M104.322 395.006C99.763 400.826 92.4356 404.838 88.538 404.039C84.6404 403.239 80.3826 396.725 78.2428 391.08M104.322 395.006C105.951 395.477 107.435 395.965 108.816 396.502M78.2428 391.08C77.3493 390.953 76.4907 390.862 75.6601 390.812M65.4606 422.275L64.9901 427.053L64.2243 434.829L63.8156 438.978L62.4885 452.455M111.718 448.955C128.083 440.504 135.395 426.621 125.13 409.24C119.121 402.248 114.979 398.895 108.816 396.502M111.718 448.955L112.273 464.731L115.698 478.214H58.6911L61.2795 464.731L62.4885 452.455M111.718 448.955L109.526 424.383M108.816 396.502C110.392 397.081 98.0489 411.296 86.6367 407.627C75.2244 403.958 75.6601 391.08 75.6601 391.08V390.812M75.6601 390.812C67.5632 390.326 62.1255 393.747 52.9324 406.038C49.1776 411.222 46.7743 417.883 44.6985 427.053C43.9985 440.643 49.9273 450.333 62.4426 452.455H62.4885" stroke="black" stroke-width="2.5524"/>
<circle cx="87.254" cy="429.207" r="14.9953" stroke="#FFCB3C" stroke-width="1.9143"/>
<path d="M89.2662 418.539C88.5284 418.546 87.7803 418.732 87.0645 419.122C88.7159 419.002 90.1677 419.508 90.5727 420.723C84.4921 419.928 78.2922 426.071 89.0759 432.293C92.0018 433.981 89.9904 438.323 84.1538 435.836C76.3749 432.522 76.94 426.363 79.7417 423.14C80.0872 423.722 80.3748 424.376 80.6352 425.063C81.5349 422.77 83.296 421.825 85.0517 420.872C82.5887 419.712 80.2381 420.175 77.9309 421.269C78.4198 421.54 78.8323 421.906 79.1886 422.341C73.8301 425.546 75.5187 435.572 82.5581 439.636C91.5168 444.809 102.131 433.396 92.3805 429.677C85.2345 426.951 87.1094 423.075 90.5859 423.724L90.7098 425.735L97.3794 427.593L98.3659 424.731C97.0003 424.141 95.9024 423.477 95.0113 422.662C95.0711 421.33 94.5083 419.996 93.4113 418.663C93.447 419.314 93.4398 419.965 93.3362 420.616C92.2882 419.29 90.8007 418.526 89.2663 418.539L89.2662 418.539ZM91.3158 421.624C92.4011 421.967 93.4261 422.609 94.2414 423.705C92.6498 424.451 90.9797 423.454 91.3158 421.624V421.624Z" fill="#FFCB3C"/>
<path d="M83.2385 350.004C83.2385 349.652 82.9528 349.366 82.6004 349.366C82.248 349.366 81.9623 349.652 81.9623 350.004C81.9623 350.356 82.248 350.642 82.6004 350.642V351.28C81.8956 351.28 81.3242 350.709 81.3242 350.004C81.3242 349.299 81.8956 348.728 82.6004 348.728C83.3052 348.728 83.8766 349.299 83.8766 350.004C83.8766 350.709 83.3052 351.28 82.6004 351.28V350.642C82.9528 350.642 83.2385 350.356 83.2385 350.004Z" fill="white"/>
<path d="M79.5247 323.182L78.3225 350.461C79.7437 349.599 81.0976 348.814 82.396 348.104C93.9864 341.765 101.161 341.394 112.487 345.334C113.783 332.824 111.513 328.778 103.971 325.02V317.765C103.67 316.059 103.002 314.933 101.468 314.251C101.187 310.441 101.077 308.263 96.0382 308.554C93.7037 308.485 92.7298 309.664 91.4913 313.559C91.2429 313.585 91 313.613 90.7624 313.643C89.4312 309.941 88.6382 308.16 86.6583 308.554C79.3443 310.308 78.4564 313.549 80.1249 321.05C79.9071 321.709 79.7108 322.419 79.5247 323.182Z" fill="url(#paint3_linear_290_3232)"/>
<path d="M103.971 325.02V317.765C103.67 316.059 103.002 314.933 101.468 314.251M103.971 325.02C111.513 328.778 113.783 332.824 112.487 345.334C101.161 341.394 93.9864 341.765 82.396 348.104M103.971 325.02C101.396 324.691 99.1368 324.591 97.1493 324.754M82.396 348.104C81.0976 348.814 79.7437 349.599 78.3225 350.461L79.5247 323.182C79.7108 322.419 79.9071 321.709 80.1249 321.05M82.396 348.104C84.4159 332.167 87.7442 325.525 97.1493 324.754M94.5003 313.389C94.0698 313.392 93.6201 313.4 93.1504 313.412C92.5716 313.454 92.019 313.503 91.4913 313.559M94.5003 313.389C96.6258 316.782 97.2288 319.251 97.1493 324.754M94.5003 313.389C97.8488 313.364 100.036 313.614 101.468 314.251M101.468 314.251C101.187 310.441 101.077 308.263 96.0382 308.554C93.7037 308.485 92.7298 309.664 91.4913 313.559M91.4913 313.559C91.2429 313.585 91 313.613 90.7624 313.643M90.7624 313.643C89.4312 309.941 88.6382 308.16 86.6583 308.554C79.3443 310.308 78.4564 313.549 80.1249 321.05M90.7624 313.643C84.0101 314.483 81.5853 316.631 80.1249 321.05" stroke="black" stroke-width="2.5524"/>
<path d="M100.233 359.892C100.436 361.287 99.4704 362.582 98.0755 362.786C96.6806 362.989 95.3849 362.023 95.1815 360.628C94.9781 359.233 95.944 357.938 97.3389 357.734C98.7338 357.531 100.029 358.497 100.233 359.892Z" fill="black"/>
<path d="M111.963 358.787C112.166 360.182 111.2 361.477 109.805 361.681C108.41 361.884 107.115 360.918 106.911 359.523C106.708 358.128 107.674 356.833 109.069 356.629C110.464 356.426 111.759 357.392 111.963 358.787Z" fill="black"/>
<path d="M104.311 373.402C105.387 373.585 105.978 373.498 107.001 372.933" stroke="black" stroke-width="1.2762" stroke-linecap="round"/>
<path d="M101.009 356.069C98.2443 354.789 96.5907 354.589 93.1956 356.453" stroke="black" stroke-width="1.9143" stroke-linecap="round"/>
<path d="M104.771 355.686C107.068 353.685 108.6 353.032 112.381 353.875" stroke="black" stroke-width="1.9143" stroke-linecap="round"/>
<path d="M98.6355 369.794C103.974 371.443 106.893 371.845 111.381 367.536" stroke="#1C1C1C" stroke-width="1.9143" stroke-linecap="round"/>
<path d="M110.317 432.032L64.521 430.827L63.488 437.713L111.522 439.607L110.317 432.032Z" fill="#C50009" stroke="#DAA319" stroke-width="1.9143"/>
<circle cx="69.2801" cy="434.384" r="1.59525" fill="#D9D9D9"/>
<circle cx="74.9092" cy="434.57" r="1.59525" fill="#D9D9D9"/>
<circle cx="107.336" cy="435.856" r="1.59525" fill="#D9D9D9"/>
<circle cx="101.501" cy="435.665" r="1.59525" fill="#D9D9D9"/>
<rect x="82.3916" y="431.757" width="1.06694" height="6.32719" transform="rotate(1.6229 82.3916 431.757)" fill="#D9D9D9"/>
<rect x="92.3291" y="432.107" width="1.06694" height="6.2937" transform="rotate(1.6229 92.3291 432.107)" fill="#D9D9D9"/>
</g>
</g>
<defs>
<linearGradient id="paint0_linear_290_3232" x1="87.2539" y1="326.98" x2="87.2539" y2="475.714" gradientUnits="userSpaceOnUse">
<stop stop-color="#CD000C"/>
<stop offset="1" stop-color="#670006"/>
</linearGradient>
<linearGradient id="paint1_linear_290_3232" x1="95.5765" y1="306" x2="95.5765" y2="347.961" gradientUnits="userSpaceOnUse">
<stop stop-color="#333333"/>
<stop offset="1" stop-color="#222222"/>
</linearGradient>
<linearGradient id="paint2_linear_290_3232" x1="87.2539" y1="329.48" x2="87.2539" y2="478.214" gradientUnits="userSpaceOnUse">
<stop stop-color="#CD000C"/>
<stop offset="1" stop-color="#670006"/>
</linearGradient>
<linearGradient id="paint3_linear_290_3232" x1="95.5765" y1="308.5" x2="95.5765" y2="350.461" gradientUnits="userSpaceOnUse">
<stop stop-color="#333333"/>
<stop offset="1" stop-color="#222222"/>
</linearGradient>
<clipPath id="clip0_290_3232">
<rect width="390" height="781" fill="white" transform="translate(0.000244141 0.5)"/>
</clipPath>
<clipPath id="clip1_290_3232">
<rect width="200" height="200" fill="white" transform="translate(0.000244141 306)"/>
</clipPath>
<clipPath id="clip2_290_3232">
<rect width="200" height="200" fill="white" transform="translate(0.000244141 308.5)"/>
</clipPath>
</defs>
</svg>
