<svg width="44" height="36" viewBox="0 0 44 36" fill="none" xmlns="http://www.w3.org/2000/svg">
<rect width="44" height="36" rx="12" fill="black" fill-opacity="0.05"/>
<path d="M30.9868 17.0544V24.9673C30.9868 25.5147 30.7918 25.9834 30.402 26.3732C30.0122 26.763 29.5435 26.958 28.9961 26.958H15.0615C14.5141 26.958 14.0454 26.763 13.6556 26.3732C13.2658 25.9834 13.0709 25.5147 13.0709 24.9673V17.0544C12.6893 16.7061 12.3949 16.2582 12.1875 15.7107C11.9801 15.1633 11.976 14.5661 12.1751 13.9192L13.2202 10.535C13.3529 10.1037 13.5893 9.74707 13.9293 9.46506C14.2694 9.18305 14.6634 9.04205 15.1113 9.04205H28.9463C29.3942 9.04205 29.7841 9.1789 30.1158 9.45262C30.4476 9.72633 30.6882 10.0871 30.8375 10.535L31.8826 13.9192C32.0816 14.5661 32.0775 15.155 31.8701 15.6859C31.6628 16.2167 31.3683 16.6729 30.9868 17.0544ZM24.2185 16.0093C24.6664 16.0093 25.0065 15.8559 25.2387 15.549C25.471 15.2421 25.5622 14.8979 25.5125 14.5163L24.965 11.0327H23.0241V14.7154C23.0241 15.0638 23.1403 15.3665 23.3725 15.6237C23.6047 15.8808 23.8868 16.0093 24.2185 16.0093ZM19.7396 16.0093C20.1211 16.0093 20.4321 15.8808 20.6727 15.6237C20.9132 15.3665 21.0335 15.0638 21.0335 14.7154V11.0327H19.0926L18.5452 14.5163C18.4788 14.9145 18.5659 15.2628 18.8064 15.5614C19.047 15.86 19.358 16.0093 19.7396 16.0093ZM15.3103 16.0093C15.6089 16.0093 15.8702 15.9015 16.0942 15.6859C16.3181 15.4702 16.455 15.1965 16.5047 14.8647L17.0522 11.0327H15.1113L14.116 14.3671C14.0164 14.6988 14.0703 15.0555 14.2777 15.437C14.4851 15.8186 14.8293 16.0093 15.3103 16.0093ZM28.7473 16.0093C29.2283 16.0093 29.5767 15.8186 29.7924 15.437C30.008 15.0555 30.0578 14.6988 29.9417 14.3671L28.8966 11.0327H27.0054L27.5529 14.8647C27.6026 15.1965 27.7395 15.4702 27.9635 15.6859C28.1874 15.9015 28.4487 16.0093 28.7473 16.0093Z" fill="#1C1C1C"/>
</svg>
