<svg width="21" height="18" viewBox="0 0 21 18" fill="none" xmlns="http://www.w3.org/2000/svg">
<path d="M18.987 8.05444V15.9673C18.987 16.5147 18.7921 16.9834 18.4023 17.3732C18.0124 17.763 17.5438 17.958 16.9963 17.958H3.06176C2.51433 17.958 2.04569 17.763 1.65586 17.3732C1.26602 16.9834 1.0711 16.5147 1.0711 15.9673V8.05444C0.689558 7.70608 0.395107 7.25818 0.187747 6.71075C-0.0196134 6.16332 -0.0237606 5.56612 0.175305 4.91916L1.2204 1.53504C1.35311 1.10373 1.5895 0.747073 1.92957 0.465064C2.26964 0.183054 2.66363 0.0420494 3.11152 0.0420494H16.9466C17.3945 0.0420494 17.7843 0.178907 18.1161 0.452622C18.4479 0.726337 18.6884 1.08714 18.8377 1.53504L19.8828 4.91916C20.0819 5.56612 20.0777 6.15502 19.8704 6.68586C19.663 7.21671 19.3685 7.6729 18.987 8.05444ZM12.2188 7.00935C12.6667 7.00935 13.0067 6.8559 13.239 6.54901C13.4712 6.24211 13.5625 5.8979 13.5127 5.51635L12.9653 2.03271H11.0244V5.71542C11.0244 6.06378 11.1405 6.36653 11.3727 6.62366C11.605 6.88078 11.887 7.00935 12.2188 7.00935ZM7.7398 7.00935C8.12134 7.00935 8.43238 6.88078 8.67292 6.62366C8.91346 6.36653 9.03372 6.06378 9.03372 5.71542V2.03271H7.09284L6.5454 5.51635C6.47905 5.91448 6.56614 6.26285 6.80668 6.56145C7.04722 6.86005 7.35826 7.00935 7.7398 7.00935ZM3.31059 7.00935C3.60919 7.00935 3.87046 6.90152 4.09441 6.68586C4.31836 6.47021 4.45522 6.19649 4.50498 5.86472L5.05241 2.03271H3.11152L2.11619 5.36705C2.01666 5.69883 2.07058 6.05549 2.27794 6.43703C2.4853 6.81857 2.82951 7.00935 3.31059 7.00935ZM16.7475 7.00935C17.2286 7.00935 17.577 6.81857 17.7926 6.43703C18.0083 6.05549 18.058 5.69883 17.9419 5.36705L16.8968 2.03271H15.0057L15.5531 5.86472C15.6029 6.19649 15.7397 6.47021 15.9637 6.68586C16.1876 6.90152 16.4489 7.00935 16.7475 7.00935Z" fill="#1C1C1C"/>
</svg>
