<svg width="200" height="205" viewBox="0 0 200 205" fill="none" xmlns="http://www.w3.org/2000/svg">
<g filter="url(#filter0_d_92_1786)">
<path d="M100 0.786133C155.229 0.786219 200 45.4296 200 100.5C200 155.571 155.229 200.214 100 200.214C44.7718 200.214 -0.000488281 155.571 -0.000488281 100.5C-0.000368363 45.4295 44.7719 0.786133 100 0.786133ZM58.1841 77.584V141.331H141.365V77.584H58.1841Z" fill="#FFF4CB"/>
</g>
<rect x="56.9402" y="68.8209" width="84.4247" height="8.76278" fill="#AE9B52"/>
<g filter="url(#filter1_i_92_1786)">
<path d="M100 6.40881C152.617 6.4089 195.271 48.5347 195.272 100.5C195.272 152.465 152.617 194.591 100 194.591C47.3831 194.591 4.72864 152.465 4.72864 100.5C4.72887 48.5347 47.3832 6.40881 100 6.40881ZM57.9464 68.4938V142.508H142.053V68.4938H57.9464Z" fill="#FFDD60"/>
</g>
<path d="M143.609 54.6771C145.298 54.6772 146.667 56.0468 146.667 57.7357V143.265C146.667 144.954 145.298 146.323 143.609 146.323H56.3922C54.7033 146.323 53.3337 144.954 53.3336 143.265V57.7357C53.3336 56.0467 54.7032 54.6771 56.3922 54.6771H143.609ZM58.4567 68.8236V141.43H141.544V68.8236H58.4567Z" fill="#FFF597"/>
<path d="M84.8015 170.776C84.8015 173.528 83.3336 175.106 81.0033 175.106C79.3518 175.106 77.9757 174.959 77.1316 174.647L77.2233 171.179H78.2692L78.8748 173.528H79.1133C80.3427 173.528 80.5812 173.014 80.5812 171.932V162.372L79.3885 161.84V161.197H85.9942V161.84L84.8015 162.372V170.776ZM92.5509 175.069C88.459 175.069 86.514 172.721 86.514 168.005C86.514 163.326 88.459 160.977 92.5509 160.977C96.6427 160.977 98.5877 163.326 98.5877 168.005C98.5877 172.721 96.6427 175.069 92.5509 175.069ZM92.5509 173.363C93.7619 173.363 94.2206 172.097 94.2206 168.005C94.2206 163.968 93.7619 162.665 92.5509 162.665C91.3582 162.665 90.8811 163.968 90.8811 168.005C90.8811 172.097 91.3582 173.363 92.5509 173.363ZM109.868 173.895C109.153 174.5 107.556 175.069 105.501 175.069C101.464 175.069 99.6845 172.592 99.6845 168.042C99.6845 163.491 101.464 160.977 105.501 160.977C107.556 160.977 109.153 161.546 109.868 162.152L109.611 165.95H108.584L107.758 162.959C107.299 162.867 106.859 162.83 106.529 162.83C104.437 162.83 104.052 165.142 104.052 168.042C104.052 170.941 104.437 173.216 106.529 173.216C106.859 173.216 107.299 173.179 107.758 173.088L108.584 170.097H109.611L109.868 173.895ZM116.831 175.069C112.739 175.069 110.794 172.721 110.794 168.005C110.794 163.326 112.739 160.977 116.831 160.977C120.923 160.977 122.868 163.326 122.868 168.005C122.868 172.721 120.923 175.069 116.831 175.069ZM116.831 173.363C118.042 173.363 118.501 172.097 118.501 168.005C118.501 163.968 118.042 162.665 116.831 162.665C115.638 162.665 115.161 163.968 115.161 168.005C115.161 172.097 115.638 173.363 116.831 173.363Z" fill="#B29014" fill-opacity="0.3"/>
<defs>
<filter id="filter0_d_92_1786" x="-0.000488281" y="0.786133" width="200.001" height="203.25" filterUnits="userSpaceOnUse" color-interpolation-filters="sRGB">
<feFlood flood-opacity="0" result="BackgroundImageFix"/>
<feColorMatrix in="SourceAlpha" type="matrix" values="0 0 0 0 0 0 0 0 0 0 0 0 0 0 0 0 0 0 127 0" result="hardAlpha"/>
<feOffset dy="3.82273"/>
<feComposite in2="hardAlpha" operator="out"/>
<feColorMatrix type="matrix" values="0 0 0 0 0.74277 0 0 0 0 0.678188 0 0 0 0 0.437476 0 0 0 1 0"/>
<feBlend mode="normal" in2="BackgroundImageFix" result="effect1_dropShadow_92_1786"/>
<feBlend mode="normal" in="SourceGraphic" in2="effect1_dropShadow_92_1786" result="shape"/>
</filter>
<filter id="filter1_i_92_1786" x="4.72864" y="6.40881" width="190.543" height="188.183" filterUnits="userSpaceOnUse" color-interpolation-filters="sRGB">
<feFlood flood-opacity="0" result="BackgroundImageFix"/>
<feBlend mode="normal" in="SourceGraphic" in2="BackgroundImageFix" result="shape"/>
<feColorMatrix in="SourceAlpha" type="matrix" values="0 0 0 0 0 0 0 0 0 0 0 0 0 0 0 0 0 0 127 0" result="hardAlpha"/>
<feOffset dy="3.82273"/>
<feComposite in2="hardAlpha" operator="arithmetic" k2="-1" k3="1"/>
<feColorMatrix type="matrix" values="0 0 0 0 0.938439 0 0 0 0 0.763781 0 0 0 0 0.121658 0 0 0 1 0"/>
<feBlend mode="normal" in2="shape" result="effect1_innerShadow_92_1786"/>
</filter>
</defs>
</svg>
