<svg width="22" height="22" viewBox="0 0 22 22" fill="none" xmlns="http://www.w3.org/2000/svg">
<path d="M7.74984 13.4375C7.37067 13.4375 7.05019 13.3066 6.78838 13.0448C6.52657 12.7829 6.39567 12.4625 6.39567 12.0833C6.39567 11.7041 6.52657 11.3836 6.78838 11.1218C7.05019 10.86 7.37067 10.7291 7.74984 10.7291C8.129 10.7291 8.44949 10.86 8.7113 11.1218C8.9731 11.3836 9.104 11.7041 9.104 12.0833C9.104 12.4625 8.9731 12.7829 8.7113 13.0448C8.44949 13.3066 8.129 13.4375 7.74984 13.4375ZM14.2498 13.4375C13.8707 13.4375 13.5502 13.3066 13.2884 13.0448C13.0266 12.7829 12.8957 12.4625 12.8957 12.0833C12.8957 11.7041 13.0266 11.3836 13.2884 11.1218C13.5502 10.86 13.8707 10.7291 14.2498 10.7291C14.629 10.7291 14.9495 10.86 15.2113 11.1218C15.4731 11.3836 15.604 11.7041 15.604 12.0833C15.604 12.4625 15.4731 12.7829 15.2113 13.0448C14.9495 13.3066 14.629 13.4375 14.2498 13.4375ZM10.9998 19.6666C13.4193 19.6666 15.4686 18.827 17.1478 17.1479C18.8269 15.4687 19.6665 13.4194 19.6665 11C19.6665 10.5666 19.6394 10.1468 19.5853 9.74059C19.5311 9.33434 19.4318 8.94163 19.2873 8.56246C18.9082 8.65274 18.529 8.72045 18.1498 8.76558C17.7707 8.81072 17.3734 8.83329 16.9582 8.83329C15.3151 8.83329 13.7623 8.48121 12.2998 7.77704C10.8373 7.07288 9.59151 6.08885 8.56234 4.82496C7.98456 6.23329 7.15852 7.45656 6.08421 8.49475C5.00991 9.53295 3.75956 10.3138 2.33317 10.8375V11C2.33317 13.4194 3.17275 15.4687 4.85192 17.1479C6.53109 18.827 8.58039 19.6666 10.9998 19.6666ZM10.9998 21.8333C9.50123 21.8333 8.09289 21.5489 6.77484 20.9802C5.45678 20.4114 4.31025 19.6395 3.33525 18.6645C2.36025 17.6895 1.58838 16.543 1.01963 15.225C0.450879 13.9069 0.166504 12.4986 0.166504 11C0.166504 9.50135 0.450879 8.09302 1.01963 6.77496C1.58838 5.4569 2.36025 4.31038 3.33525 3.33538C4.31025 2.36038 5.45678 1.5885 6.77484 1.01975C8.09289 0.451001 9.50123 0.166626 10.9998 0.166626C12.4984 0.166626 13.9068 0.451001 15.2248 1.01975C16.5429 1.5885 17.6894 2.36038 18.6644 3.33538C19.6394 4.31038 20.4113 5.4569 20.98 6.77496C21.5488 8.09302 21.8332 9.50135 21.8332 11C21.8332 12.4986 21.5488 13.9069 20.98 15.225C20.4113 16.543 19.6394 17.6895 18.6644 18.6645C17.6894 19.6395 16.5429 20.4114 15.2248 20.9802C13.9068 21.5489 12.4984 21.8333 10.9998 21.8333Z" fill="#FFF597"/>
</svg>
