<svg width="20" height="13" viewBox="0 0 20 13" fill="none" xmlns="http://www.w3.org/2000/svg">
<path d="M9.99992 10.3334C11.0416 10.3334 11.927 9.96879 12.6562 9.23962C13.3853 8.51046 13.7499 7.62504 13.7499 6.58337C13.7499 5.54171 13.3853 4.65629 12.6562 3.92712C11.927 3.19796 11.0416 2.83337 9.99992 2.83337C8.95825 2.83337 8.07284 3.19796 7.34367 3.92712C6.6145 4.65629 6.24992 5.54171 6.24992 6.58337C6.24992 7.62504 6.6145 8.51046 7.34367 9.23962C8.07284 9.96879 8.95825 10.3334 9.99992 10.3334ZM9.99992 8.83337C9.37492 8.83337 8.84367 8.61462 8.40617 8.17712C7.96867 7.73962 7.74992 7.20837 7.74992 6.58337C7.74992 5.95837 7.96867 5.42712 8.40617 4.98962C8.84367 4.55212 9.37492 4.33337 9.99992 4.33337C10.6249 4.33337 11.1562 4.55212 11.5937 4.98962C12.0312 5.42712 12.2499 5.95837 12.2499 6.58337C12.2499 7.20837 12.0312 7.73962 11.5937 8.17712C11.1562 8.61462 10.6249 8.83337 9.99992 8.83337ZM9.99992 12.8334C7.97214 12.8334 6.12492 12.2674 4.45825 11.1355C2.79159 10.0035 1.58325 8.48615 0.833252 6.58337C1.58325 4.6806 2.79159 3.16324 4.45825 2.03129C6.12492 0.899346 7.97214 0.333374 9.99992 0.333374C12.0277 0.333374 13.8749 0.899346 15.5416 2.03129C17.2083 3.16324 18.4166 4.6806 19.1666 6.58337C18.4166 8.48615 17.2083 10.0035 15.5416 11.1355C13.8749 12.2674 12.0277 12.8334 9.99992 12.8334Z" fill="#6A6A6A"/>
</svg>
