<svg width="354" height="93" viewBox="0 0 354 93" fill="none" xmlns="http://www.w3.org/2000/svg">
<rect x="1" y="1.7059" width="352" height="90" rx="13" fill="#1C1C1C"/>
<rect x="1" y="1.7059" width="352" height="90" rx="13" stroke="#FFF597" stroke-width="2"/>
<path d="M24.816 29.6259C24.728 29.4499 24.64 29.2079 24.838 28.9439C24.926 28.8559 25.146 28.8339 25.388 28.6359C25.52 28.5479 25.696 28.3719 26.202 28.3939C26.532 28.4159 26.708 28.5479 26.84 28.6799C26.972 28.8339 27.126 28.7679 27.302 28.7899C27.566 28.8559 28.182 28.8999 28.468 28.9219C28.754 28.9219 29.15 29.0759 29.898 29.0099C30.228 28.9879 30.712 29.0539 31.108 29.0759C31.46 29.0759 32.274 28.7239 32.648 28.7459C33 28.7679 33.22 28.5919 33.902 28.3939C34.408 28.2839 34.892 28.4599 35.464 28.4819C35.838 28.5039 35.97 28.4819 36.102 28.5259C36.366 28.6579 36.586 28.5919 36.762 28.7459C36.894 28.8559 36.806 28.9219 36.894 29.0759L37.158 29.4719C37.356 29.8019 37.07 30.1979 36.916 30.4399C36.696 30.8579 36.652 30.9899 36.058 31.1659C35.706 31.3199 35.222 31.4959 34.826 31.7599C34.43 32.0679 34.144 32.1339 33.704 32.4859L33.506 32.6619C33.374 32.8379 33.176 32.9259 33.044 33.0359C33.022 33.2339 33.22 33.3439 33.594 33.5199C33.594 33.5199 34.1 33.5419 34.364 33.7619C34.628 33.9379 35.068 34.0919 35.398 34.0919C35.662 34.1139 35.838 34.2679 36.08 34.2679C36.806 34.2899 36.894 34.3339 37.466 34.5099C37.928 34.8619 38.39 34.9939 38.61 35.0379C38.852 35.1479 39.292 35.2139 39.688 35.3679C40.084 35.4999 40.48 35.7859 40.48 35.9179C40.48 36.0719 40.524 36.2259 40.48 36.4019C40.326 36.7099 40.458 36.8639 40.172 37.0179C39.688 37.3479 39.292 37.3479 38.786 37.2379C38.522 37.1719 38.236 37.1279 37.994 37.0399C37.818 36.9959 37.642 36.9079 37.466 36.8199C37.048 36.7099 36.828 36.6879 36.388 36.4459C35.684 36.0279 34.914 35.6759 34.166 35.3679C33.946 35.2579 33.748 35.1479 33.616 34.9939C33.33 34.6859 33.132 34.6419 32.78 34.4439C32.538 34.3999 32.208 34.3779 32.032 34.3779C31.636 34.5979 31.152 34.6639 30.756 34.9279C30.47 35.1479 30.404 35.3459 30.118 35.5219C29.854 35.6979 29.59 35.7419 29.304 35.8299C28.974 35.9619 28.71 36.1379 28.38 36.3579C28.16 36.5119 28.16 36.4679 27.786 36.7319C27.39 36.9739 27.17 37.4579 26.774 37.7879C26.51 38.0299 26.224 38.2059 25.982 38.3379C25.784 38.4699 25.256 38.5579 25.124 38.7779C24.926 39.0639 24.684 39.2619 24.288 39.3059C24.068 39.3499 23.936 39.4599 23.65 39.2839C23.342 39.1519 23.188 38.9539 23.122 38.7559C22.99 38.4479 22.968 38.3159 23.144 38.0299C23.298 37.7439 23.606 37.6559 23.804 37.4139C24.002 37.1279 24.288 36.9079 24.596 36.7319C24.86 36.5559 24.97 36.3139 25.256 36.2479C25.432 36.2039 25.828 35.7859 26.07 35.6759C26.444 35.5659 26.576 35.5879 26.84 35.3019C27.126 34.9719 27.324 34.9939 27.698 34.7739C28.116 34.4879 28.204 34.5099 28.644 34.2679C28.93 34.0479 29.018 34.1139 29.084 33.9599C29.15 33.8059 29.568 33.5419 29.898 33.3659C30.206 33.2339 30.448 33.0359 30.69 32.7939C30.998 32.5739 31.394 31.9799 31.746 31.7819C31.9 31.6719 32.076 31.6279 32.186 31.5399C32.362 31.3859 33.22 31.0559 33.418 30.7259C33.572 30.4179 34.1 30.3959 34.1 30.1979C34.1 30.1319 33.286 30.1759 33.286 30.1759C33.154 30.1759 32.318 30.3519 32.208 30.3959C32.01 30.4839 31.702 30.5279 31.438 30.6159C31.13 30.7259 30.976 30.8579 30.646 30.8579C30.426 30.8579 29.92 30.7699 29.722 30.8139C29.15 30.8799 28.556 30.7919 28.006 30.8579C27.5 30.9239 26.994 30.5939 26.488 30.5719C26.18 30.5499 25.542 30.3959 25.41 30.2859C25.366 30.2419 25.014 30.0879 24.992 29.8899C24.97 29.6919 24.816 29.6259 24.816 29.6259ZM30.932 36.8419C30.976 36.7539 30.998 36.6439 31.108 36.5339C31.284 36.3579 31.57 36.4019 31.79 36.4899C31.988 36.5559 32.428 36.5779 32.494 36.7979C32.494 36.7979 32.692 37.2819 32.736 37.4799C32.824 37.6559 32.802 37.9419 32.89 38.0519C32.978 38.2279 32.978 38.3159 33 38.4699C32.978 38.6239 32.978 38.7119 32.912 38.8439C32.868 38.9319 33 39.1959 32.978 39.2839C32.868 39.4159 32.978 39.7899 32.89 40.1199C32.868 40.2079 33.044 40.3399 33 40.4059C32.89 40.4939 33.154 41.0219 33 41.1539C32.868 41.2859 33.088 41.1759 33.198 41.1979C33.33 41.2199 33.528 41.1979 33.704 41.1979C33.792 41.1979 34.122 41.1539 34.32 41.1539C34.386 41.1539 34.716 41.0879 35.354 40.9779C35.992 40.8899 35.97 40.8679 36.168 40.8239C36.432 40.8019 36.718 40.9119 37.004 40.8239C37.202 40.7359 37.466 40.8899 37.928 40.8019C38.39 40.6919 39.336 40.8899 39.446 40.8899C39.622 40.8899 40.128 40.8679 40.7 41.1319C41.096 41.3079 41.47 41.4839 41.36 41.8579C41.272 42.1439 41.25 42.4079 41.14 42.5839C41.096 42.7599 40.92 42.8699 40.524 42.9359C40.37 42.9579 40.084 42.9799 39.952 42.9139C39.666 42.7599 39.468 42.8699 39.292 42.8699C39.006 42.8699 38.742 43.0239 38.566 43.0239C38.456 43.0239 38.192 43.1339 38.082 43.1339C37.906 43.1339 37.62 43.0679 37.532 43.0679C37.356 43.0679 36.586 43.1119 36.498 43.1119C36.322 43.1119 35.948 43.0239 35.64 43.0459C35.266 43.0679 34.826 42.9139 34.628 42.9139C34.562 42.9139 33.88 42.9359 33.66 42.9799C32.978 43.1119 32.12 42.9139 31.196 43.0899C31.064 43.1119 30.932 43.2219 30.756 43.2219C30.426 43.2219 30.096 43.3099 29.766 43.2879C29.568 43.2659 28.622 43.2879 28.358 43.2879C28.16 43.2879 27.434 43.3759 27.17 43.3759C26.994 43.3759 26.598 43.0679 26.18 43.3319C25.63 43.5079 25.388 43.5299 25.212 43.6179C25.014 43.7059 24.706 43.6179 24.552 43.6179C24.376 43.6179 24.134 43.6619 23.936 43.6179C23.562 43.5299 23.298 43.3319 23.1 43.1779C23.1 43.1779 22.924 43.0239 22.902 42.8699C22.836 42.1879 22.99 42.0779 23.716 41.7479C23.892 41.6599 24.288 41.4399 24.42 41.4619C24.662 41.5059 24.794 41.5499 24.794 41.5499C25.146 41.6159 25.212 41.2639 25.564 41.3299L26.378 41.4619C26.642 41.5059 26.906 41.4399 27.214 41.3959C27.5 41.3519 27.742 41.3959 27.852 41.3959C28.006 41.3959 28.204 41.4179 28.358 41.3959C28.644 41.3519 28.578 41.3519 28.842 41.2859C29.15 41.1979 29.634 41.1539 29.854 41.1759C30.008 41.1539 30.8 41.2639 30.976 41.1759C31.152 41.0879 31.064 40.7359 31.108 40.6479C31.196 40.4499 31.152 40.4499 31.174 40.3619C31.196 40.1859 31.086 39.7459 31.086 39.7459C31.064 39.1959 31.042 38.9099 30.976 38.4919C30.91 38.3379 31.064 38.0739 31.064 37.9859C31.108 37.7879 30.866 37.6119 30.932 37.4139C30.998 37.2159 30.866 36.9739 30.932 36.8419ZM48.0294 39.3939C47.8974 39.6579 47.3914 39.8119 47.2154 40.0319C46.9734 40.3179 46.5774 40.2739 46.3794 40.6039C46.1814 40.9339 45.9614 41.1099 45.7194 41.1979C45.3234 41.3519 45.0594 41.5719 44.5974 41.6159C44.1354 41.5719 44.0694 41.7919 43.8054 41.6379C43.6294 41.5279 43.5194 41.4839 43.3434 41.3959C43.1894 41.2859 43.1674 41.1099 43.3214 40.9119C43.4314 40.8019 43.5194 40.7359 43.7174 40.5819C44.0254 40.3399 44.0254 40.2959 44.1354 40.1639C44.2454 39.9879 44.3774 39.8559 44.5314 39.7019C44.7514 39.5259 45.5874 38.8659 45.6314 38.7779C45.7634 38.6019 45.9394 38.4039 46.2034 38.2059C46.4234 38.0519 46.9294 38.0299 47.0834 37.8759C47.2594 37.7219 47.9194 37.0399 48.2054 36.8639C48.5354 36.7099 49.0194 36.2259 49.1294 36.0719C49.2174 35.9179 49.3274 35.5879 49.3274 35.4339L49.2174 34.7959C49.2174 34.5099 48.4254 34.2239 48.2274 34.1579C47.9414 34.0479 47.3914 33.8279 47.1494 33.9379C46.7974 34.1139 46.8634 34.2679 46.5994 34.5979C46.3354 34.9059 46.0274 35.2359 45.5434 35.3899L44.8174 35.8519C44.2674 36.0719 44.3114 36.1599 43.7614 36.1159C43.2334 36.0499 43.0794 35.3899 42.9694 34.8839C42.8594 34.4219 43.7174 34.2019 44.2014 33.8279C44.6634 33.4759 45.1914 33.1239 45.5214 32.7939C45.6754 32.5959 46.0274 32.1339 46.2034 31.9579C46.8414 31.2759 47.0834 30.8579 47.0834 30.5279C47.0834 30.3079 47.1934 30.0659 47.3254 29.7799C47.4354 29.4719 47.5674 29.1419 47.6334 28.7459C47.6994 28.2839 47.4134 28.1299 47.1934 27.9319C47.0614 27.8219 46.9734 27.6679 46.9954 27.4479C47.2374 27.0739 47.7434 27.0519 48.3814 27.2719C49.0194 27.4919 49.5254 28.2839 49.5254 28.6139C49.5254 28.7899 49.6574 29.3179 49.5034 29.8459C49.3934 30.1979 48.9974 30.5279 48.9094 30.7039C48.6894 31.1439 48.6014 31.8919 48.6894 32.3319C48.7994 32.7499 49.5694 32.7499 50.0094 32.5959C50.2074 32.5299 50.6474 32.7719 50.8234 32.8159C51.3074 32.9479 51.3954 33.2779 51.5714 33.4319C51.6154 33.4759 51.7474 33.5419 51.8794 33.7179C52.4954 33.6519 53.1774 33.6079 53.4634 33.6519C53.7054 33.6959 54.6514 33.5419 55.1574 33.4759C55.4654 33.4099 55.9934 33.4099 56.7194 33.4539C57.4454 33.4979 57.7974 33.1239 58.0394 32.8379C58.2374 32.5739 58.0834 32.3539 57.9954 31.7379C57.9734 31.5179 57.9514 31.2979 57.9514 31.0779C57.9294 30.4839 58.0174 30.1539 57.9734 29.8459C57.9294 29.6039 57.8634 29.3619 57.4454 28.9659C57.2254 28.7459 56.9614 28.5039 56.9174 28.2839C56.7634 27.6679 56.8954 27.0299 57.1594 26.8319C57.4894 26.5899 57.5994 26.5899 57.9734 26.6779C58.1274 26.6999 58.1714 26.7219 58.3694 26.8759C58.3694 26.8759 58.7434 27.0299 58.9414 27.0959C59.1394 27.1619 59.1834 27.3159 59.2934 27.4039C59.4254 27.5139 59.3374 27.8219 59.4694 27.9759C59.6014 28.1299 59.6674 28.5699 59.8214 29.1639C59.8874 29.4499 60.0414 30.0439 59.8874 30.3519C59.7994 30.5279 59.8214 31.1219 59.8214 31.2539L59.9534 32.0459L59.8874 33.2119L59.8434 34.1139C59.8214 34.4219 59.8874 34.8399 59.8874 35.0599C59.8654 35.2799 59.9534 35.7639 59.9314 36.1379C59.9094 36.5559 59.7334 37.2819 59.6894 37.8099L59.7774 38.2719C59.7554 38.4039 59.6674 39.2179 59.5574 39.3719C59.4474 39.5259 59.6674 39.6799 59.5134 39.8999C59.3154 40.0979 59.0734 40.4939 58.8754 40.6039C58.6554 40.6919 58.5234 40.5159 58.3474 40.4939C58.2154 40.4939 57.9734 40.1639 57.8854 39.8339C57.7974 39.5259 57.7974 39.4379 57.7754 39.1079C57.7314 38.7779 57.7314 38.8219 57.7534 38.6019C57.7534 38.4039 57.6874 37.9639 57.6874 37.9639C57.6874 37.9639 57.7314 37.7659 57.9294 37.5019C58.0834 37.2379 57.9074 37.0179 57.9294 36.7979C57.9294 36.5999 58.0614 35.8739 57.9734 35.7199C57.8634 35.5439 57.7094 35.4779 57.4234 35.3239C57.2254 35.2359 56.6534 35.1919 56.3894 35.1919C56.0594 35.1919 55.8834 35.1259 55.6634 35.1259L54.2994 35.3019C53.9914 35.3019 53.3974 35.5439 52.9574 35.4119C52.8254 35.4119 51.8794 35.4559 51.2634 35.4779L51.2414 35.5219C51.0434 35.8299 50.8674 36.7539 50.5374 37.1499C50.2294 37.5019 49.9654 37.8759 49.7674 37.9859C49.5474 38.0959 49.4374 38.2719 49.1734 38.4699C48.9094 38.7559 48.6234 38.9539 48.3154 39.2179C48.2274 39.3059 48.0074 39.3059 48.0294 39.3939ZM47.8974 42.7599C47.5894 42.2319 47.2154 41.7259 47.2814 41.4399C47.3694 40.9779 48.2274 40.8899 48.7114 40.9999C49.0194 41.0879 49.3714 41.2419 49.4814 41.2419C49.7014 41.3079 49.9654 41.3959 50.0094 41.5499C50.0754 41.6819 50.2294 42.1659 50.4054 42.2539C50.6914 42.3639 50.4714 43.0239 50.9334 43.1119C51.1974 43.1779 51.4174 43.3979 51.5714 43.4639C51.8134 43.5739 52.7594 43.7279 52.9134 43.7279C53.0674 43.7279 53.9034 43.7059 54.1674 43.7499C54.4314 43.7939 54.7614 43.7059 54.8494 43.7059C55.0694 43.6839 55.6634 43.7719 56.2794 43.8819C56.5654 43.9039 57.0934 43.6619 57.6214 43.6399C58.1494 43.6179 58.5454 43.3319 58.6774 43.3319C59.1834 43.2879 59.4914 43.3539 59.7774 43.3319C60.0194 43.3319 60.7234 43.8599 61.0094 44.1899C61.1194 44.3219 60.9434 44.8939 60.8774 45.0919C60.7674 45.2899 60.3494 45.4219 59.7114 45.4439C59.2054 45.4659 58.9194 45.5759 58.6334 45.5759C57.9514 45.5979 57.9954 45.4659 57.6654 45.5979C57.4674 45.6859 56.6314 45.6419 56.3014 45.6639C55.9934 45.6639 55.8394 45.5759 55.5974 45.5979C55.4434 45.5979 54.9374 45.7519 54.3874 45.6859C53.7054 45.5979 53.2874 45.7519 53.0674 45.6639C52.8694 45.5539 51.6594 45.7959 51.3734 45.7299C51.2194 45.7079 50.5594 45.6199 50.2734 45.4879C50.0094 45.3339 49.6794 45.2459 49.5694 45.0919C49.4594 44.9159 48.7774 43.8379 48.5574 43.6399C48.3154 43.3759 48.0074 42.9139 47.8974 42.7599ZM83.1134 33.6299C83.4874 34.2239 83.2234 34.6419 83.1134 35.1479C83.0254 35.5879 82.5854 36.2039 82.3654 36.3579L81.2874 37.1499C80.9134 37.4139 80.6274 37.4799 80.1654 37.6999C79.7254 37.8979 79.0434 37.9859 78.3174 37.8539C77.5694 37.7439 77.3494 37.4579 76.3814 36.9959C75.3914 36.5559 75.3694 35.7639 75.4354 35.2799C75.4794 34.8179 75.4574 34.2679 75.4354 33.6299C75.3914 33.0139 75.9634 32.9039 76.2714 32.5739C76.5574 32.2439 76.7334 31.7819 76.9754 31.4959C77.1954 31.1659 77.7014 30.9899 78.3174 30.9459C78.3174 30.9459 78.8454 30.8799 79.3294 30.9459C79.8794 31.0339 80.0554 31.0339 80.8694 31.3419C81.5954 31.6939 81.7274 32.0019 81.9694 32.2879C82.2334 32.5739 82.7394 33.0799 83.1134 33.6299ZM83.7954 37.8539C84.3234 37.8319 85.3354 37.8319 85.8414 37.8979C85.6654 37.8539 87.0074 37.7439 87.1614 37.9639C87.2934 38.1839 87.4474 38.3159 87.4254 38.9319C87.4254 39.5479 87.1174 39.6139 86.4794 39.8559C85.8634 40.0979 85.3134 39.8779 84.7854 39.8339C84.2794 39.8119 82.6074 39.8779 81.7494 39.8559C80.8694 39.8559 81.0014 40.0539 80.6714 40.0979C80.2754 40.1419 80.4074 40.5379 80.4294 40.7359C80.4514 40.8899 80.6934 43.4419 80.5614 44.1239C80.4294 44.8059 80.5614 44.7179 80.4514 44.9819C80.3194 45.2679 79.7694 45.5539 79.4174 45.5539C78.9774 45.5539 78.7574 45.2239 78.6254 45.0259C78.4494 44.7179 78.4274 44.1019 78.4494 43.7499C78.4714 43.4419 78.5594 41.4179 78.5594 40.7579C78.5594 40.0759 77.9214 40.2739 77.4154 40.2299C76.9314 40.1859 77.1294 40.2079 76.3594 40.2959C75.5894 40.3619 74.1594 40.4499 72.7074 40.6479C72.0034 40.7359 71.1894 40.6039 70.7714 40.2299C70.3094 39.8119 70.3094 39.0639 70.4194 38.7339C70.5074 38.5359 70.8594 38.3819 71.3434 38.3159C72.2014 38.1619 73.3894 38.3599 73.6754 38.4039C74.1814 38.4919 76.0734 38.3599 76.3594 38.3819C76.6454 38.4479 77.3934 38.4039 78.0314 38.4479C78.6694 38.4919 79.7914 38.4259 80.4074 38.2939C81.0014 38.0959 81.5294 38.1839 81.5294 38.1839C81.5294 38.1839 82.2114 38.0519 82.4094 37.9859C82.5414 37.9639 83.1134 37.8979 83.7954 37.8539ZM77.9434 29.1639C77.9434 29.1639 78.9774 29.2079 79.4834 29.1639C80.0114 29.0759 80.0774 29.0099 80.8254 28.9439C81.4854 28.8779 82.1674 28.8119 82.6734 28.7899C83.2014 28.7459 84.0594 28.6799 84.4994 28.7899C84.9614 28.8559 85.7534 28.8559 86.0614 29.1639C86.4134 29.4279 86.3474 29.8899 86.1714 30.4399C86.0394 30.8359 85.4014 30.8799 84.8954 30.7479C84.3674 30.6159 84.0154 30.5939 83.6634 30.5939H80.8914C80.3854 30.5939 79.6814 30.6599 78.9334 30.7259C78.4494 30.7699 77.9434 30.7919 77.4374 30.7919C76.9754 30.7919 76.6674 30.8139 76.4034 30.8579C75.9194 30.9239 75.6774 31.0779 74.9294 31.1439C73.8514 31.2539 73.7634 31.1439 73.0814 31.1439C72.3774 31.1439 72.0474 30.6819 71.7174 30.0659C71.4094 29.4939 71.9154 29.3619 72.0914 29.0979C72.2674 28.8119 73.2574 29.1639 73.6314 29.1419C73.9834 29.1419 74.9954 29.2519 75.4794 29.1639C75.9634 29.0099 75.9854 29.2519 76.5794 29.1639C77.1074 29.0099 77.4594 29.1639 77.9434 29.1639ZM79.8354 26.4799C79.8354 26.4799 80.6494 26.3479 81.2874 26.3479C81.9694 26.3479 82.0794 26.5239 82.4974 26.6119C82.8934 26.6999 82.4974 27.1619 82.4974 27.7999C82.4974 28.4599 81.9034 28.0859 81.2874 28.1959C80.8694 28.2619 80.3194 28.2179 79.5714 28.2399C79.1314 28.2399 78.6254 28.2619 78.0534 28.3279C77.4374 28.3939 76.9534 28.3499 76.5794 28.2399C76.0294 28.0859 75.7214 27.7779 75.5234 27.3819C75.3694 27.0959 75.4134 26.9419 75.5234 26.8319C75.6994 26.7219 75.9854 26.6339 76.1834 26.4799C76.5574 26.1939 77.4594 26.4799 78.1194 26.4799C78.7794 26.4799 79.1974 26.4579 79.8354 26.4799ZM81.1554 35.2139C81.3094 34.6859 81.5074 34.5979 81.3974 34.2459C81.2874 33.8939 80.9574 33.4759 80.8694 33.3219C80.7374 33.1679 80.4514 32.9699 80.1214 32.7499C79.8354 32.5519 79.0214 32.3759 78.8674 32.4639C78.6914 32.5519 78.3614 32.5959 78.0754 32.7499C77.8994 32.8599 77.7454 33.0139 77.7014 33.2559C77.5914 33.7619 77.4814 34.3339 77.5034 34.7079C77.5254 35.1039 77.8334 35.3679 78.1194 35.6759C78.3614 35.9839 78.2074 36.0939 78.7794 36.2479C79.3514 36.4019 80.3854 36.1159 80.6494 35.8739C80.8914 35.6099 80.9354 35.6979 81.1554 35.2139ZM99.8369 29.2299C100.101 29.3179 100.497 29.9779 100.761 30.5499C100.893 30.7919 100.607 31.1879 100.717 31.4739C100.827 31.8259 100.739 31.8919 100.607 32.2219C100.321 32.9259 100.277 33.7619 99.9029 34.2679C99.5729 34.6859 99.3529 35.0379 99.1769 35.6099C99.0669 35.9619 98.5389 36.2919 98.2749 36.6219L97.8349 37.1499C97.5929 37.4799 97.4169 37.7439 97.0869 38.0739C96.4269 38.7559 96.1409 38.8659 96.0309 39.1739C95.9429 39.4159 95.2389 40.0539 94.6889 40.3619C94.3369 40.5379 93.8529 40.8019 93.4349 40.9559C92.6869 41.2419 92.0489 41.2859 91.6089 41.2419C90.8389 41.1539 90.7069 40.8239 91.1029 40.0539C91.2349 39.7459 92.2689 39.4379 92.3789 39.2619C92.5329 38.9759 93.1489 38.9319 93.7869 38.4699C94.0509 38.3159 94.2489 37.7439 94.4909 37.5459C94.7329 37.3919 95.1069 37.0179 95.4589 36.6439C95.7889 36.2699 96.0969 35.9399 96.1849 35.8079C96.9109 34.8399 97.6149 34.2459 98.0989 33.4099C98.2309 33.2119 98.2529 32.7499 98.3189 32.5299C98.4289 32.2219 98.5389 32.1779 98.4509 31.9139C98.3629 31.6719 98.6489 31.4959 98.3629 31.3199C97.9889 31.0999 97.1529 31.3419 96.7349 31.5179C96.4929 31.6279 95.8109 31.6059 95.5469 31.7599C95.2829 31.8919 94.9749 31.5619 94.6449 31.6939C94.0509 31.9359 93.1049 31.8259 92.5989 31.8039C91.7629 31.7599 91.4549 31.7599 91.1029 31.4079C90.3769 30.7039 90.4869 30.2199 91.1029 29.7359C91.6749 29.2519 92.5329 29.7359 92.5329 29.7359H93.5449C94.0949 29.7359 94.7769 29.6479 95.1949 29.6479C96.0309 29.6479 97.4609 29.5819 98.2749 29.2299C99.1109 28.8779 99.8369 29.2299 99.8369 29.2299ZM103.511 28.5479C103.621 28.1519 103.379 27.2499 103.643 27.1399C103.797 27.0959 103.907 26.4579 104.083 26.4579C104.281 26.4359 104.875 26.5459 105.073 26.5679C105.271 26.5899 105.755 27.3159 105.909 27.5359C106.349 28.0859 106.239 28.9219 106.173 29.5379C106.173 29.9119 106.239 30.7919 106.239 31.8699C106.239 32.4859 106.195 33.1459 106.129 33.8059C105.997 34.7959 106.547 36.8639 106.063 37.7879C105.799 38.2719 106.305 39.3499 106.305 39.8119C106.305 40.4059 106.283 41.0219 106.217 41.7039C106.129 42.6719 105.865 43.3979 105.513 43.8819C105.315 44.2119 105.051 44.4319 104.809 44.6079C104.479 44.8279 104.149 44.9159 103.885 44.9159C103.401 44.9159 103.555 44.3439 103.665 43.3979C103.731 42.8259 103.379 42.3199 103.797 41.6599C104.083 41.2199 103.863 40.4059 103.885 39.9439C103.929 39.1739 103.863 37.9859 103.885 37.3039C103.907 36.4459 103.973 34.4879 103.819 34.0699C103.467 33.1019 103.951 31.9139 103.819 30.5059C103.687 29.1199 103.269 29.4059 103.511 28.5479Z" fill="white"/>
<path d="M22.7559 60.7333C23.4297 60.3348 24.1035 59.8368 24.8066 59.2216H26.0371V67.7059H24.8066V60.745H24.7598C24.1035 61.2665 23.418 61.7294 22.7559 62.0692V60.7333ZM28.0879 60.37V59.2216H33.8184V60.3466C32.0488 62.5673 31.0469 64.9052 30.8184 67.7059H29.6113C29.8164 64.9579 30.7129 62.6024 32.2949 60.4169V60.37H28.0879ZM35.0605 66.5575C38.0312 64.6063 39.373 63.1005 39.373 61.7411C39.373 60.7802 38.7344 60.2118 37.8027 60.2177C37.0762 60.2118 36.5371 60.5516 36.2441 61.5536L35.0371 61.2255C35.4766 59.7196 36.5078 59.0575 37.8027 59.0575C39.4434 59.0575 40.627 60.1298 40.627 61.7177C40.627 63.3055 39.3379 64.8524 37.0527 66.5106V66.5575H40.7559V67.7059H35.0605V66.5575ZM45.1621 67.87C43.3809 67.87 42.0508 66.7977 42.0449 65.3622C42.0508 64.3895 42.6836 63.5751 43.8145 63.2177V63.1825C42.9766 62.8719 42.5078 62.2333 42.5137 61.3778C42.5078 60.0419 43.6328 59.0575 45.1621 59.0575C46.6914 59.0575 47.8164 60.0419 47.8223 61.3778C47.8164 62.2333 47.3477 62.8719 46.5098 63.1825V63.2177C47.6523 63.5751 48.2734 64.3837 48.2793 65.3622C48.2734 66.7977 46.9434 67.87 45.1621 67.87ZM45.1621 66.7684C46.2461 66.7626 47.0078 66.1473 47.002 65.2684C47.0078 64.3895 46.2461 63.7743 45.1621 63.7684C44.0781 63.7743 43.3164 64.3895 43.3223 65.2684C43.3164 66.1473 44.0781 66.7626 45.1621 66.7684ZM45.1621 62.7372C45.9824 62.743 46.5625 62.204 46.5684 61.4481C46.5625 60.6981 45.9824 60.1649 45.1621 60.1591C44.3418 60.1649 43.7617 60.6981 43.7676 61.4481C43.7617 62.204 44.3418 62.743 45.1621 62.7372ZM57.9941 58.2137V65.9598H56.8574V62.3973H53.9863V61.5067H56.8574V60.4052H53.9863V59.5145H56.8574V58.2137H57.9941ZM58.252 67.5653V68.4794H51.1504V65.2802H52.2754V67.5653H58.252ZM50.9512 58.9403V63.5341C52.3809 63.5223 53.6758 63.4403 55.1816 63.1708L55.2988 64.0966C53.6348 64.3954 52.1816 64.4657 50.6465 64.4598H49.8496V58.9403H50.9512ZM67.2168 64.5419C66.0449 64.5419 65.623 63.6102 64.8965 63.6044C64.5918 63.6102 64.3164 63.786 63.7363 64.4364L62.834 63.6278C63.6133 62.7782 64.1113 62.3856 64.8496 62.3856C66.0156 62.3856 66.4375 63.3173 67.1582 63.3231C67.4629 63.3173 67.7441 63.1415 68.3301 62.4794L69.2324 63.2997C68.4473 64.1493 67.9492 64.5419 67.2168 64.5419ZM73.5215 60.7333C74.1953 60.3348 74.8691 59.8368 75.5723 59.2216H76.8027V67.7059H75.5723V60.745H75.5254C74.8691 61.2665 74.1836 61.7294 73.5215 62.0692V60.7333ZM81.4785 67.87C80.4238 67.87 79.5391 67.3895 78.8652 66.4637L79.8145 65.7489C80.3066 66.4169 80.8281 66.704 81.4668 66.6981C82.6855 66.704 83.6406 65.6552 83.7168 63.5809H83.6699C83.1836 64.3075 82.3809 64.7587 81.4434 64.7528C79.9258 64.7587 78.7539 63.5692 78.748 61.9286C78.7539 60.2469 80.0137 59.0575 81.7598 59.0575C83.7988 59.0575 84.9766 60.7098 84.9824 63.2762C84.9766 66.1884 83.4883 67.87 81.4785 67.87ZM81.7598 63.663C82.7793 63.6571 83.5059 62.9423 83.5059 61.9286C83.5059 60.9091 82.7793 60.1942 81.7598 60.1942C80.7344 60.1942 80.0078 60.9091 80.002 61.9286C80.0078 62.9423 80.7344 63.6571 81.7598 63.663ZM86.2363 60.7333C86.9102 60.3348 87.584 59.8368 88.2871 59.2216H89.5176V67.7059H88.2871V60.745H88.2402C87.584 61.2665 86.8984 61.7294 86.2363 62.0692V60.7333ZM94.7207 67.87C92.7168 67.87 91.4688 66.1708 91.4629 63.4637C91.4688 60.7567 92.7168 59.0575 94.7207 59.0575C96.7188 59.0575 97.9668 60.7567 97.9668 63.4637C97.9668 66.1708 96.7188 67.87 94.7207 67.87ZM94.7207 66.6981C95.9453 66.6923 96.7129 65.4501 96.7129 63.4637C96.7129 61.4774 95.9453 60.2352 94.7207 60.2294C93.4902 60.2352 92.7227 61.4774 92.7168 63.4637C92.7227 65.4501 93.4902 66.6923 94.7207 66.6981ZM107.693 58.2137V65.9598H106.557V62.3973H103.686V61.5067H106.557V60.4052H103.686V59.5145H106.557V58.2137H107.693ZM107.951 67.5653V68.4794H100.85V65.2802H101.975V67.5653H107.951ZM100.65 58.9403V63.5341C102.08 63.5223 103.375 63.4403 104.881 63.1708L104.998 64.0966C103.334 64.3954 101.881 64.4657 100.346 64.4598H99.5488V58.9403H100.65Z" fill="#A7A7A7"/>
</svg>
