<svg width="93" height="92" viewBox="0 0 93 92" fill="none" xmlns="http://www.w3.org/2000/svg">
<path d="M7.2793 30.7514C14.2984 28.5048 20.3236 26.8884 40.8002 22.3426L41.8871 20.5121L46.5206 28.7493L51.2684 21.0841L51.4823 20.8243L52.3699 22.996C65.7911 24.5607 73.1546 25.7989 85.9574 28.7493C86.2161 28.7859 86.3423 28.8176 86.3017 29.0305C85.9146 36.254 85.1588 38.3197 83.2312 39.8842C65.2115 40.0605 60.3837 37.8021 55.3581 32.5764L60.9184 71.6006C48.327 74.5189 41.7589 74.4864 30.8908 71.6006C32.5642 64.5382 32.9178 60.5304 33.0764 53.3453L28.4034 65.8728L25.8184 64.1826C30.2491 55.1596 32.254 49.8706 35.3253 40.2897C35.0989 40.2639 34.97 40.1566 34.8281 39.9905C34.7038 39.3078 34.7287 38.9417 35.1384 38.346C35.3701 38.2516 35.5616 38.1979 35.7579 38.1869L36.7518 30.4959C33.5036 36.5352 29.983 38.0488 23.2185 39.9267C18.838 41.589 9.287 41.3671 8.8676 39.3721L7.2793 30.7514Z" fill="url(#paint0_linear_228_1385)"/>
<g filter="url(#filter0_d_228_1385)">
<path d="M86.2666 28.885L84.3391 28.41L83.3892 39.9196C85.2538 38.7185 86.0409 36.9621 86.2666 28.885Z" fill="white"/>
<path d="M10.9454 40.5135L8.57915 30.3723L7.0918 30.7779L8.91721 39.4994C9.36364 40.1949 9.88462 40.3503 10.9454 40.5135Z" fill="white"/>
<path d="M30.8549 73.4502L31.6175 71.8903C34.7224 72.6926 36.4809 73.1094 39.8332 73.4502C47.5814 73.8066 51.9383 73.6739 59.769 71.9024L61.0468 73.2488L50.7576 75.2528C45.7156 75.7455 42.862 75.2036 39.8332 74.3515V75.2528L30.8549 73.4502Z" fill="white"/>
</g>
<path d="M43.414 16.5601H49.6658L51.4802 20.8178L44.2224 32.8902L42.1477 31.1248L44.9937 26.0578L41.7725 20.5438V19.143L43.414 16.5601Z" fill="white"/>
<path d="M46.4524 23.2332L43.8313 16.7999H49.2388L46.4524 23.2332Z" fill="#1C1C1C" stroke="#1C1C1C" stroke-width="0.198043"/>
<path fill-rule="evenodd" clip-rule="evenodd" d="M16.4527 30.2408C16.3703 30.2763 16.2957 30.325 16.2381 30.3811C16.1806 30.4371 16.1425 30.4981 16.1285 30.5564C16.1144 30.6154 16.0837 30.6765 16.0382 30.7362C15.9928 30.7959 15.9333 30.853 15.8634 30.9042C15.7934 30.9555 15.7143 30.9998 15.6306 31.0348C15.5468 31.0698 15.46 31.0947 15.3752 31.1082C15.2904 31.1216 15.2092 31.1232 15.1362 31.113C15.0633 31.1028 15 31.081 14.95 31.0487C14.9 31.0165 14.8643 30.9745 14.8448 30.9251C14.8254 30.8757 14.8227 30.8198 14.8368 30.7608C14.8884 30.5447 15.023 30.3194 15.2264 30.1086C15.4297 29.8978 15.6942 29.7095 15.9919 29.5635C16.2895 29.4176 16.6093 29.3194 16.9173 29.2794C17.2253 29.2393 17.5101 29.259 17.7416 29.3363C17.9731 29.4135 18.1426 29.5455 18.2323 29.7182C18.3219 29.8909 18.3283 30.0979 18.2508 30.3173C18.1734 30.5368 18.0149 30.7605 17.7921 30.9648C17.5694 31.1691 17.2906 31.3463 16.9855 31.4778L14.6577 32.4804C14.4894 32.5529 14.311 32.5834 14.162 32.565C14.013 32.5467 13.9054 32.4811 13.8631 32.3827C13.8207 32.2843 13.8469 32.1611 13.936 32.0402C14.0251 31.9193 14.1697 31.8107 14.3381 31.7382L16.6658 30.7356C16.778 30.6873 16.8745 30.6148 16.9339 30.5343C16.9932 30.4537 17.0107 30.3715 16.9825 30.3059C16.9542 30.2403 16.8825 30.1966 16.7832 30.1844C16.6838 30.1722 16.5649 30.1925 16.4527 30.2408ZM20.2647 29.7721C20.1823 29.8076 20.1078 29.8563 20.0502 29.9124C19.9926 29.9685 19.9545 30.0294 19.9406 30.0877C19.9121 30.207 19.8167 30.3321 19.6754 30.4355C19.5342 30.539 19.3586 30.6124 19.1873 30.6395C19.016 30.6666 18.863 30.6452 18.762 30.5801C18.6611 30.5149 18.6203 30.4114 18.6488 30.2921C18.7005 30.076 18.8351 29.8507 19.0384 29.6399C19.2418 29.4292 19.5063 29.2408 19.8039 29.0949C20.1016 28.9489 20.4213 28.8507 20.7294 28.8107C21.0374 28.7707 21.3222 28.7903 21.5537 28.8676C21.7851 28.9448 21.9547 29.0768 22.0443 29.2495C22.1339 29.4222 22.1404 29.6292 22.0629 29.8487C21.9854 30.0681 21.8269 30.2918 21.6041 30.4961C21.3814 30.7004 21.1027 30.8777 20.7975 31.0092L14.2375 33.8346C14.0691 33.9071 13.8908 33.9375 13.7418 33.9192C13.5928 33.9009 13.4852 33.8353 13.4428 33.7369C13.4004 33.6385 13.4267 33.5153 13.5157 33.3944C13.6048 33.2735 13.7495 33.1649 13.9178 33.0924L20.4778 30.2669C20.5901 30.2186 20.6865 30.1462 20.7459 30.0656C20.8053 29.985 20.8228 29.9029 20.7945 29.8373C20.7662 29.7716 20.6946 29.7279 20.5952 29.7157C20.4958 29.7035 20.377 29.7238 20.2647 29.7721ZM19.2919 33.2414C19.34 33.2692 19.4041 33.2834 19.4773 33.2827C19.5505 33.2819 19.6301 33.2662 19.7078 33.2373C19.7854 33.2083 19.8582 33.167 19.9184 33.118C19.9785 33.0689 20.0239 33.0138 20.0496 32.9585C20.0753 32.9032 20.0805 32.8497 20.0645 32.8037C20.0486 32.7578 20.0121 32.7211 19.9589 32.6974C19.9058 32.6738 19.8379 32.6642 19.7626 32.6695C19.6872 32.6749 19.6071 32.6951 19.5308 32.7279L16.7799 33.9128C16.6115 33.9853 16.4332 34.0157 16.2842 33.9974C16.1351 33.9791 16.0276 33.9135 15.9852 33.8151C15.9428 33.7167 15.969 33.5935 16.0581 33.4726C16.1472 33.3517 16.2918 33.2431 16.4602 33.1705L19.2112 31.9857C19.5164 31.8542 19.8367 31.7735 20.1382 31.7519C20.4397 31.7304 20.7112 31.7688 20.924 31.8633C21.1367 31.9577 21.2828 32.1046 21.3467 32.2884C21.4107 32.4722 21.3901 32.686 21.2873 32.9073C21.1844 33.1286 21.003 33.349 20.7623 33.5454C20.5216 33.7417 20.2306 33.9066 19.92 34.0226C19.6094 34.1386 19.2908 34.2015 18.998 34.2044C18.7051 34.2074 18.4489 34.1504 18.2563 34.0394C18.2019 34.0097 18.1615 33.9697 18.1375 33.9216C18.1135 33.8735 18.1065 33.8183 18.1167 33.7593C18.127 33.7003 18.1543 33.6386 18.1972 33.5778C18.24 33.5171 18.2975 33.4585 18.3664 33.4055C18.4352 33.3525 18.5139 33.3061 18.5979 33.2691C18.6819 33.232 18.7696 33.2051 18.8558 33.1898C18.9419 33.1745 19.0249 33.1712 19.0998 33.1801C19.1747 33.189 19.24 33.2098 19.2919 33.2414Z" fill="white"/>
<path fill-rule="evenodd" clip-rule="evenodd" d="M26.6285 32.5445C26.5461 32.5799 26.4715 32.6287 26.4139 32.6847C26.3563 32.7408 26.3182 32.8017 26.3043 32.8601C26.2902 32.9191 26.2595 32.9802 26.214 33.0399C26.1685 33.0995 26.1091 33.1566 26.0392 33.2079C25.9692 33.2591 25.8901 33.3035 25.8064 33.3385C25.7226 33.3735 25.6358 33.3984 25.551 33.4118C25.4662 33.4252 25.385 33.4269 25.312 33.4167C25.2391 33.4065 25.1758 33.3847 25.1258 33.3524C25.0758 33.3201 25.04 33.2781 25.0206 33.2287C25.0012 33.1793 24.9985 33.1235 25.0126 33.0645C25.0642 32.8484 25.1988 32.623 25.4022 32.4122C25.6055 32.2015 25.87 32.0132 26.1677 31.8672C26.4653 31.7212 26.7851 31.623 27.0931 31.583C27.4011 31.543 27.6859 31.5627 27.9174 31.6399C28.1489 31.7171 28.3184 31.8491 28.408 32.0218C28.4977 32.1945 28.5041 32.4015 28.4266 32.621C28.3491 32.8404 28.1906 33.0641 27.9679 33.2684C27.7451 33.4727 27.4664 33.65 27.1613 33.7815L24.8335 34.784C24.6651 34.8566 24.4868 34.887 24.3378 34.8687C24.1888 34.8504 24.0812 34.7848 24.0388 34.6864C23.9964 34.5879 24.0227 34.4647 24.1118 34.3439C24.2008 34.223 24.3455 34.1143 24.5138 34.0418L26.8416 33.0393C26.9538 32.9909 27.0502 32.9185 27.1096 32.8379C27.169 32.7573 27.1865 32.6752 27.1582 32.6096C27.13 32.544 27.0583 32.5002 26.9589 32.488C26.8596 32.4758 26.7407 32.4961 26.6285 32.5445ZM30.4405 32.0758C30.3581 32.1112 30.2835 32.16 30.226 32.2161C30.1684 32.2721 30.1303 32.3331 30.1163 32.3914C30.0878 32.5106 29.9925 32.6357 29.8512 32.7392C29.7099 32.8427 29.5343 32.916 29.363 32.9431C29.1918 32.9702 29.0388 32.9489 28.9378 32.8837C28.8368 32.8186 28.7961 32.715 28.8246 32.5958C28.8763 32.3797 29.0109 32.1543 29.2142 31.9436C29.4175 31.7328 29.682 31.5445 29.9797 31.3985C30.2774 31.2525 30.5971 31.1543 30.9051 31.1143C31.2131 31.0743 31.498 31.094 31.7294 31.1712C31.9609 31.2485 32.1304 31.3804 32.2201 31.5531C32.3097 31.7258 32.3161 31.9329 32.2387 32.1523C32.1612 32.3718 32.0027 32.5955 31.7799 32.7998C31.5572 33.004 31.2785 33.1813 30.9733 33.3128L24.4133 36.1382C24.2449 36.2107 24.0666 36.2412 23.9176 36.2229C23.7685 36.2046 23.661 36.139 23.6186 36.0405C23.5762 35.9421 23.6024 35.8189 23.6915 35.698C23.7806 35.5772 23.9252 35.4685 24.0936 35.396L30.6536 32.5706C30.7659 32.5222 30.8623 32.4498 30.9217 32.3692C30.9811 32.2887 30.9985 32.2065 30.9703 32.1409C30.942 32.0753 30.8703 32.0316 30.771 32.0194C30.6716 32.0071 30.5527 32.0274 30.4405 32.0758ZM29.4677 35.5451C29.5158 35.5728 29.5799 35.5871 29.6531 35.5863C29.7263 35.5856 29.8059 35.5699 29.8836 35.5409C29.9612 35.5119 30.034 35.4707 30.0941 35.4216C30.1543 35.3725 30.1997 35.3174 30.2254 35.2621C30.2511 35.2068 30.2563 35.1533 30.2403 35.1074C30.2244 35.0614 30.1879 35.0247 30.1347 35.0011C30.0816 34.9775 30.0137 34.9678 29.9383 34.9732C29.863 34.9785 29.7829 34.9987 29.7066 35.0316L26.9556 36.2164C26.7873 36.2889 26.609 36.3194 26.4599 36.3011C26.3109 36.2827 26.2034 36.2172 26.161 36.1187C26.1186 36.0203 26.1448 35.8971 26.2339 35.7762C26.323 35.6554 26.4676 35.5467 26.636 35.4742L29.3869 34.2893C29.6922 34.1579 30.0125 34.0771 30.314 34.0556C30.6155 34.034 30.887 34.0725 31.0997 34.1669C31.3125 34.2614 31.4586 34.4082 31.5225 34.592C31.5865 34.7758 31.5659 34.9897 31.463 35.2109C31.3602 35.4322 31.1788 35.6527 30.9381 35.849C30.6974 36.0454 30.4064 36.2103 30.0958 36.3263C29.7852 36.4423 29.4666 36.5051 29.1738 36.5081C28.8809 36.511 28.6246 36.454 28.4321 36.3431C28.3777 36.3134 28.3373 36.2733 28.3133 36.2252C28.2893 36.1771 28.2823 36.122 28.2925 36.0629C28.3027 36.0039 28.3301 35.9422 28.373 35.8815C28.4158 35.8207 28.4733 35.7622 28.5421 35.7091C28.6109 35.6561 28.6897 35.6097 28.7737 35.5727C28.8577 35.5357 28.9454 35.5087 29.0315 35.4935C29.1177 35.4782 29.2007 35.4749 29.2755 35.4838C29.3504 35.4926 29.4158 35.5135 29.4677 35.5451Z" fill="white"/>
<path fill-rule="evenodd" clip-rule="evenodd" d="M33.9341 25.0453C33.8517 25.0808 33.7772 25.1295 33.7196 25.1856C33.662 25.2416 33.6239 25.3026 33.61 25.3609C33.5959 25.4199 33.5652 25.481 33.5197 25.5407C33.4742 25.6004 33.4148 25.6575 33.3448 25.7087C33.2749 25.76 33.1958 25.8043 33.112 25.8393C33.0283 25.8743 32.9415 25.8992 32.8567 25.9127C32.7719 25.9261 32.6906 25.9277 32.6177 25.9175C32.5447 25.9074 32.4814 25.8855 32.4314 25.8533C32.3814 25.821 32.3457 25.779 32.3263 25.7296C32.3069 25.6802 32.3041 25.6243 32.3182 25.5653C32.3699 25.3492 32.5045 25.1239 32.7078 24.9131C32.9112 24.7023 33.1757 24.514 33.4733 24.368C33.771 24.2221 34.0907 24.1239 34.3988 24.0839C34.7068 24.0439 34.9916 24.0635 35.2231 24.1408C35.4545 24.218 35.6241 24.35 35.7137 24.5227C35.8034 24.6954 35.8098 24.9024 35.7323 25.1218C35.6548 25.3413 35.4963 25.565 35.2736 25.7693C35.0508 25.9736 34.7721 26.1508 34.4669 26.2823L32.1392 27.2849C31.9708 27.3574 31.7925 27.3879 31.6435 27.3695C31.4944 27.3512 31.3869 27.2856 31.3445 27.1872C31.3021 27.0888 31.3283 26.9656 31.4174 26.8447C31.5065 26.7238 31.6511 26.6152 31.8195 26.5427L34.1472 25.5401C34.2595 25.4918 34.3559 25.4193 34.4153 25.3388C34.4747 25.2582 34.4922 25.176 34.4639 25.1104C34.4357 25.0448 34.364 25.0011 34.2646 24.9889C34.1652 24.9767 34.0464 24.997 33.9341 25.0453ZM37.7462 24.5766C37.6638 24.6121 37.5892 24.6609 37.5316 24.7169C37.474 24.773 37.4359 24.8339 37.422 24.8922C37.3935 25.0115 37.2981 25.1366 37.1569 25.2401C37.0156 25.3435 36.84 25.4169 36.6687 25.444C36.4974 25.4711 36.3445 25.4497 36.2435 25.3846C36.1425 25.3194 36.1018 25.2159 36.1303 25.0966C36.1819 24.8805 36.3165 24.6552 36.5199 24.4444C36.7232 24.2337 36.9877 24.0453 37.2854 23.8994C37.583 23.7534 37.9028 23.6552 38.2108 23.6152C38.5188 23.5752 38.8036 23.5948 39.0351 23.6721C39.2666 23.7493 39.4361 23.8813 39.5258 24.054C39.6154 24.2267 39.6218 24.4337 39.5443 24.6532C39.4668 24.8726 39.3083 25.0963 39.0856 25.3006C38.8628 25.5049 38.5841 25.6822 38.279 25.8137L31.7189 28.6391C31.5506 28.7116 31.3723 28.742 31.2232 28.7237C31.0742 28.7054 30.9667 28.6398 30.9243 28.5414C30.8819 28.443 30.9081 28.3198 30.9972 28.1989C31.0863 28.078 31.2309 27.9694 31.3993 27.8969L37.9593 25.0714C38.0715 25.0231 38.168 24.9507 38.2273 24.8701C38.2867 24.7895 38.3042 24.7074 38.2759 24.6418C38.2477 24.5761 38.176 24.5324 38.0766 24.5202C37.9773 24.508 37.8584 24.5283 37.7462 24.5766ZM36.7734 28.0459C36.8215 28.0737 36.8855 28.0879 36.9587 28.0872C37.032 28.0864 37.1116 28.0708 37.1892 28.0418C37.2669 28.0128 37.3396 27.9715 37.3998 27.9225C37.46 27.8734 37.5053 27.8183 37.5311 27.763C37.5568 27.7077 37.562 27.6542 37.546 27.6083C37.53 27.5623 37.4935 27.5256 37.4404 27.5019C37.3872 27.4783 37.3194 27.4687 37.244 27.474C37.1687 27.4794 37.0886 27.4996 37.0123 27.5324L34.2613 28.7173C34.0929 28.7898 33.9146 28.8202 33.7656 28.8019C33.6166 28.7836 33.509 28.718 33.4666 28.6196C33.4242 28.5212 33.4505 28.398 33.5396 28.2771C33.6286 28.1562 33.7733 28.0476 33.9416 27.9751L36.6926 26.7902C36.9978 26.6587 37.3181 26.578 37.6196 26.5564C37.9212 26.5349 38.1927 26.5733 38.4054 26.6678C38.6181 26.7622 38.7642 26.9091 38.8282 27.0929C38.8921 27.2767 38.8716 27.4905 38.7687 27.7118C38.6658 27.9331 38.4845 28.1535 38.2438 28.3499C38.0031 28.5462 37.712 28.7111 37.4015 28.8271C37.0909 28.9432 36.7723 29.006 36.4794 29.0089C36.1865 29.0119 35.9303 28.9549 35.7378 28.8439C35.6833 28.8142 35.6429 28.7742 35.619 28.7261C35.595 28.678 35.5879 28.6228 35.5982 28.5638C35.6084 28.5048 35.6358 28.4431 35.6786 28.3824C35.7215 28.3216 35.779 28.263 35.8478 28.21C35.9166 28.157 35.9953 28.1106 36.0793 28.0736C36.1634 28.0365 36.251 28.0096 36.3372 27.9943C36.4234 27.979 36.5063 27.9757 36.5812 27.9846C36.6561 27.9935 36.7214 28.0143 36.7734 28.0459Z" fill="white"/>
<path fill-rule="evenodd" clip-rule="evenodd" d="M44.4839 41.0509C44.4015 41.0864 44.327 41.1351 44.2694 41.1912C44.2118 41.2473 44.1737 41.3082 44.1598 41.3665C44.1457 41.4256 44.115 41.4867 44.0695 41.5463C44.024 41.606 43.9646 41.6631 43.8946 41.7143C43.8247 41.7656 43.7456 41.8099 43.6618 41.8449C43.5781 41.8799 43.4913 41.9049 43.4065 41.9183C43.3217 41.9317 43.2405 41.9334 43.1675 41.9232C43.0945 41.913 43.0312 41.8911 42.9812 41.8589C42.9312 41.8266 42.8955 41.7846 42.8761 41.7352C42.8567 41.6858 42.8539 41.63 42.868 41.5709C42.9197 41.3548 43.0543 41.1295 43.2576 40.9187C43.461 40.708 43.7255 40.5196 44.0231 40.3736C44.3208 40.2277 44.6405 40.1295 44.9486 40.0895C45.2566 40.0495 45.5414 40.0691 45.7729 40.1464C46.0043 40.2236 46.1739 40.3556 46.2635 40.5283C46.3532 40.701 46.3596 40.908 46.2821 41.1275C46.2046 41.3469 46.0461 41.5706 45.8234 41.7749C45.6006 41.9792 45.3219 42.1564 45.0167 42.2879L42.689 43.2905C42.5206 43.363 42.3423 43.3935 42.1933 43.3752C42.0442 43.3568 41.9367 43.2913 41.8943 43.1928C41.8519 43.0944 41.8781 42.9712 41.9672 42.8503C42.0563 42.7295 42.2009 42.6208 42.3693 42.5483L44.697 41.5457C44.8093 41.4974 44.9057 41.425 44.9651 41.3444C45.0245 41.2638 45.042 41.1817 45.0137 41.116C44.9855 41.0504 44.9138 41.0067 44.8144 40.9945C44.7151 40.9823 44.5962 41.0026 44.4839 41.0509ZM48.296 40.5823C48.2136 40.6177 48.139 40.6665 48.0814 40.7225C48.0238 40.7786 47.9858 40.8395 47.9718 40.8979C47.9433 41.0171 47.8479 41.1422 47.7067 41.2457C47.5654 41.3491 47.3898 41.4225 47.2185 41.4496C47.0472 41.4767 46.8943 41.4553 46.7933 41.3902C46.6923 41.3251 46.6516 41.2215 46.6801 41.1023C46.7317 40.8862 46.8663 40.6608 47.0697 40.45C47.273 40.2393 47.5375 40.051 47.8352 39.905C48.1328 39.759 48.4526 39.6608 48.7606 39.6208C49.0686 39.5808 49.3534 39.6005 49.5849 39.6777C49.8164 39.7549 49.9859 39.8869 50.0756 40.0596C50.1652 40.2323 50.1716 40.4393 50.0941 40.6588C50.0167 40.8782 49.8581 41.1019 49.6354 41.3062C49.4126 41.5105 49.1339 41.6878 48.8288 41.8193L42.2688 44.6447C42.1004 44.7172 41.9221 44.7477 41.773 44.7293C41.624 44.711 41.5165 44.6454 41.4741 44.547C41.4317 44.4486 41.4579 44.3254 41.547 44.2045C41.6361 44.0836 41.7807 43.975 41.9491 43.9025L48.5091 41.0771C48.6213 41.0287 48.7178 40.9563 48.7771 40.8757C48.8365 40.7951 48.854 40.713 48.8258 40.6474C48.7975 40.5818 48.7258 40.538 48.6264 40.5258C48.5271 40.5136 48.4082 40.5339 48.296 40.5823ZM47.3232 44.0515C47.3713 44.0793 47.4353 44.0935 47.5085 44.0928C47.5818 44.0921 47.6614 44.0764 47.739 44.0474C47.8167 44.0184 47.8894 43.9772 47.9496 43.9281C48.0098 43.879 48.0551 43.8239 48.0809 43.7686C48.1066 43.7133 48.1118 43.6598 48.0958 43.6139C48.0798 43.5679 48.0433 43.5312 47.9902 43.5076C47.937 43.4839 47.8692 43.4743 47.7938 43.4797C47.7185 43.485 47.6384 43.5052 47.5621 43.538L44.8111 44.7229C44.6427 44.7954 44.4644 44.8258 44.3154 44.8075C44.1664 44.7892 44.0588 44.7236 44.0164 44.6252C43.974 44.5268 44.0003 44.4036 44.0894 44.2827C44.1784 44.1618 44.3231 44.0532 44.4914 43.9807L47.2424 42.7958C47.5476 42.6644 47.8679 42.5836 48.1694 42.562C48.471 42.5405 48.7425 42.579 48.9552 42.6734C49.1679 42.7678 49.314 42.9147 49.378 43.0985C49.4419 43.2823 49.4214 43.4961 49.3185 43.7174C49.2156 43.9387 49.0343 44.1592 48.7936 44.3555C48.5529 44.5518 48.2618 44.7167 47.9513 44.8328C47.6407 44.9488 47.3221 45.0116 47.0292 45.0145C46.7364 45.0175 46.4801 44.9605 46.2876 44.8495C46.2331 44.8199 46.1927 44.7798 46.1688 44.7317C46.1448 44.6836 46.1377 44.6284 46.148 44.5694C46.1582 44.5104 46.1856 44.4487 46.2284 44.388C46.2713 44.3272 46.3288 44.2686 46.3976 44.2156C46.4664 44.1626 46.5451 44.1162 46.6292 44.0792C46.7132 44.0421 46.8008 44.0152 46.887 43.9999C46.9732 43.9847 47.0561 43.9814 47.131 43.9902C47.2059 43.9991 47.2712 44.0199 47.3232 44.0515Z" fill="white"/>
<path fill-rule="evenodd" clip-rule="evenodd" d="M37.3245 49.8406C37.237 49.8606 37.1548 49.895 37.0881 49.9397C37.0213 49.9844 36.9728 50.0374 36.9485 50.0923C36.9239 50.1478 36.8827 50.2023 36.8271 50.2527C36.7716 50.3032 36.7028 50.3486 36.6247 50.3863C36.5466 50.424 36.4608 50.4533 36.3721 50.4725C36.2834 50.4918 36.1935 50.5006 36.1077 50.4984C36.0218 50.4962 35.9417 50.4831 35.8718 50.4599C35.8019 50.4366 35.7436 50.4037 35.7003 50.3629C35.6569 50.3221 35.6294 50.2743 35.6192 50.2222C35.6091 50.1701 35.6165 50.1147 35.6411 50.0592C35.731 49.8561 35.9043 49.6588 36.1424 49.4884C36.3806 49.318 36.6748 49.1807 36.994 49.0911C37.3132 49.0014 37.6454 48.9628 37.9556 48.9793C38.2658 48.9957 38.5423 49.0667 38.756 49.1846C38.9696 49.3025 39.1124 49.463 39.1693 49.6491C39.2262 49.8352 39.195 50.0399 39.079 50.2417C38.963 50.4435 38.7666 50.6348 38.5105 50.7953C38.2545 50.9558 37.9482 51.0797 37.6243 51.1537L35.1534 51.7179C34.9747 51.7587 34.7938 51.7563 34.6506 51.7113C34.5073 51.6663 34.4135 51.5823 34.3896 51.4778C34.3657 51.3734 34.4139 51.257 34.5234 51.1542C34.6329 51.0515 34.7948 50.9709 34.9735 50.9301L37.4444 50.3658C37.5635 50.3386 37.6715 50.2849 37.7445 50.2164C37.8175 50.1479 37.8496 50.0703 37.8337 50.0007C37.8178 49.931 37.7552 49.875 37.6597 49.845C37.5642 49.815 37.4436 49.8134 37.3245 49.8406ZM41.1583 50.0704C41.0709 50.0904 40.9887 50.1248 40.9219 50.1695C40.8551 50.2142 40.8066 50.2672 40.7823 50.3221C40.7327 50.4341 40.6163 50.5399 40.4586 50.6161C40.3009 50.6922 40.1149 50.7326 39.9415 50.7282C39.7682 50.7238 39.6216 50.6751 39.5341 50.5927C39.4466 50.5104 39.4253 50.4011 39.4749 50.289C39.5649 50.0859 39.7381 49.8886 39.9763 49.7182C40.2144 49.5478 40.5087 49.4105 40.8279 49.3209C41.147 49.2312 41.4793 49.1926 41.7895 49.2091C42.0996 49.2255 42.3762 49.2965 42.5898 49.4144C42.8035 49.5323 42.9463 49.6928 43.0031 49.8789C43.06 50.065 43.0288 50.2697 42.9129 50.4715C42.7969 50.6733 42.6005 50.8646 42.3444 51.0251C42.0883 51.1856 41.7821 51.3095 41.4582 51.3835L34.4948 52.9735C34.3161 53.0143 34.1352 53.012 33.9919 52.967C33.8487 52.9219 33.7548 52.838 33.731 52.7335C33.7071 52.629 33.7552 52.5126 33.8647 52.4099C33.9742 52.3071 34.1362 52.2265 34.3149 52.1857L41.2783 50.5957C41.3974 50.5684 41.5054 50.5147 41.5784 50.4462C41.6514 50.3777 41.6834 50.3001 41.6675 50.2305C41.6516 50.1608 41.589 50.1048 41.4936 50.0748C41.3981 50.0448 41.2775 50.0432 41.1583 50.0704ZM39.573 53.306C39.6153 53.342 39.6757 53.3676 39.7479 53.3802C39.82 53.3927 39.9011 53.3917 39.9827 53.3773C40.0644 53.3628 40.1434 53.3355 40.2114 53.2981C40.2795 53.2608 40.3341 53.2148 40.3694 53.165C40.4048 53.1153 40.4195 53.0637 40.4122 53.0156C40.4048 52.9675 40.3755 52.9248 40.3276 52.8919C40.2796 52.859 40.2146 52.8373 40.1395 52.8289C40.0644 52.8205 39.982 52.8258 39.901 52.8443L36.9809 53.5111C36.8022 53.5519 36.6213 53.5495 36.4781 53.5045C36.3348 53.4595 36.2409 53.3755 36.2171 53.271C36.1932 53.1666 36.2413 53.0501 36.3508 52.9474C36.4604 52.8447 36.6223 52.764 36.801 52.7232L39.7211 52.0564C40.0451 51.9825 40.3747 51.9611 40.6752 51.9945C40.9756 52.0279 41.2356 52.115 41.4277 52.2464C41.6199 52.3778 41.7369 52.5487 41.7665 52.7411C41.7961 52.9334 41.7371 53.14 41.5959 53.3389C41.4546 53.5379 41.2363 53.7219 40.964 53.8714C40.6917 54.0208 40.3756 54.1303 40.0492 54.1881C39.7227 54.2459 39.398 54.25 39.1094 54.1998C38.8209 54.1496 38.5792 54.0471 38.41 53.9032C38.3618 53.8641 38.3293 53.8174 38.3145 53.7657C38.2996 53.7141 38.3027 53.6586 38.3234 53.6024C38.3442 53.5462 38.3823 53.4905 38.4354 53.4385C38.4886 53.3865 38.5558 53.3393 38.633 53.2997C38.7103 53.26 38.7961 53.2286 38.8855 53.2074C38.9748 53.1863 39.0659 53.1756 39.1534 53.1762C39.2409 53.1768 39.3231 53.1886 39.3952 53.2109C39.4672 53.2332 39.5277 53.2655 39.573 53.306Z" fill="white"/>
<path fill-rule="evenodd" clip-rule="evenodd" d="M43.3191 58.843C43.2316 58.8629 43.1495 58.8974 43.0827 58.9421C43.0159 58.9868 42.9674 59.0398 42.9431 59.0946C42.9185 59.1501 42.8773 59.2047 42.8217 59.2551C42.7662 59.3056 42.6974 59.3509 42.6193 59.3887C42.5413 59.4264 42.4554 59.4557 42.3667 59.4749C42.278 59.4941 42.1882 59.5029 42.1023 59.5008C42.0165 59.4986 41.9363 59.4855 41.8664 59.4623C41.7965 59.439 41.7382 59.4061 41.6949 59.3653C41.6516 59.3245 41.624 59.2767 41.6139 59.2246C41.6037 59.1725 41.6111 59.1171 41.6357 59.0616C41.7257 58.8584 41.8989 58.6612 42.137 58.4908C42.3752 58.3204 42.6694 58.1831 42.9886 58.0934C43.3078 58.0038 43.6401 57.9652 43.9502 57.9817C44.2604 57.9981 44.5369 58.0691 44.7506 58.187C44.9642 58.3049 45.1071 58.4654 45.1639 58.6515C45.2208 58.8375 45.1896 59.0423 45.0736 59.2441C44.9577 59.4459 44.7612 59.6371 44.5052 59.7977C44.2491 59.9582 43.9429 60.0821 43.6189 60.1561L41.148 60.7203C40.9693 60.7611 40.7884 60.7587 40.6452 60.7137C40.502 60.6687 40.4081 60.5847 40.3842 60.4802C40.3604 60.3758 40.4085 60.2593 40.518 60.1566C40.6275 60.0539 40.7894 59.9732 40.9682 59.9324L43.439 59.3682C43.5582 59.341 43.6661 59.2873 43.7391 59.2188C43.8121 59.1503 43.8442 59.0727 43.8283 59.003C43.8124 58.9334 43.7498 58.8774 43.6543 58.8474C43.5588 58.8174 43.4382 58.8158 43.3191 58.843ZM47.1529 59.0728C47.0655 59.0927 46.9833 59.1272 46.9165 59.1719C46.8498 59.2166 46.8012 59.2696 46.777 59.3244C46.7273 59.4365 46.6109 59.5423 46.4532 59.6185C46.2955 59.6946 46.1095 59.7349 45.9362 59.7306C45.7628 59.7262 45.6162 59.6775 45.5287 59.5951C45.4412 59.5127 45.42 59.4035 45.4696 59.2914C45.5595 59.0882 45.7327 58.891 45.9709 58.7206C46.2091 58.5502 46.5033 58.4129 46.8225 58.3232C47.1417 58.2336 47.4739 58.195 47.7841 58.2115C48.0943 58.2279 48.3708 58.2989 48.5845 58.4168C48.7981 58.5347 48.9409 58.6952 48.9978 58.8813C49.0546 59.0673 49.0234 59.2721 48.9075 59.4739C48.7915 59.6757 48.5951 59.8669 48.339 60.0275C48.0829 60.188 47.7767 60.3119 47.4528 60.3859L40.4894 61.9759C40.3107 62.0167 40.1298 62.0144 39.9866 61.9693C39.8433 61.9243 39.7494 61.8403 39.7256 61.7359C39.7017 61.6314 39.7499 61.515 39.8594 61.4122C39.9689 61.3095 40.1308 61.2289 40.3095 61.1881L47.2729 59.598C47.392 59.5708 47.5 59.5171 47.573 59.4486C47.646 59.3801 47.6781 59.3025 47.6622 59.2328C47.6463 59.1632 47.5837 59.1072 47.4882 59.0772C47.3927 59.0472 47.2721 59.0456 47.1529 59.0728ZM45.5676 62.3084C45.6099 62.3444 45.6704 62.37 45.7425 62.3826C45.8146 62.3951 45.8958 62.3941 45.9774 62.3796C46.059 62.3652 46.138 62.3379 46.2061 62.3005C46.2741 62.2631 46.3287 62.2172 46.3641 62.1674C46.3994 62.1177 46.4142 62.066 46.4068 62.018C46.3994 61.9699 46.3702 61.9271 46.3222 61.8943C46.2742 61.8614 46.2092 61.8396 46.1341 61.8313C46.059 61.8229 45.9766 61.8282 45.8956 61.8467L42.9755 62.5135C42.7968 62.5543 42.6159 62.5519 42.4727 62.5069C42.3294 62.4619 42.2356 62.3779 42.2117 62.2734C42.1878 62.1689 42.236 62.0525 42.3455 61.9498C42.455 61.8471 42.6169 61.7664 42.7956 61.7256L45.7157 61.0588C46.0397 60.9848 46.3694 60.9634 46.6698 60.9969C46.9702 61.0303 47.2303 61.1173 47.4224 61.2488C47.6145 61.3802 47.7315 61.5511 47.7611 61.7434C47.7907 61.9358 47.7318 62.1424 47.5905 62.3413C47.4492 62.5403 47.2309 62.7243 46.9586 62.8737C46.6864 63.0232 46.3703 63.1327 46.0438 63.1905C45.7173 63.2483 45.3926 63.2523 45.1041 63.2022C44.8155 63.152 44.5738 63.0495 44.4046 62.9055C44.3564 62.8665 44.324 62.8198 44.3091 62.7681C44.2943 62.7165 44.2973 62.6609 44.3181 62.6048C44.3388 62.5486 44.3769 62.4929 44.4301 62.4409C44.4832 62.3889 44.5504 62.3417 44.6277 62.302C44.7049 62.2624 44.7908 62.231 44.8801 62.2098C44.9695 62.1886 45.0605 62.178 45.1481 62.1786C45.2356 62.1792 45.3177 62.191 45.3898 62.2133C45.4618 62.2356 45.5223 62.2679 45.5676 62.3084Z" fill="white"/>
<path fill-rule="evenodd" clip-rule="evenodd" d="M51.7048 50.1094C51.6174 50.1293 51.5352 50.1637 51.4684 50.2084C51.4016 50.2531 51.3531 50.3062 51.3289 50.361C51.3043 50.4165 51.263 50.471 51.2075 50.5215C51.1519 50.5719 51.0832 50.6173 51.0051 50.655C50.927 50.6927 50.8412 50.722 50.7525 50.7413C50.6637 50.7605 50.5739 50.7693 50.4881 50.7671C50.4022 50.765 50.322 50.7519 50.2521 50.7286C50.1822 50.7054 50.1239 50.6724 50.0806 50.6317C50.0373 50.5909 50.0098 50.5431 49.9996 50.491C49.9895 50.4388 49.9969 50.3835 50.0215 50.328C50.1114 50.1248 50.2846 49.9276 50.5228 49.7571C50.761 49.5867 51.0552 49.4494 51.3744 49.3598C51.6936 49.2702 52.0258 49.2315 52.336 49.248C52.6461 49.2645 52.9227 49.3354 53.1363 49.4533C53.35 49.5712 53.4928 49.7317 53.5497 49.9178C53.6065 50.1039 53.5753 50.3087 53.4594 50.5104C53.3434 50.7122 53.147 50.9035 52.8909 51.064C52.6348 51.2246 52.3286 51.3484 52.0047 51.4224L49.5338 51.9866C49.3551 52.0274 49.1742 52.0251 49.0309 51.9801C48.8877 51.935 48.7938 51.8511 48.77 51.7466C48.7461 51.6421 48.7942 51.5257 48.9037 51.423C49.0132 51.3202 49.1752 51.2396 49.3539 51.1988L51.8248 50.6346C51.9439 50.6074 52.0519 50.5536 52.1249 50.4851C52.1979 50.4166 52.23 50.339 52.214 50.2694C52.1981 50.1997 52.1356 50.1437 52.0401 50.1137C51.9446 50.0837 51.824 50.0821 51.7048 50.1094ZM55.5387 50.3392C55.4512 50.3591 55.3691 50.3935 55.3023 50.4382C55.2355 50.4829 55.187 50.536 55.1627 50.5908C55.1131 50.7029 54.9966 50.8086 54.8389 50.8848C54.6813 50.961 54.4953 51.0013 54.3219 50.9969C54.1485 50.9925 54.002 50.9438 53.9145 50.8615C53.827 50.7791 53.8057 50.6699 53.8553 50.5578C53.9453 50.3546 54.1185 50.1574 54.3566 49.9869C54.5948 49.8165 54.8891 49.6792 55.2082 49.5896C55.5274 49.5 55.8597 49.4613 56.1698 49.4778C56.48 49.4943 56.7565 49.5652 56.9702 49.6831C57.1838 49.801 57.3267 49.9615 57.3835 50.1476C57.4404 50.3337 57.4092 50.5385 57.2932 50.7402C57.1773 50.942 56.9808 51.1333 56.7248 51.2938C56.4687 51.4544 56.1625 51.5782 55.8385 51.6522L48.8752 53.2423C48.6964 53.2831 48.5156 53.2807 48.3723 53.2357C48.2291 53.1907 48.1352 53.1067 48.1113 53.0022C48.0875 52.8977 48.1356 52.7813 48.2451 52.6786C48.3546 52.5759 48.5165 52.4952 48.6953 52.4544L55.6586 50.8644C55.7778 50.8372 55.8857 50.7834 55.9587 50.7149C56.0317 50.6464 56.0638 50.5688 56.0479 50.4992C56.032 50.4295 55.9694 50.3736 55.8739 50.3435C55.7784 50.3135 55.6578 50.312 55.5387 50.3392ZM53.9534 53.5748C53.9957 53.6107 54.0561 53.6364 54.1282 53.6489C54.2003 53.6615 54.2815 53.6605 54.3631 53.646C54.4447 53.6316 54.5237 53.6042 54.5918 53.5668C54.6599 53.5295 54.7145 53.4835 54.7498 53.4338C54.7851 53.384 54.7999 53.3324 54.7925 53.2843C54.7852 53.2362 54.7559 53.1935 54.7079 53.1606C54.6599 53.1278 54.5949 53.106 54.5199 53.0976C54.4448 53.0892 54.3624 53.0946 54.2814 53.113L51.3613 53.7798C51.1825 53.8206 51.0017 53.8183 50.8584 53.7732C50.7152 53.7282 50.6213 53.6442 50.5974 53.5398C50.5736 53.4353 50.6217 53.3189 50.7312 53.2161C50.8407 53.1134 51.0026 53.0328 51.1814 52.992L54.1015 52.3252C54.4255 52.2512 54.7551 52.2298 55.0555 52.2632C55.356 52.2967 55.616 52.3837 55.8081 52.5151C56.0002 52.6465 56.1173 52.8175 56.1469 53.0098C56.1765 53.2021 56.1175 53.4087 55.9762 53.6077C55.835 53.8067 55.6167 53.9906 55.3444 54.1401C55.0721 54.2896 54.756 54.399 54.4295 54.4568C54.1031 54.5147 53.7784 54.5187 53.4898 54.4685C53.2013 54.4184 52.9596 54.3159 52.7904 54.1719C52.7422 54.1328 52.7097 54.0861 52.6949 54.0345C52.68 53.9828 52.683 53.9273 52.7038 53.8711C52.7246 53.8149 52.7626 53.7592 52.8158 53.7073C52.869 53.6553 52.9361 53.6081 53.0134 53.5684C53.0907 53.5287 53.1765 53.4974 53.2658 53.4762C53.3552 53.455 53.4463 53.4444 53.5338 53.445C53.6213 53.4456 53.7035 53.4573 53.7755 53.4796C53.8476 53.5019 53.908 53.5343 53.9534 53.5748Z" fill="white"/>
<path fill-rule="evenodd" clip-rule="evenodd" d="M68.1064 29.3233C68.019 29.3433 67.9368 29.3777 67.87 29.4224C67.8033 29.4671 67.7547 29.5201 67.7305 29.575C67.7059 29.6305 67.6647 29.685 67.6091 29.7355C67.5536 29.7859 67.4848 29.8313 67.4067 29.869C67.3286 29.9067 67.2428 29.936 67.1541 29.9553C67.0654 29.9745 66.9755 29.9833 66.8897 29.9811C66.8038 29.9789 66.7237 29.9659 66.6538 29.9426C66.5838 29.9194 66.5256 29.8864 66.4822 29.8456C66.4389 29.8049 66.4114 29.7571 66.4012 29.7049C66.3911 29.6528 66.3985 29.5974 66.4231 29.5419C66.513 29.3388 66.6862 29.1416 66.9244 28.9711C67.1626 28.8007 67.4568 28.6634 67.776 28.5738C68.0952 28.4842 68.4274 28.4455 68.7376 28.462C69.0478 28.4785 69.3243 28.5494 69.5379 28.6673C69.7516 28.7852 69.8944 28.9457 69.9513 29.1318C70.0081 29.3179 69.9769 29.5227 69.861 29.7244C69.745 29.9262 69.5486 30.1175 69.2925 30.278C69.0364 30.4386 68.7302 30.5624 68.4063 30.6364L65.9354 31.2006C65.7567 31.2414 65.5758 31.2391 65.4326 31.1941C65.2893 31.149 65.1954 31.0651 65.1716 30.9606C65.1477 30.8561 65.1958 30.7397 65.3053 30.637C65.4149 30.5342 65.5768 30.4536 65.7555 30.4128L68.2264 29.8486C68.3455 29.8214 68.4535 29.7676 68.5265 29.6991C68.5995 29.6306 68.6316 29.553 68.6157 29.4834C68.5998 29.4137 68.5372 29.3577 68.4417 29.3277C68.3462 29.2977 68.2256 29.2961 68.1064 29.3233ZM71.9403 29.5531C71.8528 29.5731 71.7707 29.6075 71.7039 29.6522C71.6371 29.6969 71.5886 29.7499 71.5643 29.8048C71.5147 29.9169 71.3982 30.0226 71.2406 30.0988C71.0829 30.175 70.8969 30.2153 70.7235 30.2109C70.5502 30.2065 70.4036 30.1578 70.3161 30.0754C70.2286 29.9931 70.2073 29.8838 70.2569 29.7717C70.3469 29.5686 70.5201 29.3714 70.7583 29.2009C70.9964 29.0305 71.2907 28.8932 71.6098 28.8036C71.929 28.714 72.2613 28.6753 72.5714 28.6918C72.8816 28.7083 73.1582 28.7792 73.3718 28.8971C73.5855 29.015 73.7283 29.1755 73.7851 29.3616C73.842 29.5477 73.8108 29.7525 73.6948 29.9542C73.5789 30.156 73.3825 30.3473 73.1264 30.5078C72.8703 30.6684 72.5641 30.7922 72.2401 30.8662L65.2768 32.4563C65.098 32.4971 64.9172 32.4947 64.7739 32.4497C64.6307 32.4047 64.5368 32.3207 64.5129 32.2162C64.4891 32.1117 64.5372 31.9953 64.6467 31.8926C64.7562 31.7899 64.9181 31.7092 65.0969 31.6684L72.0602 30.0784C72.1794 30.0512 72.2873 29.9974 72.3603 29.9289C72.4333 29.8604 72.4654 29.7828 72.4495 29.7132C72.4336 29.6435 72.371 29.5875 72.2755 29.5575C72.18 29.5275 72.0595 29.5259 71.9403 29.5531ZM70.355 32.7887C70.3973 32.8247 70.4577 32.8504 70.5298 32.8629C70.602 32.8754 70.6831 32.8744 70.7647 32.86C70.8463 32.8455 70.9254 32.8182 70.9934 32.7808C71.0615 32.7435 71.1161 32.6975 71.1514 32.6478C71.1867 32.598 71.2015 32.5464 71.1941 32.4983C71.1868 32.4502 71.1575 32.4075 71.1095 32.3746C71.0615 32.3418 70.9966 32.32 70.9215 32.3116C70.8464 32.3032 70.764 32.3085 70.683 32.327L67.7629 32.9938C67.5842 33.0346 67.4033 33.0322 67.26 32.9872C67.1168 32.9422 67.0229 32.8582 66.9991 32.7538C66.9752 32.6493 67.0233 32.5329 67.1328 32.4301C67.2423 32.3274 67.4043 32.2468 67.583 32.206L70.5031 31.5392C70.8271 31.4652 71.1567 31.4438 71.4572 31.4772C71.7576 31.5107 72.0176 31.5977 72.2097 31.7291C72.4018 31.8605 72.5189 32.0315 72.5485 32.2238C72.5781 32.4161 72.5191 32.6227 72.3779 32.8217C72.2366 33.0206 72.0183 33.2046 71.746 33.3541C71.4737 33.5036 71.1576 33.613 70.8311 33.6708C70.5047 33.7286 70.18 33.7327 69.8914 33.6825C69.6029 33.6324 69.3612 33.5299 69.192 33.3859C69.1438 33.3468 69.1113 33.3001 69.0965 33.2485C69.0816 33.1968 69.0846 33.1413 69.1054 33.0851C69.1262 33.0289 69.1643 32.9732 69.2174 32.9212C69.2706 32.8693 69.3377 32.8221 69.415 32.7824C69.4923 32.7427 69.5781 32.7114 69.6675 32.6902C69.7568 32.669 69.8479 32.6584 69.9354 32.659C70.0229 32.6596 70.1051 32.6713 70.1771 32.6936C70.2492 32.7159 70.3096 32.7482 70.355 32.7887Z" fill="white"/>
<path fill-rule="evenodd" clip-rule="evenodd" d="M53.7651 25.2521C53.6777 25.272 53.5955 25.3064 53.5287 25.3511C53.4619 25.3958 53.4134 25.4489 53.3892 25.5037C53.3646 25.5592 53.3233 25.6137 53.2678 25.6642C53.2122 25.7146 53.1435 25.76 53.0654 25.7977C52.9873 25.8354 52.9015 25.8647 52.8128 25.884C52.724 25.9032 52.6342 25.912 52.5484 25.9098C52.4625 25.9077 52.3823 25.8946 52.3124 25.8713C52.2425 25.8481 52.1843 25.8151 52.1409 25.7744C52.0976 25.7336 52.0701 25.6858 52.0599 25.6337C52.0498 25.5815 52.0572 25.5262 52.0818 25.4707C52.1717 25.2675 52.3449 25.0703 52.5831 24.8998C52.8213 24.7294 53.1155 24.5921 53.4347 24.5025C53.7539 24.4129 54.0861 24.3742 54.3963 24.3907C54.7064 24.4072 54.983 24.4781 55.1966 24.596C55.4103 24.7139 55.5531 24.8744 55.61 25.0605C55.6668 25.2466 55.6356 25.4514 55.5197 25.6531C55.4037 25.8549 55.2073 26.0462 54.9512 26.2067C54.6951 26.3673 54.3889 26.4911 54.065 26.5651L51.5941 27.1293C51.4154 27.1701 51.2345 27.1678 51.0912 27.1228C50.948 27.0777 50.8541 26.9938 50.8303 26.8893C50.8064 26.7848 50.8545 26.6684 50.964 26.5657C51.0735 26.4629 51.2355 26.3823 51.4142 26.3415L53.8851 25.7773C54.0042 25.7501 54.1122 25.6963 54.1852 25.6278C54.2582 25.5593 54.2903 25.4817 54.2744 25.4121C54.2584 25.3424 54.1959 25.2864 54.1004 25.2564C54.0049 25.2264 53.8843 25.2248 53.7651 25.2521ZM57.599 25.4819C57.5115 25.5018 57.4294 25.5362 57.3626 25.5809C57.2958 25.6256 57.2473 25.6787 57.223 25.7335C57.1734 25.8456 57.0569 25.9513 56.8993 26.0275C56.7416 26.1037 56.5556 26.144 56.3822 26.1396C56.2088 26.1352 56.0623 26.0865 55.9748 26.0042C55.8873 25.9218 55.866 25.8126 55.9156 25.7005C56.0056 25.4973 56.1788 25.3001 56.417 25.1296C56.6551 24.9592 56.9494 24.8219 57.2685 24.7323C57.5877 24.6427 57.92 24.604 58.2301 24.6205C58.5403 24.637 58.8168 24.7079 59.0305 24.8258C59.2441 24.9437 59.387 25.1042 59.4438 25.2903C59.5007 25.4764 59.4695 25.6812 59.3535 25.8829C59.2376 26.0847 59.0411 26.276 58.7851 26.4365C58.529 26.5971 58.2228 26.7209 57.8988 26.7949L50.9355 28.385C50.7567 28.4258 50.5759 28.4234 50.4326 28.3784C50.2894 28.3334 50.1955 28.2494 50.1716 28.1449C50.1478 28.0404 50.1959 27.924 50.3054 27.8213C50.4149 27.7186 50.5768 27.6379 50.7556 27.5971L57.7189 26.0071C57.8381 25.9799 57.946 25.9261 58.019 25.8576C58.092 25.7891 58.1241 25.7115 58.1082 25.6419C58.0923 25.5722 58.0297 25.5163 57.9342 25.4862C57.8387 25.4562 57.7181 25.4547 57.599 25.4819ZM56.0137 28.7175C56.056 28.7535 56.1164 28.7791 56.1885 28.7916C56.2607 28.8042 56.3418 28.8032 56.4234 28.7887C56.505 28.7743 56.584 28.7469 56.6521 28.7095C56.7202 28.6722 56.7748 28.6262 56.8101 28.5765C56.8454 28.5267 56.8602 28.4751 56.8528 28.427C56.8455 28.3789 56.8162 28.3362 56.7682 28.3033C56.7202 28.2705 56.6552 28.2487 56.5802 28.2403C56.5051 28.2319 56.4227 28.2373 56.3417 28.2557L53.4216 28.9225C53.2428 28.9633 53.062 28.961 52.9187 28.9159C52.7755 28.8709 52.6816 28.7869 52.6577 28.6825C52.6339 28.578 52.682 28.4616 52.7915 28.3589C52.901 28.2561 53.063 28.1755 53.2417 28.1347L56.1618 27.4679C56.4858 27.3939 56.8154 27.3725 57.1158 27.4059C57.4163 27.4394 57.6763 27.5264 57.8684 27.6578C58.0605 27.7892 58.1776 27.9602 58.2072 28.1525C58.2368 28.3448 58.1778 28.5514 58.0365 28.7504C57.8953 28.9494 57.677 29.1333 57.4047 29.2828C57.1324 29.4323 56.8163 29.5417 56.4898 29.5995C56.1634 29.6574 55.8387 29.6614 55.5501 29.6112C55.2616 29.5611 55.0199 29.4586 54.8507 29.3146C54.8025 29.2755 54.77 29.2288 54.7552 29.1772C54.7403 29.1255 54.7433 29.07 54.7641 29.0138C54.7849 28.9576 54.8229 28.9019 54.8761 28.85C54.9293 28.798 54.9964 28.7508 55.0737 28.7111C55.151 28.6714 55.2368 28.6401 55.3262 28.6189C55.4155 28.5977 55.5066 28.5871 55.5941 28.5877C55.6816 28.5883 55.7638 28.6 55.8358 28.6223C55.9079 28.6446 55.9683 28.677 56.0137 28.7175Z" fill="white"/>
<path fill-rule="evenodd" clip-rule="evenodd" d="M38.5835 67.1893C38.496 67.2093 38.4139 67.2437 38.3471 67.2884C38.2803 67.3331 38.2318 67.3861 38.2075 67.4409C38.1829 67.4965 38.1417 67.551 38.0862 67.6014C38.0306 67.6519 37.9618 67.6973 37.8838 67.735C37.8057 67.7727 37.7198 67.802 37.6311 67.8212C37.5424 67.8405 37.4526 67.8492 37.3667 67.8471C37.2809 67.8449 37.2007 67.8318 37.1308 67.8086C37.0609 67.7853 37.0026 67.7524 36.9593 67.7116C36.916 67.6708 36.8884 67.623 36.8783 67.5709C36.8681 67.5188 36.8755 67.4634 36.9001 67.4079C36.9901 67.2048 37.1633 67.0075 37.4015 66.8371C37.6396 66.6667 37.9339 66.5294 38.253 66.4398C38.5722 66.3501 38.9045 66.3115 39.2146 66.328C39.5248 66.3444 39.8013 66.4154 40.015 66.5333C40.2286 66.6512 40.3715 66.8117 40.4283 66.9978C40.4852 67.1839 40.454 67.3886 40.338 67.5904C40.2221 67.7922 40.0256 67.9835 39.7696 68.144C39.5135 68.3045 39.2073 68.4284 38.8833 68.5024L36.4125 69.0666C36.2337 69.1074 36.0529 69.105 35.9096 69.06C35.7664 69.015 35.6725 68.931 35.6486 68.8265C35.6248 68.7221 35.6729 68.6057 35.7824 68.5029C35.8919 68.4002 36.0538 68.3196 36.2326 68.2787L38.7034 67.7145C38.8226 67.6873 38.9305 67.6336 39.0035 67.5651C39.0765 67.4966 39.1086 67.419 39.0927 67.3493C39.0768 67.2797 39.0142 67.2237 38.9187 67.1937C38.8232 67.1637 38.7026 67.1621 38.5835 67.1893ZM42.4174 67.4191C42.3299 67.4391 42.2477 67.4735 42.181 67.5182C42.1142 67.5629 42.0657 67.6159 42.0414 67.6708C41.9918 67.7828 41.8753 67.8886 41.7176 67.9648C41.5599 68.0409 41.3739 68.0813 41.2006 68.0769C41.0272 68.0725 40.8806 68.0238 40.7931 67.9414C40.7056 67.859 40.6844 67.7498 40.734 67.6377C40.8239 67.4346 40.9972 67.2373 41.2353 67.0669C41.4735 66.8965 41.7677 66.7592 42.0869 66.6696C42.4061 66.5799 42.7383 66.5413 43.0485 66.5578C43.3587 66.5742 43.6352 66.6452 43.8489 66.7631C44.0625 66.881 44.2053 67.0415 44.2622 67.2276C44.319 67.4137 44.2878 67.6184 44.1719 67.8202C44.0559 68.022 43.8595 68.2133 43.6034 68.3738C43.3474 68.5343 43.0411 68.6582 42.7172 68.7322L35.7538 70.3222C35.5751 70.363 35.3942 70.3607 35.251 70.3156C35.1077 70.2706 35.0139 70.1866 34.99 70.0822C34.9661 69.9777 35.0143 69.8613 35.1238 69.7586C35.2333 69.6558 35.3952 69.5752 35.5739 69.5344L42.5373 67.9443C42.6564 67.9171 42.7644 67.8634 42.8374 67.7949C42.9104 67.7264 42.9425 67.6488 42.9266 67.5791C42.9107 67.5095 42.8481 67.4535 42.7526 67.4235C42.6571 67.3935 42.5365 67.3919 42.4174 67.4191ZM40.832 70.6547C40.8743 70.6907 40.9348 70.7163 41.0069 70.7289C41.079 70.7414 41.1602 70.7404 41.2418 70.726C41.3234 70.7115 41.4024 70.6842 41.4705 70.6468C41.5385 70.6094 41.5931 70.5635 41.6285 70.5137C41.6638 70.464 41.6786 70.4124 41.6712 70.3643C41.6638 70.3162 41.6346 70.2735 41.5866 70.2406C41.5386 70.2077 41.4736 70.1859 41.3985 70.1776C41.3234 70.1692 41.241 70.1745 41.1601 70.193L38.2399 70.8598C38.0612 70.9006 37.8803 70.8982 37.7371 70.8532C37.5938 70.8082 37.5 70.7242 37.4761 70.6197C37.4523 70.5152 37.5004 70.3988 37.6099 70.2961C37.7194 70.1934 37.8813 70.1127 38.06 70.0719L40.9802 69.4051C41.3041 69.3312 41.6338 69.3098 41.9342 69.3432C42.2346 69.3766 42.4947 69.4637 42.6868 69.5951C42.8789 69.7265 42.9959 69.8974 43.0255 70.0898C43.0551 70.2821 42.9962 70.4887 42.8549 70.6876C42.7136 70.8866 42.4953 71.0706 42.223 71.2201C41.9508 71.3695 41.6347 71.479 41.3082 71.5368C40.9817 71.5946 40.657 71.5987 40.3685 71.5485C40.0799 71.4983 39.8382 71.3958 39.669 71.2519C39.6208 71.2128 39.5884 71.1661 39.5735 71.1144C39.5587 71.0628 39.5617 71.0073 39.5825 70.9511C39.6032 70.8949 39.6413 70.8392 39.6945 70.7872C39.7476 70.7352 39.8148 70.688 39.8921 70.6484C39.9693 70.6087 40.0552 70.5773 40.1445 70.5561C40.2339 70.5349 40.3249 70.5243 40.4125 70.5249C40.5 70.5255 40.5821 70.5373 40.6542 70.5596C40.7262 70.5819 40.7867 70.6142 40.832 70.6547Z" fill="white"/>
<path fill-rule="evenodd" clip-rule="evenodd" d="M52.7529 63.3547C52.6655 63.3747 52.5833 63.4091 52.5165 63.4538C52.4497 63.4985 52.4012 63.5515 52.3769 63.6064C52.3524 63.6619 52.3111 63.7164 52.2556 63.7668C52.2 63.8173 52.1313 63.8627 52.0532 63.9004C51.9751 63.9381 51.8893 63.9674 51.8006 63.9866C51.7118 64.0059 51.622 64.0147 51.5362 64.0125C51.4503 64.0103 51.3701 63.9972 51.3002 63.974C51.2303 63.9507 51.172 63.9178 51.1287 63.877C51.0854 63.8362 51.0579 63.7884 51.0477 63.7363C51.0376 63.6842 51.045 63.6288 51.0696 63.5733C51.1595 63.3702 51.3327 63.1729 51.5709 63.0025C51.809 62.8321 52.1033 62.6948 52.4225 62.6052C52.7417 62.5155 53.0739 62.4769 53.3841 62.4934C53.6942 62.5098 53.9708 62.5808 54.1844 62.6987C54.3981 62.8166 54.5409 62.9771 54.5978 63.1632C54.6546 63.3493 54.6234 63.554 54.5075 63.7558C54.3915 63.9576 54.1951 64.1489 53.939 64.3094C53.6829 64.4699 53.3767 64.5938 53.0528 64.6678L50.5819 65.232C50.4032 65.2728 50.2223 65.2704 50.079 65.2254C49.9358 65.1804 49.8419 65.0964 49.8181 64.9919C49.7942 64.8875 49.8423 64.7711 49.9518 64.6683C50.0613 64.5656 50.2233 64.485 50.402 64.4442L52.8729 63.8799C52.992 63.8527 53.1 63.799 53.173 63.7305C53.246 63.662 53.278 63.5844 53.2621 63.5147C53.2462 63.4451 53.1837 63.3891 53.0882 63.3591C52.9927 63.3291 52.8721 63.3275 52.7529 63.3547ZM56.5868 63.5845C56.4993 63.6045 56.4172 63.6389 56.3504 63.6836C56.2836 63.7283 56.2351 63.7813 56.2108 63.8362C56.1612 63.9482 56.0447 64.054 55.887 64.1302C55.7294 64.2063 55.5434 64.2467 55.37 64.2423C55.1966 64.2379 55.0501 64.1892 54.9626 64.1068C54.8751 64.0245 54.8538 63.9152 54.9034 63.8031C54.9934 63.6 55.1666 63.4027 55.4047 63.2323C55.6429 63.0619 55.9371 62.9246 56.2563 62.835C56.5755 62.7453 56.9078 62.7067 57.2179 62.7232C57.5281 62.7396 57.8046 62.8106 58.0183 62.9285C58.2319 63.0464 58.3748 63.2069 58.4316 63.393C58.4885 63.5791 58.4573 63.7838 58.3413 63.9856C58.2254 64.1874 58.0289 64.3787 57.7729 64.5392C57.5168 64.6997 57.2106 64.8236 56.8866 64.8976L49.9233 66.4876C49.7445 66.5284 49.5637 66.5261 49.4204 66.4811C49.2772 66.436 49.1833 66.3521 49.1594 66.2476C49.1356 66.1431 49.1837 66.0267 49.2932 65.924C49.4027 65.8212 49.5646 65.7406 49.7434 65.6998L56.7067 64.1097C56.8259 64.0825 56.9338 64.0288 57.0068 63.9603C57.0798 63.8918 57.1119 63.8142 57.096 63.7446C57.0801 63.6749 57.0175 63.6189 56.922 63.5889C56.8265 63.5589 56.7059 63.5573 56.5868 63.5845ZM55.0015 66.8201C55.0438 66.8561 55.1042 66.8817 55.1763 66.8943C55.2484 66.9068 55.3296 66.9058 55.4112 66.8914C55.4928 66.8769 55.5718 66.8496 55.6399 66.8122C55.708 66.7748 55.7626 66.7289 55.7979 66.6791C55.8332 66.6294 55.848 66.5778 55.8406 66.5297C55.8332 66.4816 55.804 66.4389 55.756 66.406C55.708 66.3731 55.643 66.3514 55.568 66.343C55.4929 66.3346 55.4105 66.3399 55.3295 66.3584L52.4094 67.0252C52.2306 67.066 52.0498 67.0636 51.9065 67.0186C51.7633 66.9736 51.6694 66.8896 51.6455 66.7851C51.6217 66.6807 51.6698 66.5642 51.7793 66.4615C51.8888 66.3588 52.0507 66.2781 52.2295 66.2373L55.1496 65.5705C55.4736 65.4966 55.8032 65.4752 56.1036 65.5086C56.4041 65.542 56.6641 65.6291 56.8562 65.7605C57.0483 65.8919 57.1654 66.0628 57.195 66.2552C57.2246 66.4475 57.1656 66.6541 57.0243 66.853C56.8831 67.052 56.6647 67.236 56.3925 67.3855C56.1202 67.5349 55.8041 67.6444 55.4776 67.7022C55.1512 67.76 54.8265 67.7641 54.5379 67.7139C54.2494 67.6637 54.0077 67.5612 53.8384 67.4173C53.7903 67.3782 53.7578 67.3315 53.743 67.2798C53.7281 67.2282 53.7311 67.1727 53.7519 67.1165C53.7727 67.0603 53.8107 67.0046 53.8639 66.9526C53.9171 66.9006 53.9842 66.8534 54.0615 66.8138C54.1388 66.7741 54.2246 66.7427 54.3139 66.7215C54.4033 66.7004 54.4944 66.6897 54.5819 66.6903C54.6694 66.6909 54.7516 66.7027 54.8236 66.725C54.8957 66.7473 54.9561 66.7796 55.0015 66.8201Z" fill="white"/>
<path fill-rule="evenodd" clip-rule="evenodd" d="M48.6655 32.311C48.5781 32.3309 48.4959 32.3653 48.4291 32.41C48.3623 32.4547 48.3138 32.5078 48.2895 32.5626C48.265 32.6181 48.2237 32.6726 48.1682 32.7231C48.1126 32.7735 48.0439 32.8189 47.9658 32.8566C47.8877 32.8943 47.8019 32.9236 47.7132 32.9429C47.6244 32.9621 47.5346 32.9709 47.4487 32.9687C47.3629 32.9666 47.2827 32.9535 47.2128 32.9302C47.1429 32.907 47.0846 32.874 47.0413 32.8332C46.998 32.7925 46.9705 32.7447 46.9603 32.6926C46.9502 32.6404 46.9576 32.5851 46.9821 32.5296C47.0721 32.3264 47.2453 32.1292 47.4835 31.9587C47.7216 31.7883 48.0159 31.651 48.3351 31.5614C48.6543 31.4718 48.9865 31.4331 49.2967 31.4496C49.6068 31.4661 49.8834 31.537 50.097 31.6549C50.3107 31.7728 50.4535 31.9333 50.5104 32.1194C50.5672 32.3055 50.536 32.5103 50.4201 32.712C50.3041 32.9138 50.1077 33.1051 49.8516 33.2656C49.5955 33.4262 49.2893 33.55 48.9654 33.624L46.4945 34.1882C46.3158 34.229 46.1349 34.2267 45.9916 34.1817C45.8484 34.1366 45.7545 34.0527 45.7307 33.9482C45.7068 33.8437 45.7549 33.7273 45.8644 33.6246C45.9739 33.5218 46.1359 33.4412 46.3146 33.4004L48.7855 32.8362C48.9046 32.809 49.0126 32.7552 49.0856 32.6867C49.1586 32.6182 49.1906 32.5406 49.1747 32.471C49.1588 32.4013 49.0963 32.3453 49.0008 32.3153C48.9053 32.2853 48.7847 32.2837 48.6655 32.311ZM52.4994 32.5408C52.4119 32.5607 52.3298 32.5951 52.263 32.6398C52.1962 32.6845 52.1477 32.7376 52.1234 32.7924C52.0738 32.9045 51.9573 33.0102 51.7996 33.0864C51.642 33.1626 51.456 33.2029 51.2826 33.1985C51.1092 33.1941 50.9627 33.1454 50.8752 33.0631C50.7877 32.9807 50.7664 32.8714 50.816 32.7594C50.906 32.5562 51.0792 32.359 51.3173 32.1885C51.5555 32.0181 51.8497 31.8808 52.1689 31.7912C52.4881 31.7016 52.8204 31.6629 53.1305 31.6794C53.4407 31.6959 53.7172 31.7668 53.9309 31.8847C54.1445 32.0026 54.2873 32.1631 54.3442 32.3492C54.4011 32.5353 54.3699 32.7401 54.2539 32.9418C54.138 33.1436 53.9415 33.3349 53.6855 33.4954C53.4294 33.656 53.1232 33.7798 52.7992 33.8538L45.8359 35.4439C45.6571 35.4847 45.4762 35.4823 45.333 35.4373C45.1898 35.3923 45.0959 35.3083 45.072 35.2038C45.0482 35.0993 45.0963 34.9829 45.2058 34.8802C45.3153 34.7775 45.4772 34.6968 45.656 34.656L52.6193 33.066C52.7385 33.0388 52.8464 32.985 52.9194 32.9165C52.9924 32.848 53.0245 32.7704 53.0086 32.7008C52.9927 32.6311 52.9301 32.5751 52.8346 32.5451C52.7391 32.5151 52.6185 32.5135 52.4994 32.5408ZM50.9141 35.7764C50.9564 35.8123 51.0168 35.838 51.0889 35.8505C51.161 35.8631 51.2422 35.862 51.3238 35.8476C51.4054 35.8332 51.4844 35.8058 51.5525 35.7684C51.6206 35.7311 51.6752 35.6851 51.7105 35.6354C51.7458 35.5856 51.7606 35.534 51.7532 35.4859C51.7458 35.4378 51.7166 35.3951 51.6686 35.3622C51.6206 35.3294 51.5556 35.3076 51.4806 35.2992C51.4055 35.2908 51.3231 35.2962 51.2421 35.3146L48.322 35.9814C48.1432 36.0222 47.9624 36.0199 47.8191 35.9748C47.6759 35.9298 47.582 35.8458 47.5581 35.7414C47.5343 35.6369 47.5824 35.5205 47.6919 35.4177C47.8014 35.315 47.9633 35.2344 48.1421 35.1936L51.0622 34.5268C51.3862 34.4528 51.7158 34.4314 52.0162 34.4648C52.3167 34.4983 52.5767 34.5853 52.7688 34.7167C52.9609 34.8481 53.078 35.0191 53.1076 35.2114C53.1372 35.4037 53.0782 35.6103 52.9369 35.8093C52.7957 36.0083 52.5773 36.1922 52.3051 36.3417C52.0328 36.4912 51.7167 36.6006 51.3902 36.6584C51.0638 36.7163 50.7391 36.7203 50.4505 36.6701C50.162 36.62 49.9203 36.5175 49.751 36.3735C49.7029 36.3344 49.6704 36.2877 49.6555 36.2361C49.6407 36.1844 49.6437 36.1289 49.6645 36.0727C49.6853 36.0165 49.7233 35.9608 49.7765 35.9088C49.8297 35.8569 49.8968 35.8097 49.9741 35.77C50.0514 35.7303 50.1372 35.699 50.2265 35.6778C50.3159 35.6566 50.407 35.646 50.4945 35.6466C50.582 35.6472 50.6642 35.6589 50.7362 35.6812C50.8083 35.7035 50.8687 35.7359 50.9141 35.7764Z" fill="white"/>
<path fill-rule="evenodd" clip-rule="evenodd" d="M76.2649 34.4651C76.1774 34.485 76.0953 34.5194 76.0285 34.5641C75.9617 34.6088 75.9132 34.6619 75.8889 34.7167C75.8643 34.7722 75.8231 34.8267 75.7676 34.8772C75.712 34.9276 75.6432 34.973 75.5651 35.0107C75.4871 35.0484 75.4012 35.0777 75.3125 35.097C75.2238 35.1162 75.134 35.125 75.0481 35.1228C74.9623 35.1207 74.8821 35.1076 74.8122 35.0843C74.7423 35.0611 74.684 35.0281 74.6407 34.9874C74.5974 34.9466 74.5698 34.8988 74.5597 34.8467C74.5495 34.7946 74.5569 34.7392 74.5815 34.6837C74.6715 34.4805 74.8447 34.2833 75.0828 34.1129C75.321 33.9424 75.6152 33.8051 75.9344 33.7155C76.2536 33.6259 76.5859 33.5873 76.896 33.6037C77.2062 33.6202 77.4827 33.6911 77.6964 33.809C77.91 33.9269 78.0529 34.0874 78.1097 34.2735C78.1666 34.4596 78.1354 34.6644 78.0194 34.8662C77.9035 35.0679 77.707 35.2592 77.451 35.4198C77.1949 35.5803 76.8887 35.7041 76.5647 35.7781L74.0939 36.3423C73.9151 36.3832 73.7342 36.3808 73.591 36.3358C73.4478 36.2908 73.3539 36.2068 73.33 36.1023C73.3062 35.9978 73.3543 35.8814 73.4638 35.7787C73.5733 35.676 73.7352 35.5953 73.914 35.5545L76.3848 34.9903C76.504 34.9631 76.6119 34.9093 76.6849 34.8408C76.7579 34.7724 76.79 34.6948 76.7741 34.6251C76.7582 34.5555 76.6956 34.4995 76.6001 34.4694C76.5046 34.4394 76.384 34.4379 76.2649 34.4651ZM80.0988 34.6949C80.0113 34.7148 79.9291 34.7492 79.8623 34.7939C79.7956 34.8386 79.7471 34.8917 79.7228 34.9465C79.6731 35.0586 79.5567 35.1644 79.399 35.2405C79.2413 35.3167 79.0553 35.357 78.882 35.3526C78.7086 35.3483 78.562 35.2995 78.4745 35.2172C78.387 35.1348 78.3658 35.0256 78.4154 34.9135C78.5053 34.7103 78.6785 34.5131 78.9167 34.3427C79.1549 34.1722 79.4491 34.0349 79.7683 33.9453C80.0875 33.8557 80.4197 33.8171 80.7299 33.8335C81.0401 33.85 81.3166 33.9209 81.5303 34.0388C81.7439 34.1567 81.8867 34.3172 81.9436 34.5033C82.0004 34.6894 81.9692 34.8942 81.8533 35.096C81.7373 35.2977 81.5409 35.489 81.2848 35.6496C81.0288 35.8101 80.7225 35.9339 80.3986 36.0079L73.4352 37.598C73.2565 37.6388 73.0756 37.6364 72.9324 37.5914C72.7891 37.5464 72.6952 37.4624 72.6714 37.3579C72.6475 37.2535 72.6957 37.137 72.8052 37.0343C72.9147 36.9316 73.0766 36.8509 73.2553 36.8101L80.2187 35.2201C80.3378 35.1929 80.4458 35.1391 80.5188 35.0706C80.5918 35.0022 80.6239 34.9246 80.608 34.8549C80.5921 34.7853 80.5295 34.7293 80.434 34.6993C80.3385 34.6692 80.2179 34.6677 80.0988 34.6949ZM78.5134 37.9305C78.5557 37.9665 78.6162 37.9921 78.6883 38.0046C78.7604 38.0172 78.8416 38.0162 78.9232 38.0017C79.0048 37.9873 79.0838 37.9599 79.1519 37.9226C79.2199 37.8852 79.2745 37.8392 79.3099 37.7895C79.3452 37.7398 79.36 37.6881 79.3526 37.64C79.3452 37.5919 79.316 37.5492 79.268 37.5163C79.22 37.4835 79.155 37.4617 79.0799 37.4533C79.0048 37.4449 78.9224 37.4503 78.8414 37.4687L75.9213 38.1355C75.7426 38.1763 75.5617 38.174 75.4185 38.129C75.2752 38.0839 75.1814 38 75.1575 37.8955C75.1336 37.791 75.1818 37.6746 75.2913 37.5719C75.4008 37.4691 75.5627 37.3885 75.7414 37.3477L78.6616 36.6809C78.9855 36.6069 79.3152 36.5855 79.6156 36.6189C79.916 36.6524 80.1761 36.7394 80.3682 36.8708C80.5603 37.0023 80.6773 37.1732 80.7069 37.3655C80.7365 37.5578 80.6776 37.7644 80.5363 37.9634C80.395 38.1624 80.1767 38.3463 79.9044 38.4958C79.6322 38.6453 79.3161 38.7547 78.9896 38.8126C78.6631 38.8704 78.3384 38.8744 78.0499 38.8243C77.7613 38.7741 77.5196 38.6716 77.3504 38.5276C77.3022 38.4886 77.2698 38.4418 77.2549 38.3902C77.2401 38.3386 77.2431 38.283 77.2639 38.2268C77.2846 38.1706 77.3227 38.1149 77.3759 38.063C77.429 38.011 77.4962 37.9638 77.5735 37.9241C77.6507 37.8844 77.7366 37.8531 77.8259 37.8319C77.9153 37.8107 78.0063 37.8001 78.0939 37.8007C78.1814 37.8013 78.2635 37.8131 78.3356 37.8353C78.4076 37.8576 78.4681 37.89 78.5134 37.9305Z" fill="white"/>
<path d="M43.8872 17.4603L43.5405 16.582L49.5534 16.582L49.196 17.4603H43.8872Z" fill="white"/>
<path d="M35.7666 38.2181C36.3495 38.2182 36.821 38.6888 36.8213 39.2679C36.8213 39.8473 36.3497 40.3186 35.7666 40.3187C35.1834 40.3187 34.7109 39.8473 34.7109 39.2679C34.7112 38.6888 35.1836 38.2181 35.7666 38.2181Z" stroke="black" stroke-width="0.198043"/>
<path d="M36.8132 39.0388L39.6225 39.5566L38.535 41.8221L36.3989 40.0615" stroke="#1C1C1C" stroke-width="0.198043"/>
<path d="M35.4262 40.2727C32.3122 49.8739 30.0548 55.0139 25.918 64.1283L28.4688 65.9483C32.8895 54.2314 34.458 49.2127 36.5723 40.1821" stroke="#1C1C1C" stroke-width="0.198043"/>
<defs>
<filter id="filter0_d_228_1385" x="6.29962" y="28.41" width="80.7592" height="48.6143" filterUnits="userSpaceOnUse" color-interpolation-filters="sRGB">
<feFlood flood-opacity="0" result="BackgroundImageFix"/>
<feColorMatrix in="SourceAlpha" type="matrix" values="0 0 0 0 0 0 0 0 0 0 0 0 0 0 0 0 0 0 127 0" result="hardAlpha"/>
<feOffset dy="0.792173"/>
<feGaussianBlur stdDeviation="0.396087"/>
<feComposite in2="hardAlpha" operator="out"/>
<feColorMatrix type="matrix" values="0 0 0 0 0 0 0 0 0 0 0 0 0 0 0 0 0 0 0.25 0"/>
<feBlend mode="normal" in2="BackgroundImageFix" result="effect1_dropShadow_228_1385"/>
<feBlend mode="normal" in="SourceGraphic" in2="effect1_dropShadow_228_1385" result="shape"/>
</filter>
<linearGradient id="paint0_linear_228_1385" x1="46.7942" y1="20.5121" x2="46.7942" y2="73.7772" gradientUnits="userSpaceOnUse">
<stop stop-color="#D9D9D9"/>
<stop offset="1" stop-color="#737373"/>
</linearGradient>
</defs>
</svg>
