<svg width="93" height="92" viewBox="0 0 93 92" fill="none" xmlns="http://www.w3.org/2000/svg">
<path d="M24.5937 9.99994C24.3446 10.0071 24.2719 10.0883 24.2768 10.4158L24.4186 81.3042C24.4227 81.8995 24.6477 81.9907 25.1897 81.9999H66.079L66.7382 81.4758L68.6779 81.9999V10.1188L66.8007 10.7043L65.8197 10.1188L24.5937 9.99994Z" fill="url(#paint0_linear_228_1304)"/>
<path d="M38.0429 13.5912L27.9155 13.3103L28.5038 62.7858L37.6227 63.2071L38.0429 13.5912Z" fill="#1C1C1C" stroke="white" stroke-width="1.06382"/>
<path d="M37.014 14.5498L28.8855 14.3066L29.3718 61.8327L36.7294 62.2721L37.014 14.5498Z" fill="white" stroke="white" stroke-width="0.212765"/>
<path d="M66.9379 10.6553V15.5474M66.9379 15.5474H68.6995M66.9379 15.5474L66.6615 16.0136V28.4491M66.6615 28.4491L68.6742 28.5689M66.6615 28.4491L66.3979 44.335M66.3979 44.335L68.6868 44.2026M66.3979 44.335V57.8648M66.3979 57.8648L68.6615 57.7508M66.3979 57.8648V75.1011M66.3979 75.1011L68.6615 75.1644M66.3979 75.1011L66.7351 81.4379" stroke="#19FF43" stroke-width="0.212765"/>
<path d="M34.506 15.5652L35.1188 15.1498C35.2414 15.2542 35.3662 15.3722 35.4933 15.5039C35.6249 15.631 35.7475 15.7603 35.8609 15.892C35.9789 16.019 36.0697 16.1371 36.1333 16.246L35.4728 16.7022C35.4184 16.5932 35.3367 16.4729 35.2277 16.3413C35.1233 16.2051 35.0076 16.0712 34.8805 15.9396C34.7534 15.8034 34.6286 15.6786 34.506 15.5652ZM30.0465 16.8996H36.1877V17.669H30.0465V16.8996ZM29.9171 18.8196C30.1895 18.7788 30.5072 18.7288 30.8703 18.6698C31.2334 18.6108 31.617 18.545 32.0209 18.4724C32.4295 18.3997 32.8312 18.3294 33.226 18.2613L33.2805 18.9966C32.9174 19.0738 32.5475 19.1509 32.1707 19.2281C31.7985 19.3053 31.4354 19.3802 31.0814 19.4528C30.7319 19.5209 30.4096 19.5844 30.1146 19.6434L29.9171 18.8196ZM31.3333 15.7966H32.1571V20.3992C32.1571 20.6216 32.1299 20.7941 32.0754 20.9166C32.0255 21.0392 31.9324 21.1322 31.7963 21.1958C31.6601 21.2593 31.4899 21.3002 31.2856 21.3183C31.0814 21.341 30.8385 21.3524 30.5571 21.3524C30.548 21.2752 30.5276 21.1867 30.4958 21.0868C30.4641 20.987 30.4278 20.8871 30.3869 20.7872C30.3506 20.6874 30.312 20.6012 30.2712 20.5285C30.4618 20.5376 30.6456 20.5421 30.8227 20.5421C30.9997 20.5421 31.1177 20.5399 31.1767 20.5353C31.2357 20.5353 31.2766 20.5263 31.2992 20.5081C31.3219 20.4854 31.3333 20.4468 31.3333 20.3924V15.7966ZM32.729 15.0069L33.2873 15.7013C32.9923 15.7921 32.6723 15.8738 32.3273 15.9464C31.9824 16.0145 31.6306 16.0758 31.272 16.1303C30.918 16.1847 30.5753 16.2301 30.2439 16.2664C30.2303 16.1711 30.1985 16.0554 30.1486 15.9192C30.1032 15.783 30.0578 15.6695 30.0124 15.5788C30.3302 15.5379 30.6547 15.488 30.9861 15.429C31.3174 15.37 31.6329 15.3042 31.9324 15.2315C32.232 15.1589 32.4975 15.084 32.729 15.0069ZM33.4031 15.0137H34.2541C34.245 15.5629 34.2587 16.1053 34.295 16.6409C34.3358 17.1765 34.3948 17.6803 34.472 18.1524C34.5492 18.6199 34.6399 19.0352 34.7443 19.3983C34.8487 19.7569 34.9599 20.0383 35.078 20.2426C35.196 20.4468 35.3185 20.549 35.4456 20.549C35.5182 20.549 35.5727 20.4604 35.609 20.2834C35.6499 20.1064 35.6794 19.8159 35.6975 19.4119C35.7838 19.5027 35.8904 19.5935 36.0175 19.6843C36.1446 19.7705 36.2626 19.8363 36.3716 19.8817C36.3262 20.2812 36.2649 20.5875 36.1877 20.8009C36.1106 21.0187 36.0039 21.1685 35.8677 21.2502C35.7361 21.3365 35.5682 21.3796 35.3639 21.3796C35.1279 21.3796 34.9145 21.2933 34.7239 21.1209C34.5378 20.9529 34.3721 20.7169 34.2269 20.4128C34.0862 20.1087 33.9636 19.7546 33.8592 19.3507C33.7594 18.9422 33.6754 18.5019 33.6073 18.0298C33.5392 17.5532 33.4893 17.0585 33.4575 16.5456C33.4258 16.0327 33.4076 15.522 33.4031 15.0137ZM35.255 17.8936L35.9699 18.2068C35.7384 18.629 35.4638 19.0216 35.146 19.3847C34.8283 19.7478 34.4811 20.0769 34.1043 20.3719C33.7276 20.6624 33.3327 20.9166 32.9197 21.1345C32.8607 21.0346 32.779 20.9234 32.6746 20.8009C32.5747 20.6783 32.4726 20.5716 32.3682 20.4809C32.7585 20.2993 33.1353 20.0792 33.4984 19.8204C33.866 19.5617 34.1997 19.269 34.4992 18.9422C34.7988 18.6153 35.0507 18.2658 35.255 17.8936ZM30.0873 24.6681H36.1945V25.5056H30.0873V24.6681ZM32.2252 27.9158L32.9333 27.4187C33.074 27.5413 33.226 27.6775 33.3894 27.8273C33.5529 27.977 33.7049 28.1268 33.8456 28.2766C33.9909 28.4219 34.1066 28.558 34.1928 28.6851L33.4303 29.2502C33.3531 29.1277 33.2465 28.987 33.1103 28.8281C32.9741 28.6738 32.8266 28.5172 32.6678 28.3583C32.5134 28.1949 32.3659 28.0474 32.2252 27.9158ZM33.6754 25.0562C33.8116 25.5827 33.9999 26.0775 34.2405 26.5405C34.4856 26.9989 34.7852 27.4051 35.1392 27.7592C35.4933 28.1132 35.9063 28.3924 36.3784 28.5966C36.3103 28.6511 36.2354 28.7237 36.1537 28.8145C36.0765 28.9053 36.0039 28.9983 35.9358 29.0936C35.8677 29.1889 35.811 29.2775 35.7656 29.3592C35.2572 29.1004 34.8192 28.7714 34.4516 28.3719C34.0885 27.968 33.7775 27.5027 33.5188 26.9762C33.2646 26.4497 33.0536 25.8732 32.8856 25.2468L33.6754 25.0562ZM32.5588 22.966H33.4507C33.4507 23.3155 33.4416 23.6832 33.4235 24.069C33.4099 24.4503 33.3758 24.8406 33.3214 25.24C33.2669 25.6349 33.1784 26.0275 33.0558 26.4179C32.9333 26.8037 32.7631 27.1782 32.5452 27.5413C32.3319 27.8999 32.055 28.2335 31.7146 28.5421C31.3787 28.8508 30.9656 29.1231 30.4754 29.3592C30.4164 29.2457 30.3279 29.1231 30.2099 28.9915C30.0964 28.8644 29.9807 28.7555 29.8627 28.6647C30.3256 28.4559 30.716 28.2153 31.0337 27.943C31.3514 27.6661 31.6079 27.3688 31.8031 27.0511C31.9983 26.7288 32.148 26.3929 32.2524 26.0434C32.3568 25.6939 32.4295 25.3444 32.4703 24.9949C32.5112 24.6409 32.5339 24.2914 32.5384 23.9464C32.5475 23.6015 32.5543 23.2747 32.5588 22.966ZM31.4831 35.3439H32.2933V36.2698C32.2933 36.3697 32.3182 36.4332 32.3682 36.4604C32.4226 36.4831 32.5429 36.4945 32.729 36.4945C32.7744 36.4945 32.8448 36.4945 32.9401 36.4945C33.0354 36.4945 33.1398 36.4945 33.2533 36.4945C33.3713 36.4945 33.4802 36.4945 33.5801 36.4945C33.6845 36.4945 33.7662 36.4945 33.8252 36.4945C33.9296 36.4945 34.0068 36.4786 34.0567 36.4468C34.1111 36.4105 34.1497 36.3356 34.1724 36.2221C34.1951 36.1087 34.2133 35.9385 34.2269 35.7115C34.2814 35.7524 34.3517 35.7932 34.438 35.8341C34.5287 35.8704 34.6195 35.9044 34.7103 35.9362C34.8056 35.9634 34.8896 35.9861 34.9622 36.0043C34.9304 36.3265 34.8782 36.5739 34.8056 36.7464C34.733 36.9234 34.6241 37.046 34.4788 37.1141C34.3336 37.1821 34.1361 37.2162 33.8865 37.2162C33.8456 37.2162 33.7843 37.2162 33.7026 37.2162C33.6209 37.2162 33.5256 37.2162 33.4167 37.2162C33.3123 37.2162 33.2079 37.2162 33.1035 37.2162C33.0036 37.2162 32.9129 37.2162 32.8312 37.2162C32.7495 37.2162 32.6882 37.2162 32.6473 37.2162C32.3387 37.2162 32.1004 37.1867 31.9324 37.1277C31.7645 37.0732 31.6465 36.9779 31.5784 36.8417C31.5148 36.7055 31.4831 36.5172 31.4831 36.2766V35.3439ZM32.4703 35.2553L33.0286 34.806C33.133 34.8922 33.2419 34.9898 33.3554 35.0987C33.4734 35.2077 33.5869 35.3166 33.6958 35.4256C33.8048 35.53 33.8933 35.623 33.9614 35.7047L33.369 36.2085C33.31 36.1268 33.2283 36.0292 33.1239 35.9158C33.0195 35.8023 32.9083 35.6888 32.7903 35.5753C32.6768 35.4573 32.5702 35.3507 32.4703 35.2553ZM34.7648 35.446L35.4797 35.1124C35.575 35.2485 35.6771 35.4006 35.786 35.5685C35.895 35.7365 35.9994 35.8999 36.0992 36.0587C36.1991 36.2131 36.2808 36.3492 36.3443 36.4673L35.5818 36.8621C35.5273 36.7396 35.4524 36.5966 35.3571 36.4332C35.2663 36.2698 35.1665 36.1019 35.0575 35.9294C34.9531 35.7569 34.8555 35.5958 34.7648 35.446ZM30.5095 35.2009L31.238 35.4868C31.1926 35.6457 31.1404 35.8159 31.0814 35.9975C31.0224 36.179 30.9566 36.356 30.8839 36.5285C30.8158 36.6965 30.741 36.8463 30.6593 36.9779L29.9103 36.6102C29.9966 36.4877 30.076 36.347 30.1486 36.1881C30.2258 36.0292 30.2961 35.8658 30.3597 35.6979C30.4232 35.5254 30.4732 35.3597 30.5095 35.2009ZM30.0329 31.9328H32.8924V32.6273H30.0329V31.9328ZM31.1563 30.9728H31.9324V35.0647H31.1563V30.9728ZM31.1358 32.389L31.6873 32.566C31.5966 32.8429 31.4831 33.1152 31.3469 33.383C31.2107 33.6508 31.061 33.9005 30.8975 34.1319C30.7341 34.3634 30.5639 34.5586 30.3869 34.7175C30.3279 34.6312 30.2462 34.5314 30.1418 34.4179C30.0374 34.2999 29.9444 34.2091 29.8627 34.1456C30.0351 34.023 30.2008 33.8687 30.3597 33.6826C30.5231 33.4919 30.6706 33.2854 30.8022 33.063C30.9339 32.8361 31.0451 32.6114 31.1358 32.389ZM31.8848 32.852C31.9438 32.8837 32.0255 32.9359 32.1299 33.0085C32.2388 33.0766 32.3523 33.1538 32.4703 33.24C32.5929 33.3217 32.7018 33.3989 32.7971 33.4715C32.897 33.5396 32.9719 33.5918 33.0218 33.6281L32.586 34.2817C32.5225 34.2091 32.4408 34.1274 32.3409 34.0366C32.2456 33.9413 32.1435 33.8437 32.0346 33.7439C31.9302 33.644 31.8258 33.551 31.7214 33.4647C31.6215 33.3785 31.5375 33.3081 31.4695 33.2537L31.8848 32.852ZM33.9069 32.9405V33.3422H35.1665V32.9405H33.9069ZM33.9069 33.9413V34.3498H35.1665V33.9413H33.9069ZM33.9069 31.9464V32.3413H35.1665V31.9464H33.9069ZM33.1648 31.3064H35.9494V34.983H33.1648V31.3064ZM32.4635 41.5396V42.7243H33.6618V41.5396H32.4635ZM31.6941 40.8247H34.4856V43.4324H31.6941V40.8247ZM30.1895 39.1907H36.0379V45.3524H35.146V40.0281H31.0405V45.3524H30.1895V39.1907ZM30.6729 44.2221H35.6499V44.9847H30.6729V44.2221ZM32.6814 46.966H33.5256V47.9396H32.6814V46.966ZM30.2235 47.5039H36.0243V49.0358H35.1869V48.246H31.0269V49.0358H30.2235V47.5039ZM31.2652 48.6749H34.9418V49.3694H31.2652V48.6749ZM31.9256 49.8936L32.5588 49.526C32.8811 49.7484 33.1398 49.998 33.335 50.2749C33.5302 50.5473 33.6731 50.8264 33.7639 51.1124C33.8547 51.3938 33.8978 51.6661 33.8933 51.9294C33.8887 52.1881 33.8456 52.4196 33.7639 52.6238C33.6822 52.8236 33.5665 52.9779 33.4167 53.0868C33.2896 53.1958 33.1625 53.2707 33.0354 53.3115C32.9129 53.3524 32.7608 53.3728 32.5792 53.3728C32.4975 53.3773 32.4068 53.3773 32.3069 53.3728C32.207 53.3682 32.1049 53.3637 32.0005 53.3592C31.996 53.2457 31.9756 53.1141 31.9392 52.9643C31.9029 52.819 31.8462 52.6897 31.769 52.5762C31.8961 52.5853 32.0141 52.5943 32.1231 52.6034C32.2365 52.608 32.3364 52.6102 32.4226 52.6102C32.5089 52.6102 32.586 52.6012 32.6541 52.583C32.7222 52.5648 32.7835 52.5263 32.838 52.4673C32.9197 52.4037 32.9787 52.3061 33.015 52.1745C33.0558 52.0383 33.0695 51.8795 33.0558 51.6979C33.0468 51.5118 33.0014 51.3166 32.9197 51.1124C32.8425 50.9036 32.7222 50.6948 32.5588 50.486C32.4 50.2772 32.1889 50.0797 31.9256 49.8936ZM33.0082 48.852L33.6822 49.1379C33.4416 49.383 33.1512 49.6054 32.8107 49.8051C32.4703 50.0003 32.1072 50.1728 31.7214 50.3226C31.3401 50.4724 30.9611 50.5972 30.5844 50.697C30.5571 50.6426 30.5185 50.5768 30.4686 50.4996C30.4187 50.4179 30.3665 50.3362 30.312 50.2545C30.2576 50.1728 30.2076 50.107 30.1622 50.0571C30.5299 49.9844 30.893 49.8914 31.2516 49.7779C31.6147 49.6644 31.9483 49.5305 32.2524 49.3762C32.5565 49.2173 32.8085 49.0426 33.0082 48.852ZM32.4771 50.2068L33.0014 50.5745C32.8153 50.7197 32.5883 50.8695 32.3205 51.0239C32.0527 51.1782 31.7736 51.3212 31.4831 51.4528C31.1971 51.5844 30.9271 51.6956 30.6729 51.7864C30.6275 51.6956 30.5662 51.589 30.489 51.4664C30.4119 51.3439 30.337 51.244 30.2644 51.1668C30.4459 51.1214 30.6388 51.0647 30.8431 50.9966C31.0519 50.924 31.2561 50.8446 31.4558 50.7583C31.6601 50.6721 31.8507 50.5836 32.0278 50.4928C32.2048 50.3975 32.3546 50.3022 32.4771 50.2068ZM33.0286 50.8605L33.5869 51.2758C33.4053 51.4483 33.1897 51.6207 32.9401 51.7932C32.695 51.9657 32.4295 52.1314 32.1435 52.2902C31.8621 52.4446 31.5761 52.5875 31.2856 52.7192C30.9951 52.8508 30.716 52.962 30.4482 53.0528C30.3983 52.9484 30.3324 52.8326 30.2507 52.7055C30.1736 52.5739 30.0964 52.4627 30.0193 52.3719C30.2871 52.3084 30.5639 52.2221 30.8499 52.1132C31.1358 52.0043 31.415 51.8817 31.6873 51.7456C31.9597 51.6094 32.2116 51.4664 32.4431 51.3166C32.6746 51.1623 32.8697 51.0102 33.0286 50.8605ZM34.0567 48.9677C34.1702 49.4443 34.3245 49.8914 34.5197 50.309C34.7148 50.7266 34.9577 51.0942 35.2482 51.4119C35.5432 51.7297 35.8927 51.9793 36.2967 52.1609C36.2377 52.2153 36.1718 52.2834 36.0992 52.3651C36.0266 52.4468 35.9562 52.5331 35.8882 52.6238C35.8246 52.7146 35.7701 52.7963 35.7248 52.869C35.2981 52.6375 34.9327 52.3379 34.6286 51.9702C34.3245 51.598 34.0726 51.1714 33.8729 50.6902C33.6731 50.2046 33.5075 49.678 33.3758 49.1107L34.0567 48.9677ZM35.3911 49.4102L36.0243 49.9617C35.87 50.0797 35.7043 50.2 35.5273 50.3226C35.3503 50.4406 35.1755 50.5518 35.0031 50.6562C34.8306 50.7561 34.6694 50.8468 34.5197 50.9285L34.0022 50.4315C34.1429 50.3498 34.2972 50.2522 34.4652 50.1388C34.6377 50.0207 34.8056 49.8982 34.969 49.7711C35.1324 49.644 35.2731 49.5237 35.3911 49.4102ZM32.7154 57.2945H33.5869V60.406C33.5869 60.6375 33.5529 60.8145 33.4848 60.937C33.4167 61.0641 33.2987 61.1594 33.1307 61.223C32.9628 61.282 32.7563 61.3183 32.5112 61.3319C32.2661 61.3501 31.9801 61.3592 31.6533 61.3592C31.6261 61.2366 31.5784 61.0936 31.5103 60.9302C31.4468 60.7714 31.3832 60.6352 31.3197 60.5217C31.4785 60.5308 31.6397 60.5376 31.8031 60.5421C31.971 60.5467 32.1185 60.549 32.2456 60.549C32.3773 60.5444 32.468 60.5421 32.518 60.5421C32.5951 60.5421 32.6473 60.5331 32.6746 60.5149C32.7018 60.4922 32.7154 60.4491 32.7154 60.3855V57.2945ZM30.3937 55.4358H35.146V56.246H30.3937V55.4358ZM34.8397 55.4358H35.0643L35.255 55.3881L35.9018 55.8579C35.6975 56.1076 35.466 56.364 35.2073 56.6273C34.9486 56.8905 34.6763 57.1424 34.3903 57.383C34.1089 57.619 33.8297 57.8233 33.5529 57.9958C33.512 57.9368 33.4575 57.8732 33.3894 57.8051C33.3214 57.7325 33.251 57.6622 33.1784 57.5941C33.1103 57.5215 33.0468 57.4624 32.9877 57.4171C33.1648 57.3036 33.3441 57.172 33.5256 57.0222C33.7117 56.8724 33.8887 56.7158 34.0567 56.5524C34.2246 56.389 34.3767 56.2278 34.5128 56.069C34.649 55.9101 34.758 55.7671 34.8397 55.64V55.4358Z" fill="black"/>
<defs>
<linearGradient id="paint0_linear_228_1304" x1="46.4773" y1="9.99994" x2="46.4773" y2="81.9999" gradientUnits="userSpaceOnUse">
<stop stop-color="#08CEF6"/>
<stop offset="1" stop-color="#057990"/>
</linearGradient>
</defs>
</svg>
