<svg width="93" height="92" viewBox="0 0 93 92" fill="none" xmlns="http://www.w3.org/2000/svg">
<path d="M62.2264 33.4116C59.7158 37.3034 58.2702 39.4045 55.4563 42.6499C59.1016 51.7696 61.6247 52.2062 66.8103 46.3171C65.9638 42.1507 65.6272 39.427 65.1883 34.1168L62.2264 33.4116Z" fill="#CF8526"/>
<path d="M27.8822 34.1168C27.4811 40.6643 27.0512 43.4985 26.1191 46.5287C33.4521 53.2938 35.7431 51.9021 37.4026 42.5089C34.713 39.0329 33.2792 37.0603 30.9146 33.4821L27.8822 34.1168Z" fill="#CF8526"/>
<path d="M15.823 41.8743C18.519 48.835 19.7806 52.7576 19.8427 59.9279H73.0162C73.3035 52.0017 74.5283 48.293 76.8949 41.8038C75.6911 41.6637 75.2144 41.1991 74.4972 40.1113C59.8286 52.7347 58.6298 52.8757 48.8977 26.9237C46.6639 28.5681 45.6577 28.0359 43.8907 26.9237L43.7552 27.2752C34.5014 51.2806 33.4507 54.0064 18.3618 39.9702C17.7372 41.1896 17.1426 41.556 15.823 41.8743Z" fill="#F4B430"/>
<path d="M19.8428 63.8066V67.1212H73.0163V63.8066H19.8428Z" fill="#F5B230"/>
<path d="M73.1054 63.8066H19.7909C17.3924 63.8066 17.2513 59.9279 19.7909 59.9279H73.1054C75.4326 59.9279 75.5737 63.8066 73.1054 63.8066Z" fill="#F5BA40"/>
<path d="M73.1054 70.9999H19.7909C17.3924 70.9999 17.2513 67.1212 19.7909 67.1212H73.1054C75.4326 67.1212 75.5737 70.9999 73.1054 70.9999Z" fill="#F5BA40"/>
<g filter="url(#filter0_d_228_1325)">
<path d="M44.8072 47.657L42.9031 50.6895L44.8072 53.5809H48.0512L49.8142 50.619L48.1922 47.657H44.8072Z" fill="#C7E8DD"/>
<path d="M48.1924 47.657L49.8144 50.6189H53.4815L49.8849 44.6951L48.1924 47.657Z" fill="#7DD1B7"/>
<path d="M49.8143 50.619L48.0513 53.5809L50.0964 56.6134L53.4815 50.619H49.8143Z" fill="#2EC2A0"/>
<path d="M50.0963 56.6132H42.9031L44.8072 53.5807H48.0512L50.0963 56.6132Z" fill="#7DD1B7"/>
<path d="M44.8074 53.581L42.9033 50.6896H39.3772L42.9033 56.6134L44.8074 53.581Z" fill="#2EC2A0"/>
<path d="M42.9033 50.6895L44.8074 47.657L42.9738 44.6951L39.3772 50.6895H42.9033Z" fill="#7DD1B7"/>
<path d="M44.8074 47.657L42.9739 44.6951H49.885L48.1925 47.657H44.8074Z" fill="#F1F1F1"/>
</g>
<circle cx="28.8697" cy="31.5075" r="2.8914" fill="#CF8526"/>
<circle cx="64.2715" cy="31.3664" r="2.8914" fill="#CF8526"/>
<circle cx="15.3293" cy="38.5597" r="3.59662" fill="#F2B633"/>
<path d="M15.2586 35.3157C11.1683 36.0915 11.662 41.2396 15.2586 41.7332C13.284 40.3228 13.284 36.7262 15.2586 35.3157Z" fill="#FAD493"/>
<path d="M15.8936 42.0858C19.9134 41.31 19.9134 35.6683 15.8936 35.0336C17.545 36.5539 17.554 40.5658 15.8936 42.0858Z" fill="#CE8425"/>
<circle cx="46.4999" cy="24.5964" r="3.59662" fill="#F2B633"/>
<path d="M46.4292 21.3522C42.339 22.1279 42.8326 27.276 46.4292 27.7697C44.4546 26.3592 44.4546 22.7626 46.4292 21.3522Z" fill="#FAD493"/>
<path d="M47.0643 28.1224C51.0841 27.3467 51.084 21.7049 47.0643 21.0703C48.7157 22.5906 48.7247 26.6025 47.0643 28.1224Z" fill="#CE8425"/>
<circle cx="77.6706" cy="38.5597" r="3.59662" fill="#F2B633"/>
<path d="M77.6001 35.3157C73.5099 36.0915 74.0035 41.2396 77.6001 41.7332C75.6255 40.3228 75.6255 36.7262 77.6001 35.3157Z" fill="#FAD493"/>
<path d="M78.2349 42.0858C82.2547 41.31 82.2547 35.6683 78.2349 35.0336C79.8864 36.5539 79.8953 40.5658 78.2349 42.0858Z" fill="#CE8425"/>
<defs>
<filter id="filter0_d_228_1325" x="38.813" y="44.6951" width="15.2326" height="13.0467" filterUnits="userSpaceOnUse" color-interpolation-filters="sRGB">
<feFlood flood-opacity="0" result="BackgroundImageFix"/>
<feColorMatrix in="SourceAlpha" type="matrix" values="0 0 0 0 0 0 0 0 0 0 0 0 0 0 0 0 0 0 127 0" result="hardAlpha"/>
<feOffset dy="0.564175"/>
<feGaussianBlur stdDeviation="0.282087"/>
<feComposite in2="hardAlpha" operator="out"/>
<feColorMatrix type="matrix" values="0 0 0 0 0 0 0 0 0 0 0 0 0 0 0 0 0 0 0.25 0"/>
<feBlend mode="normal" in2="BackgroundImageFix" result="effect1_dropShadow_228_1325"/>
<feBlend mode="normal" in="SourceGraphic" in2="effect1_dropShadow_228_1325" result="shape"/>
</filter>
</defs>
</svg>
