<svg width="93" height="93" viewBox="0 0 93 93" fill="none" xmlns="http://www.w3.org/2000/svg">
<path d="M54.5268 47.3059L52.8906 48.3434C50.3391 44.6634 49.0186 42.5214 47.1543 38.3497C44.2591 30.9322 42.6823 26.5489 39.6217 19.9342C38.6305 18.8415 38.1387 18.6793 37.4045 19.4141C36.7675 20.4304 36.7234 23.6034 36.6801 29.5563C35.5085 32.5381 34.3893 40.8908 34.6417 41.9112C28.1964 35.9625 24.6617 30.3898 20.1594 16.6789C23.378 15.2637 25.9974 15.732 31.5749 17.9641C33.9862 18.0796 35.7687 17.6667 38.8452 17.0442C41.9432 18.2567 43.3013 22.9133 45.8189 30.2199C48.3468 37.013 50.1202 40.7731 54.5268 47.3059Z" fill="black" stroke="black" stroke-width="0.320694"/>
<path d="M36.6802 48.1524V29.5563C35.3701 34.4775 35.0362 37.2978 34.9003 42.4018C27.1967 35.4188 24.1525 29.5992 19.8988 16.9019C17.0381 20.0854 18.372 23.4921 22.8961 31.572C27.9212 39.5267 30.7994 43.7351 36.6802 48.1524Z" fill="#404041" stroke="#404041" stroke-width="0.320694"/>
<path d="M53.2898 52.4538L51.4807 49.687C53.0822 48.1724 54.0821 47.4767 56.1231 46.6408L57.9721 49.3944L53.2898 52.4538Z" fill="#A7A7A7" stroke="#A7A7A7" stroke-width="0.320694"/>
<path d="M69.4916 77.6826L62.5801 67.2567L53.2212 52.8425L58.2898 49.5297L67.7129 63.9527L74.4104 74.4204L69.4916 77.6826Z" fill="#FAB33C" stroke="#FAB33C" stroke-width="0.320694"/>
<path d="M68.0358 63.9242C65.5348 64.6829 64.3327 65.528 62.4026 67.508L52.8435 52.7697C54.7516 51.0482 55.9412 50.2256 58.4313 49.1872L68.0358 63.9242Z" fill="#FDC251"/>
<path d="M68.2794 64.3279C65.9347 65.1833 64.6938 65.9254 62.6611 67.9291L64.8552 71.2479C66.6876 69.2215 67.8716 68.3665 70.3988 67.6011L68.2794 64.3279Z" fill="#FDC251"/>
<path d="M74.7535 74.3277L70.6254 67.9291C68.1398 68.7562 66.9701 69.6669 65.1317 71.7849L69.1343 77.875C71.3246 77.0784 72.5498 76.3155 74.7535 74.3277Z" fill="#FDC251"/>
</svg>
