<svg width="354" height="93" viewBox="0 0 354 93" fill="none" xmlns="http://www.w3.org/2000/svg">
<rect x="1" y="1.7059" width="352" height="90" rx="13" fill="#1C1C1C"/>
<rect x="1" y="1.7059" width="352" height="90" rx="13" stroke="#FFF597" stroke-width="2"/>
<path d="M24.816 29.6259C24.728 29.4499 24.64 29.2079 24.838 28.9439C24.926 28.8559 25.146 28.8339 25.388 28.6359C25.52 28.5479 25.696 28.3719 26.202 28.3939C26.532 28.4159 26.708 28.5479 26.84 28.6799C26.972 28.8339 27.126 28.7679 27.302 28.7899C27.566 28.8559 28.182 28.8999 28.468 28.9219C28.754 28.9219 29.15 29.0759 29.898 29.0099C30.228 28.9879 30.712 29.0539 31.108 29.0759C31.46 29.0759 32.274 28.7239 32.648 28.7459C33 28.7679 33.22 28.5919 33.902 28.3939C34.408 28.2839 34.892 28.4599 35.464 28.4819C35.838 28.5039 35.97 28.4819 36.102 28.5259C36.366 28.6579 36.586 28.5919 36.762 28.7459C36.894 28.8559 36.806 28.9219 36.894 29.0759L37.158 29.4719C37.356 29.8019 37.07 30.1979 36.916 30.4399C36.696 30.8579 36.652 30.9899 36.058 31.1659C35.706 31.3199 35.222 31.4959 34.826 31.7599C34.43 32.0679 34.144 32.1339 33.704 32.4859L33.506 32.6619C33.374 32.8379 33.176 32.9259 33.044 33.0359C33.022 33.2339 33.22 33.3439 33.594 33.5199C33.594 33.5199 34.1 33.5419 34.364 33.7619C34.628 33.9379 35.068 34.0919 35.398 34.0919C35.662 34.1139 35.838 34.2679 36.08 34.2679C36.806 34.2899 36.894 34.3339 37.466 34.5099C37.928 34.8619 38.39 34.9939 38.61 35.0379C38.852 35.1479 39.292 35.2139 39.688 35.3679C40.084 35.4999 40.48 35.7859 40.48 35.9179C40.48 36.0719 40.524 36.2259 40.48 36.4019C40.326 36.7099 40.458 36.8639 40.172 37.0179C39.688 37.3479 39.292 37.3479 38.786 37.2379C38.522 37.1719 38.236 37.1279 37.994 37.0399C37.818 36.9959 37.642 36.9079 37.466 36.8199C37.048 36.7099 36.828 36.6879 36.388 36.4459C35.684 36.0279 34.914 35.6759 34.166 35.3679C33.946 35.2579 33.748 35.1479 33.616 34.9939C33.33 34.6859 33.132 34.6419 32.78 34.4439C32.538 34.3999 32.208 34.3779 32.032 34.3779C31.636 34.5979 31.152 34.6639 30.756 34.9279C30.47 35.1479 30.404 35.3459 30.118 35.5219C29.854 35.6979 29.59 35.7419 29.304 35.8299C28.974 35.9619 28.71 36.1379 28.38 36.3579C28.16 36.5119 28.16 36.4679 27.786 36.7319C27.39 36.9739 27.17 37.4579 26.774 37.7879C26.51 38.0299 26.224 38.2059 25.982 38.3379C25.784 38.4699 25.256 38.5579 25.124 38.7779C24.926 39.0639 24.684 39.2619 24.288 39.3059C24.068 39.3499 23.936 39.4599 23.65 39.2839C23.342 39.1519 23.188 38.9539 23.122 38.7559C22.99 38.4479 22.968 38.3159 23.144 38.0299C23.298 37.7439 23.606 37.6559 23.804 37.4139C24.002 37.1279 24.288 36.9079 24.596 36.7319C24.86 36.5559 24.97 36.3139 25.256 36.2479C25.432 36.2039 25.828 35.7859 26.07 35.6759C26.444 35.5659 26.576 35.5879 26.84 35.3019C27.126 34.9719 27.324 34.9939 27.698 34.7739C28.116 34.4879 28.204 34.5099 28.644 34.2679C28.93 34.0479 29.018 34.1139 29.084 33.9599C29.15 33.8059 29.568 33.5419 29.898 33.3659C30.206 33.2339 30.448 33.0359 30.69 32.7939C30.998 32.5739 31.394 31.9799 31.746 31.7819C31.9 31.6719 32.076 31.6279 32.186 31.5399C32.362 31.3859 33.22 31.0559 33.418 30.7259C33.572 30.4179 34.1 30.3959 34.1 30.1979C34.1 30.1319 33.286 30.1759 33.286 30.1759C33.154 30.1759 32.318 30.3519 32.208 30.3959C32.01 30.4839 31.702 30.5279 31.438 30.6159C31.13 30.7259 30.976 30.8579 30.646 30.8579C30.426 30.8579 29.92 30.7699 29.722 30.8139C29.15 30.8799 28.556 30.7919 28.006 30.8579C27.5 30.9239 26.994 30.5939 26.488 30.5719C26.18 30.5499 25.542 30.3959 25.41 30.2859C25.366 30.2419 25.014 30.0879 24.992 29.8899C24.97 29.6919 24.816 29.6259 24.816 29.6259ZM30.932 36.8419C30.976 36.7539 30.998 36.6439 31.108 36.5339C31.284 36.3579 31.57 36.4019 31.79 36.4899C31.988 36.5559 32.428 36.5779 32.494 36.7979C32.494 36.7979 32.692 37.2819 32.736 37.4799C32.824 37.6559 32.802 37.9419 32.89 38.0519C32.978 38.2279 32.978 38.3159 33 38.4699C32.978 38.6239 32.978 38.7119 32.912 38.8439C32.868 38.9319 33 39.1959 32.978 39.2839C32.868 39.4159 32.978 39.7899 32.89 40.1199C32.868 40.2079 33.044 40.3399 33 40.4059C32.89 40.4939 33.154 41.0219 33 41.1539C32.868 41.2859 33.088 41.1759 33.198 41.1979C33.33 41.2199 33.528 41.1979 33.704 41.1979C33.792 41.1979 34.122 41.1539 34.32 41.1539C34.386 41.1539 34.716 41.0879 35.354 40.9779C35.992 40.8899 35.97 40.8679 36.168 40.8239C36.432 40.8019 36.718 40.9119 37.004 40.8239C37.202 40.7359 37.466 40.8899 37.928 40.8019C38.39 40.6919 39.336 40.8899 39.446 40.8899C39.622 40.8899 40.128 40.8679 40.7 41.1319C41.096 41.3079 41.47 41.4839 41.36 41.8579C41.272 42.1439 41.25 42.4079 41.14 42.5839C41.096 42.7599 40.92 42.8699 40.524 42.9359C40.37 42.9579 40.084 42.9799 39.952 42.9139C39.666 42.7599 39.468 42.8699 39.292 42.8699C39.006 42.8699 38.742 43.0239 38.566 43.0239C38.456 43.0239 38.192 43.1339 38.082 43.1339C37.906 43.1339 37.62 43.0679 37.532 43.0679C37.356 43.0679 36.586 43.1119 36.498 43.1119C36.322 43.1119 35.948 43.0239 35.64 43.0459C35.266 43.0679 34.826 42.9139 34.628 42.9139C34.562 42.9139 33.88 42.9359 33.66 42.9799C32.978 43.1119 32.12 42.9139 31.196 43.0899C31.064 43.1119 30.932 43.2219 30.756 43.2219C30.426 43.2219 30.096 43.3099 29.766 43.2879C29.568 43.2659 28.622 43.2879 28.358 43.2879C28.16 43.2879 27.434 43.3759 27.17 43.3759C26.994 43.3759 26.598 43.0679 26.18 43.3319C25.63 43.5079 25.388 43.5299 25.212 43.6179C25.014 43.7059 24.706 43.6179 24.552 43.6179C24.376 43.6179 24.134 43.6619 23.936 43.6179C23.562 43.5299 23.298 43.3319 23.1 43.1779C23.1 43.1779 22.924 43.0239 22.902 42.8699C22.836 42.1879 22.99 42.0779 23.716 41.7479C23.892 41.6599 24.288 41.4399 24.42 41.4619C24.662 41.5059 24.794 41.5499 24.794 41.5499C25.146 41.6159 25.212 41.2639 25.564 41.3299L26.378 41.4619C26.642 41.5059 26.906 41.4399 27.214 41.3959C27.5 41.3519 27.742 41.3959 27.852 41.3959C28.006 41.3959 28.204 41.4179 28.358 41.3959C28.644 41.3519 28.578 41.3519 28.842 41.2859C29.15 41.1979 29.634 41.1539 29.854 41.1759C30.008 41.1539 30.8 41.2639 30.976 41.1759C31.152 41.0879 31.064 40.7359 31.108 40.6479C31.196 40.4499 31.152 40.4499 31.174 40.3619C31.196 40.1859 31.086 39.7459 31.086 39.7459C31.064 39.1959 31.042 38.9099 30.976 38.4919C30.91 38.3379 31.064 38.0739 31.064 37.9859C31.108 37.7879 30.866 37.6119 30.932 37.4139C30.998 37.2159 30.866 36.9739 30.932 36.8419ZM48.0294 39.3939C47.8974 39.6579 47.3914 39.8119 47.2154 40.0319C46.9734 40.3179 46.5774 40.2739 46.3794 40.6039C46.1814 40.9339 45.9614 41.1099 45.7194 41.1979C45.3234 41.3519 45.0594 41.5719 44.5974 41.6159C44.1354 41.5719 44.0694 41.7919 43.8054 41.6379C43.6294 41.5279 43.5194 41.4839 43.3434 41.3959C43.1894 41.2859 43.1674 41.1099 43.3214 40.9119C43.4314 40.8019 43.5194 40.7359 43.7174 40.5819C44.0254 40.3399 44.0254 40.2959 44.1354 40.1639C44.2454 39.9879 44.3774 39.8559 44.5314 39.7019C44.7514 39.5259 45.5874 38.8659 45.6314 38.7779C45.7634 38.6019 45.9394 38.4039 46.2034 38.2059C46.4234 38.0519 46.9294 38.0299 47.0834 37.8759C47.2594 37.7219 47.9194 37.0399 48.2054 36.8639C48.5354 36.7099 49.0194 36.2259 49.1294 36.0719C49.2174 35.9179 49.3274 35.5879 49.3274 35.4339L49.2174 34.7959C49.2174 34.5099 48.4254 34.2239 48.2274 34.1579C47.9414 34.0479 47.3914 33.8279 47.1494 33.9379C46.7974 34.1139 46.8634 34.2679 46.5994 34.5979C46.3354 34.9059 46.0274 35.2359 45.5434 35.3899L44.8174 35.8519C44.2674 36.0719 44.3114 36.1599 43.7614 36.1159C43.2334 36.0499 43.0794 35.3899 42.9694 34.8839C42.8594 34.4219 43.7174 34.2019 44.2014 33.8279C44.6634 33.4759 45.1914 33.1239 45.5214 32.7939C45.6754 32.5959 46.0274 32.1339 46.2034 31.9579C46.8414 31.2759 47.0834 30.8579 47.0834 30.5279C47.0834 30.3079 47.1934 30.0659 47.3254 29.7799C47.4354 29.4719 47.5674 29.1419 47.6334 28.7459C47.6994 28.2839 47.4134 28.1299 47.1934 27.9319C47.0614 27.8219 46.9734 27.6679 46.9954 27.4479C47.2374 27.0739 47.7434 27.0519 48.3814 27.2719C49.0194 27.4919 49.5254 28.2839 49.5254 28.6139C49.5254 28.7899 49.6574 29.3179 49.5034 29.8459C49.3934 30.1979 48.9974 30.5279 48.9094 30.7039C48.6894 31.1439 48.6014 31.8919 48.6894 32.3319C48.7994 32.7499 49.5694 32.7499 50.0094 32.5959C50.2074 32.5299 50.6474 32.7719 50.8234 32.8159C51.3074 32.9479 51.3954 33.2779 51.5714 33.4319C51.6154 33.4759 51.7474 33.5419 51.8794 33.7179C52.4954 33.6519 53.1774 33.6079 53.4634 33.6519C53.7054 33.6959 54.6514 33.5419 55.1574 33.4759C55.4654 33.4099 55.9934 33.4099 56.7194 33.4539C57.4454 33.4979 57.7974 33.1239 58.0394 32.8379C58.2374 32.5739 58.0834 32.3539 57.9954 31.7379C57.9734 31.5179 57.9514 31.2979 57.9514 31.0779C57.9294 30.4839 58.0174 30.1539 57.9734 29.8459C57.9294 29.6039 57.8634 29.3619 57.4454 28.9659C57.2254 28.7459 56.9614 28.5039 56.9174 28.2839C56.7634 27.6679 56.8954 27.0299 57.1594 26.8319C57.4894 26.5899 57.5994 26.5899 57.9734 26.6779C58.1274 26.6999 58.1714 26.7219 58.3694 26.8759C58.3694 26.8759 58.7434 27.0299 58.9414 27.0959C59.1394 27.1619 59.1834 27.3159 59.2934 27.4039C59.4254 27.5139 59.3374 27.8219 59.4694 27.9759C59.6014 28.1299 59.6674 28.5699 59.8214 29.1639C59.8874 29.4499 60.0414 30.0439 59.8874 30.3519C59.7994 30.5279 59.8214 31.1219 59.8214 31.2539L59.9534 32.0459L59.8874 33.2119L59.8434 34.1139C59.8214 34.4219 59.8874 34.8399 59.8874 35.0599C59.8654 35.2799 59.9534 35.7639 59.9314 36.1379C59.9094 36.5559 59.7334 37.2819 59.6894 37.8099L59.7774 38.2719C59.7554 38.4039 59.6674 39.2179 59.5574 39.3719C59.4474 39.5259 59.6674 39.6799 59.5134 39.8999C59.3154 40.0979 59.0734 40.4939 58.8754 40.6039C58.6554 40.6919 58.5234 40.5159 58.3474 40.4939C58.2154 40.4939 57.9734 40.1639 57.8854 39.8339C57.7974 39.5259 57.7974 39.4379 57.7754 39.1079C57.7314 38.7779 57.7314 38.8219 57.7534 38.6019C57.7534 38.4039 57.6874 37.9639 57.6874 37.9639C57.6874 37.9639 57.7314 37.7659 57.9294 37.5019C58.0834 37.2379 57.9074 37.0179 57.9294 36.7979C57.9294 36.5999 58.0614 35.8739 57.9734 35.7199C57.8634 35.5439 57.7094 35.4779 57.4234 35.3239C57.2254 35.2359 56.6534 35.1919 56.3894 35.1919C56.0594 35.1919 55.8834 35.1259 55.6634 35.1259L54.2994 35.3019C53.9914 35.3019 53.3974 35.5439 52.9574 35.4119C52.8254 35.4119 51.8794 35.4559 51.2634 35.4779L51.2414 35.5219C51.0434 35.8299 50.8674 36.7539 50.5374 37.1499C50.2294 37.5019 49.9654 37.8759 49.7674 37.9859C49.5474 38.0959 49.4374 38.2719 49.1734 38.4699C48.9094 38.7559 48.6234 38.9539 48.3154 39.2179C48.2274 39.3059 48.0074 39.3059 48.0294 39.3939ZM47.8974 42.7599C47.5894 42.2319 47.2154 41.7259 47.2814 41.4399C47.3694 40.9779 48.2274 40.8899 48.7114 40.9999C49.0194 41.0879 49.3714 41.2419 49.4814 41.2419C49.7014 41.3079 49.9654 41.3959 50.0094 41.5499C50.0754 41.6819 50.2294 42.1659 50.4054 42.2539C50.6914 42.3639 50.4714 43.0239 50.9334 43.1119C51.1974 43.1779 51.4174 43.3979 51.5714 43.4639C51.8134 43.5739 52.7594 43.7279 52.9134 43.7279C53.0674 43.7279 53.9034 43.7059 54.1674 43.7499C54.4314 43.7939 54.7614 43.7059 54.8494 43.7059C55.0694 43.6839 55.6634 43.7719 56.2794 43.8819C56.5654 43.9039 57.0934 43.6619 57.6214 43.6399C58.1494 43.6179 58.5454 43.3319 58.6774 43.3319C59.1834 43.2879 59.4914 43.3539 59.7774 43.3319C60.0194 43.3319 60.7234 43.8599 61.0094 44.1899C61.1194 44.3219 60.9434 44.8939 60.8774 45.0919C60.7674 45.2899 60.3494 45.4219 59.7114 45.4439C59.2054 45.4659 58.9194 45.5759 58.6334 45.5759C57.9514 45.5979 57.9954 45.4659 57.6654 45.5979C57.4674 45.6859 56.6314 45.6419 56.3014 45.6639C55.9934 45.6639 55.8394 45.5759 55.5974 45.5979C55.4434 45.5979 54.9374 45.7519 54.3874 45.6859C53.7054 45.5979 53.2874 45.7519 53.0674 45.6639C52.8694 45.5539 51.6594 45.7959 51.3734 45.7299C51.2194 45.7079 50.5594 45.6199 50.2734 45.4879C50.0094 45.3339 49.6794 45.2459 49.5694 45.0919C49.4594 44.9159 48.7774 43.8379 48.5574 43.6399C48.3154 43.3759 48.0074 42.9139 47.8974 42.7599ZM78.7354 34.9499L80.3634 34.8619C80.3634 34.8619 81.1774 34.8619 81.5294 34.7519C81.8814 34.6419 83.1134 34.7739 84.8954 34.7519C86.6994 34.7299 85.9734 35.1699 86.8534 35.2579C87.7554 35.3459 87.5134 35.4999 87.6014 35.8299C87.6674 36.1599 86.9854 36.7979 86.9854 36.7979C86.9854 36.7979 86.1714 36.9079 85.4674 36.7539C84.7634 36.5999 82.9814 36.7759 82.7394 36.7539C82.4754 36.7319 81.8374 36.6659 81.5294 36.6659C81.2214 36.6659 80.5394 36.7539 80.2754 36.8199C80.0334 36.9079 80.2754 37.3259 80.2754 37.3259V38.9539C80.2754 38.9979 80.2534 39.0199 80.2534 39.0639L80.3854 39.1079C80.3854 39.1079 80.8254 39.1079 81.0674 39.1519C81.2654 39.1519 81.3534 39.3939 81.3534 39.3939L82.2774 40.0099C82.7614 40.2519 82.6734 40.2519 82.6734 40.2519C82.6734 40.2519 83.1354 40.6039 83.2234 40.8019C83.2674 40.9779 83.4214 41.0219 83.4214 41.0219L83.6634 42.0999C83.5974 42.3639 83.6634 42.4079 83.6634 42.4079C83.6634 42.4079 83.7074 42.7379 83.6634 42.8699C83.5534 42.9579 83.6634 43.1119 83.6634 43.1119L83.3774 43.8159V44.2339L83.2234 44.5859C83.1354 44.9599 82.9814 44.8719 82.8274 45.0039C82.7394 45.1139 82.6734 45.2019 82.5194 45.2899C82.4314 45.4439 82.3214 45.5319 82.0794 45.7299C81.8374 45.9939 81.8374 45.8619 81.7494 45.8619C81.5734 45.8619 81.4854 45.9279 81.4854 45.9279L80.6274 46.1259L79.8574 46.2579C79.8574 46.2579 79.5494 46.2579 79.1974 46.0819H78.5154C78.2954 45.9939 77.9654 46.0819 77.9654 46.0819L77.1734 45.7959C76.3814 45.5319 76.2714 45.2899 76.2714 45.2899C76.2714 45.2899 76.0734 45.2019 75.8754 45.0259C75.7434 44.9599 75.6334 44.8719 75.4574 44.8059C75.2814 44.6739 74.9954 44.4539 74.9954 44.4539C74.9954 44.4539 74.9514 43.9479 74.9954 43.7939C75.0614 43.6179 74.9514 43.3979 74.9954 42.9139C75.0614 42.3639 74.9514 42.5179 74.9954 42.1879C75.0614 41.8799 75.1494 41.7259 75.2374 41.6379V41.3299L75.3914 40.8679C75.3914 40.8899 75.4354 40.7579 75.6334 40.2519L75.9634 39.8119L76.2714 39.6139C76.2714 39.6139 76.4254 39.4599 76.5794 39.3279C76.7334 39.2179 76.7334 39.1079 76.7334 39.1079C76.7334 39.1079 77.5694 38.8659 77.7894 38.7559H78.2954C78.2514 38.6239 78.2294 38.4479 78.2294 38.2719C78.2074 38.0519 78.2294 37.8099 78.2954 37.5459C78.3614 37.3479 78.3614 37.2379 78.3394 37.1499C78.2734 36.8859 77.8774 37.0619 77.4374 37.0619C76.8654 37.0619 75.1494 37.1499 74.1594 37.3919C73.1914 37.6339 73.1034 37.5679 71.8054 37.3919C71.0354 37.3039 70.5954 37.2159 70.3974 36.9739C70.2654 36.8199 70.2214 36.5779 70.2654 36.2259C70.2874 35.9839 70.5074 35.7859 70.9034 35.5659C71.4754 35.2359 71.9814 35.3019 71.9594 35.3239C71.9594 35.3239 73.0374 35.4339 73.5874 35.2799C74.1594 35.1259 74.9074 35.4339 75.2374 35.2799C75.5894 35.1259 76.3594 35.2799 77.0634 35.2799C77.7674 35.2799 78.2514 34.9499 78.7354 34.9499ZM84.5214 27.0519C84.5214 27.0519 84.8954 27.2939 85.2034 27.6019C85.5334 27.9319 85.4234 28.4159 85.2694 28.6579C85.1154 28.8999 84.2134 28.7459 83.4654 28.7459C82.7394 28.7459 80.6054 28.7679 80.1874 28.7899C80.0554 28.7899 80.0114 28.8339 80.0334 28.8779C80.0994 29.0319 80.6934 29.3399 80.8254 29.3839L81.9914 30.0439C82.5194 30.3959 83.3334 30.7259 83.4654 30.7479C84.3454 31.0559 84.9614 31.1879 85.5774 31.5839C86.1714 31.9799 86.3474 32.2659 86.7654 32.7499C86.9854 32.9699 86.8094 33.2119 86.4794 33.3659C86.1274 33.5639 85.5774 33.6519 85.1814 33.4979C84.5654 33.2339 83.5534 32.9479 83.2674 32.6619C82.9814 32.3759 81.9254 31.6939 81.1774 31.3639C80.4514 31.0559 79.2194 30.5719 79.2194 30.5719C79.2194 30.5719 78.2514 31.4519 78.0094 31.4519C77.7454 31.4519 76.6234 32.5079 75.9634 32.8379C75.3034 33.1679 75.1714 33.5199 74.4894 33.6959C73.8954 33.8499 73.1914 34.4659 72.5314 34.5979C71.8934 34.7079 71.0794 34.3559 71.4754 33.0799C71.6294 32.5959 72.5314 32.6619 73.1694 32.2659C73.8074 31.8479 74.6874 31.4739 74.8194 31.2979C74.9514 31.1219 75.6774 31.1219 76.2274 30.7479C76.7774 30.3739 76.9534 30.2859 77.0854 30.1099C77.1954 29.9339 77.7234 29.7139 78.2514 29.3179C78.7574 28.9219 77.7454 28.8559 77.7454 28.8559C77.7454 28.8559 76.2494 29.0099 75.8094 29.0759C75.3914 29.1419 74.9514 29.0759 73.9174 29.0759C73.4334 29.0759 73.2794 28.8999 73.2354 28.6799C73.1914 28.4599 72.9934 28.2619 72.9054 28.1299C72.7074 27.8879 73.6314 27.4039 73.6314 27.4039C73.6314 27.4039 75.6774 27.3819 75.9414 27.2059C76.1834 27.0079 77.7454 27.2719 78.4274 27.2059C79.1094 27.1179 79.4614 27.0739 79.7694 26.9639C80.0774 26.8319 82.8494 27.1399 83.5314 26.8759C84.1914 26.6339 84.5214 27.0519 84.5214 27.0519ZM81.8154 42.4079V42.0999L81.5734 41.8799C81.5734 41.8799 81.3754 41.5719 81.2214 41.3739L81.0674 41.2419L80.4734 40.9559L80.2534 40.6479C80.2534 40.6479 80.1654 40.6479 79.9454 40.6039C79.7034 40.5819 79.5274 40.4719 79.5274 40.4719H79.1974L78.5374 40.5379H78.2954L77.8334 40.8019C77.5474 41.1759 77.3494 41.3299 77.3494 41.3299C77.3494 41.3299 77.3274 41.3739 77.1734 41.7259L77.0414 42.0339V42.6719C76.9974 42.8699 77.0414 42.8699 77.0414 43.1119C76.9974 43.3319 77.0414 43.3979 77.2834 43.6179L77.4374 43.8379H77.5474C77.7454 44.0799 77.8334 44.0139 77.9434 44.1239C78.0754 44.1679 78.2294 44.2339 78.5374 44.2779C78.7134 44.2779 78.6474 44.2559 78.8894 44.2779C79.1974 44.3219 79.1754 44.6299 79.5714 44.4319C79.9014 44.2339 80.1434 44.3219 80.3634 44.1459C80.3854 44.1239 80.4074 44.1239 80.4074 44.1019L80.5614 44.0139C80.9794 43.7939 80.9794 43.6839 81.0674 43.6179L81.2214 43.5739L81.7054 43.0019C81.7714 42.7379 81.8154 42.4079 81.8154 42.4079ZM99.8369 29.2299C100.101 29.3179 100.497 29.9779 100.761 30.5499C100.893 30.7919 100.607 31.1879 100.717 31.4739C100.827 31.8259 100.739 31.8919 100.607 32.2219C100.321 32.9259 100.277 33.7619 99.9029 34.2679C99.5729 34.6859 99.3529 35.0379 99.1769 35.6099C99.0669 35.9619 98.5389 36.2919 98.2749 36.6219L97.8349 37.1499C97.5929 37.4799 97.4169 37.7439 97.0869 38.0739C96.4269 38.7559 96.1409 38.8659 96.0309 39.1739C95.9429 39.4159 95.2389 40.0539 94.6889 40.3619C94.3369 40.5379 93.8529 40.8019 93.4349 40.9559C92.6869 41.2419 92.0489 41.2859 91.6089 41.2419C90.8389 41.1539 90.7069 40.8239 91.1029 40.0539C91.2349 39.7459 92.2689 39.4379 92.3789 39.2619C92.5329 38.9759 93.1489 38.9319 93.7869 38.4699C94.0509 38.3159 94.2489 37.7439 94.4909 37.5459C94.7329 37.3919 95.1069 37.0179 95.4589 36.6439C95.7889 36.2699 96.0969 35.9399 96.1849 35.8079C96.9109 34.8399 97.6149 34.2459 98.0989 33.4099C98.2309 33.2119 98.2529 32.7499 98.3189 32.5299C98.4289 32.2219 98.5389 32.1779 98.4509 31.9139C98.3629 31.6719 98.6489 31.4959 98.3629 31.3199C97.9889 31.0999 97.1529 31.3419 96.7349 31.5179C96.4929 31.6279 95.8109 31.6059 95.5469 31.7599C95.2829 31.8919 94.9749 31.5619 94.6449 31.6939C94.0509 31.9359 93.1049 31.8259 92.5989 31.8039C91.7629 31.7599 91.4549 31.7599 91.1029 31.4079C90.3769 30.7039 90.4869 30.2199 91.1029 29.7359C91.6749 29.2519 92.5329 29.7359 92.5329 29.7359H93.5449C94.0949 29.7359 94.7769 29.6479 95.1949 29.6479C96.0309 29.6479 97.4609 29.5819 98.2749 29.2299C99.1109 28.8779 99.8369 29.2299 99.8369 29.2299ZM103.511 28.5479C103.621 28.1519 103.379 27.2499 103.643 27.1399C103.797 27.0959 103.907 26.4579 104.083 26.4579C104.281 26.4359 104.875 26.5459 105.073 26.5679C105.271 26.5899 105.755 27.3159 105.909 27.5359C106.349 28.0859 106.239 28.9219 106.173 29.5379C106.173 29.9119 106.239 30.7919 106.239 31.8699C106.239 32.4859 106.195 33.1459 106.129 33.8059C105.997 34.7959 106.547 36.8639 106.063 37.7879C105.799 38.2719 106.305 39.3499 106.305 39.8119C106.305 40.4059 106.283 41.0219 106.217 41.7039C106.129 42.6719 105.865 43.3979 105.513 43.8819C105.315 44.2119 105.051 44.4319 104.809 44.6079C104.479 44.8279 104.149 44.9159 103.885 44.9159C103.401 44.9159 103.555 44.3439 103.665 43.3979C103.731 42.8259 103.379 42.3199 103.797 41.6599C104.083 41.2199 103.863 40.4059 103.885 39.9439C103.929 39.1739 103.863 37.9859 103.885 37.3039C103.907 36.4459 103.973 34.4879 103.819 34.0699C103.467 33.1019 103.951 31.9139 103.819 30.5059C103.687 29.1199 103.269 29.4059 103.511 28.5479Z" fill="white"/>
<path d="M22.9883 60.7332C23.6621 60.3348 24.3359 59.8368 25.0391 59.2215H26.2695V67.7059H25.0391V60.745H24.9922C24.3359 61.2664 23.6504 61.7293 22.9883 62.0692V60.7332ZM28.4961 64.1551L28.9531 59.2098H33.8867V60.3582H30.0898L29.8203 63.0418H29.8672C30.3301 62.4911 31.0039 62.1629 31.7656 62.1629C33.2012 62.1629 34.4434 63.3289 34.4492 64.9872C34.4434 66.6805 33.166 67.87 31.3672 67.87C29.9551 67.87 28.8125 67.1375 28.2148 65.8543L29.3633 65.3856C29.7734 66.2821 30.459 66.7332 31.3555 66.7332C32.457 66.7332 33.1895 66.036 33.1953 64.9989C33.1895 63.9618 32.457 63.2645 31.3672 63.2645C30.6055 63.2645 30.0195 63.5985 29.7383 64.1551H28.4961ZM38.3281 67.87C37.2734 67.87 36.3887 67.3895 35.7148 66.4637L36.6641 65.7489C37.1562 66.4168 37.6777 66.7039 38.3164 66.6981C39.5352 66.7039 40.4902 65.6551 40.5664 63.5809H40.5195C40.0332 64.3075 39.2305 64.7586 38.293 64.7528C36.7754 64.7586 35.6035 63.5692 35.5977 61.9286C35.6035 60.2469 36.8633 59.0575 38.6094 59.0575C40.6484 59.0575 41.8262 60.7098 41.832 63.2762C41.8262 66.1883 40.3379 67.87 38.3281 67.87ZM38.6094 63.6629C39.6289 63.6571 40.3555 62.9422 40.3555 61.9286C40.3555 60.909 39.6289 60.1942 38.6094 60.1942C37.584 60.1942 36.8574 60.909 36.8516 61.9286C36.8574 62.9422 37.584 63.6571 38.6094 63.6629ZM43.1445 66.5575C46.1152 64.6063 47.457 63.1004 47.457 61.7411C47.457 60.7801 46.8184 60.2118 45.8867 60.2176C45.1602 60.2118 44.6211 60.5516 44.3281 61.5536L43.1211 61.2254C43.5605 59.7196 44.5918 59.0575 45.8867 59.0575C47.5273 59.0575 48.7109 60.1297 48.7109 61.7176C48.7109 63.3055 47.4219 64.8524 45.1367 66.5106V66.5575H48.8398V67.7059H43.1445V66.5575ZM58.6953 58.2137V65.9598H57.5586V62.3973H54.6875V61.5067H57.5586V60.4051H54.6875V59.5145H57.5586V58.2137H58.6953ZM58.9531 67.5653V68.4793H51.8516V65.2801H52.9766V67.5653H58.9531ZM51.6523 58.9403V63.534C53.082 63.5223 54.377 63.4403 55.8828 63.1707L56 64.0965C54.3359 64.3954 52.8828 64.4657 51.3477 64.4598H50.5508V58.9403H51.6523ZM67.918 64.5418C66.7461 64.5418 66.3242 63.6102 65.5977 63.6043C65.293 63.6102 65.0176 63.786 64.4375 64.4364L63.5352 63.6278C64.3145 62.7782 64.8125 62.3856 65.5508 62.3856C66.7168 62.3856 67.1387 63.3172 67.8594 63.3231C68.1641 63.3172 68.4453 63.1414 69.0312 62.4793L69.9336 63.2997C69.1484 64.1493 68.6504 64.5418 67.918 64.5418ZM74.2227 60.7332C74.8965 60.3348 75.5703 59.8368 76.2734 59.2215H77.5039V67.7059H76.2734V60.745H76.2266C75.5703 61.2664 74.8848 61.7293 74.2227 62.0692V60.7332ZM79.5547 60.37V59.2215H85.2852V60.3465C83.5156 62.5672 82.5137 64.9051 82.2852 67.7059H81.0781C81.2832 64.9579 82.1797 62.6024 83.7617 60.4168V60.37H79.5547ZM86.5273 66.5575C89.498 64.6063 90.8398 63.1004 90.8398 61.7411C90.8398 60.7801 90.2012 60.2118 89.2695 60.2176C88.543 60.2118 88.0039 60.5516 87.7109 61.5536L86.5039 61.2254C86.9434 59.7196 87.9746 59.0575 89.2695 59.0575C90.9102 59.0575 92.0938 60.1297 92.0938 61.7176C92.0938 63.3055 90.8047 64.8524 88.5195 66.5106V66.5575H92.2227V67.7059H86.5273V66.5575ZM96.6289 67.87C94.8477 67.87 93.5176 66.7977 93.5117 65.3622C93.5176 64.3895 94.1504 63.575 95.2812 63.2176V63.1825C94.4434 62.8719 93.9746 62.2332 93.9805 61.3778C93.9746 60.0418 95.0996 59.0575 96.6289 59.0575C98.1582 59.0575 99.2832 60.0418 99.2891 61.3778C99.2832 62.2332 98.8145 62.8719 97.9766 63.1825V63.2176C99.1191 63.575 99.7402 64.3836 99.7461 65.3622C99.7402 66.7977 98.4102 67.87 96.6289 67.87ZM96.6289 66.7684C97.7129 66.7625 98.4746 66.1473 98.4688 65.2684C98.4746 64.3895 97.7129 63.7743 96.6289 63.7684C95.5449 63.7743 94.7832 64.3895 94.7891 65.2684C94.7832 66.1473 95.5449 66.7625 96.6289 66.7684ZM96.6289 62.7372C97.4492 62.743 98.0293 62.2039 98.0352 61.4481C98.0293 60.6981 97.4492 60.1649 96.6289 60.159C95.8086 60.1649 95.2285 60.6981 95.2344 61.4481C95.2285 62.2039 95.8086 62.743 96.6289 62.7372ZM109.461 58.2137V65.9598H108.324V62.3973H105.453V61.5067H108.324V60.4051H105.453V59.5145H108.324V58.2137H109.461ZM109.719 67.5653V68.4793H102.617V65.2801H103.742V67.5653H109.719ZM102.418 58.9403V63.534C103.848 63.5223 105.143 63.4403 106.648 63.1707L106.766 64.0965C105.102 64.3954 103.648 64.4657 102.113 64.4598H101.316V58.9403H102.418Z" fill="#A7A7A7"/>
</svg>
