<svg width="93" height="93" viewBox="0 0 93 93" fill="none" xmlns="http://www.w3.org/2000/svg">
<path d="M39.5944 81.7287C43.9382 82.7507 47.6344 82.3548 51.0427 80.5352C56.0189 77.6049 58.195 74.9193 61.0977 68.4692C62.597 64.5607 62.7915 59.2613 62.5198 51.4833C61.7338 46.4637 61.9567 47.4613 61.7958 43.5197C61.9214 40.9678 62.8416 38.8542 63.1988 37.3324C63.68 36.0687 64.2575 34.552 64.798 31.3865C65.9241 24.7904 59.4889 21.251 59.4889 21.251C57.6631 20.4039 56.642 20.3237 54.8234 20.5271C51.1953 21.441 49.9392 22.2569 47.986 24.4686C46.5069 26.07 45.8483 27.6028 45.1706 32.1908C44.2582 36.7779 41.0401 40.3333 36.3479 45.5172L36.3463 45.5191C35.5895 46.3187 34.9893 47.1964 34.2854 48.0244C32.0162 50.6934 29.3786 55.9075 28.5742 60.8143C27.6643 66.3646 29.2177 72.2368 30.7461 74.7304C32.9984 78.9133 37.1008 81.1419 39.5944 81.7287Z" fill="#8EB543"/>
<path d="M56.3259 48.1048C56.8171 68.2449 45.1448 80.6829 40.4792 80.6829C47.4775 81.4069 56.889 68.1343 57.3716 58.4011C57.8543 48.6678 57.0499 43.6806 60.3479 33.7865C61.7154 29.2818 61.4741 22.9271 57.3716 20.5943C64.7721 26.7078 56.0846 38.2107 56.3259 48.1048Z" fill="#5D843A"/>
<path d="M50.8448 29.9896C49.6664 36.9178 49.044 40.5767 47.1555 42.9566C37.6779 53.6558 35.0424 66.179 36.5374 73.926C40.7203 73.3842 47.1555 64.3536 48.6839 54.8617C49.336 50.8115 49.9362 43.8683 53.6711 37.0845C56.5498 31.8559 55.843 24.2946 57.2909 20.5139C53.6649 24.4381 51.3073 27.2709 50.8558 29.9254L50.8448 29.9896Z" fill="#A3CE40"/>
<path d="M53.3837 13.7399C54.1077 13.9812 56.2795 15.7329 54.7512 20.5773C56.7819 20.329 57.8082 20.5492 59.4972 21.3012C59.0122 16.0492 62.6629 14.9348 63.9472 14.0436C65.2315 13.1525 64.9411 10.2809 62.8756 10.2809C61.0255 10.2809 58.5318 12.0506 57.4057 15.59C56.0382 13.4985 52.6597 13.4985 53.3837 13.7399Z" fill="#5A833C"/>
<path d="M55.8433 18.9051C55.8433 15.6071 55.4592 15.0484 54.4758 14.0787C55.7953 14.4073 56.5026 14.7613 57.613 16.1702C59.0833 12.6208 61.3132 10.8611 62.7611 10.7807C63.8873 10.7181 64.791 11.8476 63.8873 12.6308C62.8663 13.5156 60.8806 13.9786 59.7849 16.1702C58.3034 19.1331 57.8543 18.9051 55.8433 18.9051Z" fill="#88B43F"/>
</svg>
