<svg width="350" height="89" viewBox="0 0 350 89" fill="none" xmlns="http://www.w3.org/2000/svg">
<rect y="0.705902" width="350" height="88" rx="12" fill="#1C1C1C"/>
<path d="M22.816 27.6259C22.728 27.4499 22.64 27.2079 22.838 26.9439C22.926 26.8559 23.146 26.8339 23.388 26.6359C23.52 26.5479 23.696 26.3719 24.202 26.3939C24.532 26.4159 24.708 26.5479 24.84 26.6799C24.972 26.8339 25.126 26.7679 25.302 26.7899C25.566 26.8559 26.182 26.8999 26.468 26.9219C26.754 26.9219 27.15 27.0759 27.898 27.0099C28.228 26.9879 28.712 27.0539 29.108 27.0759C29.46 27.0759 30.274 26.7239 30.648 26.7459C31 26.7679 31.22 26.5919 31.902 26.3939C32.408 26.2839 32.892 26.4599 33.464 26.4819C33.838 26.5039 33.97 26.4819 34.102 26.5259C34.366 26.6579 34.586 26.5919 34.762 26.7459C34.894 26.8559 34.806 26.9219 34.894 27.0759L35.158 27.4719C35.356 27.8019 35.07 28.1979 34.916 28.4399C34.696 28.8579 34.652 28.9899 34.058 29.1659C33.706 29.3199 33.222 29.4959 32.826 29.7599C32.43 30.0679 32.144 30.1339 31.704 30.4859L31.506 30.6619C31.374 30.8379 31.176 30.9259 31.044 31.0359C31.022 31.2339 31.22 31.3439 31.594 31.5199C31.594 31.5199 32.1 31.5419 32.364 31.7619C32.628 31.9379 33.068 32.0919 33.398 32.0919C33.662 32.1139 33.838 32.2679 34.08 32.2679C34.806 32.2899 34.894 32.3339 35.466 32.5099C35.928 32.8619 36.39 32.9939 36.61 33.0379C36.852 33.1479 37.292 33.2139 37.688 33.3679C38.084 33.4999 38.48 33.7859 38.48 33.9179C38.48 34.0719 38.524 34.2259 38.48 34.4019C38.326 34.7099 38.458 34.8639 38.172 35.0179C37.688 35.3479 37.292 35.3479 36.786 35.2379C36.522 35.1719 36.236 35.1279 35.994 35.0399C35.818 34.9959 35.642 34.9079 35.466 34.8199C35.048 34.7099 34.828 34.6879 34.388 34.4459C33.684 34.0279 32.914 33.6759 32.166 33.3679C31.946 33.2579 31.748 33.1479 31.616 32.9939C31.33 32.6859 31.132 32.6419 30.78 32.4439C30.538 32.3999 30.208 32.3779 30.032 32.3779C29.636 32.5979 29.152 32.6639 28.756 32.9279C28.47 33.1479 28.404 33.3459 28.118 33.5219C27.854 33.6979 27.59 33.7419 27.304 33.8299C26.974 33.9619 26.71 34.1379 26.38 34.3579C26.16 34.5119 26.16 34.4679 25.786 34.7319C25.39 34.9739 25.17 35.4579 24.774 35.7879C24.51 36.0299 24.224 36.2059 23.982 36.3379C23.784 36.4699 23.256 36.5579 23.124 36.7779C22.926 37.0639 22.684 37.2619 22.288 37.3059C22.068 37.3499 21.936 37.4599 21.65 37.2839C21.342 37.1519 21.188 36.9539 21.122 36.7559C20.99 36.4479 20.968 36.3159 21.144 36.0299C21.298 35.7439 21.606 35.6559 21.804 35.4139C22.002 35.1279 22.288 34.9079 22.596 34.7319C22.86 34.5559 22.97 34.3139 23.256 34.2479C23.432 34.2039 23.828 33.7859 24.07 33.6759C24.444 33.5659 24.576 33.5879 24.84 33.3019C25.126 32.9719 25.324 32.9939 25.698 32.7739C26.116 32.4879 26.204 32.5099 26.644 32.2679C26.93 32.0479 27.018 32.1139 27.084 31.9599C27.15 31.8059 27.568 31.5419 27.898 31.3659C28.206 31.2339 28.448 31.0359 28.69 30.7939C28.998 30.5739 29.394 29.9799 29.746 29.7819C29.9 29.6719 30.076 29.6279 30.186 29.5399C30.362 29.3859 31.22 29.0559 31.418 28.7259C31.572 28.4179 32.1 28.3959 32.1 28.1979C32.1 28.1319 31.286 28.1759 31.286 28.1759C31.154 28.1759 30.318 28.3519 30.208 28.3959C30.01 28.4839 29.702 28.5279 29.438 28.6159C29.13 28.7259 28.976 28.8579 28.646 28.8579C28.426 28.8579 27.92 28.7699 27.722 28.8139C27.15 28.8799 26.556 28.7919 26.006 28.8579C25.5 28.9239 24.994 28.5939 24.488 28.5719C24.18 28.5499 23.542 28.3959 23.41 28.2859C23.366 28.2419 23.014 28.0879 22.992 27.8899C22.97 27.6919 22.816 27.6259 22.816 27.6259ZM28.932 34.8419C28.976 34.7539 28.998 34.6439 29.108 34.5339C29.284 34.3579 29.57 34.4019 29.79 34.4899C29.988 34.5559 30.428 34.5779 30.494 34.7979C30.494 34.7979 30.692 35.2819 30.736 35.4799C30.824 35.6559 30.802 35.9419 30.89 36.0519C30.978 36.2279 30.978 36.3159 31 36.4699C30.978 36.6239 30.978 36.7119 30.912 36.8439C30.868 36.9319 31 37.1959 30.978 37.2839C30.868 37.4159 30.978 37.7899 30.89 38.1199C30.868 38.2079 31.044 38.3399 31 38.4059C30.89 38.4939 31.154 39.0219 31 39.1539C30.868 39.2859 31.088 39.1759 31.198 39.1979C31.33 39.2199 31.528 39.1979 31.704 39.1979C31.792 39.1979 32.122 39.1539 32.32 39.1539C32.386 39.1539 32.716 39.0879 33.354 38.9779C33.992 38.8899 33.97 38.8679 34.168 38.8239C34.432 38.8019 34.718 38.9119 35.004 38.8239C35.202 38.7359 35.466 38.8899 35.928 38.8019C36.39 38.6919 37.336 38.8899 37.446 38.8899C37.622 38.8899 38.128 38.8679 38.7 39.1319C39.096 39.3079 39.47 39.4839 39.36 39.8579C39.272 40.1439 39.25 40.4079 39.14 40.5839C39.096 40.7599 38.92 40.8699 38.524 40.9359C38.37 40.9579 38.084 40.9799 37.952 40.9139C37.666 40.7599 37.468 40.8699 37.292 40.8699C37.006 40.8699 36.742 41.0239 36.566 41.0239C36.456 41.0239 36.192 41.1339 36.082 41.1339C35.906 41.1339 35.62 41.0679 35.532 41.0679C35.356 41.0679 34.586 41.1119 34.498 41.1119C34.322 41.1119 33.948 41.0239 33.64 41.0459C33.266 41.0679 32.826 40.9139 32.628 40.9139C32.562 40.9139 31.88 40.9359 31.66 40.9799C30.978 41.1119 30.12 40.9139 29.196 41.0899C29.064 41.1119 28.932 41.2219 28.756 41.2219C28.426 41.2219 28.096 41.3099 27.766 41.2879C27.568 41.2659 26.622 41.2879 26.358 41.2879C26.16 41.2879 25.434 41.3759 25.17 41.3759C24.994 41.3759 24.598 41.0679 24.18 41.3319C23.63 41.5079 23.388 41.5299 23.212 41.6179C23.014 41.7059 22.706 41.6179 22.552 41.6179C22.376 41.6179 22.134 41.6619 21.936 41.6179C21.562 41.5299 21.298 41.3319 21.1 41.1779C21.1 41.1779 20.924 41.0239 20.902 40.8699C20.836 40.1879 20.99 40.0779 21.716 39.7479C21.892 39.6599 22.288 39.4399 22.42 39.4619C22.662 39.5059 22.794 39.5499 22.794 39.5499C23.146 39.6159 23.212 39.2639 23.564 39.3299L24.378 39.4619C24.642 39.5059 24.906 39.4399 25.214 39.3959C25.5 39.3519 25.742 39.3959 25.852 39.3959C26.006 39.3959 26.204 39.4179 26.358 39.3959C26.644 39.3519 26.578 39.3519 26.842 39.2859C27.15 39.1979 27.634 39.1539 27.854 39.1759C28.008 39.1539 28.8 39.2639 28.976 39.1759C29.152 39.0879 29.064 38.7359 29.108 38.6479C29.196 38.4499 29.152 38.4499 29.174 38.3619C29.196 38.1859 29.086 37.7459 29.086 37.7459C29.064 37.1959 29.042 36.9099 28.976 36.4919C28.91 36.3379 29.064 36.0739 29.064 35.9859C29.108 35.7879 28.866 35.6119 28.932 35.4139C28.998 35.2159 28.866 34.9739 28.932 34.8419ZM46.0294 37.3939C45.8974 37.6579 45.3914 37.8119 45.2154 38.0319C44.9734 38.3179 44.5774 38.2739 44.3794 38.6039C44.1814 38.9339 43.9614 39.1099 43.7194 39.1979C43.3234 39.3519 43.0594 39.5719 42.5974 39.6159C42.1354 39.5719 42.0694 39.7919 41.8054 39.6379C41.6294 39.5279 41.5194 39.4839 41.3434 39.3959C41.1894 39.2859 41.1674 39.1099 41.3214 38.9119C41.4314 38.8019 41.5194 38.7359 41.7174 38.5819C42.0254 38.3399 42.0254 38.2959 42.1354 38.1639C42.2454 37.9879 42.3774 37.8559 42.5314 37.7019C42.7514 37.5259 43.5874 36.8659 43.6314 36.7779C43.7634 36.6019 43.9394 36.4039 44.2034 36.2059C44.4234 36.0519 44.9294 36.0299 45.0834 35.8759C45.2594 35.7219 45.9194 35.0399 46.2054 34.8639C46.5354 34.7099 47.0194 34.2259 47.1294 34.0719C47.2174 33.9179 47.3274 33.5879 47.3274 33.4339L47.2174 32.7959C47.2174 32.5099 46.4254 32.2239 46.2274 32.1579C45.9414 32.0479 45.3914 31.8279 45.1494 31.9379C44.7974 32.1139 44.8634 32.2679 44.5994 32.5979C44.3354 32.9059 44.0274 33.2359 43.5434 33.3899L42.8174 33.8519C42.2674 34.0719 42.3114 34.1599 41.7614 34.1159C41.2334 34.0499 41.0794 33.3899 40.9694 32.8839C40.8594 32.4219 41.7174 32.2019 42.2014 31.8279C42.6634 31.4759 43.1914 31.1239 43.5214 30.7939C43.6754 30.5959 44.0274 30.1339 44.2034 29.9579C44.8414 29.2759 45.0834 28.8579 45.0834 28.5279C45.0834 28.3079 45.1934 28.0659 45.3254 27.7799C45.4354 27.4719 45.5674 27.1419 45.6334 26.7459C45.6994 26.2839 45.4134 26.1299 45.1934 25.9319C45.0614 25.8219 44.9734 25.6679 44.9954 25.4479C45.2374 25.0739 45.7434 25.0519 46.3814 25.2719C47.0194 25.4919 47.5254 26.2839 47.5254 26.6139C47.5254 26.7899 47.6574 27.3179 47.5034 27.8459C47.3934 28.1979 46.9974 28.5279 46.9094 28.7039C46.6894 29.1439 46.6014 29.8919 46.6894 30.3319C46.7994 30.7499 47.5694 30.7499 48.0094 30.5959C48.2074 30.5299 48.6474 30.7719 48.8234 30.8159C49.3074 30.9479 49.3954 31.2779 49.5714 31.4319C49.6154 31.4759 49.7474 31.5419 49.8794 31.7179C50.4954 31.6519 51.1774 31.6079 51.4634 31.6519C51.7054 31.6959 52.6514 31.5419 53.1574 31.4759C53.4654 31.4099 53.9934 31.4099 54.7194 31.4539C55.4454 31.4979 55.7974 31.1239 56.0394 30.8379C56.2374 30.5739 56.0834 30.3539 55.9954 29.7379C55.9734 29.5179 55.9514 29.2979 55.9514 29.0779C55.9294 28.4839 56.0174 28.1539 55.9734 27.8459C55.9294 27.6039 55.8634 27.3619 55.4454 26.9659C55.2254 26.7459 54.9614 26.5039 54.9174 26.2839C54.7634 25.6679 54.8954 25.0299 55.1594 24.8319C55.4894 24.5899 55.5994 24.5899 55.9734 24.6779C56.1274 24.6999 56.1714 24.7219 56.3694 24.8759C56.3694 24.8759 56.7434 25.0299 56.9414 25.0959C57.1394 25.1619 57.1834 25.3159 57.2934 25.4039C57.4254 25.5139 57.3374 25.8219 57.4694 25.9759C57.6014 26.1299 57.6674 26.5699 57.8214 27.1639C57.8874 27.4499 58.0414 28.0439 57.8874 28.3519C57.7994 28.5279 57.8214 29.1219 57.8214 29.2539L57.9534 30.0459L57.8874 31.2119L57.8434 32.1139C57.8214 32.4219 57.8874 32.8399 57.8874 33.0599C57.8654 33.2799 57.9534 33.7639 57.9314 34.1379C57.9094 34.5559 57.7334 35.2819 57.6894 35.8099L57.7774 36.2719C57.7554 36.4039 57.6674 37.2179 57.5574 37.3719C57.4474 37.5259 57.6674 37.6799 57.5134 37.8999C57.3154 38.0979 57.0734 38.4939 56.8754 38.6039C56.6554 38.6919 56.5234 38.5159 56.3474 38.4939C56.2154 38.4939 55.9734 38.1639 55.8854 37.8339C55.7974 37.5259 55.7974 37.4379 55.7754 37.1079C55.7314 36.7779 55.7314 36.8219 55.7534 36.6019C55.7534 36.4039 55.6874 35.9639 55.6874 35.9639C55.6874 35.9639 55.7314 35.7659 55.9294 35.5019C56.0834 35.2379 55.9074 35.0179 55.9294 34.7979C55.9294 34.5999 56.0614 33.8739 55.9734 33.7199C55.8634 33.5439 55.7094 33.4779 55.4234 33.3239C55.2254 33.2359 54.6534 33.1919 54.3894 33.1919C54.0594 33.1919 53.8834 33.1259 53.6634 33.1259L52.2994 33.3019C51.9914 33.3019 51.3974 33.5439 50.9574 33.4119C50.8254 33.4119 49.8794 33.4559 49.2634 33.4779L49.2414 33.5219C49.0434 33.8299 48.8674 34.7539 48.5374 35.1499C48.2294 35.5019 47.9654 35.8759 47.7674 35.9859C47.5474 36.0959 47.4374 36.2719 47.1734 36.4699C46.9094 36.7559 46.6234 36.9539 46.3154 37.2179C46.2274 37.3059 46.0074 37.3059 46.0294 37.3939ZM45.8974 40.7599C45.5894 40.2319 45.2154 39.7259 45.2814 39.4399C45.3694 38.9779 46.2274 38.8899 46.7114 38.9999C47.0194 39.0879 47.3714 39.2419 47.4814 39.2419C47.7014 39.3079 47.9654 39.3959 48.0094 39.5499C48.0754 39.6819 48.2294 40.1659 48.4054 40.2539C48.6914 40.3639 48.4714 41.0239 48.9334 41.1119C49.1974 41.1779 49.4174 41.3979 49.5714 41.4639C49.8134 41.5739 50.7594 41.7279 50.9134 41.7279C51.0674 41.7279 51.9034 41.7059 52.1674 41.7499C52.4314 41.7939 52.7614 41.7059 52.8494 41.7059C53.0694 41.6839 53.6634 41.7719 54.2794 41.8819C54.5654 41.9039 55.0934 41.6619 55.6214 41.6399C56.1494 41.6179 56.5454 41.3319 56.6774 41.3319C57.1834 41.2879 57.4914 41.3539 57.7774 41.3319C58.0194 41.3319 58.7234 41.8599 59.0094 42.1899C59.1194 42.3219 58.9434 42.8939 58.8774 43.0919C58.7674 43.2899 58.3494 43.4219 57.7114 43.4439C57.2054 43.4659 56.9194 43.5759 56.6334 43.5759C55.9514 43.5979 55.9954 43.4659 55.6654 43.5979C55.4674 43.6859 54.6314 43.6419 54.3014 43.6639C53.9934 43.6639 53.8394 43.5759 53.5974 43.5979C53.4434 43.5979 52.9374 43.7519 52.3874 43.6859C51.7054 43.5979 51.2874 43.7519 51.0674 43.6639C50.8694 43.5539 49.6594 43.7959 49.3734 43.7299C49.2194 43.7079 48.5594 43.6199 48.2734 43.4879C48.0094 43.3339 47.6794 43.2459 47.5694 43.0919C47.4594 42.9159 46.7774 41.8379 46.5574 41.6399C46.3154 41.3759 46.0074 40.9139 45.8974 40.7599ZM81.1134 31.6299C81.4874 32.2239 81.2234 32.6419 81.1134 33.1479C81.0254 33.5879 80.5854 34.2039 80.3654 34.3579L79.2874 35.1499C78.9134 35.4139 78.6274 35.4799 78.1654 35.6999C77.7254 35.8979 77.0434 35.9859 76.3174 35.8539C75.5694 35.7439 75.3494 35.4579 74.3814 34.9959C73.3914 34.5559 73.3694 33.7639 73.4354 33.2799C73.4794 32.8179 73.4574 32.2679 73.4354 31.6299C73.3914 31.0139 73.9634 30.9039 74.2714 30.5739C74.5574 30.2439 74.7334 29.7819 74.9754 29.4959C75.1954 29.1659 75.7014 28.9899 76.3174 28.9459C76.3174 28.9459 76.8454 28.8799 77.3294 28.9459C77.8794 29.0339 78.0554 29.0339 78.8694 29.3419C79.5954 29.6939 79.7274 30.0019 79.9694 30.2879C80.2334 30.5739 80.7394 31.0799 81.1134 31.6299ZM81.7954 35.8539C82.3234 35.8319 83.3354 35.8319 83.8414 35.8979C83.6654 35.8539 85.0074 35.7439 85.1614 35.9639C85.2934 36.1839 85.4474 36.3159 85.4254 36.9319C85.4254 37.5479 85.1174 37.6139 84.4794 37.8559C83.8634 38.0979 83.3134 37.8779 82.7854 37.8339C82.2794 37.8119 80.6074 37.8779 79.7494 37.8559C78.8694 37.8559 79.0014 38.0539 78.6714 38.0979C78.2754 38.1419 78.4074 38.5379 78.4294 38.7359C78.4514 38.8899 78.6934 41.4419 78.5614 42.1239C78.4294 42.8059 78.5614 42.7179 78.4514 42.9819C78.3194 43.2679 77.7694 43.5539 77.4174 43.5539C76.9774 43.5539 76.7574 43.2239 76.6254 43.0259C76.4494 42.7179 76.4274 42.1019 76.4494 41.7499C76.4714 41.4419 76.5594 39.4179 76.5594 38.7579C76.5594 38.0759 75.9214 38.2739 75.4154 38.2299C74.9314 38.1859 75.1294 38.2079 74.3594 38.2959C73.5894 38.3619 72.1594 38.4499 70.7074 38.6479C70.0034 38.7359 69.1894 38.6039 68.7714 38.2299C68.3094 37.8119 68.3094 37.0639 68.4194 36.7339C68.5074 36.5359 68.8594 36.3819 69.3434 36.3159C70.2014 36.1619 71.3894 36.3599 71.6754 36.4039C72.1814 36.4919 74.0734 36.3599 74.3594 36.3819C74.6454 36.4479 75.3934 36.4039 76.0314 36.4479C76.6694 36.4919 77.7914 36.4259 78.4074 36.2939C79.0014 36.0959 79.5294 36.1839 79.5294 36.1839C79.5294 36.1839 80.2114 36.0519 80.4094 35.9859C80.5414 35.9639 81.1134 35.8979 81.7954 35.8539ZM75.9434 27.1639C75.9434 27.1639 76.9774 27.2079 77.4834 27.1639C78.0114 27.0759 78.0774 27.0099 78.8254 26.9439C79.4854 26.8779 80.1674 26.8119 80.6734 26.7899C81.2014 26.7459 82.0594 26.6799 82.4994 26.7899C82.9614 26.8559 83.7534 26.8559 84.0614 27.1639C84.4134 27.4279 84.3474 27.8899 84.1714 28.4399C84.0394 28.8359 83.4014 28.8799 82.8954 28.7479C82.3674 28.6159 82.0154 28.5939 81.6634 28.5939H78.8914C78.3854 28.5939 77.6814 28.6599 76.9334 28.7259C76.4494 28.7699 75.9434 28.7919 75.4374 28.7919C74.9754 28.7919 74.6674 28.8139 74.4034 28.8579C73.9194 28.9239 73.6774 29.0779 72.9294 29.1439C71.8514 29.2539 71.7634 29.1439 71.0814 29.1439C70.3774 29.1439 70.0474 28.6819 69.7174 28.0659C69.4094 27.4939 69.9154 27.3619 70.0914 27.0979C70.2674 26.8119 71.2574 27.1639 71.6314 27.1419C71.9834 27.1419 72.9954 27.2519 73.4794 27.1639C73.9634 27.0099 73.9854 27.2519 74.5794 27.1639C75.1074 27.0099 75.4594 27.1639 75.9434 27.1639ZM77.8354 24.4799C77.8354 24.4799 78.6494 24.3479 79.2874 24.3479C79.9694 24.3479 80.0794 24.5239 80.4974 24.6119C80.8934 24.6999 80.4974 25.1619 80.4974 25.7999C80.4974 26.4599 79.9034 26.0859 79.2874 26.1959C78.8694 26.2619 78.3194 26.2179 77.5714 26.2399C77.1314 26.2399 76.6254 26.2619 76.0534 26.3279C75.4374 26.3939 74.9534 26.3499 74.5794 26.2399C74.0294 26.0859 73.7214 25.7779 73.5234 25.3819C73.3694 25.0959 73.4134 24.9419 73.5234 24.8319C73.6994 24.7219 73.9854 24.6339 74.1834 24.4799C74.5574 24.1939 75.4594 24.4799 76.1194 24.4799C76.7794 24.4799 77.1974 24.4579 77.8354 24.4799ZM79.1554 33.2139C79.3094 32.6859 79.5074 32.5979 79.3974 32.2459C79.2874 31.8939 78.9574 31.4759 78.8694 31.3219C78.7374 31.1679 78.4514 30.9699 78.1214 30.7499C77.8354 30.5519 77.0214 30.3759 76.8674 30.4639C76.6914 30.5519 76.3614 30.5959 76.0754 30.7499C75.8994 30.8599 75.7454 31.0139 75.7014 31.2559C75.5914 31.7619 75.4814 32.3339 75.5034 32.7079C75.5254 33.1039 75.8334 33.3679 76.1194 33.6759C76.3614 33.9839 76.2074 34.0939 76.7794 34.2479C77.3514 34.4019 78.3854 34.1159 78.6494 33.8739C78.8914 33.6099 78.9354 33.6979 79.1554 33.2139ZM97.8369 27.2299C98.1009 27.3179 98.4969 27.9779 98.7609 28.5499C98.8929 28.7919 98.6069 29.1879 98.7169 29.4739C98.8269 29.8259 98.7389 29.8919 98.6069 30.2219C98.3209 30.9259 98.2769 31.7619 97.9029 32.2679C97.5729 32.6859 97.3529 33.0379 97.1769 33.6099C97.0669 33.9619 96.5389 34.2919 96.2749 34.6219L95.8349 35.1499C95.5929 35.4799 95.4169 35.7439 95.0869 36.0739C94.4269 36.7559 94.1409 36.8659 94.0309 37.1739C93.9429 37.4159 93.2389 38.0539 92.6889 38.3619C92.3369 38.5379 91.8529 38.8019 91.4349 38.9559C90.6869 39.2419 90.0489 39.2859 89.6089 39.2419C88.8389 39.1539 88.7069 38.8239 89.1029 38.0539C89.2349 37.7459 90.2689 37.4379 90.3789 37.2619C90.5329 36.9759 91.1489 36.9319 91.7869 36.4699C92.0509 36.3159 92.2489 35.7439 92.4909 35.5459C92.7329 35.3919 93.1069 35.0179 93.4589 34.6439C93.7889 34.2699 94.0969 33.9399 94.1849 33.8079C94.9109 32.8399 95.6149 32.2459 96.0989 31.4099C96.2309 31.2119 96.2529 30.7499 96.3189 30.5299C96.4289 30.2219 96.5389 30.1779 96.4509 29.9139C96.3629 29.6719 96.6489 29.4959 96.3629 29.3199C95.9889 29.0999 95.1529 29.3419 94.7349 29.5179C94.4929 29.6279 93.8109 29.6059 93.5469 29.7599C93.2829 29.8919 92.9749 29.5619 92.6449 29.6939C92.0509 29.9359 91.1049 29.8259 90.5989 29.8039C89.7629 29.7599 89.4549 29.7599 89.1029 29.4079C88.3769 28.7039 88.4869 28.2199 89.1029 27.7359C89.6749 27.2519 90.5329 27.7359 90.5329 27.7359H91.5449C92.0949 27.7359 92.7769 27.6479 93.1949 27.6479C94.0309 27.6479 95.4609 27.5819 96.2749 27.2299C97.1109 26.8779 97.8369 27.2299 97.8369 27.2299ZM101.511 26.5479C101.621 26.1519 101.379 25.2499 101.643 25.1399C101.797 25.0959 101.907 24.4579 102.083 24.4579C102.281 24.4359 102.875 24.5459 103.073 24.5679C103.271 24.5899 103.755 25.3159 103.909 25.5359C104.349 26.0859 104.239 26.9219 104.173 27.5379C104.173 27.9119 104.239 28.7919 104.239 29.8699C104.239 30.4859 104.195 31.1459 104.129 31.8059C103.997 32.7959 104.547 34.8639 104.063 35.7879C103.799 36.2719 104.305 37.3499 104.305 37.8119C104.305 38.4059 104.283 39.0219 104.217 39.7039C104.129 40.6719 103.865 41.3979 103.513 41.8819C103.315 42.2119 103.051 42.4319 102.809 42.6079C102.479 42.8279 102.149 42.9159 101.885 42.9159C101.401 42.9159 101.555 42.3439 101.665 41.3979C101.731 40.8259 101.379 40.3199 101.797 39.6599C102.083 39.2199 101.863 38.4059 101.885 37.9439C101.929 37.1739 101.863 35.9859 101.885 35.3039C101.907 34.4459 101.973 32.4879 101.819 32.0699C101.467 31.1019 101.951 29.9139 101.819 28.5059C101.687 27.1199 101.269 27.4059 101.511 26.5479Z" fill="white"/>
<path d="M20.7559 58.7333C21.4297 58.3348 22.1035 57.8368 22.8066 57.2216H24.0371V65.7059H22.8066V58.745H22.7598C22.1035 59.2665 21.418 59.7294 20.7559 60.0692V58.7333ZM26.0879 58.37V57.2216H31.8184V58.3466C30.0488 60.5673 29.0469 62.9052 28.8184 65.7059H27.6113C27.8164 62.9579 28.7129 60.6024 30.2949 58.4169V58.37H26.0879ZM33.0605 64.5575C36.0312 62.6063 37.373 61.1005 37.373 59.7411C37.373 58.7802 36.7344 58.2118 35.8027 58.2177C35.0762 58.2118 34.5371 58.5516 34.2441 59.5536L33.0371 59.2255C33.4766 57.7196 34.5078 57.0575 35.8027 57.0575C37.4434 57.0575 38.627 58.1298 38.627 59.7177C38.627 61.3055 37.3379 62.8524 35.0527 64.5106V64.5575H38.7559V65.7059H33.0605V64.5575ZM43.1621 65.87C41.3809 65.87 40.0508 64.7977 40.0449 63.3622C40.0508 62.3895 40.6836 61.5751 41.8145 61.2177V61.1825C40.9766 60.8719 40.5078 60.2333 40.5137 59.3778C40.5078 58.0419 41.6328 57.0575 43.1621 57.0575C44.6914 57.0575 45.8164 58.0419 45.8223 59.3778C45.8164 60.2333 45.3477 60.8719 44.5098 61.1825V61.2177C45.6523 61.5751 46.2734 62.3837 46.2793 63.3622C46.2734 64.7977 44.9434 65.87 43.1621 65.87ZM43.1621 64.7684C44.2461 64.7626 45.0078 64.1473 45.002 63.2684C45.0078 62.3895 44.2461 61.7743 43.1621 61.7684C42.0781 61.7743 41.3164 62.3895 41.3223 63.2684C41.3164 64.1473 42.0781 64.7626 43.1621 64.7684ZM43.1621 60.7372C43.9824 60.743 44.5625 60.204 44.5684 59.4481C44.5625 58.6981 43.9824 58.1649 43.1621 58.1591C42.3418 58.1649 41.7617 58.6981 41.7676 59.4481C41.7617 60.204 42.3418 60.743 43.1621 60.7372ZM55.9941 56.2137V63.9598H54.8574V60.3973H51.9863V59.5067H54.8574V58.4052H51.9863V57.5145H54.8574V56.2137H55.9941ZM56.252 65.5653V66.4794H49.1504V63.2802H50.2754V65.5653H56.252ZM48.9512 56.9403V61.5341C50.3809 61.5223 51.6758 61.4403 53.1816 61.1708L53.2988 62.0966C51.6348 62.3954 50.1816 62.4657 48.6465 62.4598H47.8496V56.9403H48.9512ZM65.2168 62.5419C64.0449 62.5419 63.623 61.6102 62.8965 61.6044C62.5918 61.6102 62.3164 61.786 61.7363 62.4364L60.834 61.6278C61.6133 60.7782 62.1113 60.3856 62.8496 60.3856C64.0156 60.3856 64.4375 61.3173 65.1582 61.3231C65.4629 61.3173 65.7441 61.1415 66.3301 60.4794L67.2324 61.2997C66.4473 62.1493 65.9492 62.5419 65.2168 62.5419ZM71.5215 58.7333C72.1953 58.3348 72.8691 57.8368 73.5723 57.2216H74.8027V65.7059H73.5723V58.745H73.5254C72.8691 59.2665 72.1836 59.7294 71.5215 60.0692V58.7333ZM79.4785 65.87C78.4238 65.87 77.5391 65.3895 76.8652 64.4637L77.8145 63.7489C78.3066 64.4169 78.8281 64.704 79.4668 64.6981C80.6855 64.704 81.6406 63.6552 81.7168 61.5809H81.6699C81.1836 62.3075 80.3809 62.7587 79.4434 62.7528C77.9258 62.7587 76.7539 61.5692 76.748 59.9286C76.7539 58.2469 78.0137 57.0575 79.7598 57.0575C81.7988 57.0575 82.9766 58.7098 82.9824 61.2762C82.9766 64.1884 81.4883 65.87 79.4785 65.87ZM79.7598 61.663C80.7793 61.6571 81.5059 60.9423 81.5059 59.9286C81.5059 58.9091 80.7793 58.1942 79.7598 58.1942C78.7344 58.1942 78.0078 58.9091 78.002 59.9286C78.0078 60.9423 78.7344 61.6571 79.7598 61.663ZM84.2363 58.7333C84.9102 58.3348 85.584 57.8368 86.2871 57.2216H87.5176V65.7059H86.2871V58.745H86.2402C85.584 59.2665 84.8984 59.7294 84.2363 60.0692V58.7333ZM92.7207 65.87C90.7168 65.87 89.4688 64.1708 89.4629 61.4637C89.4688 58.7567 90.7168 57.0575 92.7207 57.0575C94.7188 57.0575 95.9668 58.7567 95.9668 61.4637C95.9668 64.1708 94.7188 65.87 92.7207 65.87ZM92.7207 64.6981C93.9453 64.6923 94.7129 63.4501 94.7129 61.4637C94.7129 59.4774 93.9453 58.2352 92.7207 58.2294C91.4902 58.2352 90.7227 59.4774 90.7168 61.4637C90.7227 63.4501 91.4902 64.6923 92.7207 64.6981ZM105.693 56.2137V63.9598H104.557V60.3973H101.686V59.5067H104.557V58.4052H101.686V57.5145H104.557V56.2137H105.693ZM105.951 65.5653V66.4794H98.8496V63.2802H99.9746V65.5653H105.951ZM98.6504 56.9403V61.5341C100.08 61.5223 101.375 61.4403 102.881 61.1708L102.998 62.0966C101.334 62.3954 99.8809 62.4657 98.3457 62.4598H97.5488V56.9403H98.6504Z" fill="#A7A7A7"/>
</svg>
