<svg width="124" height="62" viewBox="0 0 124 62" fill="none" xmlns="http://www.w3.org/2000/svg">
<path d="M4.55181 28.6699C5.79109 27.8707 17.9562 27.2883 24.03 27.1438C24.03 25.0594 24.4679 21.2846 24.6168 19.8263C25.0547 17.501 25.6415 16.0384 26.1495 14.8736C28.1463 10.8974 31.296 4.4667 35.2821 3.19676C39.8385 1.74509 46.1951 2.15972 51.7474 3.58431C59.9911 5.69941 67.9496 7.41738 71.1928 9.78291C72.7868 10.9456 73.5697 11.8051 74.3961 11.5214C74.8362 11.3703 75.3328 10.9823 75.6354 10.4967C76.7279 8.74287 76.9021 5.15882 81.9215 4.29372C86.5459 3.49673 91.972 3.71969 93.7385 4.96153C96.4513 6.86862 99.6221 9.00398 102.205 12.9249C104.176 15.9158 104.391 19.6653 106.747 19.8482C110.469 20.1373 114.901 19.3818 117.241 21.1642C119.354 22.7735 121.22 24.2491 121.688 26.4979C122.559 30.6821 122.733 39.1356 119.853 41.089C118.023 42.3305 102.952 38.2151 102.267 44.0931C101.978 46.5738 101.976 48.8309 101.389 49.8494C101.093 50.3617 100.716 50.8768 99.2518 51.8309C92.3262 56.3436 88.7495 57.9332 85.6153 57.2106C81.8164 56.3348 78.7237 54.3714 69.9184 51.7368C68.25 51.2375 67.7443 51.6364 67.5253 52.1856C67.0896 53.2782 66.3629 54.0276 65.5503 55.0342C63.433 57.6573 61.665 59.5256 59.4196 59.9913C55.2179 60.8628 47.8887 60.869 45.181 58.809C41.5376 56.037 40.611 52.9814 38.0365 51.739C37.5964 51.5266 37.1629 51.8156 36.7228 52.109C34.969 53.2782 31.8275 55.7263 27.6537 55.5356C19.4582 55.1612 10.6715 54.331 7.15736 49.5363C4.31534 45.6586 -0.714081 32.0658 4.55181 28.6699Z" fill="white" stroke="white" stroke-width="2.70914" stroke-linecap="round"/>
</svg>
