<svg width="391" height="782" viewBox="0 0 391 782" fill="none" xmlns="http://www.w3.org/2000/svg">
<g clip-path="url(#clip0_252_1266)">
<rect width="390" height="781" transform="translate(0.390381 0.5)" fill="white"/>
<rect x="0.390381" y="451.5" width="390" height="330" fill="#F5DBC8"/>
<rect x="0.390381" y="0.5" width="390" height="451" fill="#D6E8FF"/>
<ellipse cx="87.1163" cy="486.858" rx="55.757" ry="20.9595" fill="black" fill-opacity="0.1"/>
<path d="M220.942 169.17C222.181 168.371 234.347 167.788 240.42 167.644C240.42 165.559 240.858 161.785 241.007 160.326C241.445 158.001 242.032 156.538 242.54 155.374C244.537 151.397 247.686 144.967 251.672 143.697C256.229 142.245 262.585 142.66 268.138 144.084C276.381 146.199 284.34 147.917 287.583 150.283C289.177 151.446 289.96 152.305 290.786 152.021C291.227 151.87 291.723 151.482 292.026 150.997C293.118 149.243 293.292 145.659 298.312 144.794C302.936 143.997 308.362 144.22 310.129 145.462C312.842 147.369 316.013 149.504 318.596 153.425C320.566 156.416 320.781 160.165 323.137 160.348C326.859 160.637 331.291 159.882 333.631 161.664C335.744 163.273 337.61 164.749 338.078 166.998C338.95 171.182 339.124 179.636 336.244 181.589C334.413 182.83 319.342 178.715 318.657 184.593C318.368 187.074 318.367 189.331 317.779 190.349C317.484 190.862 317.106 191.377 315.642 192.331C308.717 196.844 305.14 198.433 302.006 197.711C298.207 196.835 295.114 194.871 286.309 192.237C284.64 191.738 284.135 192.136 283.916 192.686C283.48 193.778 282.753 194.528 281.941 195.534C279.823 198.157 278.055 200.026 275.81 200.491C271.608 201.363 264.279 201.369 261.571 199.309C257.928 196.537 257.001 193.481 254.427 192.239C253.987 192.027 253.553 192.316 253.113 192.609C251.359 193.778 248.218 196.226 244.044 196.036C235.849 195.661 227.062 194.831 223.548 190.036C220.706 186.159 215.676 172.566 220.942 169.17Z" fill="white" stroke="white" stroke-width="2.70914" stroke-linecap="round"/>
<path d="M57.483 213.917C58.7222 213.118 70.8873 212.536 76.9611 212.391C76.9611 210.307 77.3991 206.532 77.5479 205.074C77.9858 202.749 78.5726 201.286 79.0806 200.121C81.0775 196.145 84.2272 189.714 88.2132 188.444C92.7696 186.993 99.1262 187.407 104.679 188.832C112.922 190.947 120.881 192.665 124.124 195.03C125.718 196.193 126.501 197.053 127.327 196.769C127.767 196.618 128.264 196.23 128.567 195.744C129.659 193.99 129.833 190.406 134.853 189.541C139.477 188.744 144.903 188.967 146.67 190.209C149.382 192.116 152.553 194.252 155.137 198.172C157.107 201.163 157.322 204.913 159.678 205.096C163.4 205.385 167.832 204.629 170.172 206.412C172.285 208.021 174.151 209.497 174.619 211.745C175.491 215.93 175.665 224.383 172.784 226.337C170.954 227.578 155.883 223.463 155.198 229.341C154.909 231.821 154.908 234.078 154.32 235.097C154.024 235.609 153.647 236.124 152.183 237.078C145.257 241.591 141.681 243.181 138.546 242.458C134.748 241.582 131.655 239.619 122.85 236.984C121.181 236.485 120.675 236.884 120.456 237.433C120.021 238.526 119.294 239.275 118.481 240.282C116.364 242.905 114.596 244.773 112.351 245.239C108.149 246.11 100.82 246.117 98.1121 244.057C94.4687 241.285 93.5422 238.229 90.9677 236.987C90.5276 236.774 90.094 237.063 89.6539 237.357C87.9001 238.526 84.7586 240.974 80.5848 240.783C72.3894 240.409 63.6027 239.579 60.0885 234.784C57.2465 230.906 52.2171 217.313 57.483 213.917Z" fill="white" stroke="white" stroke-width="2.70914" stroke-linecap="round"/>
<rect x="262.481" y="409.289" width="99.4147" height="51.5179" fill="#491A10"/>
<rect x="368.149" y="424.042" width="36.0864" height="56.1078" fill="#CBC2BA"/>
<rect x="368.149" y="409.289" width="36.0864" height="10.7168" fill="#9C7E6F"/>
<rect x="330.759" y="460.807" width="31.1364" height="19.343" fill="#D7B58E"/>
<rect x="368.149" y="409.289" width="70.8608" height="6.25417" transform="rotate(90 368.149 409.289)" fill="#D7B58E"/>
<rect x="330.759" y="405.253" width="73.477" height="4.03617" fill="#D7B58E"/>
<rect x="368.149" y="420.006" width="36.0864" height="4.03617" fill="#D7B58E"/>
<path d="M411.629 398.873H421.431L411.629 405.252V405.253H262.481V398.799H411.629V398.873Z" fill="#130F0C"/>
<rect x="330.759" y="394.32" width="98.8999" height="4.47917" fill="#616063"/>
<rect width="31.1364" height="51.5179" transform="matrix(-1 0 0 1 267.168 409.288)" fill="#491A10"/>
<rect width="36.0864" height="56.1078" transform="matrix(-1 0 0 1 229.777 424.041)" fill="#CBC2BA"/>
<rect width="36.0864" height="10.7168" transform="matrix(-1 0 0 1 229.777 409.288)" fill="#9C7E6F"/>
<rect width="102.391" height="19.343" transform="matrix(-1 0 0 1 338.423 460.806)" fill="#D7B58E"/>
<rect width="70.8608" height="6.25417" transform="matrix(0 1 1 0 229.777 409.288)" fill="#D7B58E"/>
<rect width="157.534" height="4.03617" transform="matrix(-1 0 0 1 351.225 405.252)" fill="#D7B58E"/>
<rect width="36.0864" height="4.03617" transform="matrix(-1 0 0 1 229.777 420.005)" fill="#D7B58E"/>
<rect width="70.3071" height="6.96403" transform="matrix(0 1 1 0 186.727 405.252)" fill="#D7B58E"/>
<rect width="10.6823" height="4.58998" transform="matrix(-1 0 0 1 195.55 475.559)" fill="#A6A7AB"/>
<path d="M186.299 398.872H176.496L186.299 405.253H267.168V398.798H186.299V398.872Z" fill="#130F0C"/>
<rect width="177.098" height="4.47917" transform="matrix(-1 0 0 1 345.366 394.319)" fill="#616063"/>
<rect x="242.873" y="413.303" width="112.198" height="40.9812" fill="#D9D9D9"/>
<path d="M407.62 364.734L438.304 394.319H369.356L369.415 394.262H228.513L228.573 394.319H159.624L190.255 364.785V340.687H407.62V364.734Z" fill="#5F4C34"/>
<path d="M137.683 569.37V579.136" stroke="#529C47" stroke-width="2" stroke-linecap="round"/>
<path d="M142.823 570.398V580.164" stroke="#529C47" stroke-width="2" stroke-linecap="round"/>
<path d="M152.325 572.614L149.066 580.164" stroke="#529C47" stroke-width="2" stroke-linecap="round"/>
<path d="M36.7727 589.031V598.796" stroke="#C6DB64" stroke-width="2" stroke-linecap="round"/>
<path d="M41.9124 590.059V599.824" stroke="#C6DB64" stroke-width="2" stroke-linecap="round"/>
<path d="M51.4153 592.274L48.1561 599.824" stroke="#C6DB64" stroke-width="2" stroke-linecap="round"/>
<path d="M160.539 512.757V522.522" stroke="#C6DB64" stroke-width="2" stroke-linecap="round"/>
<path d="M165.678 513.785V523.55" stroke="#C6DB64" stroke-width="2" stroke-linecap="round"/>
<path d="M175.181 516L171.922 523.55" stroke="#C6DB64" stroke-width="2" stroke-linecap="round"/>
<path d="M324.167 525.308V535.073" stroke="#529C47" stroke-width="2" stroke-linecap="round"/>
<path d="M329.307 526.336V536.101" stroke="#529C47" stroke-width="2" stroke-linecap="round"/>
<path d="M338.81 528.551L335.551 536.101" stroke="#529C47" stroke-width="2" stroke-linecap="round"/>
<path d="M221.239 553.099C221.54 554.002 221.846 554.969 222.124 555.83C222.251 556.188 222.352 556.389 222.579 556.994C222.806 557.599 223.158 558.603 223.671 559.94" stroke="#529C47" stroke-width="2" stroke-linecap="round"/>
<path d="M229.6 552.643V559.788" stroke="#529C47" stroke-width="2" stroke-linecap="round"/>
<path d="M234.032 561.923C234.061 561.964 234.09 562.005 234.668 561.387C235.246 560.77 236.372 559.492 237.055 558.762C237.739 558.031 237.944 557.888 238.069 557.615" stroke="#529C47" stroke-width="2" stroke-linecap="round"/>
<path d="M287.806 587.701C288.107 588.832 288.413 590.042 288.691 591.12C288.819 591.569 288.919 591.82 289.146 592.577C289.374 593.335 289.725 594.591 290.239 596.266" stroke="#529C47" stroke-width="2" stroke-linecap="round"/>
<path d="M296.168 587.131V596.075" stroke="#529C47" stroke-width="2" stroke-linecap="round"/>
<path d="M300.6 598.748C300.628 598.799 300.657 598.851 301.235 598.077C301.813 597.304 302.94 595.704 303.623 594.79C304.306 593.876 304.511 593.696 304.636 593.355" stroke="#529C47" stroke-width="2" stroke-linecap="round"/>
<path d="M160.539 607.638C160.84 608.541 161.145 609.507 161.424 610.368C161.551 610.727 161.652 610.927 161.879 611.532C162.106 612.137 162.457 613.141 162.971 614.479" stroke="#C6DB64" stroke-width="2" stroke-linecap="round"/>
<path d="M168.9 607.182V614.327" stroke="#C6DB64" stroke-width="2" stroke-linecap="round"/>
<path d="M173.332 616.461C173.361 616.502 173.39 616.543 173.968 615.926C174.546 615.308 175.672 614.03 176.355 613.3C177.038 612.57 177.244 612.426 177.368 612.153" stroke="#C6DB64" stroke-width="2" stroke-linecap="round"/>
<path d="M270.253 513.66C270.554 514.563 270.859 515.53 271.137 516.39C271.265 516.749 271.365 516.95 271.593 517.555C271.82 518.16 272.171 519.163 272.685 520.501" stroke="#C6DB64" stroke-width="2" stroke-linecap="round"/>
<path d="M278.614 513.204V520.349" stroke="#C6DB64" stroke-width="2" stroke-linecap="round"/>
<path d="M283.046 522.483C283.075 522.525 283.104 522.566 283.682 521.948C284.26 521.33 285.386 520.052 286.069 519.322C286.752 518.592 286.958 518.448 287.082 518.175" stroke="#C6DB64" stroke-width="2" stroke-linecap="round"/>
<path d="M55.1809 543.781C55.4819 544.684 55.7875 545.651 56.0657 546.511C56.1934 546.87 56.2937 547.071 56.521 547.676C56.7482 548.281 57.0994 549.284 57.6132 550.622" stroke="#529C47" stroke-width="2" stroke-linecap="round"/>
<path d="M63.5422 543.325V550.47" stroke="#529C47" stroke-width="2" stroke-linecap="round"/>
<path d="M67.9743 552.605C68.003 552.646 68.0318 552.687 68.6098 552.069C69.1878 551.451 70.3143 550.173 70.9974 549.443C71.6804 548.713 71.8859 548.569 72.0106 548.297" stroke="#529C47" stroke-width="2" stroke-linecap="round"/>
<g clip-path="url(#clip1_252_1266)">
<path d="M87.7172 493.888H101.334C101.334 493.888 104.803 493.888 104.499 491.06C102.216 486.407 98.5418 487.027 87.7172 493.888Z" fill="#414143"/>
<path d="M84.5176 481.908V491.06L87.7172 493.888C98.5418 487.027 102.216 486.407 104.499 491.06C104.353 489.705 103.341 487.7 100.665 484.735C100.665 484.735 95.8367 484.735 96.0225 481.908V474.765H84.5176V481.908Z" fill="#222021"/>
<path d="M87.7172 493.888L84.5176 491.06V481.908V474.765H96.0225V481.908C95.8367 484.735 100.665 484.735 100.665 484.735C103.341 487.7 104.353 489.705 104.499 491.06M87.7172 493.888H101.334C101.334 493.888 104.803 493.888 104.499 491.06M87.7172 493.888C98.5418 487.027 102.216 486.407 104.499 491.06" stroke="black" stroke-width="2.66667"/>
<path d="M70.2211 493.888H83.8382C83.8382 493.888 87.3068 493.888 87.0026 491.06C84.7202 486.407 81.0457 487.027 70.2211 493.888Z" fill="#414143"/>
<path d="M67.0215 481.908V491.06L70.2211 493.888C81.0457 487.027 84.7202 486.407 87.0026 491.06C86.8568 489.705 85.8445 487.7 83.1685 484.735C83.1685 484.735 78.3406 484.735 78.5264 481.908V474.765H67.0215V481.908Z" fill="#222021"/>
<path d="M70.2211 493.888L67.0215 491.06V481.908V474.765H78.5264V481.908C78.3406 484.735 83.1685 484.735 83.1685 484.735C85.8445 487.7 86.8568 489.705 87.0026 491.06M70.2211 493.888H83.8382C83.8382 493.888 87.3068 493.888 87.0026 491.06M70.2211 493.888C81.0457 487.027 84.7202 486.407 87.0026 491.06" stroke="black" stroke-width="2.66667"/>
<path d="M142.843 396.139C144.128 391.885 144.59 389.474 146.934 385.324C147.444 384.491 147.687 384.146 147.85 384.294C148.625 384.299 149.441 384.486 150.381 384.971C151.676 385.737 151.419 387.177 150.543 389.502L151.135 390.605C156.075 384.313 159.696 381.48 161.257 382.945C162.147 384.399 161.633 385.937 160.376 387.511C162.045 386.021 163.353 385.179 163.905 386.345C164.645 388.143 164.367 389.609 163.281 390.975C164.089 390.565 164.796 390.456 165.394 390.852C166.94 395.603 163.607 396.573 157.611 398.284C161.657 397.986 165.258 397.302 164.88 398.987C162.842 402.59 160.785 403.171 155.273 401.307C154.221 402.919 153.04 403.242 150.451 403.346L142.843 396.139Z" fill="#FFE0B4"/>
<path d="M150.543 389.502C151.419 387.177 151.676 385.737 150.381 384.971C149.441 384.486 148.625 384.299 147.85 384.294C147.687 384.146 147.444 384.491 146.934 385.324C144.59 389.474 144.128 391.885 142.843 396.139L150.451 403.346C153.04 403.242 154.221 402.919 155.273 401.307C160.785 403.171 162.842 402.59 164.88 398.987C165.258 397.302 161.657 397.986 157.611 398.284C163.607 396.573 166.94 395.603 165.394 390.852C164.796 390.456 164.089 390.565 163.281 390.975M150.543 389.502C150.298 390.15 149.694 390.886 149.373 391.677C151.236 396.095 151.999 397.807 152.032 397.25C152.816 395.475 152.959 394.375 152.4 392.125L151.135 390.605M150.543 389.502L151.135 390.605M151.135 390.605C156.075 384.313 159.696 381.48 161.257 382.945C162.147 384.399 161.633 385.937 160.376 387.511M160.376 387.511C159.263 388.905 157.567 390.327 155.749 391.743C157.388 390.399 159.004 388.736 160.376 387.511ZM160.376 387.511C162.045 386.021 163.353 385.179 163.905 386.345C164.645 388.143 164.367 389.609 163.281 390.975M163.281 390.975C162.211 392.32 160.358 393.568 157.923 394.94C160.014 393.448 161.815 391.718 163.281 390.975Z" stroke="black" stroke-width="2.66667"/>
<path d="M82.8329 480.845C84.1557 478.539 84.8153 461.497 82.8329 463.725C80.7105 470.367 72.4992 474.873 68.3374 476.832C65.214 477.631 69.3767 482.093 72.4736 481.78C75.5705 481.468 81.5101 483.151 82.8329 480.845Z" fill="black"/>
<path d="M85.7937 462.665C83.5255 462.887 84.1804 480.343 86.2768 480.845C88.3733 481.347 90.1701 481.489 93.6489 481.348C97.1277 481.206 100.976 476.616 96.916 476.195C91.0746 474.109 86.4506 471.358 85.7937 462.665Z" fill="black"/>
<path d="M82.6942 405.714C81.8688 403.955 75.6911 389.1 75.6911 389.1C75.4531 389.058 75.2256 389.018 75.0077 388.979L75.0003 388.978C70.7466 388.223 70.182 388.122 67.0496 388.672C64.6672 389.514 63.6736 392.074 62.2133 398.556C62.2133 398.556 52.4654 433.506 57.3429 434.984C62.2203 436.463 64.3452 435.999 68.3811 436.965C64.5565 453.464 64.7355 462.448 65.3314 478.34C68.5667 476.686 65.9944 477.935 68.3374 476.832C72.4992 474.873 80.7105 470.367 82.8329 463.725C84.0385 459.953 84.9951 454.762 85.7937 447.4C85.5581 454.138 85.5193 459.035 85.7937 462.665C86.4506 471.358 91.0746 474.109 96.916 476.195C98.7911 476.865 98.8433 476.287 101.47 477.352L101.47 451.072L99.0727 416.342C100.512 418.873 102.153 421.08 104.175 423.111C106.515 425.46 109.363 427.575 112.995 429.682C117.077 432.723 121.1 432.203 134.644 423.111C142.628 416.972 146.912 414.041 152.988 412.994C153.55 412.77 155.33 412.887 157.068 413.002C158.807 413.117 160.505 413.23 160.898 412.994C161.683 412.522 142.02 390.639 141.928 391.048C141.837 391.457 114.582 416.663 114.582 416.663L99.0727 398.556C95.5239 396.39 94.0522 395.579 92.1657 394.541C91.1805 393.998 90.0822 393.394 88.5159 392.501C88.5159 392.501 83.5197 407.473 82.6942 405.714Z" fill="url(#paint0_linear_252_1266)"/>
<path d="M108.298 331.135C108.567 332.815 108.298 334.383 108.298 336.464C110.093 334.628 112.383 332.389 112.895 331.762C113.408 331.135 108.028 329.456 108.298 331.135Z" fill="black"/>
<path d="M86.8156 349.625L92.1657 354.213L103.5 348.904L107.307 354.213L113.506 352.167L118.183 357.17L122.127 356.305C122.136 355.623 122.142 354.926 122.145 354.213C122.145 354.213 121.045 338.763 108.298 336.464C90.3263 331.135 86.8156 349.625 86.8156 349.625Z" fill="black"/>
<path d="M83.5284 355.838C79.2965 355.42 78.1174 356.476 76.9519 359.372C75.6051 362.748 76.3274 364.795 81.169 368.814C80.3271 370.601 80.2923 371.743 80.8983 373.994C80.1714 375.634 80.1833 376.702 80.3948 378.673L75.6911 389.1C75.6911 389.1 81.8688 403.955 82.6942 405.714C83.5197 407.473 88.5159 392.501 88.5159 392.501C88.1221 392.277 88.7524 392.57 88.2939 392.306L87.5212 388.313C99.8801 397.652 105.776 397.902 113.613 389.198C120.077 379.696 121.919 372.116 122.127 356.305L118.183 357.17L113.506 352.167L107.307 354.213L103.5 348.904L92.1657 354.213L86.8156 349.625C85.7578 351.481 84.6706 353.549 83.5284 355.838Z" fill="#FFE0B4"/>
<path d="M85.7044 383.363C85.4561 384.229 85.2616 384.917 85.2664 385.517C85.2719 386.209 85.5419 386.782 86.2989 387.376C86.7133 387.698 87.1206 388.01 87.5212 388.313M75.6911 389.1L80.3948 378.673C80.1833 376.702 80.1714 375.634 80.8983 373.994C80.2923 371.743 80.3271 370.601 81.169 368.814C76.3274 364.795 75.6051 362.748 76.9519 359.372C78.1174 356.476 79.2965 355.42 83.5284 355.838C84.6706 353.549 85.7578 351.481 86.8156 349.625M75.6911 389.1C75.6911 389.1 81.8688 403.955 82.6942 405.714C83.5197 407.473 88.5159 392.501 88.5159 392.501M75.6911 389.1C75.4531 389.058 75.2256 389.018 75.0077 388.979M87.5212 388.313C99.8801 397.652 105.776 397.902 113.613 389.198C120.077 379.696 121.919 372.116 122.127 356.305M87.5212 388.313L88.2939 392.306C88.7524 392.57 88.1221 392.277 88.5159 392.501M88.5159 392.501C90.0822 393.394 91.1805 393.998 92.1657 394.541C94.0522 395.579 95.5239 396.39 99.0727 398.556L114.582 416.663C114.582 416.663 141.837 391.457 141.928 391.048C142.02 390.639 161.683 412.522 160.898 412.994C160.505 413.23 158.807 413.118 157.068 413.002C155.33 412.887 153.55 412.77 152.988 412.994C146.912 414.041 142.628 416.972 134.644 423.111C121.1 432.203 117.077 432.723 112.995 429.682C109.363 427.575 106.515 425.46 104.175 423.111C102.153 421.08 100.512 418.873 99.0727 416.342M73.6547 403.082C73.2013 411.668 70.4946 423.84 70.8513 423.793C71.2079 423.747 91.4228 426.773 91.5049 426.539C91.587 426.306 99.1394 445.92 96.5808 446.27C96.3742 446.299 96.1566 446.298 95.9277 446.27C93.3229 445.961 89.2595 442.28 83.2963 440.298C79.5284 439.479 76.3276 438.778 73.6547 438.179C71.587 437.715 69.8352 437.313 68.3811 436.965M93.3068 402.086C95.1747 407.924 96.8903 412.505 99.0727 416.342M75.0003 388.978C70.7466 388.223 70.182 388.122 67.0496 388.672C64.6672 389.514 63.6736 392.074 62.2133 398.556C62.2133 398.556 52.4654 433.506 57.3429 434.984C62.2203 436.463 64.3452 435.999 68.3811 436.965M75.0003 388.978L75.0077 388.979M75.0003 388.978C75.0028 388.978 75.0053 388.979 75.0077 388.979M68.3811 436.965C64.5565 453.464 64.7355 462.448 65.3314 478.34C68.5667 476.686 65.9944 477.935 68.3374 476.832M99.0727 416.342L101.47 451.072L101.47 477.352C98.8433 476.287 98.7911 476.865 96.916 476.195M82.8329 463.725C84.0385 459.953 84.9951 454.762 85.7937 447.4C85.5581 454.138 85.5193 459.035 85.7937 462.665M82.8329 463.725C84.8153 461.497 84.1557 478.539 82.8329 480.845C81.5101 483.151 75.5705 481.468 72.4736 481.78C69.3767 482.093 65.214 477.631 68.3374 476.832M82.8329 463.725C80.7105 470.367 72.4992 474.873 68.3374 476.832M85.7937 462.665C83.5255 462.887 84.1804 480.343 86.2768 480.845C88.3733 481.347 90.1701 481.489 93.6489 481.348C97.1277 481.206 100.976 476.616 96.916 476.195M85.7937 462.665C86.4506 471.358 91.0746 474.109 96.916 476.195M86.8156 349.625C86.8156 349.625 90.3263 331.135 108.298 336.464M86.8156 349.625L92.1657 354.213L103.5 348.904L107.307 354.213L113.506 352.167L118.183 357.17L122.127 356.305M122.127 356.305C122.136 355.623 122.142 354.926 122.145 354.213C122.145 354.213 121.045 338.763 108.298 336.464M108.298 336.464C108.298 334.383 108.567 332.815 108.298 331.135C108.028 329.456 113.408 331.135 112.895 331.762C112.383 332.389 110.093 334.628 108.298 336.464Z" stroke="black" stroke-width="2.66667"/>
<path d="M96.5472 438.081L92.6924 428.403C93.3606 425.253 93.7675 423.593 95.0209 422.366C97.0422 421.029 98.03 420.741 99.3956 421.485C101.497 422.788 100.747 424.637 98.9421 428.207C103.943 423.28 107.294 418.791 110.066 420.898C111.001 421.661 108.703 424.533 106.278 428.207C108.649 425.735 109.965 423.996 112.546 427.194C112.673 428.821 110.666 429.684 108.048 431.246C111.299 429.749 113.021 429.114 114.457 431.246C114.333 432.978 112.932 433.994 109.33 435.845C112.835 434.121 114.631 433.487 116.342 435.28C116.382 436.422 114.39 437.91 110.866 440.542L110.815 440.58C105.312 438.85 102.182 438.365 96.5472 438.081Z" fill="#FFE0B4" stroke="black" stroke-width="2.66667"/>
<path d="M119.331 322.615C119.917 324.292 120.619 326.236 121.087 327.518L125.783 324.608L117.763 312.76L93.2307 309.226L84.119 322.676L83.2165 326.547L89.4151 327.095L92.1697 316.593L89.3665 327.433L86.0081 350.749C101.104 349.799 109.235 350.606 122.977 355.108C122.447 340.409 122.008 331.71 119.331 322.615Z" fill="url(#paint1_linear_252_1266)"/>
<path d="M119.331 322.615C118.74 320.927 118.267 319.511 118.267 319.317C118.656 320.429 119.01 321.525 119.331 322.615ZM119.331 322.615C119.917 324.292 120.619 326.236 121.087 327.518L125.783 324.608L117.763 312.76L93.2307 309.226L84.119 322.676L83.2165 326.547L89.4151 327.095L92.1697 316.593L89.3665 327.433L86.0081 350.749C101.104 349.799 109.235 350.606 122.977 355.108C122.447 340.409 122.008 331.71 119.331 322.615ZM111.982 318.412C112.1 322.432 112.858 324.538 114.713 328.187M99.614 317.113C98.9071 321.416 97.8992 323.783 95.3623 327.952" stroke="black" stroke-width="1.33333" stroke-linecap="round"/>
<path d="M96.4913 361.281C96.4913 361.281 105.345 366.841 106.883 367.575C108.421 368.309 116.666 361.106 116.666 361.106" stroke="black" stroke-width="2.66667" stroke-linecap="round"/>
<path d="M103.275 371.237C103.03 372.69 101.654 373.668 100.202 373.424C98.7497 373.179 97.7708 371.803 98.0155 370.351C98.2601 368.899 99.6358 367.92 101.088 368.165C102.54 368.409 103.519 369.785 103.275 371.237Z" fill="black"/>
<path d="M115.967 372.8C115.722 374.252 114.346 375.231 112.894 374.986C111.442 374.742 110.463 373.366 110.708 371.914C110.952 370.461 112.328 369.482 113.78 369.727C115.233 369.972 116.211 371.347 115.967 372.8Z" fill="black"/>
<path d="M100.128 381.212C104.922 383.394 107.677 383.823 112.691 383.425" stroke="black" stroke-width="2" stroke-linecap="round"/>
<path d="M104.439 386.679C105.367 387.382 105.964 387.559 107.199 387.402" stroke="black" stroke-width="1.33333" stroke-linecap="round"/>
<g filter="url(#filter0_g_252_1266)">
<path d="M174.421 384.23L151.762 388.901L158.364 420.365C165.865 417.432 170.075 415.86 177.872 417.48C178.251 405.667 176.467 397.689 174.421 384.23Z" fill="white"/>
<path d="M174.421 384.23L151.762 388.901L158.364 420.365C165.865 417.432 170.075 415.86 177.872 417.48C178.251 405.667 176.467 397.689 174.421 384.23Z" stroke="#1C1C1C" stroke-width="1.33333" stroke-linecap="square"/>
</g>
<path d="M153.408 392.715L157.426 391.893L157.504 392.275L153.486 393.096L153.408 392.715ZM153.586 395.291L158.273 394.333L158.351 394.715L153.664 395.673L153.586 395.291ZM154.854 390.683L155.272 390.597L156.176 395.018L155.758 395.103L154.854 390.683ZM161.001 389.41L161.372 389.334L162.117 392.976L161.746 393.052L161.001 389.41ZM159.801 391.898L162.369 390.137L162.589 390.441L160.019 392.218L159.801 391.898ZM160.024 390.116L160.401 390.039L161.116 393.54C161.135 393.634 161.161 393.705 161.192 393.753C161.223 393.797 161.268 393.823 161.328 393.829C161.39 393.834 161.481 393.825 161.599 393.8C161.634 393.793 161.692 393.782 161.772 393.765C161.852 393.749 161.944 393.73 162.049 393.709C162.157 393.687 162.265 393.664 162.373 393.642C162.481 393.62 162.578 393.6 162.665 393.583C162.752 393.565 162.817 393.552 162.859 393.543C162.963 393.522 163.036 393.487 163.077 393.439C163.121 393.386 163.142 393.304 163.141 393.191C163.143 393.078 163.131 392.921 163.104 392.72C163.157 392.745 163.219 392.765 163.291 392.78C163.366 392.793 163.431 392.798 163.484 392.795C163.516 393.039 163.523 393.235 163.507 393.383C163.49 393.532 163.437 393.645 163.347 393.721C163.261 393.8 163.128 393.858 162.947 393.895C162.916 393.902 162.856 393.914 162.769 393.931C162.686 393.949 162.586 393.969 162.472 393.992C162.357 394.016 162.242 394.039 162.127 394.063C162.012 394.086 161.911 394.107 161.824 394.125C161.74 394.142 161.684 394.153 161.656 394.159C161.458 394.2 161.297 394.211 161.173 394.192C161.054 394.177 160.961 394.121 160.894 394.026C160.828 393.934 160.776 393.794 160.738 393.606L160.024 390.116ZM162.312 390.203L162.27 390.212L162.343 390.116L162.405 390.043L162.703 390.091L162.697 390.168C162.748 390.416 162.793 390.648 162.834 390.864C162.878 391.08 162.916 391.276 162.948 391.451C162.98 391.626 163.005 391.773 163.022 391.893C163.039 392.009 163.049 392.094 163.053 392.148C163.06 392.255 163.045 392.342 163.008 392.408C162.97 392.47 162.912 392.518 162.836 392.552C162.77 392.587 162.691 392.616 162.598 392.638C162.508 392.66 162.426 392.679 162.353 392.694C162.335 392.643 162.311 392.586 162.28 392.524C162.253 392.46 162.222 392.408 162.189 392.368C162.252 392.359 162.319 392.349 162.389 392.338C162.462 392.323 162.513 392.313 162.541 392.307C162.583 392.298 162.614 392.283 162.635 392.261C162.659 392.237 162.67 392.195 162.669 392.134C162.672 392.097 162.665 392.026 162.647 391.921C162.632 391.811 162.607 391.673 162.573 391.506C162.542 391.338 162.504 391.144 162.46 390.925C162.415 390.705 162.366 390.465 162.312 390.203ZM158.16 391.303L159.817 390.964L159.892 391.335L158.236 391.674L158.16 391.303ZM158.584 389.969L158.955 389.893L159.649 393.285L159.278 393.36L158.584 389.969ZM158.588 393.637C158.717 393.557 158.865 393.461 159.031 393.351C159.2 393.237 159.378 393.117 159.567 392.991C159.755 392.862 159.942 392.733 160.13 392.604L160.29 392.936C160.038 393.122 159.782 393.308 159.523 393.495C159.267 393.682 159.035 393.849 158.825 393.997L158.588 393.637ZM166.918 389.327L167.357 389.368C167.267 390.051 167.098 390.659 166.848 391.193C166.601 391.726 166.27 392.2 165.854 392.615C165.441 393.03 164.939 393.405 164.347 393.74C164.326 393.708 164.295 393.672 164.254 393.633C164.217 393.594 164.176 393.553 164.132 393.512C164.09 393.469 164.053 393.437 164.019 393.415C164.602 393.107 165.096 392.759 165.499 392.372C165.902 391.981 166.221 391.537 166.457 391.038C166.692 390.537 166.845 389.966 166.918 389.327ZM164.547 389.845C164.852 390.363 165.213 390.812 165.628 391.192C166.046 391.567 166.523 391.86 167.059 392.069C167.596 392.279 168.195 392.394 168.856 392.415C168.83 392.45 168.803 392.493 168.774 392.546C168.749 392.602 168.724 392.658 168.699 392.714C168.678 392.769 168.66 392.816 168.646 392.855C167.968 392.82 167.354 392.688 166.807 392.458C166.262 392.225 165.774 391.906 165.343 391.5C164.911 391.091 164.524 390.604 164.184 390.039L164.547 389.845ZM163.351 389.855L168.075 388.89L168.153 389.271L163.429 390.236L163.351 389.855ZM165.312 388.529L165.715 388.447L165.943 389.565L165.541 389.647L165.312 388.529ZM171.303 387.37L171.695 387.29L172.665 392.034L172.273 392.114L171.303 387.37ZM170.445 387.752L170.837 387.753C170.837 388.004 170.827 388.255 170.806 388.506C170.787 388.753 170.755 388.986 170.709 389.206C170.667 389.425 170.612 389.625 170.543 389.806C170.515 389.79 170.477 389.774 170.43 389.758C170.387 389.742 170.34 389.726 170.29 389.711C170.243 389.695 170.203 389.683 170.168 389.676C170.24 389.512 170.297 389.326 170.338 389.118C170.381 388.906 170.412 388.684 170.43 388.452C170.448 388.22 170.453 387.986 170.445 387.752ZM170.657 388.552L173.103 388.052L173.181 388.434L170.641 388.953L170.657 388.552ZM170.323 390.221L173.647 389.542L173.726 389.928L170.402 390.608L170.323 390.221ZM169.539 387.687L169.932 387.721C169.881 388.04 169.812 388.359 169.725 388.678C169.64 388.992 169.539 389.294 169.42 389.584C169.304 389.869 169.176 390.129 169.035 390.364C169.015 390.336 168.986 390.3 168.948 390.257C168.914 390.213 168.876 390.17 168.835 390.128C168.796 390.081 168.762 390.047 168.732 390.024C168.86 389.82 168.977 389.591 169.081 389.337C169.189 389.083 169.281 388.815 169.358 388.535C169.438 388.25 169.498 387.967 169.539 387.687ZM169.285 389.138L169.581 388.691L169.587 388.695L170.363 392.494L169.987 392.571L169.285 389.138Z" fill="black"/>
<path d="M82.5442 415.984L74.4824 389.07C79.9768 405.861 83.2656 411.078 87.1181 401.665L89.6758 393.659C88.7801 397.007 87.9364 399.666 87.1181 401.665L82.5442 415.984Z" fill="black" stroke="black" stroke-width="2.66667"/>
<path d="M86.9324 415.137L95.1311 415.833" stroke="black" stroke-width="2.66667"/>
</g>
</g>
<defs>
<filter id="filter0_g_252_1266" x="150.705" y="383.169" width="28.1515" height="38.3707" filterUnits="userSpaceOnUse" color-interpolation-filters="sRGB">
<feFlood flood-opacity="0" result="BackgroundImageFix"/>
<feBlend mode="normal" in="SourceGraphic" in2="BackgroundImageFix" result="shape"/>
<feTurbulence type="fractalNoise" baseFrequency="3 3" numOctaves="3" seed="8287" />
<feDisplacementMap in="shape" scale="0.53333336114883423" xChannelSelector="R" yChannelSelector="G" result="displacedImage" width="100%" height="100%" />
<feMerge result="effect1_texture_252_1266">
<feMergeNode in="displacedImage"/>
</feMerge>
</filter>
<linearGradient id="paint0_linear_252_1266" x1="133.291" y1="337.834" x2="85.4625" y2="486.278" gradientUnits="userSpaceOnUse">
<stop stop-color="#ECEBE6"/>
<stop offset="1" stop-color="#A4A4A4"/>
</linearGradient>
<linearGradient id="paint1_linear_252_1266" x1="107.355" y1="311.261" x2="101.349" y2="352.959" gradientUnits="userSpaceOnUse">
<stop stop-color="#333333"/>
<stop offset="1" stop-color="#111111"/>
</linearGradient>
<clipPath id="clip0_252_1266">
<rect width="390" height="781" fill="white" transform="translate(0.390381 0.5)"/>
</clipPath>
<clipPath id="clip1_252_1266">
<rect width="200" height="200" fill="white" transform="translate(-0.999756 307)"/>
</clipPath>
</defs>
</svg>
