<svg width="350" height="89" viewBox="0 0 350 89" fill="none" xmlns="http://www.w3.org/2000/svg">
<rect y="0.705902" width="350" height="88" rx="12" fill="#1C1C1C"/>
<path d="M22.816 27.6259C22.728 27.4499 22.64 27.2079 22.838 26.9439C22.926 26.8559 23.146 26.8339 23.388 26.6359C23.52 26.5479 23.696 26.3719 24.202 26.3939C24.532 26.4159 24.708 26.5479 24.84 26.6799C24.972 26.8339 25.126 26.7679 25.302 26.7899C25.566 26.8559 26.182 26.8999 26.468 26.9219C26.754 26.9219 27.15 27.0759 27.898 27.0099C28.228 26.9879 28.712 27.0539 29.108 27.0759C29.46 27.0759 30.274 26.7239 30.648 26.7459C31 26.7679 31.22 26.5919 31.902 26.3939C32.408 26.2839 32.892 26.4599 33.464 26.4819C33.838 26.5039 33.97 26.4819 34.102 26.5259C34.366 26.6579 34.586 26.5919 34.762 26.7459C34.894 26.8559 34.806 26.9219 34.894 27.0759L35.158 27.4719C35.356 27.8019 35.07 28.1979 34.916 28.4399C34.696 28.8579 34.652 28.9899 34.058 29.1659C33.706 29.3199 33.222 29.4959 32.826 29.7599C32.43 30.0679 32.144 30.1339 31.704 30.4859L31.506 30.6619C31.374 30.8379 31.176 30.9259 31.044 31.0359C31.022 31.2339 31.22 31.3439 31.594 31.5199C31.594 31.5199 32.1 31.5419 32.364 31.7619C32.628 31.9379 33.068 32.0919 33.398 32.0919C33.662 32.1139 33.838 32.2679 34.08 32.2679C34.806 32.2899 34.894 32.3339 35.466 32.5099C35.928 32.8619 36.39 32.9939 36.61 33.0379C36.852 33.1479 37.292 33.2139 37.688 33.3679C38.084 33.4999 38.48 33.7859 38.48 33.9179C38.48 34.0719 38.524 34.2259 38.48 34.4019C38.326 34.7099 38.458 34.8639 38.172 35.0179C37.688 35.3479 37.292 35.3479 36.786 35.2379C36.522 35.1719 36.236 35.1279 35.994 35.0399C35.818 34.9959 35.642 34.9079 35.466 34.8199C35.048 34.7099 34.828 34.6879 34.388 34.4459C33.684 34.0279 32.914 33.6759 32.166 33.3679C31.946 33.2579 31.748 33.1479 31.616 32.9939C31.33 32.6859 31.132 32.6419 30.78 32.4439C30.538 32.3999 30.208 32.3779 30.032 32.3779C29.636 32.5979 29.152 32.6639 28.756 32.9279C28.47 33.1479 28.404 33.3459 28.118 33.5219C27.854 33.6979 27.59 33.7419 27.304 33.8299C26.974 33.9619 26.71 34.1379 26.38 34.3579C26.16 34.5119 26.16 34.4679 25.786 34.7319C25.39 34.9739 25.17 35.4579 24.774 35.7879C24.51 36.0299 24.224 36.2059 23.982 36.3379C23.784 36.4699 23.256 36.5579 23.124 36.7779C22.926 37.0639 22.684 37.2619 22.288 37.3059C22.068 37.3499 21.936 37.4599 21.65 37.2839C21.342 37.1519 21.188 36.9539 21.122 36.7559C20.99 36.4479 20.968 36.3159 21.144 36.0299C21.298 35.7439 21.606 35.6559 21.804 35.4139C22.002 35.1279 22.288 34.9079 22.596 34.7319C22.86 34.5559 22.97 34.3139 23.256 34.2479C23.432 34.2039 23.828 33.7859 24.07 33.6759C24.444 33.5659 24.576 33.5879 24.84 33.3019C25.126 32.9719 25.324 32.9939 25.698 32.7739C26.116 32.4879 26.204 32.5099 26.644 32.2679C26.93 32.0479 27.018 32.1139 27.084 31.9599C27.15 31.8059 27.568 31.5419 27.898 31.3659C28.206 31.2339 28.448 31.0359 28.69 30.7939C28.998 30.5739 29.394 29.9799 29.746 29.7819C29.9 29.6719 30.076 29.6279 30.186 29.5399C30.362 29.3859 31.22 29.0559 31.418 28.7259C31.572 28.4179 32.1 28.3959 32.1 28.1979C32.1 28.1319 31.286 28.1759 31.286 28.1759C31.154 28.1759 30.318 28.3519 30.208 28.3959C30.01 28.4839 29.702 28.5279 29.438 28.6159C29.13 28.7259 28.976 28.8579 28.646 28.8579C28.426 28.8579 27.92 28.7699 27.722 28.8139C27.15 28.8799 26.556 28.7919 26.006 28.8579C25.5 28.9239 24.994 28.5939 24.488 28.5719C24.18 28.5499 23.542 28.3959 23.41 28.2859C23.366 28.2419 23.014 28.0879 22.992 27.8899C22.97 27.6919 22.816 27.6259 22.816 27.6259ZM28.932 34.8419C28.976 34.7539 28.998 34.6439 29.108 34.5339C29.284 34.3579 29.57 34.4019 29.79 34.4899C29.988 34.5559 30.428 34.5779 30.494 34.7979C30.494 34.7979 30.692 35.2819 30.736 35.4799C30.824 35.6559 30.802 35.9419 30.89 36.0519C30.978 36.2279 30.978 36.3159 31 36.4699C30.978 36.6239 30.978 36.7119 30.912 36.8439C30.868 36.9319 31 37.1959 30.978 37.2839C30.868 37.4159 30.978 37.7899 30.89 38.1199C30.868 38.2079 31.044 38.3399 31 38.4059C30.89 38.4939 31.154 39.0219 31 39.1539C30.868 39.2859 31.088 39.1759 31.198 39.1979C31.33 39.2199 31.528 39.1979 31.704 39.1979C31.792 39.1979 32.122 39.1539 32.32 39.1539C32.386 39.1539 32.716 39.0879 33.354 38.9779C33.992 38.8899 33.97 38.8679 34.168 38.8239C34.432 38.8019 34.718 38.9119 35.004 38.8239C35.202 38.7359 35.466 38.8899 35.928 38.8019C36.39 38.6919 37.336 38.8899 37.446 38.8899C37.622 38.8899 38.128 38.8679 38.7 39.1319C39.096 39.3079 39.47 39.4839 39.36 39.8579C39.272 40.1439 39.25 40.4079 39.14 40.5839C39.096 40.7599 38.92 40.8699 38.524 40.9359C38.37 40.9579 38.084 40.9799 37.952 40.9139C37.666 40.7599 37.468 40.8699 37.292 40.8699C37.006 40.8699 36.742 41.0239 36.566 41.0239C36.456 41.0239 36.192 41.1339 36.082 41.1339C35.906 41.1339 35.62 41.0679 35.532 41.0679C35.356 41.0679 34.586 41.1119 34.498 41.1119C34.322 41.1119 33.948 41.0239 33.64 41.0459C33.266 41.0679 32.826 40.9139 32.628 40.9139C32.562 40.9139 31.88 40.9359 31.66 40.9799C30.978 41.1119 30.12 40.9139 29.196 41.0899C29.064 41.1119 28.932 41.2219 28.756 41.2219C28.426 41.2219 28.096 41.3099 27.766 41.2879C27.568 41.2659 26.622 41.2879 26.358 41.2879C26.16 41.2879 25.434 41.3759 25.17 41.3759C24.994 41.3759 24.598 41.0679 24.18 41.3319C23.63 41.5079 23.388 41.5299 23.212 41.6179C23.014 41.7059 22.706 41.6179 22.552 41.6179C22.376 41.6179 22.134 41.6619 21.936 41.6179C21.562 41.5299 21.298 41.3319 21.1 41.1779C21.1 41.1779 20.924 41.0239 20.902 40.8699C20.836 40.1879 20.99 40.0779 21.716 39.7479C21.892 39.6599 22.288 39.4399 22.42 39.4619C22.662 39.5059 22.794 39.5499 22.794 39.5499C23.146 39.6159 23.212 39.2639 23.564 39.3299L24.378 39.4619C24.642 39.5059 24.906 39.4399 25.214 39.3959C25.5 39.3519 25.742 39.3959 25.852 39.3959C26.006 39.3959 26.204 39.4179 26.358 39.3959C26.644 39.3519 26.578 39.3519 26.842 39.2859C27.15 39.1979 27.634 39.1539 27.854 39.1759C28.008 39.1539 28.8 39.2639 28.976 39.1759C29.152 39.0879 29.064 38.7359 29.108 38.6479C29.196 38.4499 29.152 38.4499 29.174 38.3619C29.196 38.1859 29.086 37.7459 29.086 37.7459C29.064 37.1959 29.042 36.9099 28.976 36.4919C28.91 36.3379 29.064 36.0739 29.064 35.9859C29.108 35.7879 28.866 35.6119 28.932 35.4139C28.998 35.2159 28.866 34.9739 28.932 34.8419ZM46.0294 37.3939C45.8974 37.6579 45.3914 37.8119 45.2154 38.0319C44.9734 38.3179 44.5774 38.2739 44.3794 38.6039C44.1814 38.9339 43.9614 39.1099 43.7194 39.1979C43.3234 39.3519 43.0594 39.5719 42.5974 39.6159C42.1354 39.5719 42.0694 39.7919 41.8054 39.6379C41.6294 39.5279 41.5194 39.4839 41.3434 39.3959C41.1894 39.2859 41.1674 39.1099 41.3214 38.9119C41.4314 38.8019 41.5194 38.7359 41.7174 38.5819C42.0254 38.3399 42.0254 38.2959 42.1354 38.1639C42.2454 37.9879 42.3774 37.8559 42.5314 37.7019C42.7514 37.5259 43.5874 36.8659 43.6314 36.7779C43.7634 36.6019 43.9394 36.4039 44.2034 36.2059C44.4234 36.0519 44.9294 36.0299 45.0834 35.8759C45.2594 35.7219 45.9194 35.0399 46.2054 34.8639C46.5354 34.7099 47.0194 34.2259 47.1294 34.0719C47.2174 33.9179 47.3274 33.5879 47.3274 33.4339L47.2174 32.7959C47.2174 32.5099 46.4254 32.2239 46.2274 32.1579C45.9414 32.0479 45.3914 31.8279 45.1494 31.9379C44.7974 32.1139 44.8634 32.2679 44.5994 32.5979C44.3354 32.9059 44.0274 33.2359 43.5434 33.3899L42.8174 33.8519C42.2674 34.0719 42.3114 34.1599 41.7614 34.1159C41.2334 34.0499 41.0794 33.3899 40.9694 32.8839C40.8594 32.4219 41.7174 32.2019 42.2014 31.8279C42.6634 31.4759 43.1914 31.1239 43.5214 30.7939C43.6754 30.5959 44.0274 30.1339 44.2034 29.9579C44.8414 29.2759 45.0834 28.8579 45.0834 28.5279C45.0834 28.3079 45.1934 28.0659 45.3254 27.7799C45.4354 27.4719 45.5674 27.1419 45.6334 26.7459C45.6994 26.2839 45.4134 26.1299 45.1934 25.9319C45.0614 25.8219 44.9734 25.6679 44.9954 25.4479C45.2374 25.0739 45.7434 25.0519 46.3814 25.2719C47.0194 25.4919 47.5254 26.2839 47.5254 26.6139C47.5254 26.7899 47.6574 27.3179 47.5034 27.8459C47.3934 28.1979 46.9974 28.5279 46.9094 28.7039C46.6894 29.1439 46.6014 29.8919 46.6894 30.3319C46.7994 30.7499 47.5694 30.7499 48.0094 30.5959C48.2074 30.5299 48.6474 30.7719 48.8234 30.8159C49.3074 30.9479 49.3954 31.2779 49.5714 31.4319C49.6154 31.4759 49.7474 31.5419 49.8794 31.7179C50.4954 31.6519 51.1774 31.6079 51.4634 31.6519C51.7054 31.6959 52.6514 31.5419 53.1574 31.4759C53.4654 31.4099 53.9934 31.4099 54.7194 31.4539C55.4454 31.4979 55.7974 31.1239 56.0394 30.8379C56.2374 30.5739 56.0834 30.3539 55.9954 29.7379C55.9734 29.5179 55.9514 29.2979 55.9514 29.0779C55.9294 28.4839 56.0174 28.1539 55.9734 27.8459C55.9294 27.6039 55.8634 27.3619 55.4454 26.9659C55.2254 26.7459 54.9614 26.5039 54.9174 26.2839C54.7634 25.6679 54.8954 25.0299 55.1594 24.8319C55.4894 24.5899 55.5994 24.5899 55.9734 24.6779C56.1274 24.6999 56.1714 24.7219 56.3694 24.8759C56.3694 24.8759 56.7434 25.0299 56.9414 25.0959C57.1394 25.1619 57.1834 25.3159 57.2934 25.4039C57.4254 25.5139 57.3374 25.8219 57.4694 25.9759C57.6014 26.1299 57.6674 26.5699 57.8214 27.1639C57.8874 27.4499 58.0414 28.0439 57.8874 28.3519C57.7994 28.5279 57.8214 29.1219 57.8214 29.2539L57.9534 30.0459L57.8874 31.2119L57.8434 32.1139C57.8214 32.4219 57.8874 32.8399 57.8874 33.0599C57.8654 33.2799 57.9534 33.7639 57.9314 34.1379C57.9094 34.5559 57.7334 35.2819 57.6894 35.8099L57.7774 36.2719C57.7554 36.4039 57.6674 37.2179 57.5574 37.3719C57.4474 37.5259 57.6674 37.6799 57.5134 37.8999C57.3154 38.0979 57.0734 38.4939 56.8754 38.6039C56.6554 38.6919 56.5234 38.5159 56.3474 38.4939C56.2154 38.4939 55.9734 38.1639 55.8854 37.8339C55.7974 37.5259 55.7974 37.4379 55.7754 37.1079C55.7314 36.7779 55.7314 36.8219 55.7534 36.6019C55.7534 36.4039 55.6874 35.9639 55.6874 35.9639C55.6874 35.9639 55.7314 35.7659 55.9294 35.5019C56.0834 35.2379 55.9074 35.0179 55.9294 34.7979C55.9294 34.5999 56.0614 33.8739 55.9734 33.7199C55.8634 33.5439 55.7094 33.4779 55.4234 33.3239C55.2254 33.2359 54.6534 33.1919 54.3894 33.1919C54.0594 33.1919 53.8834 33.1259 53.6634 33.1259L52.2994 33.3019C51.9914 33.3019 51.3974 33.5439 50.9574 33.4119C50.8254 33.4119 49.8794 33.4559 49.2634 33.4779L49.2414 33.5219C49.0434 33.8299 48.8674 34.7539 48.5374 35.1499C48.2294 35.5019 47.9654 35.8759 47.7674 35.9859C47.5474 36.0959 47.4374 36.2719 47.1734 36.4699C46.9094 36.7559 46.6234 36.9539 46.3154 37.2179C46.2274 37.3059 46.0074 37.3059 46.0294 37.3939ZM45.8974 40.7599C45.5894 40.2319 45.2154 39.7259 45.2814 39.4399C45.3694 38.9779 46.2274 38.8899 46.7114 38.9999C47.0194 39.0879 47.3714 39.2419 47.4814 39.2419C47.7014 39.3079 47.9654 39.3959 48.0094 39.5499C48.0754 39.6819 48.2294 40.1659 48.4054 40.2539C48.6914 40.3639 48.4714 41.0239 48.9334 41.1119C49.1974 41.1779 49.4174 41.3979 49.5714 41.4639C49.8134 41.5739 50.7594 41.7279 50.9134 41.7279C51.0674 41.7279 51.9034 41.7059 52.1674 41.7499C52.4314 41.7939 52.7614 41.7059 52.8494 41.7059C53.0694 41.6839 53.6634 41.7719 54.2794 41.8819C54.5654 41.9039 55.0934 41.6619 55.6214 41.6399C56.1494 41.6179 56.5454 41.3319 56.6774 41.3319C57.1834 41.2879 57.4914 41.3539 57.7774 41.3319C58.0194 41.3319 58.7234 41.8599 59.0094 42.1899C59.1194 42.3219 58.9434 42.8939 58.8774 43.0919C58.7674 43.2899 58.3494 43.4219 57.7114 43.4439C57.2054 43.4659 56.9194 43.5759 56.6334 43.5759C55.9514 43.5979 55.9954 43.4659 55.6654 43.5979C55.4674 43.6859 54.6314 43.6419 54.3014 43.6639C53.9934 43.6639 53.8394 43.5759 53.5974 43.5979C53.4434 43.5979 52.9374 43.7519 52.3874 43.6859C51.7054 43.5979 51.2874 43.7519 51.0674 43.6639C50.8694 43.5539 49.6594 43.7959 49.3734 43.7299C49.2194 43.7079 48.5594 43.6199 48.2734 43.4879C48.0094 43.3339 47.6794 43.2459 47.5694 43.0919C47.4594 42.9159 46.7774 41.8379 46.5574 41.6399C46.3154 41.3759 46.0074 40.9139 45.8974 40.7599ZM76.7354 32.9499L78.3634 32.8619C78.3634 32.8619 79.1774 32.8619 79.5294 32.7519C79.8814 32.6419 81.1134 32.7739 82.8954 32.7519C84.6994 32.7299 83.9734 33.1699 84.8534 33.2579C85.7554 33.3459 85.5134 33.4999 85.6014 33.8299C85.6674 34.1599 84.9854 34.7979 84.9854 34.7979C84.9854 34.7979 84.1714 34.9079 83.4674 34.7539C82.7634 34.5999 80.9814 34.7759 80.7394 34.7539C80.4754 34.7319 79.8374 34.6659 79.5294 34.6659C79.2214 34.6659 78.5394 34.7539 78.2754 34.8199C78.0334 34.9079 78.2754 35.3259 78.2754 35.3259V36.9539C78.2754 36.9979 78.2534 37.0199 78.2534 37.0639L78.3854 37.1079C78.3854 37.1079 78.8254 37.1079 79.0674 37.1519C79.2654 37.1519 79.3534 37.3939 79.3534 37.3939L80.2774 38.0099C80.7614 38.2519 80.6734 38.2519 80.6734 38.2519C80.6734 38.2519 81.1354 38.6039 81.2234 38.8019C81.2674 38.9779 81.4214 39.0219 81.4214 39.0219L81.6634 40.0999C81.5974 40.3639 81.6634 40.4079 81.6634 40.4079C81.6634 40.4079 81.7074 40.7379 81.6634 40.8699C81.5534 40.9579 81.6634 41.1119 81.6634 41.1119L81.3774 41.8159V42.2339L81.2234 42.5859C81.1354 42.9599 80.9814 42.8719 80.8274 43.0039C80.7394 43.1139 80.6734 43.2019 80.5194 43.2899C80.4314 43.4439 80.3214 43.5319 80.0794 43.7299C79.8374 43.9939 79.8374 43.8619 79.7494 43.8619C79.5734 43.8619 79.4854 43.9279 79.4854 43.9279L78.6274 44.1259L77.8574 44.2579C77.8574 44.2579 77.5494 44.2579 77.1974 44.0819H76.5154C76.2954 43.9939 75.9654 44.0819 75.9654 44.0819L75.1734 43.7959C74.3814 43.5319 74.2714 43.2899 74.2714 43.2899C74.2714 43.2899 74.0734 43.2019 73.8754 43.0259C73.7434 42.9599 73.6334 42.8719 73.4574 42.8059C73.2814 42.6739 72.9954 42.4539 72.9954 42.4539C72.9954 42.4539 72.9514 41.9479 72.9954 41.7939C73.0614 41.6179 72.9514 41.3979 72.9954 40.9139C73.0614 40.3639 72.9514 40.5179 72.9954 40.1879C73.0614 39.8799 73.1494 39.7259 73.2374 39.6379V39.3299L73.3914 38.8679C73.3914 38.8899 73.4354 38.7579 73.6334 38.2519L73.9634 37.8119L74.2714 37.6139C74.2714 37.6139 74.4254 37.4599 74.5794 37.3279C74.7334 37.2179 74.7334 37.1079 74.7334 37.1079C74.7334 37.1079 75.5694 36.8659 75.7894 36.7559H76.2954C76.2514 36.6239 76.2294 36.4479 76.2294 36.2719C76.2074 36.0519 76.2294 35.8099 76.2954 35.5459C76.3614 35.3479 76.3614 35.2379 76.3394 35.1499C76.2734 34.8859 75.8774 35.0619 75.4374 35.0619C74.8654 35.0619 73.1494 35.1499 72.1594 35.3919C71.1914 35.6339 71.1034 35.5679 69.8054 35.3919C69.0354 35.3039 68.5954 35.2159 68.3974 34.9739C68.2654 34.8199 68.2214 34.5779 68.2654 34.2259C68.2874 33.9839 68.5074 33.7859 68.9034 33.5659C69.4754 33.2359 69.9814 33.3019 69.9594 33.3239C69.9594 33.3239 71.0374 33.4339 71.5874 33.2799C72.1594 33.1259 72.9074 33.4339 73.2374 33.2799C73.5894 33.1259 74.3594 33.2799 75.0634 33.2799C75.7674 33.2799 76.2514 32.9499 76.7354 32.9499ZM82.5214 25.0519C82.5214 25.0519 82.8954 25.2939 83.2034 25.6019C83.5334 25.9319 83.4234 26.4159 83.2694 26.6579C83.1154 26.8999 82.2134 26.7459 81.4654 26.7459C80.7394 26.7459 78.6054 26.7679 78.1874 26.7899C78.0554 26.7899 78.0114 26.8339 78.0334 26.8779C78.0994 27.0319 78.6934 27.3399 78.8254 27.3839L79.9914 28.0439C80.5194 28.3959 81.3334 28.7259 81.4654 28.7479C82.3454 29.0559 82.9614 29.1879 83.5774 29.5839C84.1714 29.9799 84.3474 30.2659 84.7654 30.7499C84.9854 30.9699 84.8094 31.2119 84.4794 31.3659C84.1274 31.5639 83.5774 31.6519 83.1814 31.4979C82.5654 31.2339 81.5534 30.9479 81.2674 30.6619C80.9814 30.3759 79.9254 29.6939 79.1774 29.3639C78.4514 29.0559 77.2194 28.5719 77.2194 28.5719C77.2194 28.5719 76.2514 29.4519 76.0094 29.4519C75.7454 29.4519 74.6234 30.5079 73.9634 30.8379C73.3034 31.1679 73.1714 31.5199 72.4894 31.6959C71.8954 31.8499 71.1914 32.4659 70.5314 32.5979C69.8934 32.7079 69.0794 32.3559 69.4754 31.0799C69.6294 30.5959 70.5314 30.6619 71.1694 30.2659C71.8074 29.8479 72.6874 29.4739 72.8194 29.2979C72.9514 29.1219 73.6774 29.1219 74.2274 28.7479C74.7774 28.3739 74.9534 28.2859 75.0854 28.1099C75.1954 27.9339 75.7234 27.7139 76.2514 27.3179C76.7574 26.9219 75.7454 26.8559 75.7454 26.8559C75.7454 26.8559 74.2494 27.0099 73.8094 27.0759C73.3914 27.1419 72.9514 27.0759 71.9174 27.0759C71.4334 27.0759 71.2794 26.8999 71.2354 26.6799C71.1914 26.4599 70.9934 26.2619 70.9054 26.1299C70.7074 25.8879 71.6314 25.4039 71.6314 25.4039C71.6314 25.4039 73.6774 25.3819 73.9414 25.2059C74.1834 25.0079 75.7454 25.2719 76.4274 25.2059C77.1094 25.1179 77.4614 25.0739 77.7694 24.9639C78.0774 24.8319 80.8494 25.1399 81.5314 24.8759C82.1914 24.6339 82.5214 25.0519 82.5214 25.0519ZM79.8154 40.4079V40.0999L79.5734 39.8799C79.5734 39.8799 79.3754 39.5719 79.2214 39.3739L79.0674 39.2419L78.4734 38.9559L78.2534 38.6479C78.2534 38.6479 78.1654 38.6479 77.9454 38.6039C77.7034 38.5819 77.5274 38.4719 77.5274 38.4719H77.1974L76.5374 38.5379H76.2954L75.8334 38.8019C75.5474 39.1759 75.3494 39.3299 75.3494 39.3299C75.3494 39.3299 75.3274 39.3739 75.1734 39.7259L75.0414 40.0339V40.6719C74.9974 40.8699 75.0414 40.8699 75.0414 41.1119C74.9974 41.3319 75.0414 41.3979 75.2834 41.6179L75.4374 41.8379H75.5474C75.7454 42.0799 75.8334 42.0139 75.9434 42.1239C76.0754 42.1679 76.2294 42.2339 76.5374 42.2779C76.7134 42.2779 76.6474 42.2559 76.8894 42.2779C77.1974 42.3219 77.1754 42.6299 77.5714 42.4319C77.9014 42.2339 78.1434 42.3219 78.3634 42.1459C78.3854 42.1239 78.4074 42.1239 78.4074 42.1019L78.5614 42.0139C78.9794 41.7939 78.9794 41.6839 79.0674 41.6179L79.2214 41.5739L79.7054 41.0019C79.7714 40.7379 79.8154 40.4079 79.8154 40.4079ZM97.8369 27.2299C98.1009 27.3179 98.4969 27.9779 98.7609 28.5499C98.8929 28.7919 98.6069 29.1879 98.7169 29.4739C98.8269 29.8259 98.7389 29.8919 98.6069 30.2219C98.3209 30.9259 98.2769 31.7619 97.9029 32.2679C97.5729 32.6859 97.3529 33.0379 97.1769 33.6099C97.0669 33.9619 96.5389 34.2919 96.2749 34.6219L95.8349 35.1499C95.5929 35.4799 95.4169 35.7439 95.0869 36.0739C94.4269 36.7559 94.1409 36.8659 94.0309 37.1739C93.9429 37.4159 93.2389 38.0539 92.6889 38.3619C92.3369 38.5379 91.8529 38.8019 91.4349 38.9559C90.6869 39.2419 90.0489 39.2859 89.6089 39.2419C88.8389 39.1539 88.7069 38.8239 89.1029 38.0539C89.2349 37.7459 90.2689 37.4379 90.3789 37.2619C90.5329 36.9759 91.1489 36.9319 91.7869 36.4699C92.0509 36.3159 92.2489 35.7439 92.4909 35.5459C92.7329 35.3919 93.1069 35.0179 93.4589 34.6439C93.7889 34.2699 94.0969 33.9399 94.1849 33.8079C94.9109 32.8399 95.6149 32.2459 96.0989 31.4099C96.2309 31.2119 96.2529 30.7499 96.3189 30.5299C96.4289 30.2219 96.5389 30.1779 96.4509 29.9139C96.3629 29.6719 96.6489 29.4959 96.3629 29.3199C95.9889 29.0999 95.1529 29.3419 94.7349 29.5179C94.4929 29.6279 93.8109 29.6059 93.5469 29.7599C93.2829 29.8919 92.9749 29.5619 92.6449 29.6939C92.0509 29.9359 91.1049 29.8259 90.5989 29.8039C89.7629 29.7599 89.4549 29.7599 89.1029 29.4079C88.3769 28.7039 88.4869 28.2199 89.1029 27.7359C89.6749 27.2519 90.5329 27.7359 90.5329 27.7359H91.5449C92.0949 27.7359 92.7769 27.6479 93.1949 27.6479C94.0309 27.6479 95.4609 27.5819 96.2749 27.2299C97.1109 26.8779 97.8369 27.2299 97.8369 27.2299ZM101.511 26.5479C101.621 26.1519 101.379 25.2499 101.643 25.1399C101.797 25.0959 101.907 24.4579 102.083 24.4579C102.281 24.4359 102.875 24.5459 103.073 24.5679C103.271 24.5899 103.755 25.3159 103.909 25.5359C104.349 26.0859 104.239 26.9219 104.173 27.5379C104.173 27.9119 104.239 28.7919 104.239 29.8699C104.239 30.4859 104.195 31.1459 104.129 31.8059C103.997 32.7959 104.547 34.8639 104.063 35.7879C103.799 36.2719 104.305 37.3499 104.305 37.8119C104.305 38.4059 104.283 39.0219 104.217 39.7039C104.129 40.6719 103.865 41.3979 103.513 41.8819C103.315 42.2119 103.051 42.4319 102.809 42.6079C102.479 42.8279 102.149 42.9159 101.885 42.9159C101.401 42.9159 101.555 42.3439 101.665 41.3979C101.731 40.8259 101.379 40.3199 101.797 39.6599C102.083 39.2199 101.863 38.4059 101.885 37.9439C101.929 37.1739 101.863 35.9859 101.885 35.3039C101.907 34.4459 101.973 32.4879 101.819 32.0699C101.467 31.1019 101.951 29.9139 101.819 28.5059C101.687 27.1199 101.269 27.4059 101.511 26.5479Z" fill="white"/>
<path d="M20.9883 58.7332C21.6621 58.3348 22.3359 57.8368 23.0391 57.2215H24.2695V65.7059H23.0391V58.745H22.9922C22.3359 59.2664 21.6504 59.7293 20.9883 60.0692V58.7332ZM26.4961 62.1551L26.9531 57.2098H31.8867V58.3582H28.0898L27.8203 61.0418H27.8672C28.3301 60.4911 29.0039 60.1629 29.7656 60.1629C31.2012 60.1629 32.4434 61.3289 32.4492 62.9872C32.4434 64.6805 31.166 65.87 29.3672 65.87C27.9551 65.87 26.8125 65.1375 26.2148 63.8543L27.3633 63.3856C27.7734 64.2821 28.459 64.7332 29.3555 64.7332C30.457 64.7332 31.1895 64.036 31.1953 62.9989C31.1895 61.9618 30.457 61.2645 29.3672 61.2645C28.6055 61.2645 28.0195 61.5985 27.7383 62.1551H26.4961ZM36.3281 65.87C35.2734 65.87 34.3887 65.3895 33.7148 64.4637L34.6641 63.7489C35.1562 64.4168 35.6777 64.7039 36.3164 64.6981C37.5352 64.7039 38.4902 63.6551 38.5664 61.5809H38.5195C38.0332 62.3075 37.2305 62.7586 36.293 62.7528C34.7754 62.7586 33.6035 61.5692 33.5977 59.9286C33.6035 58.2469 34.8633 57.0575 36.6094 57.0575C38.6484 57.0575 39.8262 58.7098 39.832 61.2762C39.8262 64.1883 38.3379 65.87 36.3281 65.87ZM36.6094 61.6629C37.6289 61.6571 38.3555 60.9422 38.3555 59.9286C38.3555 58.909 37.6289 58.1942 36.6094 58.1942C35.584 58.1942 34.8574 58.909 34.8516 59.9286C34.8574 60.9422 35.584 61.6571 36.6094 61.6629ZM41.1445 64.5575C44.1152 62.6063 45.457 61.1004 45.457 59.7411C45.457 58.7801 44.8184 58.2118 43.8867 58.2176C43.1602 58.2118 42.6211 58.5516 42.3281 59.5536L41.1211 59.2254C41.5605 57.7196 42.5918 57.0575 43.8867 57.0575C45.5273 57.0575 46.7109 58.1297 46.7109 59.7176C46.7109 61.3055 45.4219 62.8524 43.1367 64.5106V64.5575H46.8398V65.7059H41.1445V64.5575ZM56.6953 56.2137V63.9598H55.5586V60.3973H52.6875V59.5067H55.5586V58.4051H52.6875V57.5145H55.5586V56.2137H56.6953ZM56.9531 65.5653V66.4793H49.8516V63.2801H50.9766V65.5653H56.9531ZM49.6523 56.9403V61.534C51.082 61.5223 52.377 61.4403 53.8828 61.1707L54 62.0965C52.3359 62.3954 50.8828 62.4657 49.3477 62.4598H48.5508V56.9403H49.6523ZM65.918 62.5418C64.7461 62.5418 64.3242 61.6102 63.5977 61.6043C63.293 61.6102 63.0176 61.786 62.4375 62.4364L61.5352 61.6278C62.3145 60.7782 62.8125 60.3856 63.5508 60.3856C64.7168 60.3856 65.1387 61.3172 65.8594 61.3231C66.1641 61.3172 66.4453 61.1414 67.0312 60.4793L67.9336 61.2997C67.1484 62.1493 66.6504 62.5418 65.918 62.5418ZM72.2227 58.7332C72.8965 58.3348 73.5703 57.8368 74.2734 57.2215H75.5039V65.7059H74.2734V58.745H74.2266C73.5703 59.2664 72.8848 59.7293 72.2227 60.0692V58.7332ZM77.5547 58.37V57.2215H83.2852V58.3465C81.5156 60.5672 80.5137 62.9051 80.2852 65.7059H79.0781C79.2832 62.9579 80.1797 60.6024 81.7617 58.4168V58.37H77.5547ZM84.5273 64.5575C87.498 62.6063 88.8398 61.1004 88.8398 59.7411C88.8398 58.7801 88.2012 58.2118 87.2695 58.2176C86.543 58.2118 86.0039 58.5516 85.7109 59.5536L84.5039 59.2254C84.9434 57.7196 85.9746 57.0575 87.2695 57.0575C88.9102 57.0575 90.0938 58.1297 90.0938 59.7176C90.0938 61.3055 88.8047 62.8524 86.5195 64.5106V64.5575H90.2227V65.7059H84.5273V64.5575ZM94.6289 65.87C92.8477 65.87 91.5176 64.7977 91.5117 63.3622C91.5176 62.3895 92.1504 61.575 93.2812 61.2176V61.1825C92.4434 60.8719 91.9746 60.2332 91.9805 59.3778C91.9746 58.0418 93.0996 57.0575 94.6289 57.0575C96.1582 57.0575 97.2832 58.0418 97.2891 59.3778C97.2832 60.2332 96.8145 60.8719 95.9766 61.1825V61.2176C97.1191 61.575 97.7402 62.3836 97.7461 63.3622C97.7402 64.7977 96.4102 65.87 94.6289 65.87ZM94.6289 64.7684C95.7129 64.7625 96.4746 64.1473 96.4688 63.2684C96.4746 62.3895 95.7129 61.7743 94.6289 61.7684C93.5449 61.7743 92.7832 62.3895 92.7891 63.2684C92.7832 64.1473 93.5449 64.7625 94.6289 64.7684ZM94.6289 60.7372C95.4492 60.743 96.0293 60.2039 96.0352 59.4481C96.0293 58.6981 95.4492 58.1649 94.6289 58.159C93.8086 58.1649 93.2285 58.6981 93.2344 59.4481C93.2285 60.2039 93.8086 60.743 94.6289 60.7372ZM107.461 56.2137V63.9598H106.324V60.3973H103.453V59.5067H106.324V58.4051H103.453V57.5145H106.324V56.2137H107.461ZM107.719 65.5653V66.4793H100.617V63.2801H101.742V65.5653H107.719ZM100.418 56.9403V61.534C101.848 61.5223 103.143 61.4403 104.648 61.1707L104.766 62.0965C103.102 62.3954 101.648 62.4657 100.113 62.4598H99.3164V56.9403H100.418Z" fill="#A7A7A7"/>
</svg>
