<svg width="22" height="22" viewBox="0 0 22 22" fill="none" xmlns="http://www.w3.org/2000/svg">
<path d="M13.1665 14.25C13.4734 14.25 13.7398 14.1371 13.9655 13.9114C14.1912 13.6858 14.304 13.4194 14.304 13.1125C14.304 12.8055 14.1912 12.5392 13.9655 12.3135C13.7398 12.0878 13.4734 11.975 13.1665 11.975C12.8596 11.975 12.5932 12.0878 12.3675 12.3135C12.1419 12.5392 12.029 12.8055 12.029 13.1125C12.029 13.4194 12.1419 13.6858 12.3675 13.9114C12.5932 14.1371 12.8596 14.25 13.1665 14.25ZM12.354 10.7833H13.979C13.979 10.2597 14.0332 9.87603 14.1415 9.63228C14.2498 9.38853 14.5026 9.06805 14.8998 8.67082C15.4415 8.12916 15.8026 7.69131 15.9832 7.35728C16.1637 7.02325 16.254 6.63055 16.254 6.17916C16.254 5.36666 15.9696 4.70311 15.4009 4.18853C14.8321 3.67395 14.0873 3.41666 13.1665 3.41666C12.4262 3.41666 11.7807 3.6243 11.23 4.03957C10.6794 4.45485 10.2957 5.00555 10.079 5.69166L11.5415 6.28749C11.704 5.8361 11.9252 5.49756 12.205 5.27187C12.4849 5.04617 12.8054 4.93332 13.1665 4.93332C13.5998 4.93332 13.9519 5.0552 14.2228 5.29895C14.4936 5.5427 14.629 5.87221 14.629 6.28749C14.629 6.54027 14.5568 6.7795 14.4123 7.0052C14.2679 7.23089 14.0151 7.51527 13.654 7.85832C13.0582 8.38194 12.6925 8.7927 12.5571 9.09062C12.4217 9.38853 12.354 9.95277 12.354 10.7833ZM6.6665 17.5C6.07067 17.5 5.5606 17.2878 5.1363 16.8635C4.71199 16.4392 4.49984 15.9292 4.49984 15.3333V2.33332C4.49984 1.73749 4.71199 1.22742 5.1363 0.803115C5.5606 0.378809 6.07067 0.166656 6.6665 0.166656H19.6665C20.2623 0.166656 20.7724 0.378809 21.1967 0.803115C21.621 1.22742 21.8332 1.73749 21.8332 2.33332V15.3333C21.8332 15.9292 21.621 16.4392 21.1967 16.8635C20.7724 17.2878 20.2623 17.5 19.6665 17.5H6.6665ZM2.33317 21.8333C1.73734 21.8333 1.22727 21.6212 0.802962 21.1969C0.378657 20.7726 0.166504 20.2625 0.166504 19.6667V4.49999H2.33317V19.6667H17.4998V21.8333H2.33317Z" fill="#FFF597"/>
</svg>
