<svg width="93" height="93" viewBox="0 0 93 93" fill="none" xmlns="http://www.w3.org/2000/svg">
<path d="M38.469 57.8489L55.689 18.4182L61.5065 21.3075L44.2775 60.4924L38.469 57.8489Z" fill="#C48536"/>
<path d="M63.2236 17.7474L57.0673 14.831L55.5312 18.4887L61.5411 21.4442L63.2236 17.7474Z" fill="#593C1A"/>
<path d="M44.3214 60.3915L38.5129 57.748C34.2481 63.0451 32.599 65.7909 32.1146 69.9472L39.6256 73.3656C42.0145 71.2125 43.4086 67.8683 44.3214 60.3915Z" fill="#513716"/>
<path d="M28.408 74.9092C28.4907 73.1336 29.9294 71.26 32.1621 69.848L39.7732 73.3119C38.2211 82.0349 28.5949 84.061 24.6532 81.3C27.6487 80.478 28.2424 78.4606 28.408 74.9092Z" fill="url(#paint0_linear_228_1332)"/>
<path d="M27.9039 81.3288C33.9068 77.1701 28.4084 73.5797 33.2172 71.7789" stroke="#796C5C" stroke-width="0.440121"/>
<path d="M30.1259 81.4938C32.059 80.53 34.2704 79.0279 35.6377 76.0235" stroke="#766959" stroke-width="0.440121"/>
<path d="M37.5586 76.2933C37.3163 77.2639 36.7013 77.6573 36.1192 78.4186" stroke="#766959" stroke-width="0.440121"/>
<path d="M60.8436 16.8214C69.0509 11.0066 62.5696 6.12259 59.0409 16.001L59.6418 16.2744C63.962 7.84426 66.5466 11.1965 60.2427 16.5479L60.8436 16.8214Z" fill="#593C1A"/>
<defs>
<linearGradient id="paint0_linear_228_1332" x1="32.8445" y1="71.0048" x2="25.837" y2="81.3552" gradientUnits="userSpaceOnUse">
<stop stop-color="#5E5043"/>
<stop offset="1" stop-color="#786F5E"/>
</linearGradient>
</defs>
</svg>
